<?xml version="1.0" encoding="utf-8"?>
<!-- Generator: Adobe Illustrator 24.0.0, SVG Export Plug-In . SVG Version: 6.00 Build 0)  -->
<svg version="1.1" xmlns="http://www.w3.org/2000/svg" xmlns:xlink="http://www.w3.org/1999/xlink" x="0px" y="0px"
	 viewBox="0 0 96 96" style="enable-background:new 0 0 96 96;" xml:space="preserve">
<style type="text/css">
	.st0{display:none;}
	.st1{fill:#FFFFFF;}
</style>
<g id="Layer_1" class="st0">
</g>
<g id="Layer_2">
	<g>
		<circle class="st1" cx="48" cy="48" r="47.9"/>
		<g>
			<g>
				<path d="M48,67c-9.69,0-18.83-2.38-25.74-6.71C15.03,55.76,11.04,49.62,11.04,43s3.99-12.76,11.23-17.29
					C29.18,21.38,38.32,19,48,19s18.83,2.38,25.74,6.71C80.98,30.24,84.97,36.39,84.97,43s-3.99,12.76-11.23,17.29
					C66.83,64.62,57.69,67,48,67z M48,23.57c-8.84,0-17.12,2.14-23.31,6.01C18.83,33.25,15.6,38.01,15.6,43
					c0,4.99,3.23,9.75,9.09,13.42c6.19,3.88,14.47,6.01,23.31,6.01s17.12-2.14,23.31-6.01c5.86-3.67,9.09-8.44,9.09-13.42
					c0-4.99-3.23-9.75-9.09-13.42C65.12,25.7,56.84,23.57,48,23.57z"/>
			</g>
			<g>
				<path d="M48,59.55c-7.67,0-14.89-1.69-20.34-4.75c-5.6-3.15-8.69-7.39-8.69-11.95s3.08-8.8,8.69-11.95
					c5.45-3.06,12.67-4.75,20.34-4.75s14.89,1.69,20.34,4.75c5.6,3.15,8.69,7.39,8.69,11.95s-3.08,8.8-8.69,11.95
					C62.89,57.86,55.67,59.55,48,59.55z M48,27.87c-7.38,0-14.3,1.61-19.5,4.53c-5.04,2.83-7.81,6.55-7.81,10.45
					s2.78,7.62,7.81,10.45c5.19,2.92,12.12,4.53,19.5,4.53s14.3-1.61,19.5-4.53c5.04-2.83,7.81-6.55,7.81-10.45
					s-2.78-7.62-7.81-10.45C62.31,29.48,55.38,27.87,48,27.87z"/>
			</g>
			<g>
				<path d="M48.04,77l-0.13,0c-22.1-0.8-31.18-8.82-34.63-13.53c-1.17-1.6-1.81-3.5-1.87-5.51l-0.39-14.89l4.56-0.12l0.39,14.89
					c0.03,1.07,0.37,2.09,0.99,2.93c1.33,1.82,3.9,4.47,8.64,6.81c5.84,2.88,13.37,4.52,22.39,4.85c9.02-0.34,16.55-1.97,22.39-4.85
					c4.73-2.34,7.31-4.99,8.64-6.81c0.62-0.85,0.96-1.86,0.99-2.93l0.39-14.89l4.56,0.12l-0.39,14.89c-0.05,2.01-0.7,3.91-1.87,5.51
					C79.27,68.17,70.19,76.19,48.09,77L48.04,77z"/>
			</g>
			<g>
				<path d="M55.81,37.24c-1.48,0.22-2.81,0.64-4.01,1.26c-1.21,0.63-2.64,1.49-4.31,2.59c-1.6,1.08-2.91,1.86-3.94,2.32
					c-1.03,0.47-2.01,0.56-2.93,0.27c-0.92-0.29-1.4-0.79-1.44-1.5c-0.04-0.71,0.49-1.61,1.58-2.69c1.54-1.53,3.74-2.82,6.57-3.85
					l-3.38-2.7c-1.49,0.47-2.95,1.14-4.37,1.99c-0.88,0.53-1.69,1.1-2.44,1.7l-4.11-1.36l-3.55,3.36l4.39,1.4
					c-0.5,0.74-0.85,1.45-1.03,2.13c-0.36,1.35-0.15,2.5,0.61,3.46c0.76,0.96,1.95,1.68,3.55,2.16c1.83,0.55,3.57,0.68,5.23,0.4
					c1.64-0.28,3.1-0.76,4.36-1.45c1.25-0.68,2.71-1.58,4.37-2.71c1.06-0.73,1.93-1.29,2.61-1.68c0.68-0.39,1.35-0.68,2.02-0.85
					c0.66-0.17,1.28-0.16,1.86,0.04c0.78,0.26,1.18,0.73,1.19,1.39c0.01,0.66-0.47,1.53-1.45,2.6c-0.88,0.97-2.01,1.88-3.39,2.72
					c-1.39,0.85-2.83,1.52-4.31,2.01l3.21,2.7c1.56-0.51,3.16-1.32,4.8-2.4c1-0.66,1.9-1.36,2.72-2.11l2.95,0.94l2.8-3.22
					l-2.95-0.97c0.5-0.8,0.83-1.55,0.98-2.26c0.25-1.23,0.05-2.27-0.6-3.15c-0.65-0.88-1.65-1.55-3-2.02
					C58.8,37.2,57.28,37.03,55.81,37.24z"/>
			</g>
		</g>
	</g>
</g>
</svg>
