<?xml version="1.0" encoding="utf-8"?>
<!-- Generator: Adobe Illustrator 24.0.0, SVG Export Plug-In . SVG Version: 6.00 Build 0)  -->
<svg version="1.1" id="Layer_1" xmlns="http://www.w3.org/2000/svg" xmlns:xlink="http://www.w3.org/1999/xlink" x="0px" y="0px"
	 viewBox="0 0 96 96" style="enable-background:new 0 0 96 96;" xml:space="preserve">
<style type="text/css">
	.st0{fill:#FFBB24;}
	.st1{fill:#8799A0;}
	.st2{fill:#FFFFFF;}
</style>
<g>
	<circle class="st2" cx="48" cy="48" r="47.67"/>
	<g>
		<g>
			<path class="st0" d="M48,29.92H21.05c-1.61,0-2.92-1.31-2.92-2.92v-1.57c0-0.54,0.31-1.03,0.79-1.27L48,9.63l29.08,14.53
				c0.48,0.24,0.79,0.73,0.79,1.27V27c0,1.61-1.31,2.92-2.92,2.92H48"/>
		</g>
		<g>
			<rect x="19.68" y="29.92" class="st1" width="56.56" height="3.87"/>
		</g>
		<g>
			<rect x="64.08" y="60.45" class="st0" width="8.04" height="3.77"/>
		</g>
		<g>
			<rect x="51.48" y="60.57" class="st0" width="8.04" height="3.77"/>
		</g>
		<g>
			<rect x="36.63" y="60.45" class="st0" width="8.04" height="3.77"/>
		</g>
		<g>
			<rect x="23.77" y="60.61" class="st0" width="8.04" height="3.77"/>
		</g>
		<g>
			<path class="st0" d="M76.45,69.5H19.54v-0.08c0-2.38,1.93-4.31,4.31-4.31h48.29c2.38,0,4.31,1.93,4.31,4.31V69.5z"/>
		</g>
		<g>
			<rect x="15.84" y="69.74" class="st0" width="64.32" height="4.73"/>
		</g>
		<g>
			<rect x="65.64" y="34.42" class="st1" width="5.25" height="25.61"/>
		</g>
		<g>
			<rect x="52.74" y="33.79" class="st1" width="5.76" height="26.33"/>
		</g>
		<g>
			<rect x="38.08" y="33.79" class="st1" width="5.54" height="26.24"/>
		</g>
		<g>
			<rect x="25.19" y="34.09" class="st1" width="5.72" height="26.03"/>
		</g>
		<g>
			<path d="M75.71,35.14H48v-2.1h27.27v-3.46h2.1v3.9C77.37,34.4,76.63,35.14,75.71,35.14z"/>
		</g>
		<g>
			<path d="M73.44,64.55h-2.1V61.5h-6.25v3.05h-2.1v-3.84c0-0.72,0.59-1.31,1.31-1.31h7.82c0.72,0,1.31,0.59,1.31,1.31V64.55z"/>
		</g>
		<g>
			<polygon points="66.13,60.71 64.03,60.67 64.61,33.36 71.82,33.36 72.39,60.43 70.29,60.47 69.76,35.47 66.67,35.47 			"/>
		</g>
		<g>
			<path d="M60.73,64.22h-2.1v-3.05h-6.25v3.05h-2.1v-3.84c0-0.72,0.59-1.31,1.31-1.31h7.82c0.72,0,1.31,0.59,1.31,1.31V64.22z"/>
		</g>
		<g>
			<polygon points="53.42,60.38 51.32,60.34 51.9,33.04 59.11,33.04 59.68,60.1 57.58,60.14 57.05,35.14 53.96,35.14 			"/>
		</g>
		<g>
			<path d="M77.8,70.79H48v-2.1h27.7v-1.14c0-1.08-0.87-1.95-1.95-1.95H48v-2.1h25.75c2.23,0,4.05,1.82,4.05,4.05V70.79z"/>
		</g>
		<g>
			<path d="M79.32,75.52H48v-2.1h31.11v-2.62H48v-2.1h31.32c1.04,0,1.89,0.85,1.89,1.89v3.05C81.21,74.67,80.36,75.52,79.32,75.52z"
				/>
		</g>
		<g>
			<path d="M74.95,30.97h-53.9c-2.19,0-3.97-1.78-3.97-3.97v-1.57c0-0.94,0.52-1.79,1.37-2.22L48,8.45l29.55,14.77
				c0.84,0.42,1.37,1.27,1.37,2.22V27C78.92,29.19,77.14,30.97,74.95,30.97z M48,10.8L19.39,25.1c-0.13,0.06-0.21,0.19-0.21,0.33V27
				c0,1.03,0.84,1.87,1.87,1.87h53.9c1.03,0,1.87-0.84,1.87-1.87v-1.57c0-0.14-0.08-0.27-0.21-0.33L48,10.8z"/>
		</g>
		<g>
			<path d="M48,35.14H20.29c-0.92,0-1.66-0.74-1.66-1.66v-3.9h2.1v3.46H48V35.14z"/>
		</g>
		<g>
			<path d="M33.01,64.55h-2.1V61.5h-6.25v3.05h-2.1v-3.84c0-0.72,0.59-1.31,1.31-1.31h7.82c0.72,0,1.31,0.59,1.31,1.31V64.55z"/>
		</g>
		<g>
			<polygon points="29.87,60.71 29.33,35.47 26.24,35.47 25.71,60.47 23.61,60.43 24.18,33.36 31.39,33.36 31.97,60.67 			"/>
		</g>
		<g>
			<path d="M45.72,64.22h-2.1v-3.05h-6.25v3.05h-2.1v-3.84c0-0.72,0.59-1.31,1.31-1.31h7.82c0.72,0,1.31,0.59,1.31,1.31V64.22z"/>
		</g>
		<g>
			<polygon points="42.58,60.38 42.04,35.14 38.95,35.14 38.42,60.14 36.32,60.1 36.89,33.04 44.1,33.04 44.68,60.34 			"/>
		</g>
		<g>
			<path d="M48,70.79H18.2v-3.24c0-2.23,1.82-4.05,4.05-4.05H48v2.1H22.25c-1.08,0-1.95,0.87-1.95,1.95v1.14H48V70.79z"/>
		</g>
		<g>
			<path d="M48,75.52H16.68c-1.04,0-1.89-0.85-1.89-1.89v-3.05c0-1.04,0.85-1.89,1.89-1.89H48v2.1H16.89v2.62H48V75.52z"/>
		</g>
		<g>
			<g>
				<circle class="st0" cx="48" cy="48.04" r="12.48"/>
			</g>
			<g>
				<path d="M60.43,42.79c-0.68-1.61-1.65-3.05-2.89-4.29c-1.24-1.24-2.68-2.21-4.29-2.89c-1.66-0.7-3.43-1.06-5.25-1.06
					s-3.59,0.36-5.25,1.06c-1.61,0.68-3.05,1.65-4.29,2.89c-1.24,1.24-2.21,2.68-2.89,4.29c-0.7,1.66-1.06,3.43-1.06,5.25
					c0,1.82,0.36,3.59,1.06,5.25c0.68,1.61,1.65,3.05,2.89,4.29c1.24,1.24,2.68,2.21,4.29,2.89c1.66,0.7,3.43,1.06,5.25,1.06
					c1.82,0,3.59-0.36,5.25-1.06c1.61-0.68,3.05-1.65,4.29-2.89c1.24-1.24,2.21-2.68,2.89-4.29c0.7-1.66,1.06-3.43,1.06-5.25
					C61.49,46.22,61.13,44.46,60.43,42.79z M59.74,48.04c0,6.48-5.27,11.74-11.74,11.74s-11.74-5.27-11.74-11.74
					c0-6.48,5.27-11.74,11.74-11.74S59.74,41.57,59.74,48.04z"/>
			</g>
			<g>
				<path d="M48,37.4c-2.84,0-5.51,1.11-7.52,3.12c-2.01,2.01-3.12,4.68-3.12,7.52c0,2.84,1.11,5.51,3.12,7.53
					c2.01,2.01,4.68,3.12,7.52,3.12c2.84,0,5.51-1.11,7.53-3.12c2.01-2.01,3.12-4.68,3.12-7.53c0-2.84-1.11-5.51-3.12-7.52
					C53.51,38.51,50.84,37.4,48,37.4z M48,57.73c-5.34,0-9.69-4.35-9.69-9.69c0-5.34,4.35-9.69,9.69-9.69
					c5.34,0,9.69,4.35,9.69,9.69C57.69,53.39,53.34,57.73,48,57.73z"/>
			</g>
			<g>
				<path d="M49.28,51.39c-0.09-0.08-0.37-0.28-0.81-0.6c-0.48-0.34-0.76-0.57-0.86-0.67c-0.07-0.08-0.1-0.16-0.1-0.25
					c0-0.09,0.05-0.17,0.15-0.24c0.1-0.07,0.22-0.11,0.38-0.11c0.32,0,0.62,0.18,0.93,0.54l0.87-0.65c-0.32-0.32-0.62-0.54-0.9-0.66
					c-0.28-0.12-0.57-0.18-0.88-0.18c-0.02,0-0.04,0-0.06,0v-0.52h-0.64v0.63c-0.19,0.06-0.36,0.16-0.51,0.28
					c-0.32,0.26-0.49,0.57-0.49,0.94c0,0.25,0.1,0.5,0.29,0.76c0.2,0.25,0.63,0.61,1.3,1.08c0.35,0.24,0.58,0.43,0.68,0.55
					c0.1,0.12,0.15,0.24,0.15,0.36c0,0.13-0.07,0.25-0.2,0.35c-0.14,0.1-0.31,0.15-0.51,0.15c-0.38,0-0.73-0.23-1.02-0.69
					l-0.98,0.51c0.23,0.39,0.51,0.68,0.83,0.86c0.32,0.18,0.69,0.27,1.11,0.27v0.59h0.64v-0.65c0.29-0.07,0.55-0.19,0.76-0.36
					c0.35-0.28,0.52-0.64,0.52-1.07c0-0.22-0.05-0.42-0.15-0.61C49.68,51.79,49.52,51.59,49.28,51.39z"/>
			</g>
			<g>
				<path d="M52.01,44.53l-0.66-0.61l0.09,0.89c0.04,0.41,0.05,1.56-0.41,1.98c-0.16,0.14-0.37,0.19-0.65,0.13
					c-0.26-0.05-0.43-0.14-0.5-0.27c-0.17-0.29,0.06-0.94,0.29-1.56c0.23-0.63,0.48-1.35,0.48-2.05c0-0.95-0.34-1.84-0.96-2.52
					c-0.63-0.69-1.49-1.07-2.41-1.09l-0.52-0.01l0.2,0.48c0.02,0.05,0.51,1.31-0.43,2.81c-1.12,1.8-1.54,2.64-1.86,3.98
					c-0.12-0.49-0.16-1.13,0.03-1.89l0.23-0.89l-0.76,0.53c-0.04,0.02-0.88,0.62-1.6,1.82c-0.66,1.1-1.34,2.94-0.82,5.45l0,0.01
					c0.35,1.39,1.12,2.54,2.23,3.34c1.1,0.79,2.5,1.21,4.06,1.21c1.53,0,3-0.47,4.15-1.33c0.89-0.67,1.54-1.52,1.88-2.48
					c0.05-0.14,0.43-1.21,0.4-2.67C54.41,48.4,53.96,46.33,52.01,44.53z M53.61,51.53l-0.01,0c-0.04,0.23-0.09,0.45-0.16,0.67
					c-0.01,0.04-0.02,0.06-0.02,0.06l0,0c-0.69,1.96-2.87,3.35-5.38,3.35c-2.88,0-4.98-1.51-5.62-4.03
					c-0.38-1.83-0.13-3.49,0.72-4.93c0.25-0.41,0.51-0.75,0.75-1.01c-0.06,1.44,0.58,2.37,0.61,2.42l0.47,0.67l0.15-0.81
					c0.34-1.88,0.57-2.55,2-4.83c0.75-1.21,0.73-2.3,0.62-2.91c1.29,0.25,2.25,1.43,2.25,2.87c0,0.58-0.22,1.21-0.44,1.82
					c-0.29,0.8-0.56,1.56-0.24,2.12c0.17,0.3,0.49,0.51,0.95,0.6c0.63,0.13,1.03-0.09,1.25-0.29c0.45-0.41,0.6-1.11,0.64-1.68
					c1.04,1.19,1.59,2.59,1.64,4.18C53.78,50.5,53.7,51.1,53.61,51.53z"/>
			</g>
		</g>
	</g>
</g>
</svg>
