<?xml version="1.0" encoding="utf-8"?>
<!-- Generator: Adobe Illustrator 24.0.0, SVG Export Plug-In . SVG Version: 6.00 Build 0)  -->
<svg version="1.1" id="Layer_1" xmlns="http://www.w3.org/2000/svg" xmlns:xlink="http://www.w3.org/1999/xlink" x="0px" y="0px"
	 viewBox="0 0 96 96" style="enable-background:new 0 0 96 96;" xml:space="preserve">
<style type="text/css">
	.st0{fill:#FFBB24;}
	.st1{fill:#8799A0;}
	.st2{fill:#FFFFFF;}
</style>
<g>
	<g>
		<path class="st0" d="M48,30.97H9.95c-2.28,0-4.12-1.85-4.12-4.12v-2.21c0-0.76,0.43-1.46,1.11-1.8L48,2.31l41.06,20.52
			c0.68,0.34,1.11,1.04,1.11,1.8v2.21c0,2.28-1.85,4.12-4.12,4.12H48"/>
	</g>
	<g>
		<rect x="8.01" y="30.97" class="st1" width="79.86" height="5.46"/>
	</g>
	<g>
		<rect x="70.7" y="74.07" class="st0" width="11.35" height="5.33"/>
	</g>
	<g>
		<rect x="52.92" y="74.24" class="st0" width="11.35" height="5.33"/>
	</g>
	<g>
		<rect x="31.95" y="74.07" class="st0" width="11.35" height="5.33"/>
	</g>
	<g>
		<rect x="13.79" y="74.3" class="st0" width="11.35" height="5.33"/>
	</g>
	<g>
		<path class="st0" d="M88.18,86.84H7.82v-0.92c0-2.92,2.36-5.28,5.28-5.28h69.79c2.92,0,5.28,2.36,5.28,5.28V86.84z"/>
	</g>
	<g>
		<rect x="2.59" y="87.18" class="st0" width="90.81" height="6.68"/>
	</g>
	<g>
		<rect x="72.9" y="37.31" class="st1" width="7.41" height="36.16"/>
	</g>
	<g>
		<rect x="54.69" y="36.42" class="st1" width="8.13" height="37.18"/>
	</g>
	<g>
		<rect x="33.99" y="36.42" class="st1" width="7.83" height="37.05"/>
	</g>
	<g>
		<rect x="15.79" y="36.85" class="st1" width="8.07" height="36.76"/>
	</g>
	<g>
		<path d="M87.13,38.33H48v-2.97h38.51v-4.88h2.97v5.51C89.47,37.28,88.42,38.33,87.13,38.33z"/>
	</g>
	<g>
		<path d="M83.92,79.86h-2.97v-4.31h-8.82v4.31h-2.97v-5.42c0-1.02,0.83-1.86,1.86-1.86h11.05c1.02,0,1.86,0.83,1.86,1.86V79.86z"/>
	</g>
	<g>
		<polygon points="73.6,74.44 70.64,74.38 71.45,35.83 81.63,35.83 82.44,74.04 79.47,74.1 78.72,38.8 74.36,38.8 		"/>
	</g>
	<g>
		<path d="M65.97,79.39H63v-4.31h-8.82v4.31h-2.97v-5.42c0-1.02,0.83-1.86,1.86-1.86h11.05c1.02,0,1.86,0.83,1.86,1.86V79.39z"/>
	</g>
	<g>
		<polygon points="55.66,73.98 52.69,73.91 53.5,35.37 63.68,35.37 64.5,73.57 61.53,73.64 60.78,38.33 56.41,38.33 		"/>
	</g>
	<g>
		<path d="M90.07,88.67H48V85.7h39.11V84.1c0-1.52-1.24-2.75-2.75-2.75H48v-2.97h36.35c3.16,0,5.72,2.57,5.72,5.72V88.67z"/>
	</g>
	<g>
		<path d="M92.22,95.34H48v-2.97h43.92v-3.71H48V85.7h44.22c1.47,0,2.67,1.2,2.67,2.67v4.3C94.89,94.15,93.69,95.34,92.22,95.34z"/>
	</g>
	<g>
		<path d="M86.05,32.45H9.95c-3.09,0-5.61-2.51-5.61-5.61v-2.21c0-1.33,0.74-2.53,1.93-3.13L48,0.66L89.73,21.5
			c1.19,0.6,1.93,1.79,1.93,3.13v2.21C91.66,29.94,89.15,32.45,86.05,32.45z M48,3.97L7.6,24.16c-0.18,0.09-0.29,0.27-0.29,0.47
			v2.21c0,1.45,1.18,2.64,2.64,2.64h76.11c1.45,0,2.64-1.18,2.64-2.64v-2.21c0-0.2-0.11-0.38-0.29-0.47L48,3.97z"/>
	</g>
	<g>
		<path d="M48,38.33H8.87c-1.29,0-2.34-1.05-2.34-2.34v-5.51h2.97v4.88H48V38.33z"/>
	</g>
	<g>
		<path d="M26.84,79.86h-2.97v-4.31h-8.82v4.31h-2.97v-5.42c0-1.02,0.83-1.86,1.86-1.86h11.05c1.02,0,1.86,0.83,1.86,1.86V79.86z"/>
	</g>
	<g>
		<polygon points="22.4,74.44 21.64,38.8 17.28,38.8 16.53,74.1 13.56,74.04 14.37,35.83 24.55,35.83 25.36,74.38 		"/>
	</g>
	<g>
		<path d="M44.78,79.39h-2.97v-4.31H33v4.31h-2.97v-5.42c0-1.02,0.83-1.86,1.86-1.86h11.05c1.02,0,1.86,0.83,1.86,1.86V79.39z"/>
	</g>
	<g>
		<polygon points="40.34,73.98 39.59,38.33 35.22,38.33 34.47,73.64 31.5,73.57 32.32,35.37 42.5,35.37 43.31,73.91 		"/>
	</g>
	<g>
		<path d="M48,88.67H5.93V84.1c0-3.16,2.57-5.72,5.72-5.72H48v2.97H11.65c-1.52,0-2.75,1.24-2.75,2.75v1.61H48V88.67z"/>
	</g>
	<g>
		<path d="M48,95.34H3.78c-1.47,0-2.67-1.2-2.67-2.67v-4.3c0-1.47,1.2-2.67,2.67-2.67H48v2.97H4.08v3.71H48V95.34z"/>
	</g>
	<g>
		<g>
			<circle class="st0" cx="48" cy="56.55" r="17.62"/>
		</g>
		<g>
			<path d="M65.55,49.14c-0.96-2.27-2.33-4.3-4.08-6.05c-1.75-1.75-3.78-3.12-6.05-4.08c-2.35-0.99-4.84-1.5-7.41-1.5
				s-5.06,0.5-7.41,1.5c-2.27,0.96-4.3,2.33-6.05,4.08c-1.75,1.75-3.12,3.78-4.08,6.05c-0.99,2.35-1.5,4.84-1.5,7.41
				c0,2.57,0.5,5.06,1.5,7.41c0.96,2.27,2.33,4.3,4.08,6.05c1.75,1.75,3.78,3.12,6.05,4.08c2.35,0.99,4.84,1.5,7.41,1.5
				c2.57,0,5.06-0.5,7.41-1.5c2.27-0.96,4.3-2.33,6.05-4.08c1.75-1.75,3.12-3.78,4.08-6.05c0.99-2.35,1.5-4.84,1.5-7.41
				C67.04,53.98,66.54,51.49,65.55,49.14z M64.58,56.55c0,9.14-7.44,16.58-16.58,16.58S31.42,65.7,31.42,56.55
				c0-9.14,7.44-16.58,16.58-16.58S64.58,47.41,64.58,56.55z"/>
		</g>
		<g>
			<path d="M48,41.53c-4.01,0-7.79,1.56-10.62,4.4c-2.84,2.84-4.4,6.61-4.4,10.62s1.56,7.79,4.4,10.62c2.84,2.84,6.61,4.4,10.62,4.4
				c4.01,0,7.79-1.56,10.62-4.4c2.84-2.84,4.4-6.61,4.4-10.62s-1.56-7.79-4.4-10.62C55.79,43.09,52.01,41.53,48,41.53z M48,70.23
				c-7.54,0-13.68-6.14-13.68-13.68c0-7.54,6.14-13.68,13.68-13.68c7.54,0,13.68,6.14,13.68,13.68C61.68,64.1,55.54,70.23,48,70.23z
				"/>
		</g>
		<g>
			<path d="M49.81,61.28c-0.13-0.12-0.52-0.4-1.15-0.85c-0.67-0.49-1.08-0.8-1.21-0.95c-0.1-0.11-0.15-0.23-0.15-0.35
				c0-0.12,0.07-0.24,0.21-0.33c0.14-0.1,0.32-0.15,0.53-0.15c0.45,0,0.88,0.25,1.31,0.76l1.22-0.92c-0.46-0.45-0.88-0.76-1.27-0.94
				c-0.39-0.17-0.8-0.26-1.24-0.26c-0.03,0-0.05,0-0.08,0v-0.74h-0.9v0.89c-0.26,0.09-0.5,0.22-0.72,0.4
				c-0.46,0.37-0.69,0.81-0.69,1.32c0,0.36,0.14,0.71,0.41,1.07c0.28,0.36,0.89,0.86,1.83,1.52c0.5,0.35,0.82,0.6,0.96,0.77
				c0.15,0.17,0.22,0.34,0.22,0.5c0,0.18-0.1,0.35-0.29,0.49c-0.19,0.14-0.43,0.21-0.71,0.21c-0.54,0-1.02-0.33-1.44-0.98
				l-1.39,0.71c0.33,0.55,0.72,0.96,1.18,1.22c0.45,0.25,0.97,0.38,1.56,0.39v0.83h0.9v-0.92c0.42-0.09,0.77-0.26,1.08-0.51
				c0.49-0.4,0.74-0.9,0.74-1.5c0-0.31-0.07-0.6-0.21-0.86C50.38,61.84,50.14,61.56,49.81,61.28z"/>
		</g>
		<g>
			<path d="M53.66,51.6l-0.93-0.86L52.85,52c0.06,0.58,0.07,2.21-0.58,2.8c-0.22,0.2-0.53,0.26-0.92,0.18
				c-0.37-0.07-0.6-0.2-0.7-0.38c-0.23-0.41,0.09-1.32,0.4-2.2c0.32-0.89,0.68-1.91,0.68-2.89c0-1.34-0.48-2.6-1.36-3.55
				c-0.89-0.97-2.1-1.52-3.41-1.54l-0.74-0.01l0.28,0.68c0.03,0.07,0.72,1.85-0.61,3.97c-1.58,2.53-2.18,3.72-2.63,5.62
				c-0.16-0.69-0.23-1.6,0.04-2.67l0.33-1.26l-1.07,0.74c-0.05,0.03-1.24,0.87-2.26,2.56c-0.93,1.55-1.89,4.15-1.16,7.7l0,0.02
				c0.5,1.96,1.59,3.59,3.15,4.71c1.55,1.12,3.53,1.71,5.73,1.71c2.16,0,4.23-0.67,5.85-1.88c1.26-0.94,2.17-2.15,2.65-3.5
				c0.08-0.2,0.61-1.71,0.56-3.77C57.05,57.05,56.42,54.13,53.66,51.6z M55.91,61.48l-0.02,0c-0.05,0.32-0.13,0.64-0.23,0.94
				c-0.02,0.06-0.03,0.09-0.03,0.09l0,0c-0.98,2.76-4.05,4.73-7.59,4.73c-4.06,0-7.03-2.13-7.94-5.69
				c-0.53-2.59-0.19-4.93,1.02-6.96c0.35-0.59,0.72-1.06,1.05-1.42c-0.09,2.03,0.81,3.35,0.86,3.42l0.66,0.95l0.21-1.14
				c0.49-2.65,0.8-3.6,2.82-6.83c1.06-1.71,1.03-3.25,0.88-4.12c1.82,0.35,3.17,2.02,3.17,4.06c0,0.82-0.32,1.71-0.62,2.57
				c-0.4,1.13-0.79,2.2-0.34,3c0.24,0.43,0.7,0.71,1.35,0.85c0.88,0.18,1.45-0.13,1.76-0.41c0.64-0.58,0.85-1.57,0.91-2.37
				c1.47,1.68,2.25,3.66,2.31,5.9C56.16,60.02,56.04,60.87,55.91,61.48z"/>
		</g>
	</g>
</g>
</svg>
