<?xml version="1.0" encoding="utf-8"?>
<!-- Generator: Adobe Illustrator 24.0.0, SVG Export Plug-In . SVG Version: 6.00 Build 0)  -->
<svg version="1.1" id="Layer_1" xmlns="http://www.w3.org/2000/svg" xmlns:xlink="http://www.w3.org/1999/xlink" x="0px" y="0px"
	 viewBox="0 0 96 96" style="enable-background:new 0 0 96 96;" xml:space="preserve">
<style type="text/css">
	.st0{fill:#FFFFFF;}
</style>
<g>
	<circle class="st0" cx="48" cy="48" r="47.89"/>
	<g>
		<path d="M81.87,33.69c-1.85-4.38-4.5-8.31-7.88-11.68c-3.38-3.37-7.31-6.03-11.68-7.88c-4.53-1.92-9.35-2.89-14.31-2.89
			s-9.78,0.97-14.31,2.89c-4.38,1.85-8.31,4.5-11.68,7.88c-3.38,3.38-6.03,7.31-7.88,11.68c-1.92,4.53-2.89,9.35-2.89,14.31
			c0,4.96,0.97,9.78,2.89,14.31c1.85,4.38,4.5,8.31,7.88,11.68c3.38,3.37,7.31,6.03,11.68,7.88c4.53,1.92,9.35,2.89,14.31,2.89
			c4.96,0,9.78-0.97,14.31-2.89c4.38-1.85,8.31-4.5,11.68-7.88c3.37-3.37,6.02-7.31,7.88-11.68c1.92-4.53,2.89-9.35,2.89-14.31
			C84.76,43.04,83.79,38.22,81.87,33.69z M80.01,48c0,17.65-14.36,32.01-32.01,32.01S15.99,65.65,15.99,48
			c0-17.65,14.36-32.01,32.01-32.01S80.01,30.35,80.01,48z"/>
		<path d="M48,18.99c-7.75,0-15.03,3.02-20.51,8.5c-5.48,5.48-8.5,12.76-8.5,20.51s3.02,15.03,8.5,20.51
			c5.48,5.48,12.76,8.5,20.51,8.5c7.75,0,15.03-3.02,20.51-8.5c5.48-5.48,8.5-12.76,8.5-20.51s-3.02-15.03-8.5-20.51
			C63.03,22.01,55.75,18.99,48,18.99z M48,74.4c-14.56,0-26.4-11.84-26.4-26.4c0-14.56,11.84-26.4,26.4-26.4
			c14.56,0,26.4,11.84,26.4,26.4C74.4,62.56,62.56,74.4,48,74.4z"/>
		<path d="M51.49,57.11c-0.26-0.23-1-0.77-2.21-1.64c-1.3-0.94-2.08-1.55-2.34-1.84c-0.19-0.21-0.29-0.44-0.29-0.68
			c0-0.24,0.13-0.45,0.4-0.65c0.27-0.19,0.61-0.29,1.03-0.29c0.86,0,1.7,0.49,2.53,1.48l2.36-1.78c-0.88-0.87-1.7-1.48-2.46-1.81
			c-0.76-0.33-1.55-0.5-2.39-0.5c-0.05,0-0.1,0-0.15,0V48h-1.73v1.72c-0.51,0.18-0.97,0.43-1.39,0.77
			c-0.89,0.71-1.33,1.56-1.33,2.55c0,0.69,0.27,1.37,0.8,2.06c0.53,0.69,1.71,1.67,3.54,2.94c0.96,0.67,1.58,1.16,1.86,1.49
			c0.28,0.32,0.42,0.65,0.42,0.97c0,0.36-0.19,0.67-0.56,0.94c-0.37,0.27-0.83,0.41-1.38,0.41c-1.05,0-1.98-0.63-2.78-1.89
			l-2.68,1.38c0.63,1.07,1.39,1.85,2.27,2.35c0.86,0.48,1.87,0.73,3.02,0.75v1.6h1.73v-1.77c0.8-0.18,1.5-0.51,2.08-0.98
			c0.95-0.76,1.42-1.73,1.42-2.9c0-0.6-0.14-1.16-0.4-1.67C52.59,58.2,52.13,57.67,51.49,57.11z"/>
		<path d="M58.92,38.43l-1.8-1.66l0.25,2.44c0.11,1.12,0.14,4.26-1.13,5.41c-0.43,0.39-1.02,0.51-1.78,0.35
			c-0.71-0.14-1.16-0.39-1.35-0.73c-0.45-0.8,0.18-2.55,0.78-4.25c0.62-1.73,1.31-3.68,1.31-5.58c0-2.58-0.93-5.02-2.63-6.86
			c-1.73-1.87-4.06-2.92-6.58-2.97l-1.42-0.03l0.55,1.31c0.06,0.14,1.39,3.56-1.17,7.67c-3.05,4.89-4.2,7.19-5.07,10.84
			c-0.31-1.33-0.45-3.09,0.09-5.15l0.63-2.43l-2.06,1.43c-0.1,0.07-2.4,1.69-4.36,4.95c-1.8,3-3.66,8.01-2.24,14.87l0.01,0.04
			c0.96,3.78,3.06,6.92,6.07,9.1c2.99,2.16,6.82,3.3,11.06,3.3c4.16,0,8.17-1.29,11.3-3.62c2.43-1.81,4.19-4.15,5.11-6.75
			c0.15-0.39,1.18-3.31,1.08-7.28C65.47,48.96,64.24,43.32,58.92,38.43z M63.28,57.5l-0.04-0.01c-0.1,0.62-0.25,1.23-0.44,1.82
			c-0.04,0.11-0.06,0.16-0.06,0.17l0,0c-1.89,5.33-7.82,9.14-14.66,9.14c-7.84,0-13.57-4.1-15.32-10.98
			c-1.03-4.99-0.37-9.52,1.97-13.44c0.67-1.13,1.4-2.05,2.03-2.75c-0.17,3.91,1.57,6.47,1.66,6.6l1.28,1.84l0.4-2.2
			c0.94-5.12,1.55-6.95,5.44-13.18c2.05-3.29,1.99-6.27,1.69-7.94c3.52,0.67,6.12,3.89,6.12,7.84c0,1.58-0.61,3.3-1.21,4.96
			c-0.78,2.19-1.52,4.25-0.65,5.79c0.47,0.83,1.34,1.38,2.6,1.63c1.71,0.35,2.79-0.24,3.41-0.8c1.23-1.12,1.64-3.03,1.75-4.58
			c2.84,3.24,4.34,7.06,4.46,11.39C63.76,54.69,63.53,56.32,63.28,57.5z"/>
	</g>
</g>
</svg>
