<?xml version="1.0" encoding="utf-8"?>
<!-- Generator: Adobe Illustrator 24.0.0, SVG Export Plug-In . SVG Version: 6.00 Build 0)  -->
<svg version="1.1" id="Layer_1" xmlns="http://www.w3.org/2000/svg" xmlns:xlink="http://www.w3.org/1999/xlink" x="0px" y="0px"
	 viewBox="0 0 96 96" style="enable-background:new 0 0 96 96;" xml:space="preserve">
<style type="text/css">
	.st0{fill:#FFFFFF;}
</style>
<g>
	<circle class="st0" cx="48" cy="48" r="47.88"/>
	<g>
		<path d="M72.33,36.07v-4.76c0-2.67-0.8-5.21-2.31-7.33c-1.66-2.34-3.96-3.84-6.64-4.35l-3.42-0.64l1.04,3.32
			c0.61,1.95,1.19,5.67,0.15,7.35c-0.3,0.49-0.72,0.75-1.38,0.86c-1.46,0.24-2.45-0.05-2.95-0.87c-0.82-1.33-0.39-3.72,1.02-5.7
			c2.06-2.87,2.32-6.22,0.7-8.96c-1.6-2.72-4.73-4.16-8.16-3.75l-2.6,0.31l0.89,2.47c0.4,1.12,1,3.96,0.18,5.15
			c-0.11,0.16-0.45,0.65-1.8,0.67c-0.04,0-0.06,0-0.08,0c0,0,0,0,0,0c-0.32-0.34-0.53-1.64-0.45-2.68l0.31-3.39l-3.16,1.27
			c-0.24,0.1-5.92,2.43-6.91,7.38c-0.47,2.35-0.16,4.1,0.09,5.51c0.21,1.21,0.28,1.73,0.07,2.23c-0.12,0.09-0.59,0.18-1.14-0.06
			c-1.3-0.57-2.09-2.56-0.41-6.43l1.56-3.59l-3.85,0.71c-0.25,0.05-6.05,1.19-8.5,7.24c-0.61,1.5-0.91,3.11-0.91,4.79v3.27
			l-5.81,5.71v29.89c0,2.92,2.37,5.29,5.29,5.29h49.69c2.92,0,5.29-2.37,5.29-5.29V41.77L72.33,36.07z M30.03,48.83
			c3.11,1.54,5.6,2.76,7.39,3.63c0.59,0.28,1.1,0.53,1.54,0.74L21.33,69.45V44.52C23.38,45.53,26.72,47.19,30.03,48.83z
			 M22.57,42.03l1.79-1.77v2.66C23.75,42.62,23.15,42.32,22.57,42.03z M34.38,33.26c1.03,0.45,2.16,0.57,3.19,0.33
			c1.16-0.28,2.07-1,2.51-1.99c0.68-1.53,0.43-2.92,0.19-4.28c-0.22-1.24-0.44-2.51-0.1-4.22c0.35-1.73,1.78-3.02,2.99-3.84
			c0.16,1.01,0.52,2.14,1.27,2.95c0.69,0.75,1.62,1.13,2.69,1.11c2.6-0.05,3.94-1.21,4.6-2.18c1.33-1.94,1.11-4.62,0.74-6.42
			c1.34,0.22,2.45,0.93,3.1,2.04c0.9,1.52,0.7,3.45-0.53,5.17c-2.27,3.16-2.73,7-1.15,9.55c1.26,2.03,3.61,2.93,6.46,2.47
			c1.65-0.27,2.96-1.12,3.78-2.46c0.97-1.58,1.29-3.8,0.95-6.61c-0.04-0.35-0.09-0.69-0.15-1.01c0.86,0.51,1.62,1.22,2.27,2.13
			c1.09,1.53,1.66,3.37,1.66,5.31V44.3c-5.89,2.92-11.93,5.89-14.01,6.87l-0.6-0.56c-1.7-1.57-3.92-2.44-6.24-2.44c0,0,0,0-0.01,0
			c-2.32,0-4.53,0.87-6.24,2.44l-0.6,0.56c-2.08-0.97-8.12-3.95-14.02-6.87V32.8c0-1.23,0.22-2.41,0.66-3.49
			c0.83-2.05,2.19-3.3,3.4-4.06C30.25,29.65,32.15,32.28,34.38,33.26z M55.51,51.78L55.51,51.78L55.51,51.78
			C55.51,51.78,55.51,51.78,55.51,51.78z M40.5,51.78L40.5,51.78L40.5,51.78C40.49,51.78,40.5,51.78,40.5,51.78z M43.64,52.65
			c1.19-1.1,2.74-1.7,4.36-1.7c1.62,0,3.17,0.61,4.36,1.7l1.27,1.17v0c0,0,0,0,0,0l20.61,19.01c-0.33,0.4-0.83,0.65-1.39,0.65H48h0
			H23.15c-0.56,0-1.06-0.25-1.39-0.65L43.64,52.65z M74.67,69.45L57.05,53.2c0.44-0.21,0.95-0.46,1.54-0.74
			c1.79-0.87,4.28-2.09,7.39-3.63c3.31-1.64,6.65-3.29,8.69-4.31V69.45z M71.64,42.92v-2.66l1.79,1.77
			C72.85,42.32,72.25,42.62,71.64,42.92z"/>
		<path d="M47.42,46.37c4.21,0.57,6.51-2.38,6.51-2.38l-0.96-0.95c-0.91,1.05-4.25,2.9-7.2,1.36c-2.95-1.54-2.82-5.38-1.34-7.69
			c1.48-2.31,5.09-3.26,7.02-1.7c1.93,1.56,1.87,3.56,1.07,5.29c-0.8,1.73-2.51,1.76-2.3,0.36c0.15-0.99,1.25-4.58,1.25-4.58
			l-1.41-0.08c-0.11,0.34-0.22,0.68-0.32,1.01c-0.62-1.14-1.91-1.62-3.41-0.64c-1.91,1.25-2.43,4.85-0.85,6.12
			c1.34,1.07,2.93,0.27,3.39,0c0.06,0.16,0.16,0.28,0.28,0.35c0.88,0.49,4.49,0.35,5.04-3.7c0.51-3.79-1.9-6.54-6.1-6.28
			c-4.49,0.28-6.21,4.93-6.18,7.39C41.94,42.74,42.86,45.76,47.42,46.37z M48.84,40.66c-0.66,0.73-2.12,1.35-2.59,0.57
			c-0.53-0.89,0.1-3.82,1.47-3.78c0.97,0.03,1.35,0.93,1.49,1.45C49.04,39.55,48.91,40.14,48.84,40.66z"/>
	</g>
</g>
</svg>
