<?xml version="1.0" encoding="utf-8"?>
<!-- Generator: Adobe Illustrator 24.0.0, SVG Export Plug-In . SVG Version: 6.00 Build 0)  -->
<svg version="1.1" id="Layer_1" xmlns="http://www.w3.org/2000/svg" xmlns:xlink="http://www.w3.org/1999/xlink" x="0px" y="0px"
	 viewBox="0 0 96 96" style="enable-background:new 0 0 96 96;" xml:space="preserve">
<style type="text/css">
	.st0{fill:#FFFFFF;}
</style>
<path class="st0" d="M92.09,29.37c-2.41-5.7-5.86-10.82-10.25-15.21c-4.39-4.39-9.51-7.84-15.21-10.25
	C60.73,1.41,54.46,0.14,48,0.14S35.27,1.41,29.37,3.91c-5.7,2.41-10.82,5.86-15.21,10.25c-4.39,4.39-7.84,9.51-10.25,15.21
	C1.41,35.27,0.14,41.54,0.14,48c0,6.46,1.27,12.73,3.76,18.63c2.41,5.7,5.86,10.82,10.25,15.21c4.39,4.39,9.51,7.84,15.21,10.25
	c5.9,2.5,12.17,3.76,18.63,3.76s12.73-1.27,18.63-3.76c5.7-2.41,10.82-5.86,15.21-10.25c4.39-4.39,7.84-9.51,10.25-15.21
	c2.5-5.9,3.76-12.17,3.76-18.63C95.86,41.54,94.59,35.27,92.09,29.37z M87.03,62.49c-3.41,2.39-7.57,4.4-12.26,6
	c1.28-5.75,2.02-11.97,2.15-18.41h12.66C89.37,54.42,88.48,58.59,87.03,62.49z M6.42,50.07h12.66c0.13,6.53,0.89,12.83,2.2,18.64
	c-4.57-1.49-8.66-3.38-12.07-5.61C7.61,59.03,6.64,54.65,6.42,50.07z M9.21,32.89c3.42-2.23,7.51-4.12,12.09-5.62
	c-1.32,5.83-2.08,12.14-2.22,18.65H6.42C6.64,41.35,7.61,36.97,9.21,32.89z M50.07,23.39c7.15,0.18,13.98,1.12,20.11,2.74
	c1.55,6.07,2.44,12.8,2.59,19.8h-22.7V23.39z M50.07,19.24V6.42c4.54,0.22,8.89,1.18,12.94,2.75c2.33,3.47,4.29,7.67,5.83,12.37
	C63.01,20.19,56.66,19.4,50.07,19.24z M45.93,19.22c-6.53,0.11-12.87,0.86-18.72,2.16c1.54-4.64,3.48-8.79,5.78-12.22
	c4.05-1.57,8.4-2.53,12.94-2.75V19.22z M45.93,23.37v22.55h-22.7c0.15-7.06,1.06-13.85,2.64-19.97
	C32.02,24.4,38.84,23.5,45.93,23.37z M23.23,50.07h22.7v22.55c-7.09-0.13-13.92-1.02-20.08-2.58
	C24.28,63.94,23.37,57.16,23.23,50.07z M45.93,76.78v12.81c-4.54-0.22-8.9-1.18-12.95-2.75c-2.31-3.43-4.26-7.57-5.79-12.22
	C33.05,75.91,39.39,76.66,45.93,76.78z M50.07,76.76c6.59-0.16,12.95-0.95,18.79-2.31c-1.54,4.71-3.51,8.9-5.85,12.38
	c-4.05,1.57-8.4,2.53-12.95,2.75V76.76z M50.07,72.61V50.07h22.7c-0.15,7.02-1.04,13.73-2.58,19.79
	C64.06,71.49,57.23,72.43,50.07,72.61z M76.92,45.93c-0.13-6.42-0.88-12.65-2.16-18.42c4.69,1.59,8.85,3.62,12.27,6
	c1.45,3.9,2.34,8.07,2.55,12.41H76.92z M83.82,26.81c-3.11-1.57-6.56-2.91-10.27-4.02c-1.07-3.72-2.39-7.2-3.92-10.34
	C75.46,16,80.34,20.94,83.82,26.81z M26.36,12.45c-1.5,3.08-2.79,6.49-3.86,10.14c-3.61,1.04-6.98,2.3-10.05,3.76
	C15.92,20.68,20.69,15.91,26.36,12.45z M12.46,69.66c3.06,1.46,6.43,2.72,10.03,3.76c1.06,3.65,2.35,7.05,3.85,10.13
	C20.68,80.08,15.91,75.31,12.46,69.66z M69.66,83.54c1.53-3.14,2.84-6.61,3.92-10.34c3.7-1.11,7.14-2.45,10.25-4.02
	C80.34,75.05,75.47,79.99,69.66,83.54z"/>
</svg>
