<?xml version="1.0" encoding="utf-8"?>
<!-- Generator: Adobe Illustrator 24.0.0, SVG Export Plug-In . SVG Version: 6.00 Build 0)  -->
<svg version="1.1" id="Layer_1" xmlns="http://www.w3.org/2000/svg" xmlns:xlink="http://www.w3.org/1999/xlink" x="0px" y="0px"
	 viewBox="0 0 96 96" style="enable-background:new 0 0 96 96;" xml:space="preserve">
<style type="text/css">
	.st0{fill:#FFFFFF;}
</style>
<g>
	<circle class="st0" cx="48" cy="48" r="47.93"/>
	<path d="M80.68,34.19c-1.79-4.22-4.34-8.02-7.6-11.27c-3.26-3.26-7.05-5.81-11.27-7.6c-4.37-1.85-9.02-2.79-13.81-2.79
		s-9.43,0.94-13.81,2.79c-4.22,1.79-8.02,4.34-11.27,7.6c-3.26,3.26-5.81,7.05-7.6,11.27c-1.85,4.37-2.79,9.02-2.79,13.81
		c0,4.79,0.94,9.43,2.79,13.81c1.79,4.22,4.34,8.02,7.6,11.27c3.26,3.26,7.05,5.81,11.27,7.6c4.37,1.85,9.02,2.79,13.81,2.79
		s9.43-0.94,13.81-2.79c4.22-1.79,8.02-4.34,11.27-7.6c3.26-3.26,5.81-7.05,7.6-11.27c1.85-4.37,2.79-9.02,2.79-13.81
		C83.47,43.21,82.53,38.57,80.68,34.19z M76.93,58.74c-2.53,1.77-5.61,3.26-9.08,4.45c0.95-4.26,1.5-8.87,1.59-13.65h9.38
		C78.66,52.76,78,55.85,76.93,58.74z M17.18,49.54h9.38c0.1,4.84,0.66,9.51,1.63,13.82c-3.39-1.11-6.42-2.51-8.95-4.16
		C18.07,56.18,17.35,52.93,17.18,49.54z M19.25,36.8c2.53-1.65,5.57-3.05,8.96-4.16c-0.98,4.32-1.54,8.99-1.64,13.82h-9.38
		C17.35,43.07,18.07,39.82,19.25,36.8z M49.54,29.76c5.3,0.13,10.36,0.83,14.9,2.03c1.15,4.5,1.81,9.49,1.92,14.67H49.54V29.76z
		 M49.54,26.69v-9.5c3.37,0.17,6.59,0.87,9.59,2.04c1.72,2.57,3.18,5.68,4.32,9.17C59.12,27.39,54.42,26.8,49.54,26.69z
		 M46.46,26.67c-4.84,0.08-9.54,0.64-13.88,1.6c1.14-3.44,2.58-6.51,4.29-9.05c3-1.16,6.22-1.87,9.59-2.04V26.67z M46.46,29.75
		v16.71H29.64c0.11-5.23,0.79-10.26,1.95-14.8C36.15,30.51,41.21,29.84,46.46,29.75z M29.64,49.54h16.82v16.71
		c-5.26-0.09-10.32-0.76-14.88-1.92C30.42,59.81,29.75,54.79,29.64,49.54z M46.46,69.33v9.49c-3.37-0.17-6.6-0.88-9.6-2.04
		c-1.71-2.54-3.15-5.61-4.29-9.05C36.92,68.69,41.62,69.24,46.46,69.33z M49.54,69.31c4.88-0.12,9.59-0.71,13.93-1.71
		c-1.14,3.49-2.6,6.6-4.33,9.17c-3,1.17-6.23,1.88-9.6,2.04V69.31z M49.54,66.24v-16.7h16.82c-0.11,5.2-0.77,10.18-1.91,14.67
		C59.9,65.4,54.84,66.11,49.54,66.24z M69.44,46.46c-0.1-4.76-0.65-9.38-1.6-13.65c3.48,1.18,6.56,2.68,9.09,4.45
		c1.08,2.89,1.73,5.98,1.89,9.2H69.44z M74.55,32.3c-2.3-1.16-4.86-2.16-7.61-2.98c-0.8-2.76-1.77-5.34-2.9-7.66
		C68.35,24.29,71.97,27.95,74.55,32.3z M31.96,21.65c-1.11,2.29-2.07,4.81-2.86,7.51c-2.67,0.77-5.17,1.7-7.45,2.79
		C24.22,27.75,27.76,24.22,31.96,21.65z M21.66,64.05c2.27,1.08,4.77,2.02,7.43,2.78c0.79,2.7,1.74,5.22,2.86,7.51
		C27.76,71.78,24.22,68.24,21.66,64.05z M64.05,74.34c1.13-2.33,2.11-4.9,2.9-7.66c2.74-0.82,5.29-1.82,7.59-2.98
		C71.97,68.05,68.36,71.71,64.05,74.34z"/>
</g>
</svg>
