<?xml version="1.0" encoding="utf-8"?>
<!-- Generator: Adobe Illustrator 24.0.0, SVG Export Plug-In . SVG Version: 6.00 Build 0)  -->
<svg version="1.1" id="Layer_1" xmlns="http://www.w3.org/2000/svg" xmlns:xlink="http://www.w3.org/1999/xlink" x="0px" y="0px"
	 viewBox="0 0 96 96" style="enable-background:new 0 0 96 96;" xml:space="preserve">
<style type="text/css">
	.st0{fill:#FFFFFF;}
</style>
<g>
	<path class="st0" d="M83.4,36.36v-6.92c0-3.89-1.16-7.57-3.35-10.66c-2.42-3.4-5.76-5.59-9.66-6.32l-4.97-0.94l1.51,4.82
		c0.89,2.83,1.74,8.24,0.22,10.69c-0.44,0.72-1.04,1.09-2.01,1.24c-2.12,0.34-3.56-0.08-4.3-1.26c-1.2-1.93-0.57-5.41,1.49-8.29
		c2.99-4.17,3.37-9.04,1.02-13.03c-2.33-3.95-6.88-6.05-11.87-5.46L47.7,0.7l1.29,3.59c0.58,1.62,1.46,5.77,0.26,7.49
		c-0.16,0.23-0.65,0.94-2.63,0.98c-0.05,0-0.09,0-0.11,0c0,0,0,0,0,0c-0.46-0.5-0.78-2.39-0.65-3.9l0.45-4.93l-4.59,1.84
		C41.37,5.91,33.11,9.3,31.66,16.5c-0.69,3.42-0.24,5.97,0.12,8.01c0.31,1.76,0.4,2.52,0.1,3.24c-0.18,0.12-0.86,0.26-1.66-0.09
		c-1.89-0.83-3.05-3.73-0.6-9.35l2.27-5.23l-5.61,1.04c-0.36,0.07-8.8,1.73-12.36,10.52c-0.88,2.18-1.33,4.52-1.33,6.97v4.75
		l-8.45,8.3v43.48c0,4.25,3.45,7.7,7.7,7.7h72.29c4.25,0,7.7-3.45,7.7-7.7V44.66L83.4,36.36z M21.86,54.92
		c4.53,2.24,8.14,4.01,10.75,5.28c0.85,0.41,1.6,0.77,2.24,1.08L9.21,84.92V48.65C12.18,50.13,17.04,52.54,21.86,54.92z M11,45.03
		l2.61-2.57v3.87C12.73,45.89,11.85,45.45,11,45.03z M28.19,32.28c1.5,0.66,3.15,0.83,4.64,0.47c1.68-0.4,3.01-1.46,3.66-2.9
		c0.99-2.22,0.63-4.25,0.28-6.22c-0.32-1.8-0.64-3.66-0.15-6.14c0.5-2.51,2.59-4.4,4.35-5.58c0.23,1.47,0.75,3.11,1.84,4.28
		c1.01,1.09,2.36,1.65,3.91,1.62c3.78-0.07,5.73-1.76,6.7-3.17c1.94-2.82,1.62-6.72,1.08-9.33c1.95,0.32,3.56,1.36,4.51,2.97
		c1.3,2.21,1.01,5.02-0.78,7.52c-3.3,4.6-3.97,10.18-1.68,13.89c1.83,2.95,5.25,4.26,9.4,3.59c2.4-0.39,4.3-1.63,5.51-3.58
		c1.41-2.29,1.88-5.53,1.38-9.61c-0.06-0.51-0.14-1-0.21-1.47c1.25,0.74,2.36,1.78,3.3,3.1c1.58,2.23,2.42,4.9,2.42,7.73v18.9
		c-8.57,4.25-17.36,8.58-20.39,9.99l-0.88-0.81c-2.48-2.29-5.7-3.55-9.07-3.55c0,0-0.01,0-0.01,0c-3.37,0-6.59,1.26-9.07,3.55
		l-0.88,0.81c-3.03-1.42-11.82-5.75-20.39-10V31.61c0-1.79,0.32-3.5,0.96-5.08c1.21-2.98,3.19-4.81,4.95-5.91
		C22.19,27.02,24.94,30.85,28.19,32.28z M58.92,59.22L58.92,59.22L58.92,59.22C58.92,59.22,58.92,59.22,58.92,59.22z M37.08,59.21
		L37.08,59.21L37.08,59.21C37.08,59.22,37.08,59.22,37.08,59.21z M41.66,60.49c1.73-1.6,3.98-2.48,6.34-2.48
		c2.36,0,4.61,0.88,6.34,2.48l1.84,1.7v0c0,0,0,0,0,0l29.99,27.66c-0.49,0.58-1.21,0.95-2.03,0.95H48h0H11.86
		c-0.81,0-1.54-0.37-2.03-0.95L41.66,60.49z M86.79,84.92L61.16,61.28c0.64-0.31,1.39-0.67,2.24-1.08c2.6-1.27,6.22-3.04,10.75-5.28
		c4.82-2.38,9.67-4.79,12.65-6.27V84.92z M82.39,46.33v-3.87L85,45.03C84.15,45.46,83.27,45.89,82.39,46.33z"/>
	<path class="st0" d="M47.15,51.35c6.12,0.83,9.48-3.46,9.48-3.46l-1.39-1.38c-1.32,1.53-6.18,4.22-10.48,1.98
		c-4.29-2.24-4.1-7.83-1.95-11.18c2.15-3.36,7.4-4.74,10.22-2.47c2.81,2.27,2.72,5.18,1.56,7.69c-1.16,2.52-3.65,2.55-3.35,0.52
		c0.21-1.44,1.81-6.66,1.81-6.66L51,36.27c-0.16,0.5-0.32,0.99-0.47,1.47c-0.9-1.65-2.78-2.36-4.96-0.94
		c-2.78,1.82-3.53,7.06-1.23,8.9c1.94,1.55,4.26,0.4,4.93,0c0.09,0.23,0.23,0.41,0.41,0.51c1.28,0.72,6.54,0.51,7.33-5.38
		c0.74-5.52-2.77-9.51-8.88-9.13c-6.53,0.41-9.03,7.17-8.99,10.75C39.18,46.06,40.52,50.45,47.15,51.35z M49.22,43.04
		c-0.96,1.06-3.08,1.97-3.77,0.83c-0.78-1.29,0.15-5.56,2.14-5.5c1.41,0.04,1.96,1.36,2.16,2.12
		C49.51,41.42,49.33,42.28,49.22,43.04z"/>
</g>
</svg>
