<?xml version="1.0" encoding="utf-8"?>
<!-- Generator: Adobe Illustrator 24.0.0, SVG Export Plug-In . SVG Version: 6.00 Build 0)  -->
<svg version="1.1" id="Layer_1" xmlns="http://www.w3.org/2000/svg" xmlns:xlink="http://www.w3.org/1999/xlink" x="0px" y="0px"
	 viewBox="0 0 96 96" style="enable-background:new 0 0 96 96;" xml:space="preserve">
<style type="text/css">
	.st0{fill:#FFFFFF;}
</style>
<path d="M92.04,29.39c-2.41-5.69-5.85-10.8-10.24-15.19c-4.39-4.39-9.5-7.83-15.19-10.24C60.71,1.46,54.45,0.2,48,0.2
	S35.29,1.46,29.39,3.96C23.7,6.37,18.59,9.81,14.2,14.2c-4.39,4.39-7.83,9.5-10.24,15.19C1.46,35.29,0.2,41.55,0.2,48
	c0,6.45,1.26,12.71,3.76,18.61C6.37,72.3,9.81,77.41,14.2,81.8c4.39,4.39,9.5,7.83,15.19,10.24c5.9,2.49,12.16,3.76,18.61,3.76
	s12.71-1.26,18.61-3.76c5.69-2.41,10.8-5.85,15.19-10.24c4.39-4.39,7.83-9.5,10.24-15.19C94.54,60.71,95.8,54.45,95.8,48
	C95.8,41.55,94.54,35.29,92.04,29.39z M86.98,62.47c-3.41,2.38-7.56,4.4-12.24,5.99c1.28-5.74,2.02-11.96,2.15-18.39h12.64
	C89.32,54.41,88.43,58.58,86.98,62.47z M6.47,50.07h12.64c0.13,6.52,0.89,12.81,2.2,18.62c-4.56-1.49-8.65-3.38-12.06-5.6
	C7.66,59.02,6.69,54.64,6.47,50.07z M9.25,32.91c3.41-2.23,7.5-4.12,12.07-5.61c-1.32,5.82-2.08,12.12-2.21,18.63H6.47
	C6.69,41.36,7.66,36.98,9.25,32.91z M50.07,23.42c7.14,0.18,13.96,1.12,20.08,2.74c1.54,6.07,2.44,12.79,2.59,19.77H50.07V23.42z
	 M50.07,19.27V6.47C54.61,6.69,58.95,7.65,63,9.22c2.32,3.47,4.28,7.66,5.83,12.36C62.99,20.22,56.65,19.43,50.07,19.27z
	 M45.93,19.26c-6.52,0.11-12.85,0.86-18.7,2.16c1.53-4.64,3.48-8.78,5.78-12.2c4.04-1.57,8.39-2.52,12.93-2.75V19.26z M45.93,23.4
	v22.52H23.25c0.15-7.05,1.06-13.83,2.63-19.95C32.03,24.42,38.85,23.53,45.93,23.4z M23.25,50.07h22.67V72.6
	c-7.09-0.13-13.9-1.02-20.05-2.58C24.31,63.92,23.4,57.15,23.25,50.07z M45.93,76.74v12.79c-4.54-0.22-8.89-1.18-12.93-2.75
	c-2.3-3.43-4.25-7.56-5.79-12.2C33.06,75.88,39.4,76.63,45.93,76.74z M50.07,76.73c6.58-0.16,12.93-0.95,18.77-2.31
	c-1.54,4.7-3.51,8.89-5.84,12.36c-4.05,1.57-8.39,2.53-12.93,2.75V76.73z M50.07,72.58V50.07h22.67
	c-0.15,7.01-1.04,13.72-2.58,19.77C64.04,71.46,57.22,72.41,50.07,72.58z M76.89,45.93c-0.13-6.42-0.88-12.64-2.16-18.4
	c4.69,1.59,8.84,3.61,12.25,6c1.45,3.89,2.33,8.06,2.55,12.4H76.89z M83.78,26.83c-3.11-1.56-6.55-2.91-10.25-4.02
	c-1.07-3.72-2.38-7.19-3.91-10.33C75.43,16.04,80.3,20.98,83.78,26.83z M26.38,12.49c-1.5,3.08-2.79,6.48-3.85,10.13
	c-3.6,1.04-6.97,2.29-10.04,3.76C15.96,20.71,20.73,15.95,26.38,12.49z M12.5,69.63c3.06,1.46,6.42,2.72,10.02,3.75
	c1.06,3.64,2.35,7.04,3.85,10.12C20.72,80.04,15.95,75.28,12.5,69.63z M69.63,83.5c1.53-3.14,2.84-6.6,3.91-10.32
	c3.7-1.11,7.13-2.45,10.24-4.01C80.3,75.02,75.44,79.95,69.63,83.5z"/>
</svg>
