<?xml version="1.0" encoding="utf-8"?>
<!-- Generator: Adobe Illustrator 24.0.0, SVG Export Plug-In . SVG Version: 6.00 Build 0)  -->
<svg version="1.1" id="Layer_1" xmlns="http://www.w3.org/2000/svg" xmlns:xlink="http://www.w3.org/1999/xlink" x="0px" y="0px"
	 viewBox="0 0 96 96" style="enable-background:new 0 0 96 96;" xml:space="preserve">
<style type="text/css">
	.st0{fill:#FFFFFF;}
</style>
<g>
	<path class="st0" d="M83.1,89.18c2.11-1.71,6.56-6.83,7.19-19.84c0.83-17.13-8.7-24.04-8.7-24.04s3.16,10.48-3.57,11.52
		c-2-0.24-6.88-0.74-9.34-5.35c-2.46-4.61,3.78-12.34,4.27-24.17c0.49-11.83-12.19-16.7-12.19-16.7c4.39,5.24-1.34,20-12.75,14.63
		C36.59,19.88,44.75,0,44.75,0C33.02,3.66,26.49,19.51,32.22,32.8C37.95,46.09,27.71,56.09,21,51.48
		c-6.71-4.61-3.41-16.12-3.41-16.12S5.03,48.16,6.01,65.05c0.84,14.56,6.53,21.36,8.44,23.36C10.49,90.3,6.75,92.78,3.81,96
		c0,0,16.1-10.78,44.19-10.01v0c0,0,0,0,0,0s0,0,0,0v0C76.09,85.22,92.19,96,92.19,96C89.64,93.2,86.48,90.97,83.1,89.18z M48,54.25
		L48,54.25L48,54.25L48,54.25L48,54.25c-0.03,0.02-16.43,13.12-8.33,27.98c0,0-11.65,0.48-22.67,5.04
		c-1.49-14.71,10.35-23.62,10.35-23.62c-1.1,5.97,1.1,13.41,1.1,13.41c3.13-15.33,16.33-28.87,20.09-32.47
		c2.81,2.84,15.88,16.72,16.62,30.53c0,0,1.38-8.27,0-14.62c0,0,17.8,9.1,14.49,27.04c-11.21-4.81-23.31-5.31-23.31-5.31
		C64.43,67.37,48.03,54.27,48,54.25z"/>
</g>
</svg>
