<?xml version="1.0" encoding="utf-8"?>
<!-- Generator: Adobe Illustrator 24.0.0, SVG Export Plug-In . SVG Version: 6.00 Build 0)  -->
<svg version="1.1" id="Layer_1" xmlns="http://www.w3.org/2000/svg" xmlns:xlink="http://www.w3.org/1999/xlink" x="0px" y="0px"
	 viewBox="0 0 96 96" style="enable-background:new 0 0 96 96;" xml:space="preserve">
<style type="text/css">
	.st0{fill:#FFFFFF;}
</style>
<g>
	<path d="M82.93,89.18c2.11-1.71,6.56-6.83,7.19-19.84c0.83-17.13-8.7-24.04-8.7-24.04s3.16,10.48-3.57,11.52
		c-2-0.24-6.88-0.74-9.34-5.35c-2.46-4.61,3.78-12.34,4.27-24.17c0.49-11.83-12.19-16.7-12.19-16.7c4.39,5.24-1.34,20-12.75,14.63
		C36.42,19.88,44.59,0,44.59,0C32.85,3.66,26.32,19.51,32.06,32.8c5.73,13.29-4.51,23.29-11.22,18.68
		c-6.71-4.61-3.41-16.12-3.41-16.12S4.86,48.16,5.84,65.05c0.84,14.56,6.53,21.36,8.44,23.36C10.32,90.3,6.58,92.78,3.64,96
		c0,0,16.1-10.78,44.19-10.01v0c0,0,0,0,0,0c0,0,0,0,0,0v0C75.93,85.22,92.03,96,92.03,96C89.47,93.2,86.31,90.97,82.93,89.18z
		 M47.83,54.25L47.83,54.25L47.83,54.25L47.83,54.25L47.83,54.25c-0.03,0.02-16.43,13.12-8.33,27.98c0,0-11.65,0.48-22.67,5.04
		c-1.49-14.71,10.35-23.62,10.35-23.62c-1.1,5.97,1.1,13.41,1.1,13.41C31.4,61.73,44.6,48.19,48.37,44.59
		c2.81,2.84,15.88,16.72,16.62,30.53c0,0,1.38-8.27,0-14.62c0,0,17.8,9.1,14.49,27.04c-11.21-4.81-23.31-5.31-23.31-5.31
		C64.26,67.37,47.86,54.27,47.83,54.25z"/>
</g>
</svg>
