<?xml version="1.0" encoding="utf-8"?>
<!-- Generator: Adobe Illustrator 24.0.0, SVG Export Plug-In . SVG Version: 6.00 Build 0)  -->
<svg version="1.1" id="Layer_1" xmlns="http://www.w3.org/2000/svg" xmlns:xlink="http://www.w3.org/1999/xlink" x="0px" y="0px"
	 viewBox="0 0 96 96" style="enable-background:new 0 0 96 96;" xml:space="preserve">
<style type="text/css">
	.st0{fill:#FFFFFF;}
</style>
<g>
	<circle class="st0" cx="48" cy="48" r="48"/>
	<g>
		<path d="M69.47,73.19c1.29-1.05,4.01-4.18,4.4-12.13c0.51-10.48-5.32-14.7-5.32-14.7s1.93,6.41-2.18,7.05
			c-1.22-0.15-4.21-0.45-5.71-3.27c-1.5-2.82,2.31-7.55,2.61-14.78c0.3-7.23-7.46-10.22-7.46-10.22c2.68,3.21-0.82,12.23-7.8,8.95
			c-6.98-3.28-1.99-15.44-1.99-15.44c-7.18,2.24-11.17,11.93-7.66,20.06c3.5,8.13-2.76,14.24-6.86,11.42
			c-4.1-2.82-2.09-9.86-2.09-9.86s-7.68,7.83-7.08,18.16c0.51,8.9,3.99,13.06,5.16,14.29c-2.42,1.16-4.7,2.67-6.5,4.64
			c0,0,9.85-6.59,27.03-6.12v0c0,0,0,0,0,0s0,0,0,0v0c17.18-0.48,27.03,6.12,27.03,6.12C73.46,75.64,71.53,74.28,69.47,73.19z
			 M48,51.82L48,51.82L48,51.82L48,51.82L48,51.82c-0.02,0.01-10.05,8.02-5.09,17.11c0,0-7.12,0.29-13.87,3.08
			c-0.91-9,6.33-14.45,6.33-14.45c-0.67,3.65,0.67,8.2,0.67,8.2c1.91-9.37,9.99-17.66,12.29-19.86c1.72,1.74,9.71,10.22,10.16,18.67
			c0,0,0.84-5.06,0-8.94c0,0,10.88,5.57,8.86,16.54c-6.86-2.94-14.26-3.25-14.26-3.25C58.05,59.84,48.02,51.84,48,51.82z"/>
	</g>
</g>
</svg>
