<?xml version="1.0" encoding="utf-8"?>
<!-- Generator: Adobe Illustrator 24.0.0, SVG Export Plug-In . SVG Version: 6.00 Build 0)  -->
<svg version="1.1" id="Layer_1" xmlns="http://www.w3.org/2000/svg" xmlns:xlink="http://www.w3.org/1999/xlink" x="0px" y="0px"
	 viewBox="0 0 96 96" style="enable-background:new 0 0 96 96;" xml:space="preserve">
<style type="text/css">
	.st0{fill:#FFFFFF;}
</style>
<g>
	<circle class="st0" cx="48" cy="48" r="48"/>
	<g>
		<g>
			<g>
				<polygon points="58.64,49.32 58.64,54.52 72.39,54.52 72.39,66.81 45.2,66.81 45.2,60.87 40,60.87 40,72.01 77.59,72.01 
					77.59,49.32 				"/>
			</g>
			<path d="M40,23.99v22.7h37.59v-22.7H40z M45.2,41.48v-12.3h27.19v12.3H45.2z"/>
			<g>
				<polygon points="50.8,49.33 50.8,53.76 23.61,53.76 23.61,41.46 37.36,41.46 37.36,36.26 18.41,36.26 18.41,58.96 56,58.96 
					56,49.33 				"/>
				<rect x="41.99" y="36.26" width="1.23" height="5.2"/>
				<rect x="50.8" y="43.47" width="5.2" height="1.23"/>
			</g>
			<g>
				<path d="M40,23.99v22.7h37.59v-22.7H40z M45.2,41.48v-12.3h27.19v12.3H45.2z"/>
			</g>
		</g>
	</g>
</g>
</svg>
