<?xml version="1.0" encoding="utf-8"?>
<!-- Generator: Adobe Illustrator 24.0.0, SVG Export Plug-In . SVG Version: 6.00 Build 0)  -->
<svg version="1.1" id="Layer_1" xmlns="http://www.w3.org/2000/svg" xmlns:xlink="http://www.w3.org/1999/xlink" x="0px" y="0px"
	 viewBox="0 0 96 96" style="enable-background:new 0 0 96 96;" xml:space="preserve">
<style type="text/css">
	.st0{fill:#FFFFFF;}
</style>
<g>
	<circle class="st0" cx="48" cy="48.25" r="47.75"/>
	<g>
		<g>
			<g>
				<g>
					<path d="M77.44,77.69H18.56V26.1h58.88V77.69z M24.93,71.47h46.15V32.32H24.93V71.47z"/>
				</g>
				<g>
					<rect x="21.74" y="29.21" width="52.51" height="9.3"/>
				</g>
				<g>
					<path d="M66.44,29.32H55.01v-9.49h11.43V29.32z M56.77,27.6h7.89v-6.04h-7.89V27.6z"/>
				</g>
				<g>
					<path d="M67.66,30.34H53.78V18.81h13.88V30.34z M55.93,28.24h9.59v-7.33h-9.59V28.24z"/>
				</g>
				<g>
					<rect x="59.21" y="20.69" width="6.34" height="7.24"/>
				</g>
				<g>
					<path d="M40.99,29.32H29.56v-9.49h11.43V29.32z M31.33,27.6h7.89v-6.04h-7.89V27.6z"/>
				</g>
				<g>
					<path d="M42.22,30.34H28.34V18.81h13.88V30.34z M30.49,28.24h9.59v-7.33h-9.59V28.24z"/>
				</g>
				<g>
					<rect x="33.77" y="20.69" width="6.34" height="7.24"/>
				</g>
			</g>
			<g>
				<polygon points="48,42.23 51.93,50.2 60.72,51.47 54.36,57.67 55.86,66.43 48,62.3 40.14,66.43 41.64,57.67 35.28,51.47 
					44.07,50.2 				"/>
			</g>
		</g>
	</g>
</g>
</svg>
