<?xml version="1.0" encoding="utf-8"?>
<!-- Generator: Adobe Illustrator 24.0.0, SVG Export Plug-In . SVG Version: 6.00 Build 0)  -->
<svg version="1.1" id="Layer_1" xmlns="http://www.w3.org/2000/svg" xmlns:xlink="http://www.w3.org/1999/xlink" x="0px" y="0px"
	 viewBox="0 0 96 96" style="enable-background:new 0 0 96 96;" xml:space="preserve">
<style type="text/css">
	.st0{fill:#FFFFFF;}
</style>
<g>
	<g>
		<circle cx="48" cy="48" r="48"/>
		<g>
			<g>
				<path class="st0" d="M61.14,63.13h-7.89V32.61l-13.2-5.5h21.1v13.84h6.98V21.01H21.14v47.57v0.3v0.23l32.1,12.22V69.23h14.87
					v-18.7h-6.98V63.13z M28.12,64.92V28.89l18.14,7.56v35.51L28.12,64.92z"/>
				<polygon class="st0" points="81.42,45.73 71.79,38.56 71.79,42.97 56.64,42.97 56.64,48.5 71.79,48.5 71.79,52.91 				"/>
			</g>
			<g>
				<path class="st0" d="M31.97,55.75c0.45-1.83,2.27-2.72,2.27-2.72c-0.3,1.13,0,2.67,0,2.67c0.48-3.55,3.05-4.66,3.05-4.66
					s2.56,2.88,3.05,6.76c0,0,0.3-1.34,0-2.67c0,0,1.82,2.14,2.27,4.28l1.5,0.52c0.55-1.6,0.92-4.15-0.77-6.66
					c0,0-0.18,2.05-1.27,1.42c-1.09-0.63-1.18-1.85-0.5-3.41c0.68-1.56,0.27-4.61-2.21-5.91c0,0,0.66,3.22-1.36,2.54
					c-2.02-0.68-2.06-3.81-1.18-5.04c0,0-2.26-0.19-2.65,1.95c-0.39,2.14,1.14,4.72,0.42,5.77c-0.72,1.05-3.24,0.27-2.6-2.97
					c0,0-1.57,0.41-1.98,2.82c-0.24,1.41,0.09,3.33,0.48,4.81L31.97,55.75z"/>
				<path class="st0" d="M37.29,53.51c-2.2,0.52-1.74,2.81-1.53,3.54l3.06,1.05C39.03,57.52,39.49,55.55,37.29,53.51z"/>
			</g>
		</g>
	</g>
</g>
</svg>
