<?xml version="1.0" encoding="utf-8"?>
<!-- Generator: Adobe Illustrator 24.0.0, SVG Export Plug-In . SVG Version: 6.00 Build 0)  -->
<svg version="1.1" id="Layer_1" xmlns="http://www.w3.org/2000/svg" xmlns:xlink="http://www.w3.org/1999/xlink" x="0px" y="0px"
	 viewBox="0 0 96 96" style="enable-background:new 0 0 96 96;" xml:space="preserve">
<style type="text/css">
	.st0{fill:#FFFFFF;}
</style>
<g>
	<g>
		<g>
			<rect x="0.04" y="72.83" width="92.29" height="8.89"/>
			<g>
				<path d="M88.74,33.83c-0.75,0-1.48-0.07-2.19-0.2v27.62H5.85V23.79h70.81c-0.14-0.73-0.21-1.48-0.21-2.25
					c0-0.96,0.11-1.9,0.32-2.79H0.8V66.3h90.79V33.5C90.68,33.71,89.72,33.83,88.74,33.83z"/>
				<path d="M87.47,21.54c0,0.7,0.57,1.27,1.27,1.27c0.7,0,1.27-0.57,1.27-1.27s-0.57-1.27-1.27-1.27
					C88.04,20.28,87.47,20.84,87.47,21.54z"/>
			</g>
			<g>
				<g>
					<path d="M92.4,67.1H0V17.95h77.78l-0.23,0.99c-0.2,0.85-0.3,1.73-0.3,2.61c0,0.7,0.07,1.41,0.19,2.1l0.18,0.95H6.65v35.86h79.1
						V32.67l0.95,0.17c1.55,0.28,3.18,0.24,4.71-0.13l0.99-0.24 M1.61,65.49h89.18V34.47c-1.13,0.18-2.29,0.21-3.43,0.09v27.5H5.04
						V22.99h70.68c-0.05-0.48-0.08-0.96-0.08-1.45c0-0.67,0.05-1.33,0.15-1.99H1.61V65.49z"/>
				</g>
				<g>
					<path d="M88.74,23.61c-1.14,0-2.07-0.93-2.07-2.07c0-1.14,0.93-2.07,2.07-2.07c1.14,0,2.07,0.93,2.07,2.07
						C90.81,22.68,89.88,23.61,88.74,23.61z M88.74,21.08c-0.26,0-0.46,0.21-0.46,0.46S88.48,22,88.74,22
						c0.26,0,0.46-0.21,0.46-0.46S88.99,21.08,88.74,21.08z"/>
				</g>
			</g>
			<circle cx="88.74" cy="21.54" r="7.26"/>
		</g>
		<g>
			<path d="M29.26,48.36v5.09h-14.7V30.6h4.99v17.76H29.26z"/>
			<path d="M31.99,30.6h5.02v22.85h-5.02V30.6z"/>
			<path d="M60.75,30.6l-7.98,22.85h-5.63L39.15,30.6h5.63l5.16,14.8l5.16-14.8H60.75z"/>
			<path d="M67.85,35.69v3.56h9.86v5.09h-9.86v4.02h10.86v5.09H62.83V30.6h15.88v5.09H67.85z"/>
		</g>
	</g>
</g>
</svg>
