<?xml version="1.0" encoding="utf-8"?>
<!-- Generator: Adobe Illustrator 24.0.0, SVG Export Plug-In . SVG Version: 6.00 Build 0)  -->
<svg version="1.1" id="Layer_1" xmlns="http://www.w3.org/2000/svg" xmlns:xlink="http://www.w3.org/1999/xlink" x="0px" y="0px"
	 viewBox="0 0 96 96" style="enable-background:new 0 0 96 96;" xml:space="preserve">
<style type="text/css">
	.st0{fill:#FFFFFF;}
</style>
<g>
	<g>
		<g>
			<g>
				<polygon class="st0" points="65.26,50.13 65.26,58.57 87.56,58.57 87.56,78.52 43.46,78.52 43.46,68.87 35.03,68.87 
					35.03,86.95 96,86.95 96,50.13 				"/>
			</g>
			<path class="st0" d="M35.03,9.05v36.82H96V9.05H35.03z M43.46,37.43V17.48h44.1v19.95H43.46z"/>
			<g>
				<polygon class="st0" points="52.54,50.16 52.54,57.34 8.44,57.34 8.44,37.39 30.74,37.39 30.74,28.95 0,28.95 0,65.77 
					60.97,65.77 60.97,50.16 				"/>
				<rect x="38.25" y="28.95" class="st0" width="2" height="8.44"/>
				<rect x="52.54" y="40.65" class="st0" width="8.44" height="2"/>
			</g>
			<g>
				<path class="st0" d="M35.03,9.05v36.82H96V9.05H35.03z M43.46,37.43V17.48h44.1v19.95H43.46z"/>
			</g>
		</g>
	</g>
</g>
</svg>
