<?xml version="1.0" encoding="utf-8"?>
<!-- Generator: Adobe Illustrator 24.0.0, SVG Export Plug-In . SVG Version: 6.00 Build 0)  -->
<svg version="1.1" id="Layer_1" xmlns="http://www.w3.org/2000/svg" xmlns:xlink="http://www.w3.org/1999/xlink" x="0px" y="0px"
	 viewBox="0 0 96 96" style="enable-background:new 0 0 96 96;" xml:space="preserve">
<style type="text/css">
	.st0{fill:#FFFFFF;}
</style>
<g>
	<g>
		<circle cx="48" cy="48" r="48"/>
		<g>
			<g>
				<g>
					<path class="st0" d="M77.59,73.67H37.34v-0.21c-1.04-0.24-1.98-0.99-2.43-2.04l-0.41-0.95L18.74,69.6V34.85
						c0-1.45,1.03-2.71,2.44-3c1.42-0.29,2.85,0.46,3.42,1.79l10.85,25.13V22.32h42.13V73.67z M40.97,68.15h31.1V27.83h-31.1V68.15z
						 M24.26,64.38l7.8,0.43l-7.8-18.07V64.38z M19.55,35.83C19.55,35.83,19.55,35.83,19.55,35.83L19.55,35.83z"/>
				</g>
				<path class="st0" d="M35.23,22.32l-0.01,7.81H18.41l0.03,39.61h6.13V48.12l10.07,23.12c0.56,1.3,1.8,2.09,3.16,2.09
					c0.24,0,0.47-0.02,0.71-0.07c1.63-0.33,2.77-1.73,2.77-3.39l0.07-47.54L35.23,22.32z M26.39,35.83l8.82-0.15l-0.03,21.46
					L26.39,35.83z"/>
				<g>
					<path class="st0" d="M34.23,70.42l1.61,3.26h11.13c0,0-11.04-5.11-11.15-5.07s-1.64,1.66-1.64,1.66"/>
				</g>
				<g>
					<rect x="56.61" y="34.12" class="st0" width="11.46" height="4.05"/>
				</g>
				<g>
					<rect x="46.69" y="42.18" class="st0" width="21.37" height="4.05"/>
				</g>
				<g>
					<rect x="46.69" y="50.24" class="st0" width="21.37" height="4.05"/>
				</g>
				<g>
					<rect x="46.69" y="58.29" class="st0" width="21.37" height="4.05"/>
				</g>
			</g>
		</g>
	</g>
</g>
</svg>
