<?xml version="1.0" encoding="utf-8"?>
<!-- Generator: Adobe Illustrator 24.0.0, SVG Export Plug-In . SVG Version: 6.00 Build 0)  -->
<svg version="1.1" id="Layer_1" xmlns="http://www.w3.org/2000/svg" xmlns:xlink="http://www.w3.org/1999/xlink" x="0px" y="0px"
	 viewBox="0 0 96 96" style="enable-background:new 0 0 96 96;" xml:space="preserve">
<style type="text/css">
	.st0{fill:#FFFFFF;}
</style>
<g>
	<g>
		<g>
			<g>
				<g>
					<path class="st0" d="M95.75,95.75H0.25V12.07h95.5V95.75z M10.58,85.66h74.85v-63.5H10.58V85.66z"/>
				</g>
				<g>
					<rect x="5.41" y="17.12" class="st0" width="85.17" height="15.09"/>
				</g>
				<g>
					<path class="st0" d="M77.91,17.3H59.36V1.9h18.54V17.3z M62.23,14.5h12.81V4.7H62.23V14.5z"/>
				</g>
				<g>
					<path class="st0" d="M79.89,18.95H57.38V0.25h22.51V18.95z M60.86,15.54h15.55V3.65H60.86V15.54z"/>
				</g>
				<g>
					<rect x="66.19" y="3.3" class="st0" width="10.28" height="11.75"/>
				</g>
				<g>
					<path class="st0" d="M36.64,17.3H18.09V1.9h18.54V17.3z M20.96,14.5h12.81V4.7H20.96V14.5z"/>
				</g>
				<g>
					<path class="st0" d="M38.62,18.95H16.11V0.25h22.51V18.95z M19.59,15.54h15.55V3.65H19.59V15.54z"/>
				</g>
				<g>
					<rect x="24.92" y="3.3" class="st0" width="10.28" height="11.75"/>
				</g>
			</g>
			<g>
				<polygon class="st0" points="48,38.23 54.38,51.15 68.63,53.23 58.32,63.28 60.75,77.48 48,70.78 35.25,77.48 37.68,63.28 
					27.37,53.23 41.62,51.15 				"/>
			</g>
		</g>
	</g>
</g>
</svg>
