<?xml version="1.0" encoding="utf-8"?>
<!-- Generator: Adobe Illustrator 24.0.0, SVG Export Plug-In . SVG Version: 6.00 Build 0)  -->
<svg version="1.1" id="Layer_1" xmlns="http://www.w3.org/2000/svg" xmlns:xlink="http://www.w3.org/1999/xlink" x="0px" y="0px"
	 viewBox="0 0 96 96" style="enable-background:new 0 0 96 96;" xml:space="preserve">
<style type="text/css">
	.st0{fill:#FFFFFF;}
</style>
<g>
	<circle class="st0" cx="48" cy="48" r="48"/>
	<g>
		<g>
			<path d="M48.01,53.84c-1.34,0-2.31-0.23-2.46-0.27c-1.31-0.29-2.5-0.8-3.54-1.53c-1.57-1.1-3.5-3.22-3.82-7.07
				c-0.52-6.28,3.68-9.78,3.86-9.92l1.09-0.89c1.04-3.22-0.14-7.42-0.15-7.47l-0.25-0.88l1.15,0.32c0.09,0.02,2.19,0.61,4.81,2.34
				c2.4,1.58,5.69,4.46,7.71,9.2c0.1,0.22,0.19,0.43,0.28,0.65l0.01,0.02l0.56,1.62c0.71,2.43,0.78,4.7,0.19,6.76
				c-0.3,1.05-0.76,2.03-1.37,2.9c-2.14,3.31-5.3,4.12-7.57,4.22l-0.17,0.01C48.23,53.84,48.12,53.84,48.01,53.84
				C48.01,53.84,48.01,53.84,48.01,53.84z M44.08,34.59l-0.03,0.16l-1.35,1.09c-0.16,0.13-3.96,3.29-3.49,9.04
				c0.29,3.45,2,5.34,3.39,6.32c0.93,0.65,2,1.11,3.18,1.37l0.02,0.01c0.04,0.01,0.93,0.24,2.21,0.24c0,0,0,0,0,0
				c0.1,0,0.19,0,0.29,0l0.13,0c2.04-0.08,4.87-0.8,6.78-3.76c0.56-0.8,0.97-1.67,1.24-2.61c0.57-2.02,0.45-4.28-0.35-6.72
				c-0.11-0.33-0.23-0.66-0.36-0.99l-0.02-0.05c-0.08-0.2-0.17-0.39-0.25-0.59l-0.01-0.03c-1.93-4.5-5.05-7.24-7.33-8.74
				c-1.69-1.11-3.16-1.73-3.94-2.01c0.32,1.51,0.78,4.62-0.11,7.25L44.08,34.59z"/>
		</g>
		<g>
			<path d="M66.04,69.58H29.96l7.07-19.41l2.29,2.35c2.82,2.89,8.7,3.06,8.76,3.06c0.56-0.01,5.66-0.04,8.59-3.06l2.29-2.35
				L66.04,69.58z M31.43,68.55h33.14l-6.01-16.5l-1.15,1.18c-3.23,3.32-8.73,3.37-9.34,3.37c-0.27-0.01-6.38-0.18-9.48-3.37
				l-1.15-1.18L31.43,68.55z M61.62,66.48H34.38l3.92-10.75l0.54,0.35c3.84,2.49,8.99,2.58,9.21,2.59c0.88,0.01,5.45-0.08,9.11-2.55
				l0.54-0.37L61.62,66.48z M35.85,65.46h24.31l-2.97-8.14c-3.8,2.3-8.26,2.38-9.15,2.38c-0.22,0-5.21-0.1-9.21-2.42L35.85,65.46z"
				/>
		</g>
		<g>
			<g>
				<path d="M56.59,39.55c-0.11-0.34-0.24-0.68-0.37-1.02l0,0l-0.01-0.02c-0.09-0.21-0.17-0.42-0.27-0.63l-0.01-0.01
					c-1.98-4.62-5.18-7.43-7.52-8.97c-2.54-1.67-4.58-2.25-4.66-2.27l-0.27-0.07c0,0,1.27,4.42,0.12,7.85
					c-0.01,0.02-0.02,0.04-0.02,0.06l-1.21,0.98c-0.17,0.14-4.17,3.46-3.67,9.48c0.3,3.65,2.13,5.66,3.61,6.69
					c0.98,0.69,2.12,1.18,3.37,1.45c0.11,0.03,1.03,0.26,2.34,0.26c0.1,0,0.2,0,0.31,0l0.04,0c0.02,0,0.05,0,0.07,0l0.03,0
					c2.16-0.09,5.16-0.85,7.19-4c0.58-0.83,1.02-1.75,1.3-2.75C57.55,44.45,57.43,42.09,56.59,39.55z M51.13,49.21L51.13,49.21
					c-0.7,0.44-1.5,0.74-2.37,0.84c-0.14,0.02-0.28,0.03-0.42,0.03c0,0.01,0,0.02,0,0.02c-2.93,0.08-6.25-1.28-6.61-5.62
					c-0.37-4.42,2.54-6.78,2.54-6.78c-0.48,1.73,0.04,2.42,0.04,2.42c2.62-3.88,2.3-8.38,2.3-8.38c4.79,2.61,3.67,6.92,3.67,6.92
					c1.29-1.16,1.02-3.04,1.02-3.04C58.11,45.96,51.13,49.21,51.13,49.21z"/>
			</g>
			<g>
				<path d="M65.3,69.06H30.7l6.54-17.96l1.72,1.77c2.97,3.05,8.94,3.21,9.12,3.21c0.63,0.01,5.9-0.06,8.97-3.21l1.72-1.77
					L65.3,69.06z M35.12,65.97h25.77l-3.44-9.43c-3.75,2.53-8.39,2.65-9.4,2.64c-0.27,0-5.53-0.11-9.48-2.67L35.12,65.97z"/>
			</g>
		</g>
		<path d="M17.81,17.81v60.39h60.39V17.81H17.81z M24.26,71.74V24.26h47.49v47.49H24.26z"/>
	</g>
</g>
</svg>
