<?xml version="1.0" encoding="utf-8"?>
<!-- Generator: Adobe Illustrator 24.0.0, SVG Export Plug-In . SVG Version: 6.00 Build 0)  -->
<svg version="1.1" id="Layer_1" xmlns="http://www.w3.org/2000/svg" xmlns:xlink="http://www.w3.org/1999/xlink" x="0px" y="0px"
	 viewBox="0 0 96 96" style="enable-background:new 0 0 96 96;" xml:space="preserve">
<style type="text/css">
	.st0{fill:#FFFFFF;}
</style>
<g>
	<g>
		<g>
			<g>
				<path d="M96,89.63H30.71v-0.34c-1.68-0.38-3.21-1.6-3.94-3.31l-0.66-1.54l-25.56-1.4V26.68c0-2.35,1.67-4.39,3.97-4.86
					c2.3-0.47,4.63,0.75,5.55,2.9l17.6,40.76V6.34H96V89.63z M36.61,80.69h50.45v-65.4H36.61V80.69z M9.49,74.58l12.66,0.7
					L9.49,45.96V74.58z M1.85,28.26C1.85,28.26,1.85,28.26,1.85,28.26L1.85,28.26z"/>
			</g>
			<path d="M27.29,6.35l-0.02,12.67H0l0.05,64.25h9.94V48.19l16.33,37.5c0.91,2.11,2.92,3.4,5.13,3.4c0.38,0,0.77-0.04,1.16-0.12
				c2.65-0.54,4.49-2.81,4.49-5.5l0.12-77.11L27.29,6.35z M12.94,28.26l14.31-0.24l-0.05,34.8L12.94,28.26z"/>
			<g>
				<path d="M25.67,84.37l2.61,5.29h18.05c0,0-17.91-8.29-18.09-8.23c-0.17,0.06-2.67,2.69-2.67,2.69"/>
			</g>
			<g>
				<rect x="61.96" y="25.49" width="18.58" height="6.57"/>
			</g>
			<g>
				<rect x="45.87" y="38.56" width="34.67" height="6.57"/>
			</g>
			<g>
				<rect x="45.87" y="51.63" width="34.67" height="6.57"/>
			</g>
			<g>
				<rect x="45.87" y="64.7" width="34.67" height="6.57"/>
			</g>
		</g>
	</g>
</g>
</svg>
