<?xml version="1.0" encoding="utf-8"?>
<!-- Generator: Adobe Illustrator 24.0.0, SVG Export Plug-In . SVG Version: 6.00 Build 0)  -->
<svg version="1.1" id="Layer_1" xmlns="http://www.w3.org/2000/svg" xmlns:xlink="http://www.w3.org/1999/xlink" x="0px" y="0px"
	 viewBox="0 0 96 96" style="enable-background:new 0 0 96 96;" xml:space="preserve">
<style type="text/css">
	.st0{fill:#FFFFFF;}
</style>
<g>
	<circle class="st0" cx="48" cy="48" r="47.67"/>
	<g>
		<path d="M47.97,85.3c-2.44,0-4.8-0.9-6.66-2.55c-1.81-1.6-3.02-3.78-3.41-6.15l-0.41-2.5l2.51,0.28c3.98,0.44,7.19,0.51,7.55,0.52
			c0.15,0,3.92-0.06,8.36-0.62l2.52-0.32l-0.38,2.51C57.3,81.51,52.97,85.3,47.97,85.3z M42.66,78.49c1.18,1.82,3.21,2.96,5.3,2.96
			c2.14,0,4.18-1.17,5.35-3.03c-3.19,0.28-5.49,0.32-5.76,0.32h-0.04C47.3,78.74,45.4,78.71,42.66,78.49z"/>
		<path d="M77.36,56.69c-0.91-2.73-2.41-4.38-3.56-5.31c-0.63-2.46-2.48-9.74-3.5-13.93c-1.17-4.79-2.16-7.82-2.2-7.95
			c-0.01-0.04-0.05-0.16-0.13-0.35l0,0c0,0-0.08-0.35-0.56-1.26c-0.2-0.41-0.45-0.87-0.75-1.38c-0.51-0.86-0.98-1.56-1.47-2.22
			c-0.07-0.1-0.15-0.19-0.22-0.29c-0.02-0.02-0.03-0.04-0.04-0.06c-2.78-3.96-6.83-6.1-6.83-6.1c-1.05,0.89-0.85,2.95-0.68,3.96
			c-0.33-1.09-0.76-2.36-1.47-3.66c-1.51-2.78-3.59-4.91-5.99-6.16c-1.4-0.73-2.91-1.16-4.46-1.26c-0.25-0.02-0.5-0.03-0.75-0.03
			c-1.4,0-2.84,0.26-4.28,0.77l-3.2,1.14l1.7,2.93c0.05,0.08,1.15,2.02,1.72,4.2c0.39,1.48,0.64,3.4-0.41,4.08
			c-0.21,0.14-0.38,0.2-0.48,0.23c-0.07,0.02-0.12,0.02-0.14,0.02h-0.11l-0.03,0.01c-0.07-0.05-0.31-0.31-0.42-1.3
			c-0.2-1.67,0.14-2.75,0.25-3.04l0.37-1.01l-1.06,0.15c-0.11,0.02-2.69,0.39-4.21,1.38c-0.64,0.33-1.27,0.78-1.94,1.37
			c-2.04,1.81-3.59,4.48-4.6,7.91c-0.1,0.32-1.06,3.29-2.19,7.91c-1.06,4.34-3,11.95-3.5,13.93c-1.16,0.93-2.66,2.58-3.56,5.31
			c-0.9,2.7-0.43,5.31,1.36,7.56c1.64,2.07,4.45,3.9,8.59,5.62c3.43,1.42,7.76,2.37,12.86,2.81c2.59,0.23,4.71,0.26,5.75,0.26
			c0.41,0,0.69-0.01,0.79-0.01c0.13,0,0.41,0.01,0.82,0.01c1.03,0,3.15-0.03,5.75-0.26c5.1-0.45,9.43-1.39,12.86-2.81
			c4.14-1.71,6.95-3.55,8.59-5.62C77.79,62,78.26,59.38,77.36,56.69z M30.01,38.51c1.11-4.55,2.07-7.5,2.11-7.64l0.01-0.04
			c0.91-3.1,2.16-4.8,3.09-5.69c0.37,1.15,1.07,2.08,2.03,2.67c0.71,0.44,1.54,0.68,2.4,0.68c1.03,0,2.09-0.33,3.06-0.97
			c1.81-1.18,3.67-3.69,2.26-8.96c-0.34-1.28-0.8-2.46-1.21-3.37c0.34-0.05,0.68-0.07,1.01-0.07c3.91,0,6.25,3.22,7.29,5.14
			c0.62,1.15,0.98,2.35,1.3,3.41c0.32,1.09,0.6,2.03,1.11,2.82c0.71,1.11,1.77,1.7,3.06,1.72l0.05,0c1.07,0,2.02-0.38,2.73-1.1
			c0.25-0.25,0.47-0.54,0.66-0.87c2.12,2.35,2.91,4.62,2.92,4.64c0.01,0.03,0.98,3,2.1,7.62c0.91,3.72,2.44,9.74,3.34,13.28
			c-2.14,1.4-9.81,5.82-21.32,5.94c-7.13-0.07-12.73-1.81-16.18-3.26c-2.52-1.05-4.27-2.11-5.16-2.69
			C27.43,48.8,29.05,42.41,30.01,38.51z M72.53,61.5c-1.14,1.44-3.44,2.88-6.81,4.27c-6.14,2.54-14.56,2.74-17,2.74
			c-0.42,0-0.66-0.01-0.68-0.01l-0.03,0l-0.06,0c-0.02,0-0.26,0.01-0.68,0.01c-2.43,0-10.85-0.2-17-2.74
			c-3.38-1.4-5.67-2.83-6.81-4.27c-0.86-1.08-1.05-2.13-0.63-3.4c0.4-1.19,0.95-2.02,1.43-2.58c1.09,0.72,3.02,1.85,5.72,2.99
			c2.45,1.03,5.04,1.86,7.71,2.47c3.33,0.75,6.79,1.15,10.29,1.19l0.03,0c3.49-0.03,6.95-0.43,10.28-1.19
			c2.67-0.6,5.26-1.43,7.71-2.47c2.7-1.14,4.62-2.28,5.72-2.99c0.48,0.55,1.03,1.39,1.43,2.57C73.58,59.37,73.39,60.42,72.53,61.5z"
			/>
	</g>
</g>
</svg>
