<?xml version="1.0" encoding="utf-8"?>
<!-- Generator: Adobe Illustrator 24.0.0, SVG Export Plug-In . SVG Version: 6.00 Build 0)  -->
<svg version="1.1" id="Layer_1" xmlns="http://www.w3.org/2000/svg" xmlns:xlink="http://www.w3.org/1999/xlink" x="0px" y="0px"
	 viewBox="0 0 96 96" style="enable-background:new 0 0 96 96;" xml:space="preserve">
<style type="text/css">
	.st0{fill:#FFFFFF;}
</style>
<g>
	<circle class="st0" cx="48" cy="48" r="47.85"/>
	<g>
		<path d="M47.55,76.13c-0.35-0.01-3.58-0.08-7.58-0.52l-2.52-0.28l0.41,2.51c0.39,2.37,1.6,4.57,3.42,6.17
			c1.87,1.65,4.24,2.56,6.69,2.56c5.02,0,9.37-3.81,10.13-8.86l0.38-2.52l-2.53,0.32C51.49,76.07,47.7,76.13,47.55,76.13z"/>
		<path d="M77.47,56.72c-0.91-2.74-2.41-4.39-3.58-5.33c-0.63-2.47-2.49-9.78-3.51-13.98c-1.17-4.81-2.17-7.85-2.21-7.98
			c-0.01-0.04-0.05-0.16-0.13-0.35c0,0-0.08-0.35-0.56-1.27c-0.2-0.41-0.45-0.87-0.75-1.38c-0.52-0.86-0.99-1.57-1.48-2.23
			c-0.07-0.1-0.15-0.19-0.22-0.29c-0.02-0.02-0.03-0.04-0.04-0.06c-2.79-3.97-6.85-6.12-6.85-6.12c-1.05,0.89-0.85,2.96-0.68,3.97
			c-0.33-1.09-0.76-2.37-1.48-3.68c-1.52-2.79-3.6-4.93-6.01-6.19c-1.41-0.73-2.92-1.16-4.48-1.26c-0.25-0.02-0.51-0.03-0.76-0.03
			c-1.41,0-2.85,0.26-4.29,0.77l-3.21,1.14l1.7,2.94c0.05,0.08,1.15,2.03,1.73,4.22c0.39,1.49,0.64,3.41-0.42,4.1
			c-0.22,0.14-0.38,0.2-0.48,0.23c-0.07,0.02-0.12,0.02-0.14,0.02H39.5l-0.03,0.01c-0.07-0.05-0.31-0.31-0.43-1.3
			c-0.2-1.67,0.14-2.76,0.25-3.05l0.37-1.01l-1.07,0.15c-0.11,0.02-2.7,0.39-4.22,1.38c-0.64,0.33-1.28,0.78-1.95,1.37
			c-2.05,1.82-3.6,4.49-4.62,7.94c-0.11,0.32-1.06,3.31-2.19,7.94c-1.06,4.36-3.01,11.99-3.51,13.98c-1.16,0.93-2.66,2.59-3.58,5.33
			c-0.9,2.71-0.43,5.33,1.36,7.59c1.65,2.07,4.47,3.92,8.63,5.64c3.45,1.42,7.79,2.37,12.91,2.82c2.6,0.23,4.73,0.26,5.77,0.26
			c0.41,0,0.69-0.01,0.79-0.01c0.13,0,0.41,0.01,0.82,0.01c1.04,0,3.17-0.03,5.77-0.26c5.12-0.45,9.47-1.4,12.91-2.82
			c4.16-1.72,6.98-3.56,8.63-5.64C77.9,62.05,78.38,59.43,77.47,56.72z M65.92,57.8c-2.43,1.03-5.01,1.85-7.67,2.45
			c-3.31,0.75-6.76,1.15-10.24,1.18l-0.02,0l-0.02,0c-3.48-0.03-6.92-0.43-10.24-1.18c-2.66-0.6-5.24-1.43-7.67-2.45
			c-2.51-1.06-4.34-2.12-5.43-2.81c0.36-0.48,0.89-1.31,1.3-2.41c0.06-0.17,0.11-0.32,0.15-0.44c0.91,0.6,2.73,1.69,5.33,2.78
			c3.53,1.48,9.27,3.26,16.57,3.34c7.3-0.08,13.04-1.85,16.57-3.34c2.6-1.09,4.42-2.18,5.33-2.78c0.04,0.12,0.09,0.27,0.15,0.44
			c0.41,1.1,0.94,1.93,1.3,2.41C70.26,55.68,68.43,56.74,65.92,57.8z"/>
	</g>
</g>
</svg>
