<?xml version="1.0" encoding="utf-8"?>
<!-- Generator: Adobe Illustrator 24.0.0, SVG Export Plug-In . SVG Version: 6.00 Build 0)  -->
<svg version="1.1" id="Layer_1" xmlns="http://www.w3.org/2000/svg" xmlns:xlink="http://www.w3.org/1999/xlink" x="0px" y="0px"
	 viewBox="0 0 96 96" style="enable-background:new 0 0 96 96;" xml:space="preserve">
<style type="text/css">
	.st0{fill:#FFFFFF;}
</style>
<g>
	<path class="st0" d="M47.96,95.88c-3.13,0-6.16-1.16-8.55-3.27c-2.33-2.05-3.88-4.86-4.37-7.89l-0.52-3.21l3.23,0.36
		c5.11,0.57,9.23,0.66,9.69,0.67c0.19,0,5.04-0.07,10.73-0.79l3.23-0.41l-0.48,3.22C59.94,91.01,54.37,95.88,47.96,95.88z
		 M41.15,87.14c1.52,2.33,4.12,3.81,6.81,3.81c2.74,0,5.36-1.51,6.87-3.89c-4.09,0.36-7.05,0.41-7.39,0.41h-0.05
		C47.1,87.46,44.67,87.42,41.15,87.14z"/>
	<path class="st0" d="M85.69,59.15c-1.17-3.5-3.09-5.62-4.57-6.81c-0.81-3.16-3.18-12.51-4.49-17.87
		c-1.5-6.15-2.77-10.04-2.82-10.21c-0.02-0.05-0.07-0.21-0.16-0.45l0,0c0,0-0.1-0.45-0.71-1.62c-0.26-0.52-0.57-1.12-0.96-1.77
		c-0.66-1.1-1.26-2.01-1.89-2.86c-0.09-0.12-0.19-0.24-0.29-0.37c-0.02-0.03-0.04-0.05-0.06-0.08c-3.56-5.08-8.76-7.83-8.76-7.83
		c-1.35,1.14-1.09,3.79-0.87,5.08c-0.43-1.4-0.98-3.02-1.89-4.7c-1.94-3.57-4.6-6.3-7.69-7.91c-1.8-0.94-3.73-1.48-5.73-1.62
		c-0.32-0.02-0.65-0.03-0.97-0.03c-1.8,0-3.65,0.33-5.49,0.98l-4.11,1.46l2.18,3.76c0.06,0.1,1.47,2.6,2.21,5.39
		c0.5,1.9,0.82,4.36-0.53,5.24c-0.28,0.18-0.49,0.26-0.62,0.29c-0.09,0.02-0.15,0.03-0.18,0.03h-0.15l-0.04,0.01
		c-0.08-0.07-0.4-0.4-0.54-1.66c-0.25-2.14,0.18-3.52,0.32-3.9l0.48-1.29l-1.36,0.19c-0.14,0.02-3.46,0.5-5.4,1.77
		c-0.82,0.42-1.63,1-2.49,1.76c-2.62,2.32-4.61,5.75-5.9,10.15c-0.13,0.42-1.36,4.23-2.81,10.16c-1.36,5.57-3.85,15.34-4.49,17.87
		c-1.49,1.19-3.41,3.31-4.57,6.81c-1.15,3.46-0.55,6.82,1.74,9.71c2.1,2.65,5.71,5.01,11.03,7.21c4.41,1.82,9.96,3.04,16.51,3.61
		c3.33,0.29,6.05,0.34,7.38,0.34c0.53,0,0.89-0.01,1.01-0.01c0.16,0,0.52,0.01,1.05,0.01c1.33,0,4.05-0.04,7.38-0.34
		c6.55-0.57,12.1-1.79,16.51-3.61c5.32-2.2,8.93-4.56,11.03-7.21C86.24,65.97,86.84,62.61,85.69,59.15z M24.91,35.82
		c1.43-5.84,2.65-9.63,2.71-9.8l0.01-0.05c1.16-3.98,2.77-6.16,3.96-7.31c0.47,1.47,1.37,2.66,2.6,3.43
		c0.92,0.57,1.98,0.87,3.07,0.87c1.32,0,2.68-0.43,3.92-1.24c2.32-1.52,4.71-4.74,2.91-11.5c-0.44-1.64-1.03-3.15-1.56-4.33
		c0.44-0.06,0.88-0.09,1.3-0.09c5.02,0,8.02,4.13,9.36,6.6c0.8,1.47,1.26,3.01,1.67,4.38c0.41,1.4,0.77,2.6,1.42,3.62
		c0.91,1.42,2.27,2.19,3.93,2.2l0.06,0c1.37,0,2.59-0.49,3.51-1.41c0.32-0.32,0.6-0.69,0.85-1.11c2.73,3.01,3.74,5.92,3.75,5.95
		c0.01,0.04,1.25,3.85,2.7,9.78c1.17,4.77,3.13,12.5,4.28,17.04c-2.75,1.8-12.59,7.47-27.37,7.63c-9.15-0.09-16.34-2.32-20.77-4.18
		c-3.23-1.35-5.49-2.71-6.62-3.45C21.6,49.03,23.68,40.83,24.91,35.82z M79.49,65.32c-1.47,1.85-4.41,3.69-8.75,5.49
		c-7.89,3.26-18.69,3.51-21.82,3.51c-0.54,0-0.84-0.01-0.87-0.01l-0.04,0l-0.08,0c-0.02,0-0.33,0.01-0.87,0.01
		c-3.12,0-13.93-0.25-21.82-3.51c-4.34-1.79-7.28-3.64-8.75-5.49c-1.1-1.39-1.35-2.73-0.8-4.37c0.51-1.53,1.22-2.6,1.84-3.31
		c1.4,0.92,3.87,2.38,7.34,3.84c3.14,1.33,6.47,2.39,9.89,3.17c4.27,0.96,8.71,1.48,13.21,1.52l0.04,0
		c4.48-0.04,8.92-0.56,13.2-1.52c3.43-0.77,6.76-1.84,9.89-3.17c3.47-1.47,5.93-2.92,7.34-3.84c0.62,0.71,1.33,1.78,1.84,3.3
		C80.84,62.59,80.59,63.94,79.49,65.32z"/>
</g>
</svg>
