<?xml version="1.0" encoding="utf-8"?>
<!-- Generator: Adobe Illustrator 24.0.0, SVG Export Plug-In . SVG Version: 6.00 Build 0)  -->
<svg version="1.1" id="Layer_1" xmlns="http://www.w3.org/2000/svg" xmlns:xlink="http://www.w3.org/1999/xlink" x="0px" y="0px"
	 viewBox="0 0 96 96" style="enable-background:new 0 0 96 96;" xml:space="preserve">
<style type="text/css">
	.st0{fill:#FFFFFF;}
</style>
<g>
	<circle class="st0" cx="48" cy="48" r="47.96"/>
	<path d="M66.2,20.09H29.8c-7.02,0-12.73,5.71-12.73,12.73v20.94c0,7.02,5.71,12.73,12.73,12.73h3.26
		c-0.18,1.44-0.64,3.34-1.71,5.52l-1.93,3.91h3.55c0.32,0,3.22-0.04,6.7-1.35c4.2-1.58,7.45-4.35,9.49-8.07H66.2
		c7.02,0,12.73-5.71,12.73-12.73V32.82C78.93,25.8,73.22,20.09,66.2,20.09z M31.7,51.29c-1.23,0-2.22-1-2.22-2.22v0
		c0-1.23,1-2.22,2.22-2.22h20.96c1.23,0,2.22,1,2.22,2.22v0c0,1.23-1,2.22-2.22,2.22H31.7z M31.7,41.89c-1.23,0-2.22-1-2.22-2.22v0
		c0-1.23,1-2.22,2.22-2.22H64.3c1.23,0,2.22,1,2.22,2.22v0c0,1.23-1,2.22-2.22,2.22H31.7z"/>
</g>
</svg>
