<?xml version="1.0" encoding="utf-8"?>
<!-- Generator: Adobe Illustrator 24.0.0, SVG Export Plug-In . SVG Version: 6.00 Build 0)  -->
<svg version="1.1" id="Layer_1" xmlns="http://www.w3.org/2000/svg" xmlns:xlink="http://www.w3.org/1999/xlink" x="0px" y="0px"
	 viewBox="0 0 96 96" style="enable-background:new 0 0 96 96;" xml:space="preserve">
<style type="text/css">
	.st0{fill:#FFFFFF;}
</style>
<path d="M76.18,4.81H19.82c-10.86,0-19.7,8.84-19.7,19.7v32.41c0,10.86,8.84,19.7,19.7,19.7h5.04c-0.27,2.23-0.98,5.17-2.65,8.54
	l-2.99,6.05h5.49c0.49,0,4.98-0.06,10.37-2.09c6.5-2.45,11.53-6.74,14.69-12.49h26.39c10.86,0,19.7-8.84,19.7-19.7V24.5
	C95.87,13.64,87.04,4.81,76.18,4.81z M22.78,53.09c-1.9,0-3.44-1.54-3.44-3.44v0c0-1.9,1.54-3.44,3.44-3.44h32.45
	c1.9,0,3.44,1.54,3.44,3.44v0c0,1.9-1.54,3.44-3.44,3.44H22.78z M22.78,38.54c-1.9,0-3.44-1.54-3.44-3.44v0
	c0-1.9,1.54-3.44,3.44-3.44h50.44c1.9,0,3.44,1.54,3.44,3.44v0c0,1.9-1.54,3.44-3.44,3.44H22.78z"/>
</svg>
