<?xml version="1.0" encoding="utf-8"?>
<!-- Generator: Adobe Illustrator 24.0.0, SVG Export Plug-In . SVG Version: 6.00 Build 0)  -->
<svg version="1.1" id="Layer_1" xmlns="http://www.w3.org/2000/svg" xmlns:xlink="http://www.w3.org/1999/xlink" x="0px" y="0px"
	 viewBox="0 0 96 96" style="enable-background:new 0 0 96 96;" xml:space="preserve">
<style type="text/css">
	.st0{fill:#FFFFFF;}
</style>
<path class="st0" d="M91.84,36.83C90.9,26.13,85.85,16.43,77.62,9.52c-8.23-6.91-18.66-10.2-29.37-9.26
	C37.54,1.19,27.84,6.24,20.93,14.48c-6.91,8.23-10.2,18.66-9.26,29.37c0.82,9.4,4.82,18.02,11.35,24.66l-1.67,1.99l-2.39-2.01
	L5.65,84.35c-2.5,2.97-2.11,7.41,0.87,9.9h0c2.97,2.5,7.41,2.11,9.9-0.87l13.3-15.86l-2.39-2.01L29,73.53
	c7.67,5.28,16.86,7.72,26.26,6.89c10.71-0.94,20.41-5.99,27.32-14.22C89.49,57.97,92.78,47.54,91.84,36.83z M75.5,60.26
	c-10.99,13.09-30.57,14.81-43.67,3.82C18.74,53.1,17.03,33.51,28.01,20.42C39,7.33,58.59,5.61,71.68,16.6
	C84.77,27.58,86.48,47.17,75.5,60.26z"/>
</svg>
