<?xml version="1.0" encoding="utf-8"?>
<!-- Generator: Adobe Illustrator 24.0.0, SVG Export Plug-In . SVG Version: 6.00 Build 0)  -->
<svg version="1.1" id="Layer_1" xmlns="http://www.w3.org/2000/svg" xmlns:xlink="http://www.w3.org/1999/xlink" x="0px" y="0px"
	 viewBox="0 0 96 96" style="enable-background:new 0 0 96 96;" xml:space="preserve">
<style type="text/css">
	.st0{fill:#FFFFFF;}
</style>
<path d="M91.81,36.84c-0.94-10.7-5.98-20.4-14.21-27.3c-8.23-6.9-18.65-10.19-29.35-9.26c-10.7,0.94-20.4,5.98-27.3,14.21
	c-6.9,8.23-10.19,18.65-9.26,29.35c0.82,9.39,4.81,18.01,11.34,24.65l-1.67,1.99l-2.39-2.01L5.67,84.33
	c-2.49,2.97-2.11,7.4,0.87,9.9h0c2.97,2.49,7.4,2.11,9.9-0.87l13.3-15.85l-2.39-2.01l1.67-1.99c7.67,5.28,16.85,7.71,26.24,6.89
	c10.7-0.94,20.4-5.98,27.3-14.21C89.46,57.97,92.75,47.54,91.81,36.84z M75.48,60.26c-10.98,13.08-30.56,14.8-43.64,3.82
	c-13.08-10.98-14.8-30.56-3.82-43.64C39,7.35,58.58,5.64,71.66,16.62C84.75,27.6,86.46,47.17,75.48,60.26z"/>
</svg>
