<?xml version="1.0" encoding="utf-8"?>
<!-- Generator: Adobe Illustrator 24.0.0, SVG Export Plug-In . SVG Version: 6.00 Build 0)  -->
<svg version="1.1" id="Layer_1" xmlns="http://www.w3.org/2000/svg" xmlns:xlink="http://www.w3.org/1999/xlink" x="0px" y="0px"
	 viewBox="0 0 96 96" style="enable-background:new 0 0 96 96;" xml:space="preserve">
<style type="text/css">
	.st0{fill:#FFFFFF;}
</style>
<path class="st0" d="M76.05,4.99H19.95c-10.81,0-19.61,8.8-19.61,19.61v32.27c0,10.81,8.8,19.61,19.61,19.61h5.02
	c-0.27,2.22-0.98,5.15-2.63,8.5l-2.97,6.02h5.47c0.49,0,4.96-0.06,10.33-2.08c6.47-2.44,11.48-6.71,14.63-12.44h26.27
	c10.81,0,19.61-8.8,19.61-19.61V24.61C95.67,13.79,86.87,4.99,76.05,4.99z M22.89,53.07c-1.89,0-3.43-1.53-3.43-3.43v0
	c0-1.89,1.53-3.43,3.43-3.43h32.31c1.89,0,3.43,1.53,3.43,3.43v0c0,1.89-1.53,3.43-3.43,3.43H22.89z M22.89,38.58
	c-1.89,0-3.43-1.53-3.43-3.43v0c0-1.89,1.53-3.43,3.43-3.43h50.23c1.89,0,3.43,1.53,3.43,3.43v0c0,1.89-1.53,3.43-3.43,3.43H22.89z"
	/>
</svg>
