<?xml version="1.0" encoding="utf-8"?>
<!-- Generator: Adobe Illustrator 24.0.0, SVG Export Plug-In . SVG Version: 6.00 Build 0)  -->
<svg version="1.1" id="Layer_1" xmlns="http://www.w3.org/2000/svg" xmlns:xlink="http://www.w3.org/1999/xlink" x="0px" y="0px"
	 viewBox="0 0 96 96" style="enable-background:new 0 0 96 96;" xml:space="preserve">
<style type="text/css">
	.st0{fill:#FFFFFF;}
</style>
<g>
	<circle cx="48" cy="48" r="47.94"/>
	<path class="st0" d="M66.19,20.11H29.81c-7.01,0-12.72,5.71-12.72,12.72v20.93c0,7.01,5.71,12.72,12.72,12.72h3.26
		c-0.18,1.44-0.64,3.34-1.71,5.51l-1.93,3.9h3.55c0.32,0,3.21-0.04,6.7-1.35c4.2-1.58,7.44-4.35,9.49-8.07h17.04
		c7.01,0,12.72-5.71,12.72-12.72V32.83C78.91,25.81,73.21,20.11,66.19,20.11z M31.71,51.29c-1.23,0-2.22-0.99-2.22-2.22v0
		c0-1.23,0.99-2.22,2.22-2.22h20.95c1.23,0,2.22,0.99,2.22,2.22v0c0,1.23-0.99,2.22-2.22,2.22H31.71z M31.71,41.89
		c-1.23,0-2.22-0.99-2.22-2.22v0c0-1.23,0.99-2.22,2.22-2.22h32.57c1.23,0,2.22,0.99,2.22,2.22v0c0,1.23-0.99,2.22-2.22,2.22H31.71z
		"/>
</g>
</svg>
