<?xml version="1.0" encoding="utf-8"?>
<!-- Generator: Adobe Illustrator 24.0.0, SVG Export Plug-In . SVG Version: 6.00 Build 0)  -->
<svg version="1.1" id="Layer_1" xmlns="http://www.w3.org/2000/svg" xmlns:xlink="http://www.w3.org/1999/xlink" x="0px" y="0px"
	 viewBox="0 0 96 96" style="enable-background:new 0 0 96 96;" xml:space="preserve">
<style type="text/css">
	.st0{fill:#FFFFFF;}
</style>
<g>
	<circle class="st0" cx="48" cy="48" r="47.98"/>
	<path d="M76.88,40.64c-0.62-7.05-3.94-13.44-9.37-18c-5.42-4.55-12.3-6.72-19.35-6.1c-7.05,0.62-13.44,3.94-18,9.37
		c-4.55,5.42-6.72,12.3-6.1,19.35c0.54,6.19,3.17,11.87,7.48,16.25l-1.1,1.31l-1.58-1.32L20.1,71.95c-1.64,1.96-1.39,4.88,0.57,6.52
		h0c1.96,1.64,4.88,1.39,6.52-0.57l8.76-10.45l-1.58-1.32l1.1-1.31c5.06,3.48,11.11,5.08,17.3,4.54c7.05-0.62,13.44-3.94,18-9.37
		C75.33,54.57,77.5,47.7,76.88,40.64z M66.11,56.08c-7.24,8.62-20.14,9.75-28.76,2.52c-8.62-7.24-9.75-20.14-2.52-28.76
		c7.24-8.62,20.14-9.75,28.76-2.52C72.22,34.55,73.35,47.45,66.11,56.08z"/>
</g>
</svg>
