<?xml version="1.0" encoding="utf-8"?>
<!-- Generator: Adobe Illustrator 24.0.0, SVG Export Plug-In . SVG Version: 6.00 Build 0)  -->
<svg version="1.1" id="Layer_1" xmlns="http://www.w3.org/2000/svg" xmlns:xlink="http://www.w3.org/1999/xlink" x="0px" y="0px"
	 viewBox="0 0 96 96" style="enable-background:new 0 0 96 96;" xml:space="preserve">
<style type="text/css">
	.st0{fill:#FFFFFF;}
</style>
<path d="M78.4,0H17.6C7.9,0,0,7.9,0,17.6V78.4C0,88.1,7.9,96,17.6,96H78.4C88.1,96,96,88.1,96,78.4V17.6C96,7.9,88.1,0,78.4,0z
	 M78.4,89.16H29.85c1.81-4.98,5.26-13.26,10.23-21.52l0,0l0,0c0.18-0.31,0.37-0.61,0.56-0.92c5.55-9.01,14.28-19.96,24.38-20.92
	c5.97-0.57,11.92,0.92,17.7,4.43c3.16,1.92,5.41,3.96,6.44,4.98V78.4C89.16,84.33,84.33,89.16,78.4,89.16z M17.6,89.16
	c-5.94,0-10.76-4.83-10.76-10.76V67.81c4-5.92,8.49-9.54,12.04-9.71c3.56-0.17,9.31,3.01,15.9,8.77c-4.8,8.34-8.42,17.04-10.2,22.29
	H17.6z M34.55,17.64c-5.72,0-10.42-4.43-10.87-10.03h21.74C44.97,13.22,40.27,17.64,34.55,17.64z"/>
</svg>
