<?xml version="1.0" encoding="utf-8"?>
<!-- Generator: Adobe Illustrator 24.0.0, SVG Export Plug-In . SVG Version: 6.00 Build 0)  -->
<svg version="1.1" id="Layer_1" xmlns="http://www.w3.org/2000/svg" xmlns:xlink="http://www.w3.org/1999/xlink" x="0px" y="0px"
	 viewBox="0 0 96 96" style="enable-background:new 0 0 96 96;" xml:space="preserve">
<style type="text/css">
	.st0{fill:#FFFFFF;}
</style>
<circle class="st0" cx="48" cy="48" r="47.97"/>
<path d="M67.08,17.86H28.92c-6.09,0-11.05,4.96-11.05,11.05v38.17c0,6.09,4.96,11.05,11.05,11.05h38.17
	c6.09,0,11.05-4.96,11.05-11.05V28.92C78.14,22.82,73.18,17.86,67.08,17.86z M67.08,73.84H36.61c1.13-3.13,3.3-8.32,6.42-13.51l0,0
	l0,0c0.12-0.19,0.23-0.38,0.35-0.58c3.48-5.66,8.97-12.53,15.31-13.14c3.75-0.36,7.48,0.58,11.11,2.78c1.99,1.21,3.4,2.49,4.05,3.12
	v14.56C73.84,70.81,70.81,73.84,67.08,73.84z M28.92,73.84c-3.73,0-6.76-3.03-6.76-6.76v-6.65c2.51-3.72,5.33-5.99,7.56-6.1
	c2.23-0.11,5.84,1.89,9.99,5.5c-3.02,5.24-5.29,10.7-6.41,14H28.92z M39.55,28.94c-3.59,0-6.54-2.78-6.83-6.3h13.65
	C46.1,26.16,43.14,28.94,39.55,28.94z"/>
</svg>
