<?xml version="1.0" encoding="utf-8"?>
<!-- Generator: Adobe Illustrator 24.0.0, SVG Export Plug-In . SVG Version: 6.00 Build 0)  -->
<svg version="1.1" id="Layer_1" xmlns="http://www.w3.org/2000/svg" xmlns:xlink="http://www.w3.org/1999/xlink" x="0px" y="0px"
	 viewBox="0 0 96 96" style="enable-background:new 0 0 96 96;" xml:space="preserve">
<style type="text/css">
	.st0{fill:#FFFFFF;}
</style>
<circle cx="48" cy="48" r="48"/>
<g>
	<path class="st0" d="M58.3,30.89c-3.37,1.51-4.88,5.49-3.36,8.85c1.51,3.37,5.49,4.88,8.85,3.36c3.37-1.51,4.88-5.49,3.36-8.85
		C65.64,30.89,61.67,29.38,58.3,30.89z M62.97,41.27c-2.36,1.06-5.14,0-6.2-2.35s0-5.14,2.35-6.2c2.36-1.06,5.14,0,6.2,2.35
		C66.38,37.43,65.33,40.21,62.97,41.27z"/>
	<path class="st0" d="M83.06,26.32L82.44,26c-0.12-0.06-2.91-1.49-7.3-2.52c-4.04-0.95-10.3-1.72-17.13-0.04
		c-3.67,0.91-7.46,2.41-11.26,4.47c-3.32-2.18-7.15-2.25-9.84-1.9c-3.52,0.46-6.41,1.76-7.5,2.53c-1.63,1.15-2.4,3.03-1.94,4.7
		c0.05,0.16,0.11,0.33,0.18,0.49c0.37,0.82,1.37,2.22,3.97,2.39c0.91,0.06,1.86,0.35,2.7,0.68l-0.12,0.11l-0.1,0.69
		c-0.65,4.43,1.68,9.67,1.78,9.89l0.62,1.37c0.1,0.22,2.48,5.44,6.22,7.89l0.58,0.38l0.16-0.01c-0.31,0.85-0.73,1.75-1.28,2.47
		c-1.59,2.06-1.21,3.74-0.84,4.56c0.07,0.16,0.16,0.32,0.25,0.46c0.93,1.45,2.86,2.12,4.8,1.67c1.29-0.3,4.18-1.6,6.87-3.93
		c2.05-1.78,4.54-4.69,5.11-8.62c4.06-1.48,7.7-3.31,10.81-5.45c5.79-3.99,9.36-9.18,11.34-12.83c2.14-3.96,2.93-7.01,2.96-7.14
		l0.17-0.68L83.06,26.32z M50.57,52.87c-0.92-1.1-2.99-3.79-5.16-8.06l-0.58-1.29c-1.75-4.46-2.39-7.79-2.61-9.21
		c4.02-2.83,9.92-6.31,16.51-7.94c10.11-2.5,19.03,0.85,21.58,1.97c-0.86,2.65-4.28,11.55-12.85,17.45
		C61.88,49.63,55.36,51.75,50.57,52.87z M30.38,32.42c-0.1-0.36,0.13-0.96,0.77-1.42c1.51-1.07,8.59-3.73,13.6-0.79
		c-2.95,1.79-5.35,3.58-6.98,4.9c-1.12-0.64-3.54-1.85-5.95-2.01C31.03,33.05,30.49,32.8,30.38,32.42z M41,35.18
		c0.3,1.72,1.01,4.82,2.58,8.84l0.61,1.37l0.01,0.01c1.96,3.85,3.81,6.43,4.9,7.8c-2.45,0.52-4.28,0.75-5.01,0.83
		c-2.85-2.06-4.82-6.37-4.84-6.41l-0.62-1.37c-0.02-0.04-1.94-4.36-1.59-7.87C37.6,37.88,38.99,36.67,41,35.18z M44.57,61.44
		c1.48-1.91,2.18-4.52,2.44-5.78c2.07-0.34,5-0.95,8.3-1.97c-1.12,5.69-7.81,9.23-9.61,9.65c-0.76,0.18-1.37-0.05-1.57-0.36
		C43.91,62.65,44.08,62.08,44.57,61.44z"/>
	<path class="st0" d="M36,53.6c-0.01-2.54-1.07-4.96-2.93-6.64c-0.72-0.65-1.64-1.19-2.66-1.56c-0.91-0.33-1.88-0.5-2.82-0.5
		c-1.05,0.01-2.09,0.16-3.17,0.46c-1.17,0.33-2.19,0.7-3.13,1.15c-1.84,0.88-3.43,2.02-4.72,3.38c-1.36,1.43-2.4,3.03-3.09,4.75
		c-0.67,1.67-1.03,3.47-1.03,5.23c0,1.92,0.35,3.8,1.06,5.59c0.12,0.31,0.25,0.62,0.38,0.91c0.8,1.78,1.77,3.24,2.89,4.36
		c0.71,0.71,1.4,1.24,2.1,1.64c0.79,0.45,1.61,0.77,2.48,0.97c0.56,0.13,1.14,0.2,1.74,0.2c0,0,5.86,0.13,8.44-4.33
		c0,0-2.63,0.7-3.53-1.38c-0.41-1.32-0.18-2.61-0.14-2.83c0.1-0.32,0.23-0.63,0.38-0.94c0.22-0.38,0.48-0.74,0.77-1.08
		c0.37-0.37,0.8-0.72,1.37-1.09c0.73-0.48,1.36-0.94,1.91-1.4c1.45-1.22,2.46-2.49,3.07-3.9c0.39-0.88,0.6-1.85,0.62-2.81
		C36,53.71,36,53.65,36,53.6z M27.73,59.96c-0.44,0.34-0.83,0.74-1.2,1.15c-0.56,0.63-1,1.35-1.33,2.13
		c-0.04-0.23-0.06-0.47-0.07-0.71c0-0.5,0.05-0.99,0.13-1.49c0.02-0.13,0.12-0.61,0.31-1.22c0.02-0.05,0.03-0.1,0.05-0.15
		c0.02-0.05,0.03-0.1,0.04-0.15c0.24-0.71,0.6-1.54,1.12-2.18c0,0-3,0.39-4.84,2.87c0,0,0,0,0,0c-0.51,0.57-0.95,1.19-1.29,1.87
		c-0.28,0.56-0.47,1.19-0.55,1.81c-0.1,0.83,0.03,1.63,0.27,2.42c0.49,1.58,1.62,2.9,2.88,3.94c0.06,0.05,0.13,0.1,0.19,0.15
		c-0.06,0-0.12,0.01-0.19,0.01c-0.46,0-0.91-0.05-1.36-0.14c-0.44-0.12-0.87-0.28-1.29-0.49c-0.51-0.29-0.99-0.63-1.43-1.03
		c-0.61-0.59-1.14-1.26-1.59-1.98c-0.67-1.1-1.22-2.3-1.6-3.54c-0.28-0.98-0.44-1.99-0.47-3.01c-0.01-0.97,0.09-1.94,0.31-2.89
		c0.24-0.93,0.58-1.84,1.03-2.7c0.49-0.89,1.08-1.72,1.77-2.47c0.78-0.82,1.66-1.54,2.62-2.15c1.14-0.69,2.36-1.22,3.64-1.61
		c0.81-0.23,1.64-0.4,2.49-0.44c0.47,0,0.94,0.04,1.4,0.14c0.45,0.12,0.88,0.29,1.29,0.5c0.37,0.21,0.73,0.45,1.05,0.73
		c0.34,0.34,0.65,0.71,0.91,1.12c0.26,0.45,0.47,0.92,0.63,1.41c0.14,0.51,0.23,1.02,0.25,1.55c0,0.02,0,0.05,0,0.07
		c-0.01,0.36-0.05,0.71-0.12,1.06c-0.11,0.41-0.26,0.81-0.46,1.19c-0.28,0.5-0.63,0.96-1.01,1.38c-0.68,0.71-1.45,1.33-2.26,1.89
		C28.62,59.35,28.15,59.63,27.73,59.96z"/>
</g>
</svg>
