<?xml version="1.0" encoding="utf-8"?>
<!-- Generator: Adobe Illustrator 24.0.0, SVG Export Plug-In . SVG Version: 6.00 Build 0)  -->
<svg version="1.1" id="Layer_1" xmlns="http://www.w3.org/2000/svg" xmlns:xlink="http://www.w3.org/1999/xlink" x="0px" y="0px"
	 viewBox="0 0 96 96" style="enable-background:new 0 0 96 96;" xml:space="preserve">
<style type="text/css">
	.st0{fill:#FFFFFF;}
</style>
<g>
	<path class="st0" d="M75,25.91c-1.93-4.27-6.98-6.17-11.25-4.24c-4.27,1.93-6.17,6.98-4.24,11.25c1.93,4.27,6.98,6.17,11.25,4.24
		C75.02,35.23,76.93,30.18,75,25.91z M69.7,34.83c-2.99,1.35-6.52,0.02-7.87-2.97s-0.02-6.52,2.97-7.87
		c2.99-1.35,6.52-0.02,7.87,2.97C74.02,29.95,72.69,33.48,69.7,34.83z"/>
	<path class="st0" d="M95.23,15.73l-0.82-0.42c-0.15-0.08-3.7-1.89-9.3-3.19c-5.14-1.19-13.1-2.16-21.78,0
		c-4.65,1.16-9.44,3.07-14.25,5.69c-4.24-2.75-9.1-2.82-12.51-2.37c-4.49,0.6-8.17,2.27-9.55,3.25c-2.09,1.48-3.09,3.92-2.48,6.06
		c0.06,0.21,0.14,0.43,0.23,0.63c0.48,1.06,1.78,2.86,5.12,3.08c1.1,0.07,2.25,0.4,3.28,0.8l-0.07,0.07l-0.13,0.9
		c-0.82,5.65,2.16,12.32,2.29,12.6l0.79,1.74c0.13,0.28,3.17,6.93,7.95,10.04l0.76,0.5l0.1-0.01c-0.38,1.04-0.89,2.12-1.56,2.99
		c-2.04,2.65-1.55,4.82-1.07,5.87c0.09,0.21,0.2,0.41,0.32,0.59c1.21,1.87,3.7,2.73,6.19,2.14c1.65-0.39,5.33-2.05,8.74-5.03
		c2.6-2.27,5.75-5.96,6.49-10.96c5.14-1.88,9.74-4.22,13.68-6.95c7.36-5.09,11.89-11.7,14.39-16.36c2.72-5.06,3.7-8.93,3.74-9.09
		L96,17.44L95.23,15.73z M30.14,24.55c-1.01-0.07-1.7-0.39-1.84-0.87c-0.13-0.46,0.16-1.22,0.98-1.8c1.92-1.36,10.9-4.75,17.26-1.04
		c-3.74,2.28-6.78,4.56-8.84,6.24C36.27,26.28,33.2,24.75,30.14,24.55z M36.79,31.23c0.69-0.63,2.45-2.17,5-4.07
		c0.39,2.19,1.29,6.12,3.31,11.21l0.78,1.74l0.01,0.02c2.49,4.88,4.85,8.15,6.24,9.89c-3.11,0.66-5.43,0.97-6.36,1.07
		c-3.63-2.61-6.13-8.07-6.16-8.13l-0.79-1.74C38.8,41.16,36.35,35.67,36.79,31.23z M45.83,62.44c-0.27-0.42-0.06-1.15,0.56-1.95
		c1.87-2.43,2.75-5.74,3.09-7.35c2.62-0.44,6.35-1.22,10.53-2.52c-1.41,7.23-9.89,11.73-12.18,12.28
		C46.86,63.13,46.09,62.85,45.83,62.44z M53.99,49.6c-1.17-1.39-3.79-4.79-6.57-10.22l-0.74-1.64c-2.24-5.66-3.06-9.88-3.34-11.69
		c5.1-3.61,12.59-8.04,20.94-10.12c12.82-3.2,24.16,1.03,27.41,2.44c-1.09,3.37-5.4,14.67-16.27,22.19
		C68.34,45.45,60.06,48.15,53.99,49.6z"/>
	<path class="st0" d="M34.22,46.06c-0.69-1.3-1.5-2.4-2.4-3.27c-0.91-0.88-1.87-1.56-2.93-2.06c-0.78-0.37-1.64-0.63-2.58-0.77
		c-0.52-0.08-1.07-0.11-1.66-0.08c-0.44-0.34-0.91-0.65-1.4-0.93c-2.16-1.24-4.38-1.78-6.6-1.6c-2.8,0.23-5.55,1.76-7.57,4.21
		c-1.58,1.93-2.52,4.51-2.57,7.09c-0.03,1.73,0.26,3.38,0.86,4.83c-0.9,0.85-1.75,1.78-2.55,2.76c-1.23,1.51-2.26,3.15-3.08,4.88
		c-0.97,2.05-1.56,4.26-1.7,6.38c-0.18,2.62,0.24,5.24,1.27,7.79c0.1,0.24,0.2,0.47,0.3,0.7c1.04,2.3,2.52,4.3,4.3,5.81
		c1.6,1.35,3.55,2.34,5.67,2.85c1.89,0.46,3.83,0.62,5.93,0.47c0.87-0.06,1.76-0.18,2.65-0.35c0.65-0.08,5.87-0.84,8.31-4.36
		l1.68-2.43l-2.94,0.3c-0.02,0-2.45,0.24-4.48,0.08c-0.25-0.03-0.53-0.07-0.85-0.13c-0.23-0.04-0.48-0.09-0.76-0.15
		c-1.09-0.27-2.11-0.65-3.04-1.12c-0.71-0.39-1.35-0.84-1.91-1.35c-0.49-0.47-0.92-0.99-1.28-1.55c-0.31-0.52-0.55-1.05-0.73-1.56
		c-0.11-0.42-0.18-0.84-0.21-1.26c0-0.4,0.05-0.81,0.13-1.21c0.13-0.5,0.33-1,0.58-1.49c0.38-0.68,0.88-1.36,1.46-2.01
		c0.06-0.06,0.12-0.12,0.18-0.18c1.32,1.08,2.74,1.86,4.14,2.27c1.13,0.33,2.22,0.46,3.35,0.38c1.09-0.07,2.21-0.41,3.42-1.02
		c1.26-0.64,2.35-1.4,3.24-2.26c0.96-0.93,1.72-1.95,2.32-3.12c0.96-1.87,1.29-4.06,0.9-5.99c0.22-0.34,0.44-0.71,0.65-1.13
		c0.9-1.74,1.28-3.78,1.05-5.75C35.24,48.49,34.84,47.22,34.22,46.06z M29.79,57.72c0.02,0.14,0.03,0.27,0.04,0.41
		c0,0.45-0.05,0.9-0.14,1.34c-0.13,0.51-0.32,0.99-0.55,1.46c-0.31,0.55-0.68,1.07-1.11,1.54c-0.54,0.55-1.14,1.04-1.79,1.46
		c-0.58,0.35-1.2,0.66-1.84,0.88c-0.38,0.1-0.77,0.16-1.16,0.19c-0.42,0-0.83-0.05-1.24-0.13c-0.56-0.15-1.1-0.36-1.62-0.63
		c-0.78-0.44-1.5-0.97-2.16-1.57c0,0,0,0-0.01-0.01c0.78-0.97,2.64-3.11,4.43-3.85c0,0-4.72-0.21-8.19,3.75c0,0,0,0,0,0
		c-0.38,0.34-0.75,0.7-1.09,1.07c-1.57,1.68-2.79,3.62-3.25,5.9c-0.56,2.81,0.5,5.7,2.28,7.86c1.35,1.64,3.15,2.86,5.1,3.69
		c-0.37,0.03-0.75,0.06-1.12,0.07c-1.21,0.02-2.43-0.09-3.62-0.36c-0.89-0.23-1.75-0.54-2.57-0.96c-0.75-0.41-1.45-0.91-2.09-1.48
		c-0.73-0.69-1.36-1.48-1.9-2.32c-0.68-1.12-1.23-2.33-1.62-3.59c-0.32-1.12-0.51-2.28-0.56-3.44C4,67.9,4.12,66.79,4.36,65.7
		c0.32-1.29,0.81-2.54,1.42-3.72c0.72-1.32,1.59-2.57,2.56-3.72c0.21-0.25,0.43-0.5,0.66-0.75c0.05-0.05,0.09-0.1,0.14-0.15
		c0.45-0.43,4.26-4.06,7.79-5.34c0,0-3.08-0.24-5.45,0.72c-0.26-0.46-0.47-0.95-0.63-1.45c-0.18-0.66-0.28-1.34-0.32-2.03
		c-0.01-0.74,0.06-1.47,0.22-2.2c0.16-0.63,0.39-1.24,0.68-1.82c0.32-0.57,0.7-1.11,1.14-1.6c0.5-0.51,1.05-0.95,1.64-1.34
		c0.51-0.3,1.05-0.56,1.62-0.75c0.51-0.14,1.04-0.23,1.57-0.25c0.54,0,1.07,0.06,1.6,0.17c0.67,0.18,1.32,0.43,1.94,0.75
		c0.24,0.13,0.47,0.27,0.7,0.43c-1.94,1.46-2.59,4.03-2.59,4.03c2.83-2.84,6.24-2.77,6.88-2.72c0.09,0.01,0.18,0.03,0.26,0.05
		c0.44,0.12,0.87,0.28,1.28,0.49c0.49,0.28,0.95,0.61,1.37,0.99c0.56,0.55,1.05,1.17,1.48,1.83c0.35,0.58,0.64,1.18,0.85,1.82
		c0.14,0.52,0.23,1.05,0.26,1.58c0,0.21-0.01,0.43-0.03,0.64c-0.09,0.66-0.75,3.9-5.68,6.94C25.73,58.3,28.15,58.67,29.79,57.72z"/>
</g>
</svg>
