<?xml version="1.0" encoding="utf-8"?>
<!-- Generator: Adobe Illustrator 24.0.0, SVG Export Plug-In . SVG Version: 6.00 Build 0)  -->
<svg version="1.1" id="Layer_1" xmlns="http://www.w3.org/2000/svg" xmlns:xlink="http://www.w3.org/1999/xlink" x="0px" y="0px"
	 viewBox="0 0 96 96" style="enable-background:new 0 0 96 96;" xml:space="preserve">
<style type="text/css">
	.st0{fill:#FFFFFF;}
</style>
<circle cx="48" cy="48" r="48"/>
<path class="st0" d="M81.29,43.72l-26.9-21.51v11.4c-4.33-0.68-23.31-2.76-34.88,11.02c0,0,4.63-2.34,8.33-2.23
	c0,0-17.14,11.21-12.26,31.39c0,0,1.92-15.41,12.01-20.35c10.09-4.94,15.05-3.18,14.89-1.42c-0.16,1.76-4.21,3.2-7.47,2.32
	c0,0,4.03,4.24,9.15,3.36c4.78-0.82,6.28-4.28,10.23-3.84v11.37L81.29,43.72z"/>
</svg>
