<?xml version="1.0" encoding="utf-8"?>
<!-- Generator: Adobe Illustrator 24.0.0, SVG Export Plug-In . SVG Version: 6.00 Build 0)  -->
<svg version="1.1" id="Layer_1" xmlns="http://www.w3.org/2000/svg" xmlns:xlink="http://www.w3.org/1999/xlink" x="0px" y="0px"
	 viewBox="0 0 96 96" style="enable-background:new 0 0 96 96;" xml:space="preserve">
<style type="text/css">
	.st0{fill:#FFFFFF;}
</style>
<g>
	<path class="st0" d="M65.3,65.31c-9.03-7.23-19.87-7.51-19.87-7.51S16.4,58.53,13.77,89.32h31.66h7.48
		c-1.05-2.21-1.64-4.67-1.64-7.27C51.27,73.68,57.34,66.72,65.3,65.31z"/>
	<path class="st0" d="M68.27,68.08c-7.7,0-13.96,6.26-13.96,13.96c0,7.7,6.26,13.96,13.96,13.96c7.7,0,13.96-6.26,13.96-13.96
		C82.23,74.35,75.97,68.08,68.27,68.08z M76.28,83.89h-6.16v6.16c0,1.02-0.83,1.85-1.85,1.85c-1.02,0-1.85-0.83-1.85-1.85v-6.16
		h-6.16c-1.02,0-1.85-0.83-1.85-1.85c0-1.02,0.83-1.85,1.85-1.85h6.16v-6.16c0-1.02,0.83-1.85,1.85-1.85c1.02,0,1.85,0.83,1.85,1.85
		v6.16h6.16c1.02,0,1.85,0.83,1.85,1.85C78.13,83.07,77.31,83.89,76.28,83.89z"/>
	<path class="st0" d="M42.98,52.05c0.8,0.13,1.61,0.21,2.45,0.21c0,0,0.19,0,0.54-0.01c0.76-0.03,1.5-0.11,2.22-0.25
		c3.7-0.62,10.22-2.7,13.93-9.69c5.39-10.14-0.71-23.7-0.71-23.7s-0.17,4.54-3.22,6.34c0,0,3.29-5.76-4.2-12.15
		C46.5,6.4,48.78,0,48.78,0S40.19,2.83,39,8.41c-1.19,5.57,2.38,8.14,0,10.97c-1.84,2.19-5.57,0.46-4.66-5.39
		c0,0-9.26,8.5-7.35,22.39C28.67,48.48,37.06,51.33,42.98,52.05z"/>
</g>
</svg>
