<?xml version="1.0" encoding="UTF-8"?>
<svg xmlns="http://www.w3.org/2000/svg" xmlns:xlink="http://www.w3.org/1999/xlink" viewBox="0 0 96 96" width="96px" height="96px">
<g id="surface264670013">
<path style=" stroke:none;fill-rule:nonzero;fill:rgb(100%,100%,100%);fill-opacity:1;" d="M 92.210938 22.039062 C 89.109375 23.414062 85.773438 24.328125 82.253906 24.765625 C 85.828125 22.640625 88.585938 19.253906 89.875 15.246094 C 86.527344 17.210938 82.816406 18.652344 78.871094 19.410156 C 75.71875 16.070312 71.222656 14 66.242188 14 C 56.679688 14 48.921875 21.6875 48.921875 31.164062 C 48.921875 32.507812 49.078125 33.8125 49.375 35.078125 C 34.980469 34.359375 22.214844 27.515625 13.675781 17.132812 C 12.175781 19.671875 11.332031 22.640625 11.332031 25.777344 C 11.332031 31.734375 14.382812 36.980469 19.035156 40.070312 C 16.195312 39.984375 13.523438 39.195312 11.183594 37.925781 C 11.183594 37.976562 11.183594 38.054688 11.183594 38.128906 C 11.183594 46.453125 17.152344 53.386719 25.070312 54.964844 C 23.625 55.363281 22.09375 55.582031 20.519531 55.582031 C 19.398438 55.582031 18.308594 55.457031 17.253906 55.265625 C 19.457031 62.070312 25.851562 67.042969 33.429688 67.191406 C 27.5 71.789062 20.035156 74.539062 11.914062 74.539062 C 10.515625 74.539062 9.140625 74.460938 7.785156 74.296875 C 15.460938 79.152344 24.566406 82 34.34375 82 C 66.195312 82 83.625 55.84375 83.625 33.148438 C 83.625 32.402344 83.601562 31.664062 83.566406 30.933594 C 86.964844 28.53125 89.894531 25.503906 92.210938 22.039062 "/>
</g>
</svg>
