<?xml version="1.0" encoding="utf-8"?>
<!-- Generator: Adobe Illustrator 24.0.0, SVG Export Plug-In . SVG Version: 6.00 Build 0)  -->
<svg version="1.1" id="Layer_1" xmlns="http://www.w3.org/2000/svg" xmlns:xlink="http://www.w3.org/1999/xlink" x="0px" y="0px"
	 viewBox="0 0 48 48" style="enable-background:new 0 0 48 48;" xml:space="preserve">
<style type="text/css">
	.st0{fill:#FFFFFF;}
	.st1{fill:#DD1212;}
</style>
<g>
	<path class="st0" d="M41.53,44.56c1.05-0.85,3.28-3.41,3.59-9.91c0.41-8.55-4.35-12-4.35-12s1.58,5.23-1.78,5.75
		c-1-0.12-3.44-0.37-4.66-2.67c-1.23-2.3,1.89-6.16,2.13-12.07c0.24-5.91-6.09-8.34-6.09-8.34c2.19,2.62-0.67,9.99-6.37,7.31
		c-5.7-2.68-1.62-12.6-1.62-12.6c-5.86,1.83-9.12,9.74-6.26,16.38c2.86,6.64-2.25,11.63-5.6,9.33c-3.35-2.3-1.7-8.05-1.7-8.05
		s-6.27,6.39-5.78,14.82c0.42,7.27,3.26,10.67,4.21,11.66c-1.97,0.95-3.84,2.18-5.31,3.79c0,0,8.04-5.38,22.07-5v0c0,0,0,0,0,0
		s0,0,0,0v0c14.03-0.39,22.07,5,22.07,5C44.79,46.57,43.21,45.45,41.53,44.56z M24,27.12L24,27.12L24,27.12L24,27.12L24,27.12
		c-0.02,0.01-8.2,6.55-4.16,13.97c0,0-5.82,0.24-11.32,2.52c-0.74-7.35,5.17-11.79,5.17-11.79c-0.55,2.98,0.55,6.7,0.55,6.7
		c1.56-7.65,8.15-14.42,10.03-16.21c1.41,1.42,7.93,8.35,8.3,15.25c0,0,0.69-4.13,0-7.3c0,0,8.89,4.54,7.24,13.5
		c-5.6-2.4-11.64-2.65-11.64-2.65C32.2,33.67,24.02,27.13,24,27.12z"/>
</g>
</svg>
