<?xml version="1.0" encoding="utf-8"?>
<!-- Generator: Adobe Illustrator 24.0.0, SVG Export Plug-In . SVG Version: 6.00 Build 0)  -->
<svg version="1.1" id="Layer_1" xmlns="http://www.w3.org/2000/svg" xmlns:xlink="http://www.w3.org/1999/xlink" x="0px" y="0px"
	 viewBox="0 0 48 48" style="enable-background:new 0 0 48 48;" xml:space="preserve">
<style type="text/css">
	.st0{fill:#FFFFFF;}
	.st1{fill:#57C61C;}
</style>
<g>
	<path class="st1" d="M41.54,44.58c1.05-0.85,3.28-3.41,3.59-9.92c0.41-8.56-4.35-12.01-4.35-12.01s1.58,5.24-1.78,5.76
		c-1-0.12-3.44-0.37-4.67-2.67c-1.23-2.3,1.89-6.17,2.13-12.08c0.24-5.91-6.09-8.35-6.09-8.35c2.19,2.62-0.67,9.99-6.37,7.31
		c-5.7-2.68-1.62-12.61-1.62-12.61c-5.86,1.83-9.13,9.75-6.26,16.39c2.86,6.64-2.25,11.64-5.61,9.34c-3.35-2.3-1.71-8.06-1.71-8.06
		s-6.28,6.4-5.79,14.84C3.43,39.8,6.28,43.2,7.23,44.19c-1.97,0.95-3.84,2.18-5.32,3.79c0,0,8.05-5.39,22.09-5v0c0,0,0,0,0,0
		s0,0,0,0v0c14.04-0.39,22.09,5,22.09,5C44.81,46.59,43.23,45.47,41.54,44.58z M24,27.12L24,27.12L24,27.12L24,27.12L24,27.12
		c-0.02,0.01-8.21,6.56-4.16,13.98c0,0-5.82,0.24-11.33,2.52c-0.74-7.35,5.17-11.8,5.17-11.8c-0.55,2.99,0.55,6.7,0.55,6.7
		c1.56-7.66,8.16-14.43,10.04-16.23c1.41,1.42,7.94,8.36,8.3,15.26c0,0,0.69-4.13,0-7.31c0,0,8.89,4.55,7.24,13.51
		c-5.6-2.4-11.65-2.65-11.65-2.65C32.21,33.68,24.02,27.14,24,27.12z"/>
</g>
</svg>
