<?xml version="1.0" encoding="utf-8"?>
<!-- Generator: Adobe Illustrator 24.0.0, SVG Export Plug-In . SVG Version: 6.00 Build 0)  -->
<svg version="1.1" id="Layer_1" xmlns="http://www.w3.org/2000/svg" xmlns:xlink="http://www.w3.org/1999/xlink" x="0px" y="0px"
	 viewBox="0 0 48 48" style="enable-background:new 0 0 48 48;" xml:space="preserve">
<style type="text/css">
	.st0{fill:#FFFFFF;}
	.st1{fill:#57C61C;}
</style>
<g>
	<circle class="st0" cx="24" cy="24" r="23.96"/>
	<g>
		<path class="st1" d="M34.71,36.57c0.64-0.52,2-2.08,2.2-6.06c0.25-5.23-2.66-7.34-2.66-7.34s0.96,3.2-1.09,3.52
			c-0.61-0.07-2.1-0.23-2.85-1.63c-0.75-1.41,1.15-3.77,1.3-7.38c0.15-3.61-3.72-5.1-3.72-5.1c1.34,1.6-0.41,6.1-3.89,4.47
			c-3.48-1.64-0.99-7.7-0.99-7.7c-3.58,1.12-5.57,5.96-3.83,10.01c1.75,4.06-1.38,7.11-3.42,5.7c-2.05-1.41-1.04-4.92-1.04-4.92
			s-3.83,3.91-3.54,9.06c0.26,4.44,1.99,6.52,2.57,7.13c-1.21,0.58-2.35,1.33-3.25,2.32c0,0,4.91-3.29,13.49-3.05v0c0,0,0,0,0,0
			s0,0,0,0v0c8.58-0.24,13.49,3.05,13.49,3.05C36.71,37.8,35.75,37.12,34.71,36.57z M24,25.91L24,25.91L24,25.91L24,25.91L24,25.91
			c-0.01,0.01-5.01,4-2.54,8.54c0,0-3.56,0.15-6.92,1.54c-0.45-4.49,3.16-7.21,3.16-7.21c-0.33,1.82,0.33,4.09,0.33,4.09
			c0.95-4.68,4.98-8.81,6.13-9.91c0.86,0.87,4.85,5.1,5.07,9.32c0,0,0.42-2.52,0-4.46c0,0,5.43,2.78,4.42,8.25
			c-3.42-1.47-7.12-1.62-7.12-1.62C29.01,29.91,24.01,25.92,24,25.91z"/>
	</g>
</g>
</svg>
