<?xml version="1.0" encoding="utf-8"?>
<!-- Generator: Adobe Illustrator 24.0.0, SVG Export Plug-In . SVG Version: 6.00 Build 0)  -->
<svg version="1.1" id="Layer_1" xmlns="http://www.w3.org/2000/svg" xmlns:xlink="http://www.w3.org/1999/xlink" x="0px" y="0px"
	 viewBox="0 0 48 48" style="enable-background:new 0 0 48 48;" xml:space="preserve">
<style type="text/css">
	.st0{fill:#FFFFFF;}
</style>
<g>
	<path class="st0" d="M46.08,14.67c-1.21-2.85-2.93-5.42-5.13-7.62c-2.2-2.2-4.76-3.93-7.62-5.13C30.37,0.67,27.23,0.04,24,0.04
		s-6.37,0.63-9.33,1.88c-2.85,1.21-5.42,2.93-7.62,5.13c-2.2,2.2-3.93,4.76-5.13,7.62C0.67,17.63,0.04,20.77,0.04,24
		c0,3.23,0.63,6.37,1.88,9.33c1.21,2.85,2.93,5.42,5.13,7.62c2.2,2.2,4.76,3.93,7.62,5.13c2.96,1.25,6.09,1.88,9.33,1.88
		c3.23,0,6.37-0.63,9.33-1.88c2.85-1.21,5.42-2.93,7.62-5.13c2.2-2.2,3.93-4.76,5.13-7.62c1.25-2.96,1.88-6.09,1.88-9.33
		C47.96,20.77,47.33,17.63,46.08,14.67z M44.87,24c0,11.51-9.36,20.87-20.87,20.87S3.13,35.51,3.13,24
		C3.13,12.49,12.49,3.13,24,3.13S44.87,12.49,44.87,24z"/>
	<path class="st0" d="M24,5.09c-5.05,0-9.8,1.97-13.37,5.54C7.06,14.2,5.09,18.95,5.09,24s1.97,9.8,5.54,13.37
		c3.57,3.57,8.32,5.54,13.37,5.54c5.05,0,9.8-1.97,13.37-5.54c3.57-3.57,5.54-8.32,5.54-13.37s-1.97-9.8-5.54-13.37
		C33.8,7.06,29.05,5.09,24,5.09z M24,41.21c-9.49,0-17.21-7.72-17.21-17.21c0-9.49,7.72-17.21,17.21-17.21
		c9.49,0,17.21,7.72,17.21,17.21C41.21,33.49,33.49,41.21,24,41.21z"/>
	<path class="st0" d="M26.27,29.94c-0.17-0.15-0.65-0.5-1.44-1.07c-0.85-0.61-1.36-1.01-1.52-1.2c-0.12-0.14-0.19-0.29-0.19-0.44
		c0-0.16,0.09-0.3,0.26-0.42c0.17-0.12,0.4-0.19,0.67-0.19c0.56,0,1.11,0.32,1.65,0.96l1.54-1.16c-0.57-0.57-1.11-0.96-1.6-1.18
		c-0.49-0.22-1.01-0.32-1.56-0.32c-0.03,0-0.07,0-0.1,0V24h-1.13v1.12c-0.33,0.12-0.63,0.28-0.91,0.5
		c-0.58,0.46-0.87,1.02-0.87,1.66c0,0.45,0.17,0.9,0.52,1.35c0.35,0.45,1.12,1.09,2.3,1.92c0.62,0.43,1.03,0.76,1.21,0.97
		c0.18,0.21,0.28,0.42,0.28,0.63c0,0.23-0.12,0.44-0.36,0.61c-0.24,0.18-0.54,0.27-0.9,0.27c-0.68,0-1.29-0.41-1.81-1.23l-1.75,0.9
		c0.41,0.7,0.91,1.21,1.48,1.53c0.56,0.32,1.22,0.48,1.97,0.49v1.05h1.13V34.6c0.52-0.12,0.97-0.33,1.36-0.64
		c0.62-0.5,0.93-1.13,0.93-1.89c0-0.39-0.09-0.75-0.26-1.09C26.99,30.65,26.69,30.3,26.27,29.94z"/>
	<path class="st0" d="M31.12,17.76l-1.18-1.08l0.16,1.59c0.07,0.73,0.09,2.78-0.73,3.52c-0.28,0.26-0.66,0.33-1.16,0.23
		c-0.46-0.09-0.76-0.25-0.88-0.47c-0.29-0.52,0.11-1.66,0.51-2.77c0.4-1.13,0.86-2.4,0.86-3.64c0-1.68-0.61-3.27-1.71-4.47
		c-1.12-1.22-2.65-1.91-4.29-1.93l-0.93-0.02l0.36,0.85c0.04,0.09,0.91,2.32-0.76,5c-1.99,3.19-2.74,4.69-3.31,7.07
		c-0.2-0.86-0.29-2.01,0.06-3.36l0.41-1.58l-1.34,0.93c-0.06,0.04-1.56,1.1-2.84,3.23c-1.18,1.95-2.38,5.22-1.46,9.69l0.01,0.03
		c0.63,2.46,2,4.51,3.96,5.93c1.95,1.41,4.44,2.15,7.21,2.15c2.71,0,5.33-0.84,7.37-2.36c1.58-1.18,2.73-2.71,3.33-4.4
		c0.09-0.25,0.77-2.16,0.71-4.75C35.39,24.63,34.59,20.95,31.12,17.76z M33.96,30.2l-0.03,0c-0.06,0.41-0.16,0.8-0.29,1.19
		c-0.02,0.07-0.04,0.11-0.04,0.11l0,0c-1.23,3.47-5.1,5.96-9.56,5.96c-5.11,0-8.84-2.67-9.99-7.15c-0.67-3.26-0.24-6.2,1.28-8.76
		c0.44-0.74,0.91-1.33,1.32-1.79c-0.11,2.55,1.02,4.22,1.08,4.3l0.83,1.2l0.26-1.43c0.61-3.34,1.01-4.53,3.54-8.59
		c1.34-2.15,1.3-4.09,1.1-5.18c2.29,0.44,3.99,2.54,3.99,5.11c0,1.03-0.4,2.15-0.79,3.23c-0.51,1.42-0.99,2.77-0.42,3.77
		c0.3,0.54,0.87,0.9,1.69,1.06c1.11,0.23,1.82-0.16,2.22-0.52c0.8-0.73,1.07-1.98,1.14-2.99c1.85,2.11,2.83,4.6,2.91,7.43
		C34.27,28.36,34.12,29.42,33.96,30.2z"/>
</g>
</svg>
