<?xml version="1.0" encoding="utf-8"?>
<!-- Generator: Adobe Illustrator 24.0.0, SVG Export Plug-In . SVG Version: 6.00 Build 0)  -->
<svg version="1.1" id="Layer_1" xmlns="http://www.w3.org/2000/svg" xmlns:xlink="http://www.w3.org/1999/xlink" x="0px" y="0px"
	 viewBox="0 0 48 48" style="enable-background:new 0 0 48 48;" xml:space="preserve">
<style type="text/css">
	.st0{fill:#FFFFFF;}
</style>
<g>
	<path d="M46.03,14.69c-1.2-2.85-2.93-5.4-5.12-7.6c-2.2-2.2-4.75-3.92-7.6-5.12C30.36,0.72,27.23,0.09,24,0.09
		s-6.36,0.63-9.31,1.88c-2.85,1.2-5.4,2.93-7.6,5.12c-2.2,2.2-3.92,4.75-5.12,7.6C0.72,17.64,0.09,20.77,0.09,24
		c0,3.23,0.63,6.36,1.88,9.31c1.2,2.85,2.93,5.4,5.12,7.6c2.2,2.19,4.75,3.92,7.6,5.12c2.95,1.25,6.08,1.88,9.31,1.88
		c3.23,0,6.36-0.63,9.31-1.88c2.85-1.2,5.4-2.93,7.6-5.12c2.19-2.2,3.92-4.75,5.12-7.6c1.25-2.95,1.88-6.08,1.88-9.31
		C47.91,20.77,47.28,17.64,46.03,14.69z M44.82,24c0,11.48-9.34,20.82-20.82,20.82S3.18,35.48,3.18,24
		C3.18,12.52,12.52,3.18,24,3.18S44.82,12.52,44.82,24z"/>
	<path d="M24,5.14c-5.04,0-9.78,1.96-13.34,5.53C7.1,14.22,5.14,18.96,5.14,24s1.96,9.78,5.53,13.34c3.56,3.56,8.3,5.53,13.34,5.53
		c5.04,0,9.78-1.96,13.34-5.53c3.56-3.56,5.53-8.3,5.53-13.34s-1.96-9.78-5.53-13.34C33.78,7.1,29.04,5.14,24,5.14z M24,41.17
		c-9.47,0-17.17-7.7-17.17-17.17c0-9.47,7.7-17.17,17.17-17.17c9.47,0,17.17,7.7,17.17,17.17C41.17,33.47,33.47,41.17,24,41.17z"/>
	<path d="M26.27,29.93c-0.17-0.15-0.65-0.5-1.44-1.07c-0.85-0.61-1.35-1.01-1.52-1.19c-0.12-0.14-0.19-0.29-0.19-0.44
		c0-0.16,0.09-0.3,0.26-0.42c0.17-0.12,0.4-0.19,0.67-0.19c0.56,0,1.11,0.32,1.65,0.96l1.54-1.16c-0.57-0.57-1.11-0.96-1.6-1.18
		c-0.49-0.21-1.01-0.32-1.55-0.32c-0.03,0-0.07,0-0.1,0V24h-1.13v1.12c-0.33,0.11-0.63,0.28-0.9,0.5c-0.58,0.46-0.86,1.01-0.86,1.66
		c0,0.45,0.17,0.89,0.52,1.34c0.35,0.45,1.11,1.09,2.3,1.91c0.62,0.43,1.03,0.76,1.21,0.97c0.18,0.21,0.27,0.42,0.27,0.63
		c0,0.23-0.12,0.44-0.36,0.61c-0.24,0.18-0.54,0.27-0.9,0.27c-0.68,0-1.29-0.41-1.81-1.23l-1.74,0.9c0.41,0.69,0.9,1.2,1.48,1.53
		c0.56,0.32,1.21,0.48,1.96,0.49v1.04h1.13v-1.15c0.52-0.12,0.97-0.33,1.35-0.63c0.62-0.5,0.93-1.13,0.93-1.89
		c0-0.39-0.09-0.75-0.26-1.08C26.99,30.64,26.69,30.29,26.27,29.93z"/>
	<path d="M31.1,17.78l-1.17-1.08l0.16,1.58c0.07,0.73,0.09,2.77-0.73,3.52c-0.28,0.26-0.66,0.33-1.16,0.23
		c-0.46-0.09-0.75-0.25-0.88-0.47c-0.29-0.52,0.11-1.66,0.51-2.76c0.4-1.12,0.85-2.4,0.85-3.63c0-1.68-0.61-3.26-1.71-4.46
		c-1.12-1.22-2.64-1.9-4.28-1.93l-0.92-0.02l0.35,0.85c0.04,0.09,0.9,2.32-0.76,4.99c-1.99,3.18-2.73,4.68-3.3,7.05
		c-0.2-0.86-0.29-2.01,0.06-3.35l0.41-1.58l-1.34,0.93c-0.06,0.04-1.56,1.1-2.84,3.22c-1.17,1.95-2.38,5.21-1.45,9.67l0.01,0.03
		c0.62,2.46,1.99,4.5,3.95,5.92c1.95,1.4,4.43,2.15,7.19,2.15c2.71,0,5.32-0.84,7.35-2.36c1.58-1.18,2.72-2.7,3.32-4.39
		c0.09-0.25,0.77-2.15,0.7-4.74C35.36,24.63,34.57,20.96,31.1,17.78z M33.94,30.18l-0.03,0c-0.06,0.4-0.16,0.8-0.29,1.18
		c-0.02,0.07-0.04,0.11-0.04,0.11l0,0c-1.23,3.47-5.09,5.94-9.54,5.94c-5.1,0-8.82-2.67-9.97-7.14c-0.67-3.25-0.24-6.19,1.28-8.74
		c0.44-0.73,0.91-1.33,1.32-1.79c-0.11,2.54,1.02,4.21,1.08,4.29l0.83,1.19l0.26-1.43c0.61-3.33,1.01-4.52,3.54-8.57
		c1.34-2.14,1.29-4.08,1.1-5.17c2.29,0.44,3.98,2.53,3.98,5.1c0,1.03-0.4,2.14-0.78,3.23c-0.51,1.42-0.99,2.76-0.42,3.76
		c0.3,0.54,0.87,0.9,1.69,1.06c1.11,0.23,1.82-0.16,2.22-0.52c0.8-0.73,1.07-1.97,1.14-2.98c1.85,2.1,2.82,4.59,2.9,7.41
		C34.25,28.35,34.1,29.41,33.94,30.18z"/>
</g>
</svg>
