<?xml version="1.0" encoding="utf-8"?>
<!-- Generator: Adobe Illustrator 24.0.0, SVG Export Plug-In . SVG Version: 6.00 Build 0)  -->
<svg version="1.1" id="Layer_1" xmlns="http://www.w3.org/2000/svg" xmlns:xlink="http://www.w3.org/1999/xlink" x="0px" y="0px"
	 viewBox="0 0 48 48" style="enable-background:new 0 0 48 48;" xml:space="preserve">
<style type="text/css">
	.st0{fill:#FFFFFF;}
</style>
<g>
	<circle cx="24" cy="24" r="23.98"/>
	<g>
		<path class="st0" d="M36.18,18.02v-2.38c0-1.34-0.4-2.61-1.15-3.67c-0.83-1.17-1.98-1.92-3.32-2.18L30,9.48l0.52,1.66
			c0.31,0.98,0.6,2.84,0.08,3.68c-0.15,0.25-0.36,0.37-0.69,0.43c-0.73,0.12-1.23-0.03-1.48-0.43c-0.41-0.66-0.2-1.86,0.51-2.85
			c1.03-1.44,1.16-3.11,0.35-4.49c-0.8-1.36-2.37-2.08-4.09-1.88l-1.3,0.16l0.44,1.23c0.2,0.56,0.5,1.98,0.09,2.58
			c-0.06,0.08-0.22,0.32-0.9,0.34c-0.02,0-0.03,0-0.04,0c0,0,0,0,0,0c-0.16-0.17-0.27-0.82-0.22-1.34l0.15-1.7l-1.58,0.63
			c-0.12,0.05-2.97,1.22-3.46,3.69c-0.24,1.18-0.08,2.05,0.04,2.76c0.11,0.61,0.14,0.87,0.03,1.11c-0.06,0.04-0.3,0.09-0.57-0.03
			c-0.65-0.29-1.05-1.28-0.21-3.22l0.78-1.8l-1.93,0.36c-0.12,0.02-3.03,0.59-4.26,3.62c-0.3,0.75-0.46,1.56-0.46,2.4v1.64
			l-2.91,2.86v14.97c0,1.46,1.19,2.65,2.65,2.65h24.88c1.46,0,2.65-1.19,2.65-2.65V20.88L36.18,18.02z M15,24.41
			c1.56,0.77,2.8,1.38,3.7,1.82c0.29,0.14,0.55,0.27,0.77,0.37l-8.82,8.14V22.26C11.67,22.76,13.34,23.59,15,24.41z M11.26,21.01
			l0.9-0.89v1.33C11.86,21.3,11.56,21.15,11.26,21.01z M17.18,16.62c0.52,0.23,1.08,0.29,1.6,0.16c0.58-0.14,1.04-0.5,1.26-1
			c0.34-0.76,0.22-1.46,0.1-2.14c-0.11-0.62-0.22-1.26-0.05-2.11c0.17-0.86,0.89-1.51,1.5-1.92c0.08,0.51,0.26,1.07,0.63,1.47
			c0.35,0.37,0.81,0.57,1.34,0.56c1.3-0.02,1.97-0.61,2.3-1.09c0.67-0.97,0.56-2.31,0.37-3.21c0.67,0.11,1.23,0.47,1.55,1.02
			c0.45,0.76,0.35,1.73-0.27,2.59c-1.14,1.58-1.37,3.51-0.58,4.78c0.63,1.02,1.81,1.47,3.24,1.23c0.83-0.13,1.48-0.56,1.9-1.23
			c0.49-0.79,0.65-1.9,0.48-3.31c-0.02-0.18-0.05-0.35-0.07-0.51c0.43,0.25,0.81,0.61,1.14,1.07c0.54,0.77,0.83,1.69,0.83,2.66v6.5
			c-2.95,1.46-5.98,2.95-7.02,3.44l-0.3-0.28c-0.85-0.79-1.96-1.22-3.12-1.22c0,0,0,0,0,0c-1.16,0-2.27,0.43-3.12,1.22l-0.3,0.28
			c-1.04-0.49-4.07-1.98-7.02-3.44v-5.76c0-0.62,0.11-1.21,0.33-1.75c0.42-1.03,1.1-1.65,1.7-2.03
			C15.11,14.81,16.06,16.13,17.18,16.62z M27.76,25.89L27.76,25.89L27.76,25.89C27.76,25.89,27.76,25.89,27.76,25.89z M20.24,25.89
			L20.24,25.89L20.24,25.89C20.24,25.89,20.24,25.89,20.24,25.89z M21.82,26.33c0.6-0.55,1.37-0.85,2.18-0.85
			c0.81,0,1.59,0.3,2.18,0.85l0.63,0.59v0c0,0,0,0,0,0l10.32,9.52c-0.17,0.2-0.42,0.33-0.7,0.33H24h0H11.56
			c-0.28,0-0.53-0.13-0.7-0.33L21.82,26.33z M37.35,34.74l-8.82-8.14c0.22-0.11,0.48-0.23,0.77-0.37c0.9-0.44,2.14-1.05,3.7-1.82
			c1.66-0.82,3.33-1.65,4.35-2.16V34.74z M35.84,21.46v-1.33l0.9,0.89C36.44,21.16,36.14,21.3,35.84,21.46z"/>
		<path class="st0" d="M23.71,23.18c2.11,0.28,3.26-1.19,3.26-1.19l-0.48-0.48c-0.45,0.53-2.13,1.45-3.61,0.68
			c-1.48-0.77-1.41-2.69-0.67-3.85c0.74-1.16,2.55-1.63,3.52-0.85c0.97,0.78,0.94,1.78,0.54,2.65c-0.4,0.87-1.26,0.88-1.15,0.18
			c0.07-0.5,0.62-2.29,0.62-2.29l-0.71-0.04c-0.06,0.17-0.11,0.34-0.16,0.51c-0.31-0.57-0.96-0.81-1.71-0.32
			c-0.96,0.63-1.22,2.43-0.42,3.06c0.67,0.54,1.47,0.14,1.7,0c0.03,0.08,0.08,0.14,0.14,0.17c0.44,0.25,2.25,0.17,2.52-1.85
			c0.26-1.9-0.95-3.27-3.06-3.14c-2.25,0.14-3.11,2.47-3.09,3.7C20.96,21.37,21.43,22.88,23.71,23.18z M24.42,20.33
			c-0.33,0.36-1.06,0.68-1.3,0.29c-0.27-0.45,0.05-1.91,0.74-1.89c0.48,0.01,0.68,0.47,0.74,0.73
			C24.52,19.77,24.46,20.06,24.42,20.33z"/>
	</g>
</g>
</svg>
