<?xml version="1.0" encoding="utf-8"?>
<!-- Generator: Adobe Illustrator 24.0.0, SVG Export Plug-In . SVG Version: 6.00 Build 0)  -->
<svg version="1.1" id="Layer_1" xmlns="http://www.w3.org/2000/svg" xmlns:xlink="http://www.w3.org/1999/xlink" x="0px" y="0px"
	 viewBox="0 0 48 48" style="enable-background:new 0 0 48 48;" xml:space="preserve">
<style type="text/css">
	.st0{fill:#FFFFFF;}
</style>
<g>
	<circle class="st0" cx="24" cy="24" r="24"/>
	<g>
		<g>
			<path d="M24.01,26.92c-0.67,0-1.15-0.12-1.23-0.14c-0.66-0.14-1.25-0.4-1.77-0.77c-0.78-0.55-1.75-1.61-1.91-3.54
				c-0.26-3.14,1.84-4.89,1.93-4.96l0.55-0.44c0.52-1.61-0.07-3.71-0.08-3.73l-0.13-0.44l0.57,0.16c0.04,0.01,1.1,0.31,2.41,1.17
				c1.2,0.79,2.84,2.23,3.86,4.6c0.05,0.11,0.1,0.22,0.14,0.32l0,0.01l0.28,0.81c0.36,1.22,0.39,2.35,0.1,3.38
				c-0.15,0.52-0.38,1.01-0.69,1.45c-1.07,1.65-2.65,2.06-3.79,2.11l-0.09,0C24.11,26.92,24.06,26.92,24.01,26.92
				C24.01,26.92,24.01,26.92,24.01,26.92z M22.04,17.29l-0.02,0.08l-0.67,0.55c-0.08,0.07-1.98,1.65-1.74,4.52
				c0.14,1.73,1,2.67,1.7,3.16c0.46,0.33,1,0.56,1.59,0.69l0.01,0c0.02,0,0.47,0.12,1.11,0.12c0,0,0,0,0,0c0.05,0,0.1,0,0.15,0
				l0.07,0c1.02-0.04,2.43-0.4,3.39-1.88c0.28-0.4,0.48-0.84,0.62-1.31c0.29-1.01,0.23-2.14-0.18-3.36
				c-0.05-0.16-0.11-0.33-0.18-0.49l-0.01-0.02c-0.04-0.1-0.08-0.2-0.13-0.29l-0.01-0.01c-0.96-2.25-2.53-3.62-3.67-4.37
				c-0.84-0.56-1.58-0.87-1.97-1.01c0.16,0.75,0.39,2.31-0.05,3.62L22.04,17.29z"/>
		</g>
		<g>
			<path d="M33.02,34.79H14.98l3.54-9.71l1.14,1.18c1.41,1.45,4.35,1.53,4.38,1.53c0.28,0,2.83-0.02,4.3-1.53l1.14-1.18L33.02,34.79
				z M15.71,34.28h16.57l-3.01-8.25l-0.57,0.59c-1.61,1.66-4.36,1.68-4.67,1.68c-0.13,0-3.19-0.09-4.74-1.68l-0.57-0.59L15.71,34.28
				z M30.81,33.24H17.19l1.96-5.38l0.27,0.18c1.92,1.24,4.5,1.29,4.61,1.29c0.44,0.01,2.73-0.04,4.56-1.28l0.27-0.18L30.81,33.24z
				 M17.92,32.73h12.15l-1.48-4.07c-1.9,1.15-4.13,1.19-4.57,1.19c-0.11,0-2.6-0.05-4.61-1.21L17.92,32.73z"/>
		</g>
		<g>
			<g>
				<path d="M28.3,19.78c-0.06-0.17-0.12-0.34-0.19-0.51l0,0l-0.01-0.01c-0.04-0.11-0.09-0.21-0.13-0.31l0-0.01
					c-0.99-2.31-2.59-3.71-3.76-4.49c-1.27-0.84-2.29-1.12-2.33-1.14l-0.13-0.04c0,0,0.64,2.21,0.06,3.92
					c0,0.01-0.01,0.02-0.01,0.03l-0.6,0.49c-0.09,0.07-2.09,1.73-1.84,4.74c0.15,1.83,1.06,2.83,1.8,3.35
					c0.49,0.34,1.06,0.59,1.68,0.73c0.06,0.01,0.52,0.13,1.17,0.13c0.05,0,0.1,0,0.15,0l0.02,0c0.01,0,0.02,0,0.04,0l0.01,0
					c1.08-0.04,2.58-0.43,3.6-2c0.29-0.41,0.51-0.88,0.65-1.37C28.78,22.23,28.72,21.05,28.3,19.78z M25.57,24.61L25.57,24.61
					c-0.35,0.22-0.75,0.37-1.19,0.42c-0.07,0.01-0.14,0.01-0.21,0.02c0,0.01,0,0.01,0,0.01c-1.46,0.04-3.12-0.64-3.3-2.81
					c-0.18-2.21,1.27-3.39,1.27-3.39c-0.24,0.86,0.02,1.21,0.02,1.21c1.31-1.94,1.15-4.19,1.15-4.19c2.39,1.3,1.83,3.46,1.83,3.46
					c0.65-0.58,0.51-1.52,0.51-1.52C29.05,22.98,25.57,24.61,25.57,24.61z"/>
			</g>
			<g>
				<path d="M32.65,34.53h-17.3l3.27-8.98l0.86,0.88c1.48,1.52,4.47,1.61,4.56,1.61c0.32,0,2.95-0.03,4.48-1.61l0.86-0.88
					L32.65,34.53z M17.56,32.99h12.88l-1.72-4.72c-1.88,1.27-4.19,1.32-4.7,1.32c-0.13,0-2.77-0.05-4.74-1.33L17.56,32.99z"/>
			</g>
		</g>
		<path d="M8.9,8.9V39.1H39.1V8.9H8.9z M12.13,35.87V12.13h23.74v23.74H12.13z"/>
	</g>
</g>
</svg>
