<?xml version="1.0" encoding="utf-8"?>
<!-- Generator: Adobe Illustrator 24.0.0, SVG Export Plug-In . SVG Version: 6.00 Build 0)  -->
<svg version="1.1" id="Layer_1" xmlns="http://www.w3.org/2000/svg" xmlns:xlink="http://www.w3.org/1999/xlink" x="0px" y="0px"
	 viewBox="0 0 48 48" style="enable-background:new 0 0 48 48;" xml:space="preserve">
<style type="text/css">
	.st0{fill:#FFFFFF;}
</style>
<g>
	<g>
		<g>
			<rect x="0.02" y="36.41" class="st0" width="46.14" height="4.45"/>
			<g>
				<path class="st0" d="M44.37,16.92c-0.37,0-0.74-0.03-1.09-0.1v13.81H2.92V11.9h35.41c-0.07-0.36-0.1-0.74-0.1-1.12
					c0-0.48,0.06-0.95,0.16-1.4H0.4v23.77H45.8v-16.4C45.34,16.86,44.86,16.92,44.37,16.92z"/>
				<path class="st0" d="M43.74,10.77c0,0.35,0.28,0.63,0.63,0.63c0.35,0,0.63-0.28,0.63-0.63s-0.28-0.63-0.63-0.63
					C44.02,10.14,43.74,10.42,43.74,10.77z"/>
			</g>
			<g>
				<g>
					<path class="st0" d="M46.2,33.55H0V8.97h38.89l-0.12,0.49c-0.1,0.43-0.15,0.86-0.15,1.31c0,0.35,0.03,0.71,0.1,1.05l0.09,0.48
						H3.32v17.93h39.55V16.34l0.47,0.09c0.78,0.14,1.59,0.12,2.36-0.07l0.5-0.12 M0.8,32.75h44.59V17.24
						c-0.57,0.09-1.15,0.1-1.72,0.04v13.75H2.52V11.49h35.34c-0.03-0.24-0.04-0.48-0.04-0.72c0-0.33,0.03-0.67,0.08-0.99H0.8V32.75z
						"/>
				</g>
				<g>
					<path class="st0" d="M44.37,11.81c-0.57,0-1.04-0.46-1.04-1.04c0-0.57,0.46-1.04,1.04-1.04c0.57,0,1.04,0.46,1.04,1.04
						C45.4,11.34,44.94,11.81,44.37,11.81z M44.37,10.54c-0.13,0-0.23,0.1-0.23,0.23S44.24,11,44.37,11c0.13,0,0.23-0.1,0.23-0.23
						S44.5,10.54,44.37,10.54z"/>
				</g>
			</g>
			<circle class="st0" cx="44.37" cy="10.77" r="3.63"/>
		</g>
		<g>
			<path class="st0" d="M14.63,24.18v2.54H7.28V15.3h2.49v8.88H14.63z"/>
			<path class="st0" d="M16,15.3h2.51v11.42H16V15.3z"/>
			<path class="st0" d="M30.37,15.3l-3.99,11.42h-2.82L19.58,15.3h2.82l2.58,7.4l2.58-7.4H30.37z"/>
			<path class="st0" d="M33.93,17.84v1.78h4.93v2.54h-4.93v2.01h5.43v2.54h-7.94V15.3h7.94v2.54H33.93z"/>
		</g>
	</g>
</g>
</svg>
