<?xml version="1.0" encoding="utf-8"?>
<!-- Generator: Adobe Illustrator 24.0.0, SVG Export Plug-In . SVG Version: 6.00 Build 0)  -->
<svg version="1.1" id="Layer_1" xmlns="http://www.w3.org/2000/svg" xmlns:xlink="http://www.w3.org/1999/xlink" x="0px" y="0px"
	 viewBox="0 0 48 48" style="enable-background:new 0 0 48 48;" xml:space="preserve">
<style type="text/css">
	.st0{fill:#FFFFFF;}
</style>
<g>
	<g>
		<g>
			<g>
				<g>
					<path class="st0" d="M24.24,34.81l-0.48-4.97c7.29-0.7,12.69-4.05,16.06-9.97c1.34-2.36,2.1-4.69,2.51-6.4h-6.25V8.49H48
						l-0.21,2.69c-0.02,0.22-0.45,5.47-3.53,10.99C41.37,27.33,35.55,33.72,24.24,34.81z"/>
				</g>
				<g>
					<path class="st0" d="M24,34.85l-1.23-0.7c-3.53-2.01-6.43-4.88-8.62-8.54c-1.71-2.86-2.98-6.21-3.78-9.93
						C9.03,9.42,9.49,4.21,9.51,3.99l0.21-2.28L24,1.79l14.28-0.08l0.21,2.28c0.02,0.22,0.47,5.43-0.86,11.69
						c-0.8,3.73-2.07,7.07-3.78,9.93c-2.19,3.66-5.09,6.54-8.62,8.54L24,34.85z M14.41,6.72c0.01,1.91,0.17,4.84,0.87,8.04
						c1.42,6.52,4.35,11.32,8.72,14.29c8.54-5.81,9.56-17.41,9.59-22.32L24,6.78l-0.01,0L14.41,6.72z"/>
				</g>
				<g>
					<path class="st0" d="M23.76,34.81C12.45,33.72,6.63,27.33,3.74,22.16c-3.08-5.51-3.52-10.76-3.53-10.99L0,8.49h11.91v4.99H5.67
						c0.42,1.71,1.17,4.04,2.51,6.4c3.37,5.91,8.77,9.27,16.06,9.97L23.76,34.81z"/>
				</g>
			</g>
			<g>
				<rect x="21.5" y="31.98" class="st0" width="4.99" height="11.82"/>
			</g>
			<g>
				<rect x="15.17" y="41.3" class="st0" width="17.66" height="4.99"/>
			</g>
		</g>
	</g>
</g>
</svg>
