<?xml version="1.0" encoding="utf-8"?>
<!-- Generator: Adobe Illustrator 24.0.0, SVG Export Plug-In . SVG Version: 6.00 Build 0)  -->
<svg version="1.1" id="Layer_1" xmlns="http://www.w3.org/2000/svg" xmlns:xlink="http://www.w3.org/1999/xlink" x="0px" y="0px"
	 viewBox="0 0 48 48" style="enable-background:new 0 0 48 48;" xml:space="preserve">
<style type="text/css">
	.st0{fill:#FFFFFF;}
</style>
<g>
	<circle cx="24" cy="24" r="24"/>
	<g>
		<g>
			<g>
				<g>
					<path class="st0" d="M24.15,30.64l-0.29-3.05c4.48-0.43,7.8-2.49,9.87-6.13c0.82-1.45,1.29-2.88,1.54-3.93h-3.84v-3.07h7.32
						l-0.13,1.65c-0.01,0.14-0.28,3.36-2.17,6.75C34.67,26.05,31.1,29.98,24.15,30.64z"/>
				</g>
				<g>
					<path class="st0" d="M24,30.67l-0.76-0.43c-2.17-1.23-3.95-3-5.3-5.25c-1.05-1.76-1.83-3.81-2.32-6.1
						c-0.82-3.85-0.54-7.05-0.53-7.18l0.13-1.4L24,10.35l8.78-0.05l0.13,1.4c0.01,0.13,0.29,3.34-0.53,7.18
						c-0.49,2.29-1.27,4.35-2.32,6.1c-1.34,2.25-3.13,4.02-5.3,5.25L24,30.67z M18.11,13.38c0.01,1.18,0.11,2.98,0.53,4.94
						c0.87,4.01,2.67,6.96,5.36,8.78c5.25-3.57,5.88-10.7,5.89-13.72L24,13.42l-0.01,0L18.11,13.38z"/>
				</g>
				<g>
					<path class="st0" d="M23.85,30.64c-6.95-0.67-10.53-4.6-12.3-7.77c-1.89-3.39-2.16-6.61-2.17-6.75l-0.13-1.65h7.32v3.07h-3.84
						c0.26,1.05,0.72,2.48,1.54,3.93c2.07,3.63,5.39,5.69,9.87,6.13L23.85,30.64z"/>
				</g>
			</g>
			<g>
				<rect x="22.47" y="28.9" class="st0" width="3.07" height="7.26"/>
			</g>
			<g>
				<rect x="18.57" y="34.63" class="st0" width="10.85" height="3.07"/>
			</g>
		</g>
	</g>
</g>
</svg>
