<?xml version="1.0" encoding="utf-8"?>
<!-- Generator: Adobe Illustrator 24.0.0, SVG Export Plug-In . SVG Version: 6.00 Build 0)  -->
<svg version="1.1" id="Layer_1" xmlns="http://www.w3.org/2000/svg" xmlns:xlink="http://www.w3.org/1999/xlink" x="0px" y="0px"
	 viewBox="0 0 48 48" style="enable-background:new 0 0 48 48;" xml:space="preserve">
<style type="text/css">
	.st0{fill:#FFFFFF;}
</style>
<g>
	<g>
		<g>
			<g>
				<g>
					<path class="st0" d="M48,48H0V5.94h48V48z M5.19,42.93h37.62V11.01H5.19V42.93z"/>
				</g>
				<g>
					<rect x="2.59" y="8.48" class="st0" width="42.81" height="7.58"/>
				</g>
				<g>
					<path class="st0" d="M39.03,8.57h-9.32V0.83h9.32V8.57z M31.15,7.16h6.44V2.24h-6.44V7.16z"/>
				</g>
				<g>
					<path class="st0" d="M40.03,9.4H28.71V0h11.32V9.4z M30.46,7.69h7.81V1.71h-7.81V7.69z"/>
				</g>
				<g>
					<rect x="33.14" y="1.53" class="st0" width="5.17" height="5.91"/>
				</g>
				<g>
					<path class="st0" d="M18.29,8.57H8.97V0.83h9.32V8.57z M10.41,7.16h6.44V2.24h-6.44V7.16z"/>
				</g>
				<g>
					<path class="st0" d="M19.29,9.4H7.97V0h11.32V9.4z M9.72,7.69h7.81V1.71H9.72V7.69z"/>
				</g>
				<g>
					<rect x="12.4" y="1.53" class="st0" width="5.17" height="5.91"/>
				</g>
			</g>
			<g>
				<polygon class="st0" points="24,19.09 27.21,25.59 34.37,26.63 29.19,31.68 30.41,38.82 24,35.45 17.59,38.82 18.81,31.68 
					13.63,26.63 20.79,25.59 				"/>
			</g>
		</g>
	</g>
</g>
</svg>
