<?xml version="1.0" encoding="utf-8"?>
<!-- Generator: Adobe Illustrator 24.0.0, SVG Export Plug-In . SVG Version: 6.00 Build 0)  -->
<svg version="1.1" id="Layer_1" xmlns="http://www.w3.org/2000/svg" xmlns:xlink="http://www.w3.org/1999/xlink" x="0px" y="0px"
	 viewBox="0 0 48 48" style="enable-background:new 0 0 48 48;" xml:space="preserve">
<style type="text/css">
	.st0{fill:#FFFFFF;}
</style>
<g>
	<g>
		<g>
			<g>
				<path d="M48,44.82H15.36v-0.17c-0.84-0.19-1.6-0.8-1.97-1.65l-0.33-0.77l-12.78-0.7V13.34c0-1.17,0.83-2.19,1.98-2.43
					c1.15-0.23,2.31,0.38,2.78,1.45l8.8,20.38V3.17H48V44.82z M18.3,40.35h25.23V7.64H18.3V40.35z M4.75,37.29l6.33,0.35L4.75,22.98
					V37.29z M0.92,14.13C0.92,14.13,0.93,14.13,0.92,14.13L0.92,14.13z"/>
			</g>
			<path d="M13.64,3.17l-0.01,6.34H0l0.03,32.12h4.97V24.1l8.17,18.75c0.45,1.05,1.46,1.7,2.56,1.7c0.19,0,0.38-0.02,0.58-0.06
				c1.32-0.27,2.25-1.4,2.25-2.75l0.06-38.55L13.64,3.17z M6.47,14.13l7.15-0.12l-0.03,17.4L6.47,14.13z"/>
			<g>
				<path d="M12.83,42.18l1.31,2.65h9.02c0,0-8.96-4.14-9.04-4.12c-0.09,0.03-1.33,1.35-1.33,1.35"/>
			</g>
			<g>
				<rect x="30.98" y="12.74" width="9.29" height="3.28"/>
			</g>
			<g>
				<rect x="22.94" y="19.28" width="17.34" height="3.28"/>
			</g>
			<g>
				<rect x="22.94" y="25.81" width="17.34" height="3.28"/>
			</g>
			<g>
				<rect x="22.94" y="32.35" width="17.34" height="3.28"/>
			</g>
		</g>
	</g>
</g>
</svg>
