<?xml version="1.0" encoding="utf-8"?>
<!-- Generator: Adobe Illustrator 24.0.0, SVG Export Plug-In . SVG Version: 6.00 Build 0)  -->
<svg version="1.1" id="Layer_1" xmlns="http://www.w3.org/2000/svg" xmlns:xlink="http://www.w3.org/1999/xlink" x="0px" y="0px"
	 viewBox="0 0 48 48" style="enable-background:new 0 0 48 48;" xml:space="preserve">
<style type="text/css">
	.st0{fill:#FFFFFF;}
</style>
<g>
	<path class="st0" d="M23.71,41.3c-0.23,0-2.29-0.05-4.85-0.33l-1.62-0.18l0.26,1.61c0.25,1.52,1.03,2.92,2.19,3.95
		c1.2,1.06,2.72,1.64,4.28,1.64c3.21,0,6-2.44,6.49-5.67l0.24-1.61l-1.62,0.2C26.24,41.26,23.81,41.3,23.71,41.3z"/>
	<path class="st0" d="M42.88,29.59c-0.58-1.75-1.55-2.81-2.29-3.41c-0.4-1.58-1.59-6.26-2.25-8.95c-0.75-3.08-1.39-5.03-1.41-5.11
		c-0.01-0.02-0.03-0.1-0.08-0.22c0,0-0.05-0.23-0.36-0.81c-0.13-0.26-0.29-0.56-0.48-0.88c-0.33-0.55-0.63-1.01-0.95-1.43
		c-0.05-0.06-0.1-0.12-0.14-0.18c-0.01-0.01-0.02-0.03-0.03-0.04c-1.78-2.54-4.39-3.92-4.39-3.92c-0.67,0.57-0.55,1.9-0.44,2.55
		c-0.21-0.7-0.49-1.52-0.95-2.36c-0.97-1.79-2.31-3.16-3.85-3.96c-0.9-0.47-1.87-0.74-2.87-0.81c-0.16-0.01-0.32-0.02-0.48-0.02
		c-0.9,0-1.83,0.17-2.75,0.49L17.1,1.24l1.09,1.89c0.03,0.05,0.74,1.3,1.11,2.7c0.25,0.95,0.41,2.18-0.27,2.62
		c-0.14,0.09-0.24,0.13-0.31,0.15c-0.04,0.01-0.08,0.01-0.09,0.01h-0.07l-0.02,0.01c-0.04-0.03-0.2-0.2-0.27-0.83
		c-0.13-1.07,0.09-1.77,0.16-1.95l0.24-0.65l-0.68,0.1c-0.07,0.01-1.73,0.25-2.71,0.89c-0.41,0.21-0.82,0.5-1.25,0.88
		c-1.31,1.16-2.31,2.88-2.96,5.09c-0.07,0.21-0.68,2.12-1.41,5.09c-0.68,2.79-1.93,7.68-2.25,8.95c-0.74,0.6-1.71,1.66-2.29,3.41
		C4.54,31.32,4.84,33,5.99,34.45c1.05,1.33,2.86,2.51,5.53,3.61c2.21,0.91,4.99,1.52,8.27,1.81c1.67,0.15,3.03,0.17,3.69,0.17
		c0.26,0,0.44,0,0.51-0.01c0.08,0,0.26,0.01,0.53,0.01c0.66,0,2.03-0.02,3.69-0.17c3.28-0.29,6.06-0.9,8.27-1.81
		c2.66-1.1,4.47-2.28,5.53-3.61C43.15,33,43.46,31.32,42.88,29.59z M35.48,30.28c-1.56,0.66-3.21,1.19-4.91,1.57
		c-2.12,0.48-4.33,0.73-6.56,0.76l-0.01,0l-0.01,0c-2.23-0.02-4.43-0.28-6.56-0.76c-1.7-0.38-3.35-0.91-4.91-1.57
		c-1.61-0.68-2.78-1.36-3.48-1.8c0.23-0.31,0.57-0.84,0.83-1.55c0.04-0.11,0.07-0.2,0.1-0.28c0.58,0.38,1.75,1.08,3.41,1.78
		c2.26,0.95,5.94,2.09,10.61,2.14c4.68-0.05,8.35-1.19,10.61-2.14c1.67-0.7,2.83-1.4,3.41-1.78c0.02,0.08,0.06,0.17,0.1,0.28
		c0.26,0.71,0.6,1.23,0.83,1.55C38.26,28.92,37.09,29.6,35.48,30.28z"/>
</g>
</svg>
