<?xml version="1.0" encoding="utf-8"?>
<!-- Generator: Adobe Illustrator 24.0.0, SVG Export Plug-In . SVG Version: 6.00 Build 0)  -->
<svg version="1.1" id="Layer_1" xmlns="http://www.w3.org/2000/svg" xmlns:xlink="http://www.w3.org/1999/xlink" x="0px" y="0px"
	 viewBox="0 0 48 48" style="enable-background:new 0 0 48 48;" xml:space="preserve">
<style type="text/css">
	.st0{fill:#FFFFFF;}
</style>
<path class="st0" d="M45.92,18.42c-0.47-5.35-2.99-10.2-7.11-13.66c-4.12-3.45-9.33-5.1-14.69-4.63c-5.35,0.47-10.2,2.99-13.66,7.11
	c-3.45,4.12-5.1,9.33-4.63,14.69c0.41,4.7,2.41,9.01,5.67,12.33l-0.84,1l-1.2-1l-6.65,7.93c-1.25,1.49-1.05,3.7,0.43,4.95h0
	c1.49,1.25,3.7,1.05,4.95-0.43l6.65-7.93l-1.2-1l0.84-1c3.84,2.64,8.43,3.86,13.13,3.45c5.35-0.47,10.2-2.99,13.66-7.11
	C44.74,28.99,46.39,23.77,45.92,18.42z M37.75,30.13c-5.49,6.55-15.29,7.4-21.83,1.91c-6.55-5.49-7.4-15.29-1.91-21.83
	c5.49-6.55,15.29-7.4,21.83-1.91C42.38,13.79,43.24,23.59,37.75,30.13z"/>
</svg>
