<?xml version="1.0" encoding="utf-8"?>
<!-- Generator: Adobe Illustrator 24.0.0, SVG Export Plug-In . SVG Version: 6.00 Build 0)  -->
<svg version="1.1" id="Layer_1" xmlns="http://www.w3.org/2000/svg" xmlns:xlink="http://www.w3.org/1999/xlink" x="0px" y="0px"
	 viewBox="0 0 48 48" style="enable-background:new 0 0 48 48;" xml:space="preserve">
<style type="text/css">
	.st0{fill:#FFFFFF;}
</style>
<path d="M39.18,0.03H8.82c-4.85,0-8.79,3.94-8.79,8.79v30.35c0,4.85,3.94,8.79,8.79,8.79h30.35c4.85,0,8.79-3.94,8.79-8.79V8.82
	C47.97,3.98,44.02,0.03,39.18,0.03z M39.18,44.55H14.94c0.9-2.49,2.63-6.62,5.11-10.74l0,0l0,0c0.09-0.15,0.18-0.31,0.28-0.46
	c2.77-4.5,7.13-9.97,12.17-10.45c2.98-0.28,5.95,0.46,8.84,2.21c1.58,0.96,2.7,1.98,3.22,2.48v11.58
	C44.55,42.14,42.14,44.55,39.18,44.55z M8.82,44.55c-2.96,0-5.37-2.41-5.37-5.37v-5.29c2-2.96,4.24-4.76,6.01-4.85
	c1.78-0.08,4.65,1.5,7.94,4.38c-2.4,4.17-4.2,8.51-5.09,11.13H8.82z M17.28,8.84c-2.86,0-5.21-2.21-5.43-5.01h10.86
	C22.49,6.63,20.14,8.84,17.28,8.84z"/>
</svg>
