<?xml version="1.0" encoding="utf-8"?>
<!-- Generator: Adobe Illustrator 24.0.0, SVG Export Plug-In . SVG Version: 6.00 Build 0)  -->
<svg version="1.1" id="Layer_1" xmlns="http://www.w3.org/2000/svg" xmlns:xlink="http://www.w3.org/1999/xlink" x="0px" y="0px"
	 viewBox="0 0 48 48" style="enable-background:new 0 0 48 48;" xml:space="preserve">
<style type="text/css">
	.st0{fill:#FFFFFF;}
</style>
<circle class="st0" cx="24" cy="24" r="23.95"/>
<path d="M33.53,8.95H14.47c-3.04,0-5.52,2.48-5.52,5.52v19.06c0,3.04,2.48,5.52,5.52,5.52h19.06c3.04,0,5.52-2.48,5.52-5.52V14.47
	C39.05,11.43,36.57,8.95,33.53,8.95z M33.53,36.9H18.31c0.57-1.56,1.65-4.16,3.21-6.75l0,0l0,0c0.06-0.1,0.12-0.19,0.17-0.29
	c1.74-2.83,4.48-6.26,7.64-6.56c1.87-0.18,3.74,0.29,5.55,1.39c0.99,0.6,1.7,1.24,2.02,1.56v7.27C36.9,35.39,35.39,36.9,33.53,36.9z
	 M14.47,36.9c-1.86,0-3.37-1.51-3.37-3.37v-3.32c1.26-1.86,2.66-2.99,3.78-3.05c1.12-0.05,2.92,0.94,4.99,2.75
	c-1.51,2.62-2.64,5.34-3.2,6.99H14.47z M19.78,14.48c-1.79,0-3.27-1.39-3.41-3.15h6.82C23.05,13.09,21.58,14.48,19.78,14.48z"/>
</svg>
