<?xml version="1.0" encoding="utf-8"?>
<!-- Generator: Adobe Illustrator 24.0.0, SVG Export Plug-In . SVG Version: 6.00 Build 0)  -->
<svg version="1.1" id="Layer_1" xmlns="http://www.w3.org/2000/svg" xmlns:xlink="http://www.w3.org/1999/xlink" x="0px" y="0px"
	 viewBox="0 0 48 48" style="enable-background:new 0 0 48 48;" xml:space="preserve">
<style type="text/css">
	.st0{fill:#FFFFFF;}
</style>
<circle cx="24" cy="24" r="24"/>
<path class="st0" d="M33.55,8.92h-19.1c-3.05,0-5.53,2.48-5.53,5.53v19.1c0,3.05,2.48,5.53,5.53,5.53h19.1
	c3.05,0,5.53-2.48,5.53-5.53v-19.1C39.08,11.4,36.6,8.92,33.55,8.92z M33.55,36.93H18.3c0.57-1.56,1.65-4.16,3.21-6.76l0,0l0,0
	c0.06-0.1,0.12-0.19,0.18-0.29c1.74-2.83,4.49-6.27,7.66-6.57c1.87-0.18,3.74,0.29,5.56,1.39c0.99,0.6,1.7,1.24,2.02,1.56v7.28
	C36.93,35.41,35.41,36.93,33.55,36.93z M14.45,36.93c-1.86,0-3.38-1.52-3.38-3.38v-3.33c1.26-1.86,2.67-3,3.78-3.05
	c1.12-0.05,2.92,0.95,5,2.75c-1.51,2.62-2.65,5.35-3.2,7H14.45z M19.77,14.46c-1.8,0-3.27-1.39-3.41-3.15h6.83
	C23.05,13.07,21.57,14.46,19.77,14.46z"/>
</svg>
