<?xml version="1.0" encoding="utf-8"?>
<!-- Generator: Adobe Illustrator 24.0.0, SVG Export Plug-In . SVG Version: 6.00 Build 0)  -->
<svg version="1.1" id="Layer_1" xmlns="http://www.w3.org/2000/svg" xmlns:xlink="http://www.w3.org/1999/xlink" x="0px" y="0px"
	 viewBox="0 0 48 48" style="enable-background:new 0 0 48 48;" xml:space="preserve">
<style type="text/css">
	.st0{fill:#FFFFFF;}
</style>
<circle class="st0" cx="24" cy="24" r="24"/>
<path d="M40.64,21.86L27.19,11.1v5.7c-2.17-0.34-11.65-1.38-17.44,5.51c0,0,2.31-1.17,4.17-1.11c0,0-8.57,5.61-6.13,15.69
	c0,0,0.96-7.71,6-10.18c5.04-2.47,7.52-1.59,7.44-0.71c-0.08,0.88-2.11,1.6-3.74,1.16c0,0,2.01,2.12,4.58,1.68
	c2.39-0.41,3.14-2.14,5.11-1.92v5.68L40.64,21.86z"/>
</svg>
