<?xml version="1.0" encoding="utf-8"?>
<!-- Generator: Adobe Illustrator 24.0.0, SVG Export Plug-In . SVG Version: 6.00 Build 0)  -->
<svg version="1.1" xmlns="http://www.w3.org/2000/svg" xmlns:xlink="http://www.w3.org/1999/xlink" x="0px" y="0px"
	 viewBox="0 0 96 96" style="enable-background:new 0 0 96 96;" xml:space="preserve">
<style type="text/css">
	.st0{display:none;}
	.st1{fill:#FFFFFF;}
</style>
<g id="Layer_1" class="st0">
</g>
<g id="Layer_2">
	<g>
		<g>
			<path d="M48,72.59c-12.54,0-24.36-3.08-33.31-8.68C5.33,58.04,0.16,50.09,0.16,41.53S5.33,25.02,14.7,19.15
				c8.94-5.6,20.77-8.68,33.31-8.68s24.36,3.08,33.31,8.68c9.37,5.87,14.53,13.81,14.53,22.38s-5.16,16.51-14.53,22.38
				C72.37,69.51,60.54,72.59,48,72.59z M48,16.38c-11.44,0-22.16,2.76-30.17,7.78C10.25,28.91,6.07,35.08,6.07,41.53
				c0,6.45,4.18,12.62,11.76,17.37c8.01,5.02,18.73,7.78,30.17,7.78s22.16-2.76,30.17-7.78c7.58-4.75,11.76-10.92,11.76-17.37
				c0-6.45-4.18-12.62-11.76-17.37C70.16,19.14,59.45,16.38,48,16.38z"/>
		</g>
		<g>
			<path d="M48,62.95c-9.92,0-19.27-2.18-26.32-6.15c-7.25-4.08-11.24-9.57-11.24-15.46s3.99-11.38,11.24-15.46
				c7.05-3.96,16.4-6.15,26.32-6.15s19.27,2.18,26.32,6.15c7.25,4.08,11.24,9.57,11.24,15.46S81.57,52.72,74.32,56.8
				C67.28,60.76,57.93,62.95,48,62.95z M48,21.95c-9.55,0-18.51,2.08-25.23,5.86c-6.52,3.67-10.11,8.47-10.11,13.53
				s3.59,9.86,10.11,13.53c6.72,3.78,15.68,5.86,25.23,5.86s18.51-2.08,25.23-5.86c6.52-3.67,10.11-8.47,10.11-13.53
				s-3.59-9.86-10.11-13.53C66.52,24.03,57.55,21.95,48,21.95z"/>
		</g>
		<g>
			<path d="M48.06,85.53l-0.17,0C19.28,84.49,7.53,74.11,3.08,68.01c-1.51-2.07-2.35-4.53-2.42-7.13l-0.5-19.28l5.9-0.15l0.5,19.28
				c0.04,1.39,0.48,2.7,1.28,3.8c1.72,2.35,5.05,5.79,11.18,8.81c7.55,3.73,17.3,5.85,28.98,6.28c11.68-0.43,21.42-2.55,28.98-6.28
				c6.12-3.03,9.46-6.46,11.18-8.81c0.8-1.09,1.24-2.41,1.28-3.8l0.5-19.28l5.9,0.15l-0.5,19.28c-0.07,2.6-0.9,5.06-2.42,7.13
				c-4.46,6.09-16.21,16.47-44.81,17.51L48.06,85.53z"/>
		</g>
		<g>
			<path d="M58.11,34.08c-1.91,0.28-3.64,0.83-5.19,1.64c-1.56,0.81-3.42,1.93-5.58,3.35c-2.07,1.4-3.77,2.4-5.1,3
				c-1.34,0.6-2.6,0.72-3.79,0.35c-1.19-0.38-1.82-1.02-1.87-1.94c-0.05-0.91,0.63-2.08,2.05-3.49c1.99-1.98,4.84-3.65,8.51-4.98
				l-4.37-3.5c-1.93,0.61-3.82,1.47-5.66,2.58c-1.14,0.68-2.19,1.42-3.16,2.21l-5.32-1.76l-4.59,4.35l5.68,1.81
				c-0.65,0.95-1.1,1.87-1.33,2.75c-0.46,1.74-0.2,3.24,0.79,4.48c0.98,1.24,2.52,2.17,4.6,2.8c2.36,0.71,4.62,0.88,6.77,0.52
				c2.13-0.36,4.01-0.99,5.64-1.88c1.62-0.88,3.51-2.05,5.66-3.51c1.37-0.94,2.49-1.66,3.38-2.18c0.88-0.51,1.75-0.88,2.61-1.1
				c0.86-0.22,1.66-0.2,2.41,0.05c1.01,0.34,1.53,0.94,1.54,1.8c0.01,0.86-0.61,1.98-1.87,3.37c-1.14,1.26-2.6,2.43-4.38,3.52
				c-1.8,1.1-3.66,1.97-5.58,2.6l4.15,3.5c2.02-0.66,4.09-1.7,6.21-3.11c1.29-0.85,2.46-1.76,3.52-2.73l3.81,1.22l3.62-4.16
				l-3.81-1.26c0.65-1.03,1.07-2.01,1.26-2.93c0.33-1.59,0.07-2.94-0.77-4.08c-0.84-1.14-2.13-2.01-3.88-2.62
				C61.98,34.02,60.01,33.8,58.11,34.08z"/>
		</g>
	</g>
</g>
</svg>
