<?xml version="1.0" encoding="utf-8"?>
<!-- Generator: Adobe Illustrator 24.0.0, SVG Export Plug-In . SVG Version: 6.00 Build 0)  -->
<svg version="1.1" id="Layer_1" xmlns="http://www.w3.org/2000/svg" xmlns:xlink="http://www.w3.org/1999/xlink" x="0px" y="0px"
	 viewBox="0 0 96 96" style="enable-background:new 0 0 96 96;" xml:space="preserve">
<style type="text/css">
	.st0{fill:#FFBB24;}
	.st1{fill:#8799A0;}
	.st2{fill:#FFFFFF;}
</style>
<g>
	<g>
		<g>
			<path class="st2" d="M65.73,49.15c-0.97-2.29-2.36-4.35-4.12-6.12c-1.77-1.77-3.82-3.15-6.12-4.12c-2.37-1-4.89-1.51-7.49-1.51
				s-5.12,0.51-7.49,1.51c-2.29,0.97-4.35,2.36-6.12,4.12c-1.77,1.77-3.15,3.82-4.12,6.12c-1,2.37-1.51,4.89-1.51,7.49
				c0,2.6,0.51,5.12,1.51,7.49c0.97,2.29,2.36,4.35,4.12,6.12c1.77,1.77,3.82,3.15,6.12,4.12c2.37,1,4.89,1.51,7.49,1.51
				c2.6,0,5.12-0.51,7.49-1.51c2.29-0.97,4.35-2.36,6.12-4.12c1.77-1.77,3.15-3.82,4.12-6.12c1-2.37,1.51-4.89,1.51-7.49
				C67.24,54.05,66.73,51.53,65.73,49.15z M64.76,56.64c0,9.24-7.52,16.76-16.76,16.76s-16.76-7.52-16.76-16.76
				c0-9.24,7.52-16.76,16.76-16.76S64.76,47.4,64.76,56.64z"/>
		</g>
		<g>
			<path class="st2" d="M48,41.46c-4.06,0-7.87,1.58-10.74,4.45c-2.87,2.87-4.45,6.68-4.45,10.74s1.58,7.87,4.45,10.74
				c2.87,2.87,6.68,4.45,10.74,4.45c4.06,0,7.87-1.58,10.74-4.45c2.87-2.87,4.45-6.68,4.45-10.74s-1.58-7.87-4.45-10.74
				C55.87,43.04,52.06,41.46,48,41.46z M48,70.46c-7.62,0-13.82-6.2-13.82-13.82c0-7.62,6.2-13.82,13.82-13.82
				c7.62,0,13.82,6.2,13.82,13.82C61.82,64.26,55.62,70.46,48,70.46z"/>
		</g>
		<g>
			<path class="st2" d="M49.82,61.41c-0.14-0.12-0.52-0.41-1.16-0.86c-0.68-0.49-1.09-0.81-1.22-0.96c-0.1-0.11-0.15-0.23-0.15-0.36
				c0-0.13,0.07-0.24,0.21-0.34c0.14-0.1,0.32-0.15,0.54-0.15c0.45,0,0.89,0.26,1.33,0.77l1.24-0.93c-0.46-0.46-0.89-0.77-1.29-0.95
				c-0.4-0.17-0.81-0.26-1.25-0.26c-0.03,0-0.05,0-0.08,0v-0.75h-0.91v0.9c-0.27,0.09-0.51,0.23-0.73,0.4
				c-0.46,0.37-0.7,0.82-0.7,1.33c0,0.36,0.14,0.72,0.42,1.08c0.28,0.36,0.9,0.87,1.85,1.54c0.5,0.35,0.83,0.61,0.97,0.78
				c0.15,0.17,0.22,0.34,0.22,0.51c0,0.19-0.1,0.35-0.29,0.49c-0.2,0.14-0.44,0.21-0.72,0.21c-0.55,0-1.03-0.33-1.46-0.99l-1.4,0.72
				c0.33,0.56,0.73,0.97,1.19,1.23c0.45,0.25,0.98,0.38,1.58,0.39v0.84h0.91v-0.93c0.42-0.09,0.78-0.26,1.09-0.51
				c0.5-0.4,0.75-0.91,0.75-1.52c0-0.32-0.07-0.61-0.21-0.87C50.4,61.99,50.16,61.71,49.82,61.41z"/>
		</g>
		<g>
			<path class="st2" d="M53.72,51.64l-0.94-0.87l0.13,1.28c0.06,0.58,0.07,2.23-0.59,2.83c-0.23,0.21-0.53,0.27-0.93,0.18
				c-0.37-0.08-0.61-0.2-0.71-0.38c-0.24-0.42,0.09-1.34,0.41-2.22c0.32-0.9,0.69-1.93,0.69-2.92c0-1.35-0.49-2.63-1.38-3.59
				c-0.9-0.98-2.13-1.53-3.44-1.55l-0.74-0.01l0.29,0.69c0.03,0.08,0.73,1.86-0.61,4.01c-1.6,2.56-2.2,3.76-2.66,5.67
				c-0.16-0.69-0.23-1.62,0.05-2.7l0.33-1.27l-1.08,0.75c-0.05,0.04-1.25,0.88-2.28,2.59c-0.94,1.57-1.91,4.19-1.17,7.78l0,0.02
				c0.5,1.98,1.6,3.62,3.18,4.76c1.57,1.13,3.57,1.73,5.79,1.73c2.18,0,4.28-0.67,5.91-1.9c1.27-0.95,2.19-2.17,2.68-3.53
				c0.08-0.2,0.62-1.73,0.57-3.81C57.15,57.15,56.5,54.19,53.72,51.64z M56,61.62l-0.02,0c-0.05,0.33-0.13,0.64-0.23,0.95
				c-0.02,0.06-0.03,0.09-0.03,0.09l0,0c-0.99,2.79-4.09,4.78-7.67,4.78c-4.1,0-7.1-2.15-8.02-5.75c-0.54-2.61-0.19-4.98,1.03-7.03
				c0.35-0.59,0.73-1.07,1.06-1.44c-0.09,2.05,0.82,3.39,0.87,3.45l0.67,0.96l0.21-1.15c0.49-2.68,0.81-3.64,2.85-6.9
				c1.08-1.72,1.04-3.28,0.89-4.16c1.84,0.35,3.2,2.04,3.2,4.1c0,0.83-0.32,1.73-0.63,2.6c-0.41,1.14-0.79,2.22-0.34,3.03
				c0.24,0.43,0.7,0.72,1.36,0.86c0.89,0.18,1.46-0.13,1.78-0.42c0.64-0.58,0.86-1.59,0.92-2.4c1.49,1.69,2.27,3.69,2.34,5.96
				C56.25,60.14,56.13,61,56,61.62z"/>
		</g>
	</g>
	<path class="st2" d="M92.68,86.09h-2.17v-1.62c0-3.19-2.59-5.78-5.78-5.78h-0.44v-3.98c0-0.91-0.66-1.67-1.52-1.84l-0.74-34.64
		h5.51c1.31,0,2.37-1.06,2.37-2.37V31.1c1.34-1.04,2.21-2.66,2.21-4.48v-2.24c0-1.35-0.75-2.56-1.95-3.16L48,0.16L5.84,21.23
		c-1.21,0.6-1.95,1.81-1.95,3.16v2.24c0,1.82,0.87,3.44,2.21,4.48v4.76c0,1.31,1.06,2.37,2.37,2.37h5.51l-0.74,34.64
		c-0.87,0.17-1.52,0.93-1.52,1.84v3.98h-0.44c-3.19,0-5.78,2.59-5.78,5.78v1.62H3.32c-1.49,0-2.7,1.21-2.7,2.7v4.35
		c0,1.49,1.21,2.7,2.7,2.7H48h44.68c1.49,0,2.7-1.21,2.7-2.7v-4.35C95.38,87.3,94.17,86.09,92.68,86.09z M6.88,26.62v-2.24
		c0-0.2,0.11-0.39,0.29-0.48L48,3.51l40.82,20.4c0.18,0.09,0.29,0.27,0.29,0.48v2.24c0,1.47-1.2,2.66-2.66,2.66H9.55
		C8.08,29.29,6.88,28.09,6.88,26.62z M9.09,35.23v-2.97c0.15,0.01,0.3,0.02,0.46,0.02h76.91c0.15,0,0.3-0.01,0.46-0.02v2.97H63.85
		H53.56H48h-5.56H32.15H9.09z M81.29,75.84v2.85h-8.91v-2.85H81.29z M73.91,72.84l0.72-34.14h4.41l0.73,34.14H73.91z M64.64,72.41
		l-0.15-7.16c-0.78,1.5-1.77,2.88-2.91,4.1l0.06,3.02h-3.72c-2,1.26-4.25,2.16-6.67,2.58v3.74H48h-3.25v-3.74
		c-2.42-0.43-4.67-1.32-6.67-2.58h-3.72l0.06-3.02c-1.15-1.22-2.13-2.6-2.91-4.1l-0.15,7.16c-0.87,0.17-1.52,0.93-1.52,1.84v4.44
		h-3.22v-3.98c0-0.92-0.66-1.68-1.53-1.84l-0.73-34.64h7.73l-0.19,9.12c0.85-1.46,1.89-2.8,3.09-3.98l0.11-5.14h4.41l0.04,1.85
		c0.95-0.49,1.94-0.9,2.98-1.21l-0.01-0.64h2.87c0.86-0.12,1.73-0.19,2.62-0.19c0.89,0,1.77,0.07,2.62,0.19h2.87l-0.01,0.63
		c1.03,0.32,2.03,0.73,2.98,1.21l0.04-1.85h4.41l0.11,5.13c1.2,1.18,2.24,2.51,3.09,3.98l-0.19-9.11h7.73l-0.73,34.64
		c-0.87,0.16-1.53,0.92-1.53,1.84v3.98h-3.22v-4.44C66.16,73.33,65.5,72.57,64.64,72.41z M63.16,75.37v3.32h-8.91v-3.32H63.16z
		 M41.75,75.37v3.32h-8.91v-3.32H41.75z M23.62,75.84v2.85h-8.91v-2.85H23.62z M16.23,72.84l0.73-34.14h4.41l0.72,34.14H16.23z
		 M8.49,84.47c0-1.53,1.25-2.78,2.78-2.78H48h36.73c1.53,0,2.78,1.25,2.78,2.78v1.62H48H8.49V84.47z M92.38,92.84H48H3.62v-3.74
		h1.87H48h42.51h1.87V92.84z"/>
</g>
</svg>
