<?xml version="1.0" encoding="utf-8"?>
<!-- Generator: Adobe Illustrator 24.0.0, SVG Export Plug-In . SVG Version: 6.00 Build 0)  -->
<svg version="1.1" id="Layer_1" xmlns="http://www.w3.org/2000/svg" xmlns:xlink="http://www.w3.org/1999/xlink" x="0px" y="0px"
	 viewBox="0 0 96 96" style="enable-background:new 0 0 96 96;" xml:space="preserve">
<style type="text/css">
	.st0{fill:#FFBB24;}
	.st1{fill:#8799A0;}
	.st2{fill:#FFFFFF;}
</style>
<g>
	<g>
		<g>
			<path d="M65.6,49.15c-0.96-2.27-2.34-4.32-4.09-6.07c-1.75-1.75-3.8-3.13-6.07-4.09c-2.36-1-4.86-1.5-7.43-1.5
				s-5.08,0.51-7.43,1.5c-2.27,0.96-4.32,2.34-6.07,4.09c-1.75,1.75-3.13,3.8-4.09,6.07c-1,2.36-1.5,4.86-1.5,7.43
				c0,2.58,0.51,5.08,1.5,7.43c0.96,2.27,2.34,4.32,4.09,6.07c1.75,1.75,3.8,3.13,6.07,4.09c2.36,1,4.86,1.5,7.43,1.5
				c2.58,0,5.08-0.51,7.43-1.5c2.27-0.96,4.32-2.34,6.07-4.09c1.75-1.75,3.13-3.8,4.09-6.07c1-2.36,1.5-4.86,1.5-7.43
				C67.1,54,66.59,51.5,65.6,49.15z M64.63,56.58c0,9.17-7.46,16.63-16.63,16.63s-16.63-7.46-16.63-16.63
				c0-9.17,7.46-16.63,16.63-16.63S64.63,47.41,64.63,56.58z"/>
		</g>
		<g>
			<path d="M48,41.51c-4.03,0-7.81,1.57-10.66,4.41c-2.85,2.85-4.41,6.63-4.41,10.66s1.57,7.81,4.41,10.66
				c2.85,2.85,6.63,4.41,10.66,4.41c4.03,0,7.81-1.57,10.66-4.41c2.85-2.85,4.41-6.63,4.41-10.66s-1.57-7.81-4.41-10.66
				C55.81,43.08,52.03,41.51,48,41.51z M48,70.3c-7.56,0-13.72-6.15-13.72-13.72c0-7.56,6.15-13.72,13.72-13.72
				c7.56,0,13.72,6.15,13.72,13.72C61.72,64.14,55.56,70.3,48,70.3z"/>
		</g>
		<g>
			<path d="M49.81,61.31c-0.13-0.12-0.52-0.4-1.15-0.85c-0.68-0.49-1.08-0.81-1.21-0.95c-0.1-0.11-0.15-0.23-0.15-0.35
				c0-0.12,0.07-0.24,0.21-0.34c0.14-0.1,0.32-0.15,0.53-0.15c0.45,0,0.88,0.26,1.32,0.77l1.23-0.92c-0.46-0.45-0.88-0.77-1.28-0.94
				c-0.39-0.17-0.81-0.26-1.24-0.26c-0.03,0-0.05,0-0.08,0v-0.74h-0.9v0.89c-0.26,0.09-0.51,0.22-0.72,0.4
				c-0.46,0.37-0.69,0.81-0.69,1.32c0,0.36,0.14,0.71,0.41,1.07c0.28,0.36,0.89,0.87,1.84,1.53c0.5,0.35,0.82,0.6,0.97,0.77
				c0.15,0.17,0.22,0.34,0.22,0.5c0,0.19-0.1,0.35-0.29,0.49c-0.19,0.14-0.43,0.21-0.72,0.21c-0.54,0-1.03-0.33-1.45-0.98
				l-1.39,0.72c0.33,0.56,0.72,0.96,1.18,1.22c0.45,0.25,0.97,0.38,1.57,0.39v0.83h0.9v-0.92c0.42-0.09,0.78-0.26,1.08-0.51
				c0.49-0.4,0.74-0.9,0.74-1.51c0-0.31-0.07-0.6-0.21-0.87C50.38,61.88,50.15,61.6,49.81,61.31z"/>
		</g>
		<g>
			<path d="M53.67,51.61l-0.94-0.86l0.13,1.27c0.06,0.58,0.07,2.21-0.59,2.81c-0.23,0.2-0.53,0.26-0.93,0.18
				c-0.37-0.07-0.6-0.2-0.7-0.38c-0.23-0.41,0.09-1.33,0.41-2.21c0.32-0.9,0.68-1.91,0.68-2.9c0-1.34-0.48-2.61-1.37-3.56
				c-0.9-0.97-2.11-1.52-3.42-1.54l-0.74-0.01l0.28,0.68c0.03,0.07,0.72,1.85-0.61,3.98c-1.59,2.54-2.18,3.74-2.64,5.63
				c-0.16-0.69-0.23-1.61,0.04-2.68l0.33-1.26l-1.07,0.74c-0.05,0.04-1.25,0.88-2.27,2.57c-0.94,1.56-1.9,4.16-1.16,7.72l0,0.02
				c0.5,1.96,1.59,3.6,3.16,4.73c1.56,1.12,3.54,1.71,5.74,1.71c2.16,0,4.25-0.67,5.87-1.88c1.26-0.94,2.18-2.16,2.66-3.51
				c0.08-0.2,0.61-1.72,0.56-3.78C57.08,57.08,56.44,54.15,53.67,51.61z M55.94,61.52l-0.02,0c-0.05,0.32-0.13,0.64-0.23,0.94
				c-0.02,0.06-0.03,0.09-0.03,0.09l0,0c-0.98,2.77-4.06,4.75-7.62,4.75c-4.07,0-7.05-2.13-7.96-5.7c-0.53-2.59-0.19-4.94,1.02-6.98
				c0.35-0.59,0.73-1.06,1.06-1.43c-0.09,2.03,0.81,3.36,0.86,3.43l0.66,0.95l0.21-1.14c0.49-2.66,0.81-3.61,2.83-6.85
				c1.07-1.71,1.03-3.26,0.88-4.13c1.83,0.35,3.18,2.02,3.18,4.07c0,0.82-0.32,1.71-0.63,2.58c-0.4,1.14-0.79,2.21-0.34,3.01
				c0.24,0.43,0.7,0.72,1.35,0.85c0.89,0.18,1.45-0.13,1.77-0.42c0.64-0.58,0.85-1.58,0.91-2.38c1.48,1.68,2.26,3.67,2.32,5.92
				C56.19,60.05,56.07,60.9,55.94,61.52z"/>
		</g>
	</g>
	<path d="M92.35,85.81H90.2V84.2c0-3.16-2.57-5.74-5.74-5.74h-0.44v-3.95c0-0.91-0.65-1.66-1.51-1.83l-0.73-34.38h5.46
		c1.3,0,2.35-1.05,2.35-2.35v-4.73c1.33-1.03,2.19-2.64,2.19-4.45v-2.22c0-1.34-0.74-2.54-1.94-3.14L48,0.52L6.15,21.43
		c-1.2,0.6-1.94,1.8-1.94,3.14v2.22c0,1.81,0.86,3.42,2.19,4.44v4.73c0,1.3,1.05,2.35,2.35,2.35h5.46l-0.73,34.38
		c-0.86,0.16-1.51,0.92-1.51,1.83v3.95h-0.44c-3.16,0-5.74,2.57-5.74,5.74v1.61H3.65c-1.48,0-2.68,1.2-2.68,2.68v4.32
		c0,1.48,1.2,2.68,2.68,2.68H48h44.35c1.48,0,2.68-1.2,2.68-2.68v-4.32C95.03,87.01,93.83,85.81,92.35,85.81z M7.19,26.78v-2.22
		c0-0.2,0.11-0.38,0.29-0.47L48,3.85l40.52,20.24c0.18,0.09,0.29,0.27,0.29,0.47v2.22c0,1.46-1.19,2.64-2.64,2.64H9.83
		C8.38,29.43,7.19,28.24,7.19,26.78z M9.38,35.33v-2.95c0.15,0.01,0.3,0.02,0.45,0.02h76.33c0.15,0,0.3-0.01,0.45-0.02v2.95H63.73
		H53.52H48h-5.52H32.27H9.38z M81.04,75.63v2.83H72.2v-2.83H81.04z M73.72,72.65l0.71-33.88h4.38l0.72,33.88H73.72z M64.51,72.23
		l-0.15-7.1c-0.78,1.49-1.75,2.86-2.89,4.07l0.06,3h-3.69c-1.98,1.25-4.22,2.14-6.62,2.56v3.71H48h-3.22v-3.71
		c-2.4-0.42-4.64-1.31-6.62-2.56h-3.69l0.06-3c-1.14-1.22-2.11-2.58-2.89-4.07l-0.15,7.11c-0.86,0.16-1.51,0.92-1.51,1.83v4.41h-3.2
		v-3.95c0-0.91-0.66-1.66-1.52-1.83l-0.72-34.38h7.67l-0.19,9.05c0.84-1.45,1.87-2.78,3.06-3.95l0.11-5.1h4.38l0.04,1.84
		c0.94-0.48,1.93-0.89,2.95-1.21l-0.01-0.63h2.85c0.85-0.12,1.72-0.19,2.61-0.19s1.75,0.07,2.61,0.19h2.85l-0.01,0.63
		c1.03,0.32,2.01,0.72,2.95,1.2l0.04-1.83h4.38l0.11,5.1c1.19,1.17,2.22,2.5,3.06,3.95l-0.19-9.04h7.67l-0.72,34.38
		c-0.86,0.16-1.52,0.92-1.52,1.83v3.95h-3.2v-4.41C66.02,73.15,65.37,72.39,64.51,72.23z M63.05,75.17v3.29H54.2v-3.29H63.05z
		 M41.8,75.17v3.29h-8.84v-3.29H41.8z M23.8,75.63v2.83h-8.84v-2.83H23.8z M16.47,72.65l0.72-33.88h4.38l0.71,33.88H16.47z
		 M8.78,84.2c0-1.52,1.24-2.76,2.76-2.76H48h36.46c1.52,0,2.76,1.24,2.76,2.76v1.61H48H8.78V84.2z M92.05,92.51H48H3.95v-3.72H5.8
		H48h42.2h1.85V92.51z"/>
</g>
</svg>
