<?xml version="1.0" encoding="utf-8"?>
<!-- Generator: Adobe Illustrator 24.0.0, SVG Export Plug-In . SVG Version: 6.00 Build 0)  -->
<svg version="1.1" id="Layer_1" xmlns="http://www.w3.org/2000/svg" xmlns:xlink="http://www.w3.org/1999/xlink" x="0px" y="0px"
	 viewBox="0 0 96 96" style="enable-background:new 0 0 96 96;" xml:space="preserve">
<style type="text/css">
	.st0{fill:#FFBB24;}
	.st1{fill:#8799A0;}
	.st2{fill:#FFFFFF;}
</style>
<g>
	<circle cx="48" cy="48" r="47.72"/>
	<g>
		<g>
			<path class="st0" d="M48,29.9H21.02c-1.61,0-2.92-1.31-2.92-2.92v-1.57c0-0.54,0.31-1.03,0.79-1.28L48,9.59l29.11,14.55
				c0.48,0.24,0.79,0.74,0.79,1.28v1.57c0,1.61-1.31,2.92-2.92,2.92H48"/>
		</g>
		<g>
			<rect x="19.65" y="29.9" class="st1" width="56.62" height="3.87"/>
		</g>
		<g>
			<rect x="64.1" y="60.46" class="st0" width="8.05" height="3.78"/>
		</g>
		<g>
			<rect x="51.49" y="60.58" class="st0" width="8.05" height="3.78"/>
		</g>
		<g>
			<rect x="36.62" y="60.46" class="st0" width="8.05" height="3.78"/>
		</g>
		<g>
			<rect x="23.74" y="60.62" class="st0" width="8.05" height="3.78"/>
		</g>
		<g>
			<path class="st0" d="M76.48,69.52H19.51v0c0-2.43,1.97-4.39,4.39-4.39h48.19C74.52,65.12,76.48,67.09,76.48,69.52L76.48,69.52z"
				/>
		</g>
		<g>
			<rect x="15.81" y="69.76" class="st0" width="64.38" height="4.73"/>
		</g>
		<g>
			<rect x="65.65" y="34.4" class="st1" width="5.26" height="25.63"/>
		</g>
		<g>
			<rect x="52.74" y="33.77" class="st1" width="5.76" height="26.36"/>
		</g>
		<g>
			<rect x="38.07" y="33.77" class="st1" width="5.55" height="26.26"/>
		</g>
		<g>
			<rect x="25.17" y="34.07" class="st1" width="5.72" height="26.06"/>
		</g>
		<g>
			<path d="M75.74,35.13H48v-2.1h27.3v-3.46h2.1v3.9C77.4,34.38,76.66,35.13,75.74,35.13z"/>
		</g>
		<g>
			<path d="M73.46,64.57h-2.1v-3.05h-6.25v3.05H63v-3.84c0-0.73,0.59-1.32,1.32-1.32h7.83c0.73,0,1.32,0.59,1.32,1.32V64.57z"/>
		</g>
		<g>
			<polygon points="66.15,60.72 64.05,60.68 64.62,33.35 71.84,33.35 72.42,60.44 70.31,60.48 69.78,35.45 66.69,35.45 			"/>
		</g>
		<g>
			<path d="M60.74,64.24h-2.1v-3.05h-6.25v3.05h-2.1V60.4c0-0.73,0.59-1.32,1.32-1.32h7.83c0.73,0,1.32,0.59,1.32,1.32V64.24z"/>
		</g>
		<g>
			<polygon points="53.43,60.4 51.33,60.35 51.9,33.02 59.12,33.02 59.7,60.11 57.59,60.16 57.06,35.13 53.96,35.13 			"/>
		</g>
		<g>
			<path d="M77.83,70.81H48v-2.1h27.73v-1.14c0-1.08-0.88-1.95-1.95-1.95H48v-2.1h25.77c2.24,0,4.06,1.82,4.06,4.06V70.81z"/>
		</g>
		<g>
			<path d="M79.35,75.55H48v-2.1h31.14v-2.63H48v-2.1h31.35c1.04,0,1.89,0.85,1.89,1.89v3.05C81.24,74.7,80.39,75.55,79.35,75.55z"
				/>
		</g>
		<g>
			<path d="M74.98,30.96H21.02c-2.19,0-3.97-1.78-3.97-3.97v-1.57c0-0.95,0.53-1.8,1.37-2.22L48,8.41l29.58,14.78
				c0.85,0.42,1.37,1.27,1.37,2.22v1.57C78.95,29.17,77.17,30.96,74.98,30.96z M48,10.77L19.36,25.08
				c-0.13,0.06-0.21,0.19-0.21,0.33v1.57c0,1.03,0.84,1.87,1.87,1.87h53.96c1.03,0,1.87-0.84,1.87-1.87v-1.57
				c0-0.14-0.08-0.27-0.21-0.33L48,10.77z"/>
		</g>
		<g>
			<path d="M48,35.13H20.26c-0.92,0-1.66-0.75-1.66-1.66v-3.9h2.1v3.46H48V35.13z"/>
		</g>
		<g>
			<path d="M33,64.57h-2.1v-3.05h-6.25v3.05h-2.1v-3.84c0-0.73,0.59-1.32,1.32-1.32h7.83c0.73,0,1.32,0.59,1.32,1.32V64.57z"/>
		</g>
		<g>
			<polygon points="29.85,60.72 29.31,35.45 26.22,35.45 25.69,60.48 23.58,60.44 24.16,33.35 31.38,33.35 31.95,60.68 			"/>
		</g>
		<g>
			<path d="M45.72,64.24h-2.1v-3.05h-6.25v3.05h-2.1V60.4c0-0.73,0.59-1.32,1.32-1.32h7.83c0.73,0,1.32,0.59,1.32,1.32V64.24z"/>
		</g>
		<g>
			<polygon points="42.57,60.4 42.04,35.13 38.94,35.13 38.41,60.16 36.3,60.11 36.88,33.02 44.1,33.02 44.67,60.35 			"/>
		</g>
		<g>
			<path d="M48,70.81H18.17v-3.24c0-2.24,1.82-4.06,4.06-4.06H48v2.1H22.23c-1.08,0-1.95,0.88-1.95,1.95v1.14H48V70.81z"/>
		</g>
		<g>
			<path d="M48,75.55H16.65c-1.04,0-1.89-0.85-1.89-1.89V70.6c0-1.04,0.85-1.89,1.89-1.89H48v2.1H16.86v2.63H48V75.55z"/>
		</g>
		<g>
			<g>
				<circle class="st0" cx="48" cy="48.04" r="12.49"/>
			</g>
			<g>
				<path d="M60.44,42.79c-0.68-1.61-1.65-3.05-2.89-4.29c-1.24-1.24-2.68-2.21-4.29-2.89c-1.67-0.7-3.43-1.06-5.26-1.06
					c-1.82,0-3.59,0.36-5.26,1.06c-1.61,0.68-3.05,1.65-4.29,2.89c-1.24,1.24-2.21,2.68-2.89,4.29c-0.7,1.67-1.06,3.43-1.06,5.26
					c0,1.82,0.36,3.59,1.06,5.26c0.68,1.61,1.65,3.05,2.89,4.29c1.24,1.24,2.68,2.21,4.29,2.89c1.67,0.7,3.43,1.06,5.26,1.06
					c1.82,0,3.59-0.36,5.26-1.06c1.61-0.68,3.05-1.65,4.29-2.89c1.24-1.24,2.21-2.68,2.89-4.29c0.7-1.66,1.06-3.43,1.06-5.26
					C61.5,46.22,61.14,44.45,60.44,42.79z M59.76,48.04c0,6.48-5.27,11.76-11.76,11.76s-11.76-5.27-11.76-11.76
					c0-6.48,5.27-11.76,11.76-11.76S59.76,41.56,59.76,48.04z"/>
			</g>
			<g>
				<path d="M48,37.39c-2.85,0-5.52,1.11-7.53,3.12c-2.01,2.01-3.12,4.69-3.12,7.53c0,2.85,1.11,5.52,3.12,7.53
					c2.01,2.01,4.69,3.12,7.53,3.12c2.85,0,5.52-1.11,7.53-3.12c2.01-2.01,3.12-4.69,3.12-7.53c0-2.85-1.11-5.52-3.12-7.53
					C53.52,38.5,50.85,37.39,48,37.39z M48,57.74c-5.35,0-9.7-4.35-9.7-9.7c0-5.35,4.35-9.7,9.7-9.7c5.35,0,9.7,4.35,9.7,9.7
					C57.7,53.39,53.35,57.74,48,57.74z"/>
			</g>
			<g>
				<path d="M49.28,51.39c-0.1-0.08-0.37-0.28-0.81-0.6c-0.48-0.34-0.76-0.57-0.86-0.67c-0.07-0.08-0.1-0.16-0.1-0.25
					c0-0.09,0.05-0.17,0.15-0.24c0.1-0.07,0.22-0.11,0.38-0.11c0.32,0,0.63,0.18,0.93,0.54l0.87-0.65c-0.32-0.32-0.62-0.54-0.9-0.66
					c-0.28-0.12-0.57-0.18-0.88-0.18c-0.02,0-0.04,0-0.06,0v-0.52h-0.64v0.63c-0.19,0.06-0.36,0.16-0.51,0.28
					c-0.33,0.26-0.49,0.57-0.49,0.94c0,0.25,0.1,0.5,0.29,0.76c0.2,0.25,0.63,0.61,1.3,1.08c0.35,0.24,0.58,0.43,0.68,0.55
					c0.1,0.12,0.15,0.24,0.15,0.36c0,0.13-0.07,0.25-0.21,0.35c-0.14,0.1-0.31,0.15-0.51,0.15c-0.39,0-0.73-0.23-1.02-0.7
					l-0.98,0.51c0.23,0.39,0.51,0.68,0.84,0.86c0.32,0.18,0.69,0.27,1.11,0.27v0.59h0.64v-0.65c0.29-0.07,0.55-0.19,0.76-0.36
					c0.35-0.28,0.52-0.64,0.52-1.07c0-0.22-0.05-0.43-0.15-0.61C49.69,51.79,49.52,51.6,49.28,51.39z"/>
			</g>
			<g>
				<path d="M52.01,44.53l-0.66-0.61l0.09,0.9c0.04,0.41,0.05,1.57-0.41,1.99c-0.16,0.14-0.37,0.19-0.66,0.13
					c-0.26-0.05-0.43-0.14-0.5-0.27c-0.17-0.29,0.06-0.94,0.29-1.56c0.23-0.63,0.48-1.35,0.48-2.05c0-0.95-0.34-1.84-0.97-2.52
					c-0.63-0.69-1.49-1.07-2.42-1.09l-0.52-0.01l0.2,0.48c0.02,0.05,0.51,1.31-0.43,2.82c-1.12,1.8-1.54,2.64-1.86,3.98
					c-0.12-0.49-0.16-1.13,0.03-1.89l0.23-0.89l-0.76,0.53c-0.04,0.02-0.88,0.62-1.6,1.82c-0.66,1.1-1.34,2.94-0.82,5.46l0,0.01
					c0.35,1.39,1.12,2.54,2.23,3.34c1.1,0.79,2.5,1.21,4.06,1.21c1.53,0,3-0.47,4.15-1.33c0.89-0.67,1.54-1.53,1.88-2.48
					c0.05-0.14,0.43-1.21,0.4-2.67C54.42,48.4,53.97,46.33,52.01,44.53z M53.61,51.53l-0.01,0c-0.04,0.23-0.09,0.45-0.16,0.67
					c-0.01,0.04-0.02,0.06-0.02,0.06l0,0c-0.69,1.96-2.87,3.36-5.38,3.36c-2.88,0-4.98-1.51-5.63-4.03
					c-0.38-1.83-0.13-3.49,0.72-4.94c0.25-0.41,0.51-0.75,0.75-1.01c-0.06,1.44,0.58,2.38,0.61,2.42l0.47,0.67l0.15-0.81
					c0.34-1.88,0.57-2.55,2-4.84c0.75-1.21,0.73-2.3,0.62-2.92c1.29,0.25,2.25,1.43,2.25,2.88c0,0.58-0.23,1.21-0.44,1.82
					c-0.29,0.8-0.56,1.56-0.24,2.13c0.17,0.3,0.49,0.51,0.95,0.6c0.63,0.13,1.03-0.09,1.25-0.29c0.45-0.41,0.6-1.11,0.64-1.68
					c1.04,1.19,1.59,2.59,1.64,4.18C53.79,50.5,53.7,51.1,53.61,51.53z"/>
			</g>
		</g>
	</g>
</g>
</svg>
