<?xml version="1.0" encoding="utf-8"?>
<!-- Generator: Adobe Illustrator 24.0.0, SVG Export Plug-In . SVG Version: 6.00 Build 0)  -->
<svg version="1.1" id="Layer_1" xmlns="http://www.w3.org/2000/svg" xmlns:xlink="http://www.w3.org/1999/xlink" x="0px" y="0px"
	 viewBox="0 0 96 96" style="enable-background:new 0 0 96 96;" xml:space="preserve">
<style type="text/css">
	.st0{fill:#FFFFFF;}
</style>
<g>
	<circle cx="48" cy="48" r="47.82"/>
	<g>
		<path class="st0" d="M81.82,33.71c-1.85-4.37-4.49-8.3-7.86-11.67c-3.37-3.37-7.29-6.02-11.67-7.86
			C57.76,12.27,52.95,11.3,48,11.3s-9.76,0.97-14.29,2.89c-4.37,1.85-8.3,4.49-11.67,7.86c-3.37,3.37-6.02,7.3-7.86,11.67
			C12.27,38.24,11.3,43.05,11.3,48c0,4.95,0.97,9.76,2.89,14.29c1.85,4.37,4.49,8.3,7.86,11.67c3.37,3.37,7.29,6.02,11.67,7.86
			c4.53,1.91,9.33,2.89,14.29,2.89c4.95,0,9.76-0.97,14.29-2.89c4.37-1.85,8.3-4.49,11.67-7.86c3.37-3.37,6.02-7.29,7.86-11.67
			c1.91-4.53,2.89-9.33,2.89-14.29C84.7,43.05,83.73,38.24,81.82,33.71z M79.96,48c0,17.62-14.34,31.96-31.96,31.96
			S16.04,65.62,16.04,48c0-17.62,14.34-31.96,31.96-31.96S79.96,30.38,79.96,48z"/>
		<path class="st0" d="M48,19.04c-7.74,0-15.01,3.01-20.48,8.48c-5.47,5.47-8.48,12.74-8.48,20.48s3.01,15.01,8.48,20.48
			c5.47,5.47,12.74,8.48,20.48,8.48c7.74,0,15.01-3.01,20.48-8.48c5.47-5.47,8.48-12.74,8.48-20.48s-3.01-15.01-8.48-20.48
			C63.01,22.05,55.74,19.04,48,19.04z M48,74.36c-14.54,0-26.36-11.83-26.36-26.36c0-14.54,11.83-26.36,26.36-26.36
			c14.54,0,26.36,11.83,26.36,26.36C74.36,62.54,62.54,74.36,48,74.36z"/>
		<path class="st0" d="M51.48,57.1c-0.26-0.23-0.99-0.77-2.21-1.64c-1.3-0.94-2.08-1.55-2.33-1.83c-0.19-0.21-0.28-0.44-0.28-0.68
			c0-0.24,0.13-0.45,0.4-0.64c0.27-0.19,0.61-0.29,1.02-0.29c0.86,0,1.7,0.49,2.53,1.47l2.36-1.78c-0.88-0.87-1.7-1.47-2.45-1.8
			c-0.75-0.33-1.55-0.49-2.38-0.49c-0.05,0-0.1,0-0.15,0V48h-1.73v1.72c-0.51,0.18-0.97,0.43-1.39,0.76
			c-0.88,0.71-1.33,1.56-1.33,2.55c0,0.69,0.27,1.37,0.8,2.06c0.53,0.69,1.71,1.67,3.53,2.93c0.96,0.67,1.58,1.16,1.86,1.48
			c0.28,0.32,0.42,0.65,0.42,0.97c0,0.36-0.19,0.67-0.56,0.94c-0.37,0.27-0.83,0.41-1.38,0.41c-1.05,0-1.97-0.63-2.78-1.89
			l-2.68,1.38c0.63,1.07,1.39,1.85,2.27,2.35c0.86,0.48,1.86,0.73,3.02,0.75V66h1.73v-1.77c0.8-0.18,1.49-0.5,2.08-0.97
			c0.95-0.76,1.42-1.73,1.42-2.9c0-0.6-0.13-1.16-0.4-1.66C52.58,58.19,52.13,57.66,51.48,57.1z"/>
		<path class="st0" d="M58.91,38.45l-1.8-1.65l0.25,2.43c0.11,1.11,0.14,4.26-1.13,5.4c-0.43,0.39-1.02,0.51-1.78,0.35
			c-0.7-0.14-1.16-0.39-1.35-0.72c-0.45-0.8,0.18-2.55,0.78-4.24c0.62-1.72,1.31-3.68,1.31-5.58c0-2.58-0.93-5.01-2.62-6.85
			c-1.72-1.87-4.05-2.92-6.57-2.96l-1.42-0.03l0.54,1.31c0.06,0.14,1.39,3.56-1.17,7.65c-3.05,4.89-4.2,7.18-5.07,10.82
			c-0.31-1.32-0.45-3.09,0.09-5.14l0.63-2.43l-2.06,1.43c-0.1,0.07-2.39,1.69-4.35,4.94c-1.8,2.99-3.65,7.99-2.23,14.84l0.01,0.04
			c0.96,3.77,3.06,6.91,6.06,9.08c2.99,2.16,6.81,3.3,11.04,3.3c4.16,0,8.16-1.28,11.28-3.62c2.42-1.81,4.18-4.15,5.1-6.74
			c0.15-0.39,1.18-3.3,1.08-7.27C65.45,48.96,64.22,43.33,58.91,38.45z M63.26,57.49l-0.04-0.01c-0.1,0.62-0.24,1.23-0.44,1.82
			c-0.04,0.11-0.06,0.16-0.06,0.17l0,0c-1.89,5.32-7.81,9.13-14.64,9.13c-7.83,0-13.55-4.1-15.3-10.96
			c-1.03-4.99-0.37-9.5,1.97-13.42c0.67-1.13,1.39-2.04,2.03-2.74c-0.17,3.91,1.57,6.46,1.66,6.59l1.27,1.83l0.4-2.2
			c0.94-5.11,1.55-6.94,5.43-13.16c2.05-3.29,1.99-6.26,1.69-7.93c3.51,0.67,6.11,3.89,6.11,7.82c0,1.58-0.61,3.29-1.2,4.95
			c-0.78,2.18-1.51,4.24-0.65,5.78c0.47,0.83,1.34,1.38,2.6,1.63c1.7,0.35,2.79-0.24,3.4-0.8c1.23-1.11,1.64-3.03,1.75-4.58
			c2.84,3.23,4.33,7.05,4.46,11.37C63.73,54.68,63.5,56.31,63.26,57.49z"/>
	</g>
</g>
</svg>
