<?xml version="1.0" encoding="utf-8"?>
<!-- Generator: Adobe Illustrator 24.0.0, SVG Export Plug-In . SVG Version: 6.00 Build 0)  -->
<svg version="1.1" id="Layer_1" xmlns="http://www.w3.org/2000/svg" xmlns:xlink="http://www.w3.org/1999/xlink" x="0px" y="0px"
	 viewBox="0 0 96 96" style="enable-background:new 0 0 96 96;" xml:space="preserve">
<style type="text/css">
	.st0{fill:#FFFFFF;}
</style>
<g>
	<path d="M83.32,36.39v-6.91c0-3.88-1.16-7.55-3.35-10.63c-2.41-3.39-5.74-5.57-9.63-6.31l-4.96-0.93l1.51,4.81
		c0.89,2.83,1.73,8.22,0.22,10.67c-0.44,0.71-1.04,1.09-2.01,1.24c-2.11,0.34-3.56-0.08-4.29-1.26c-1.19-1.93-0.57-5.4,1.49-8.27
		c2.98-4.16,3.37-9.02,1.02-13C61,1.86,56.46-0.23,51.48,0.36L47.7,0.81l1.28,3.58c0.58,1.62,1.46,5.75,0.26,7.48
		c-0.16,0.23-0.65,0.94-2.62,0.98c-0.05,0-0.09,0-0.11,0c0,0,0,0,0,0c-0.46-0.49-0.78-2.39-0.65-3.89l0.44-4.92l-4.58,1.84
		C41.38,6,33.14,9.38,31.7,16.57c-0.68,3.41-0.24,5.95,0.12,8c0.31,1.75,0.4,2.51,0.1,3.23c-0.18,0.12-0.86,0.26-1.66-0.09
		c-1.89-0.83-3.04-3.72-0.6-9.33l2.27-5.22l-5.59,1.04c-0.36,0.07-8.78,1.72-12.33,10.5c-0.88,2.17-1.33,4.51-1.33,6.96v4.74
		l-8.43,8.28v43.39c0,4.24,3.45,7.68,7.68,7.68h72.13c4.24,0,7.68-3.45,7.68-7.68V44.67L83.32,36.39z M21.92,54.91
		c4.52,2.23,8.13,4,10.72,5.27c0.85,0.41,1.6,0.77,2.23,1.08L9.29,84.84V48.65C12.26,50.13,17.11,52.53,21.92,54.91z M11.08,45.04
		l2.6-2.57v3.86C12.81,45.89,11.93,45.46,11.08,45.04z M28.23,32.32c1.5,0.66,3.14,0.83,4.63,0.47c1.68-0.4,3.01-1.45,3.65-2.9
		c0.98-2.21,0.63-4.24,0.28-6.21c-0.32-1.79-0.64-3.65-0.15-6.13c0.5-2.51,2.59-4.39,4.34-5.57c0.23,1.47,0.75,3.1,1.84,4.28
		c1.01,1.08,2.35,1.64,3.9,1.62c3.77-0.07,5.71-1.75,6.68-3.16c1.93-2.81,1.62-6.71,1.08-9.31c1.95,0.32,3.55,1.35,4.5,2.96
		c1.3,2.21,1.01,5.01-0.77,7.5c-3.29,4.59-3.97,10.16-1.67,13.86c1.82,2.94,5.24,4.25,9.38,3.58c2.39-0.39,4.29-1.62,5.49-3.58
		c1.41-2.29,1.87-5.51,1.38-9.59c-0.06-0.51-0.13-1-0.21-1.46c1.25,0.74,2.35,1.77,3.29,3.09c1.58,2.22,2.41,4.89,2.41,7.71v18.85
		c-8.55,4.24-17.32,8.56-20.34,9.97l-0.88-0.81c-2.47-2.28-5.69-3.54-9.05-3.54c0,0-0.01,0-0.01,0c-3.36,0-6.58,1.26-9.05,3.54
		l-0.88,0.81c-3.02-1.41-11.79-5.73-20.35-9.97V31.64c0-1.79,0.32-3.49,0.96-5.06c1.2-2.97,3.18-4.8,4.94-5.89
		C22.24,27.07,24.99,30.89,28.23,32.32z M58.9,59.19L58.9,59.19L58.9,59.19C58.9,59.19,58.9,59.19,58.9,59.19z M37.11,59.19
		L37.11,59.19L37.11,59.19C37.11,59.19,37.11,59.19,37.11,59.19z M41.68,60.46c1.73-1.59,3.97-2.47,6.32-2.47
		c2.35,0,4.6,0.88,6.32,2.47l1.84,1.7v0c0,0,0,0,0,0l29.92,27.6c-0.49,0.58-1.21,0.95-2.02,0.95H48h0H11.94
		c-0.81,0-1.54-0.37-2.02-0.94L41.68,60.46z M86.71,84.84L61.13,61.25c0.64-0.31,1.38-0.67,2.23-1.08c2.6-1.26,6.21-3.03,10.72-5.27
		c4.81-2.38,9.65-4.78,12.62-6.25V84.84z M82.31,46.33v-3.86l2.61,2.57C84.07,45.46,83.2,45.89,82.31,46.33z"/>
	<path d="M47.15,51.34c6.11,0.82,9.46-3.45,9.46-3.45l-1.39-1.38c-1.32,1.53-6.17,4.21-10.46,1.97c-4.28-2.24-4.09-7.81-1.95-11.16
		c2.14-3.35,7.39-4.73,10.19-2.46c2.81,2.27,2.72,5.17,1.56,7.68c-1.16,2.51-3.64,2.55-3.34,0.52c0.21-1.44,1.81-6.64,1.81-6.64
		L51,36.3c-0.16,0.5-0.32,0.98-0.47,1.47c-0.9-1.65-2.77-2.36-4.95-0.93c-2.78,1.82-3.53,7.05-1.23,8.88c1.94,1.55,4.25,0.4,4.92,0
		c0.09,0.23,0.23,0.41,0.41,0.51c1.28,0.71,6.52,0.51,7.31-5.37c0.74-5.5-2.76-9.49-8.86-9.11c-6.51,0.41-9.01,7.15-8.97,10.72
		C39.2,46.07,40.54,50.45,47.15,51.34z M49.21,43.05c-0.95,1.05-3.08,1.96-3.76,0.83c-0.77-1.29,0.15-5.54,2.13-5.49
		c1.41,0.04,1.96,1.35,2.16,2.11C49.51,41.44,49.33,42.3,49.21,43.05z"/>
</g>
</svg>
