<?xml version="1.0" encoding="utf-8"?>
<!-- Generator: Adobe Illustrator 24.0.0, SVG Export Plug-In . SVG Version: 6.00 Build 0)  -->
<svg version="1.1" id="Layer_1" xmlns="http://www.w3.org/2000/svg" xmlns:xlink="http://www.w3.org/1999/xlink" x="0px" y="0px"
	 viewBox="0 0 96 96" style="enable-background:new 0 0 96 96;" xml:space="preserve">
<style type="text/css">
	.st0{fill:#FFFFFF;}
</style>
<g>
	<g>
		<g>
			<g>
				<g>
					<path d="M48.48,69.62l-0.95-9.94c14.58-1.4,25.38-8.11,32.11-19.94c2.68-4.71,4.19-9.37,5.02-12.8H72.17v-9.98H96l-0.41,5.37
						c-0.03,0.44-0.9,10.94-7.07,21.97C82.74,54.66,71.1,67.45,48.48,69.62z"/>
				</g>
				<g>
					<path d="M48,69.7l-2.46-1.4c-7.07-4.01-12.87-9.76-17.24-17.08c-3.42-5.73-5.96-12.41-7.55-19.87
						c-2.67-12.52-1.77-22.94-1.73-23.38l0.42-4.56L48,3.58l28.57-0.16l0.42,4.56c0.04,0.44,0.95,10.86-1.73,23.38
						c-1.59,7.46-4.13,14.14-7.55,19.87c-4.37,7.32-10.17,13.07-17.24,17.08L48,69.7z M28.82,13.45c0.02,3.83,0.34,9.68,1.73,16.07
						C33.4,42.56,39.26,52.16,48,58.09c17.08-11.62,19.12-34.82,19.18-44.64L48,13.56l-0.03,0L28.82,13.45z"/>
				</g>
				<g>
					<path d="M47.52,69.62C24.9,67.45,13.26,54.66,7.48,44.32C1.31,33.29,0.45,22.79,0.41,22.34L0,16.97h23.83v9.98H11.34
						c0.83,3.42,2.34,8.09,5.03,12.8C23.1,51.58,33.9,58.28,48.48,59.68L47.52,69.62z"/>
				</g>
			</g>
			<g>
				<rect x="43.01" y="63.96" width="9.98" height="23.63"/>
			</g>
			<g>
				<rect x="30.34" y="82.61" width="35.32" height="9.98"/>
			</g>
		</g>
	</g>
</g>
</svg>
