<?xml version="1.0" encoding="utf-8"?>
<!-- Generator: Adobe Illustrator 24.0.0, SVG Export Plug-In . SVG Version: 6.00 Build 0)  -->
<svg version="1.1" id="Layer_1" xmlns="http://www.w3.org/2000/svg" xmlns:xlink="http://www.w3.org/1999/xlink" x="0px" y="0px"
	 viewBox="0 0 96 96" style="enable-background:new 0 0 96 96;" xml:space="preserve">
<style type="text/css">
	.st0{fill:#FFFFFF;}
</style>
<g>
	<circle class="st0" cx="48" cy="48" r="48"/>
	<g>
		<g>
			<rect x="18.37" y="63.34" width="57.01" height="5.49"/>
			<g>
				<path d="M73.17,39.25c-0.46,0-0.91-0.04-1.35-0.12v17.06H21.96V33.04H65.7c-0.08-0.45-0.13-0.91-0.13-1.39
					c0-0.59,0.07-1.17,0.2-1.73H18.84V59.3h56.09V39.04C74.37,39.17,73.78,39.25,73.17,39.25z"/>
				<path d="M72.39,31.65c0,0.43,0.35,0.78,0.78,0.78s0.78-0.35,0.78-0.78s-0.35-0.78-0.78-0.78S72.39,31.22,72.39,31.65z"/>
			</g>
			<g>
				<g>
					<path d="M75.43,59.8H18.35V29.43H66.4l-0.14,0.61c-0.12,0.53-0.18,1.07-0.18,1.61c0,0.43,0.04,0.87,0.12,1.3l0.11,0.59H22.45
						v22.15h48.87V38.53l0.58,0.11c0.96,0.17,1.96,0.15,2.91-0.08l0.61-0.15 M19.34,58.81h55.1V39.64c-0.7,0.11-1.42,0.13-2.12,0.05
						v16.99H21.46V32.55h43.67c-0.03-0.3-0.05-0.6-0.05-0.89c0-0.41,0.03-0.82,0.09-1.23H19.34V58.81z"/>
				</g>
				<g>
					<path d="M73.17,32.93c-0.71,0-1.28-0.57-1.28-1.28s0.57-1.28,1.28-1.28s1.28,0.57,1.28,1.28S73.87,32.93,73.17,32.93z
						 M73.17,31.37c-0.16,0-0.29,0.13-0.29,0.29s0.13,0.29,0.29,0.29s0.29-0.13,0.29-0.29S73.33,31.37,73.17,31.37z"/>
				</g>
			</g>
			<circle cx="73.17" cy="31.65" r="4.49"/>
		</g>
		<g>
			<path d="M36.42,48.22v3.14h-9.08V37.25h3.08v10.97H36.42z"/>
			<path d="M38.11,37.25h3.1v14.11h-3.1V37.25z"/>
			<path d="M55.88,37.25l-4.93,14.11h-3.48l-4.93-14.11h3.48l3.19,9.14l3.19-9.14H55.88z"/>
			<path d="M60.26,40.39v2.2h6.09v3.14h-6.09v2.49h6.71v3.14h-9.81V37.25h9.81v3.14H60.26z"/>
		</g>
	</g>
</g>
</svg>
