<?xml version="1.0" encoding="utf-8"?>
<!-- Generator: Adobe Illustrator 24.0.0, SVG Export Plug-In . SVG Version: 6.00 Build 0)  -->
<svg version="1.1" id="Layer_1" xmlns="http://www.w3.org/2000/svg" xmlns:xlink="http://www.w3.org/1999/xlink" x="0px" y="0px"
	 viewBox="0 0 96 96" style="enable-background:new 0 0 96 96;" xml:space="preserve">
<style type="text/css">
	.st0{fill:#FFFFFF;}
</style>
<g>
	<g>
		<g>
			<path d="M48.02,57.28c-2.14,0-3.67-0.37-3.91-0.43c-2.09-0.46-3.98-1.28-5.63-2.43c-2.49-1.75-5.57-5.12-6.08-11.24
				c-0.83-9.99,5.85-15.54,6.14-15.77l1.73-1.41c1.66-5.12-0.22-11.8-0.24-11.87l-0.4-1.4l1.82,0.5c0.14,0.04,3.49,0.97,7.65,3.72
				c3.81,2.52,9.04,7.1,12.26,14.62c0.15,0.34,0.3,0.69,0.44,1.03l0.01,0.02l0.89,2.57c1.13,3.86,1.23,7.48,0.31,10.75
				c-0.47,1.67-1.21,3.22-2.18,4.61c-3.4,5.26-8.42,6.55-12.04,6.7l-0.28,0.01C48.36,57.28,48.19,57.28,48.02,57.28
				C48.02,57.28,48.02,57.28,48.02,57.28z M41.76,26.68l-0.05,0.25l-2.14,1.74c-0.26,0.21-6.3,5.24-5.54,14.38
				c0.46,5.49,3.18,8.49,5.39,10.04c1.47,1.03,3.17,1.77,5.06,2.18l0.03,0.01c0.06,0.02,1.48,0.38,3.51,0.38c0,0,0,0,0,0
				c0.15,0,0.31,0,0.47-0.01l0.21-0.01c3.24-0.13,7.74-1.27,10.78-5.98c0.89-1.27,1.54-2.66,1.96-4.15c0.91-3.2,0.72-6.8-0.56-10.68
				c-0.17-0.52-0.36-1.05-0.58-1.57l-0.03-0.07c-0.13-0.32-0.26-0.63-0.4-0.93l-0.02-0.04c-3.06-7.15-8.03-11.51-11.66-13.9
				c-2.69-1.77-5.03-2.75-6.26-3.2c0.51,2.4,1.24,7.35-0.17,11.52L41.76,26.68z"/>
		</g>
		<g>
			<path d="M76.67,82.3H19.33l11.24-30.86l3.64,3.74c4.48,4.6,13.84,4.86,13.93,4.86c0.89-0.01,8.99-0.07,13.66-4.86l3.64-3.74
				L76.67,82.3z M21.66,80.67h52.69l-9.56-26.23l-1.83,1.88c-5.13,5.28-13.88,5.35-14.85,5.36c-0.42-0.01-10.14-0.28-15.07-5.36
				l-1.83-1.88L21.66,80.67z M69.65,77.38H26.35l6.23-17.09l0.86,0.56c6.1,3.95,14.3,4.11,14.64,4.11c1.4,0.02,8.67-0.13,14.48-4.06
				l0.86-0.58L69.65,77.38z M28.68,75.75h38.64L62.6,62.81c-6.04,3.65-13.13,3.79-14.54,3.78c-0.35,0-8.28-0.16-14.64-3.84
				L28.68,75.75z"/>
		</g>
		<g>
			<g>
				<path d="M61.66,34.57c-0.18-0.54-0.38-1.08-0.59-1.62l0,0l-0.02-0.04c-0.14-0.34-0.28-0.67-0.43-1l-0.01-0.02
					c-3.14-7.34-8.24-11.81-11.96-14.27c-4.03-2.66-7.28-3.57-7.42-3.61l-0.42-0.12c0,0,2.02,7.03,0.19,12.47
					c-0.01,0.03-0.03,0.07-0.03,0.1l-1.92,1.56c-0.27,0.22-6.63,5.5-5.84,15.08c0.48,5.81,3.38,8.99,5.73,10.64
					c1.56,1.1,3.36,1.87,5.35,2.31c0.18,0.05,1.64,0.41,3.72,0.41c0.16,0,0.32,0,0.49-0.01l0.07,0c0.04,0,0.08,0,0.11,0l0.05-0.01
					c3.44-0.14,8.21-1.36,11.43-6.36c0.92-1.32,1.62-2.79,2.06-4.37C63.19,42.36,62.99,38.61,61.66,34.57z M52.98,49.92L52.98,49.92
					c-1.11,0.7-2.38,1.17-3.77,1.34c-0.22,0.03-0.44,0.04-0.67,0.05c0,0.02,0,0.03,0,0.03c-4.65,0.12-9.94-2.03-10.51-8.93
					c-0.58-7.03,4.04-10.79,4.04-10.79c-0.76,2.75,0.06,3.85,0.06,3.85c4.17-6.16,3.65-13.32,3.65-13.32c7.61,4.14,5.83,11,5.83,11
					c2.06-1.85,1.62-4.84,1.62-4.84C64.07,44.75,52.98,49.92,52.98,49.92z"/>
			</g>
			<g>
				<path d="M75.51,81.49H20.49l10.4-28.54l2.73,2.81c4.72,4.85,14.21,5.1,14.5,5.11c1.01,0.01,9.38-0.1,14.26-5.11l2.73-2.81
					L75.51,81.49z M27.52,76.57h40.97l-5.46-14.99c-5.97,4.03-13.33,4.21-14.95,4.2c-0.42-0.01-8.79-0.17-15.07-4.24L27.52,76.57z"
					/>
			</g>
		</g>
		<path d="M0,0v96h96V0H0z M10.26,85.74V10.26h75.49v75.49H10.26z"/>
	</g>
</g>
</svg>
