<?xml version="1.0" encoding="utf-8"?>
<!-- Generator: Adobe Illustrator 24.0.0, SVG Export Plug-In . SVG Version: 6.00 Build 0)  -->
<svg version="1.1" id="Layer_1" xmlns="http://www.w3.org/2000/svg" xmlns:xlink="http://www.w3.org/1999/xlink" x="0px" y="0px"
	 viewBox="0 0 96 96" style="enable-background:new 0 0 96 96;" xml:space="preserve">
<style type="text/css">
	.st0{fill:#FFFFFF;}
</style>
<g>
	<g>
		<g>
			<path class="st0" d="M63.7,67.05H51.13V18.43L30.1,9.66h33.6v22.05h11.12V-0.04H0v75.76v0.48v0.37l51.13,19.47V76.75h23.69V46.96
				H63.7V67.05z M11.12,69.89V12.5l28.89,12.04v56.56L11.12,69.89z"/>
			<polygon class="st0" points="96,39.34 80.68,27.91 80.68,34.93 56.53,34.93 56.53,43.74 80.68,43.74 80.68,50.77 			"/>
		</g>
		<g>
			<path class="st0" d="M17.25,55.28c0.72-2.92,3.62-4.33,3.62-4.33c-0.48,1.79,0,4.26,0,4.26c0.77-5.65,4.85-7.42,4.85-7.42
				s4.08,4.58,4.85,10.76c0,0,0.48-2.13,0-4.26c0,0,2.9,3.4,3.62,6.82l2.4,0.83c0.87-2.56,1.46-6.62-1.22-10.62
				c0,0-0.28,3.27-2.02,2.26c-1.74-1.01-1.87-2.95-0.79-5.44c1.09-2.49,0.43-7.34-3.52-9.42c0,0,1.05,5.12-2.17,4.05
				c-3.22-1.08-3.29-6.06-1.87-8.03c0,0-3.6-0.31-4.22,3.1c-0.62,3.41,1.82,7.52,0.66,9.19c-1.15,1.67-5.16,0.43-4.14-4.74
				c0,0-2.5,0.66-3.16,4.5c-0.38,2.25,0.15,5.3,0.77,7.67L17.25,55.28z"/>
			<path class="st0" d="M25.72,51.73c-3.51,0.83-2.77,4.47-2.44,5.63l4.87,1.68C28.49,58.11,29.22,54.98,25.72,51.73z"/>
		</g>
	</g>
</g>
</svg>
