<?xml version="1.0" encoding="utf-8"?>
<!-- Generator: Adobe Illustrator 24.0.0, SVG Export Plug-In . SVG Version: 6.00 Build 0)  -->
<svg version="1.1" id="Layer_1" xmlns="http://www.w3.org/2000/svg" xmlns:xlink="http://www.w3.org/1999/xlink" x="0px" y="0px"
	 viewBox="0 0 96 96" style="enable-background:new 0 0 96 96;" xml:space="preserve">
<style type="text/css">
	.st0{fill:#FFFFFF;}
</style>
<g>
	<g>
		<g>
			<path class="st0" d="M85.58,35.94c-1.08-8.42-6.29-13.4-14.44-13.95c-1.09-2.31-2.41-4.46-3.96-6.42
				C62.12,9.16,55.3,5.63,48,5.63c-7.3,0-14.12,3.53-19.18,9.94c-1.55,1.96-2.87,4.11-3.96,6.42c-8.15,0.55-13.36,5.52-14.44,13.95
				c-0.58,4.5,0.79,9.01,3.75,12.36c2.8,3.18,6.78,5.01,10.93,5.01c1.46,0,2.81-0.68,3.71-1.86c0.94-1.23,1.26-2.88,0.85-4.4
				c-0.75-2.74-1.12-5.62-1.12-8.56c0-12.16,6.47-22.36,15.12-24.97c-0.05-0.25-0.07-0.52-0.04-0.79c0.03-0.33,0.09-0.67,0.15-1
				c0.03-0.14,0.06-0.28,0.08-0.43c0.01-0.07,0.03-0.15,0.04-0.22c0-0.03,0.02-0.14,0-0.02c0-0.03,0.01-0.07,0.01-0.1
				c0.03-0.31,0.22-0.54,0.54-0.57c-0.06-0.62-0.15-1.23-0.3-1.83c-0.17-0.72,0.93-1.02,1.1-0.3c0.2,0.87,0.3,1.76,0.37,2.65
				c0.07-0.07,0.15-0.13,0.26-0.17c0.28-0.09,0.64,0.1,0.7,0.4c0.12,0.59,0.15,1.19,0.15,1.78c0.43-0.04,0.86-0.06,1.29-0.06
				c10.74,0,19.48,11.49,19.48,25.62c0,2.93-0.38,5.81-1.12,8.56c-0.41,1.52-0.1,3.16,0.85,4.4c0.9,1.18,2.25,1.86,3.71,1.86
				c4.14,0,8.12-1.83,10.93-5.01C84.79,44.94,86.16,40.44,85.58,35.94z M21.84,45.26c-0.82-0.43-1.58-1.02-2.23-1.76
				c-1.58-1.8-2.31-4.22-2-6.65c0.48-3.75,1.91-6.02,4.59-7.03c-0.61,2.79-0.93,5.7-0.93,8.67C21.27,40.79,21.46,43.05,21.84,45.26z
				 M76.39,43.51c-0.65,0.74-1.4,1.33-2.23,1.76c0.38-2.22,0.57-4.48,0.57-6.77c0-2.97-0.32-5.88-0.93-8.67
				c2.68,1.02,4.11,3.28,4.59,7.03C78.7,39.29,77.97,41.71,76.39,43.51z"/>
		</g>
		<g>
			<path class="st0" d="M68.65,31.21c-0.27-0.82-0.57-1.64-0.9-2.45l0,0l-0.03-0.06c-0.2-0.51-0.42-1.01-0.64-1.51l-0.01-0.03
				C62.33,16.08,54.63,9.34,49.01,5.63c-6.09-4.02-10.99-5.4-11.2-5.45L37.17,0c0,0,3.05,10.61,0.28,18.83
				c-0.02,0.05-0.04,0.1-0.05,0.16l-2.9,2.35c-0.41,0.33-10.02,8.31-8.82,22.77c0.73,8.77,5.11,13.58,8.66,16.07
				c2.36,1.66,5.08,2.83,8.08,3.48c0.27,0.07,2.48,0.62,5.62,0.62c0.24,0,0.49,0,0.74-0.01l0.1,0c0.06,0,0.11,0,0.17,0l0.07-0.01
				c5.19-0.21,12.39-2.05,17.27-9.6c1.39-1.99,2.44-4.21,3.12-6.6C70.95,42.98,70.66,37.31,68.65,31.21z M55.55,54.4L55.55,54.4
				c-1.67,1.06-3.6,1.77-5.7,2.02c-0.34,0.04-0.67,0.06-1,0.08c0,0.02-0.01,0.04-0.01,0.04c-7.03,0.19-15-3.07-15.87-13.48
				c-0.88-10.62,6.11-16.29,6.11-16.29c-1.15,4.15,0.09,5.81,0.09,5.81c6.3-9.31,5.52-20.12,5.52-20.12
				c11.49,6.26,8.81,16.61,8.81,16.61c3.1-2.79,2.45-7.3,2.45-7.3C72.28,46.59,55.55,54.4,55.55,54.4z"/>
			<g>
				<path class="st0" d="M81.98,96H14.02l0.06-3.54c0.35-21.22,11.36-29.22,11.83-29.55l2.43-1.72l2.07,2.14
					c3.85,3.97,10.42,6.34,17.59,6.34s13.74-2.37,17.59-6.34l2.07-2.14l2.43,1.72c0.47,0.33,11.48,8.34,11.83,29.55L81.98,96z
					 M21.22,89.04h53.57c-0.62-7.21-2.67-12.13-4.41-15.12c-0.85-1.46-1.69-2.59-2.41-3.43c-5.15,3.89-12.36,6.15-19.97,6.15
					s-14.82-2.26-19.97-6.15c-0.72,0.84-1.56,1.97-2.41,3.43C23.88,76.91,21.84,81.83,21.22,89.04z"/>
			</g>
		</g>
		<path class="st0" d="M31.47,19.93c-1.54,1.92-3.02,3.93-3.91,6.22c-0.53,1.36-0.85,2.86-0.49,4.27c3.41-3.03,6.82-6.06,10.23-9.09
			c0.62-0.55,1.25-1.12,1.74-1.79c1.18-1.63,2.38-5.73-0.82-5.87C35.64,13.56,32.89,18.17,31.47,19.93z"/>
	</g>
</g>
</svg>
