<?xml version="1.0" encoding="utf-8"?>
<!-- Generator: Adobe Illustrator 24.0.0, SVG Export Plug-In . SVG Version: 6.00 Build 0)  -->
<svg version="1.1" id="Layer_1" xmlns="http://www.w3.org/2000/svg" xmlns:xlink="http://www.w3.org/1999/xlink" x="0px" y="0px"
	 viewBox="0 0 96 96" style="enable-background:new 0 0 96 96;" xml:space="preserve">
<style type="text/css">
	.st0{fill:#FFFFFF;}
</style>
<path class="st0" d="M95.76,17.04c-0.27-6.54-1.52-11.31-1.57-11.51l-0.63-2.34L91.24,2.5c-0.2-0.06-4.93-1.45-11.45-1.91
	c-3.86-0.27-7.58-0.16-11.06,0.33c-4.46,0.62-8.55,1.87-12.15,3.7c-3.15,1.6-6.65,4.34-10.69,8.38c-3.56,3.56-7.53,8.14-11.82,13.63
	c-1.53-0.33-3.46-0.62-5.65-0.67c-6.77-0.14-12.77,2.13-17.35,6.57c-9.98,9.67-8.94,21.47-8.03,26.1c0.19,0.95,0.64,1.81,1.31,2.5
	c0.78,0.8,1.82,1.32,2.94,1.47c2.13,0.27,4.18-0.85,5.11-2.78c1.36-2.83,3.36-4.6,6.13-5.4c0.11-0.03,0.21-0.06,0.32-0.09
	c0.46,2.14,1.31,4.92,2.89,7.81c-5.13-1.5-10.81-0.35-14.92,3.67c-5.89,5.75-6.01,10.8-6.01,10.8c1.29-1.26,5.68-1.62,5.68-1.62
	s-4.15,1.28-5.82,8.01c-1.63,6.59,1.59,12.22,1.59,12.22s3.84-9.67,7.9-8.36c2.57,0.83,0,4.58-4.5,5.65c0,0,2.09,4.17,7.32,2.79
	s6.35-5.35,7.77-5.93c1.43-0.57,1.87,0.78-0.08,3.23c0,0,8.22-1.88,11.37-9.75c1.43-3.57,1.62-6.63,1.02-9.27
	c2.67,1.5,5.24,2.36,7.25,2.85c-0.64,2.17-2.16,4.73-5.67,6.29c-1.96,0.87-3.14,2.89-2.93,5.03c0.21,2.13,1.75,3.89,3.85,4.36
	c1.53,0.35,3.86,0.73,6.66,0.73c5.59,0,13.03-1.54,19.66-8.01c4.57-4.45,7.01-10.38,7.06-17.13v0c0.01-2.25-0.25-4.23-0.51-5.64
	c5.61-4.12,10.3-7.97,13.96-11.43c4.15-3.93,7-7.36,8.71-10.49c1.93-3.55,3.3-7.6,4.05-12.03C95.7,24.62,95.92,20.9,95.76,17.04z
	 M61.98,67.8c-0.07,4.86-1.74,8.91-4.97,12.06c-4.96,4.83-10.53,6.02-14.76,6.04c2.56-2.34,3.88-5.03,4.56-7.2
	c0.6-1.91,0.78-3.62,0.81-4.82c2.67-1.65,8.1-5.06,14.16-9.28C61.92,65.54,62,66.63,61.98,67.8z M26.07,54.71
	c-0.51-1.68-0.72-3.08-0.81-3.89c0.56-0.86,1.6-2.45,3.01-4.53c1.4,3.47,3.83,8.17,7.86,12.56l0.05,0.06l0.05,0.05
	c4.28,4.15,8.9,6.72,12.33,8.22c-2.11,1.35-3.74,2.35-4.61,2.88c-0.8-0.11-2.2-0.36-3.86-0.92c-3.43-1.15-6.33-3.02-8.64-5.53
	l-0.05-0.05l-0.05-0.05C28.9,61.13,27.13,58.17,26.07,54.71z M21.56,47.04c-1.2,0-2.91,0.13-4.84,0.67
	c-2.19,0.62-4.92,1.86-7.33,4.35c0.14-4.22,1.49-9.76,6.47-14.58c3.23-3.13,7.34-4.68,12.2-4.61c1.17,0.02,2.25,0.13,3.19,0.28
	C26.86,39.1,23.29,44.42,21.56,47.04z M61.63,58.4c-2.69,1.92-5.31,3.72-7.7,5.31c-2.4-0.76-8.56-3.09-14.03-8.39
	c-5.1-5.59-7.28-11.85-7.97-14.28c1.66-2.34,3.53-4.91,5.52-7.54c0.82-1.09,1.64-2.14,2.43-3.15c1.37,3.82,4.18,9.27,9.93,15.3
	l0.04,0.04c5.87,5.92,11.23,8.89,15.01,10.37C63.82,56.83,62.74,57.61,61.63,58.4z M69.87,52.22c-0.81-0.17-2.13-0.53-3.83-1.25
	c-2.91-1.24-7.44-3.79-12.51-8.9c-4.84-5.09-7.25-9.59-8.42-12.47c-0.75-1.85-1.1-3.29-1.25-4.15c6.4-7.6,11.8-12.61,15.84-14.67
	c6.62-3.36,14.24-3.65,19.47-3.3c3.8,0.26,6.93,0.88,8.65,1.28c0.35,1.73,0.88,4.88,1.03,8.68c0.2,5.24-0.31,12.85-3.86,19.37
	C82.82,40.79,77.65,46.04,69.87,52.22z M24.64,83.78c0,0-5.03-2.62-8.58,3.78c0,0,0.44-4.08-3.45-5.67c-2.23-0.91-4.43-0.1-6.38,1
	c0.57-1.49,2.24-3.37,4.38-4.74c3.52-2.25,4.35-4.94,2.13-6.9c-0.87-0.76-1.63-1.11-2.24-1.26c1.71-1.32,7.16-4.75,12.79-0.26
	C29.61,74.76,27.45,80.44,24.64,83.78z"/>
</svg>
