<?xml version="1.0" encoding="utf-8"?>
<!-- Generator: Adobe Illustrator 24.0.0, SVG Export Plug-In . SVG Version: 6.00 Build 0)  -->
<svg version="1.1" id="Layer_1" xmlns="http://www.w3.org/2000/svg" xmlns:xlink="http://www.w3.org/1999/xlink" x="0px" y="0px"
	 viewBox="0 0 96 96" style="enable-background:new 0 0 96 96;" xml:space="preserve">
<style type="text/css">
	.st0{fill:#FFFFFF;}
</style>
<g>
	<circle cx="48" cy="48" r="47.94"/>
	<path class="st0" d="M76.86,40.65c-0.62-7.05-3.94-13.43-9.36-17.98c-5.42-4.55-12.29-6.71-19.33-6.1
		c-7.05,0.62-13.43,3.94-17.98,9.36c-4.55,5.42-6.71,12.29-6.1,19.33c0.54,6.19,3.17,11.86,7.47,16.23l-1.1,1.31l-1.58-1.32
		l-8.76,10.44c-1.64,1.96-1.39,4.88,0.57,6.52h0c1.96,1.64,4.88,1.39,6.52-0.57l8.76-10.44l-1.58-1.32l1.1-1.31
		c5.05,3.48,11.1,5.08,17.28,4.54c7.05-0.62,13.43-3.94,17.98-9.36S77.47,47.7,76.86,40.65z M66.1,56.07
		c-7.23,8.62-20.12,9.75-28.74,2.51c-8.62-7.23-9.75-20.12-2.51-28.74c7.23-8.62,20.12-9.75,28.74-2.51
		C72.2,34.56,73.33,47.45,66.1,56.07z"/>
</g>
</svg>
