<?xml version="1.0" encoding="utf-8"?>
<!-- Generator: Adobe Illustrator 24.0.0, SVG Export Plug-In . SVG Version: 6.00 Build 0)  -->
<svg version="1.1" id="Layer_1" xmlns="http://www.w3.org/2000/svg" xmlns:xlink="http://www.w3.org/1999/xlink" x="0px" y="0px"
	 viewBox="0 0 96 96" style="enable-background:new 0 0 96 96;" xml:space="preserve">
<style type="text/css">
	.st0{fill:#FFFFFF;}
</style>
<g>
	<circle cx="48" cy="48" r="47.92"/>
	<path class="st0" d="M78.6,28.16c-0.17-4.19-0.97-7.24-1.01-7.37l-0.4-1.5l-1.49-0.44c-0.13-0.04-3.16-0.93-7.34-1.22
		c-2.47-0.17-4.86-0.1-7.09,0.21c-2.86,0.4-5.48,1.2-7.78,2.37c-2.02,1.03-4.26,2.78-6.85,5.37c-2.28,2.28-4.83,5.21-7.57,8.73
		c-0.98-0.21-2.22-0.4-3.62-0.43c-4.34-0.09-8.18,1.36-11.12,4.21c-6.4,6.19-5.73,13.76-5.15,16.72c0.12,0.61,0.41,1.16,0.84,1.6
		c0.5,0.51,1.17,0.85,1.88,0.94c1.36,0.17,2.68-0.54,3.27-1.78c0.87-1.81,2.15-2.94,3.93-3.46c0.07-0.02,0.14-0.04,0.2-0.06
		c0.29,1.37,0.84,3.15,1.85,5.01c-3.29-0.96-6.93-0.22-9.56,2.35c-3.77,3.68-3.85,6.92-3.85,6.92c0.83-0.81,3.64-1.04,3.64-1.04
		s-2.66,0.82-3.73,5.13c-1.05,4.22,1.02,7.83,1.02,7.83s2.46-6.19,5.06-5.36c1.65,0.53,0,2.94-2.88,3.62c0,0,1.34,2.67,4.69,1.79
		c3.35-0.88,4.07-3.43,4.98-3.8c0.91-0.37,1.2,0.5-0.05,2.07c0,0,5.26-1.2,7.28-6.25c0.92-2.29,1.04-4.25,0.65-5.94
		c1.71,0.96,3.36,1.51,4.65,1.82c-0.41,1.39-1.38,3.03-3.63,4.03c-1.26,0.56-2.01,1.85-1.88,3.22c0.13,1.37,1.12,2.49,2.46,2.79
		c0.98,0.22,2.47,0.47,4.27,0.47c3.58,0,8.35-0.99,12.6-5.13c2.93-2.85,4.49-6.65,4.52-10.97v0c0.01-1.44-0.16-2.71-0.33-3.61
		c3.59-2.64,6.6-5.1,8.94-7.32c2.66-2.52,4.49-4.72,5.58-6.72c1.24-2.27,2.11-4.87,2.59-7.71C78.56,33.02,78.7,30.64,78.6,28.16z
		 M56.96,60.68c-0.04,3.11-1.12,5.71-3.18,7.72c-3.18,3.1-6.75,3.86-9.46,3.87c1.64-1.5,2.49-3.22,2.92-4.61
		c0.38-1.22,0.5-2.32,0.52-3.09c1.71-1.05,5.19-3.24,9.07-5.94C56.92,59.24,56.97,59.93,56.96,60.68z M33.95,52.3
		c-0.33-1.08-0.46-1.98-0.52-2.49c0.36-0.55,1.03-1.57,1.93-2.9c0.9,2.22,2.46,5.23,5.04,8.05l0.03,0.04l0.03,0.03
		c2.74,2.66,5.7,4.31,7.9,5.27c-1.35,0.86-2.39,1.5-2.96,1.84c-0.51-0.07-1.41-0.23-2.47-0.59c-2.19-0.74-4.06-1.93-5.54-3.54
		l-0.03-0.03l-0.03-0.03C35.77,56.41,34.63,54.52,33.95,52.3z M31.06,47.39c-0.77,0-1.87,0.08-3.1,0.43
		c-1.4,0.39-3.15,1.19-4.69,2.79c0.09-2.71,0.96-6.25,4.14-9.34c2.07-2.01,4.7-3,7.81-2.96c0.75,0.01,1.44,0.08,2.04,0.18
		C34.45,42.3,32.17,45.71,31.06,47.39z M56.73,54.66c-1.72,1.23-3.4,2.38-4.93,3.4c-1.53-0.49-5.48-1.98-8.99-5.37
		c-3.27-3.58-4.66-7.59-5.11-9.15c1.06-1.5,2.26-3.15,3.54-4.83c0.53-0.7,1.05-1.37,1.56-2.02c0.88,2.45,2.68,5.94,6.36,9.8
		l0.02,0.02c3.76,3.79,7.19,5.69,9.62,6.64C58.13,53.65,57.44,54.15,56.73,54.66z M62.01,50.7c-0.52-0.11-1.36-0.34-2.45-0.8
		c-1.86-0.79-4.76-2.43-8.01-5.7c-3.1-3.26-4.64-6.15-5.39-7.99c-0.48-1.19-0.7-2.11-0.8-2.66c4.1-4.87,7.56-8.08,10.15-9.4
		c4.24-2.16,9.12-2.34,12.47-2.11c2.43,0.16,4.44,0.56,5.54,0.82c0.23,1.11,0.56,3.12,0.66,5.56c0.13,3.36-0.2,8.23-2.47,12.41
		C70.31,43.38,67,46.75,62.01,50.7z M33.03,70.92c0,0-3.23-1.68-5.49,2.42c0,0,0.28-2.62-2.21-3.63c-1.43-0.58-2.84-0.06-4.09,0.64
		c0.36-0.96,1.44-2.16,2.81-3.04c2.25-1.44,2.79-3.17,1.37-4.42c-0.55-0.49-1.04-0.71-1.43-0.81c1.1-0.84,4.58-3.04,8.19-0.17
		C36.22,65.14,34.83,68.78,33.03,70.92z"/>
</g>
</svg>
