<?xml version="1.0" encoding="utf-8"?>
<!-- Generator: Adobe Illustrator 24.0.0, SVG Export Plug-In . SVG Version: 6.00 Build 0)  -->
<svg version="1.1" id="Layer_1" xmlns="http://www.w3.org/2000/svg" xmlns:xlink="http://www.w3.org/1999/xlink" x="0px" y="0px"
	 viewBox="0 0 96 96" style="enable-background:new 0 0 96 96;" xml:space="preserve">
<style type="text/css">
	.st0{fill:#FFFFFF;}
</style>
<path d="M95.74,17.05c-0.27-6.54-1.52-11.3-1.57-11.5l-0.63-2.34l-2.32-0.69c-0.2-0.06-4.92-1.45-11.45-1.91
	c-3.86-0.27-7.58-0.16-11.06,0.33c-4.46,0.62-8.54,1.86-12.14,3.69c-3.15,1.6-6.65,4.34-10.69,8.38
	c-3.56,3.55-7.53,8.13-11.82,13.62c-1.53-0.33-3.46-0.62-5.65-0.67c-6.77-0.14-12.76,2.13-17.35,6.56
	c-9.98,9.66-8.94,21.46-8.03,26.09c0.19,0.95,0.64,1.81,1.31,2.5c0.78,0.8,1.82,1.32,2.94,1.47c2.13,0.27,4.18-0.85,5.11-2.78
	c1.36-2.83,3.36-4.59,6.13-5.4c0.11-0.03,0.21-0.06,0.32-0.09c0.46,2.14,1.31,4.92,2.89,7.81c-5.13-1.5-10.81-0.35-14.91,3.66
	c-5.88,5.75-6.01,10.79-6.01,10.79c1.29-1.26,5.68-1.62,5.68-1.62s-4.15,1.28-5.81,8.01c-1.63,6.59,1.59,12.21,1.59,12.21
	s3.84-9.66,7.89-8.36c2.57,0.83,0,4.58-4.49,5.65c0,0,2.09,4.17,7.31,2.79c5.23-1.38,6.34-5.35,7.77-5.92s1.87,0.78-0.08,3.22
	c0,0,8.21-1.88,11.36-9.74c1.43-3.57,1.62-6.63,1.02-9.26c2.67,1.5,5.24,2.35,7.25,2.84c-0.64,2.17-2.16,4.72-5.66,6.28
	c-1.96,0.87-3.14,2.89-2.93,5.03c0.21,2.13,1.75,3.88,3.84,4.36c1.53,0.35,3.86,0.73,6.66,0.73c5.58,0,13.02-1.54,19.65-8
	c4.57-4.45,7.01-10.37,7.05-17.12v0c0.01-2.25-0.25-4.23-0.51-5.63c5.61-4.12,10.29-7.96,13.95-11.43c4.15-3.93,7-7.36,8.71-10.49
	c1.93-3.54,3.29-7.59,4.05-12.03C95.68,24.63,95.9,20.91,95.74,17.05z M61.98,67.79c-0.07,4.86-1.74,8.91-4.96,12.05
	c-4.96,4.83-10.53,6.02-14.75,6.04c2.56-2.33,3.88-5.03,4.56-7.2c0.6-1.91,0.78-3.62,0.81-4.81c2.67-1.65,8.09-5.06,14.16-9.27
	C61.91,65.54,62,66.62,61.98,67.79z M26.08,54.71c-0.51-1.68-0.72-3.08-0.81-3.89c0.56-0.86,1.6-2.45,3.01-4.53
	c1.4,3.47,3.83,8.17,7.86,12.56l0.05,0.06l0.05,0.05c4.27,4.15,8.9,6.72,12.32,8.22c-2.11,1.35-3.74,2.34-4.61,2.88
	c-0.8-0.11-2.2-0.36-3.86-0.92c-3.42-1.15-6.33-3.01-8.64-5.53l-0.05-0.05l-0.05-0.05C28.91,61.13,27.14,58.17,26.08,54.71z
	 M21.58,47.04c-1.2,0-2.91,0.13-4.84,0.67c-2.19,0.62-4.92,1.86-7.33,4.35c0.14-4.22,1.49-9.76,6.46-14.57
	c3.23-3.13,7.33-4.68,12.19-4.61c1.17,0.02,2.25,0.13,3.18,0.28C26.86,39.1,23.3,44.42,21.58,47.04z M61.63,58.39
	c-2.69,1.92-5.31,3.71-7.7,5.3c-2.39-0.76-8.55-3.09-14.03-8.39c-5.1-5.59-7.27-11.84-7.97-14.27c1.66-2.34,3.53-4.91,5.52-7.54
	c0.82-1.08,1.63-2.13,2.43-3.15c1.37,3.82,4.18,9.26,9.92,15.3l0.04,0.04c5.86,5.92,11.23,8.88,15,10.36
	C63.81,56.82,62.74,57.6,61.63,58.39z M69.86,52.22c-0.81-0.17-2.13-0.53-3.82-1.25c-2.91-1.24-7.43-3.79-12.5-8.89
	c-4.84-5.09-7.25-9.59-8.41-12.47c-0.75-1.85-1.1-3.29-1.25-4.15c6.39-7.59,11.79-12.61,15.84-14.66c6.62-3.36,14.24-3.65,19.46-3.3
	c3.8,0.26,6.92,0.88,8.64,1.28c0.35,1.73,0.88,4.87,1.03,8.68c0.2,5.24-0.31,12.84-3.86,19.36C82.8,40.79,77.64,46.05,69.86,52.22z
	 M24.65,83.76c0,0-5.03-2.62-8.57,3.78c0,0,0.44-4.08-3.45-5.66c-2.23-0.91-4.42-0.1-6.38,1c0.57-1.49,2.24-3.37,4.38-4.74
	c3.51-2.25,4.35-4.94,2.13-6.89c-0.86-0.76-1.63-1.11-2.24-1.26c1.71-1.32,7.15-4.74,12.78-0.26
	C29.62,74.75,27.46,80.42,24.65,83.76z"/>
</svg>
