<?xml version="1.0" encoding="utf-8"?>
<!-- Generator: Adobe Illustrator 24.0.0, SVG Export Plug-In . SVG Version: 6.00 Build 0)  -->
<svg version="1.1" id="Layer_1" xmlns="http://www.w3.org/2000/svg" xmlns:xlink="http://www.w3.org/1999/xlink" x="0px" y="0px"
	 viewBox="0 0 96 96" style="enable-background:new 0 0 96 96;" xml:space="preserve">
<style type="text/css">
	.st0{fill:#FFFFFF;}
</style>
<g>
	<path d="M71.05,42.79H53.21V24.95c0-2.6-2.11-4.7-4.7-4.7h-1.02c-2.6,0-4.7,2.11-4.7,4.7v17.84H24.95c-2.6,0-4.7,2.11-4.7,4.7v1.02
		c0,2.6,2.11,4.7,4.7,4.7h17.84v17.84c0,2.6,2.11,4.7,4.7,4.7h1.02c2.6,0,4.7-2.11,4.7-4.7V53.21h17.84c2.6,0,4.7-2.11,4.7-4.7
		v-1.02C75.75,44.89,73.65,42.79,71.05,42.79z"/>
	<path d="M48,0C21.53,0,0,21.53,0,48s21.53,48,48,48s48-21.53,48-48S74.47,0,48,0z M48,87.28C26.34,87.28,8.72,69.66,8.72,48
		C8.72,26.34,26.34,8.72,48,8.72c21.66,0,39.28,17.62,39.28,39.28C87.28,69.66,69.66,87.28,48,87.28z"/>
</g>
</svg>
