<?xml version="1.0" encoding="utf-8"?>
<!-- Generator: Adobe Illustrator 24.0.0, SVG Export Plug-In . SVG Version: 6.00 Build 0)  -->
<svg version="1.1" id="Layer_1" xmlns="http://www.w3.org/2000/svg" xmlns:xlink="http://www.w3.org/1999/xlink" x="0px" y="0px"
	 viewBox="0 0 96 96" style="enable-background:new 0 0 96 96;" xml:space="preserve">
<style type="text/css">
	.st0{fill:#FFFFFF;}
</style>
<circle cx="48" cy="48" r="48"/>
<path class="st0" d="M67.1,17.85H28.9c-6.1,0-11.06,4.96-11.06,11.06V67.1c0,6.1,4.96,11.06,11.06,11.06H67.1
	c6.1,0,11.06-4.96,11.06-11.06V28.9C78.15,22.81,73.19,17.85,67.1,17.85z M67.1,73.86H36.6c1.13-3.13,3.31-8.33,6.43-13.52l0,0l0,0
	c0.12-0.19,0.23-0.38,0.35-0.58c3.48-5.66,8.97-12.54,15.32-13.15c3.75-0.36,7.49,0.58,11.12,2.79c1.99,1.21,3.4,2.49,4.05,3.13
	V67.1C73.86,70.82,70.82,73.86,67.1,73.86z M28.9,73.86c-3.73,0-6.76-3.03-6.76-6.76v-6.65c2.52-3.72,5.33-5.99,7.57-6.1
	c2.24-0.11,5.85,1.89,9.99,5.51c-3.02,5.24-5.29,10.71-6.41,14.01H28.9z M39.55,28.93c-3.59,0-6.55-2.78-6.83-6.3h13.66
	C46.1,26.15,43.14,28.93,39.55,28.93z"/>
</svg>
