<?xml version="1.0" encoding="utf-8"?>
<!-- Generator: Adobe Illustrator 24.0.0, SVG Export Plug-In . SVG Version: 6.00 Build 0)  -->
<svg version="1.1" id="Layer_1" xmlns="http://www.w3.org/2000/svg" xmlns:xlink="http://www.w3.org/1999/xlink" x="0px" y="0px"
	 viewBox="0 0 96 96" style="enable-background:new 0 0 96 96;" xml:space="preserve">
<style type="text/css">
	.st0{fill:#FFFFFF;}
</style>
<circle cx="48" cy="48" r="48"/>
<g>
	<path class="st0" d="M66.42,43.84H52.16V29.58c0-2.07-1.68-3.76-3.76-3.76h-0.81c-2.07,0-3.76,1.68-3.76,3.76v14.25H29.58
		c-2.07,0-3.76,1.68-3.76,3.76v0.81c0,2.07,1.68,3.76,3.76,3.76h14.25v14.25c0,2.07,1.68,3.76,3.76,3.76h0.81
		c2.07,0,3.76-1.68,3.76-3.76V52.16h14.25c2.07,0,3.76-1.68,3.76-3.76v-0.81C70.17,45.52,68.49,43.84,66.42,43.84z"/>
	<path class="st0" d="M48,9.65C26.85,9.65,9.65,26.85,9.65,48S26.85,86.35,48,86.35S86.35,69.15,86.35,48S69.15,9.65,48,9.65z
		 M48,79.38C30.7,79.38,16.62,65.3,16.62,48c0-17.3,14.08-31.38,31.38-31.38c17.3,0,31.38,14.08,31.38,31.38
		C79.38,65.3,65.3,79.38,48,79.38z"/>
</g>
</svg>
