<?xml version="1.0" encoding="utf-8"?>
<!-- Generator: Adobe Illustrator 24.0.0, SVG Export Plug-In . SVG Version: 6.00 Build 0)  -->
<svg version="1.1" id="Layer_1" xmlns="http://www.w3.org/2000/svg" xmlns:xlink="http://www.w3.org/1999/xlink" x="0px" y="0px"
	 viewBox="0 0 96 96" style="enable-background:new 0 0 96 96;" xml:space="preserve">
<style type="text/css">
	.st0{fill:#FFFFFF;}
</style>
<circle class="st0" cx="48" cy="48" r="47.94"/>
<g>
	<path d="M61.17,18.71l-0.4-0.51l-0.58-0.23c-0.27-0.11-2.74-1.03-5.17,0.2c-1.42,0.72-2.48,1.97-3.15,3.71
		c-0.97,0.9-3.61,3.1-8.62,5.44c-6.97,3.26-15.49,5.41-25.32,6.38c-1.4-1.67-3.32-2.4-5.43-2.05c-1.53,0.25-2.65,0.97-2.86,1.11
		l-0.72,0.49l-0.26,0.87c-1.24,4.09-1.91,8.1-1.98,11.9c-0.06,3.09,0.27,6.06,0.98,8.83c1.24,4.84,3.26,7.46,3.34,7.56l0.38,0.49
		l0.55,0.24c0.89,0.38,1.77,0.59,2.63,0.61c1.2,0.03,2.39-0.31,3.41-0.98c0.61-0.39,1.07-0.85,1.42-1.24
		c-0.01,1.62,0.11,3.2,0.35,4.72c0.35,2.2,0.95,4.28,1.8,6.2c1.48,3.35,3.25,5.1,3.32,5.17l0.87,0.85l1.16-0.23
		c1.73-0.35,3.84-1.52,6.26-3.47c1.78-1.43,3.1-2.79,3.25-2.94l2.03-2.09l-2.28-1.77c-2.61-2.02-4.11-5.38-4.85-7.58
		c4.26,0.31,8.41,1.13,12.34,2.45c4.71,1.58,7.82,3.41,9.02,4.18c0.51,0.82,1.59,2.17,3.41,2.75c0.52,0.17,1.06,0.26,1.61,0.27
		c1.4,0.03,2.87-0.44,4.36-1.41l0.5-0.32l0.3-0.53c0.16-0.28,3.89-6.92,5.59-16.24c1.01-5.52,1.1-10.85,0.26-15.83
		C67.63,29.42,65.1,23.71,61.17,18.71z M23.62,59.78c1.03-0.07,2.07-0.12,3.1-0.13c0.25,1.03,0.72,2.66,1.51,4.46
		c1.03,2.36,2.31,4.35,3.8,5.93c-1.11,0.99-3.23,2.77-4.99,3.53C25.81,71.91,23.1,67.34,23.62,59.78z M61.76,48.26
		c0.54-4.76,0.26-9.45-0.85-13.93c-1.4-5.69-3.77-9.59-4.94-11.28c0.23-0.4,0.51-0.69,0.83-0.85h0c0.54-0.28,1.17-0.23,1.55-0.16
		c6,7.89,8.02,17.5,6.01,28.57c-1.33,7.32-4.11,13.01-4.86,14.45c-0.87,0.49-1.62,0.64-2.22,0.46c-0.31-0.09-0.56-0.28-0.75-0.47
		C59.37,59.44,61.13,53.79,61.76,48.26z M53.71,62.52c-1.67-0.98-4.66-2.54-8.73-3.91c-3.81-1.28-7.8-2.14-11.86-2.55
		c-1.85-0.19-3.71-0.28-5.59-0.28c-2.88,0-5.79,0.22-8.69,0.66c-2.06-5.46-2.23-10.34-2-13.5c0.14-1.99,0.46-3.62,0.74-4.74
		c6.07-0.56,11.76-1.57,16.91-3c4.35-1.21,8.34-2.72,11.86-4.49c3.45-1.74,5.78-3.39,7.24-4.59c1.12,1.77,2.81,4.96,3.87,9.31
		C59.55,44.07,58.29,53.18,53.71,62.52z M15.75,59c-0.53,0.32-1.13,0.38-1.83,0.18c-1.17-1.84-5.32-9.65-1.55-22.92
		c0.22-0.09,0.49-0.18,0.79-0.22c0.48-0.07,0.86,0,1.19,0.21c-0.36,1.26-0.88,3.44-1.1,6.28c-0.2,2.64-0.1,5.32,0.3,7.95
		c0.43,2.86,1.22,5.69,2.34,8.42C15.85,58.94,15.8,58.97,15.75,59z"/>
	<path d="M87.53,38.21l-0.47,0.62c-0.15,0.21-0.31,0.4-0.45,0.58c-2.49,3.15-4.35,2.86-4.91,1.53c-0.56-1.34,1.12-2.95,3.45-3.44
		c-0.59-0.71-3.07-3.44-6.7-3.88c-1.85-0.14-4.11,0.33-6.32,2.46l-0.67,0.65l0.14,0.95c0.01,0.06,0.94,6.46-0.22,11.27l-0.36,1.48
		l1.31,0.6c0.06,0.03,1.6,0.73,3.81,1.1c0.88,0.15,1.76,0.22,2.61,0.22c2.01,0,3.88-0.4,5.55-1.19c1.68-0.79,2.96-1.9,3.82-3.28
		c0.66-1.06,1.05-2.27,1.18-3.59c0.01-0.06,0.01-0.13,0.02-0.19C89.36,43.41,89.36,40.92,87.53,38.21z M75.29,38.28
		c1.09-0.77,2.28-1.03,3.55-0.76c-0.41,0.6-0.69,1.29-0.8,2.01c-0.3,1.86,0.48,3.77,2.02,5c1.25,0.99,2.6,1.36,4.03,1.08
		c0.47-0.09,0.93-0.25,1.39-0.48c-0.42,1.07-1.28,1.91-2.61,2.53c-2.2,1.04-4.54,0.95-6.12,0.7c-0.51-0.08-1.03-0.2-1.53-0.34
		C75.78,44.33,75.53,40.5,75.29,38.28z"/>
</g>
</svg>
