<?xml version="1.0" encoding="utf-8"?>
<!-- Generator: Adobe Illustrator 24.0.0, SVG Export Plug-In . SVG Version: 6.00 Build 0)  -->
<svg version="1.1" id="Layer_1" xmlns="http://www.w3.org/2000/svg" xmlns:xlink="http://www.w3.org/1999/xlink" x="0px" y="0px"
	 viewBox="0 0 96 96" style="enable-background:new 0 0 96 96;" xml:space="preserve">
<style type="text/css">
	.st0{fill:#FFFFFF;}
</style>
<g>
	<path d="M60.51,21.59c-4.54,2.71-6.02,8.61-3.31,13.15c2.71,4.54,8.61,6.02,13.15,3.31c4.54-2.71,6.02-8.61,3.31-13.15
		C70.95,20.36,65.05,18.87,60.51,21.59z M68.88,35.57c-3.17,1.9-7.3,0.86-9.2-2.31c-1.9-3.17-0.86-7.3,2.31-9.2
		c3.17-1.9,7.3-0.86,9.2,2.31C73.09,29.55,72.05,33.67,68.88,35.57z"/>
	<path d="M94.95,10.97l-0.94-0.35c-0.18-0.07-4.38-1.64-10.8-2.37c-5.91-0.67-14.93-0.74-24.35,2.8c-5.07,1.9-10.2,4.66-15.26,8.22
		c-5.09-2.55-10.54-2.01-14.31-1.06c-4.93,1.24-8.83,3.57-10.24,4.84c-2.12,1.9-2.91,4.71-1.97,7c0.09,0.23,0.21,0.45,0.33,0.67
		c0.66,1.1,2.32,2.93,6.04,2.74c1.3-0.06,2.7,0.18,3.95,0.52l-0.15,0.17l-0.03,0.99c-0.19,6.4,3.99,13.47,4.17,13.77l1.11,1.85
		c0.18,0.3,4.43,7.33,10.16,10.19l0.89,0.44l0.22-0.05c-0.3,1.26-0.74,2.61-1.41,3.73c-1.92,3.19-1.1,5.52-0.44,6.62
		c0.13,0.22,0.27,0.42,0.43,0.61c1.57,1.91,4.42,2.54,7.1,1.57c1.78-0.64,5.68-2.97,9.11-6.73c2.61-2.87,5.67-7.42,5.83-13.11
		c5.53-2.77,10.39-5.98,14.47-9.55c7.57-6.63,11.79-14.61,13.99-20.13c2.39-5.99,2.99-10.45,3.02-10.64L96,12.73L94.95,10.97z
		 M53.17,54.12c-1.49-1.42-4.87-4.9-8.68-10.61l-1.04-1.74c-3.23-6.05-4.7-10.68-5.24-12.67c5.24-4.7,13.06-10.62,22.16-14.03
		c13.95-5.23,27.19-1.95,31.01-0.79c-0.78,3.91-4.16,17.13-15.37,26.95C68.71,47.64,59.79,51.73,53.17,54.12z M21.07,28.39
		c-0.2-0.5,0.03-1.39,0.86-2.14c1.97-1.77,11.6-6.72,19.2-3.38c-3.9,3.03-7.01,5.98-9.1,8.13c-1.7-0.72-5.33-2.04-8.79-1.87
		C22.1,29.19,21.29,28.92,21.07,28.39z M36.63,30.56c0.72,2.4,2.23,6.69,5.14,12.14l1.1,1.84l0.01,0.02
		c3.42,5.14,6.48,8.5,8.26,10.27c-3.4,1.14-5.96,1.78-6.98,2.02c-4.4-2.46-7.91-8.25-7.94-8.31l-1.11-1.85
		c-0.04-0.06-3.48-5.88-3.56-10.93C32.24,34.97,34.01,33.02,36.63,30.56z M46.07,67.3c1.78-2.96,2.34-6.79,2.51-8.63
		c2.88-0.83,6.95-2.18,11.47-4.17c-0.65,8.28-9.57,14.41-12.06,15.32c-1.06,0.38-1.95,0.16-2.3-0.25
		C45.33,69.13,45.47,68.29,46.07,67.3z"/>
	<path d="M32.57,57.58c-0.43-3.61-2.35-6.88-5.27-8.95c-1.13-0.8-2.52-1.42-4.03-1.78c-1.34-0.32-2.76-0.4-4.09-0.24
		c-1.5,0.18-2.95,0.57-4.44,1.18c-1.61,0.66-3,1.36-4.26,2.15c-2.47,1.56-4.54,3.44-6.15,5.59c-1.69,2.26-2.91,4.71-3.61,7.26
		c-0.68,2.48-0.89,5.11-0.6,7.61c0.32,2.73,1.13,5.35,2.43,7.77c0.23,0.42,0.46,0.84,0.7,1.23c1.43,2.4,3.06,4.32,4.84,5.72
		c1.13,0.89,2.19,1.54,3.25,1.98c1.2,0.51,2.41,0.82,3.69,0.97c0.81,0.09,1.65,0.09,2.5-0.01c0,0,8.35-0.8,11.28-7.56
		c0,0-3.62,1.43-5.25-1.37c-0.81-1.81-0.7-3.67-0.67-4c0.09-0.47,0.22-0.94,0.39-1.4c0.24-0.58,0.55-1.14,0.92-1.66
		c0.46-0.59,1.02-1.16,1.77-1.78c0.96-0.8,1.77-1.56,2.48-2.31c1.86-1.97,3.08-3.95,3.72-6.05c0.4-1.32,0.55-2.74,0.42-4.1
		C32.59,57.73,32.58,57.66,32.57,57.58z M21.87,68c-0.57,0.56-1.06,1.18-1.51,1.84c-0.68,0.99-1.2,2.09-1.53,3.25
		c-0.09-0.33-0.16-0.66-0.21-0.99c-0.08-0.71-0.1-1.42-0.06-2.13c0.01-0.19,0.07-0.88,0.23-1.78c0.02-0.07,0.03-0.15,0.05-0.22
		c0.02-0.07,0.03-0.15,0.04-0.22c0.23-1.05,0.6-2.29,1.23-3.28c0,0-4.2,1.05-6.41,4.88c0,0,0,0,0,0c-0.63,0.89-1.15,1.85-1.52,2.87
		c-0.31,0.85-0.47,1.77-0.48,2.67c-0.01,1.19,0.31,2.31,0.79,3.39c0.97,2.17,2.78,3.86,4.75,5.12c0.1,0.06,0.2,0.12,0.3,0.19
		c-0.09,0.02-0.17,0.03-0.26,0.05c-0.65,0.08-1.31,0.08-1.96,0.02c-0.65-0.09-1.29-0.26-1.91-0.48c-0.78-0.32-1.51-0.74-2.2-1.23
		c-0.97-0.74-1.82-1.6-2.59-2.54c-1.14-1.46-2.12-3.07-2.87-4.77c-0.56-1.35-0.95-2.75-1.17-4.2c-0.18-1.38-0.19-2.77-0.04-4.15
		c0.18-1.37,0.52-2.71,1.01-4c0.55-1.35,1.26-2.63,2.1-3.81c0.97-1.3,2.11-2.47,3.37-3.49c1.5-1.17,3.16-2.13,4.9-2.9
		c1.12-0.46,2.27-0.84,3.47-1.04c0.67-0.08,1.34-0.09,2.01-0.03c0.66,0.1,1.3,0.26,1.92,0.5c0.57,0.24,1.11,0.52,1.62,0.87
		c0.55,0.42,1.04,0.9,1.48,1.44c0.45,0.59,0.83,1.23,1.14,1.9c0.28,0.7,0.49,1.42,0.61,2.16c0,0.04,0.01,0.07,0.01,0.11
		c0.05,0.51,0.05,1.01,0,1.52c-0.09,0.61-0.24,1.2-0.45,1.77c-0.32,0.76-0.73,1.47-1.21,2.14c-0.85,1.13-1.85,2.13-2.9,3.07
		C23.04,66.99,22.42,67.46,21.87,68z"/>
</g>
</svg>
