<?xml version="1.0" encoding="utf-8"?>
<!-- Generator: Adobe Illustrator 24.0.0, SVG Export Plug-In . SVG Version: 6.00 Build 0)  -->
<svg version="1.1" id="Layer_1" xmlns="http://www.w3.org/2000/svg" xmlns:xlink="http://www.w3.org/1999/xlink" x="0px" y="0px"
	 viewBox="0 0 96 96" style="enable-background:new 0 0 96 96;" xml:space="preserve">
<style type="text/css">
	.st0{fill:#FFFFFF;}
</style>
<circle class="st0" cx="48" cy="48" r="48"/>
<g>
	<path d="M67.61,31.95c-1.4-3.1-5.07-4.49-8.17-3.08c-3.1,1.4-4.49,5.07-3.08,8.17c1.4,3.1,5.07,4.49,8.17,3.08
		C67.63,38.72,69.02,35.05,67.61,31.95z M63.77,38.43c-2.17,0.98-4.74,0.01-5.72-2.16c-0.98-2.17-0.01-4.74,2.16-5.72
		c2.17-0.98,4.74-0.01,5.72,2.16C66.91,34.89,65.94,37.45,63.77,38.43z"/>
	<path d="M82.31,24.55l-0.59-0.31c-0.11-0.06-2.69-1.38-6.75-2.32c-3.74-0.87-9.52-1.57-15.83,0c-3.38,0.84-6.86,2.23-10.36,4.13
		c-3.08-2-6.61-2.05-9.09-1.72c-3.26,0.43-5.94,1.65-6.94,2.36c-1.52,1.08-2.24,2.85-1.8,4.4c0.04,0.15,0.1,0.31,0.17,0.46
		c0.35,0.77,1.29,2.08,3.72,2.24c0.8,0.05,1.64,0.29,2.38,0.58l-0.05,0.05l-0.09,0.66c-0.59,4.1,1.57,8.95,1.66,9.16l0.57,1.27
		c0.09,0.2,2.3,5.03,5.78,7.3l0.56,0.36l0.07-0.01c-0.28,0.75-0.65,1.54-1.14,2.18c-1.48,1.93-1.12,3.5-0.78,4.27
		c0.07,0.15,0.15,0.3,0.23,0.43c0.88,1.36,2.69,1.98,4.5,1.56c1.2-0.28,3.87-1.49,6.35-3.65c1.89-1.65,4.18-4.33,4.71-7.96
		c3.73-1.37,7.08-3.07,9.94-5.05c5.35-3.7,8.64-8.5,10.45-11.88c1.98-3.67,2.69-6.48,2.72-6.6l0.16-0.65L82.31,24.55z M35.02,30.96
		c-0.74-0.05-1.24-0.28-1.33-0.63c-0.09-0.33,0.12-0.89,0.71-1.31c1.39-0.99,7.92-3.45,12.54-0.75c-2.72,1.66-4.93,3.32-6.43,4.54
		C39.48,32.22,37.25,31.11,35.02,30.96z M39.85,35.81c0.5-0.46,1.78-1.57,3.64-2.95c0.28,1.59,0.94,4.44,2.4,8.15l0.57,1.26
		l0.01,0.01c1.81,3.54,3.52,5.92,4.53,7.18c-2.26,0.48-3.94,0.7-4.62,0.78c-2.63-1.9-4.46-5.86-4.47-5.9l-0.57-1.27
		C41.31,43.03,39.54,39.04,39.85,35.81z M46.43,58.5c-0.2-0.31-0.04-0.83,0.41-1.42c1.36-1.77,2-4.17,2.24-5.34
		c1.91-0.32,4.61-0.88,7.65-1.83c-1.02,5.25-7.19,8.53-8.85,8.92C47.17,58.99,46.61,58.79,46.43,58.5z M52.35,49.16
		c-0.85-1.01-2.76-3.48-4.77-7.43l-0.54-1.19c-1.63-4.11-2.22-7.18-2.42-8.49c3.7-2.62,9.15-5.84,15.22-7.36
		c9.32-2.32,17.55,0.75,19.91,1.77c-0.79,2.45-3.92,10.66-11.82,16.12C62.78,46.15,56.77,48.11,52.35,49.16z"/>
	<path d="M37.99,46.59c-0.5-0.95-1.09-1.75-1.75-2.38c-0.66-0.64-1.36-1.13-2.13-1.5c-0.56-0.27-1.19-0.46-1.88-0.56
		c-0.38-0.06-0.78-0.08-1.21-0.06c-0.32-0.24-0.66-0.47-1.02-0.68c-1.57-0.9-3.18-1.29-4.79-1.16c-2.03,0.16-4.03,1.28-5.5,3.06
		c-1.15,1.4-1.83,3.28-1.87,5.15c-0.02,1.26,0.19,2.45,0.62,3.51c-0.65,0.62-1.27,1.29-1.85,2c-0.89,1.1-1.64,2.29-2.24,3.55
		c-0.7,1.49-1.13,3.09-1.24,4.63c-0.13,1.9,0.18,3.81,0.93,5.66c0.07,0.17,0.14,0.34,0.22,0.51c0.76,1.67,1.83,3.12,3.13,4.22
		c1.16,0.98,2.58,1.7,4.12,2.07c1.37,0.34,2.78,0.45,4.31,0.34c0.63-0.04,1.28-0.13,1.93-0.25c0.47-0.06,4.26-0.61,6.04-3.17
		l1.22-1.76L32.9,70c-0.02,0-1.78,0.18-3.26,0.06c-0.18-0.02-0.39-0.05-0.62-0.09c-0.17-0.03-0.35-0.07-0.55-0.11
		c-0.79-0.2-1.54-0.47-2.21-0.82c-0.51-0.28-0.98-0.61-1.39-0.98c-0.35-0.34-0.67-0.72-0.93-1.12c-0.22-0.38-0.4-0.76-0.53-1.14
		c-0.08-0.3-0.13-0.61-0.15-0.91c0-0.29,0.03-0.59,0.09-0.88c0.1-0.36,0.24-0.73,0.42-1.09c0.28-0.5,0.64-0.99,1.06-1.46
		c0.04-0.05,0.09-0.09,0.13-0.13c0.96,0.78,1.99,1.35,3,1.65c0.82,0.24,1.61,0.33,2.43,0.28c0.79-0.05,1.61-0.3,2.49-0.74
		c0.91-0.46,1.71-1.01,2.35-1.64c0.69-0.67,1.25-1.42,1.69-2.27c0.7-1.36,0.94-2.95,0.65-4.35c0.16-0.25,0.32-0.52,0.47-0.82
		c0.65-1.27,0.93-2.75,0.76-4.18C38.73,48.35,38.44,47.44,37.99,46.59z M34.77,55.06c0.01,0.1,0.02,0.2,0.03,0.3
		c0,0.33-0.04,0.65-0.1,0.97c-0.1,0.37-0.23,0.72-0.4,1.06c-0.23,0.4-0.5,0.78-0.8,1.12c-0.39,0.4-0.83,0.76-1.3,1.06
		c-0.42,0.25-0.87,0.48-1.34,0.64c-0.28,0.07-0.56,0.12-0.84,0.14c-0.3,0-0.61-0.04-0.9-0.1c-0.41-0.11-0.8-0.26-1.18-0.45
		c-0.57-0.32-1.09-0.71-1.57-1.14c0,0,0,0-0.01,0c0.57-0.71,1.92-2.26,3.22-2.79c0,0-3.43-0.15-5.95,2.73c0,0,0,0,0,0
		c-0.28,0.25-0.54,0.51-0.79,0.78c-1.14,1.22-2.03,2.63-2.36,4.28c-0.41,2.04,0.36,4.14,1.65,5.71c0.98,1.19,2.29,2.08,3.71,2.68
		c-0.27,0.03-0.54,0.04-0.81,0.05c-0.88,0.01-1.77-0.06-2.63-0.26c-0.64-0.16-1.27-0.39-1.86-0.7c-0.54-0.3-1.05-0.66-1.52-1.08
		c-0.53-0.5-0.99-1.07-1.38-1.68c-0.5-0.82-0.89-1.7-1.18-2.61c-0.23-0.81-0.37-1.65-0.4-2.5c-0.01-0.81,0.08-1.62,0.26-2.41
		c0.23-0.94,0.59-1.84,1.04-2.7c0.52-0.96,1.15-1.86,1.86-2.7c0.16-0.18,0.32-0.36,0.48-0.54c0.03-0.04,0.07-0.07,0.1-0.11
		c0.33-0.32,3.1-2.95,5.66-3.88c0,0-2.24-0.18-3.96,0.52c-0.19-0.33-0.34-0.69-0.46-1.06c-0.13-0.48-0.21-0.97-0.23-1.47
		c-0.01-0.54,0.05-1.07,0.16-1.6c0.12-0.46,0.28-0.9,0.5-1.32c0.23-0.42,0.51-0.81,0.83-1.16c0.36-0.37,0.76-0.69,1.19-0.97
		c0.37-0.22,0.76-0.41,1.17-0.54c0.37-0.1,0.75-0.16,1.14-0.18c0.39,0,0.78,0.04,1.16,0.12c0.49,0.13,0.96,0.31,1.41,0.54
		c0.17,0.1,0.34,0.2,0.51,0.31c-1.41,1.06-1.88,2.93-1.88,2.93c2.06-2.06,4.54-2.01,5-1.98c0.06,0.01,0.13,0.02,0.19,0.04
		c0.32,0.09,0.63,0.2,0.93,0.35c0.36,0.2,0.69,0.44,1,0.72c0.41,0.4,0.77,0.85,1.08,1.33c0.25,0.42,0.47,0.86,0.62,1.33
		c0.1,0.38,0.17,0.76,0.19,1.15c0,0.16-0.01,0.31-0.02,0.47c-0.06,0.48-0.54,2.83-4.12,5.04C31.82,55.48,33.58,55.75,34.77,55.06z"
		/>
</g>
</svg>
