<?xml version="1.0" encoding="UTF-8"?>
<svg xmlns="http://www.w3.org/2000/svg" xmlns:xlink="http://www.w3.org/1999/xlink" viewBox="0 0 96 96" width="96px" height="96px">
<g id="surface264656217">
<path style=" stroke:none;fill-rule:nonzero;fill:rgb(100%,100%,100%);fill-opacity:1;" d="M 84 55.351562 C 78 62.234375 72 69.117188 66 76 C 61.335938 76 56.664062 76 52 76 C 47.335938 80 42.664062 84 38 88 C 36 88 34 88 32 88 C 32 84 32 80 32 76 C 25.335938 76 18.664062 76 12 76 C 12 61.136719 12 46.273438 12 31.410156 C 14.910156 25.609375 17.816406 19.804688 20.726562 14 C 41.816406 14 62.910156 14 84 14 C 84 27.785156 84 41.566406 84 55.351562 Z M 84 55.351562 "/>
<path style=" stroke:none;fill-rule:nonzero;fill:rgb(98.039216%,98.039216%,98.039216%);fill-opacity:1;" d="M 78 52.738281 C 74.664062 56.492188 71.335938 60.246094 68 64 C 63.335938 64 58.664062 64 54 64 C 49.335938 68 44.664062 72 40 76 C 40 72 40 68 40 64 C 34.664062 63.984375 29.335938 63.96875 24 63.953125 C 24 49.300781 24 34.648438 24 20 C 42 20 60 20 78 20 C 78 30.910156 78 41.824219 78 52.738281 Z M 78 52.738281 "/>
<path style=" stroke:none;fill-rule:nonzero;fill:rgb(100%,100%,100%);fill-opacity:1;" d="M 42 32 L 48 32 L 48 52 L 42 52 Z M 42 32 "/>
<path style=" stroke:none;fill-rule:nonzero;fill:rgb(100%,100%,100%);fill-opacity:1;" d="M 60 32 L 66 32 L 66 52 L 60 52 Z M 60 32 "/>
</g>
</svg>
