<?xml version="1.0" encoding="utf-8"?>
<!-- Generator: Adobe Illustrator 24.0.0, SVG Export Plug-In . SVG Version: 6.00 Build 0)  -->
<svg version="1.1" id="Layer_1" xmlns="http://www.w3.org/2000/svg" xmlns:xlink="http://www.w3.org/1999/xlink" x="0px" y="0px"
	 viewBox="0 0 96 96" style="enable-background:new 0 0 96 96;" xml:space="preserve">
<style type="text/css">
	.st0{fill:#FFFFFF;}
	.st1{fill:#DD1212;}
</style>
<g>
	<circle class="st1" cx="48" cy="48" r="47.96"/>
	<g>
		<path class="st0" d="M69.45,73.17c1.29-1.04,4.01-4.17,4.39-12.13c0.51-10.47-5.32-14.69-5.32-14.69s1.93,6.4-2.18,7.04
			c-1.22-0.15-4.21-0.45-5.71-3.27c-1.5-2.82,2.31-7.54,2.61-14.77c0.3-7.23-7.45-10.21-7.45-10.21c2.68,3.2-0.82,12.22-7.79,8.94
			c-6.98-3.28-1.98-15.43-1.98-15.43c-7.17,2.24-11.16,11.92-7.66,20.05c3.5,8.12-2.76,14.23-6.86,11.42
			c-4.1-2.82-2.09-9.85-2.09-9.85s-7.68,7.82-7.08,18.14c0.51,8.9,3.99,13.05,5.16,14.28c-2.41,1.16-4.7,2.67-6.5,4.64
			c0,0,9.84-6.59,27.01-6.11v0c0,0,0,0,0,0s0,0,0,0v0c17.17-0.47,27.01,6.11,27.01,6.11C73.45,75.62,71.51,74.26,69.45,73.17z
			 M48,51.82L48,51.82L48,51.82L48,51.82L48,51.82c-0.02,0.01-10.04,8.02-5.09,17.1c0,0-7.12,0.29-13.86,3.08
			c-0.91-8.99,6.32-14.44,6.32-14.44c-0.67,3.65,0.67,8.2,0.67,8.2c1.91-9.37,9.98-17.64,12.28-19.84
			c1.72,1.73,9.7,10.22,10.16,18.66c0,0,0.84-5.05,0-8.94c0,0,10.88,5.56,8.86,16.52c-6.85-2.94-14.25-3.24-14.25-3.24
			C58.04,59.83,48.02,51.83,48,51.82z"/>
	</g>
</g>
</svg>
