<?xml version="1.0" encoding="utf-8"?>
<!-- Generator: Adobe Illustrator 24.0.0, SVG Export Plug-In . SVG Version: 6.00 Build 0)  -->
<svg version="1.1" id="Layer_1" xmlns="http://www.w3.org/2000/svg" xmlns:xlink="http://www.w3.org/1999/xlink" x="0px" y="0px"
	 viewBox="0 0 96 96" style="enable-background:new 0 0 96 96;" xml:space="preserve">
<style type="text/css">
	.st0{fill:#FFFFFF;}
	.st1{fill:#57C61C;}
</style>
<g>
	<path class="st0" d="M83.05,89.13c2.1-1.71,6.55-6.82,7.18-19.81c0.83-17.11-8.69-24-8.69-24s3.15,10.46-3.56,11.5
		c-2-0.24-6.87-0.74-9.33-5.34c-2.45-4.6,3.77-12.32,4.26-24.14c0.49-11.81-12.18-16.68-12.18-16.68
		C65.12,15.89,59.4,30.63,48,25.27c-11.4-5.36-3.24-25.21-3.24-25.21C33.04,3.72,26.52,19.55,32.24,32.82
		c5.72,13.27-4.51,23.26-11.2,18.66c-6.7-4.6-3.41-16.1-3.41-16.1S5.09,48.16,6.06,65.03c0.84,14.54,6.52,21.33,8.42,23.33
		c-3.95,1.89-7.68,4.36-10.62,7.58c0,0,16.08-10.77,44.13-9.99v0c0,0,0,0,0,0s0,0,0,0v0c28.06-0.78,44.13,9.99,44.13,9.99
		C89.58,93.14,86.42,90.91,83.05,89.13z M48,54.24L48,54.24L48,54.24L48,54.24L48,54.24c-0.03,0.02-16.4,13.1-8.32,27.94
		c0,0-11.63,0.48-22.64,5.03c-1.49-14.69,10.33-23.59,10.33-23.59c-1.1,5.97,1.1,13.39,1.1,13.39
		c3.12-15.31,16.31-28.83,20.06-32.43c2.81,2.83,15.86,16.7,16.6,30.49c0,0,1.38-8.26,0-14.6c0,0,17.77,9.09,14.47,27
		c-11.2-4.8-23.28-5.3-23.28-5.3C64.4,67.34,48.03,54.27,48,54.24z"/>
</g>
</svg>
