<?xml version="1.0" encoding="utf-8"?>
<!-- Generator: Adobe Illustrator 24.0.0, SVG Export Plug-In . SVG Version: 6.00 Build 0)  -->
<svg version="1.1" id="Layer_1" xmlns="http://www.w3.org/2000/svg" xmlns:xlink="http://www.w3.org/1999/xlink" x="0px" y="0px"
	 viewBox="0 0 256 256" style="enable-background:new 0 0 256 256;" xml:space="preserve">
<style type="text/css">
	.st0{fill:#FFBB24;}
	.st1{fill:#8799A0;}
	.st2{fill:#FFFFFF;}
</style>
<circle cx="128" cy="128" r="127.64"/>
<g>
	<g>
		<g>
			<path class="st2" d="M161.27,114.06c-1.82-4.3-4.42-8.16-7.74-11.48c-3.32-3.32-7.18-5.92-11.48-7.74
				c-4.45-1.88-9.18-2.84-14.06-2.84s-9.6,0.96-14.06,2.84c-4.3,1.82-8.16,4.42-11.48,7.74c-3.32,3.32-5.92,7.18-7.74,11.48
				c-1.88,4.45-2.84,9.18-2.84,14.06c0,4.87,0.96,9.6,2.84,14.06c1.82,4.3,4.42,8.16,7.74,11.48c3.32,3.32,7.18,5.92,11.48,7.74
				c4.45,1.88,9.18,2.84,14.06,2.84c4.87,0,9.6-0.96,14.06-2.84c4.3-1.82,8.16-4.42,11.48-7.74c3.32-3.32,5.92-7.18,7.74-11.48
				c1.88-4.45,2.84-9.18,2.84-14.06C164.11,123.24,163.16,118.51,161.27,114.06z M159.45,128.12c0,17.34-14.11,31.45-31.45,31.45
				s-31.45-14.11-31.45-31.45c0-17.34,14.11-31.45,31.45-31.45S159.45,110.78,159.45,128.12z"/>
		</g>
		<g>
			<path class="st2" d="M128,99.62c-7.61,0-14.77,2.96-20.15,8.35c-5.38,5.38-8.35,12.54-8.35,20.15s2.96,14.77,8.35,20.15
				c5.38,5.38,12.54,8.35,20.15,8.35c7.61,0,14.77-2.96,20.15-8.35c5.38-5.38,8.35-12.54,8.35-20.15s-2.96-14.77-8.35-20.15
				C142.77,102.59,135.61,99.62,128,99.62z M128,154.06c-14.3,0-25.94-11.64-25.94-25.94c0-14.3,11.64-25.94,25.94-25.94
				c14.3,0,25.94,11.64,25.94,25.94C153.94,142.42,142.3,154.06,128,154.06z"/>
		</g>
		<g>
			<path class="st2" d="M131.43,137.07c-0.25-0.22-0.98-0.76-2.17-1.61c-1.28-0.92-2.04-1.52-2.3-1.8
				c-0.19-0.21-0.28-0.43-0.28-0.67c0-0.24,0.13-0.45,0.39-0.63c0.26-0.19,0.6-0.28,1.01-0.28c0.84,0,1.67,0.48,2.49,1.45l2.32-1.75
				c-0.87-0.86-1.67-1.45-2.41-1.77c-0.74-0.32-1.52-0.49-2.35-0.49c-0.05,0-0.1,0-0.15,0v-1.4h-1.7v1.69
				c-0.5,0.17-0.96,0.42-1.37,0.75c-0.87,0.7-1.3,1.53-1.3,2.51c0,0.67,0.26,1.35,0.78,2.03c0.52,0.68,1.68,1.64,3.47,2.89
				c0.94,0.66,1.55,1.14,1.83,1.46c0.28,0.32,0.41,0.64,0.41,0.95c0,0.35-0.18,0.66-0.55,0.93c-0.37,0.27-0.82,0.4-1.36,0.4
				c-1.03,0-1.94-0.62-2.73-1.86l-2.63,1.36c0.62,1.05,1.36,1.82,2.23,2.31c0.85,0.48,1.83,0.72,2.97,0.73v1.58h1.7v-1.74
				c0.79-0.18,1.47-0.5,2.04-0.96c0.93-0.75,1.4-1.7,1.4-2.85c0-0.59-0.13-1.14-0.4-1.64C132.51,138.14,132.06,137.62,131.43,137.07
				z"/>
		</g>
		<g>
			<path class="st2" d="M138.73,118.72l-1.77-1.63l0.25,2.39c0.11,1.1,0.13,4.19-1.11,5.31c-0.43,0.39-1,0.5-1.75,0.35
				c-0.69-0.14-1.14-0.38-1.33-0.71c-0.44-0.78,0.17-2.51,0.77-4.17c0.61-1.7,1.29-3.62,1.29-5.49c0-2.54-0.92-4.93-2.58-6.74
				c-1.69-1.84-3.99-2.87-6.46-2.91l-1.4-0.03l0.54,1.29c0.06,0.14,1.37,3.5-1.15,7.53c-3,4.81-4.13,7.06-4.99,10.65
				c-0.31-1.3-0.44-3.04,0.08-5.06l0.62-2.39l-2.02,1.41c-0.1,0.07-2.36,1.66-4.28,4.86c-1.77,2.94-3.59,7.86-2.2,14.61l0.01,0.04
				c0.94,3.71,3.01,6.8,5.97,8.94c2.94,2.12,6.7,3.24,10.86,3.24c4.09,0,8.03-1.26,11.1-3.56c2.38-1.78,4.11-4.08,5.02-6.63
				c0.14-0.38,1.16-3.25,1.06-7.15C145.17,129.06,143.96,123.52,138.73,118.72z M143.01,137.46l-0.04-0.01
				c-0.09,0.61-0.24,1.21-0.44,1.79c-0.04,0.11-0.06,0.16-0.06,0.17l0,0c-1.86,5.24-7.68,8.98-14.4,8.98
				c-7.7,0-13.33-4.03-15.05-10.78c-1.01-4.91-0.36-9.35,1.93-13.2c0.66-1.11,1.37-2.01,2-2.7c-0.16,3.84,1.54,6.36,1.63,6.48
				l1.25,1.8l0.4-2.16c0.92-5.03,1.52-6.82,5.34-12.94c2.02-3.24,1.95-6.16,1.66-7.8c3.46,0.66,6.01,3.82,6.01,7.7
				c0,1.55-0.6,3.24-1.18,4.87c-0.77,2.15-1.49,4.17-0.64,5.68c0.46,0.81,1.32,1.35,2.55,1.61c1.68,0.34,2.75-0.24,3.35-0.79
				c1.21-1.1,1.61-2.98,1.72-4.5c2.79,3.18,4.27,6.93,4.38,11.19C143.48,134.69,143.25,136.29,143.01,137.46z"/>
		</g>
	</g>
	<path class="st2" d="M211.86,183.39h-4.07v-3.04c0-5.98-4.87-10.85-10.85-10.85h-0.82v-7.46c0-1.71-1.23-3.14-2.86-3.45
		l-1.38-65.02h10.33c2.45,0,4.45-1.99,4.45-4.45v-8.94c2.52-1.95,4.15-4.99,4.15-8.41v-4.2c0-2.53-1.41-4.8-3.67-5.93L128,22.11
		L48.87,61.65c-2.26,1.13-3.67,3.4-3.67,5.93v4.2c0,3.42,1.63,6.46,4.15,8.41v8.94c0,2.45,1.99,4.45,4.45,4.45h10.33l-1.38,65.02
		c-1.62,0.31-2.86,1.74-2.86,3.45v7.46h-0.82c-5.98,0-10.85,4.87-10.85,10.85v3.04h-4.07c-2.79,0-5.06,2.27-5.06,5.06v8.16
		c0,2.79,2.27,5.06,5.06,5.06H128h83.86c2.79,0,5.06-2.27,5.06-5.06v-8.16C216.93,185.66,214.65,183.39,211.86,183.39z M50.83,71.78
		v-4.2c0-0.38,0.21-0.72,0.55-0.9L128,28.4l76.62,38.28c0.34,0.17,0.55,0.51,0.55,0.9v4.2c0,2.76-2.24,5-5,5H55.83
		C53.07,76.78,50.83,74.53,50.83,71.78z M54.97,87.93v-5.57c0.28,0.02,0.57,0.04,0.86,0.04h144.34c0.29,0,0.57-0.02,0.86-0.04v5.57
		h-43.28h-19.31H128h-10.44H98.26H54.97z M190.49,164.15v5.35h-16.72v-5.35H190.49z M176.63,158.52l1.35-64.07h8.28l1.36,64.07
		H176.63z M159.23,157.71l-0.29-13.43c-1.47,2.81-3.32,5.4-5.47,7.7l0.12,5.67h-6.97c-3.75,2.37-7.99,4.05-12.52,4.84v7.01H128h-6.1
		v-7.01c-4.54-0.8-8.77-2.47-12.52-4.84h-6.98l0.12-5.67c-2.15-2.3-4-4.89-5.47-7.7l-0.29,13.44c-1.62,0.31-2.86,1.74-2.86,3.45
		v8.34h-6.05v-7.46c0-1.72-1.24-3.15-2.87-3.45l-1.37-65.02h14.5l-0.36,17.11c1.59-2.75,3.54-5.26,5.79-7.47l0.2-9.64h8.28
		l0.07,3.47c1.78-0.91,3.64-1.68,5.58-2.28l-0.03-1.19h5.39c1.61-0.23,3.25-0.35,4.93-0.35c1.67,0,3.32,0.13,4.93,0.35h5.39
		l-0.03,1.19c1.94,0.6,3.8,1.37,5.58,2.28l0.07-3.47h8.28l0.2,9.63c2.25,2.21,4.2,4.72,5.79,7.47l-0.36-17.1h14.5L171,158.58
		c-1.63,0.31-2.87,1.74-2.87,3.45v7.46h-6.05v-8.34C162.08,159.44,160.85,158.02,159.23,157.71z M156.45,163.27v6.23h-16.72v-6.23
		H156.45z M116.27,163.27v6.23H99.55v-6.23H116.27z M82.24,164.15v5.35H65.51v-5.35H82.24z M68.37,158.52l1.36-64.07h8.28
		l1.35,64.07H68.37z M53.84,180.35c0-2.88,2.34-5.22,5.22-5.22H128h68.94c2.88,0,5.22,2.34,5.22,5.22v3.04H128H53.84V180.35z
		 M211.29,196.05H128H44.71v-7.03h3.5H128h79.79h3.5V196.05z"/>
</g>
</svg>
