<?xml version="1.0" encoding="utf-8"?>
<!-- Generator: Adobe Illustrator 24.0.0, SVG Export Plug-In . SVG Version: 6.00 Build 0)  -->
<svg version="1.1" id="Layer_1" xmlns="http://www.w3.org/2000/svg" xmlns:xlink="http://www.w3.org/1999/xlink" x="0px" y="0px"
	 viewBox="0 0 256 256" style="enable-background:new 0 0 256 256;" xml:space="preserve">
<style type="text/css">
	.st0{fill:#FFBB24;}
	.st1{fill:#8799A0;}
	.st2{fill:#FFFFFF;}
</style>
<g>
	<g>
		<path class="st0" d="M128,82.07H25.39c-6.14,0-11.11-4.98-11.11-11.11v-5.97c0-2.06,1.16-3.93,3-4.85L128,4.81l110.72,55.32
			c1.84,0.92,3,2.8,3,4.85v5.97c0,6.14-4.98,11.11-11.11,11.11H128"/>
	</g>
	<g>
		<rect x="20.17" y="82.07" class="st1" width="215.34" height="14.72"/>
	</g>
	<g>
		<rect x="189.22" y="198.29" class="st0" width="30.6" height="14.36"/>
	</g>
	<g>
		<rect x="141.27" y="198.75" class="st0" width="30.6" height="14.36"/>
	</g>
	<g>
		<rect x="84.73" y="198.29" class="st0" width="30.6" height="14.36"/>
	</g>
	<g>
		<rect x="35.75" y="198.91" class="st0" width="30.6" height="14.36"/>
	</g>
	<g>
		<path class="st0" d="M236.33,232.73H19.66v-7.23c0-5.24,4.24-9.48,9.48-9.48h197.71c5.24,0,9.48,4.24,9.48,9.48V232.73z"/>
	</g>
	<g>
		<rect x="5.57" y="233.66" class="st0" width="244.86" height="18"/>
	</g>
	<g>
		<rect x="195.15" y="99.18" class="st1" width="19.99" height="97.5"/>
	</g>
	<g>
		<rect x="146.04" y="96.79" class="st1" width="21.92" height="100.25"/>
	</g>
	<g>
		<rect x="90.22" y="96.79" class="st1" width="21.1" height="99.89"/>
	</g>
	<g>
		<rect x="41.16" y="97.93" class="st1" width="21.76" height="99.11"/>
	</g>
	<g>
		<path d="M233.51,101.94H128v-8.01h103.83V80.77h8.01v14.85C239.83,99.1,237,101.94,233.51,101.94z"/>
	</g>
	<g>
		<path d="M224.85,213.9h-8.01v-11.61h-23.78v11.61h-8.01v-14.61c0-2.76,2.24-5,5-5h29.78c2.76,0,5,2.24,5,5V213.9z"/>
	</g>
	<g>
		<polygon points="197.04,199.29 189.04,199.12 191.23,95.18 218.68,95.18 220.87,198.2 212.86,198.37 210.84,103.18 199.06,103.18 
					"/>
	</g>
	<g>
		<path d="M176.46,212.65h-8.01v-11.61h-23.78v11.61h-8.01v-14.61c0-2.76,2.24-5,5-5h29.78c2.76,0,5,2.24,5,5V212.65z"/>
	</g>
	<g>
		<polygon points="148.65,198.04 140.65,197.87 142.84,93.93 170.29,93.93 172.48,196.96 164.48,197.13 162.45,101.94 
			150.68,101.94 		"/>
	</g>
	<g>
		<path d="M241.45,237.66H128v-8.01h105.44v-4.33c0-4.09-3.33-7.43-7.43-7.43H128v-8.01h98.02c8.51,0,15.43,6.92,15.43,15.43V237.66
			z"/>
	</g>
	<g>
		<path d="M247.23,255.66H128v-8.01h118.43v-9.99H128v-8.01h119.23c3.97,0,7.2,3.23,7.2,7.2v11.6
			C254.43,252.43,251.2,255.66,247.23,255.66z"/>
	</g>
	<g>
		<path d="M230.61,86.08H25.39c-8.34,0-15.12-6.78-15.12-15.12v-5.97c0-3.6,2-6.83,5.21-8.43L128,0.34l112.51,56.22
			c3.22,1.61,5.21,4.84,5.21,8.43v5.97C245.73,79.29,238.95,86.08,230.61,86.08z M128,9.29L19.07,63.72
			c-0.49,0.24-0.79,0.73-0.79,1.27v5.97c0,3.92,3.19,7.11,7.11,7.11h205.22c3.92,0,7.11-3.19,7.11-7.11v-5.97
			c0-0.54-0.3-1.03-0.79-1.27L128,9.29z"/>
	</g>
	<g>
		<path d="M128,101.94H22.49c-3.49,0-6.32-2.84-6.32-6.32V80.77h8.01v13.16H128V101.94z"/>
	</g>
	<g>
		<path d="M70.94,213.9h-8.01v-11.61H39.16v11.61h-8.01v-14.61c0-2.76,2.24-5,5-5h29.78c2.76,0,5,2.24,5,5V213.9z"/>
	</g>
	<g>
		<polygon points="58.96,199.29 56.94,103.18 45.16,103.18 43.14,198.37 35.13,198.2 37.32,95.18 64.77,95.18 66.96,199.12 		"/>
	</g>
	<g>
		<path d="M119.33,212.65h-8.01v-11.61H87.55v11.61h-8.01v-14.61c0-2.76,2.24-5,5-5h29.78c2.76,0,5,2.24,5,5V212.65z"/>
	</g>
	<g>
		<polygon points="107.35,198.04 105.32,101.94 93.55,101.94 91.52,197.13 83.52,196.96 85.71,93.93 113.16,93.93 115.35,197.87 		
			"/>
	</g>
	<g>
		<path d="M128,237.66H14.55v-12.33c0-8.51,6.92-15.43,15.43-15.43H128v8.01H29.98c-4.09,0-7.43,3.33-7.43,7.43v4.33H128V237.66z"/>
	</g>
	<g>
		<path d="M128,255.66H8.77c-3.97,0-7.2-3.23-7.2-7.2v-11.6c0-3.97,3.23-7.2,7.2-7.2H128v8.01H9.57v9.99H128V255.66z"/>
	</g>
	<g>
		<g>
			<circle class="st0" cx="128" cy="151.07" r="47.5"/>
		</g>
		<g>
			<path d="M175.31,131.08c-2.59-6.11-6.29-11.61-11-16.32c-4.71-4.71-10.21-8.42-16.32-11c-6.33-2.68-13.06-4.04-19.99-4.04
				c-6.93,0-13.65,1.36-19.99,4.04c-6.11,2.59-11.61,6.29-16.32,11c-4.71,4.71-8.42,10.21-11,16.32
				c-2.68,6.33-4.04,13.06-4.04,19.99c0,6.93,1.36,13.65,4.04,19.99c2.59,6.11,6.29,11.61,11,16.32c4.71,4.71,10.2,8.42,16.32,11
				c6.33,2.68,13.06,4.04,19.99,4.04c6.93,0,13.65-1.36,19.99-4.04c6.11-2.59,11.61-6.29,16.32-11c4.71-4.71,8.42-10.2,11-16.32
				c2.68-6.33,4.04-13.06,4.04-19.99C179.35,144.14,177.99,137.41,175.31,131.08z M172.71,151.07c0,24.65-20.06,44.71-44.71,44.71
				s-44.71-20.06-44.71-44.71c0-24.65,20.06-44.71,44.71-44.71S172.71,126.41,172.71,151.07z"/>
		</g>
		<g>
			<path d="M128,110.55c-10.82,0-21,4.21-28.65,11.87c-7.65,7.65-11.87,17.83-11.87,28.65s4.21,21,11.87,28.65
				c7.65,7.65,17.83,11.87,28.65,11.87c10.82,0,21-4.21,28.65-11.87c7.65-7.65,11.87-17.83,11.87-28.65s-4.21-21-11.87-28.65
				C149,114.77,138.82,110.55,128,110.55z M128,187.94c-20.33,0-36.88-16.54-36.88-36.88c0-20.33,16.54-36.88,36.88-36.88
				c20.33,0,36.88,16.54,36.88,36.88C164.88,171.4,148.33,187.94,128,187.94z"/>
		</g>
		<g>
			<path d="M132.87,163.8c-0.36-0.32-1.39-1.08-3.09-2.29c-1.82-1.31-2.9-2.17-3.27-2.56c-0.27-0.3-0.4-0.61-0.4-0.95
				c0-0.33,0.19-0.64,0.56-0.9c0.37-0.27,0.85-0.4,1.43-0.4c1.2,0,2.38,0.69,3.54,2.06l3.3-2.48c-1.23-1.22-2.38-2.06-3.43-2.52
				c-1.06-0.46-2.17-0.69-3.34-0.69c-0.07,0-0.14,0-0.21,0v-1.99h-2.42v2.4c-0.71,0.25-1.36,0.6-1.94,1.07
				c-1.24,0.99-1.85,2.18-1.85,3.56c0,0.96,0.37,1.92,1.12,2.88c0.74,0.96,2.39,2.33,4.94,4.1c1.34,0.93,2.2,1.62,2.6,2.08
				c0.39,0.45,0.59,0.9,0.59,1.36c0,0.5-0.26,0.94-0.78,1.32c-0.52,0.38-1.16,0.57-1.93,0.57c-1.47,0-2.76-0.88-3.89-2.65
				l-3.74,1.93c0.88,1.49,1.94,2.59,3.18,3.28c1.2,0.68,2.61,1.02,4.22,1.04v2.24h2.42v-2.48c1.12-0.25,2.09-0.71,2.9-1.36
				c1.33-1.07,1.99-2.42,1.99-4.06c0-0.84-0.19-1.62-0.57-2.33C134.41,165.32,133.77,164.58,132.87,163.8z"/>
		</g>
		<g>
			<path d="M143.26,137.7l-2.52-2.31l0.35,3.4c0.16,1.56,0.19,5.95-1.57,7.55c-0.61,0.55-1.42,0.71-2.49,0.49
				c-0.98-0.2-1.62-0.54-1.89-1.01c-0.63-1.11,0.25-3.56,1.09-5.93c0.86-2.41,1.84-5.15,1.84-7.8c0-3.61-1.3-7.01-3.67-9.58
				c-2.41-2.61-5.67-4.09-9.19-4.14l-1.98-0.04l0.76,1.83c0.08,0.2,1.94,4.97-1.64,10.71c-4.26,6.83-5.87,10.04-7.09,15.14
				c-0.44-1.85-0.63-4.32,0.12-7.2l0.88-3.39l-2.88,2c-0.14,0.09-3.35,2.36-6.09,6.91c-2.52,4.18-5.11,11.18-3.12,20.77l0.01,0.06
				c1.34,5.28,4.28,9.67,8.48,12.71c4.18,3.02,9.52,4.61,15.45,4.61c5.81,0,11.42-1.8,15.78-5.06c3.39-2.53,5.85-5.8,7.14-9.43
				c0.2-0.54,1.64-4.62,1.51-10.17C152.41,152.41,150.69,144.53,143.26,137.7z M149.34,164.34l-0.06-0.01
				c-0.13,0.87-0.34,1.72-0.62,2.54c-0.05,0.15-0.08,0.23-0.08,0.24l0,0c-2.64,7.44-10.92,12.77-20.48,12.77
				c-10.95,0-18.95-5.73-21.4-15.33c-1.44-6.98-0.51-13.29,2.75-18.77c0.94-1.58,1.95-2.86,2.84-3.84
				c-0.23,5.47,2.19,9.04,2.32,9.22l1.78,2.56l0.56-3.07c1.31-7.15,2.17-9.7,7.6-18.4c2.87-4.6,2.78-8.76,2.36-11.1
				c4.91,0.94,8.55,5.44,8.55,10.95c0,2.2-0.86,4.61-1.68,6.93c-1.09,3.05-2.12,5.94-0.91,8.08c0.65,1.16,1.87,1.93,3.63,2.28
				c2.38,0.48,3.9-0.34,4.76-1.12c1.72-1.56,2.29-4.24,2.44-6.4c3.97,4.52,6.06,9.86,6.23,15.91
				C150.01,160.4,149.69,162.69,149.34,164.34z"/>
		</g>
	</g>
</g>
</svg>
