<?xml version="1.0" encoding="utf-8"?>
<!-- Generator: Adobe Illustrator 24.0.0, SVG Export Plug-In . SVG Version: 6.00 Build 0)  -->
<svg version="1.1" id="Layer_1" xmlns="http://www.w3.org/2000/svg" xmlns:xlink="http://www.w3.org/1999/xlink" x="0px" y="0px"
	 viewBox="0 0 256 256" style="enable-background:new 0 0 256 256;" xml:space="preserve">
<style type="text/css">
	.st0{fill:#FFFFFF;}
</style>
<g>
	<g>
		<circle cx="128" cy="128" r="128"/>
		<g>
			<g>
				<rect x="48.99" y="168.9" class="st0" width="152.04" height="14.65"/>
				<g>
					<path class="st0" d="M195.12,104.66c-1.23,0-2.43-0.11-3.6-0.32v45.5H58.55V88.12h116.66c-0.22-1.2-0.34-2.44-0.34-3.7
						c0-1.58,0.18-3.12,0.53-4.6H50.25v78.33h149.57V104.1C198.31,104.47,196.74,104.66,195.12,104.66z"/>
					<path class="st0" d="M193.03,84.41c0,1.15,0.94,2.09,2.09,2.09c1.15,0,2.09-0.94,2.09-2.09s-0.94-2.09-2.09-2.09
						C193.97,82.32,193.03,83.26,193.03,84.41z"/>
				</g>
				<g>
					<g>
						<path class="st0" d="M201.14,159.47H48.92V78.49h128.14l-0.38,1.62c-0.33,1.4-0.49,2.85-0.49,4.3c0,1.16,0.11,2.32,0.32,3.46
							l0.29,1.57H59.88v59.07h130.31v-45.76l1.56,0.28c2.55,0.46,5.23,0.39,7.76-0.22l1.63-0.39 M51.57,156.82H198.5v-51.1
							c-1.86,0.29-3.78,0.34-5.66,0.15v45.3H57.23V86.79h116.45c-0.09-0.79-0.13-1.59-0.13-2.38c0-1.1,0.08-2.2,0.25-3.28H51.57
							V156.82z"/>
					</g>
					<g>
						<path class="st0" d="M195.12,87.82c-1.88,0-3.41-1.53-3.41-3.41s1.53-3.41,3.41-3.41c1.88,0,3.41,1.53,3.41,3.41
							S197,87.82,195.12,87.82z M195.12,83.65c-0.42,0-0.76,0.34-0.76,0.76c0,0.42,0.34,0.76,0.76,0.76s0.76-0.34,0.76-0.76
							C195.88,83.99,195.54,83.65,195.12,83.65z"/>
					</g>
				</g>
				<circle class="st0" cx="195.12" cy="84.41" r="11.96"/>
			</g>
			<g>
				<path class="st0" d="M97.13,128.59v8.38H72.91V99.33h8.22v29.26H97.13z"/>
				<path class="st0" d="M101.63,99.33h8.27v37.64h-8.27V99.33z"/>
				<path class="st0" d="M149,99.33l-13.15,37.64h-9.28l-13.15-37.64h9.28l8.51,24.38l8.51-24.38H149z"/>
				<path class="st0" d="M160.7,107.71v5.86h16.24v8.38H160.7v6.63h17.89v8.38h-26.15V99.33h26.15v8.38H160.7z"/>
			</g>
		</g>
	</g>
</g>
</svg>
