<?xml version="1.0" encoding="utf-8"?>
<!-- Generator: Adobe Illustrator 24.0.0, SVG Export Plug-In . SVG Version: 6.00 Build 0)  -->
<svg version="1.1" id="Layer_1" xmlns="http://www.w3.org/2000/svg" xmlns:xlink="http://www.w3.org/1999/xlink" x="0px" y="0px"
	 viewBox="0 0 256 256" style="enable-background:new 0 0 256 256;" xml:space="preserve">
<style type="text/css">
	.st0{fill:#FFFFFF;}
</style>
<g>
	<circle class="st0" cx="128" cy="128" r="128"/>
	<g>
		<g>
			<path d="M139.24,208.1h-22.49c-5.5,0-9.97-4.47-9.97-9.97v-7.86c-2.59-0.88-5.2-1.98-7.78-3.26l-5.59,5.59
				c-3.89,3.89-10.21,3.89-14.1,0l-15.9-15.9c-1.88-1.88-2.92-4.39-2.92-7.05c0-2.66,1.04-5.17,2.92-7.05l5.6-5.6
				c-1.24-2.52-2.31-5.11-3.22-7.77h-7.92c-5.5,0-9.97-4.47-9.97-9.97v-22.49c0-5.5,4.47-9.97,9.97-9.97h7.91
				c0.91-2.72,1.99-5.34,3.2-7.8l-5.57-5.57c-1.88-1.88-2.92-4.39-2.92-7.05c0-2.66,1.04-5.17,2.92-7.05l15.9-15.9
				c3.89-3.89,10.21-3.89,14.1,0l5.65,5.65c2.6-1.23,5.21-2.24,7.73-3.12v-8.07c0-5.5,4.47-9.97,9.97-9.97h22.49
				c5.5,0,9.97,4.47,9.97,9.97v7.92c2.66,0.9,5.25,1.98,7.77,3.22l5.6-5.6c3.89-3.89,10.22-3.89,14.1,0l15.9,15.9
				c1.88,1.88,2.92,4.39,2.92,7.05c0,2.66-1.04,5.17-2.92,7.05l-5.6,5.6c1.24,2.52,2.31,5.11,3.22,7.77h7.92
				c5.5,0,9.97,4.47,9.97,9.97v22.49c0,5.5-4.47,9.97-9.97,9.97h-7.92c-0.9,2.66-1.98,5.25-3.22,7.77l5.6,5.6
				c1.88,1.88,2.92,4.39,2.92,7.05c0,2.66-1.04,5.17-2.92,7.05l-15.9,15.9c-3.89,3.89-10.21,3.89-14.1,0l-5.6-5.6
				c-2.52,1.24-5.11,2.31-7.77,3.22v7.92C149.22,203.63,144.74,208.1,139.24,208.1z M121.56,193.32h12.88v-14.46l5.64-1.37
				c5.08-1.23,9.91-3.24,14.37-5.95l4.96-3.02l10.23,10.23l9.1-9.11l-10.23-10.23l3.02-4.96c2.72-4.46,4.72-9.29,5.95-14.37
				l1.37-5.64h14.46v-12.88h-14.46l-1.37-5.64c-1.23-5.08-3.24-9.91-5.95-14.37l-3.02-4.96l10.23-10.23l-9.1-9.11l-10.23,10.23
				l-4.96-3.02c-4.46-2.72-9.29-4.72-14.37-5.95l-5.64-1.37V62.68h-12.88v14.15l-5.26,1.58c-4.93,1.48-10.12,3.24-14.75,6.06
				l-4.96,3.02L86.36,77.26l-9.1,9.11l10.32,10.32l-3.2,5c-2.54,3.98-4.57,8.9-5.87,14.24l-1.37,5.64H62.68v12.88h14.46l1.37,5.64
				c1.23,5.08,3.24,9.91,5.95,14.37l3.02,4.96l-10.23,10.23l9.1,9.1l10.23-10.23l4.96,3.02c4.73,2.88,9.64,4.93,14.19,5.91
				l5.82,1.26V193.32z"/>
		</g>
		<g>
			<path d="M128,157.33c-16.17,0-29.33-13.16-29.33-29.33S111.82,98.67,128,98.67c16.18,0,29.33,13.16,29.33,29.33
				S144.18,157.33,128,157.33z M128,113.44c-8.03,0-14.56,6.53-14.56,14.56s6.53,14.56,14.56,14.56c8.03,0,14.56-6.53,14.56-14.56
				S136.03,113.44,128,113.44z"/>
		</g>
	</g>
</g>
</svg>
