<?xml version="1.0" encoding="utf-8"?>
<!-- Generator: Adobe Illustrator 24.0.0, SVG Export Plug-In . SVG Version: 6.00 Build 0)  -->
<svg version="1.1" id="Layer_1" xmlns="http://www.w3.org/2000/svg" xmlns:xlink="http://www.w3.org/1999/xlink" x="0px" y="0px"
	 viewBox="0 0 256 256" style="enable-background:new 0 0 256 256;" xml:space="preserve">
<style type="text/css">
	.st0{fill:#FFFFFF;}
</style>
<g>
	<g>
		<g>
			<g>
				<g>
					<path d="M254.26,254.51H1.74V33.25h252.52V254.51z M29.04,227.83h197.92V59.93H29.04V227.83z"/>
				</g>
				<g>
					<rect x="15.39" y="46.59" width="225.22" height="39.89"/>
				</g>
				<g>
					<path d="M207.08,47.07h-49.03V6.35h49.03V47.07z M165.63,39.66h33.86V13.77h-33.86V39.66z"/>
				</g>
				<g>
					<path d="M212.33,51.43H152.8V1.99h59.53V51.43z M162.01,42.43h41.11V10.99h-41.11V42.43z"/>
				</g>
				<g>
					<rect x="176.1" y="10.06" width="27.19" height="31.07"/>
				</g>
				<g>
					<path d="M97.95,47.07H48.92V6.35h49.03V47.07z M56.51,39.66h33.86V13.77H56.51V39.66z"/>
				</g>
				<g>
					<path d="M103.2,51.43H43.67V1.99h59.53V51.43z M52.88,42.43h41.11V10.99H52.88V42.43z"/>
				</g>
				<g>
					<rect x="66.97" y="10.06" width="27.19" height="31.07"/>
				</g>
			</g>
			<g>
				<polygon points="128,102.43 144.86,136.59 182.56,142.07 155.28,168.66 161.72,206.21 128,188.48 94.28,206.21 100.72,168.66 
					73.44,142.07 111.14,136.59 				"/>
			</g>
		</g>
	</g>
</g>
</svg>
