<?xml version="1.0" encoding="utf-8"?>
<!-- Generator: Adobe Illustrator 24.0.0, SVG Export Plug-In . SVG Version: 6.00 Build 0)  -->
<svg version="1.1" id="Layer_1" xmlns="http://www.w3.org/2000/svg" xmlns:xlink="http://www.w3.org/1999/xlink" x="0px" y="0px"
	 viewBox="0 0 256 256" style="enable-background:new 0 0 256 256;" xml:space="preserve">
<style type="text/css">
	.st0{fill:#FFFFFF;}
</style>
<circle cx="128" cy="128" r="127.85"/>
<path class="st0" d="M204.96,108.4c-1.64-18.8-10.51-35.83-24.96-47.96c-14.45-12.13-32.77-17.9-51.56-16.26
	c-18.8,1.64-35.83,10.51-47.96,24.96c-12.13,14.45-17.9,32.77-16.26,51.56c1.44,16.5,8.45,31.64,19.92,43.3l-2.93,3.5l-4.2-3.53
	l-23.36,27.84c-4.38,5.22-3.7,13.01,1.52,17.39h0c5.22,4.38,13.01,3.7,17.39-1.52l23.36-27.84l-4.2-3.53l2.93-3.5
	c13.47,9.27,29.6,13.54,46.1,12.1c18.8-1.64,35.83-10.51,47.96-24.96C200.83,145.51,206.61,127.19,204.96,108.4z M176.27,149.53
	c-19.29,22.98-53.67,25.99-76.66,6.71c-22.98-19.29-25.99-53.67-6.71-76.66c19.29-22.98,53.67-25.99,76.66-6.71
	C192.55,92.16,195.56,126.55,176.27,149.53z"/>
</svg>
