<?xml version="1.0" encoding="utf-8"?>
<!-- Generator: Adobe Illustrator 24.0.0, SVG Export Plug-In . SVG Version: 6.00 Build 0)  -->
<svg version="1.1" id="Layer_1" xmlns="http://www.w3.org/2000/svg" xmlns:xlink="http://www.w3.org/1999/xlink" x="0px" y="0px"
	 viewBox="0 0 256 256" style="enable-background:new 0 0 256 256;" xml:space="preserve">
<style type="text/css">
	.st0{fill:#FFFFFF;}
</style>
<g>
	<circle class="st0" cx="128" cy="128" r="127.85"/>
	<g>
		<path d="M127.92,228.05c-6.53,0-12.88-2.43-17.87-6.83c-4.86-4.29-8.11-10.15-9.14-16.49l-1.09-6.7l6.74,0.75
			c10.68,1.19,19.3,1.38,20.24,1.39c0.4-0.01,10.52-0.16,22.43-1.66l6.75-0.85l-1.01,6.73
			C152.95,217.87,141.32,228.05,127.92,228.05z M113.69,209.79c3.18,4.88,8.6,7.95,14.23,7.95c5.73,0,11.21-3.15,14.36-8.13
			c-8.55,0.76-14.73,0.85-15.44,0.85h-0.11C126.12,210.46,121.03,210.37,113.69,209.79z"/>
		<path d="M206.76,151.31c-2.44-7.31-6.45-11.74-9.56-14.23c-1.68-6.6-6.65-26.13-9.39-37.35c-3.14-12.85-5.79-20.99-5.9-21.33
			c-0.03-0.1-0.14-0.43-0.34-0.94l0,0c0,0-0.21-0.95-1.49-3.38c-0.54-1.09-1.2-2.34-2.01-3.69c-1.38-2.3-2.63-4.19-3.95-5.97
			c-0.19-0.26-0.4-0.51-0.6-0.77c-0.04-0.06-0.08-0.11-0.12-0.17c-7.45-10.61-18.31-16.35-18.31-16.35
			c-2.81,2.39-2.28,7.92-1.82,10.62c-0.89-2.92-2.04-6.32-3.95-9.83c-4.06-7.45-9.62-13.17-16.06-16.53
			c-3.77-1.96-7.79-3.1-11.96-3.38c-0.67-0.04-1.35-0.07-2.02-0.07c-3.76,0-7.62,0.69-11.47,2.06l-8.58,3.05l4.55,7.87
			c0.12,0.22,3.07,5.43,4.61,11.27c1.05,3.98,1.71,9.11-1.11,10.95c-0.58,0.38-1.02,0.54-1.3,0.61c-0.19,0.05-0.31,0.06-0.39,0.06
			h-0.31l-0.08,0.03c-0.18-0.14-0.83-0.83-1.14-3.47c-0.52-4.47,0.37-7.37,0.66-8.15l1-2.7l-2.85,0.41
			c-0.3,0.04-7.22,1.05-11.29,3.7c-1.71,0.88-3.41,2.08-5.2,3.67c-5.47,4.85-9.63,12.01-12.33,21.22
			c-0.28,0.87-2.84,8.83-5.86,21.22c-2.85,11.64-8.04,32.05-9.39,37.35c-3.11,2.49-7.12,6.92-9.56,14.23
			c-2.41,7.23-1.15,14.24,3.64,20.28c4.4,5.54,11.94,10.47,23.05,15.06c9.21,3.81,20.82,6.35,34.5,7.54
			c6.95,0.61,12.64,0.7,15.41,0.7c1.1,0,1.86-0.01,2.11-0.02c0.34,0.01,1.09,0.02,2.19,0.02c2.77,0,8.46-0.09,15.41-0.7
			c13.68-1.2,25.29-3.74,34.5-7.54c11.11-4.59,18.65-9.52,23.05-15.06C207.91,165.55,209.17,158.54,206.76,151.31z M79.74,102.55
			c2.98-12.2,5.54-20.12,5.66-20.48l0.03-0.09c2.43-8.31,5.79-12.87,8.28-15.27c0.99,3.08,2.86,5.57,5.44,7.17
			c1.91,1.19,4.13,1.81,6.43,1.81c2.77,0,5.6-0.9,8.2-2.6c4.85-3.17,9.84-9.91,6.07-24.04c-0.91-3.42-2.16-6.59-3.26-9.04
			c0.92-0.13,1.83-0.19,2.72-0.19c10.48,0,16.76,8.64,19.56,13.79c1.68,3.07,2.63,6.29,3.48,9.15c0.87,2.92,1.62,5.44,2.97,7.57
			c1.9,2.98,4.74,4.57,8.21,4.6l0.13,0c2.87,0,5.41-1.02,7.33-2.94c0.67-0.67,1.26-1.45,1.77-2.33c5.7,6.29,7.82,12.38,7.84,12.44
			c0.03,0.08,2.62,8.05,5.65,20.44c2.44,9.98,6.53,26.13,8.95,35.61c-5.75,3.76-26.31,15.62-57.19,15.93
			c-19.13-0.2-34.15-4.86-43.39-8.73c-6.75-2.83-11.47-5.66-13.83-7.2C72.84,130.14,77.18,113.01,79.74,102.55z M193.8,164.2
			c-3.06,3.86-9.21,7.72-18.28,11.47c-16.48,6.81-39.06,7.34-45.59,7.34c-1.12,0-1.76-0.02-1.83-0.02l-0.07,0l-0.16,0
			c-0.04,0-0.68,0.02-1.81,0.02c-6.53,0-29.11-0.53-45.59-7.34c-9.06-3.75-15.21-7.6-18.28-11.47c-2.3-2.9-2.82-5.71-1.68-9.13
			c1.06-3.19,2.55-5.43,3.84-6.91c2.94,1.92,8.09,4.96,15.34,8.03c6.56,2.77,13.51,5,20.67,6.62c8.93,2.02,18.21,3.09,27.6,3.18
			l0.09,0c9.37-0.09,18.64-1.16,27.57-3.18c7.16-1.62,14.12-3.84,20.67-6.62c7.24-3.06,12.4-6.11,15.34-8.03
			c1.29,1.48,2.77,3.72,3.84,6.91C196.62,158.49,196.1,161.3,193.8,164.2z"/>
	</g>
</g>
</svg>
