<?xml version="1.0" encoding="utf-8"?>
<!-- Generator: Adobe Illustrator 24.0.0, SVG Export Plug-In . SVG Version: 6.00 Build 0)  -->
<svg version="1.1" id="Layer_1" xmlns="http://www.w3.org/2000/svg" xmlns:xlink="http://www.w3.org/1999/xlink" x="0px" y="0px"
	 viewBox="0 0 256 256" style="enable-background:new 0 0 256 256;" xml:space="preserve">
<style type="text/css">
	.st0{fill:#FFFFFF;}
</style>
<path class="st0" d="M208.35,1.11H47.65c-25.66,0-46.53,20.88-46.53,46.54v160.7c0,25.66,20.88,46.54,46.53,46.54h160.7
	c25.66,0,46.53-20.88,46.53-46.54V47.65C254.89,21.99,234.01,1.11,208.35,1.11z M208.35,236.81H80.02
	c4.77-13.16,13.91-35.04,27.05-56.88l0,0l0,0c0.49-0.81,0.98-1.62,1.48-2.43c14.66-23.83,37.75-52.76,64.45-55.31
	c15.77-1.5,31.51,2.44,46.78,11.72c8.36,5.08,14.31,10.48,17.03,13.15v61.29C236.81,224.04,224.04,236.81,208.35,236.81z
	 M47.65,236.81c-15.69,0-28.45-12.76-28.45-28.45v-27.98c10.58-15.65,22.43-25.22,31.83-25.68c9.4-0.45,24.61,7.96,42.04,23.18
	c-12.7,22.05-22.26,45.05-26.97,58.94H47.65z M92.44,47.75c-15.12,0-27.56-11.7-28.74-26.52h57.48
	C119.99,36.05,107.55,47.75,92.44,47.75z"/>
</svg>
