<?xml version="1.0" encoding="utf-8"?>
<!-- Generator: Adobe Illustrator 24.0.0, SVG Export Plug-In . SVG Version: 6.00 Build 0)  -->
<svg version="1.1" id="Layer_1" xmlns="http://www.w3.org/2000/svg" xmlns:xlink="http://www.w3.org/1999/xlink" x="0px" y="0px"
	 viewBox="0 0 256 256" style="enable-background:new 0 0 256 256;" xml:space="preserve">
<style type="text/css">
	.st0{fill:#FFFFFF;}
</style>
<circle cx="128" cy="128" r="127.71"/>
<g>
	<path class="st0" d="M163.08,49.98l-1.06-1.35l-1.54-0.62c-0.73-0.29-7.3-2.76-13.78,0.54c-3.77,1.92-6.6,5.24-8.39,9.88
		c-2.58,2.41-9.63,8.25-22.96,14.48c-18.58,8.69-41.26,14.41-67.44,17c-3.72-4.44-8.84-6.38-14.48-5.47
		c-4.07,0.66-7.07,2.58-7.63,2.96l-1.92,1.3l-0.7,2.31c-3.3,10.9-5.08,21.57-5.27,31.71c-0.16,8.24,0.72,16.15,2.61,23.52
		c3.3,12.89,8.68,19.86,8.91,20.15l1.01,1.29l1.46,0.63c2.36,1.02,4.72,1.56,7.02,1.61c3.21,0.07,6.35-0.83,9.09-2.62
		c1.61-1.05,2.86-2.26,3.77-3.3c-0.02,4.32,0.29,8.53,0.93,12.56c0.93,5.85,2.54,11.41,4.79,16.51c3.94,8.93,8.65,13.58,8.85,13.77
		l2.32,2.26l3.09-0.63c4.61-0.93,10.22-4.05,16.68-9.25c4.74-3.82,8.26-7.43,8.65-7.83l5.4-5.58l-6.08-4.7
		c-6.96-5.38-10.94-14.34-12.93-20.18c11.35,0.82,22.4,3.01,32.88,6.52c12.55,4.2,20.84,9.09,24.03,11.15
		c1.36,2.17,4.25,5.77,9.09,7.33c1.39,0.45,2.83,0.69,4.29,0.72c3.72,0.09,7.63-1.18,11.62-3.75l1.33-0.86l0.8-1.42
		c0.42-0.74,10.35-18.43,14.89-43.26c2.69-14.71,2.92-28.9,0.69-42.17C180.29,78.52,173.55,63.29,163.08,49.98z M63.05,159.37
		c2.75-0.2,5.51-0.32,8.25-0.35c0.67,2.75,1.92,7.1,4.01,11.88c2.74,6.29,6.15,11.59,10.14,15.79c-2.95,2.64-8.62,7.37-13.3,9.39
		C68.89,191.7,61.68,179.53,63.05,159.37z M164.64,128.69c1.44-12.68,0.68-25.16-2.26-37.11c-3.74-15.16-10.03-25.55-13.15-30.05
		c0.61-1.06,1.35-1.83,2.21-2.27h0c1.44-0.74,3.12-0.61,4.12-0.42c15.97,21.01,21.36,46.6,16.02,76.09
		c-3.53,19.5-10.95,34.67-12.93,38.48c-2.33,1.3-4.32,1.72-5.91,1.22c-0.81-0.25-1.49-0.74-2.01-1.24
		C158.28,158.47,162.97,143.44,164.64,128.69z M143.2,166.69c-4.44-2.61-12.4-6.77-23.26-10.42c-10.15-3.41-20.78-5.7-31.59-6.79
		c-4.92-0.5-9.89-0.74-14.88-0.74c-7.68,0-15.42,0.59-23.15,1.75c-5.48-14.55-5.93-27.54-5.32-35.96c0.39-5.31,1.23-9.65,1.97-12.63
		c16.18-1.5,31.33-4.19,45.05-8c11.6-3.22,22.22-7.25,31.58-11.97c9.19-4.63,15.4-9.03,19.28-12.22c2.97,4.72,7.49,13.21,10.3,24.79
		C158.77,117.53,155.41,141.8,143.2,166.69z M42.1,157.3c-1.41,0.86-3.01,1.02-4.86,0.47c-3.12-4.91-14.18-25.71-4.12-61.05
		c0.59-0.24,1.31-0.47,2.1-0.59c1.27-0.18,2.28-0.01,3.18,0.55c-0.97,3.34-2.35,9.18-2.93,16.74c-0.53,7.03-0.27,14.16,0.8,21.19
		c1.15,7.62,3.25,15.16,6.24,22.42C42.37,157.13,42.24,157.22,42.1,157.3z"/>
	<path class="st0" d="M233.31,101.92l-1.24,1.65c-0.41,0.55-0.81,1.06-1.2,1.54c-6.63,8.38-11.59,7.63-13.08,4.07
		c-1.5-3.56,2.98-7.85,9.19-9.15c-1.57-1.89-8.17-9.16-17.85-10.33c-4.92-0.38-10.95,0.87-16.83,6.56l-1.78,1.73l0.38,2.54
		c0.03,0.17,2.5,17.21-0.59,30.02l-0.95,3.93l3.49,1.61c0.17,0.08,4.27,1.95,10.14,2.92c2.34,0.39,4.68,0.58,6.95,0.58
		c5.37,0,10.34-1.07,14.79-3.17c4.47-2.11,7.89-5.05,10.18-8.73c1.75-2.83,2.81-6.04,3.14-9.55c0.02-0.17,0.03-0.34,0.04-0.51
		C238.18,115.77,238.16,109.13,233.31,101.92z M200.69,102.12c2.91-2.06,6.08-2.74,9.46-2.03c-1.1,1.61-1.83,3.42-2.14,5.35
		c-0.79,4.95,1.27,10.05,5.38,13.31c3.33,2.64,6.94,3.61,10.72,2.89c1.24-0.24,2.48-0.67,3.69-1.28c-1.12,2.86-3.42,5.08-6.94,6.75
		c-5.86,2.77-12.1,2.54-16.31,1.85c-1.37-0.22-2.73-0.52-4.07-0.9C201.99,118.21,201.33,108.03,200.69,102.12z"/>
</g>
</svg>
