<?xml version="1.0" encoding="UTF-8"?>
<svg xmlns="http://www.w3.org/2000/svg" xmlns:xlink="http://www.w3.org/1999/xlink" viewBox="0 0 256 256" width="256px" height="256px">
<g id="surface264655759">
<path style=" stroke:none;fill-rule:nonzero;fill:rgb(100%,100%,100%);fill-opacity:1;" d="M 224 147.605469 C 208 165.957031 192 184.308594 176 202.667969 C 163.558594 202.667969 151.109375 202.667969 138.667969 202.667969 C 126.222656 213.332031 113.777344 224 101.332031 234.667969 C 96 234.667969 90.667969 234.667969 85.332031 234.667969 C 85.332031 224 85.332031 213.332031 85.332031 202.667969 C 67.558594 202.667969 49.777344 202.667969 32 202.667969 C 32 163.035156 32 123.398438 32 83.765625 C 39.761719 68.289062 47.515625 52.8125 55.273438 37.332031 C 111.515625 37.332031 167.761719 37.332031 224 37.332031 C 224 74.089844 224 110.847656 224 147.605469 Z M 224 147.605469 "/>
<path style=" stroke:none;fill-rule:nonzero;fill:rgb(98.039216%,98.039216%,98.039216%);fill-opacity:1;" d="M 208 140.632812 C 199.109375 150.644531 190.222656 160.65625 181.332031 170.667969 C 168.890625 170.667969 156.441406 170.667969 144 170.667969 C 131.558594 181.332031 119.109375 192 106.667969 202.667969 C 106.667969 192 106.667969 181.332031 106.667969 170.667969 C 92.441406 170.625 78.222656 170.582031 64 170.539062 C 64 131.464844 64 92.398438 64 53.332031 C 112 53.332031 160 53.332031 208 53.332031 C 208 82.433594 208 111.53125 208 140.632812 Z M 208 140.632812 "/>
<path style=" stroke:none;fill-rule:nonzero;fill:rgb(100%,100%,100%);fill-opacity:1;" d="M 112 85.332031 L 128 85.332031 L 128 138.667969 L 112 138.667969 Z M 112 85.332031 "/>
<path style=" stroke:none;fill-rule:nonzero;fill:rgb(100%,100%,100%);fill-opacity:1;" d="M 160 85.332031 L 176 85.332031 L 176 138.667969 L 160 138.667969 Z M 160 85.332031 "/>
</g>
</svg>
