<?xml version="1.0" encoding="UTF-8"?>
<svg xmlns="http://www.w3.org/2000/svg" xmlns:xlink="http://www.w3.org/1999/xlink" viewBox="0 0 96 96" width="96px" height="96px">
<g id="surface12098974">
<path style=" stroke:none;fill-rule:nonzero;fill:rgb(100%,100%,100%);fill-opacity:1;" d="M 86.398438 67.800781 C 85.601562 72 82.199219 75.199219 78 75.800781 C 71.398438 76.800781 60.398438 78 48 78 C 35.800781 78 24.800781 76.800781 18 75.800781 C 13.800781 75.199219 10.398438 72 9.601562 67.800781 C 8.800781 63.199219 8 56.398438 8 48 C 8 39.601562 8.800781 32.800781 9.601562 28.199219 C 10.398438 24 13.800781 20.800781 18 20.199219 C 24.601562 19.199219 35.601562 18 48 18 C 60.398438 18 71.199219 19.199219 78 20.199219 C 82.199219 20.800781 85.601562 24 86.398438 28.199219 C 87.199219 32.800781 88.199219 39.601562 88.199219 48 C 88 56.398438 87.199219 63.199219 86.398438 67.800781 Z M 86.398438 67.800781 "/>
<path style=" stroke:none;fill-rule:nonzero;fill:rgb(0%,0%,0%);fill-opacity:1;" d="M 40 62 L 40 34 L 64 48 Z M 40 62 "/>
</g>
</svg>
