<?xml version="1.0" encoding="utf-8"?>
<!-- Generator: Adobe Illustrator 24.0.0, SVG Export Plug-In . SVG Version: 6.00 Build 0)  -->
<svg version="1.1" id="Layer_1" xmlns="http://www.w3.org/2000/svg" xmlns:xlink="http://www.w3.org/1999/xlink" x="0px" y="0px"
	 viewBox="0 0 48 48" style="enable-background:new 0 0 48 48;" xml:space="preserve">
<style type="text/css">
	.st0{fill:#FFBB24;}
	.st1{fill:#8799A0;}
	.st2{fill:#FFFFFF;}
</style>
<g>
	<g>
		<g>
			<path class="st2" d="M32.86,24.58c-0.48-1.15-1.18-2.17-2.06-3.06c-0.88-0.88-1.91-1.58-3.06-2.06c-1.19-0.5-2.45-0.76-3.74-0.76
				s-2.56,0.25-3.74,0.76c-1.15,0.48-2.17,1.18-3.06,2.06c-0.88,0.88-1.58,1.91-2.06,3.06c-0.5,1.19-0.76,2.45-0.76,3.74
				c0,1.3,0.25,2.56,0.76,3.74c0.48,1.15,1.18,2.17,2.06,3.06c0.88,0.88,1.91,1.58,3.06,2.06c1.19,0.5,2.45,0.76,3.74,0.76
				c1.3,0,2.56-0.25,3.75-0.76c1.15-0.48,2.17-1.18,3.06-2.06c0.88-0.88,1.58-1.91,2.06-3.06c0.5-1.19,0.76-2.45,0.76-3.74
				C33.62,27.02,33.37,25.76,32.86,24.58z M32.38,28.32c0,4.62-3.76,8.38-8.38,8.38s-8.38-3.76-8.38-8.38
				c0-4.62,3.76-8.38,8.38-8.38S32.38,23.7,32.38,28.32z"/>
		</g>
		<g>
			<path class="st2" d="M24,20.73c-2.03,0-3.93,0.79-5.37,2.22c-1.43,1.43-2.22,3.34-2.22,5.37s0.79,3.93,2.22,5.37
				c1.43,1.43,3.34,2.22,5.37,2.22c2.03,0,3.93-0.79,5.37-2.22c1.43-1.43,2.22-3.34,2.22-5.37s-0.79-3.93-2.22-5.37
				C27.93,21.52,26.03,20.73,24,20.73z M24,35.23c-3.81,0-6.91-3.1-6.91-6.91c0-3.81,3.1-6.91,6.91-6.91c3.81,0,6.91,3.1,6.91,6.91
				C30.91,32.13,27.81,35.23,24,35.23z"/>
		</g>
		<g>
			<path class="st2" d="M24.91,30.71c-0.07-0.06-0.26-0.2-0.58-0.43c-0.34-0.25-0.54-0.41-0.61-0.48c-0.05-0.06-0.07-0.12-0.07-0.18
				c0-0.06,0.03-0.12,0.1-0.17c0.07-0.05,0.16-0.07,0.27-0.07c0.22,0,0.45,0.13,0.66,0.39l0.62-0.47c-0.23-0.23-0.45-0.39-0.64-0.47
				c-0.2-0.09-0.41-0.13-0.62-0.13c-0.01,0-0.03,0-0.04,0v-0.37h-0.45v0.45c-0.13,0.05-0.25,0.11-0.36,0.2
				c-0.23,0.19-0.35,0.41-0.35,0.67c0,0.18,0.07,0.36,0.21,0.54c0.14,0.18,0.45,0.44,0.93,0.77c0.25,0.17,0.41,0.3,0.49,0.39
				c0.07,0.08,0.11,0.17,0.11,0.25c0,0.09-0.05,0.18-0.15,0.25c-0.1,0.07-0.22,0.11-0.36,0.11c-0.27,0-0.52-0.17-0.73-0.5l-0.7,0.36
				c0.17,0.28,0.36,0.48,0.6,0.62c0.23,0.13,0.49,0.19,0.79,0.2v0.42h0.45v-0.46c0.21-0.05,0.39-0.13,0.54-0.26
				c0.25-0.2,0.37-0.45,0.37-0.76c0-0.16-0.04-0.3-0.11-0.44C25.2,30.99,25.08,30.85,24.91,30.71z"/>
		</g>
		<g>
			<path class="st2" d="M26.86,25.82l-0.47-0.43l0.07,0.64c0.03,0.29,0.04,1.12-0.29,1.41c-0.11,0.1-0.27,0.13-0.47,0.09
				c-0.18-0.04-0.3-0.1-0.35-0.19c-0.12-0.21,0.05-0.67,0.2-1.11c0.16-0.45,0.34-0.96,0.34-1.46c0-0.68-0.24-1.31-0.69-1.8
				c-0.45-0.49-1.06-0.77-1.72-0.78l-0.37-0.01l0.14,0.34c0.02,0.04,0.36,0.93-0.31,2.01c-0.8,1.28-1.1,1.88-1.33,2.84
				c-0.08-0.35-0.12-0.81,0.02-1.35l0.16-0.64l-0.54,0.37c-0.03,0.02-0.63,0.44-1.14,1.3c-0.47,0.78-0.96,2.1-0.59,3.89l0,0.01
				c0.25,0.99,0.8,1.81,1.59,2.38c0.78,0.57,1.78,0.86,2.89,0.86c1.09,0,2.14-0.34,2.96-0.95c0.63-0.47,1.1-1.09,1.34-1.77
				c0.04-0.1,0.31-0.87,0.28-1.91C28.57,28.57,28.25,27.1,26.86,25.82z M28,30.81l-0.01,0c-0.03,0.16-0.06,0.32-0.12,0.48
				c-0.01,0.03-0.02,0.04-0.02,0.04l0,0c-0.49,1.39-2.05,2.39-3.84,2.39c-2.05,0-3.55-1.07-4.01-2.87c-0.27-1.31-0.1-2.49,0.52-3.52
				c0.18-0.3,0.37-0.54,0.53-0.72c-0.04,1.02,0.41,1.69,0.43,1.73l0.33,0.48l0.11-0.58c0.25-1.34,0.41-1.82,1.42-3.45
				c0.54-0.86,0.52-1.64,0.44-2.08c0.92,0.18,1.6,1.02,1.6,2.05c0,0.41-0.16,0.86-0.32,1.3c-0.2,0.57-0.4,1.11-0.17,1.51
				c0.12,0.22,0.35,0.36,0.68,0.43c0.45,0.09,0.73-0.06,0.89-0.21c0.32-0.29,0.43-0.79,0.46-1.2c0.74,0.85,1.14,1.85,1.17,2.98
				C28.12,30.07,28.06,30.5,28,30.81z"/>
		</g>
	</g>
	<path class="st2" d="M46.34,43.05h-1.08v-0.81c0-1.59-1.3-2.89-2.89-2.89h-0.22v-1.99c0-0.46-0.33-0.84-0.76-0.92l-0.37-17.32h2.75
		c0.65,0,1.18-0.53,1.18-1.18v-2.38c0.67-0.52,1.1-1.33,1.1-2.24v-1.12c0-0.67-0.37-1.28-0.98-1.58L24,0.08L2.92,10.61
		c-0.6,0.3-0.98,0.91-0.98,1.58v1.12c0,0.91,0.43,1.72,1.1,2.24v2.38c0,0.65,0.53,1.18,1.18,1.18h2.75L6.61,36.44
		c-0.43,0.08-0.76,0.46-0.76,0.92v1.99H5.63c-1.59,0-2.89,1.3-2.89,2.89v0.81H1.66c-0.74,0-1.35,0.61-1.35,1.35v2.17
		c0,0.74,0.61,1.35,1.35,1.35H24h22.34c0.74,0,1.35-0.61,1.35-1.35V44.4C47.69,43.65,47.08,43.05,46.34,43.05z M3.44,13.31v-1.12
		c0-0.1,0.06-0.19,0.15-0.24L24,1.76l20.41,10.2c0.09,0.05,0.15,0.14,0.15,0.24v1.12c0,0.73-0.6,1.33-1.33,1.33H4.77
		C4.04,14.64,3.44,14.05,3.44,13.31z M4.55,17.62v-1.48c0.08,0.01,0.15,0.01,0.23,0.01h38.45c0.08,0,0.15-0.01,0.23-0.01v1.48H31.92
		h-5.14H24h-2.78h-5.14H4.55z M40.65,37.92v1.43h-4.46v-1.43H40.65z M36.96,36.42l0.36-17.07h2.21l0.36,17.07H36.96z M32.32,36.2
		l-0.08-3.58c-0.39,0.75-0.88,1.44-1.46,2.05l0.03,1.51h-1.86c-1,0.63-2.13,1.08-3.34,1.29v1.87H24h-1.62v-1.87
		c-1.21-0.21-2.34-0.66-3.34-1.29h-1.86l0.03-1.51c-0.57-0.61-1.06-1.3-1.46-2.05l-0.08,3.58c-0.43,0.08-0.76,0.46-0.76,0.92v2.22
		h-1.61v-1.99c0-0.46-0.33-0.84-0.76-0.92l-0.36-17.32h3.86l-0.1,4.56c0.42-0.73,0.94-1.4,1.54-1.99l0.05-2.57h2.21l0.02,0.92
		c0.47-0.24,0.97-0.45,1.49-0.61l-0.01-0.32h1.44c0.43-0.06,0.87-0.09,1.31-0.09c0.45,0,0.88,0.03,1.31,0.09h1.44l-0.01,0.32
		c0.52,0.16,1.01,0.36,1.49,0.61l0.02-0.92h2.21l0.05,2.57c0.6,0.59,1.12,1.26,1.54,1.99l-0.1-4.56h3.86l-0.36,17.32
		c-0.43,0.08-0.76,0.46-0.76,0.92v1.99h-1.61v-2.22C33.08,36.67,32.75,36.29,32.32,36.2z M31.58,37.69v1.66h-4.46v-1.66H31.58z
		 M20.88,37.69v1.66h-4.46v-1.66H20.88z M11.81,37.92v1.43H7.35v-1.43H11.81z M8.12,36.42l0.36-17.07h2.21l0.36,17.07H8.12z
		 M4.24,42.24c0-0.77,0.62-1.39,1.39-1.39H24h18.37c0.77,0,1.39,0.62,1.39,1.39v0.81H24H4.24V42.24z M46.19,46.42H24H1.81v-1.87
		h0.93H24h21.26h0.93V46.42z"/>
</g>
</svg>
