<?xml version="1.0" encoding="utf-8"?>
<!-- Generator: Adobe Illustrator 24.0.0, SVG Export Plug-In . SVG Version: 6.00 Build 0)  -->
<svg version="1.1" id="Layer_1" xmlns="http://www.w3.org/2000/svg" xmlns:xlink="http://www.w3.org/1999/xlink" x="0px" y="0px"
	 viewBox="0 0 48 48" style="enable-background:new 0 0 48 48;" xml:space="preserve">
<style type="text/css">
	.st0{fill:#FFBB24;}
	.st1{fill:#8799A0;}
	.st2{fill:#FFFFFF;}
</style>
<g>
	<g>
		<g>
			<path d="M32.8,24.57c-0.48-1.14-1.17-2.16-2.05-3.04c-0.88-0.88-1.9-1.57-3.03-2.05c-1.18-0.5-2.43-0.75-3.72-0.75
				s-2.54,0.25-3.72,0.75c-1.14,0.48-2.16,1.17-3.04,2.05c-0.88,0.88-1.57,1.9-2.05,3.04c-0.5,1.18-0.75,2.43-0.75,3.72
				c0,1.29,0.25,2.54,0.75,3.72c0.48,1.14,1.17,2.16,2.05,3.04c0.88,0.88,1.9,1.57,3.04,2.05c1.18,0.5,2.43,0.75,3.72,0.75
				c1.29,0,2.54-0.25,3.72-0.75c1.14-0.48,2.16-1.17,3.03-2.05c0.88-0.88,1.57-1.9,2.05-3.04c0.5-1.18,0.75-2.43,0.75-3.72
				C33.55,27,33.3,25.75,32.8,24.57z M32.32,28.29c0,4.59-3.73,8.32-8.32,8.32s-8.32-3.73-8.32-8.32c0-4.58,3.73-8.32,8.32-8.32
				S32.32,23.7,32.32,28.29z"/>
		</g>
		<g>
			<path d="M24,20.75c-2.01,0-3.9,0.78-5.33,2.21c-1.42,1.42-2.21,3.32-2.21,5.33s0.78,3.9,2.21,5.33c1.42,1.42,3.32,2.21,5.33,2.21
				c2.01,0,3.9-0.78,5.33-2.21c1.42-1.42,2.21-3.32,2.21-5.33s-0.78-3.9-2.21-5.33C27.9,21.54,26.01,20.75,24,20.75z M24,35.15
				c-3.78,0-6.86-3.08-6.86-6.86c0-3.78,3.08-6.86,6.86-6.86c3.78,0,6.86,3.08,6.86,6.86C30.86,32.07,27.78,35.15,24,35.15z"/>
		</g>
		<g>
			<path d="M24.91,30.66c-0.07-0.06-0.26-0.2-0.57-0.43c-0.34-0.24-0.54-0.4-0.61-0.48c-0.05-0.06-0.07-0.11-0.07-0.18
				c0-0.06,0.03-0.12,0.1-0.17c0.07-0.05,0.16-0.07,0.27-0.07c0.22,0,0.44,0.13,0.66,0.38l0.61-0.46c-0.23-0.23-0.44-0.38-0.64-0.47
				c-0.2-0.09-0.4-0.13-0.62-0.13c-0.01,0-0.03,0-0.04,0v-0.37h-0.45v0.45c-0.13,0.05-0.25,0.11-0.36,0.2
				c-0.23,0.18-0.34,0.41-0.34,0.66c0,0.18,0.07,0.36,0.21,0.54c0.14,0.18,0.44,0.43,0.92,0.76c0.25,0.17,0.41,0.3,0.48,0.39
				c0.07,0.08,0.11,0.17,0.11,0.25c0,0.09-0.05,0.17-0.15,0.24c-0.1,0.07-0.22,0.11-0.36,0.11c-0.27,0-0.51-0.16-0.72-0.49
				l-0.7,0.36c0.16,0.28,0.36,0.48,0.59,0.61c0.22,0.13,0.49,0.19,0.78,0.19v0.42h0.45v-0.46c0.21-0.05,0.39-0.13,0.54-0.25
				c0.25-0.2,0.37-0.45,0.37-0.75c0-0.16-0.04-0.3-0.11-0.43C25.19,30.94,25.07,30.8,24.91,30.66z"/>
		</g>
		<g>
			<path d="M26.84,25.8l-0.47-0.43l0.07,0.63c0.03,0.29,0.04,1.11-0.29,1.4c-0.11,0.1-0.26,0.13-0.46,0.09
				c-0.18-0.04-0.3-0.1-0.35-0.19c-0.12-0.21,0.05-0.66,0.2-1.1c0.16-0.45,0.34-0.96,0.34-1.45c0-0.67-0.24-1.3-0.68-1.78
				c-0.45-0.49-1.05-0.76-1.71-0.77l-0.37-0.01l0.14,0.34c0.02,0.04,0.36,0.93-0.3,1.99c-0.79,1.27-1.09,1.87-1.32,2.82
				c-0.08-0.34-0.12-0.8,0.02-1.34l0.16-0.63l-0.54,0.37c-0.03,0.02-0.62,0.44-1.13,1.29c-0.47,0.78-0.95,2.08-0.58,3.86l0,0.01
				c0.25,0.98,0.8,1.8,1.58,2.36c0.78,0.56,1.77,0.86,2.87,0.86c1.08,0,2.12-0.33,2.94-0.94c0.63-0.47,1.09-1.08,1.33-1.75
				c0.04-0.1,0.31-0.86,0.28-1.89C28.54,28.54,28.22,27.07,26.84,25.8z M27.97,30.76l-0.01,0c-0.02,0.16-0.06,0.32-0.12,0.47
				c-0.01,0.03-0.02,0.04-0.02,0.04l0,0c-0.49,1.38-2.03,2.37-3.81,2.37c-2.04,0-3.52-1.07-3.98-2.85c-0.27-1.3-0.1-2.47,0.51-3.49
				c0.17-0.29,0.36-0.53,0.53-0.71c-0.04,1.02,0.41,1.68,0.43,1.71l0.33,0.48l0.1-0.57c0.24-1.33,0.4-1.8,1.41-3.42
				c0.53-0.86,0.52-1.63,0.44-2.06c0.91,0.17,1.59,1.01,1.59,2.04c0,0.41-0.16,0.86-0.31,1.29c-0.2,0.57-0.39,1.1-0.17,1.5
				c0.12,0.22,0.35,0.36,0.68,0.42c0.44,0.09,0.73-0.06,0.88-0.21c0.32-0.29,0.43-0.79,0.45-1.19c0.74,0.84,1.13,1.83,1.16,2.96
				C28.09,30.03,28.03,30.45,27.97,30.76z"/>
		</g>
	</g>
	<path d="M46.17,42.91H45.1V42.1c0-1.58-1.29-2.87-2.87-2.87h-0.22v-1.97c0-0.45-0.33-0.83-0.76-0.91l-0.37-17.19h2.73
		c0.65,0,1.18-0.53,1.18-1.18v-2.36c0.67-0.51,1.1-1.32,1.1-2.22v-1.11c0-0.67-0.37-1.27-0.97-1.57L24,0.26L3.08,10.71
		c-0.6,0.3-0.97,0.9-0.97,1.57v1.11c0,0.9,0.43,1.71,1.1,2.22v2.36c0,0.65,0.53,1.18,1.18,1.18h2.73L6.74,36.34
		c-0.43,0.08-0.76,0.46-0.76,0.91v1.97H5.77c-1.58,0-2.87,1.29-2.87,2.87v0.81H1.83c-0.74,0-1.34,0.6-1.34,1.34v2.16
		c0,0.74,0.6,1.34,1.34,1.34H24h22.17c0.74,0,1.34-0.6,1.34-1.34v-2.16C47.51,43.51,46.91,42.91,46.17,42.91z M3.59,13.39v-1.11
		c0-0.1,0.06-0.19,0.15-0.24L24,1.92l20.26,10.12c0.09,0.05,0.15,0.14,0.15,0.24v1.11c0,0.73-0.59,1.32-1.32,1.32H4.92
		C4.19,14.71,3.59,14.12,3.59,13.39z M4.69,17.66v-1.47c0.07,0.01,0.15,0.01,0.23,0.01h38.17c0.08,0,0.15-0.01,0.23-0.01v1.47H31.86
		h-5.11H24h-2.76h-5.11H4.69z M40.52,37.82v1.41H36.1v-1.41H40.52z M36.86,36.33l0.36-16.94h2.19l0.36,16.94H36.86z M32.26,36.11
		l-0.08-3.55c-0.39,0.74-0.88,1.43-1.45,2.04l0.03,1.5h-1.84c-0.99,0.63-2.11,1.07-3.31,1.28v1.85H24h-1.61v-1.85
		c-1.2-0.21-2.32-0.65-3.31-1.28h-1.84l0.03-1.5c-0.57-0.61-1.06-1.29-1.45-2.04l-0.08,3.55c-0.43,0.08-0.76,0.46-0.76,0.91v2.2
		h-1.6v-1.97c0-0.45-0.33-0.83-0.76-0.91l-0.36-17.19h3.84l-0.1,4.52c0.42-0.73,0.94-1.39,1.53-1.98l0.05-2.55h2.19l0.02,0.92
		c0.47-0.24,0.96-0.44,1.48-0.6l-0.01-0.32h1.43c0.43-0.06,0.86-0.09,1.3-0.09s0.88,0.03,1.3,0.09h1.42l-0.01,0.31
		c0.51,0.16,1.01,0.36,1.48,0.6l0.02-0.92h2.19l0.05,2.55c0.6,0.58,1.11,1.25,1.53,1.97l-0.1-4.52h3.84l-0.36,17.19
		c-0.43,0.08-0.76,0.46-0.76,0.91v1.97h-1.6v-2.2C33.01,36.57,32.69,36.2,32.26,36.11z M31.52,37.58v1.65H27.1v-1.65H31.52z
		 M20.9,37.58v1.65h-4.42v-1.65H20.9z M11.9,37.82v1.41H7.48v-1.41H11.9z M8.23,36.33l0.36-16.94h2.19l0.36,16.94H8.23z M4.39,42.1
		c0-0.76,0.62-1.38,1.38-1.38H24h18.23c0.76,0,1.38,0.62,1.38,1.38v0.81H24H4.39V42.1z M46.02,46.25H24H1.98v-1.86H2.9H24h21.1h0.93
		V46.25z"/>
</g>
</svg>
