<?xml version="1.0" encoding="utf-8"?>
<!-- Generator: Adobe Illustrator 24.0.0, SVG Export Plug-In . SVG Version: 6.00 Build 0)  -->
<svg version="1.1" id="Layer_1" xmlns="http://www.w3.org/2000/svg" xmlns:xlink="http://www.w3.org/1999/xlink" x="0px" y="0px"
	 viewBox="0 0 48 48" style="enable-background:new 0 0 48 48;" xml:space="preserve">
<style type="text/css">
	.st0{fill:#FFFFFF;}
</style>
<g>
	<circle cx="24" cy="24" r="23.97"/>
	<path class="st0" d="M40.34,17.1c-0.89-2.11-2.17-4.01-3.8-5.64c-1.63-1.63-3.52-2.91-5.64-3.8c-2.19-0.93-4.51-1.39-6.9-1.39
		s-4.72,0.47-6.9,1.39c-2.11,0.89-4.01,2.17-5.64,3.8c-1.63,1.63-2.91,3.52-3.8,5.64c-0.93,2.19-1.39,4.51-1.39,6.9
		c0,2.39,0.47,4.72,1.39,6.9c0.89,2.11,2.17,4.01,3.8,5.64c1.63,1.63,3.52,2.91,5.64,3.8c2.19,0.93,4.51,1.39,6.9,1.39
		s4.72-0.47,6.9-1.39c2.11-0.89,4.01-2.17,5.64-3.8c1.63-1.63,2.91-3.52,3.8-5.64c0.93-2.19,1.39-4.51,1.39-6.9
		C41.73,21.61,41.27,19.28,40.34,17.1z M38.46,29.37c-1.27,0.88-2.8,1.63-4.54,2.22c0.47-2.13,0.75-4.44,0.8-6.82h4.69
		C39.33,26.38,39,27.92,38.46,29.37z M8.59,24.77h4.69c0.05,2.42,0.33,4.75,0.82,6.91c-1.69-0.55-3.21-1.25-4.47-2.08
		C9.03,28.09,8.67,26.46,8.59,24.77z M9.62,18.4c1.27-0.83,2.78-1.53,4.48-2.08c-0.49,2.16-0.77,4.5-0.82,6.91H8.59
		C8.67,21.54,9.03,19.91,9.62,18.4z M24.77,14.88c2.65,0.06,5.18,0.42,7.45,1.02c0.57,2.25,0.91,4.74,0.96,7.34h-8.41V14.88z
		 M24.77,13.34V8.59c1.68,0.08,3.3,0.44,4.8,1.02c0.86,1.29,1.59,2.84,2.16,4.59C29.56,13.69,27.21,13.4,24.77,13.34z M23.23,13.34
		c-2.42,0.04-4.77,0.32-6.94,0.8c0.57-1.72,1.29-3.26,2.14-4.53c1.5-0.58,3.11-0.94,4.8-1.02V13.34z M23.23,14.87v8.36h-8.41
		c0.06-2.62,0.39-5.13,0.98-7.4C18.08,15.25,20.6,14.92,23.23,14.87z M14.82,24.77h8.41v8.36c-2.63-0.05-5.16-0.38-7.44-0.96
		C15.21,29.91,14.87,27.39,14.82,24.77z M23.23,34.66v4.75c-1.68-0.08-3.3-0.44-4.8-1.02c-0.85-1.27-1.58-2.81-2.15-4.53
		C18.46,34.34,20.81,34.62,23.23,34.66z M24.77,34.66c2.44-0.06,4.8-0.35,6.97-0.86c-0.57,1.75-1.3,3.3-2.17,4.59
		c-1.5,0.58-3.11,0.94-4.8,1.02V34.66z M24.77,33.12v-8.35h8.41c-0.05,2.6-0.39,5.09-0.96,7.33C29.95,32.7,27.42,33.05,24.77,33.12z
		 M34.72,23.23c-0.05-2.38-0.33-4.69-0.8-6.83c1.74,0.59,3.28,1.34,4.55,2.22c0.54,1.44,0.87,2.99,0.95,4.6H34.72z M37.28,16.15
		c-1.15-0.58-2.43-1.08-3.8-1.49c-0.4-1.38-0.88-2.67-1.45-3.83C34.18,12.14,35.98,13.97,37.28,16.15z M15.98,10.82
		c-0.56,1.14-1.04,2.4-1.43,3.76c-1.34,0.38-2.59,0.85-3.72,1.39C12.11,13.88,13.88,12.11,15.98,10.82z M10.83,32.03
		c1.13,0.54,2.38,1.01,3.72,1.39c0.39,1.35,0.87,2.61,1.43,3.75C13.88,35.89,12.11,34.12,10.83,32.03z M32.03,37.17
		c0.57-1.16,1.05-2.45,1.45-3.83c1.37-0.41,2.65-0.91,3.8-1.49C35.99,34.02,34.18,35.85,32.03,37.17z"/>
</g>
</svg>
