<?xml version="1.0" encoding="utf-8"?>
<!-- Generator: Adobe Illustrator 24.0.0, SVG Export Plug-In . SVG Version: 6.00 Build 0)  -->
<svg version="1.1" id="Layer_1" xmlns="http://www.w3.org/2000/svg" xmlns:xlink="http://www.w3.org/1999/xlink" x="0px" y="0px"
	 viewBox="0 0 48 48" style="enable-background:new 0 0 48 48;" xml:space="preserve">
<style type="text/css">
	.st0{fill:#FFFFFF;}
</style>
<g>
	<circle cx="24" cy="24" r="23.77"/>
	<g>
		<path class="st0" d="M34.63,36.47c0.64-0.52,1.99-2.07,2.18-6.01c0.25-5.19-2.64-7.28-2.64-7.28s0.96,3.17-1.08,3.49
			c-0.61-0.07-2.08-0.22-2.83-1.62c-0.74-1.4,1.14-3.74,1.29-7.32s-3.69-5.06-3.69-5.06c1.33,1.59-0.41,6.06-3.86,4.43
			c-3.46-1.62-0.98-7.64-0.98-7.64c-3.55,1.11-5.53,5.91-3.79,9.93c1.74,4.02-1.37,7.05-3.4,5.66c-2.03-1.4-1.03-4.88-1.03-4.88
			s-3.8,3.88-3.51,8.99c0.25,4.41,1.98,6.47,2.55,7.07c-1.2,0.57-2.33,1.32-3.22,2.3c0,0,4.88-3.26,13.38-3.03v0c0,0,0,0,0,0
			s0,0,0,0v0c8.51-0.24,13.38,3.03,13.38,3.03C36.61,37.69,35.65,37.01,34.63,36.47z M24,25.89L24,25.89L24,25.89L24,25.89L24,25.89
			c-0.01,0.01-4.97,3.97-2.52,8.47c0,0-3.53,0.15-6.87,1.53c-0.45-4.46,3.13-7.15,3.13-7.15c-0.33,1.81,0.33,4.06,0.33,4.06
			c0.95-4.64,4.94-8.74,6.08-9.83c0.85,0.86,4.81,5.06,5.03,9.25c0,0,0.42-2.5,0-4.43c0,0,5.39,2.76,4.39,8.19
			c-3.4-1.46-7.06-1.61-7.06-1.61C28.97,29.86,24.01,25.9,24,25.89z"/>
	</g>
</g>
</svg>
