<?xml version="1.0" encoding="utf-8"?>
<!-- Generator: Adobe Illustrator 24.0.0, SVG Export Plug-In . SVG Version: 6.00 Build 0)  -->
<svg version="1.1" id="Layer_1" xmlns="http://www.w3.org/2000/svg" xmlns:xlink="http://www.w3.org/1999/xlink" x="0px" y="0px"
	 viewBox="0 0 48 48" style="enable-background:new 0 0 48 48;" xml:space="preserve">
<style type="text/css">
	.st0{fill:#FFFFFF;}
</style>
<g>
	<g>
		<g>
			<path d="M24.01,28.64c-1.07,0-1.83-0.19-1.95-0.22c-1.04-0.23-1.99-0.64-2.81-1.22c-1.25-0.87-2.79-2.56-3.04-5.62
				c-0.41-4.99,2.93-7.77,3.07-7.89l0.87-0.7c0.83-2.56-0.11-5.9-0.12-5.93l-0.2-0.7l0.91,0.25c0.07,0.02,1.74,0.49,3.82,1.86
				c1.91,1.26,4.52,3.55,6.13,7.31c0.08,0.17,0.15,0.34,0.22,0.52l0.01,0.01l0.45,1.28c0.56,1.93,0.62,3.74,0.15,5.37
				c-0.24,0.83-0.6,1.61-1.09,2.31c-1.7,2.63-4.21,3.28-6.02,3.35l-0.14,0C24.18,28.64,24.09,28.64,24.01,28.64
				C24.01,28.64,24.01,28.64,24.01,28.64z M20.88,13.34l-0.03,0.12l-1.07,0.87c-0.13,0.1-3.15,2.62-2.77,7.19
				c0.23,2.75,1.59,4.25,2.7,5.02c0.74,0.52,1.59,0.88,2.53,1.09l0.02,0c0.03,0.01,0.74,0.19,1.76,0.19c0,0,0,0,0,0
				c0.08,0,0.15,0,0.23,0l0.11,0c1.62-0.06,3.87-0.64,5.39-2.99c0.44-0.63,0.77-1.33,0.98-2.07c0.45-1.6,0.36-3.4-0.28-5.34
				c-0.09-0.26-0.18-0.52-0.29-0.79l-0.01-0.04c-0.06-0.16-0.13-0.31-0.2-0.47l-0.01-0.02c-1.53-3.58-4.02-5.75-5.83-6.95
				c-1.34-0.89-2.51-1.38-3.13-1.6c0.25,1.2,0.62,3.68-0.08,5.76L20.88,13.34z"/>
		</g>
		<g>
			<path d="M38.34,41.15H9.66l5.62-15.43l1.82,1.87c2.24,2.3,6.92,2.43,6.96,2.43c0.44,0,4.5-0.04,6.83-2.43l1.82-1.87L38.34,41.15z
				 M10.83,40.34h26.34l-4.78-13.12l-0.91,0.94c-2.57,2.64-6.94,2.68-7.42,2.68c-0.21,0-5.07-0.14-7.54-2.68l-0.91-0.94L10.83,40.34
				z M34.82,38.69H13.18l3.11-8.55l0.43,0.28c3.05,1.98,7.15,2.05,7.32,2.06c0.7,0.01,4.33-0.07,7.24-2.03l0.43-0.29L34.82,38.69z
				 M14.34,37.88h19.32L31.3,31.4c-3.02,1.83-6.56,1.9-7.27,1.89c-0.18,0-4.14-0.08-7.32-1.92L14.34,37.88z"/>
		</g>
		<g>
			<g>
				<path d="M30.83,17.28c-0.09-0.27-0.19-0.54-0.3-0.81l0,0l-0.01-0.02c-0.07-0.17-0.14-0.33-0.21-0.5l0-0.01
					c-1.57-3.67-4.12-5.91-5.98-7.13c-2.02-1.33-3.64-1.79-3.71-1.81l-0.21-0.06c0,0,1.01,3.51,0.09,6.24
					c-0.01,0.02-0.01,0.03-0.02,0.05l-0.96,0.78c-0.14,0.11-3.32,2.75-2.92,7.54c0.24,2.9,1.69,4.5,2.87,5.32
					c0.78,0.55,1.68,0.94,2.68,1.15c0.09,0.02,0.82,0.2,1.86,0.2c0.08,0,0.16,0,0.24,0l0.03,0c0.02,0,0.04,0,0.06,0l0.02,0
					c1.72-0.07,4.1-0.68,5.72-3.18c0.46-0.66,0.81-1.39,1.03-2.18C31.59,21.18,31.5,19.3,30.83,17.28z M26.49,24.96L26.49,24.96
					c-0.55,0.35-1.19,0.59-1.89,0.67c-0.11,0.01-0.22,0.02-0.33,0.03c0,0.01,0,0.01,0,0.01c-2.33,0.06-4.97-1.02-5.25-4.46
					c-0.29-3.52,2.02-5.39,2.02-5.39c-0.38,1.37,0.03,1.92,0.03,1.92c2.09-3.08,1.83-6.66,1.83-6.66c3.81,2.07,2.92,5.5,2.92,5.5
					c1.03-0.93,0.81-2.42,0.81-2.42C32.03,22.38,26.49,24.96,26.49,24.96z"/>
			</g>
			<g>
				<path d="M37.75,40.74H10.25l5.2-14.27l1.37,1.4c2.36,2.42,7.11,2.55,7.25,2.55c0.5,0,4.69-0.05,7.13-2.55l1.37-1.4L37.75,40.74z
					 M13.76,38.28h20.48l-2.73-7.5c-2.98,2.01-6.67,2.11-7.48,2.1c-0.21,0-4.4-0.09-7.54-2.12L13.76,38.28z"/>
			</g>
		</g>
		<path d="M0,0v48h48V0H0z M5.13,42.87V5.13h37.74v37.74H5.13z"/>
	</g>
</g>
</svg>
