<?xml version="1.0" encoding="utf-8"?>
<!-- Generator: Adobe Illustrator 24.0.0, SVG Export Plug-In . SVG Version: 6.00 Build 0)  -->
<svg version="1.1" id="Layer_1" xmlns="http://www.w3.org/2000/svg" xmlns:xlink="http://www.w3.org/1999/xlink" x="0px" y="0px"
	 viewBox="0 0 48 48" style="enable-background:new 0 0 48 48;" xml:space="preserve">
<style type="text/css">
	.st0{fill:#FFFFFF;}
</style>
<g>
	<circle cx="24" cy="24" r="24"/>
	<g>
		<g>
			<path class="st0" d="M26.11,39.02h-4.22c-1.03,0-1.87-0.84-1.87-1.87v-1.47c-0.49-0.17-0.98-0.37-1.46-0.61l-1.05,1.05
				c-0.73,0.73-1.92,0.73-2.64,0l-2.98-2.98c-0.35-0.35-0.55-0.82-0.55-1.32c0-0.5,0.19-0.97,0.55-1.32l1.05-1.05
				c-0.23-0.47-0.43-0.96-0.6-1.46h-1.49c-1.03,0-1.87-0.84-1.87-1.87v-4.22c0-1.03,0.84-1.87,1.87-1.87h1.48
				c0.17-0.51,0.37-1,0.6-1.46l-1.04-1.04c-0.35-0.35-0.55-0.82-0.55-1.32c0-0.5,0.19-0.97,0.55-1.32l2.98-2.98
				c0.73-0.73,1.91-0.73,2.64,0l1.06,1.06c0.49-0.23,0.98-0.42,1.45-0.58v-1.51c0-1.03,0.84-1.87,1.87-1.87h4.22
				c1.03,0,1.87,0.84,1.87,1.87v1.49c0.5,0.17,0.98,0.37,1.46,0.6l1.05-1.05c0.73-0.73,1.92-0.73,2.64,0l2.98,2.98
				c0.35,0.35,0.55,0.82,0.55,1.32c0,0.5-0.19,0.97-0.55,1.32l-1.05,1.05c0.23,0.47,0.43,0.96,0.6,1.46h1.49
				c1.03,0,1.87,0.84,1.87,1.87v4.22c0,1.03-0.84,1.87-1.87,1.87h-1.49c-0.17,0.5-0.37,0.98-0.6,1.46l1.05,1.05
				c0.35,0.35,0.55,0.82,0.55,1.32c0,0.5-0.19,0.97-0.55,1.32l-2.98,2.98c-0.73,0.73-1.91,0.73-2.64,0l-1.05-1.05
				c-0.47,0.23-0.96,0.43-1.46,0.6v1.49C27.98,38.18,27.14,39.02,26.11,39.02z M22.79,36.25h2.41v-2.71l1.06-0.26
				c0.95-0.23,1.86-0.61,2.69-1.12l0.93-0.57l1.92,1.92l1.71-1.71l-1.92-1.92l0.57-0.93c0.51-0.84,0.88-1.74,1.12-2.69l0.26-1.06
				h2.71v-2.41h-2.71l-0.26-1.06c-0.23-0.95-0.61-1.86-1.12-2.69l-0.57-0.93l1.92-1.92l-1.71-1.71l-1.92,1.92l-0.93-0.57
				c-0.84-0.51-1.74-0.88-2.69-1.12l-1.06-0.26v-2.71h-2.41v2.65l-0.99,0.3c-0.92,0.28-1.9,0.61-2.77,1.14l-0.93,0.57l-1.92-1.92
				l-1.71,1.71l1.93,1.93l-0.6,0.94c-0.48,0.75-0.86,1.67-1.1,2.67l-0.26,1.06h-2.71v2.41h2.71l0.26,1.06
				c0.23,0.95,0.61,1.86,1.12,2.69l0.57,0.93l-1.92,1.92l1.71,1.71l1.92-1.92l0.93,0.57c0.89,0.54,1.81,0.92,2.66,1.11l1.09,0.24
				V36.25z"/>
		</g>
		<g>
			<path class="st0" d="M24,29.5c-3.03,0-5.5-2.47-5.5-5.5s2.47-5.5,5.5-5.5c3.03,0,5.5,2.47,5.5,5.5S27.03,29.5,24,29.5z M24,21.27
				c-1.5,0-2.73,1.22-2.73,2.73s1.22,2.73,2.73,2.73c1.51,0,2.73-1.22,2.73-2.73S25.51,21.27,24,21.27z"/>
		</g>
	</g>
</g>
</svg>
