<?xml version="1.0" encoding="utf-8"?>
<!-- Generator: Adobe Illustrator 24.0.0, SVG Export Plug-In . SVG Version: 6.00 Build 0)  -->
<svg version="1.1" id="Layer_1" xmlns="http://www.w3.org/2000/svg" xmlns:xlink="http://www.w3.org/1999/xlink" x="0px" y="0px"
	 viewBox="0 0 48 48" style="enable-background:new 0 0 48 48;" xml:space="preserve">
<style type="text/css">
	.st0{fill:#FFFFFF;}
</style>
<g>
	<g>
		<g>
			<path d="M27.37,48h-6.74c-1.65,0-2.99-1.34-2.99-2.99v-2.36c-0.78-0.26-1.56-0.59-2.33-0.98l-1.67,1.67
				c-1.17,1.16-3.06,1.16-4.23,0l-4.76-4.76c-0.56-0.56-0.88-1.31-0.88-2.11c0-0.8,0.31-1.55,0.88-2.11l1.68-1.68
				c-0.37-0.75-0.69-1.53-0.96-2.33H2.99C1.34,30.36,0,29.02,0,27.37v-6.74c0-1.65,1.34-2.99,2.99-2.99h2.37
				c0.27-0.82,0.6-1.6,0.96-2.34l-1.67-1.67c-0.56-0.56-0.88-1.31-0.88-2.11c0-0.8,0.31-1.55,0.88-2.11l4.76-4.76
				c1.16-1.16,3.06-1.16,4.23,0l1.69,1.69c0.78-0.37,1.56-0.67,2.32-0.93V2.99c0-1.65,1.34-2.99,2.99-2.99h6.74
				c1.65,0,2.99,1.34,2.99,2.99v2.37c0.8,0.27,1.57,0.59,2.33,0.96l1.68-1.68c1.17-1.16,3.06-1.16,4.23,0l4.76,4.76
				c0.56,0.56,0.88,1.31,0.88,2.11c0,0.8-0.31,1.55-0.88,2.11l-1.68,1.68c0.37,0.75,0.69,1.53,0.96,2.33h2.37
				c1.65,0,2.99,1.34,2.99,2.99v6.74c0,1.65-1.34,2.99-2.99,2.99h-2.37c-0.27,0.8-0.59,1.57-0.96,2.33l1.68,1.68
				c0.56,0.56,0.88,1.31,0.88,2.11c0,0.8-0.31,1.55-0.88,2.11l-4.76,4.76c-1.16,1.16-3.06,1.16-4.23,0l-1.68-1.68
				c-0.75,0.37-1.53,0.69-2.33,0.96v2.37C30.36,46.66,29.02,48,27.37,48z M22.07,43.57h3.86v-4.33l1.69-0.41
				c1.52-0.37,2.97-0.97,4.31-1.78l1.49-0.91l3.06,3.06l2.73-2.73l-3.06-3.06l0.91-1.49c0.81-1.34,1.41-2.78,1.78-4.31l0.41-1.69
				h4.33v-3.86h-4.33l-0.41-1.69c-0.37-1.52-0.97-2.97-1.78-4.31l-0.91-1.49l3.06-3.06L36.48,8.8l-3.06,3.06l-1.49-0.91
				c-1.34-0.81-2.78-1.41-4.31-1.78l-1.69-0.41V4.43h-3.86v4.24l-1.58,0.47c-1.48,0.44-3.03,0.97-4.42,1.81l-1.49,0.91L11.52,8.8
				L8.8,11.52l3.09,3.09l-0.96,1.5c-0.76,1.19-1.37,2.67-1.76,4.27l-0.41,1.69H4.43v3.86h4.33l0.41,1.69
				c0.37,1.52,0.97,2.97,1.78,4.31l0.91,1.49L8.8,36.48l2.73,2.73l3.06-3.06l1.49,0.91c1.42,0.86,2.89,1.48,4.25,1.77l1.75,0.38
				V43.57z"/>
		</g>
		<g>
			<path d="M24,32.79c-4.85,0-8.79-3.94-8.79-8.79s3.94-8.79,8.79-8.79c4.85,0,8.79,3.94,8.79,8.79S28.85,32.79,24,32.79z M24,19.64
				c-2.4,0-4.36,1.96-4.36,4.36s1.96,4.36,4.36,4.36c2.41,0,4.36-1.96,4.36-4.36S26.4,19.64,24,19.64z"/>
		</g>
	</g>
</g>
</svg>
