<?xml version="1.0" encoding="utf-8"?>
<!-- Generator: Adobe Illustrator 24.0.0, SVG Export Plug-In . SVG Version: 6.00 Build 0)  -->
<svg version="1.1" id="Layer_1" xmlns="http://www.w3.org/2000/svg" xmlns:xlink="http://www.w3.org/1999/xlink" x="0px" y="0px"
	 viewBox="0 0 48 48" style="enable-background:new 0 0 48 48;" xml:space="preserve">
<style type="text/css">
	.st0{fill:#FFFFFF;}
</style>
<g>
	<circle class="st0" cx="24" cy="24" r="24"/>
	<g>
		<g>
			<path d="M36.2,19.48c-0.34-2.65-1.98-4.21-4.54-4.39c-0.34-0.73-0.76-1.4-1.24-2.02c-1.59-2.02-3.74-3.13-6.03-3.13
				c-2.3,0-4.44,1.11-6.03,3.13c-0.49,0.62-0.9,1.29-1.24,2.02c-2.56,0.17-4.2,1.74-4.54,4.39c-0.18,1.41,0.25,2.83,1.18,3.89
				c0.88,1,2.13,1.57,3.44,1.57c0.46,0,0.88-0.21,1.17-0.58c0.3-0.39,0.4-0.91,0.27-1.38c-0.23-0.86-0.35-1.77-0.35-2.69
				c0-3.82,2.04-7.03,4.76-7.85C23,12.36,22.99,12.27,23,12.19c0.01-0.11,0.03-0.21,0.05-0.31c0.01-0.04,0.02-0.09,0.03-0.13
				c0-0.02,0.01-0.05,0.01-0.07c0-0.01,0-0.05,0-0.01c0-0.01,0-0.02,0-0.03c0.01-0.1,0.07-0.17,0.17-0.18
				c-0.02-0.19-0.05-0.39-0.09-0.58c-0.05-0.22,0.29-0.32,0.35-0.1c0.06,0.27,0.09,0.55,0.12,0.83c0.02-0.02,0.05-0.04,0.08-0.05
				c0.09-0.03,0.2,0.03,0.22,0.13c0.04,0.19,0.05,0.37,0.05,0.56c0.13-0.01,0.27-0.02,0.41-0.02c3.38,0,6.13,3.61,6.13,8.06
				c0,0.92-0.12,1.83-0.35,2.69c-0.13,0.48-0.03,1,0.27,1.38c0.28,0.37,0.71,0.58,1.17,0.58c1.3,0,2.56-0.57,3.44-1.58
				C35.95,22.32,36.38,20.9,36.2,19.48z M16.15,22.42c-0.26-0.13-0.5-0.32-0.7-0.55c-0.5-0.56-0.73-1.33-0.63-2.09
				c0.15-1.18,0.6-1.89,1.44-2.21c-0.19,0.88-0.29,1.79-0.29,2.73C15.98,21.01,16.04,21.72,16.15,22.42z M33.31,21.86
				c-0.2,0.23-0.44,0.42-0.7,0.55c0.12-0.7,0.18-1.41,0.18-2.13c0-0.93-0.1-1.85-0.29-2.73c0.84,0.32,1.29,1.03,1.44,2.21
				C34.04,20.54,33.81,21.3,33.31,21.86z"/>
		</g>
		<g>
			<path d="M30.88,18c-0.08-0.26-0.18-0.51-0.28-0.77l0,0l-0.01-0.02c-0.06-0.16-0.13-0.32-0.2-0.47l0-0.01
				c-1.49-3.49-3.91-5.61-5.68-6.78c-1.92-1.26-3.46-1.7-3.52-1.71l-0.2-0.06c0,0,0.96,3.34,0.09,5.92
				c-0.01,0.02-0.01,0.03-0.02,0.05l-0.91,0.74c-0.13,0.1-3.15,2.61-2.77,7.16c0.23,2.76,1.61,4.27,2.72,5.05
				c0.74,0.52,1.6,0.89,2.54,1.1c0.09,0.02,0.78,0.19,1.77,0.19c0.08,0,0.15,0,0.23,0l0.03,0c0.02,0,0.04,0,0.05,0l0.02,0
				c1.63-0.07,3.9-0.64,5.43-3.02c0.44-0.63,0.77-1.32,0.98-2.08C31.6,21.7,31.51,19.92,30.88,18z M26.76,25.29L26.76,25.29
				c-0.53,0.33-1.13,0.56-1.79,0.63c-0.11,0.01-0.21,0.02-0.32,0.02c0,0.01,0,0.01,0,0.01c-2.21,0.06-4.72-0.96-4.99-4.24
				c-0.28-3.34,1.92-5.12,1.92-5.12c-0.36,1.3,0.03,1.83,0.03,1.83c1.98-2.93,1.74-6.33,1.74-6.33c3.61,1.97,2.77,5.22,2.77,5.22
				c0.98-0.88,0.77-2.3,0.77-2.3C32.02,22.83,26.76,25.29,26.76,25.29z"/>
			<g>
				<path d="M35.07,38.37H13.69l0.02-1.11c0.11-6.67,3.57-9.19,3.72-9.29l0.77-0.54l0.65,0.67c1.21,1.25,3.28,1.99,5.53,1.99
					s4.32-0.75,5.53-1.99l0.65-0.67l0.77,0.54c0.15,0.1,3.61,2.62,3.72,9.29L35.07,38.37z M15.96,36.18h16.85
					c-0.2-2.27-0.84-3.82-1.39-4.76c-0.27-0.46-0.53-0.82-0.76-1.08c-1.62,1.23-3.89,1.94-6.28,1.94s-4.66-0.71-6.28-1.94
					c-0.23,0.26-0.49,0.62-0.76,1.08C16.8,32.37,16.15,33.92,15.96,36.18z"/>
			</g>
		</g>
		<path d="M19.18,14.45c-0.49,0.6-0.95,1.24-1.23,1.96c-0.17,0.43-0.27,0.9-0.15,1.34c1.07-0.95,2.14-1.91,3.22-2.86
			c0.2-0.17,0.39-0.35,0.55-0.56c0.37-0.51,0.75-1.8-0.26-1.85C20.5,12.44,19.63,13.89,19.18,14.45z"/>
	</g>
</g>
</svg>
