<?xml version="1.0" encoding="utf-8"?>
<!-- Generator: Adobe Illustrator 24.0.0, SVG Export Plug-In . SVG Version: 6.00 Build 0)  -->
<svg version="1.1" id="Layer_1" xmlns="http://www.w3.org/2000/svg" xmlns:xlink="http://www.w3.org/1999/xlink" x="0px" y="0px"
	 viewBox="0 0 48 48" style="enable-background:new 0 0 48 48;" xml:space="preserve">
<style type="text/css">
	.st0{fill:#FFFFFF;}
</style>
<g>
	<circle class="st0" cx="24" cy="24" r="24"/>
	<g>
		<g>
			<g>
				<path d="M38.8,36.83H18.67v-0.11c-0.52-0.12-0.99-0.49-1.21-1.02l-0.2-0.47L9.37,34.8V17.43c0-0.72,0.51-1.35,1.22-1.5
					c0.71-0.14,1.43,0.23,1.71,0.9l5.42,12.56V11.16H38.8V36.83z M20.49,34.08h15.55V13.92H20.49V34.08z M12.13,32.19l3.9,0.21
					l-3.9-9.04V32.19z M9.77,17.91C9.77,17.91,9.77,17.91,9.77,17.91L9.77,17.91z"/>
			</g>
			<path d="M17.61,11.16l-0.01,3.91H9.2l0.02,19.8h3.06V24.06l5.03,11.56c0.28,0.65,0.9,1.05,1.58,1.05c0.12,0,0.24-0.01,0.36-0.04
				c0.82-0.17,1.39-0.87,1.39-1.7l0.04-23.77L17.61,11.16z M13.19,17.91l4.41-0.07l-0.02,10.73L13.19,17.91z"/>
			<g>
				<path d="M17.12,35.21l0.81,1.63h5.56c0,0-5.52-2.56-5.58-2.54s-0.82,0.83-0.82,0.83"/>
			</g>
			<g>
				<rect x="28.3" y="17.06" width="5.73" height="2.03"/>
			</g>
			<g>
				<rect x="23.34" y="21.09" width="10.69" height="2.03"/>
			</g>
			<g>
				<rect x="23.34" y="25.12" width="10.69" height="2.03"/>
			</g>
			<g>
				<rect x="23.34" y="29.15" width="10.69" height="2.03"/>
			</g>
		</g>
	</g>
</g>
</svg>
