<?xml version="1.0" encoding="utf-8"?>
<!-- Generator: Adobe Illustrator 24.0.0, SVG Export Plug-In . SVG Version: 6.00 Build 0)  -->
<svg version="1.1" id="Layer_1" xmlns="http://www.w3.org/2000/svg" xmlns:xlink="http://www.w3.org/1999/xlink" x="0px" y="0px"
	 viewBox="0 0 48 48" style="enable-background:new 0 0 48 48;" xml:space="preserve">
<style type="text/css">
	.st0{fill:#FFFFFF;}
</style>
<g>
	<g>
		<g>
			<path d="M31.85,33.52h-6.29V9.21L15.05,4.83h16.8v11.03h5.56V-0.02H0v37.88v0.24v0.19l25.57,9.74v-9.65h11.85v-14.9h-5.56V33.52z
				 M5.56,34.95V6.25l14.45,6.02v28.28L5.56,34.95z"/>
			<polygon points="48,19.67 40.34,13.95 40.34,17.47 28.27,17.47 28.27,21.87 40.34,21.87 40.34,25.38 			"/>
		</g>
		<g>
			<path d="M8.62,27.64c0.36-1.46,1.81-2.16,1.81-2.16c-0.24,0.9,0,2.13,0,2.13c0.38-2.83,2.43-3.71,2.43-3.71s2.04,2.29,2.43,5.38
				c0,0,0.24-1.07,0-2.13c0,0,1.45,1.7,1.81,3.41l1.2,0.41c0.43-1.28,0.73-3.31-0.61-5.31c0,0-0.14,1.63-1.01,1.13
				c-0.87-0.5-0.94-1.47-0.39-2.72c0.54-1.24,0.21-3.67-1.76-4.71c0,0,0.53,2.56-1.09,2.02c-1.61-0.54-1.64-3.03-0.94-4.01
				c0,0-1.8-0.15-2.11,1.55c-0.31,1.7,0.91,3.76,0.33,4.6c-0.58,0.84-2.58,0.21-2.07-2.37c0,0-1.25,0.33-1.58,2.25
				c-0.19,1.12,0.07,2.65,0.38,3.83L8.62,27.64z"/>
			<path d="M12.86,25.86c-1.75,0.42-1.38,2.24-1.22,2.82l2.44,0.84C14.24,29.05,14.61,27.49,12.86,25.86z"/>
		</g>
	</g>
</g>
</svg>
