<?xml version="1.0" encoding="utf-8"?>
<!-- Generator: Adobe Illustrator 24.0.0, SVG Export Plug-In . SVG Version: 6.00 Build 0)  -->
<svg version="1.1" id="Layer_1" xmlns="http://www.w3.org/2000/svg" xmlns:xlink="http://www.w3.org/1999/xlink" x="0px" y="0px"
	 viewBox="0 0 48 48" style="enable-background:new 0 0 48 48;" xml:space="preserve">
<style type="text/css">
	.st0{fill:#FFFFFF;}
</style>
<g>
	<path class="st0" d="M23.98,47.96c-1.56,0-3.08-0.58-4.28-1.64c-1.16-1.03-1.94-2.43-2.19-3.95l-0.26-1.6l1.61,0.18
		c2.56,0.28,4.62,0.33,4.85,0.33c0.1,0,2.52-0.04,5.37-0.4l1.62-0.2l-0.24,1.61C29.98,45.52,27.19,47.96,23.98,47.96z M20.57,43.59
		c0.76,1.17,2.06,1.9,3.41,1.9c1.37,0,2.68-0.75,3.44-1.95c-2.05,0.18-3.53,0.2-3.7,0.2h-0.03C23.55,43.75,22.33,43.73,20.57,43.59z
		"/>
	<path class="st0" d="M42.86,29.58c-0.58-1.75-1.55-2.81-2.29-3.41c-0.4-1.58-1.59-6.26-2.25-8.94c-0.75-3.08-1.39-5.03-1.41-5.11
		c-0.01-0.02-0.03-0.1-0.08-0.22l0,0c0,0-0.05-0.23-0.36-0.81c-0.13-0.26-0.29-0.56-0.48-0.88c-0.33-0.55-0.63-1-0.95-1.43
		C35,8.71,34.95,8.65,34.9,8.59c-0.01-0.01-0.02-0.03-0.03-0.04c-1.78-2.54-4.38-3.92-4.38-3.92c-0.67,0.57-0.55,1.9-0.43,2.54
		c-0.21-0.7-0.49-1.51-0.95-2.35c-0.97-1.79-2.3-3.15-3.85-3.96c-0.9-0.47-1.87-0.74-2.87-0.81c-0.16-0.01-0.32-0.02-0.48-0.02
		c-0.9,0-1.82,0.17-2.75,0.49l-2.05,0.73l1.09,1.88c0.03,0.05,0.74,1.3,1.1,2.7c0.25,0.95,0.41,2.18-0.27,2.62
		c-0.14,0.09-0.24,0.13-0.31,0.14c-0.04,0.01-0.08,0.01-0.09,0.01h-0.07l-0.02,0.01c-0.04-0.03-0.2-0.2-0.27-0.83
		c-0.13-1.07,0.09-1.76,0.16-1.95l0.24-0.65l-0.68,0.1c-0.07,0.01-1.73,0.25-2.7,0.89c-0.41,0.21-0.82,0.5-1.25,0.88
		c-1.31,1.16-2.31,2.88-2.95,5.08c-0.07,0.21-0.68,2.12-1.4,5.08C9,20.02,7.75,24.9,7.43,26.17c-0.74,0.6-1.71,1.66-2.29,3.41
		c-0.58,1.73-0.28,3.41,0.87,4.86c1.05,1.33,2.86,2.51,5.52,3.61c2.21,0.91,4.99,1.52,8.26,1.81c1.66,0.15,3.03,0.17,3.69,0.17
		c0.26,0,0.44,0,0.51-0.01c0.08,0,0.26,0.01,0.52,0.01c0.66,0,2.03-0.02,3.69-0.17c3.28-0.29,6.06-0.9,8.26-1.81
		c2.66-1.1,4.47-2.28,5.52-3.61C43.14,32.99,43.44,31.31,42.86,29.58z M12.44,17.9c0.71-2.92,1.33-4.82,1.36-4.9l0.01-0.02
		c0.58-1.99,1.39-3.08,1.98-3.66c0.24,0.74,0.69,1.33,1.3,1.72c0.46,0.28,0.99,0.43,1.54,0.43c0.66,0,1.34-0.21,1.96-0.62
		c1.16-0.76,2.36-2.37,1.45-5.76c-0.22-0.82-0.52-1.58-0.78-2.17c0.22-0.03,0.44-0.05,0.65-0.05c2.51,0,4.01,2.07,4.69,3.3
		c0.4,0.74,0.63,1.51,0.83,2.19c0.21,0.7,0.39,1.3,0.71,1.81c0.45,0.71,1.13,1.09,1.97,1.1l0.03,0c0.69,0,1.3-0.24,1.76-0.71
		c0.16-0.16,0.3-0.35,0.42-0.56c1.36,1.51,1.87,2.96,1.88,2.98c0.01,0.02,0.63,1.93,1.35,4.9c0.58,2.39,1.56,6.26,2.14,8.53
		c-1.38,0.9-6.3,3.74-13.7,3.82c-4.58-0.05-8.18-1.16-10.39-2.09c-1.62-0.68-2.75-1.35-3.31-1.73
		C10.79,24.51,11.83,20.41,12.44,17.9z M39.76,32.67c-0.73,0.92-2.21,1.85-4.38,2.75c-3.95,1.63-9.35,1.76-10.92,1.76
		c-0.27,0-0.42,0-0.44,0l-0.02,0l-0.04,0c-0.01,0-0.16,0-0.43,0c-1.56,0-6.97-0.13-10.92-1.76c-2.17-0.9-3.64-1.82-4.38-2.75
		c-0.55-0.69-0.67-1.37-0.4-2.19c0.25-0.76,0.61-1.3,0.92-1.65c0.7,0.46,1.94,1.19,3.67,1.92c1.57,0.66,3.24,1.2,4.95,1.58
		c2.14,0.48,4.36,0.74,6.61,0.76l0.02,0c2.24-0.02,4.46-0.28,6.6-0.76c1.72-0.39,3.38-0.92,4.95-1.58c1.73-0.73,2.97-1.46,3.67-1.92
		c0.31,0.35,0.66,0.89,0.92,1.65C40.43,31.3,40.31,31.98,39.76,32.67z"/>
</g>
</svg>
