<?xml version="1.0" encoding="utf-8"?>
<!-- Generator: Adobe Illustrator 24.0.0, SVG Export Plug-In . SVG Version: 6.00 Build 0)  -->
<svg version="1.1" id="Layer_1" xmlns="http://www.w3.org/2000/svg" xmlns:xlink="http://www.w3.org/1999/xlink" x="0px" y="0px"
	 viewBox="0 0 48 48" style="enable-background:new 0 0 48 48;" xml:space="preserve">
<style type="text/css">
	.st0{fill:#FFFFFF;}
</style>
<path d="M38.09,2.4H9.91c-5.43,0-9.85,4.42-9.85,9.85v16.2c0,5.43,4.42,9.85,9.85,9.85h2.52c-0.14,1.12-0.49,2.59-1.32,4.27
	L9.62,45.6h2.75c0.25,0,2.49-0.03,5.19-1.05c3.25-1.22,5.76-3.37,7.35-6.25h13.19c5.43,0,9.85-4.42,9.85-9.85v-16.2
	C47.94,6.82,43.52,2.4,38.09,2.4z M11.39,26.55c-0.95,0-1.72-0.77-1.72-1.72v0c0-0.95,0.77-1.72,1.72-1.72h16.22
	c0.95,0,1.72,0.77,1.72,1.72v0c0,0.95-0.77,1.72-1.72,1.72H11.39z M11.39,19.27c-0.95,0-1.72-0.77-1.72-1.72v0
	c0-0.95,0.77-1.72,1.72-1.72h25.22c0.95,0,1.72,0.77,1.72,1.72v0c0,0.95-0.77,1.72-1.72,1.72H11.39z"/>
</svg>
