<?xml version="1.0" encoding="utf-8"?>
<!-- Generator: Adobe Illustrator 24.0.0, SVG Export Plug-In . SVG Version: 6.00 Build 0)  -->
<svg version="1.1" id="Layer_1" xmlns="http://www.w3.org/2000/svg" xmlns:xlink="http://www.w3.org/1999/xlink" x="0px" y="0px"
	 viewBox="0 0 48 48" style="enable-background:new 0 0 48 48;" xml:space="preserve">
<style type="text/css">
	.st0{fill:#FFFFFF;}
</style>
<g>
	<circle class="st0" cx="24" cy="24" r="23.99"/>
	<path d="M38.44,20.32c-0.31-3.53-1.97-6.72-4.68-9c-2.71-2.28-6.15-3.36-9.67-3.05c-3.53,0.31-6.72,1.97-9,4.68
		c-2.28,2.71-3.36,6.15-3.05,9.67c0.27,3.1,1.59,5.94,3.74,8.12l-0.55,0.66l-0.79-0.66l-4.38,5.22c-0.82,0.98-0.69,2.44,0.29,3.26h0
		c0.98,0.82,2.44,0.69,3.26-0.29l4.38-5.22l-0.79-0.66l0.55-0.66c2.53,1.74,5.55,2.54,8.65,2.27c3.53-0.31,6.72-1.97,9-4.68
		C37.67,27.28,38.75,23.85,38.44,20.32z M33.06,28.04c-3.62,4.31-10.07,4.88-14.38,1.26c-4.31-3.62-4.88-10.07-1.26-14.38
		c3.62-4.31,10.07-4.88,14.38-1.26C36.11,17.28,36.68,23.73,33.06,28.04z"/>
</g>
</svg>
