<?xml version="1.0" encoding="utf-8"?>
<!-- Generator: Adobe Illustrator 24.0.0, SVG Export Plug-In . SVG Version: 6.00 Build 0)  -->
<svg version="1.1" id="Layer_1" xmlns="http://www.w3.org/2000/svg" xmlns:xlink="http://www.w3.org/1999/xlink" x="0px" y="0px"
	 viewBox="0 0 48 48" style="enable-background:new 0 0 48 48;" xml:space="preserve">
<style type="text/css">
	.st0{fill:#FFFFFF;}
</style>
<path class="st0" d="M38.03,2.5H9.97c-5.41,0-9.81,4.4-9.81,9.81v16.13c0,5.41,4.4,9.81,9.81,9.81h2.51
	c-0.14,1.11-0.49,2.57-1.32,4.25L9.68,45.5h2.73c0.25,0,2.48-0.03,5.16-1.04c3.23-1.22,5.74-3.35,7.31-6.22h13.14
	c5.41,0,9.81-4.4,9.81-9.81V12.3C47.83,6.9,43.43,2.5,38.03,2.5z M11.44,26.54c-0.95,0-1.71-0.77-1.71-1.71v0
	c0-0.95,0.77-1.71,1.71-1.71H27.6c0.95,0,1.71,0.77,1.71,1.71v0c0,0.95-0.77,1.71-1.71,1.71H11.44z M11.44,19.29
	c-0.95,0-1.71-0.77-1.71-1.71v0c0-0.95,0.77-1.71,1.71-1.71h25.11c0.95,0,1.71,0.77,1.71,1.71v0c0,0.95-0.77,1.71-1.71,1.71H11.44z"
	/>
</svg>
