<?xml version="1.0" encoding="utf-8"?>
<!-- Generator: Adobe Illustrator 24.0.0, SVG Export Plug-In . SVG Version: 6.00 Build 0)  -->
<svg version="1.1" id="Layer_1" xmlns="http://www.w3.org/2000/svg" xmlns:xlink="http://www.w3.org/1999/xlink" x="0px" y="0px"
	 viewBox="0 0 48 48" style="enable-background:new 0 0 48 48;" xml:space="preserve">
<style type="text/css">
	.st0{fill:#FFFFFF;}
</style>
<g>
	<path class="st0" d="M35.52,21.4H26.6v-8.92c0-1.3-1.05-2.35-2.35-2.35h-0.51c-1.3,0-2.35,1.05-2.35,2.35v8.92h-8.92
		c-1.3,0-2.35,1.05-2.35,2.35v0.51c0,1.3,1.05,2.35,2.35,2.35h8.92v8.92c0,1.3,1.05,2.35,2.35,2.35h0.51c1.3,0,2.35-1.05,2.35-2.35
		V26.6h8.92c1.3,0,2.35-1.05,2.35-2.35v-0.51C37.87,22.45,36.82,21.4,35.52,21.4z"/>
	<path class="st0" d="M24,0.01C10.77,0.01,0.01,10.77,0.01,24S10.77,47.99,24,47.99S47.99,37.23,47.99,24S37.23,0.01,24,0.01z
		 M24,43.63C13.18,43.63,4.37,34.82,4.37,24C4.37,13.18,13.18,4.37,24,4.37c10.82,0,19.63,8.81,19.63,19.63
		C43.63,34.82,34.82,43.63,24,43.63z"/>
</g>
</svg>
