<?xml version="1.0" encoding="utf-8"?>
<!-- Generator: Adobe Illustrator 24.0.0, SVG Export Plug-In . SVG Version: 6.00 Build 0)  -->
<svg version="1.1" id="Layer_1" xmlns="http://www.w3.org/2000/svg" xmlns:xlink="http://www.w3.org/1999/xlink" x="0px" y="0px"
	 viewBox="0 0 48 48" style="enable-background:new 0 0 48 48;" xml:space="preserve">
<style type="text/css">
	.st0{fill:#FFFFFF;}
</style>
<circle cx="24" cy="24" r="23.98"/>
<g>
	<path class="st0" d="M33.2,21.92h-7.12V14.8c0-1.04-0.84-1.88-1.88-1.88H23.8c-1.04,0-1.88,0.84-1.88,1.88v7.12H14.8
		c-1.04,0-1.88,0.84-1.88,1.88v0.41c0,1.04,0.84,1.88,1.88,1.88h7.12v7.12c0,1.04,0.84,1.88,1.88,1.88h0.41
		c1.04,0,1.88-0.84,1.88-1.88v-7.12h7.12c1.04,0,1.88-0.84,1.88-1.88V23.8C35.08,22.76,34.24,21.92,33.2,21.92z"/>
	<path class="st0" d="M24,4.84C13.43,4.84,4.84,13.43,4.84,24S13.43,43.16,24,43.16S43.16,34.57,43.16,24S34.57,4.84,24,4.84z
		 M24,39.68c-8.65,0-15.68-7.03-15.68-15.68c0-8.65,7.03-15.68,15.68-15.68c8.65,0,15.68,7.03,15.68,15.68
		C39.68,32.65,32.65,39.68,24,39.68z"/>
</g>
</svg>
