<?xml version="1.0" encoding="utf-8"?>
<!-- Generator: Adobe Illustrator 24.0.0, SVG Export Plug-In . SVG Version: 6.00 Build 0)  -->
<svg version="1.1" id="Layer_1" xmlns="http://www.w3.org/2000/svg" xmlns:xlink="http://www.w3.org/1999/xlink" x="0px" y="0px"
	 viewBox="0 0 48 48" style="enable-background:new 0 0 48 48;" xml:space="preserve">
<style type="text/css">
	.st0{fill:#FFFFFF;}
</style>
<g>
	<path class="st0" d="M30.26,10.79c-2.27,1.36-3.01,4.3-1.65,6.57c1.36,2.27,4.3,3.01,6.57,1.65c2.27-1.36,3.01-4.3,1.65-6.57
		C35.47,10.18,32.52,9.44,30.26,10.79z M34.44,17.78c-1.59,0.95-3.65,0.43-4.6-1.16c-0.95-1.59-0.43-3.65,1.16-4.6
		c1.59-0.95,3.65-0.43,4.6,1.16C36.54,14.77,36.02,16.84,34.44,17.78z"/>
	<path class="st0" d="M47.47,5.48l-0.47-0.18c-0.09-0.03-2.19-0.82-5.4-1.19c-2.95-0.34-7.46-0.37-12.18,1.4
		c-2.54,0.95-5.1,2.33-7.63,4.11c-2.54-1.28-5.27-1-7.15-0.53c-2.47,0.62-4.41,1.79-5.12,2.42c-1.06,0.95-1.46,2.36-0.99,3.5
		c0.05,0.11,0.1,0.22,0.17,0.33c0.33,0.55,1.16,1.46,3.02,1.37c0.65-0.03,1.35,0.09,1.98,0.26l-0.07,0.09l-0.01,0.5
		c-0.09,3.2,2,6.74,2.08,6.89l0.55,0.93c0.09,0.15,2.21,3.66,5.08,5.09l0.45,0.22l0.11-0.02c-0.15,0.63-0.37,1.31-0.71,1.86
		c-0.96,1.59-0.55,2.76-0.22,3.31c0.06,0.11,0.14,0.21,0.21,0.3c0.78,0.95,2.21,1.27,3.55,0.79c0.89-0.32,2.84-1.48,4.55-3.36
		c1.31-1.43,2.84-3.71,2.92-6.55c2.76-1.39,5.2-2.99,7.23-4.78c3.79-3.32,5.89-7.3,6.99-10.07c1.19-3,1.5-5.22,1.51-5.32L48,6.36
		L47.47,5.48z M26.59,27.06c-0.75-0.71-2.44-2.45-4.34-5.3l-0.52-0.87c-1.62-3.03-2.35-5.34-2.62-6.33
		c2.62-2.35,6.53-5.31,11.08-7.01c6.98-2.61,13.6-0.97,15.51-0.39c-0.39,1.96-2.08,8.56-7.68,13.47
		C34.36,23.82,29.9,25.86,26.59,27.06z M10.54,14.2c-0.1-0.25,0.01-0.7,0.43-1.07c0.99-0.88,5.8-3.36,9.6-1.69
		c-1.95,1.52-3.5,2.99-4.55,4.06c-0.85-0.36-2.67-1.02-4.39-0.94C11.05,14.59,10.64,14.46,10.54,14.2z M18.31,15.28
		c0.36,1.2,1.11,3.34,2.57,6.07l0.55,0.92l0.01,0.01c1.71,2.57,3.24,4.25,4.13,5.14c-1.7,0.57-2.98,0.89-3.49,1.01
		c-2.2-1.23-3.95-4.13-3.97-4.16l-0.55-0.93c-0.02-0.03-1.74-2.94-1.78-5.47C16.12,17.48,17.01,16.51,18.31,15.28z M23.03,33.65
		c0.89-1.48,1.17-3.39,1.26-4.31c1.44-0.42,3.48-1.09,5.73-2.09c-0.32,4.14-4.79,7.21-6.03,7.66c-0.53,0.19-0.98,0.08-1.15-0.13
		C22.67,34.57,22.74,34.14,23.03,33.65z"/>
	<path class="st0" d="M16.29,28.79c-0.22-1.81-1.18-3.44-2.64-4.48c-0.56-0.4-1.26-0.71-2.02-0.89c-0.67-0.16-1.38-0.2-2.05-0.12
		c-0.75,0.09-1.47,0.28-2.22,0.59c-0.81,0.33-1.5,0.68-2.13,1.08C4,25.75,2.97,26.69,2.17,27.76c-0.85,1.13-1.45,2.35-1.8,3.63
		c-0.34,1.24-0.44,2.56-0.3,3.8c0.16,1.37,0.57,2.67,1.22,3.88c0.11,0.21,0.23,0.42,0.35,0.62c0.72,1.2,1.53,2.16,2.42,2.86
		c0.56,0.44,1.1,0.77,1.63,0.99c0.6,0.25,1.21,0.41,1.84,0.48c0.41,0.05,0.83,0.04,1.25-0.01c0,0,4.18-0.4,5.64-3.78
		c0,0-1.81,0.72-2.62-0.68c-0.4-0.91-0.35-1.84-0.33-2c0.04-0.23,0.11-0.47,0.19-0.7c0.12-0.29,0.28-0.57,0.46-0.83
		c0.23-0.3,0.51-0.58,0.89-0.89c0.48-0.4,0.89-0.78,1.24-1.15c0.93-0.99,1.54-1.98,1.86-3.03c0.2-0.66,0.27-1.37,0.21-2.05
		C16.3,28.87,16.29,28.83,16.29,28.79z M10.94,34c-0.28,0.28-0.53,0.59-0.76,0.92c-0.34,0.49-0.6,1.05-0.77,1.63
		c-0.04-0.16-0.08-0.33-0.11-0.5c-0.04-0.35-0.05-0.71-0.03-1.07c0.01-0.09,0.03-0.44,0.12-0.89c0.01-0.04,0.02-0.07,0.03-0.11
		c0.01-0.04,0.02-0.07,0.02-0.11c0.11-0.53,0.3-1.14,0.62-1.64c0,0-2.1,0.52-3.2,2.44c0,0,0,0,0,0c-0.31,0.44-0.57,0.93-0.76,1.44
		c-0.16,0.42-0.24,0.88-0.24,1.33c0,0.6,0.15,1.15,0.39,1.69c0.48,1.08,1.39,1.93,2.37,2.56c0.05,0.03,0.1,0.06,0.15,0.09
		c-0.04,0.01-0.09,0.02-0.13,0.02c-0.33,0.04-0.65,0.04-0.98,0.01c-0.33-0.05-0.65-0.13-0.95-0.24c-0.39-0.16-0.76-0.37-1.1-0.61
		c-0.48-0.37-0.91-0.8-1.3-1.27c-0.57-0.73-1.06-1.54-1.43-2.38c-0.28-0.67-0.48-1.38-0.59-2.1c-0.09-0.69-0.09-1.39-0.02-2.08
		c0.09-0.68,0.26-1.36,0.5-2c0.27-0.67,0.63-1.31,1.05-1.91c0.49-0.65,1.05-1.23,1.68-1.75c0.75-0.59,1.58-1.07,2.45-1.45
		c0.56-0.23,1.14-0.42,1.73-0.52c0.33-0.04,0.67-0.05,1.01-0.02c0.33,0.05,0.65,0.13,0.96,0.25c0.28,0.12,0.55,0.26,0.81,0.43
		c0.27,0.21,0.52,0.45,0.74,0.72c0.22,0.3,0.41,0.62,0.57,0.95c0.14,0.35,0.25,0.71,0.31,1.08c0,0.02,0,0.04,0.01,0.05
		c0.02,0.25,0.02,0.51,0,0.76c-0.04,0.3-0.12,0.6-0.23,0.89c-0.16,0.38-0.37,0.73-0.6,1.07c-0.42,0.56-0.92,1.07-1.45,1.53
		C11.52,33.49,11.21,33.73,10.94,34z"/>
</g>
</svg>
