<?xml version="1.0" encoding="utf-8"?>
<!-- Generator: Adobe Illustrator 24.0.0, SVG Export Plug-In . SVG Version: 6.00 Build 0)  -->
<svg version="1.1" id="Layer_1" xmlns="http://www.w3.org/2000/svg" xmlns:xlink="http://www.w3.org/1999/xlink" x="0px" y="0px"
	 viewBox="0 0 48 48" style="enable-background:new 0 0 48 48;" xml:space="preserve">
<style type="text/css">
	.st0{fill:#FFFFFF;}
</style>
<g>
	<path class="st0" d="M37.5,12.96c-0.97-2.14-3.49-3.09-5.62-2.12c-2.14,0.97-3.09,3.49-2.12,5.62c0.97,2.14,3.49,3.09,5.62,2.12
		C37.51,17.61,38.46,15.09,37.5,12.96z M34.85,17.42c-1.49,0.68-3.26,0.01-3.94-1.48S30.9,12.67,32.4,12
		c1.49-0.68,3.26-0.01,3.94,1.48C37.01,14.98,36.34,16.74,34.85,17.42z"/>
	<path class="st0" d="M47.61,7.87l-0.41-0.21c-0.07-0.04-1.85-0.95-4.65-1.6c-2.57-0.6-6.55-1.08-10.89,0
		c-2.33,0.58-4.72,1.54-7.13,2.84c-2.12-1.37-4.55-1.41-6.26-1.18c-2.24,0.3-4.08,1.13-4.77,1.62c-1.04,0.74-1.54,1.96-1.24,3.03
		c0.03,0.11,0.07,0.21,0.12,0.32c0.24,0.53,0.89,1.43,2.56,1.54c0.55,0.04,1.13,0.2,1.64,0.4l-0.04,0.03l-0.07,0.45
		c-0.41,2.82,1.08,6.16,1.14,6.3l0.39,0.87c0.06,0.14,1.59,3.46,3.98,5.02l0.38,0.25l0.05,0c-0.19,0.52-0.45,1.06-0.78,1.5
		c-1.02,1.33-0.77,2.41-0.53,2.94c0.05,0.1,0.1,0.2,0.16,0.3c0.6,0.94,1.85,1.37,3.09,1.07c0.82-0.2,2.67-1.03,4.37-2.51
		c1.3-1.13,2.88-2.98,3.24-5.48c2.57-0.94,4.87-2.11,6.84-3.47c3.68-2.55,5.94-5.85,7.19-8.18c1.36-2.53,1.85-4.46,1.87-4.54
		L48,8.72L47.61,7.87z M15.07,12.28c-0.51-0.03-0.85-0.19-0.92-0.43c-0.06-0.23,0.08-0.61,0.49-0.9c0.96-0.68,5.45-2.38,8.63-0.52
		c-1.87,1.14-3.39,2.28-4.42,3.12C18.13,13.14,16.6,12.38,15.07,12.28z M18.39,15.61c0.35-0.31,1.23-1.08,2.5-2.03
		c0.19,1.09,0.64,3.06,1.65,5.61l0.39,0.87l0,0.01c1.25,2.44,2.42,4.07,3.12,4.94c-1.56,0.33-2.71,0.48-3.18,0.54
		c-1.81-1.3-3.07-4.03-3.08-4.06l-0.39-0.87C19.4,20.58,18.18,17.84,18.39,15.61z M22.92,31.22c-0.14-0.21-0.03-0.57,0.28-0.98
		c0.94-1.22,1.37-2.87,1.54-3.67c1.31-0.22,3.17-0.61,5.26-1.26c-0.7,3.62-4.94,5.87-6.09,6.14C23.43,31.57,23.05,31.42,22.92,31.22
		z M26.99,24.8c-0.58-0.7-1.9-2.4-3.29-5.11l-0.37-0.82c-1.12-2.83-1.53-4.94-1.67-5.84c2.55-1.81,6.29-4.02,10.47-5.06
		c6.41-1.6,12.08,0.52,13.7,1.22c-0.54,1.69-2.7,7.34-8.13,11.1C34.17,22.73,30.03,24.08,26.99,24.8z"/>
	<path class="st0" d="M17.11,23.03c-0.35-0.65-0.75-1.2-1.2-1.64c-0.46-0.44-0.94-0.78-1.47-1.03c-0.39-0.19-0.82-0.32-1.29-0.39
		c-0.26-0.04-0.53-0.05-0.83-0.04c-0.22-0.17-0.45-0.32-0.7-0.47c-1.08-0.62-2.19-0.89-3.3-0.8c-1.4,0.11-2.78,0.88-3.78,2.11
		c-0.79,0.96-1.26,2.26-1.28,3.54c-0.02,0.86,0.13,1.69,0.43,2.41c-0.45,0.43-0.88,0.89-1.28,1.38c-0.61,0.75-1.13,1.58-1.54,2.44
		c-0.48,1.03-0.78,2.13-0.85,3.19c-0.09,1.31,0.12,2.62,0.64,3.9c0.05,0.12,0.1,0.24,0.15,0.35c0.52,1.15,1.26,2.15,2.15,2.9
		c0.8,0.67,1.78,1.17,2.83,1.43c0.94,0.23,1.91,0.31,2.97,0.24c0.43-0.03,0.88-0.09,1.33-0.17c0.33-0.04,2.93-0.42,4.15-2.18
		l0.84-1.21l-1.47,0.15c-0.01,0-1.22,0.12-2.24,0.04c-0.13-0.02-0.27-0.04-0.42-0.06c-0.12-0.02-0.24-0.05-0.38-0.08
		c-0.55-0.14-1.06-0.33-1.52-0.56c-0.35-0.2-0.67-0.42-0.96-0.67c-0.24-0.23-0.46-0.49-0.64-0.77c-0.15-0.26-0.28-0.52-0.36-0.78
		c-0.06-0.21-0.09-0.42-0.1-0.63c0-0.2,0.02-0.41,0.06-0.61c0.07-0.25,0.16-0.5,0.29-0.75c0.19-0.34,0.44-0.68,0.73-1.01
		c0.03-0.03,0.06-0.06,0.09-0.09c0.66,0.54,1.37,0.93,2.07,1.14c0.56,0.17,1.11,0.23,1.68,0.19c0.55-0.04,1.11-0.2,1.71-0.51
		c0.63-0.32,1.17-0.7,1.62-1.13c0.48-0.46,0.86-0.97,1.16-1.56c0.48-0.93,0.64-2.03,0.45-2.99c0.11-0.17,0.22-0.36,0.32-0.56
		c0.45-0.87,0.64-1.89,0.53-2.87C17.62,24.24,17.42,23.61,17.11,23.03z M14.89,28.86c0.01,0.07,0.01,0.14,0.02,0.2
		c0,0.22-0.02,0.45-0.07,0.67c-0.07,0.25-0.16,0.5-0.28,0.73c-0.16,0.28-0.34,0.53-0.55,0.77c-0.27,0.28-0.57,0.52-0.9,0.73
		c-0.29,0.18-0.6,0.33-0.92,0.44c-0.19,0.05-0.38,0.08-0.58,0.09c-0.21,0-0.42-0.02-0.62-0.07c-0.28-0.07-0.55-0.18-0.81-0.31
		c-0.39-0.22-0.75-0.49-1.08-0.78c0,0,0,0,0,0c0.39-0.49,1.32-1.55,2.22-1.92c0,0-2.36-0.11-4.1,1.88c0,0,0,0,0,0
		c-0.19,0.17-0.37,0.35-0.55,0.54c-0.78,0.84-1.4,1.81-1.62,2.95c-0.28,1.4,0.25,2.85,1.14,3.93c0.67,0.82,1.57,1.43,2.55,1.84
		c-0.19,0.02-0.37,0.03-0.56,0.04c-0.61,0.01-1.21-0.04-1.81-0.18c-0.44-0.11-0.87-0.27-1.28-0.48c-0.37-0.21-0.72-0.46-1.04-0.74
		c-0.36-0.35-0.68-0.74-0.95-1.16c-0.34-0.56-0.61-1.17-0.81-1.79C2.12,35.67,2.03,35.09,2,34.51C2,33.95,2.06,33.39,2.18,32.85
		c0.16-0.65,0.41-1.27,0.71-1.86c0.36-0.66,0.79-1.28,1.28-1.86C4.28,29,4.39,28.88,4.5,28.76c0.02-0.02,0.05-0.05,0.07-0.07
		c0.22-0.22,2.13-2.03,3.89-2.67c0,0-1.54-0.12-2.73,0.36C5.6,26.14,5.5,25.9,5.42,25.65c-0.09-0.33-0.14-0.67-0.16-1.01
		c0-0.37,0.03-0.74,0.11-1.1c0.08-0.31,0.2-0.62,0.34-0.91c0.16-0.29,0.35-0.55,0.57-0.8c0.25-0.25,0.52-0.48,0.82-0.67
		c0.26-0.15,0.53-0.28,0.81-0.37c0.26-0.07,0.52-0.11,0.78-0.13c0.27,0,0.54,0.03,0.8,0.09c0.34,0.09,0.66,0.22,0.97,0.37
		c0.12,0.07,0.24,0.14,0.35,0.21c-0.97,0.73-1.3,2.01-1.3,2.01c1.42-1.42,3.12-1.38,3.44-1.36C13,21.99,13.05,22,13.09,22
		c0.22,0.06,0.44,0.14,0.64,0.24c0.25,0.14,0.48,0.3,0.69,0.49c0.28,0.28,0.53,0.59,0.74,0.92c0.17,0.29,0.32,0.59,0.43,0.91
		c0.07,0.26,0.12,0.52,0.13,0.79c0,0.11,0,0.21-0.01,0.32c-0.04,0.33-0.37,1.95-2.84,3.47C12.87,29.15,14.08,29.34,14.89,28.86z"/>
</g>
</svg>
