<?xml version="1.0" encoding="utf-8"?>
<!-- Generator: Adobe Illustrator 24.0.0, SVG Export Plug-In . SVG Version: 6.00 Build 0)  -->
<svg version="1.1" id="Layer_1" xmlns="http://www.w3.org/2000/svg" xmlns:xlink="http://www.w3.org/1999/xlink" x="0px" y="0px"
	 viewBox="0 0 48 48" style="enable-background:new 0 0 48 48;" xml:space="preserve">
<style type="text/css">
	.st0{fill:#FFFFFF;}
</style>
<circle class="st0" cx="24" cy="24" r="24"/>
<g>
	<path d="M30.24,30.24c-3.26-2.61-7.17-2.71-7.17-2.71S12.6,27.8,11.65,38.9h11.42h2.7c-0.38-0.8-0.59-1.69-0.59-2.62
		C25.18,33.26,27.37,30.75,30.24,30.24z"/>
	<path d="M31.31,31.24c-2.78,0-5.03,2.26-5.03,5.03c0,2.78,2.26,5.03,5.03,5.03c2.78,0,5.03-2.26,5.03-5.03
		C36.35,33.5,34.09,31.24,31.31,31.24z M34.2,36.95h-2.22v2.22c0,0.37-0.3,0.67-0.67,0.67c-0.37,0-0.67-0.3-0.67-0.67v-2.22h-2.22
		c-0.37,0-0.67-0.3-0.67-0.67c0-0.37,0.3-0.67,0.67-0.67h2.22v-2.22c0-0.37,0.3-0.67,0.67-0.67c0.37,0,0.67,0.3,0.67,0.67v2.22h2.22
		c0.37,0,0.67,0.3,0.67,0.67C34.87,36.65,34.57,36.95,34.2,36.95z"/>
	<path d="M22.19,25.46c0.29,0.05,0.58,0.07,0.88,0.07c0,0,0.07,0,0.19,0c0.27-0.01,0.54-0.04,0.8-0.09
		c1.33-0.22,3.69-0.97,5.03-3.49c1.94-3.66-0.26-8.55-0.26-8.55s-0.06,1.64-1.16,2.29c0,0,1.19-2.08-1.52-4.38
		c-2.7-2.31-1.88-4.61-1.88-4.61s-3.1,1.02-3.53,3.03c-0.43,2.01,0.86,2.94,0,3.95c-0.66,0.79-2.01,0.16-1.68-1.94
		c0,0-3.34,3.07-2.65,8.08C17.03,24.17,20.05,25.2,22.19,25.46z"/>
</g>
</svg>
