<?xml version="1.0" encoding="utf-8"?>
<!-- Generator: Adobe Illustrator 24.0.0, SVG Export Plug-In . SVG Version: 6.00 Build 0)  -->
<svg version="1.1" id="Layer_1" xmlns="http://www.w3.org/2000/svg" xmlns:xlink="http://www.w3.org/1999/xlink" x="0px" y="0px"
	 viewBox="0 0 48 48" style="enable-background:new 0 0 48 48;" xml:space="preserve">
<style type="text/css">
	.st0{fill:#FFFFFF;}
</style>
<g>
	<path d="M32.65,32.65c-4.52-3.62-9.94-3.75-9.94-3.75S8.2,29.27,6.89,44.66h15.83h3.74c-0.52-1.1-0.82-2.34-0.82-3.64
		C25.64,36.84,28.67,33.36,32.65,32.65z"/>
	<path d="M34.14,34.04c-3.85,0-6.98,3.13-6.98,6.98c0,3.85,3.13,6.98,6.98,6.98c3.85,0,6.98-3.13,6.98-6.98
		C41.11,37.17,37.98,34.04,34.14,34.04z M38.14,41.95h-3.08v3.08c0,0.51-0.41,0.93-0.93,0.93c-0.51,0-0.93-0.41-0.93-0.93v-3.08
		h-3.08c-0.51,0-0.93-0.41-0.93-0.93c0-0.51,0.41-0.93,0.93-0.93h3.08v-3.08c0-0.51,0.41-0.93,0.93-0.93c0.51,0,0.93,0.41,0.93,0.93
		v3.08h3.08c0.51,0,0.93,0.41,0.93,0.93C39.07,41.53,38.65,41.95,38.14,41.95z"/>
	<path d="M21.49,26.03c0.4,0.07,0.81,0.1,1.22,0.1c0,0,0.1,0,0.27-0.01c0.38-0.01,0.75-0.06,1.11-0.12
		c1.85-0.31,5.11-1.35,6.97-4.84c2.7-5.07-0.35-11.85-0.35-11.85s-0.08,2.27-1.61,3.17c0,0,1.64-2.88-2.1-6.08
		c-3.75-3.2-2.6-6.4-2.6-6.4s-4.29,1.42-4.89,4.2c-0.59,2.79,1.19,4.07,0,5.48c-0.92,1.09-2.79,0.23-2.33-2.7
		c0,0-4.63,4.25-3.67,11.2C14.33,24.24,18.53,25.66,21.49,26.03z"/>
</g>
</svg>
