<?xml version="1.0" encoding="UTF-8"?>
<svg xmlns="http://www.w3.org/2000/svg" xmlns:xlink="http://www.w3.org/1999/xlink" viewBox="0 0 96 96" width="96px" height="96px">
<g id="surface5429422">
<path style=" stroke:none;fill-rule:nonzero;fill:rgb(44.705883%,53.725493%,85.09804%);fill-opacity:1;" d="M 78.496094 20.355469 C 72.886719 17.78125 66.871094 15.882812 60.585938 14.796875 C 60.46875 14.777344 60.355469 14.828125 60.296875 14.933594 C 59.523438 16.308594 58.664062 18.105469 58.066406 19.515625 C 51.300781 18.503906 44.570312 18.503906 37.949219 19.515625 C 37.347656 18.074219 36.460938 16.308594 35.683594 14.933594 C 35.621094 14.832031 35.507812 14.78125 35.394531 14.796875 C 29.109375 15.878906 23.09375 17.777344 17.480469 20.355469 C 17.433594 20.375 17.390625 20.410156 17.363281 20.457031 C 5.957031 37.5 2.828125 54.125 4.363281 70.542969 C 4.371094 70.625 4.414062 70.703125 4.476562 70.75 C 12.003906 76.277344 19.296875 79.632812 26.453125 81.859375 C 26.566406 81.890625 26.6875 81.851562 26.761719 81.757812 C 28.453125 79.445312 29.960938 77.007812 31.257812 74.445312 C 31.332031 74.292969 31.261719 74.117188 31.105469 74.054688 C 28.710938 73.148438 26.433594 72.042969 24.238281 70.785156 C 24.066406 70.683594 24.050781 70.433594 24.210938 70.316406 C 24.675781 69.96875 25.132812 69.609375 25.574219 69.246094 C 25.65625 69.183594 25.765625 69.167969 25.859375 69.210938 C 40.261719 75.785156 55.855469 75.785156 70.085938 69.210938 C 70.179688 69.164062 70.289062 69.179688 70.375 69.242188 C 70.8125 69.609375 71.277344 69.96875 71.738281 70.316406 C 71.898438 70.433594 71.890625 70.683594 71.714844 70.785156 C 69.523438 72.066406 67.242188 73.148438 64.847656 74.050781 C 64.691406 74.113281 64.621094 74.292969 64.699219 74.445312 C 66.019531 77.003906 67.527344 79.441406 69.191406 81.753906 C 69.261719 81.851562 69.382812 81.890625 69.496094 81.855469 C 76.6875 79.632812 83.980469 76.277344 91.507812 70.746094 C 91.570312 70.699219 91.613281 70.625 91.621094 70.546875 C 93.453125 51.5625 88.546875 35.074219 78.609375 20.457031 C 78.585938 20.410156 78.542969 20.375 78.496094 20.355469 Z M 33.40625 60.546875 C 29.070312 60.546875 25.496094 56.566406 25.496094 51.675781 C 25.496094 46.785156 29.003906 42.804688 33.40625 42.804688 C 37.847656 42.804688 41.382812 46.820312 41.3125 51.675781 C 41.316406 56.5625 37.8125 60.546875 33.40625 60.546875 Z M 62.648438 60.546875 C 58.3125 60.546875 54.738281 56.566406 54.738281 51.675781 C 54.738281 46.785156 58.242188 42.804688 62.648438 42.804688 C 67.089844 42.804688 70.625 46.820312 70.554688 51.675781 C 70.554688 56.5625 67.089844 60.546875 62.648438 60.546875 Z M 62.648438 60.546875 "/>
</g>
</svg>
