<?xml version="1.0" encoding="utf-8"?>
<!-- Generator: Adobe Illustrator 24.0.0, SVG Export Plug-In . SVG Version: 6.00 Build 0)  -->
<svg version="1.1" id="Layer_1" xmlns="http://www.w3.org/2000/svg" xmlns:xlink="http://www.w3.org/1999/xlink" x="0px" y="0px"
	 viewBox="0 0 96 96" style="enable-background:new 0 0 96 96;" xml:space="preserve">
<style type="text/css">
	.st0{fill:#FFFFFF;}
	.st1{fill:#DD1212;}
</style>
<g>
	<path class="st1" d="M82.92,89.16c2.1-1.71,6.56-6.83,7.19-19.83c0.83-17.12-8.7-24.02-8.7-24.02s3.15,10.47-3.57,11.52
		c-2-0.24-6.88-0.74-9.33-5.34c-2.45-4.61,3.78-12.33,4.27-24.16c0.49-11.82-12.19-16.7-12.19-16.7
		c4.39,5.24-1.34,19.99-12.75,14.63c-11.41-5.36-3.24-25.23-3.24-25.23c-11.73,3.66-18.25,19.5-12.53,32.78
		c5.73,13.28-4.51,23.28-11.21,18.67c-6.7-4.61-3.41-16.11-3.41-16.11S4.88,48.16,5.86,65.04c0.84,14.55,6.53,21.35,8.43,23.35
		c-3.95,1.9-7.69,4.37-10.63,7.59c0,0,16.09-10.78,44.17-10v0c0,0,0,0,0,0c0,0,0,0,0,0v0c28.08-0.78,44.17,10,44.17,10
		C89.45,93.18,86.29,90.95,82.92,89.16z M47.83,54.25L47.83,54.25L47.83,54.25L47.83,54.25L47.83,54.25
		c-0.03,0.02-16.42,13.11-8.32,27.97c0,0-11.64,0.48-22.66,5.04c-1.49-14.71,10.34-23.61,10.34-23.61c-1.1,5.97,1.1,13.41,1.1,13.41
		c3.13-15.32,16.32-28.86,20.08-32.46c2.81,2.84,15.87,16.71,16.61,30.52c0,0,1.38-8.27,0-14.62c0,0,17.79,9.1,14.49,27.03
		c-11.21-4.8-23.3-5.31-23.3-5.31C64.25,67.36,47.86,54.27,47.83,54.25z"/>
</g>
</svg>
