<?xml version="1.0" encoding="utf-8"?>
<!-- Generator: Adobe Illustrator 24.0.0, SVG Export Plug-In . SVG Version: 6.00 Build 0)  -->
<svg version="1.1" xmlns="http://www.w3.org/2000/svg" xmlns:xlink="http://www.w3.org/1999/xlink" x="0px" y="0px"
	 viewBox="0 0 256 256" style="enable-background:new 0 0 256 256;" xml:space="preserve">
<style type="text/css">
	.st0{display:none;}
	.st1{fill:#FFFFFF;}
</style>
<g id="Layer_1" class="st0">
</g>
<g id="Layer_2">
	<circle class="st1" cx="128" cy="128" r="127.9"/>
	<g>
		<g>
			<path d="M128.01,178.73c-25.86,0-50.27-6.36-68.72-17.91c-19.33-12.11-29.98-28.5-29.98-46.17s10.65-34.06,29.98-46.17
				c18.45-11.55,42.85-17.91,68.72-17.91s50.27,6.36,68.72,17.91c19.33,12.11,29.98,28.5,29.98,46.17s-10.65,34.06-29.98,46.17
				C178.28,172.37,153.87,178.73,128.01,178.73z M128.01,62.76c-23.61,0-45.71,5.7-62.25,16.05c-15.65,9.8-24.26,22.52-24.26,35.84
				c0,13.31,8.62,26.04,24.26,35.84c16.53,10.35,38.64,16.05,62.25,16.05s45.71-5.7,62.25-16.05c15.65-9.8,24.26-22.52,24.26-35.84
				c0-13.31-8.62-26.04-24.26-35.84C173.72,68.46,151.61,62.76,128.01,62.76z"/>
		</g>
		<g>
			<path d="M128.01,158.84c-20.48,0-39.76-4.5-54.3-12.68c-14.96-8.41-23.19-19.74-23.19-31.9s8.24-23.49,23.19-31.9
				c14.54-8.18,33.83-12.68,54.3-12.68s39.76,4.5,54.3,12.68c14.96,8.41,23.19,19.74,23.19,31.9s-8.24,23.49-23.19,31.9
				C167.77,154.33,148.48,158.84,128.01,158.84z M128.01,74.25c-19.7,0-38.19,4.3-52.06,12.09c-13.45,7.57-20.86,17.48-20.86,27.91
				s7.41,20.35,20.86,27.91c13.87,7.8,32.36,12.09,52.06,12.09s38.19-4.3,52.06-12.09c13.45-7.57,20.86-17.48,20.86-27.91
				s-7.41-20.35-20.86-27.91C166.2,78.55,147.71,74.25,128.01,74.25z"/>
		</g>
		<g>
			<path d="M128.12,205.43l-0.35,0c-59.02-2.15-83.26-23.56-92.45-36.13c-3.12-4.27-4.84-9.36-4.98-14.71l-1.04-39.77l12.18-0.32
				l1.04,39.77c0.07,2.87,0.99,5.58,2.64,7.84c3.55,4.85,10.42,11.94,23.06,18.18c15.58,7.7,35.7,12.06,59.79,12.96
				c24.09-0.9,44.2-5.26,59.79-12.96c12.64-6.24,19.51-13.33,23.06-18.18c1.65-2.26,2.56-4.97,2.64-7.84l1.04-39.77l12.18,0.32
				l-1.04,39.77c-0.14,5.36-1.86,10.44-4.99,14.71c-9.2,12.57-33.43,33.99-92.45,36.13L128.12,205.43z"/>
		</g>
		<g>
			<path d="M148.86,99.28c-3.94,0.59-7.52,1.71-10.71,3.37c-3.22,1.68-7.05,3.98-11.51,6.91c-4.27,2.89-7.78,4.96-10.52,6.2
				c-2.76,1.25-5.37,1.49-7.82,0.72c-2.46-0.78-3.75-2.11-3.85-4c-0.1-1.89,1.31-4.29,4.22-7.19c4.11-4.09,9.98-7.52,17.55-10.28
				l-9.03-7.21c-3.98,1.27-7.88,3.04-11.68,5.32c-2.35,1.41-4.51,2.94-6.53,4.55l-10.98-3.63L78.54,103l11.71,3.74
				c-1.35,1.97-2.27,3.86-2.75,5.68c-0.95,3.59-0.41,6.68,1.62,9.23c2.03,2.55,5.2,4.48,9.49,5.77c4.88,1.47,9.53,1.82,13.97,1.06
				c4.39-0.74,8.26-2.04,11.64-3.87c3.34-1.81,7.24-4.23,11.67-7.23c2.82-1.94,5.14-3.43,6.96-4.49c1.81-1.05,3.61-1.81,5.39-2.27
				c1.77-0.46,3.43-0.42,4.97,0.1c2.09,0.7,3.15,1.94,3.17,3.7c0.02,1.77-1.26,4.08-3.86,6.95c-2.36,2.6-5.37,5.02-9.05,7.26
				c-3.71,2.27-7.55,4.06-11.51,5.37l8.57,7.22c4.16-1.37,8.43-3.51,12.82-6.42c2.66-1.76,5.08-3.64,7.25-5.62l7.87,2.51l7.47-8.59
				l-7.86-2.6c1.33-2.12,2.21-4.14,2.6-6.04c0.68-3.27,0.14-6.07-1.59-8.41c-1.74-2.35-4.4-4.15-8.01-5.41
				C156.84,99.16,152.77,98.7,148.86,99.28z"/>
		</g>
	</g>
</g>
</svg>
