<?xml version="1.0" encoding="utf-8"?>
<!-- Generator: Adobe Illustrator 24.0.0, SVG Export Plug-In . SVG Version: 6.00 Build 0)  -->
<svg version="1.1" id="Layer_1" xmlns="http://www.w3.org/2000/svg" xmlns:xlink="http://www.w3.org/1999/xlink" x="0px" y="0px"
	 viewBox="0 0 256 256" style="enable-background:new 0 0 256 256;" xml:space="preserve">
<style type="text/css">
	.st0{fill:#FFFFFF;}
</style>
<g>
	<circle cx="128" cy="128" r="128"/>
	<g>
		<path class="st0" d="M185.24,195.17c3.43-2.79,10.7-11.14,11.73-32.36c1.35-27.94-14.19-39.2-14.19-39.2s5.15,17.09-5.82,18.79
			c-3.26-0.39-11.23-1.2-15.23-8.72c-4-7.52,6.16-20.13,6.96-39.41c0.8-19.29-19.89-27.24-19.89-27.24
			c7.16,8.55-2.19,32.61-20.8,23.86c-18.61-8.75-5.29-41.16-5.29-41.16c-19.14,5.97-29.78,31.82-20.44,53.49
			c9.35,21.68-7.36,37.98-18.3,30.47c-10.94-7.52-5.57-26.29-5.57-26.29s-20.48,20.88-18.89,48.42
			c1.37,23.74,10.65,34.84,13.76,38.1c-6.44,3.09-12.55,7.13-17.35,12.38c0,0,26.26-17.58,72.08-16.32v0c0,0,0,0,0,0s0,0,0,0v0
			c45.82-1.27,72.08,16.32,72.08,16.32C195.91,201.72,190.75,198.07,185.24,195.17z M128,138.19L128,138.19L128,138.19L128,138.19
			L128,138.19c-0.05,0.04-26.79,21.39-13.58,45.64c0,0-18.99,0.79-36.98,8.22c-2.43-23.99,16.87-38.52,16.87-38.52
			c-1.79,9.74,1.79,21.87,1.79,21.87c5.1-25,26.63-47.08,32.76-52.96c4.59,4.63,25.9,27.27,27.1,49.8c0,0,2.25-13.49,0-23.85
			c0,0,29.02,14.84,23.64,44.1c-18.29-7.84-38.02-8.66-38.02-8.66C154.79,159.58,128.05,138.23,128,138.19z"/>
	</g>
</g>
</svg>
