<?xml version="1.0" encoding="utf-8"?>
<!-- Generator: Adobe Illustrator 24.0.0, SVG Export Plug-In . SVG Version: 6.00 Build 0)  -->
<svg version="1.1" id="Layer_1" xmlns="http://www.w3.org/2000/svg" xmlns:xlink="http://www.w3.org/1999/xlink" x="0px" y="0px"
	 viewBox="0 0 256 256" style="enable-background:new 0 0 256 256;" xml:space="preserve">
<style type="text/css">
	.st0{fill:#FFFFFF;}
</style>
<g>
	<g>
		<g>
			<rect x="2.33" y="193.06" class="st0" width="241.84" height="23.3"/>
			<g>
				<path class="st0" d="M234.76,90.87c-1.96,0-3.87-0.18-5.73-0.51v72.37H17.53V64.56H203.1c-0.35-1.91-0.54-3.88-0.54-5.89
					c0-2.52,0.29-4.97,0.84-7.32H4.32v124.6h237.92V89.99C239.84,90.56,237.33,90.87,234.76,90.87z"/>
				<path class="st0" d="M231.44,58.66c0,1.83,1.49,3.32,3.32,3.32c1.83,0,3.32-1.49,3.32-3.32s-1.49-3.32-3.32-3.32
					C232.93,55.35,231.44,56.83,231.44,58.66z"/>
			</g>
			<g>
				<g>
					<path class="st0" d="M244.35,178.05H2.21V49.24h203.83l-0.6,2.58c-0.52,2.23-0.78,4.53-0.78,6.84c0,1.84,0.17,3.7,0.51,5.51
						l0.46,2.49H19.64v93.96h207.28V87.84l2.48,0.45c4.06,0.73,8.33,0.62,12.35-0.34l2.6-0.62 M6.43,173.84h233.71V92.55
						c-2.97,0.47-6.01,0.55-9,0.23v72.05H15.43V62.45h185.23c-0.14-1.26-0.21-2.52-0.21-3.79c0-1.75,0.13-3.49,0.4-5.21H6.43V173.84
						z"/>
				</g>
				<g>
					<path class="st0" d="M234.76,64.09c-2.99,0-5.42-2.43-5.42-5.42s2.43-5.42,5.42-5.42c2.99,0,5.42,2.43,5.42,5.42
						S237.75,64.09,234.76,64.09z M234.76,57.45c-0.67,0-1.21,0.54-1.21,1.21s0.54,1.21,1.21,1.21s1.21-0.54,1.21-1.21
						S235.43,57.45,234.76,57.45z"/>
				</g>
			</g>
			<circle class="st0" cx="234.76" cy="58.66" r="19.03"/>
		</g>
		<g>
			<path class="st0" d="M78.9,128.93v13.33H40.37V82.39h13.07v46.54H78.9z"/>
			<path class="st0" d="M86.05,82.39H99.2v59.87H86.05V82.39z"/>
			<path class="st0" d="M161.41,82.39l-20.92,59.87h-14.76l-20.92-59.87h14.76l13.53,38.78l13.53-38.78H161.41z"/>
			<path class="st0" d="M180.02,95.73v9.32h25.84v13.33h-25.84v10.55h28.45v13.33h-41.6V82.39h41.6v13.33H180.02z"/>
		</g>
	</g>
</g>
</svg>
