<?xml version="1.0" encoding="utf-8"?>
<!-- Generator: Adobe Illustrator 24.0.0, SVG Export Plug-In . SVG Version: 6.00 Build 0)  -->
<svg version="1.1" id="Layer_1" xmlns="http://www.w3.org/2000/svg" xmlns:xlink="http://www.w3.org/1999/xlink" x="0px" y="0px"
	 viewBox="0 0 256 256" style="enable-background:new 0 0 256 256;" xml:space="preserve">
<style type="text/css">
	.st0{fill:#FFFFFF;}
</style>
<g>
	<g>
		<circle cx="128" cy="128.25" r="128"/>
		<g>
			<g>
				<g>
					<g>
						<path class="st0" d="M206.91,207.17H49.09V68.87h157.83V207.17z M66.15,190.49h123.7V85.55H66.15V190.49z"/>
					</g>
					<g>
						<rect x="57.62" y="77.21" class="st0" width="140.77" height="24.94"/>
					</g>
					<g>
						<path class="st0" d="M177.43,77.51h-30.64V52.06h30.64V77.51z M151.52,72.88h21.16V56.69h-21.16V72.88z"/>
					</g>
					<g>
						<path class="st0" d="M180.71,80.24H143.5v-30.9h37.21V80.24z M149.26,74.61h25.7V54.96h-25.7V74.61z"/>
					</g>
					<g>
						<rect x="158.06" y="54.38" class="st0" width="16.99" height="19.42"/>
					</g>
					<g>
						<path class="st0" d="M109.22,77.51H78.57V52.06h30.64V77.51z M83.31,72.88h21.16V56.69H83.31V72.88z"/>
					</g>
					<g>
						<path class="st0" d="M112.5,80.24H75.29v-30.9h37.21V80.24z M81.05,74.61h25.7V54.96h-25.7V74.61z"/>
					</g>
					<g>
						<rect x="89.86" y="54.38" class="st0" width="16.99" height="19.42"/>
					</g>
				</g>
				<g>
					<polygon class="st0" points="128,112.11 138.54,133.46 162.1,136.89 145.05,153.51 149.08,176.98 128,165.9 106.92,176.98 
						110.95,153.51 93.9,136.89 117.46,133.46 					"/>
				</g>
			</g>
		</g>
	</g>
</g>
</svg>
