<?xml version="1.0" encoding="utf-8"?>
<!-- Generator: Adobe Illustrator 24.0.0, SVG Export Plug-In . SVG Version: 6.00 Build 0)  -->
<svg version="1.1" id="Layer_1" xmlns="http://www.w3.org/2000/svg" xmlns:xlink="http://www.w3.org/1999/xlink" x="0px" y="0px"
	 viewBox="0 0 256 256" style="enable-background:new 0 0 256 256;" xml:space="preserve">
<style type="text/css">
	.st0{fill:#FFFFFF;}
</style>
<g>
	<circle class="st0" cx="128" cy="128" r="128"/>
	<g>
		<g>
			<path d="M163.03,168.35h-21.05v-81.4l-35.21-14.68h56.26v36.92h18.62V56.03H56.38v126.84v0.8v0.62l85.6,32.6v-32.3h39.66v-49.88
				h-18.62V168.35z M75,173.11V77.03l48.37,20.16v94.7L75,173.11z"/>
			<polygon points="217.11,121.96 191.45,102.82 191.45,114.59 151.03,114.59 151.03,129.33 191.45,129.33 191.45,141.09 			"/>
		</g>
		<g>
			<path d="M85.26,148.65c1.21-4.89,6.06-7.25,6.06-7.25c-0.8,3,0,7.12,0,7.12c1.28-9.47,8.12-12.43,8.12-12.43
				s6.84,7.67,8.12,18.02c0,0,0.8-3.57,0-7.12c0,0,4.85,5.7,6.06,11.42l4.01,1.38c1.46-4.28,2.45-11.08-2.04-17.77
				c0,0-0.47,5.47-3.39,3.79c-2.92-1.69-3.14-4.94-1.32-9.1c1.82-4.17,0.72-12.28-5.89-15.77c0,0,1.76,8.57-3.63,6.77
				c-5.4-1.8-5.51-10.15-3.14-13.44c0,0-6.02-0.51-7.06,5.19c-1.04,5.71,3.04,12.59,1.11,15.39c-1.93,2.8-8.64,0.72-6.94-7.93
				c0,0-4.18,1.1-5.29,7.53c-0.64,3.76,0.25,8.87,1.29,12.84L85.26,148.65z"/>
			<path d="M99.44,142.7c-5.87,1.4-4.63,7.49-4.08,9.43l8.16,2.81C104.07,153.39,105.31,148.14,99.44,142.7z"/>
		</g>
	</g>
</g>
</svg>
