<?xml version="1.0" encoding="utf-8"?>
<!-- Generator: Adobe Illustrator 24.0.0, SVG Export Plug-In . SVG Version: 6.00 Build 0)  -->
<svg version="1.1" id="Layer_1" xmlns="http://www.w3.org/2000/svg" xmlns:xlink="http://www.w3.org/1999/xlink" x="0px" y="0px"
	 viewBox="0 0 256 256" style="enable-background:new 0 0 256 256;" xml:space="preserve">
<style type="text/css">
	.st0{fill:#FFFFFF;}
</style>
<g>
	<circle class="st0" cx="128" cy="128" r="128"/>
	<g>
		<g>
			<g>
				<g>
					<path d="M128.78,163.43l-1.56-16.28c23.89-2.29,41.59-13.28,52.62-32.67c4.39-7.72,6.87-15.36,8.23-20.97h-20.47V77.16h39.05
						l-0.68,8.8c-0.06,0.72-1.48,17.93-11.58,36C184.93,138.91,165.85,159.87,128.78,163.43z"/>
				</g>
				<g>
					<path d="M128,163.56l-4.04-2.29c-11.58-6.58-21.09-16-28.25-28c-5.6-9.39-9.77-20.34-12.38-32.56
						c-4.38-20.51-2.89-37.59-2.83-38.3l0.68-7.48L128,55.2l46.81-0.27l0.68,7.48c0.07,0.72,1.55,17.79-2.83,38.3
						c-2.61,12.22-6.77,23.17-12.38,32.56c-7.16,12-16.67,21.42-28.25,28L128,163.56z M96.58,71.38c0.04,6.27,0.56,15.87,2.84,26.34
						c4.65,21.37,14.25,37.1,28.58,46.82c27.98-19.05,31.33-57.06,31.43-73.16L128,71.56l-0.05,0L96.58,71.38z"/>
				</g>
				<g>
					<path d="M127.22,163.43c-37.07-3.56-56.14-24.51-65.62-41.47c-10.1-18.07-11.52-35.28-11.58-36l-0.68-8.8h39.05v16.36H67.92
						c1.37,5.61,3.84,13.25,8.23,20.97c11.03,19.38,28.74,30.37,52.62,32.67L127.22,163.43z"/>
				</g>
			</g>
			<g>
				<rect x="119.82" y="154.16" width="16.36" height="38.73"/>
			</g>
			<g>
				<rect x="99.06" y="184.71" width="57.88" height="16.36"/>
			</g>
		</g>
	</g>
</g>
</svg>
