<?xml version="1.0" encoding="utf-8"?>
<!-- Generator: Adobe Illustrator 24.0.0, SVG Export Plug-In . SVG Version: 6.00 Build 0)  -->
<svg version="1.1" id="Layer_1" xmlns="http://www.w3.org/2000/svg" xmlns:xlink="http://www.w3.org/1999/xlink" x="0px" y="0px"
	 viewBox="0 0 256 256" style="enable-background:new 0 0 256 256;" xml:space="preserve">
<style type="text/css">
	.st0{fill:#FFFFFF;}
</style>
<g>
	<path class="st0" d="M127.89,255.36c-8.32,0-16.39-3.09-22.74-8.7c-6.19-5.46-10.32-12.92-11.63-21l-1.39-8.53l8.58,0.95
		c13.6,1.51,24.56,1.75,25.77,1.77c0.51-0.01,13.39-0.2,28.55-2.11l8.59-1.08l-1.28,8.56C159.76,242.41,144.95,255.36,127.89,255.36
		z M109.78,232.12c4.05,6.21,10.95,10.12,18.11,10.12c7.29,0,14.27-4.01,18.28-10.35c-10.88,0.97-18.75,1.08-19.66,1.09h-0.14
		C125.61,232.97,119.13,232.85,109.78,232.12z"/>
	<path class="st0" d="M228.26,157.67c-3.1-9.31-8.21-14.94-12.17-18.12c-2.14-8.41-8.47-33.27-11.96-47.55
		c-4-16.36-7.37-26.72-7.51-27.15c-0.04-0.13-0.18-0.55-0.43-1.19l0,0c0,0-0.27-1.21-1.9-4.3c-0.68-1.39-1.53-2.97-2.56-4.7
		c-1.75-2.92-3.35-5.34-5.03-7.6c-0.25-0.33-0.51-0.65-0.76-0.97c-0.05-0.07-0.1-0.14-0.15-0.21c-9.48-13.51-23.3-20.82-23.3-20.82
		c-3.58,3.04-2.9,10.08-2.31,13.52c-1.13-3.72-2.59-8.05-5.03-12.51C149.97,16.58,142.9,9.3,134.7,5.02
		c-4.8-2.5-9.92-3.95-15.23-4.3c-0.86-0.06-1.72-0.09-2.58-0.09c-4.79,0-9.7,0.88-14.6,2.62L91.37,7.13l5.8,10.01
		c0.16,0.28,3.91,6.91,5.87,14.35c1.34,5.06,2.18,11.59-1.41,13.94c-0.73,0.48-1.3,0.68-1.65,0.77c-0.24,0.06-0.4,0.07-0.49,0.07
		h-0.39l-0.1,0.04c-0.23-0.18-1.06-1.06-1.45-4.42c-0.67-5.7,0.47-9.38,0.84-10.37l1.27-3.44l-3.63,0.52
		c-0.38,0.05-9.19,1.34-14.37,4.71c-2.18,1.13-4.34,2.65-6.62,4.67c-6.97,6.18-12.26,15.28-15.7,27.01
		c-0.36,1.1-3.61,11.25-7.47,27.02c-3.62,14.82-10.24,40.8-11.96,47.55c-3.96,3.18-9.07,8.81-12.17,18.12
		c-3.07,9.2-1.46,18.13,4.64,25.82c5.6,7.05,15.19,13.33,29.34,19.18c11.73,4.85,26.5,8.08,43.92,9.6
		c8.85,0.78,16.09,0.89,19.62,0.89c1.41,0,2.36-0.02,2.69-0.03c0.43,0.01,1.39,0.03,2.79,0.03c3.53,0,10.77-0.12,19.62-0.89
		c17.42-1.53,32.2-4.76,43.92-9.6c14.15-5.85,23.74-12.12,29.34-19.18C229.72,175.8,231.33,166.87,228.26,157.67z M66.57,95.6
		c3.79-15.53,7.05-25.61,7.2-26.07l0.04-0.12c3.09-10.58,7.37-16.38,10.55-19.43c1.26,3.92,3.64,7.09,6.93,9.13
		c2.43,1.51,5.26,2.31,8.18,2.31c3.52,0,7.13-1.14,10.44-3.3c6.17-4.03,12.52-12.62,7.73-30.6c-1.16-4.36-2.75-8.38-4.15-11.51
		c1.17-0.16,2.33-0.24,3.46-0.24c13.34,0,21.33,11,24.9,17.55c2.13,3.91,3.35,8.01,4.43,11.65c1.1,3.72,2.06,6.93,3.78,9.63
		c2.41,3.79,6.03,5.81,10.46,5.86l0.16,0c3.66,0,6.88-1.3,9.33-3.75c0.86-0.86,1.61-1.85,2.25-2.96c7.25,8.01,9.95,15.76,9.98,15.83
		c0.03,0.1,3.33,10.25,7.19,26.02c3.1,12.7,8.32,33.26,11.39,45.34c-7.32,4.79-33.49,19.88-72.8,20.28
		c-24.35-0.25-43.48-6.18-55.24-11.11c-8.59-3.6-14.6-7.2-17.6-9.17C57.78,130.73,63.31,108.92,66.57,95.6z M211.77,174.08
		c-3.9,4.92-11.73,9.82-23.27,14.6c-20.98,8.67-49.72,9.34-58.03,9.34c-1.42,0-2.24-0.02-2.32-0.02l-0.09,0l-0.2,0
		c-0.05,0-0.87,0.02-2.31,0.02c-8.31,0-37.06-0.67-58.04-9.34c-11.54-4.77-19.37-9.68-23.27-14.6c-2.93-3.69-3.58-7.27-2.13-11.62
		c1.35-4.06,3.24-6.91,4.88-8.79c3.74,2.44,10.3,6.32,19.52,10.22c8.35,3.53,17.2,6.36,26.32,8.42c11.37,2.57,23.18,3.93,35.13,4.05
		l0.12,0c11.92-0.12,23.73-1.48,35.1-4.05c9.12-2.06,17.97-4.89,26.32-8.42c9.22-3.9,15.79-7.77,19.52-10.22
		c1.64,1.89,3.53,4.73,4.88,8.79C215.35,166.81,214.69,170.39,211.77,174.08z"/>
</g>
</svg>
