<?xml version="1.0" encoding="utf-8"?>
<!-- Generator: Adobe Illustrator 24.0.0, SVG Export Plug-In . SVG Version: 6.00 Build 0)  -->
<svg version="1.1" id="Layer_1" xmlns="http://www.w3.org/2000/svg" xmlns:xlink="http://www.w3.org/1999/xlink" x="0px" y="0px"
	 viewBox="0 0 256 256" style="enable-background:new 0 0 256 256;" xml:space="preserve">
<style type="text/css">
	.st0{fill:#FFFFFF;}
</style>
<path d="M203.13,12.83H52.87c-28.96,0-52.52,23.56-52.52,52.52v86.41c0,28.96,23.56,52.52,52.52,52.52h13.44
	c-0.73,5.95-2.62,13.79-7.06,22.76l-7.96,16.12h14.65c1.32,0,13.27-0.16,27.66-5.58c17.32-6.53,30.73-17.97,39.17-33.31h70.36
	c28.96,0,52.52-23.56,52.52-52.52V65.35C255.64,36.39,232.08,12.83,203.13,12.83z M60.75,141.58c-5.07,0-9.17-4.11-9.17-9.17v0
	c0-5.07,4.11-9.17,9.17-9.17h86.52c5.07,0,9.17,4.11,9.17,9.17v0c0,5.07-4.11,9.17-9.17,9.17H60.75z M60.75,102.77
	c-5.07,0-9.17-4.11-9.17-9.17v0c0-5.07,4.11-9.17,9.17-9.17h134.5c5.07,0,9.17,4.11,9.17,9.17v0c0,5.07-4.11,9.17-9.17,9.17H60.75z"
	/>
</svg>
