<?xml version="1.0" encoding="utf-8"?>
<!-- Generator: Adobe Illustrator 24.0.0, SVG Export Plug-In . SVG Version: 6.00 Build 0)  -->
<svg version="1.1" id="Layer_1" xmlns="http://www.w3.org/2000/svg" xmlns:xlink="http://www.w3.org/1999/xlink" x="0px" y="0px"
	 viewBox="0 0 256 256" style="enable-background:new 0 0 256 256;" xml:space="preserve">
<style type="text/css">
	.st0{fill:#FFFFFF;}
</style>
<g>
	<path class="st0" d="M126.48,220.01c-1.21-0.02-12.19-0.26-25.81-1.78l-8.6-0.96l1.39,8.54c1.32,8.09,5.46,15.56,11.65,21.03
		c6.36,5.62,14.45,8.71,22.78,8.71c17.09,0,31.92-12.97,34.5-30.18l1.29-8.58l-8.6,1.08C139.9,219.81,126.99,220.01,126.48,220.01z"
		/>
	<path class="st0" d="M228.42,157.72c-3.11-9.33-8.23-14.97-12.19-18.15c-2.15-8.42-8.48-33.32-11.97-47.62
		c-4-16.38-7.38-26.76-7.52-27.2c-0.04-0.13-0.18-0.55-0.43-1.19c0,0-0.27-1.21-1.9-4.31c-0.68-1.39-1.53-2.98-2.56-4.7
		c-1.76-2.93-3.36-5.35-5.04-7.61c-0.25-0.33-0.51-0.65-0.76-0.98c-0.05-0.07-0.1-0.14-0.15-0.21
		c-9.49-13.53-23.34-20.85-23.34-20.85c-3.58,3.04-2.91,10.1-2.32,13.54c-1.13-3.72-2.6-8.06-5.04-12.53
		c-5.18-9.5-12.26-16.79-20.48-21.07c-4.8-2.5-9.94-3.95-15.26-4.31c-0.86-0.06-1.73-0.09-2.58-0.09c-4.79,0-9.71,0.88-14.62,2.62
		L91.31,6.94l5.8,10.03c0.16,0.28,3.92,6.92,5.88,14.37c1.34,5.07,2.18,11.61-1.41,13.96c-0.73,0.48-1.3,0.68-1.65,0.77
		c-0.24,0.06-0.4,0.07-0.49,0.07h-0.39l-0.1,0.04c-0.23-0.18-1.06-1.06-1.45-4.43c-0.67-5.71,0.48-9.39,0.84-10.39l1.27-3.44
		l-3.63,0.52c-0.38,0.05-9.21,1.34-14.39,4.71c-2.18,1.13-4.35,2.66-6.63,4.68c-6.98,6.19-12.28,15.31-15.73,27.05
		c-0.36,1.11-3.62,11.26-7.48,27.06c-3.63,14.85-10.25,40.86-11.98,47.62c-3.96,3.18-9.08,8.82-12.19,18.15
		c-3.07,9.22-1.47,18.16,4.64,25.86c5.61,7.07,15.22,13.35,29.39,19.21c11.75,4.85,26.55,8.09,43.99,9.62
		c8.86,0.78,16.12,0.89,19.65,0.89c1.41,0,2.37-0.02,2.69-0.03c0.43,0.01,1.39,0.03,2.79,0.03c3.53,0,10.79-0.12,19.65-0.89
		c17.45-1.53,32.25-4.77,43.99-9.62c14.17-5.86,23.78-12.14,29.39-19.21C229.89,175.88,231.49,166.94,228.42,157.72z M189.06,161.39
		c-8.29,3.5-17.08,6.32-26.13,8.36c-11.29,2.55-23.03,3.9-34.88,4.02l-0.05,0l-0.05,0c-11.85-0.12-23.59-1.47-34.88-4.02
		c-9.05-2.04-17.84-4.86-26.13-8.36c-8.55-3.61-14.79-7.22-18.5-9.58c1.22-1.65,3.02-4.46,4.43-8.22c0.22-0.59,0.39-1.08,0.52-1.5
		c3.1,2.03,9.3,5.76,18.16,9.48c12.03,5.04,31.58,11.11,56.45,11.36c24.87-0.26,44.42-6.32,56.45-11.36
		c8.87-3.72,15.06-7.44,18.16-9.48c0.13,0.42,0.3,0.91,0.52,1.5c1.41,3.75,3.21,6.57,4.43,8.22
		C203.86,154.17,197.61,157.77,189.06,161.39z"/>
</g>
</svg>
