<?xml version="1.0" encoding="utf-8"?>
<!-- Generator: Adobe Illustrator 24.0.0, SVG Export Plug-In . SVG Version: 6.00 Build 0)  -->
<svg version="1.1" id="Layer_1" xmlns="http://www.w3.org/2000/svg" xmlns:xlink="http://www.w3.org/1999/xlink" x="0px" y="0px"
	 viewBox="0 0 256 256" style="enable-background:new 0 0 256 256;" xml:space="preserve">
<style type="text/css">
	.st0{fill:#FFFFFF;}
</style>
<circle cx="128" cy="128" r="127.71"/>
<path class="st0" d="M178.8,47.77H77.2c-16.22,0-29.42,13.2-29.42,29.42V178.8c0,16.22,13.2,29.42,29.42,29.42H178.8
	c16.22,0,29.42-13.2,29.42-29.42V77.2C208.23,60.97,195.03,47.77,178.8,47.77z M178.8,196.8H97.67c3.02-8.32,8.8-22.16,17.1-35.96
	l0,0l0,0c0.31-0.51,0.62-1.02,0.93-1.53c9.27-15.06,23.87-33.36,40.75-34.97c9.97-0.95,19.92,1.54,29.58,7.41
	c5.29,3.21,9.05,6.62,10.77,8.32v38.75C196.8,188.73,188.73,196.8,178.8,196.8z M77.2,196.8c-9.92,0-17.99-8.07-17.99-17.99v-17.69
	c6.69-9.89,14.18-15.95,20.13-16.23c5.95-0.28,15.56,5.03,26.58,14.65c-8.03,13.94-14.08,28.48-17.05,37.26H77.2z M105.51,77.26
	c-9.56,0-17.42-7.4-18.17-16.77h36.34C122.94,69.86,115.07,77.26,105.51,77.26z"/>
</svg>
