<?xml version="1.0" encoding="utf-8"?>
<!-- Generator: Adobe Illustrator 24.0.0, SVG Export Plug-In . SVG Version: 6.00 Build 0)  -->
<svg version="1.1" id="Layer_1" xmlns="http://www.w3.org/2000/svg" xmlns:xlink="http://www.w3.org/1999/xlink" x="0px" y="0px"
	 viewBox="0 0 256 256" style="enable-background:new 0 0 256 256;" xml:space="preserve">
<style type="text/css">
	.st0{fill:#FFFFFF;}
</style>
<circle class="st0" cx="128" cy="128" r="128"/>
<g>
	<path d="M155.36,82.42c-8.98,4.04-13,14.63-8.96,23.61c4.04,8.98,14.63,13,23.61,8.96c8.98-4.04,13-14.63,8.96-23.61
		C174.93,82.41,164.34,78.38,155.36,82.42z M167.81,110.11c-6.28,2.83-13.69,0.01-16.52-6.27c-2.83-6.28-0.01-13.69,6.27-16.52
		c6.28-2.83,13.69-0.01,16.52,6.27C176.9,99.87,174.09,107.28,167.81,110.11z"/>
	<path d="M221.37,70.23l-1.66-0.86c-0.31-0.16-7.75-3.98-19.47-6.73c-10.78-2.52-27.46-4.59-45.67-0.09
		c-9.79,2.42-19.89,6.42-30.02,11.92c-8.86-5.82-19.07-6-26.24-5.06c-9.4,1.23-17.1,4.7-19.99,6.74c-4.33,3.06-6.41,8.09-5.17,12.52
		c0.12,0.44,0.28,0.88,0.48,1.31c0.98,2.18,3.66,5.92,10.58,6.38c2.42,0.16,4.96,0.92,7.2,1.82l-0.31,0.29l-0.27,1.83
		c-1.74,11.81,4.47,25.79,4.74,26.38l1.65,3.67c0.27,0.59,6.61,14.51,16.59,21.05l1.55,1.02l0.42-0.04
		c-0.82,2.27-1.94,4.67-3.42,6.6c-4.24,5.49-3.23,9.97-2.25,12.15c0.19,0.43,0.42,0.84,0.66,1.22c2.49,3.87,7.63,5.66,12.8,4.45
		c3.44-0.81,11.16-4.26,18.31-10.48c5.46-4.74,12.1-12.5,13.63-22.99c10.83-3.93,20.52-8.82,28.83-14.55
		c15.45-10.64,24.97-24.48,30.24-34.23c5.72-10.57,7.8-18.69,7.89-19.03l0.46-1.81L221.37,70.23z M134.73,141.04
		c-2.45-2.94-7.96-10.11-13.76-21.5l-1.55-3.45c-4.68-11.9-6.39-20.79-6.96-24.57c10.72-7.56,26.46-16.82,44.04-21.16
		c26.95-6.65,50.74,2.28,57.56,5.25c-2.3,7.07-11.4,30.8-34.27,46.54C164.9,132.4,147.51,138.04,134.73,141.04z M80.91,86.49
		c-0.27-0.96,0.35-2.57,2.06-3.78c4.03-2.85,22.91-9.93,36.26-2.1c-7.87,4.77-14.26,9.56-18.6,13.07c-2.99-1.7-9.43-4.93-15.86-5.36
		C82.63,88.18,81.19,87.5,80.91,86.49z M109.22,93.86c0.81,4.6,2.68,12.85,6.89,23.57l1.64,3.65l0.02,0.04
		c5.22,10.26,10.15,17.14,13.05,20.79c-6.54,1.38-11.41,2.01-13.36,2.23c-7.61-5.5-12.85-16.98-12.9-17.1l-1.65-3.67
		c-0.05-0.12-5.17-11.63-4.23-21C100.15,101.07,103.85,97.84,109.22,93.86z M118.74,163.89c3.94-5.1,5.8-12.05,6.51-15.42
		c5.51-0.92,13.34-2.52,22.12-5.24c-2.99,15.18-20.83,24.6-25.63,25.73c-2.04,0.48-3.65-0.12-4.19-0.97
		C116.99,167.11,117.43,165.58,118.74,163.89z"/>
	<path d="M95.87,142.98c-0.01-6.78-2.86-13.23-7.82-17.71c-1.92-1.73-4.36-3.17-7.08-4.16c-2.42-0.88-5.02-1.34-7.52-1.33
		c-2.81,0.02-5.58,0.42-8.47,1.22c-3.12,0.87-5.85,1.87-8.34,3.06c-4.91,2.35-9.14,5.38-12.58,9.01c-3.63,3.82-6.4,8.08-8.25,12.65
		c-1.79,4.44-2.75,9.27-2.75,13.94c-0.01,5.13,0.94,10.14,2.82,14.9c0.33,0.83,0.67,1.65,1.03,2.44c2.14,4.75,4.72,8.65,7.71,11.62
		c1.9,1.89,3.73,3.32,5.59,4.37c2.12,1.2,4.28,2.04,6.62,2.59c1.49,0.35,3.04,0.52,4.63,0.52c0,0,15.63,0.33,22.51-11.55
		c0,0-7.01,1.87-9.41-3.67c-1.1-3.52-0.49-6.95-0.37-7.55c0.26-0.84,0.61-1.69,1.02-2.52c0.58-1.02,1.27-1.99,2.06-2.87
		c0.98-0.99,2.15-1.92,3.66-2.92c1.95-1.28,3.62-2.5,5.09-3.74c3.87-3.25,6.55-6.65,8.19-10.4c1.03-2.35,1.61-4.94,1.67-7.49
		C95.88,143.27,95.88,143.12,95.87,142.98z M73.82,159.95c-1.17,0.92-2.21,1.96-3.19,3.07c-1.48,1.68-2.67,3.61-3.54,5.68
		c-0.09-0.62-0.15-1.25-0.18-1.88c0-1.33,0.13-2.65,0.35-3.96c0.06-0.35,0.31-1.62,0.81-3.24c0.05-0.13,0.09-0.27,0.14-0.4
		c0.05-0.13,0.09-0.26,0.12-0.4c0.64-1.9,1.61-4.1,2.99-5.81c0,0-7.99,1.03-12.91,7.64c0,0,0,0,0,0c-1.35,1.51-2.52,3.18-3.43,4.99
		c-0.76,1.5-1.26,3.16-1.46,4.83c-0.27,2.21,0.07,4.34,0.73,6.44c1.32,4.22,4.31,7.74,7.68,10.5c0.17,0.14,0.34,0.27,0.52,0.41
		c-0.16,0.01-0.33,0.02-0.49,0.03c-1.22,0-2.44-0.13-3.64-0.39c-1.19-0.31-2.33-0.76-3.43-1.31c-1.37-0.77-2.64-1.69-3.8-2.74
		c-1.63-1.57-3.03-3.36-4.25-5.27c-1.79-2.95-3.26-6.15-4.27-9.44c-0.74-2.61-1.16-5.3-1.26-8.02c-0.03-2.59,0.25-5.17,0.82-7.7
		c0.63-2.49,1.55-4.9,2.73-7.19c1.31-2.38,2.89-4.59,4.71-6.6c2.08-2.19,4.44-4.11,6.98-5.73c3.04-1.84,6.3-3.26,9.69-4.3
		c2.17-0.62,4.39-1.07,6.64-1.17c1.26,0,2.5,0.12,3.73,0.38c1.2,0.32,2.35,0.77,3.45,1.33c1,0.56,1.94,1.2,2.8,1.96
		c0.92,0.9,1.73,1.9,2.43,2.98c0.7,1.19,1.26,2.46,1.69,3.77c0.38,1.35,0.6,2.73,0.66,4.13c0,0.07,0,0.13,0,0.2
		c-0.02,0.95-0.13,1.89-0.33,2.81c-0.29,1.1-0.71,2.17-1.22,3.19c-0.76,1.33-1.67,2.55-2.69,3.69c-1.81,1.9-3.88,3.55-6.03,5.05
		C76.2,158.32,74.96,159.06,73.82,159.95z"/>
</g>
</svg>
