<?xml version="1.0" encoding="utf-8"?>
<!-- Generator: Adobe Illustrator 24.0.0, SVG Export Plug-In . SVG Version: 6.00 Build 0)  -->
<svg version="1.1" id="Layer_1" xmlns="http://www.w3.org/2000/svg" xmlns:xlink="http://www.w3.org/1999/xlink" x="0px" y="0px"
	 viewBox="0 0 256 256" style="enable-background:new 0 0 256 256;" xml:space="preserve">
<style type="text/css">
	.st0{fill:#FFFFFF;}
</style>
<circle cx="128" cy="128" r="128"/>
<path class="st0" d="M216.77,116.58l-71.73-57.36v30.4c-11.55-1.82-62.15-7.35-93.01,29.4c0,0,12.33-6.23,22.22-5.94
	c0,0-45.7,29.91-32.68,83.7c0,0,5.12-41.1,32.02-54.28c26.9-13.18,40.13-8.48,39.71-3.79c-0.43,4.7-11.24,8.54-19.92,6.19
	c0,0,10.74,11.31,24.4,8.97c12.73-2.19,16.75-11.42,27.27-10.24v30.31L216.77,116.58z"/>
</svg>
