<?xml version="1.0" encoding="utf-8"?>
<!-- Generator: Adobe Illustrator 24.0.0, SVG Export Plug-In . SVG Version: 6.00 Build 0)  -->
<svg version="1.1" id="Layer_1" xmlns="http://www.w3.org/2000/svg" xmlns:xlink="http://www.w3.org/1999/xlink" x="0px" y="0px"
	 viewBox="0 0 96 96" style="enable-background:new 0 0 96 96;" xml:space="preserve">
<style type="text/css">
	.st0{fill:#FFFFFF;}
	.st1{fill:#DD1212;}
</style>
<g>
	<circle class="st0" cx="48" cy="48" r="47.92"/>
	<g>
		<path class="st1" d="M69.43,73.14c1.29-1.04,4.01-4.17,4.39-12.11c0.51-10.46-5.31-14.67-5.31-14.67s1.93,6.4-2.18,7.03
			c-1.22-0.15-4.2-0.45-5.7-3.26c-1.5-2.81,2.31-7.53,2.61-14.75c0.3-7.22-7.44-10.2-7.44-10.2c2.68,3.2-0.82,12.21-7.79,8.93
			c-6.97-3.28-1.98-15.41-1.98-15.41c-7.16,2.23-11.15,11.91-7.65,20.02c3.5,8.11-2.75,14.22-6.85,11.4
			c-4.09-2.81-2.08-9.84-2.08-9.84s-7.67,7.82-7.07,18.12c0.51,8.89,3.99,13.04,5.15,14.26c-2.41,1.16-4.7,2.67-6.49,4.64
			c0,0,9.83-6.58,26.98-6.11v0c0,0,0,0,0,0s0,0,0,0v0c17.15-0.47,26.98,6.11,26.98,6.11C73.42,75.59,71.49,74.23,69.43,73.14z
			 M48,51.82L48,51.82L48,51.82L48,51.82L48,51.82c-0.02,0.01-10.03,8.01-5.08,17.08c0,0-7.11,0.29-13.84,3.08
			c-0.91-8.98,6.32-14.42,6.32-14.42c-0.67,3.65,0.67,8.19,0.67,8.19c1.91-9.36,9.97-17.63,12.26-19.82
			c1.72,1.73,9.69,10.21,10.15,18.64c0,0,0.84-5.05,0-8.93c0,0,10.86,5.56,8.85,16.51c-6.85-2.93-14.23-3.24-14.23-3.24
			C58.03,59.82,48.02,51.83,48,51.82z"/>
	</g>
</g>
</svg>
