<?xml version="1.0" encoding="utf-8"?>
<!-- Generator: Adobe Illustrator 24.0.0, SVG Export Plug-In . SVG Version: 6.00 Build 0)  -->
<svg version="1.1" xmlns="http://www.w3.org/2000/svg" xmlns:xlink="http://www.w3.org/1999/xlink" x="0px" y="0px"
	 viewBox="0 0 48 48" style="enable-background:new 0 0 48 48;" xml:space="preserve">
<style type="text/css">
	.st0{display:none;}
	.st1{fill:#FFFFFF;}
</style>
<g id="Layer_1" class="st0">
</g>
<g id="Layer_2">
	<g>
		<circle class="st1" cx="24" cy="24" r="23.89"/>
		<g>
			<g>
				<path d="M24,33.47c-4.83,0-9.39-1.19-12.83-3.35c-3.61-2.26-5.6-5.32-5.6-8.62s1.99-6.36,5.6-8.62c3.45-2.16,8-3.35,12.83-3.35
					s9.39,1.19,12.83,3.35c3.61,2.26,5.6,5.32,5.6,8.62s-1.99,6.36-5.6,8.62C33.39,32.29,28.83,33.47,24,33.47z M24,11.82
					c-4.41,0-8.54,1.06-11.63,3c-2.92,1.83-4.53,4.21-4.53,6.69c0,2.49,1.61,4.86,4.53,6.69c3.09,1.93,7.22,3,11.63,3
					s8.54-1.06,11.63-3c2.92-1.83,4.53-4.21,4.53-6.69c0-2.49-1.61-4.86-4.53-6.69C32.54,12.88,28.41,11.82,24,11.82z"/>
			</g>
			<g>
				<path d="M24,29.76c-3.82,0-7.43-0.84-10.14-2.37c-2.79-1.57-4.33-3.69-4.33-5.96s1.54-4.39,4.33-5.96
					c2.72-1.53,6.32-2.37,10.14-2.37s7.43,0.84,10.14,2.37c2.79,1.57,4.33,3.69,4.33,5.96s-1.54,4.39-4.33,5.96
					C31.43,28.92,27.83,29.76,24,29.76z M24,13.96c-3.68,0-7.13,0.8-9.72,2.26c-2.51,1.41-3.9,3.26-3.9,5.21s1.38,3.8,3.9,5.21
					c2.59,1.46,6.04,2.26,9.72,2.26s7.13-0.8,9.72-2.26c2.51-1.41,3.9-3.26,3.9-5.21s-1.38-3.8-3.9-5.21
					C31.13,14.76,27.68,13.96,24,13.96z"/>
			</g>
			<g>
				<path d="M24.02,38.46l-0.07,0c-11.02-0.4-15.55-4.4-17.27-6.75c-0.58-0.8-0.9-1.75-0.93-2.75l-0.19-7.43l2.28-0.06l0.19,7.43
					c0.01,0.54,0.18,1.04,0.49,1.46c0.66,0.91,1.95,2.23,4.31,3.4c2.91,1.44,6.67,2.25,11.17,2.42c4.5-0.17,8.26-0.98,11.17-2.42
					c2.36-1.17,3.64-2.49,4.31-3.4c0.31-0.42,0.48-0.93,0.49-1.46l0.19-7.43l2.28,0.06l-0.19,7.43c-0.03,1-0.35,1.95-0.93,2.75
					c-1.72,2.35-6.24,6.35-17.27,6.75L24.02,38.46z"/>
			</g>
			<g>
				<path d="M27.9,18.64c-0.74,0.11-1.4,0.32-2,0.63c-0.6,0.31-1.32,0.74-2.15,1.29c-0.8,0.54-1.45,0.93-1.96,1.16
					c-0.51,0.23-1,0.28-1.46,0.13c-0.46-0.14-0.7-0.39-0.72-0.75c-0.02-0.35,0.24-0.8,0.79-1.34c0.77-0.76,1.86-1.4,3.28-1.92
					l-1.69-1.35c-0.74,0.24-1.47,0.57-2.18,0.99c-0.44,0.26-0.84,0.55-1.22,0.85l-2.05-0.68l-1.77,1.68l2.19,0.7
					c-0.25,0.37-0.42,0.72-0.51,1.06c-0.18,0.67-0.08,1.25,0.3,1.72c0.38,0.48,0.97,0.84,1.77,1.08c0.91,0.27,1.78,0.34,2.61,0.2
					c0.82-0.14,1.54-0.38,2.17-0.72c0.62-0.34,1.35-0.79,2.18-1.35c0.53-0.36,0.96-0.64,1.3-0.84c0.34-0.2,0.67-0.34,1.01-0.42
					c0.33-0.08,0.64-0.08,0.93,0.02c0.39,0.13,0.59,0.36,0.59,0.69c0,0.33-0.23,0.76-0.72,1.3c-0.44,0.49-1,0.94-1.69,1.36
					c-0.69,0.42-1.41,0.76-2.15,1l1.6,1.35c0.78-0.26,1.58-0.66,2.39-1.2c0.5-0.33,0.95-0.68,1.35-1.05l1.47,0.47l1.39-1.6
					l-1.47-0.49c0.25-0.4,0.41-0.77,0.49-1.13c0.13-0.61,0.03-1.13-0.3-1.57c-0.33-0.44-0.82-0.77-1.5-1.01
					C29.39,18.61,28.63,18.53,27.9,18.64z"/>
			</g>
		</g>
	</g>
</g>
</svg>
