<?xml version="1.0" encoding="utf-8"?>
<!-- Generator: Adobe Illustrator 24.0.0, SVG Export Plug-In . SVG Version: 6.00 Build 0)  -->
<svg version="1.1" id="Layer_1" xmlns="http://www.w3.org/2000/svg" xmlns:xlink="http://www.w3.org/1999/xlink" x="0px" y="0px"
	 viewBox="0 0 48 48" style="enable-background:new 0 0 48 48;" xml:space="preserve">
<style type="text/css">
	.st0{fill:#FFBB24;}
	.st1{fill:#8799A0;}
	.st2{fill:#FFFFFF;}
</style>
<g>
	<circle class="st2" cx="24" cy="24" r="23.83"/>
	<g>
		<g>
			<path class="st0" d="M24,14.96H10.52c-0.81,0-1.46-0.65-1.46-1.46v-0.78c0-0.27,0.15-0.52,0.39-0.64L24,4.81l14.54,7.27
				c0.24,0.12,0.39,0.37,0.39,0.64v0.78c0,0.81-0.65,1.46-1.46,1.46H24"/>
		</g>
		<g>
			<rect x="9.84" y="14.96" class="st1" width="28.28" height="1.93"/>
		</g>
		<g>
			<rect x="32.04" y="30.22" class="st0" width="4.02" height="1.89"/>
		</g>
		<g>
			<rect x="25.74" y="30.28" class="st0" width="4.02" height="1.89"/>
		</g>
		<g>
			<rect x="18.32" y="30.22" class="st0" width="4.02" height="1.89"/>
		</g>
		<g>
			<rect x="11.88" y="30.31" class="st0" width="4.02" height="1.89"/>
		</g>
		<g>
			<path class="st0" d="M38.23,34.75H9.77l0,0c0-1.21,0.98-2.19,2.19-2.19h24.07C37.24,32.55,38.23,33.54,38.23,34.75L38.23,34.75z"
				/>
		</g>
		<g>
			<rect x="7.92" y="34.87" class="st0" width="32.16" height="2.36"/>
		</g>
		<g>
			<rect x="32.82" y="17.21" class="st1" width="2.63" height="12.8"/>
		</g>
		<g>
			<rect x="26.37" y="16.89" class="st1" width="2.88" height="13.17"/>
		</g>
		<g>
			<rect x="19.04" y="16.89" class="st1" width="2.77" height="13.12"/>
		</g>
		<g>
			<rect x="12.59" y="17.04" class="st1" width="2.86" height="13.02"/>
		</g>
		<g>
			<path d="M37.86,17.57H24v-1.05h13.64v-1.73h1.05v1.95C38.69,17.2,38.31,17.57,37.86,17.57z"/>
		</g>
		<g>
			<path d="M36.72,32.27h-1.05v-1.52h-3.12v1.52h-1.05v-1.92c0-0.36,0.29-0.66,0.66-0.66h3.91c0.36,0,0.66,0.29,0.66,0.66V32.27z"/>
		</g>
		<g>
			<polygon points="33.07,30.36 32.02,30.33 32.3,16.68 35.91,16.68 36.2,30.21 35.15,30.23 34.88,17.73 33.33,17.73 			"/>
		</g>
		<g>
			<path d="M30.36,32.11h-1.05v-1.52h-3.12v1.52h-1.05v-1.92c0-0.36,0.29-0.66,0.66-0.66h3.91c0.36,0,0.66,0.29,0.66,0.66V32.11z"/>
		</g>
		<g>
			<polygon points="26.71,30.19 25.66,30.17 25.95,16.52 29.55,16.52 29.84,30.05 28.79,30.07 28.52,17.57 26.98,17.57 			"/>
		</g>
		<g>
			<path d="M38.9,35.39H24v-1.05h13.85v-0.57c0-0.54-0.44-0.98-0.98-0.98H24v-1.05h12.87c1.12,0,2.03,0.91,2.03,2.03V35.39z"/>
		</g>
		<g>
			<path d="M39.66,37.76H24v-1.05h15.55v-1.31H24v-1.05h15.66c0.52,0,0.95,0.42,0.95,0.95v1.52C40.6,37.33,40.18,37.76,39.66,37.76z
				"/>
		</g>
		<g>
			<path d="M37.48,15.49H10.52c-1.09,0-1.99-0.89-1.99-1.99v-0.78c0-0.47,0.26-0.9,0.68-1.11L24,4.23l14.78,7.38
				c0.42,0.21,0.68,0.64,0.68,1.11v0.78C39.46,14.6,38.57,15.49,37.48,15.49z M24,5.4L9.69,12.55c-0.06,0.03-0.1,0.1-0.1,0.17v0.78
				c0,0.51,0.42,0.93,0.93,0.93h26.95c0.51,0,0.93-0.42,0.93-0.93v-0.78c0-0.07-0.04-0.14-0.1-0.17L24,5.4z"/>
		</g>
		<g>
			<path d="M24,17.57H10.14c-0.46,0-0.83-0.37-0.83-0.83v-1.95h1.05v1.73H24V17.57z"/>
		</g>
		<g>
			<path d="M16.51,32.27h-1.05v-1.52h-3.12v1.52h-1.05v-1.92c0-0.36,0.29-0.66,0.66-0.66h3.91c0.36,0,0.66,0.29,0.66,0.66V32.27z"/>
		</g>
		<g>
			<polygon points="14.93,30.36 14.67,17.73 13.12,17.73 12.85,30.23 11.8,30.21 12.09,16.68 15.7,16.68 15.98,30.33 			"/>
		</g>
		<g>
			<path d="M22.86,32.11h-1.05v-1.52h-3.12v1.52h-1.05v-1.92c0-0.36,0.29-0.66,0.66-0.66h3.91c0.36,0,0.66,0.29,0.66,0.66V32.11z"/>
		</g>
		<g>
			<polygon points="21.29,30.19 21.02,17.57 19.48,17.57 19.21,30.07 18.16,30.05 18.45,16.52 22.05,16.52 22.34,30.17 			"/>
		</g>
		<g>
			<path d="M24,35.39H9.1v-1.62c0-1.12,0.91-2.03,2.03-2.03H24v1.05H11.13c-0.54,0-0.98,0.44-0.98,0.98v0.57H24V35.39z"/>
		</g>
		<g>
			<path d="M24,37.76H8.34c-0.52,0-0.95-0.42-0.95-0.95v-1.52c0-0.52,0.42-0.95,0.95-0.95H24v1.05H8.45v1.31H24V37.76z"/>
		</g>
		<g>
			<g>
				<circle class="st0" cx="24" cy="24.02" r="6.24"/>
			</g>
			<g>
				<path d="M30.21,21.4c-0.34-0.8-0.83-1.52-1.44-2.14c-0.62-0.62-1.34-1.11-2.14-1.44c-0.83-0.35-1.71-0.53-2.62-0.53
					s-1.79,0.18-2.62,0.53c-0.8,0.34-1.52,0.83-2.14,1.44c-0.62,0.62-1.11,1.34-1.44,2.14c-0.35,0.83-0.53,1.71-0.53,2.62
					c0,0.91,0.18,1.79,0.53,2.62c0.34,0.8,0.83,1.52,1.44,2.14c0.62,0.62,1.34,1.11,2.14,1.44c0.83,0.35,1.71,0.53,2.62,0.53
					c0.91,0,1.79-0.18,2.62-0.53c0.8-0.34,1.52-0.83,2.14-1.44c0.62-0.62,1.11-1.34,1.44-2.14c0.35-0.83,0.53-1.71,0.53-2.62
					C30.74,23.11,30.56,22.23,30.21,21.4z M29.87,24.02c0,3.24-2.63,5.87-5.87,5.87s-5.87-2.63-5.87-5.87
					c0-3.24,2.63-5.87,5.87-5.87S29.87,20.78,29.87,24.02z"/>
			</g>
			<g>
				<path d="M24,18.7c-1.42,0-2.76,0.55-3.76,1.56c-1.01,1-1.56,2.34-1.56,3.76c0,1.42,0.55,2.76,1.56,3.76c1,1,2.34,1.56,3.76,1.56
					c1.42,0,2.76-0.55,3.76-1.56c1.01-1.01,1.56-2.34,1.56-3.76c0-1.42-0.55-2.76-1.56-3.76C26.76,19.25,25.42,18.7,24,18.7z
					 M24,28.87c-2.67,0-4.84-2.17-4.84-4.84c0-2.67,2.17-4.84,4.84-4.84c2.67,0,4.84,2.17,4.84,4.84
					C28.84,26.69,26.67,28.87,24,28.87z"/>
			</g>
			<g>
				<path d="M24.64,25.69c-0.05-0.04-0.18-0.14-0.41-0.3c-0.24-0.17-0.38-0.28-0.43-0.34c-0.03-0.04-0.05-0.08-0.05-0.12
					c0-0.04,0.02-0.08,0.07-0.12c0.05-0.04,0.11-0.05,0.19-0.05c0.16,0,0.31,0.09,0.46,0.27l0.43-0.33
					c-0.16-0.16-0.31-0.27-0.45-0.33c-0.14-0.06-0.28-0.09-0.44-0.09c-0.01,0-0.02,0-0.03,0v-0.26h-0.32v0.32
					c-0.09,0.03-0.18,0.08-0.26,0.14c-0.16,0.13-0.24,0.29-0.24,0.47c0,0.13,0.05,0.25,0.15,0.38c0.1,0.13,0.31,0.31,0.65,0.54
					c0.18,0.12,0.29,0.21,0.34,0.27c0.05,0.06,0.08,0.12,0.08,0.18c0,0.07-0.03,0.12-0.1,0.17c-0.07,0.05-0.15,0.07-0.25,0.07
					c-0.19,0-0.36-0.12-0.51-0.35l-0.49,0.25c0.12,0.2,0.25,0.34,0.42,0.43c0.16,0.09,0.34,0.13,0.55,0.14v0.29h0.32V27
					c0.15-0.03,0.27-0.09,0.38-0.18c0.17-0.14,0.26-0.32,0.26-0.53c0-0.11-0.02-0.21-0.07-0.31C24.84,25.89,24.76,25.8,24.64,25.69z
					"/>
			</g>
			<g>
				<path d="M26,22.27l-0.33-0.3l0.05,0.45c0.02,0.2,0.02,0.78-0.21,0.99c-0.08,0.07-0.19,0.09-0.33,0.06
					c-0.13-0.03-0.21-0.07-0.25-0.13c-0.08-0.15,0.03-0.47,0.14-0.78c0.11-0.32,0.24-0.68,0.24-1.02c0-0.47-0.17-0.92-0.48-1.26
					c-0.32-0.34-0.74-0.54-1.21-0.54l-0.26-0.01l0.1,0.24c0.01,0.03,0.25,0.65-0.21,1.41c-0.56,0.9-0.77,1.32-0.93,1.99
					c-0.06-0.24-0.08-0.57,0.02-0.95l0.12-0.45l-0.38,0.26c-0.02,0.01-0.44,0.31-0.8,0.91c-0.33,0.55-0.67,1.47-0.41,2.73l0,0.01
					c0.18,0.69,0.56,1.27,1.11,1.67c0.55,0.4,1.25,0.61,2.03,0.61c0.76,0,1.5-0.24,2.07-0.66c0.44-0.33,0.77-0.76,0.94-1.24
					c0.03-0.07,0.22-0.61,0.2-1.34C27.21,24.2,26.98,23.16,26,22.27z M26.8,25.77L26.8,25.77c-0.02,0.11-0.05,0.22-0.09,0.33
					c-0.01,0.02-0.01,0.03-0.01,0.03l0,0c-0.35,0.98-1.43,1.68-2.69,1.68c-1.44,0-2.49-0.75-2.81-2.01
					c-0.19-0.92-0.07-1.75,0.36-2.47c0.12-0.21,0.26-0.38,0.37-0.5c-0.03,0.72,0.29,1.19,0.3,1.21l0.23,0.34l0.07-0.4
					c0.17-0.94,0.28-1.27,1-2.42c0.38-0.6,0.36-1.15,0.31-1.46c0.65,0.12,1.12,0.71,1.12,1.44c0,0.29-0.11,0.6-0.22,0.91
					c-0.14,0.4-0.28,0.78-0.12,1.06c0.09,0.15,0.25,0.25,0.48,0.3c0.31,0.06,0.51-0.04,0.62-0.15c0.23-0.2,0.3-0.56,0.32-0.84
					c0.52,0.59,0.8,1.29,0.82,2.09C26.89,25.25,26.85,25.55,26.8,25.77z"/>
			</g>
		</g>
	</g>
</g>
</svg>
