<?xml version="1.0" encoding="utf-8"?>
<!-- Generator: Adobe Illustrator 24.0.0, SVG Export Plug-In . SVG Version: 6.00 Build 0)  -->
<svg version="1.1" id="Layer_1" xmlns="http://www.w3.org/2000/svg" xmlns:xlink="http://www.w3.org/1999/xlink" x="0px" y="0px"
	 viewBox="0 0 48 48" style="enable-background:new 0 0 48 48;" xml:space="preserve">
<style type="text/css">
	.st0{fill:#FFBB24;}
	.st1{fill:#8799A0;}
	.st2{fill:#FFFFFF;}
</style>
<g>
	<circle cx="24" cy="24" r="23.83"/>
	<g>
		<g>
			<g>
				<path class="st2" d="M30.21,21.4c-0.34-0.8-0.83-1.52-1.44-2.14c-0.62-0.62-1.34-1.1-2.14-1.44c-0.83-0.35-1.71-0.53-2.62-0.53
					s-1.79,0.18-2.62,0.53c-0.8,0.34-1.52,0.83-2.14,1.44c-0.62,0.62-1.1,1.34-1.44,2.14c-0.35,0.83-0.53,1.71-0.53,2.62
					c0,0.91,0.18,1.79,0.53,2.62c0.34,0.8,0.83,1.52,1.44,2.14c0.62,0.62,1.34,1.1,2.14,1.44c0.83,0.35,1.71,0.53,2.62,0.53
					c0.91,0,1.79-0.18,2.62-0.53c0.8-0.34,1.52-0.83,2.14-1.44c0.62-0.62,1.1-1.34,1.44-2.14c0.35-0.83,0.53-1.71,0.53-2.62
					C30.74,23.11,30.56,22.23,30.21,21.4z M29.87,24.02c0,3.24-2.63,5.87-5.87,5.87s-5.87-2.63-5.87-5.87
					c0-3.24,2.63-5.87,5.87-5.87S29.87,20.79,29.87,24.02z"/>
			</g>
			<g>
				<path class="st2" d="M24,18.7c-1.42,0-2.76,0.55-3.76,1.56c-1,1-1.56,2.34-1.56,3.76c0,1.42,0.55,2.76,1.56,3.76
					c1,1,2.34,1.56,3.76,1.56c1.42,0,2.76-0.55,3.76-1.56c1-1,1.56-2.34,1.56-3.76c0-1.42-0.55-2.76-1.56-3.76
					C26.76,19.26,25.42,18.7,24,18.7z M24,28.86c-2.67,0-4.84-2.17-4.84-4.84c0-2.67,2.17-4.84,4.84-4.84
					c2.67,0,4.84,2.17,4.84,4.84C28.84,26.69,26.67,28.86,24,28.86z"/>
			</g>
			<g>
				<path class="st2" d="M24.64,25.69c-0.05-0.04-0.18-0.14-0.41-0.3c-0.24-0.17-0.38-0.28-0.43-0.34
					c-0.03-0.04-0.05-0.08-0.05-0.12c0-0.04,0.02-0.08,0.07-0.12c0.05-0.04,0.11-0.05,0.19-0.05c0.16,0,0.31,0.09,0.46,0.27
					l0.43-0.33c-0.16-0.16-0.31-0.27-0.45-0.33c-0.14-0.06-0.28-0.09-0.44-0.09c-0.01,0-0.02,0-0.03,0v-0.26h-0.32v0.32
					c-0.09,0.03-0.18,0.08-0.25,0.14c-0.16,0.13-0.24,0.29-0.24,0.47c0,0.13,0.05,0.25,0.15,0.38c0.1,0.13,0.31,0.31,0.65,0.54
					c0.18,0.12,0.29,0.21,0.34,0.27c0.05,0.06,0.08,0.12,0.08,0.18c0,0.07-0.03,0.12-0.1,0.17c-0.07,0.05-0.15,0.07-0.25,0.07
					c-0.19,0-0.36-0.12-0.51-0.35l-0.49,0.25c0.12,0.2,0.25,0.34,0.42,0.43c0.16,0.09,0.34,0.13,0.55,0.14v0.29h0.32V27
					c0.15-0.03,0.27-0.09,0.38-0.18c0.17-0.14,0.26-0.32,0.26-0.53c0-0.11-0.02-0.21-0.07-0.31C24.84,25.89,24.76,25.8,24.64,25.69z
					"/>
			</g>
			<g>
				<path class="st2" d="M26,22.27l-0.33-0.3l0.05,0.45c0.02,0.2,0.02,0.78-0.21,0.99c-0.08,0.07-0.19,0.09-0.33,0.06
					c-0.13-0.03-0.21-0.07-0.25-0.13c-0.08-0.15,0.03-0.47,0.14-0.78c0.11-0.32,0.24-0.68,0.24-1.02c0-0.47-0.17-0.92-0.48-1.26
					c-0.32-0.34-0.74-0.54-1.21-0.54l-0.26-0.01l0.1,0.24c0.01,0.03,0.25,0.65-0.21,1.41c-0.56,0.9-0.77,1.32-0.93,1.99
					c-0.06-0.24-0.08-0.57,0.02-0.94l0.12-0.45l-0.38,0.26c-0.02,0.01-0.44,0.31-0.8,0.91c-0.33,0.55-0.67,1.47-0.41,2.73l0,0.01
					c0.18,0.69,0.56,1.27,1.11,1.67c0.55,0.4,1.25,0.61,2.03,0.61c0.76,0,1.5-0.24,2.07-0.66c0.44-0.33,0.77-0.76,0.94-1.24
					c0.03-0.07,0.22-0.61,0.2-1.34C27.2,24.2,26.98,23.16,26,22.27z M26.8,25.76L26.8,25.76c-0.02,0.11-0.05,0.22-0.09,0.33
					c-0.01,0.02-0.01,0.03-0.01,0.03l0,0c-0.35,0.98-1.43,1.68-2.69,1.68c-1.44,0-2.49-0.75-2.81-2.01
					c-0.19-0.92-0.07-1.74,0.36-2.46c0.12-0.21,0.26-0.38,0.37-0.5c-0.03,0.72,0.29,1.19,0.3,1.21l0.23,0.34l0.07-0.4
					c0.17-0.94,0.28-1.27,1-2.42c0.38-0.6,0.36-1.15,0.31-1.46c0.65,0.12,1.12,0.71,1.12,1.44c0,0.29-0.11,0.6-0.22,0.91
					c-0.14,0.4-0.28,0.78-0.12,1.06c0.09,0.15,0.25,0.25,0.48,0.3c0.31,0.06,0.51-0.04,0.62-0.15c0.23-0.2,0.3-0.56,0.32-0.84
					c0.52,0.59,0.8,1.29,0.82,2.09C26.89,25.25,26.85,25.55,26.8,25.76z"/>
			</g>
		</g>
		<path class="st2" d="M39.65,34.34h-0.76v-0.57c0-1.12-0.91-2.03-2.03-2.03h-0.15v-1.39c0-0.32-0.23-0.59-0.53-0.64l-0.26-12.14
			h1.93c0.46,0,0.83-0.37,0.83-0.83v-1.67c0.47-0.36,0.77-0.93,0.77-1.57v-0.78c0-0.47-0.26-0.9-0.68-1.11L24,4.23L9.23,11.61
			c-0.42,0.21-0.68,0.64-0.68,1.11v0.78c0,0.64,0.3,1.21,0.77,1.57v1.67c0,0.46,0.37,0.83,0.83,0.83h1.93l-0.26,12.14
			c-0.3,0.06-0.53,0.32-0.53,0.64v1.39h-0.15c-1.12,0-2.03,0.91-2.03,2.03v0.57H8.35c-0.52,0-0.95,0.42-0.95,0.95v1.52
			c0,0.52,0.42,0.95,0.95,0.95H24h15.65c0.52,0,0.95-0.42,0.95-0.95v-1.52C40.6,34.76,40.18,34.34,39.65,34.34z M9.59,13.51v-0.78
			c0-0.07,0.04-0.14,0.1-0.17L24,5.41l14.3,7.15c0.06,0.03,0.1,0.1,0.1,0.17v0.78c0,0.51-0.42,0.93-0.93,0.93H10.53
			C10.01,14.44,9.59,14.02,9.59,13.51z M10.37,16.52v-1.04c0.05,0,0.11,0.01,0.16,0.01h26.94c0.05,0,0.11,0,0.16-0.01v1.04h-8.08
			h-3.6H24h-1.95h-3.6H10.37z M35.66,30.75v1h-3.12v-1H35.66z M33.08,29.7l0.25-11.96h1.55l0.25,11.96H33.08z M29.83,29.54
			l-0.05-2.51c-0.27,0.53-0.62,1.01-1.02,1.44l0.02,1.06h-1.3c-0.7,0.44-1.49,0.76-2.34,0.9v1.31H24h-1.14v-1.31
			c-0.85-0.15-1.64-0.46-2.34-0.9h-1.3l0.02-1.06c-0.4-0.43-0.75-0.91-1.02-1.44l-0.05,2.51c-0.3,0.06-0.53,0.32-0.53,0.64v1.56
			h-1.13v-1.39c0-0.32-0.23-0.59-0.54-0.64l-0.26-12.14h2.71l-0.07,3.19c0.3-0.51,0.66-0.98,1.08-1.39l0.04-1.8h1.55l0.01,0.65
			c0.33-0.17,0.68-0.31,1.04-0.43l0-0.22h1.01c0.3-0.04,0.61-0.07,0.92-0.07s0.62,0.02,0.92,0.07h1.01l0,0.22
			c0.36,0.11,0.71,0.26,1.04,0.43l0.01-0.65h1.55l0.04,1.8c0.42,0.41,0.78,0.88,1.08,1.39l-0.07-3.19h2.71l-0.26,12.14
			c-0.3,0.06-0.54,0.32-0.54,0.64v1.39h-1.13v-1.56C30.36,29.87,30.13,29.6,29.83,29.54z M29.31,30.58v1.16h-3.12v-1.16H29.31z
			 M21.81,30.58v1.16h-3.12v-1.16H21.81z M15.46,30.75v1h-3.12v-1H15.46z M12.87,29.7l0.25-11.96h1.55l0.25,11.96H12.87z
			 M10.16,33.77c0-0.54,0.44-0.97,0.97-0.97H24h12.87c0.54,0,0.97,0.44,0.97,0.97v0.57H24H10.16V33.77z M39.55,36.7H24H8.45v-1.31
			h0.65H24h14.89h0.65V36.7z"/>
	</g>
</g>
</svg>
