<?xml version="1.0" encoding="utf-8"?>
<!-- Generator: Adobe Illustrator 24.0.0, SVG Export Plug-In . SVG Version: 6.00 Build 0)  -->
<svg version="1.1" id="Layer_1" xmlns="http://www.w3.org/2000/svg" xmlns:xlink="http://www.w3.org/1999/xlink" x="0px" y="0px"
	 viewBox="0 0 48 48" style="enable-background:new 0 0 48 48;" xml:space="preserve">
<style type="text/css">
	.st0{fill:#FFBB24;}
	.st1{fill:#8799A0;}
	.st2{fill:#FFFFFF;}
</style>
<g>
	<g>
		<path class="st0" d="M24,15.48H4.97c-1.14,0-2.06-0.92-2.06-2.06v-1.11c0-0.38,0.22-0.73,0.56-0.9L24,1.16l20.53,10.26
			c0.34,0.17,0.56,0.52,0.56,0.9v1.11c0,1.14-0.92,2.06-2.06,2.06H24"/>
	</g>
	<g>
		<rect x="4.01" y="15.48" class="st1" width="39.93" height="2.73"/>
	</g>
	<g>
		<rect x="35.35" y="37.03" class="st0" width="5.67" height="2.66"/>
	</g>
	<g>
		<rect x="26.46" y="37.12" class="st0" width="5.67" height="2.66"/>
	</g>
	<g>
		<rect x="15.98" y="37.03" class="st0" width="5.67" height="2.66"/>
	</g>
	<g>
		<rect x="6.89" y="37.15" class="st0" width="5.67" height="2.66"/>
	</g>
	<g>
		<path class="st0" d="M44.09,43.42H3.91v0c0-1.71,1.39-3.1,3.1-3.1h33.98C42.7,40.32,44.09,41.71,44.09,43.42L44.09,43.42z"/>
	</g>
	<g>
		<rect x="1.3" y="43.59" class="st0" width="45.41" height="3.34"/>
	</g>
	<g>
		<rect x="36.45" y="18.66" class="st1" width="3.71" height="18.08"/>
	</g>
	<g>
		<rect x="27.35" y="18.21" class="st1" width="4.07" height="18.59"/>
	</g>
	<g>
		<rect x="17" y="18.21" class="st1" width="3.91" height="18.52"/>
	</g>
	<g>
		<rect x="7.9" y="18.42" class="st1" width="4.03" height="18.38"/>
	</g>
	<g>
		<path d="M43.57,19.17H24v-1.48h19.25v-2.44h1.48V18C44.74,18.64,44.21,19.17,43.57,19.17z"/>
	</g>
	<g>
		<path d="M41.96,39.93h-1.48v-2.15h-4.41v2.15h-1.48v-2.71c0-0.51,0.42-0.93,0.93-0.93h5.52c0.51,0,0.93,0.42,0.93,0.93V39.93z"/>
	</g>
	<g>
		<polygon points="36.8,37.22 35.32,37.19 35.73,17.91 40.82,17.91 41.22,37.02 39.74,37.05 39.36,19.4 37.18,19.4 		"/>
	</g>
	<g>
		<path d="M32.99,39.7H31.5v-2.15h-4.41v2.15h-1.48v-2.71c0-0.51,0.42-0.93,0.93-0.93h5.52c0.51,0,0.93,0.42,0.93,0.93V39.7z"/>
	</g>
	<g>
		<polygon points="27.83,36.99 26.35,36.96 26.75,17.68 31.84,17.68 32.25,36.79 30.77,36.82 30.39,19.17 28.21,19.17 		"/>
	</g>
	<g>
		<path d="M45.04,44.33H24v-1.48h19.55v-0.8c0-0.76-0.62-1.38-1.38-1.38H24v-1.48h18.18c1.58,0,2.86,1.28,2.86,2.86V44.33z"/>
	</g>
	<g>
		<path d="M46.11,47.67H24v-1.48h21.96v-1.85H24v-1.48h22.11c0.74,0,1.34,0.6,1.34,1.34v2.15C47.45,47.07,46.85,47.67,46.11,47.67z"
			/>
	</g>
	<g>
		<path d="M43.03,16.23H4.97c-1.55,0-2.8-1.26-2.8-2.8v-1.11c0-0.67,0.37-1.27,0.97-1.56L24,0.33l20.86,10.42
			c0.6,0.3,0.97,0.9,0.97,1.56v1.11C45.83,14.97,44.57,16.23,43.03,16.23z M24,1.99L3.8,12.08c-0.09,0.04-0.15,0.14-0.15,0.24v1.11
			c0,0.73,0.59,1.32,1.32,1.32h38.05c0.73,0,1.32-0.59,1.32-1.32v-1.11c0-0.1-0.06-0.19-0.15-0.24L24,1.99z"/>
	</g>
	<g>
		<path d="M24,19.17H4.44c-0.65,0-1.17-0.53-1.17-1.17v-2.75h1.48v2.44H24V19.17z"/>
	</g>
	<g>
		<path d="M13.42,39.93h-1.48v-2.15H7.53v2.15H6.04v-2.71c0-0.51,0.42-0.93,0.93-0.93h5.52c0.51,0,0.93,0.42,0.93,0.93V39.93z"/>
	</g>
	<g>
		<polygon points="11.2,37.22 10.82,19.4 8.64,19.4 8.26,37.05 6.78,37.02 7.19,17.91 12.28,17.91 12.68,37.19 		"/>
	</g>
	<g>
		<path d="M22.39,39.7h-1.48v-2.15H16.5v2.15h-1.48v-2.71c0-0.51,0.42-0.93,0.93-0.93h5.52c0.51,0,0.93,0.42,0.93,0.93V39.7z"/>
	</g>
	<g>
		<polygon points="20.17,36.99 19.8,19.17 17.61,19.17 17.24,36.82 15.75,36.79 16.16,17.68 21.25,17.68 21.66,36.96 		"/>
	</g>
	<g>
		<path d="M24,44.33H2.96v-2.29c0-1.58,1.28-2.86,2.86-2.86H24v1.48H5.83c-0.76,0-1.38,0.62-1.38,1.38v0.8H24V44.33z"/>
	</g>
	<g>
		<path d="M24,47.67H1.89c-0.74,0-1.34-0.6-1.34-1.34v-2.15c0-0.74,0.6-1.34,1.34-1.34H24v1.48H2.04v1.85H24V47.67z"/>
	</g>
	<g>
		<g>
			<circle class="st0" cx="24" cy="28.28" r="8.81"/>
		</g>
		<g>
			<path d="M32.77,24.57c-0.48-1.13-1.17-2.15-2.04-3.03c-0.87-0.87-1.89-1.56-3.03-2.04c-1.17-0.5-2.42-0.75-3.71-0.75
				c-1.29,0-2.53,0.25-3.71,0.75c-1.13,0.48-2.15,1.17-3.03,2.04c-0.87,0.87-1.56,1.89-2.04,3.03c-0.5,1.17-0.75,2.42-0.75,3.71
				c0,1.29,0.25,2.53,0.75,3.71c0.48,1.13,1.17,2.15,2.04,3.03c0.87,0.87,1.89,1.56,3.03,2.04c1.17,0.5,2.42,0.75,3.71,0.75
				c1.28,0,2.53-0.25,3.71-0.75c1.13-0.48,2.15-1.17,3.03-2.04c0.87-0.87,1.56-1.89,2.04-3.03c0.5-1.17,0.75-2.42,0.75-3.71
				C33.52,26.99,33.27,25.75,32.77,24.57z M32.29,28.28c0,4.57-3.72,8.29-8.29,8.29s-8.29-3.72-8.29-8.29
				c0-4.57,3.72-8.29,8.29-8.29S32.29,23.71,32.29,28.28z"/>
		</g>
		<g>
			<path d="M24,20.76c-2.01,0-3.89,0.78-5.31,2.2c-1.42,1.42-2.2,3.31-2.2,5.31s0.78,3.89,2.2,5.31c1.42,1.42,3.31,2.2,5.31,2.2
				c2.01,0,3.89-0.78,5.31-2.2c1.42-1.42,2.2-3.31,2.2-5.31s-0.78-3.89-2.2-5.31C27.89,21.55,26.01,20.76,24,20.76z M24,35.12
				c-3.77,0-6.84-3.07-6.84-6.84c0-3.77,3.07-6.84,6.84-6.84c3.77,0,6.84,3.07,6.84,6.84C30.84,32.05,27.77,35.12,24,35.12z"/>
		</g>
		<g>
			<path d="M24.9,30.64c-0.07-0.06-0.26-0.2-0.57-0.43c-0.34-0.24-0.54-0.4-0.61-0.48c-0.05-0.06-0.07-0.11-0.07-0.18
				c0-0.06,0.03-0.12,0.1-0.17c0.07-0.05,0.16-0.07,0.27-0.07c0.22,0,0.44,0.13,0.66,0.38l0.61-0.46c-0.23-0.23-0.44-0.38-0.64-0.47
				c-0.2-0.09-0.4-0.13-0.62-0.13c-0.01,0-0.03,0-0.04,0v-0.37h-0.45v0.45c-0.13,0.05-0.25,0.11-0.36,0.2
				c-0.23,0.18-0.34,0.4-0.34,0.66c0,0.18,0.07,0.36,0.21,0.53c0.14,0.18,0.44,0.43,0.92,0.76c0.25,0.17,0.41,0.3,0.48,0.38
				c0.07,0.08,0.11,0.17,0.11,0.25c0,0.09-0.05,0.17-0.14,0.24c-0.1,0.07-0.22,0.11-0.36,0.11c-0.27,0-0.51-0.16-0.72-0.49
				l-0.69,0.36c0.16,0.28,0.36,0.48,0.59,0.61c0.22,0.13,0.48,0.19,0.78,0.19v0.42h0.45v-0.46c0.21-0.05,0.39-0.13,0.54-0.25
				c0.25-0.2,0.37-0.45,0.37-0.75c0-0.16-0.03-0.3-0.1-0.43C25.19,30.92,25.07,30.78,24.9,30.64z"/>
		</g>
		<g>
			<path d="M26.83,25.8l-0.47-0.43L26.43,26c0.03,0.29,0.04,1.1-0.29,1.4c-0.11,0.1-0.26,0.13-0.46,0.09
				c-0.18-0.04-0.3-0.1-0.35-0.19c-0.12-0.21,0.05-0.66,0.2-1.1c0.16-0.45,0.34-0.95,0.34-1.45c0-0.67-0.24-1.3-0.68-1.78
				c-0.45-0.48-1.05-0.76-1.7-0.77l-0.37-0.01l0.14,0.34c0.02,0.04,0.36,0.92-0.3,1.99c-0.79,1.27-1.09,1.86-1.31,2.81
				c-0.08-0.34-0.12-0.8,0.02-1.33l0.16-0.63l-0.53,0.37c-0.03,0.02-0.62,0.44-1.13,1.28c-0.47,0.78-0.95,2.07-0.58,3.85l0,0.01
				c0.25,0.98,0.79,1.79,1.57,2.36c0.78,0.56,1.77,0.85,2.86,0.85c1.08,0,2.12-0.33,2.93-0.94c0.63-0.47,1.08-1.08,1.32-1.75
				c0.04-0.1,0.31-0.86,0.28-1.89C28.53,28.53,28.21,27.07,26.83,25.8z M27.96,30.74l-0.01,0c-0.02,0.16-0.06,0.32-0.11,0.47
				c-0.01,0.03-0.02,0.04-0.02,0.04l0,0c-0.49,1.38-2.03,2.37-3.8,2.37c-2.03,0-3.51-1.06-3.97-2.84c-0.27-1.29-0.09-2.46,0.51-3.48
				c0.17-0.29,0.36-0.53,0.53-0.71c-0.04,1.01,0.41,1.68,0.43,1.71l0.33,0.48l0.1-0.57c0.24-1.33,0.4-1.8,1.41-3.41
				c0.53-0.85,0.51-1.62,0.44-2.06c0.91,0.17,1.59,1.01,1.59,2.03c0,0.41-0.16,0.85-0.31,1.28c-0.2,0.57-0.39,1.1-0.17,1.5
				c0.12,0.21,0.35,0.36,0.67,0.42c0.44,0.09,0.72-0.06,0.88-0.21c0.32-0.29,0.42-0.79,0.45-1.19c0.74,0.84,1.12,1.83,1.16,2.95
				C28.08,30.01,28.02,30.43,27.96,30.74z"/>
		</g>
	</g>
</g>
</svg>
