<?xml version="1.0" encoding="utf-8"?>
<!-- Generator: Adobe Illustrator 24.0.0, SVG Export Plug-In . SVG Version: 6.00 Build 0)  -->
<svg version="1.1" id="Layer_1" xmlns="http://www.w3.org/2000/svg" xmlns:xlink="http://www.w3.org/1999/xlink" x="0px" y="0px"
	 viewBox="0 0 48 48" style="enable-background:new 0 0 48 48;" xml:space="preserve">
<style type="text/css">
	.st0{fill:#FFBB24;}
	.st1{fill:#8799A0;}
	.st2{fill:#FFFFFF;}
</style>
<g>
	<circle class="st2" cx="24" cy="24" r="23.94"/>
	<g>
		<g>
			<g>
				<path d="M30.24,21.39c-0.34-0.81-0.83-1.53-1.45-2.15c-0.62-0.62-1.35-1.11-2.15-1.45c-0.84-0.35-1.72-0.53-2.64-0.53
					s-1.8,0.18-2.64,0.53c-0.81,0.34-1.53,0.83-2.15,1.45c-0.62,0.62-1.11,1.35-1.45,2.15c-0.35,0.84-0.53,1.72-0.53,2.64
					c0,0.91,0.18,1.8,0.53,2.64c0.34,0.81,0.83,1.53,1.45,2.15c0.62,0.62,1.35,1.11,2.15,1.45c0.84,0.35,1.72,0.53,2.64,0.53
					c0.91,0,1.8-0.18,2.64-0.53c0.81-0.34,1.53-0.83,2.15-1.45c0.62-0.62,1.11-1.35,1.45-2.15c0.35-0.84,0.53-1.72,0.53-2.64
					C30.77,23.11,30.59,22.22,30.24,21.39z M29.9,24.02c0,3.25-2.65,5.9-5.9,5.9s-5.9-2.65-5.9-5.9c0-3.25,2.65-5.9,5.9-5.9
					S29.9,20.77,29.9,24.02z"/>
			</g>
			<g>
				<path d="M24,18.68c-1.43,0-2.77,0.56-3.78,1.57c-1.01,1.01-1.57,2.35-1.57,3.78s0.56,2.77,1.57,3.78
					c1.01,1.01,2.35,1.57,3.78,1.57c1.43,0,2.77-0.56,3.78-1.57c1.01-1.01,1.57-2.35,1.57-3.78s-0.56-2.77-1.57-3.78
					C26.77,19.23,25.43,18.68,24,18.68z M24,28.89c-2.68,0-4.87-2.18-4.87-4.87c0-2.68,2.18-4.87,4.87-4.87
					c2.68,0,4.87,2.18,4.87,4.87C28.87,26.7,26.68,28.89,24,28.89z"/>
			</g>
			<g>
				<path d="M24.64,25.7c-0.05-0.04-0.18-0.14-0.41-0.3c-0.24-0.17-0.38-0.29-0.43-0.34c-0.04-0.04-0.05-0.08-0.05-0.13
					c0-0.04,0.02-0.08,0.07-0.12c0.05-0.04,0.11-0.05,0.19-0.05c0.16,0,0.31,0.09,0.47,0.27l0.44-0.33
					c-0.16-0.16-0.31-0.27-0.45-0.33c-0.14-0.06-0.29-0.09-0.44-0.09c-0.01,0-0.02,0-0.03,0v-0.26h-0.32v0.32
					c-0.09,0.03-0.18,0.08-0.26,0.14c-0.16,0.13-0.24,0.29-0.24,0.47c0,0.13,0.05,0.25,0.15,0.38c0.1,0.13,0.32,0.31,0.65,0.54
					c0.18,0.12,0.29,0.21,0.34,0.27c0.05,0.06,0.08,0.12,0.08,0.18c0,0.07-0.03,0.12-0.1,0.17c-0.07,0.05-0.15,0.08-0.25,0.08
					c-0.19,0-0.36-0.12-0.51-0.35l-0.49,0.25c0.12,0.2,0.26,0.34,0.42,0.43c0.16,0.09,0.34,0.14,0.56,0.14v0.3h0.32v-0.33
					c0.15-0.03,0.28-0.09,0.38-0.18c0.18-0.14,0.26-0.32,0.26-0.54c0-0.11-0.02-0.21-0.07-0.31C24.85,25.9,24.76,25.8,24.64,25.7z"
					/>
			</g>
			<g>
				<path d="M26.01,22.26l-0.33-0.31l0.05,0.45c0.02,0.21,0.02,0.79-0.21,1c-0.08,0.07-0.19,0.09-0.33,0.06
					c-0.13-0.03-0.21-0.07-0.25-0.13c-0.08-0.15,0.03-0.47,0.14-0.78c0.11-0.32,0.24-0.68,0.24-1.03c0-0.48-0.17-0.93-0.48-1.26
					c-0.32-0.34-0.75-0.54-1.21-0.55l-0.26-0.01l0.1,0.24c0.01,0.03,0.26,0.66-0.22,1.41c-0.56,0.9-0.77,1.32-0.94,2
					c-0.06-0.24-0.08-0.57,0.02-0.95l0.12-0.45l-0.38,0.26c-0.02,0.01-0.44,0.31-0.8,0.91c-0.33,0.55-0.67,1.48-0.41,2.74l0,0.01
					c0.18,0.7,0.56,1.28,1.12,1.68c0.55,0.4,1.26,0.61,2.04,0.61c0.77,0,1.51-0.24,2.08-0.67c0.45-0.33,0.77-0.77,0.94-1.24
					c0.03-0.07,0.22-0.61,0.2-1.34C27.22,24.2,26.99,23.16,26.01,22.26z M26.82,25.77L26.82,25.77c-0.03,0.11-0.05,0.23-0.09,0.33
					c-0.01,0.02-0.01,0.03-0.01,0.03l0,0c-0.35,0.98-1.44,1.68-2.7,1.68c-1.44,0-2.5-0.76-2.82-2.02c-0.19-0.92-0.07-1.75,0.36-2.48
					c0.12-0.21,0.26-0.38,0.37-0.51c-0.03,0.72,0.29,1.19,0.31,1.22l0.24,0.34l0.07-0.41c0.17-0.94,0.29-1.28,1-2.43
					c0.38-0.61,0.37-1.16,0.31-1.46c0.65,0.12,1.13,0.72,1.13,1.44c0,0.29-0.11,0.61-0.22,0.91c-0.14,0.4-0.28,0.78-0.12,1.07
					c0.09,0.15,0.25,0.25,0.48,0.3c0.31,0.06,0.51-0.04,0.63-0.15c0.23-0.21,0.3-0.56,0.32-0.84c0.52,0.6,0.8,1.3,0.82,2.1
					C26.9,25.25,26.86,25.56,26.82,25.77z"/>
			</g>
		</g>
		<path d="M39.73,34.39h-0.76v-0.57c0-1.12-0.91-2.04-2.04-2.04h-0.15v-1.4c0-0.32-0.23-0.59-0.54-0.65l-0.26-12.2h1.94
			c0.46,0,0.83-0.37,0.83-0.83v-1.68c0.47-0.37,0.78-0.94,0.78-1.58v-0.79c0-0.47-0.26-0.9-0.69-1.11L24,4.14L9.16,11.55
			c-0.42,0.21-0.69,0.64-0.69,1.11v0.79c0,0.64,0.31,1.21,0.78,1.58v1.68c0,0.46,0.37,0.83,0.83,0.83h1.94l-0.26,12.2
			c-0.3,0.06-0.54,0.33-0.54,0.65v1.4h-0.15c-1.12,0-2.04,0.91-2.04,2.04v0.57H8.27c-0.52,0-0.95,0.43-0.95,0.95v1.53
			c0,0.52,0.43,0.95,0.95,0.95H24h15.73c0.52,0,0.95-0.43,0.95-0.95v-1.53C40.68,34.82,40.25,34.39,39.73,34.39z M9.52,13.45v-0.79
			c0-0.07,0.04-0.14,0.1-0.17L24,5.32l14.37,7.18c0.06,0.03,0.1,0.1,0.1,0.17v0.79c0,0.52-0.42,0.94-0.94,0.94H10.46
			C9.95,14.39,9.52,13.97,9.52,13.45z M10.3,16.48v-1.04c0.05,0,0.11,0.01,0.16,0.01h27.08c0.05,0,0.11,0,0.16-0.01v1.04h-8.12
			h-3.62H24h-1.96h-3.62H10.3z M35.72,30.78v1h-3.14v-1H35.72z M33.12,29.72l0.25-12.02h1.55l0.26,12.02H33.12z M29.86,29.57
			l-0.05-2.52c-0.28,0.53-0.62,1.01-1.03,1.44l0.02,1.06h-1.31c-0.7,0.44-1.5,0.76-2.35,0.91v1.32H24h-1.14v-1.32
			c-0.85-0.15-1.64-0.46-2.35-0.91H19.2l0.02-1.06c-0.4-0.43-0.75-0.92-1.03-1.44l-0.05,2.52c-0.3,0.06-0.54,0.33-0.54,0.65v1.56
			h-1.13v-1.4c0-0.32-0.23-0.59-0.54-0.65l-0.26-12.2h2.72l-0.07,3.21c0.3-0.52,0.66-0.99,1.09-1.4l0.04-1.81h1.55l0.01,0.65
			c0.33-0.17,0.68-0.32,1.05-0.43l0-0.22h1.01c0.3-0.04,0.61-0.07,0.92-0.07s0.62,0.02,0.92,0.07h1.01l0,0.22
			c0.36,0.11,0.71,0.26,1.05,0.43l0.01-0.65h1.55l0.04,1.81c0.42,0.41,0.79,0.89,1.09,1.4l-0.07-3.21h2.72l-0.26,12.2
			c-0.31,0.06-0.54,0.33-0.54,0.65v1.4h-1.13v-1.56C30.39,29.9,30.16,29.63,29.86,29.57z M29.34,30.62v1.17H26.2v-1.17H29.34z
			 M21.8,30.62v1.17h-3.14v-1.17H21.8z M15.42,30.78v1h-3.14v-1H15.42z M12.82,29.72l0.26-12.02h1.55l0.25,12.02H12.82z
			 M10.09,33.82c0-0.54,0.44-0.98,0.98-0.98H24h12.93c0.54,0,0.98,0.44,0.98,0.98v0.57H24H10.09V33.82z M39.62,36.77H24H8.38v-1.32
			h0.66H24h14.97h0.66V36.77z"/>
	</g>
</g>
</svg>
