<?xml version="1.0" encoding="utf-8"?>
<!-- Generator: Adobe Illustrator 24.0.0, SVG Export Plug-In . SVG Version: 6.00 Build 0)  -->
<svg version="1.1" id="Layer_1" xmlns="http://www.w3.org/2000/svg" xmlns:xlink="http://www.w3.org/1999/xlink" x="0px" y="0px"
	 viewBox="0 0 48 48" style="enable-background:new 0 0 48 48;" xml:space="preserve">
<style type="text/css">
	.st0{fill:#FFBB24;}
	.st1{fill:#8799A0;}
	.st2{fill:#FFFFFF;}
</style>
<g>
	<circle cx="24" cy="24" r="23.86"/>
	<g>
		<g>
			<path class="st0" d="M24,14.95H10.51c-0.81,0-1.46-0.65-1.46-1.46v-0.78c0-0.27,0.15-0.52,0.39-0.64L24,4.79l14.56,7.27
				c0.24,0.12,0.39,0.37,0.39,0.64v0.78c0,0.81-0.65,1.46-1.46,1.46H24"/>
		</g>
		<g>
			<rect x="9.82" y="14.95" class="st1" width="28.31" height="1.93"/>
		</g>
		<g>
			<rect x="32.05" y="30.23" class="st0" width="4.02" height="1.89"/>
		</g>
		<g>
			<rect x="25.74" y="30.29" class="st0" width="4.02" height="1.89"/>
		</g>
		<g>
			<rect x="18.31" y="30.23" class="st0" width="4.02" height="1.89"/>
		</g>
		<g>
			<rect x="11.87" y="30.31" class="st0" width="4.02" height="1.89"/>
		</g>
		<g>
			<path class="st0" d="M38.24,34.76H9.76v0c0-1.21,0.98-2.2,2.2-2.2h24.09C37.26,32.56,38.24,33.55,38.24,34.76L38.24,34.76z"/>
		</g>
		<g>
			<rect x="7.9" y="34.88" class="st0" width="32.19" height="2.37"/>
		</g>
		<g>
			<rect x="32.83" y="17.2" class="st1" width="2.63" height="12.82"/>
		</g>
		<g>
			<rect x="26.37" y="16.89" class="st1" width="2.88" height="13.18"/>
		</g>
		<g>
			<rect x="19.03" y="16.89" class="st1" width="2.77" height="13.13"/>
		</g>
		<g>
			<rect x="12.58" y="17.04" class="st1" width="2.86" height="13.03"/>
		</g>
		<g>
			<path d="M37.87,17.56H24v-1.05h13.65v-1.73h1.05v1.95C38.7,17.19,38.33,17.56,37.87,17.56z"/>
		</g>
		<g>
			<path d="M36.73,32.28h-1.05v-1.53h-3.13v1.53H31.5v-1.92c0-0.36,0.3-0.66,0.66-0.66h3.92c0.36,0,0.66,0.3,0.66,0.66V32.28z"/>
		</g>
		<g>
			<polygon points="33.08,30.36 32.02,30.34 32.31,16.67 35.92,16.67 36.21,30.22 35.16,30.24 34.89,17.73 33.34,17.73 			"/>
		</g>
		<g>
			<path d="M30.37,32.12h-1.05v-1.53h-3.13v1.53h-1.05V30.2c0-0.36,0.3-0.66,0.66-0.66h3.92c0.36,0,0.66,0.3,0.66,0.66V32.12z"/>
		</g>
		<g>
			<polygon points="26.72,30.2 25.66,30.18 25.95,16.51 29.56,16.51 29.85,30.06 28.8,30.08 28.53,17.56 26.98,17.56 			"/>
		</g>
		<g>
			<path d="M38.92,35.41H24v-1.05h13.86v-0.57c0-0.54-0.44-0.98-0.98-0.98H24v-1.05h12.89c1.12,0,2.03,0.91,2.03,2.03V35.41z"/>
		</g>
		<g>
			<path d="M39.68,37.77H24v-1.05h15.57v-1.31H24v-1.05h15.68c0.52,0,0.95,0.42,0.95,0.95v1.53C40.62,37.35,40.2,37.77,39.68,37.77z
				"/>
		</g>
		<g>
			<path d="M37.49,15.48H10.51c-1.1,0-1.99-0.89-1.99-1.99v-0.78c0-0.47,0.26-0.9,0.69-1.11L24,4.21l14.79,7.39
				c0.42,0.21,0.69,0.64,0.69,1.11v0.78C39.48,14.59,38.59,15.48,37.49,15.48z M24,5.38L9.68,12.54c-0.06,0.03-0.1,0.1-0.1,0.17
				v0.78c0,0.52,0.42,0.93,0.93,0.93h26.98c0.52,0,0.93-0.42,0.93-0.93v-0.78c0-0.07-0.04-0.14-0.1-0.17L24,5.38z"/>
		</g>
		<g>
			<path d="M24,17.56H10.13c-0.46,0-0.83-0.37-0.83-0.83v-1.95h1.05v1.73H24V17.56z"/>
		</g>
		<g>
			<path d="M16.5,32.28h-1.05v-1.53h-3.13v1.53h-1.05v-1.92c0-0.36,0.3-0.66,0.66-0.66h3.92c0.36,0,0.66,0.3,0.66,0.66V32.28z"/>
		</g>
		<g>
			<polygon points="14.92,30.36 14.66,17.73 13.11,17.73 12.84,30.24 11.79,30.22 12.08,16.67 15.69,16.67 15.98,30.34 			"/>
		</g>
		<g>
			<path d="M22.86,32.12h-1.05v-1.53h-3.13v1.53h-1.05V30.2c0-0.36,0.3-0.66,0.66-0.66h3.92c0.36,0,0.66,0.3,0.66,0.66V32.12z"/>
		</g>
		<g>
			<polygon points="21.28,30.2 21.02,17.56 19.47,17.56 19.2,30.08 18.15,30.06 18.44,16.51 22.05,16.51 22.34,30.18 			"/>
		</g>
		<g>
			<path d="M24,35.41H9.08v-1.62c0-1.12,0.91-2.03,2.03-2.03H24v1.05H11.11c-0.54,0-0.98,0.44-0.98,0.98v0.57H24V35.41z"/>
		</g>
		<g>
			<path d="M24,37.77H8.32c-0.52,0-0.95-0.42-0.95-0.95V35.3c0-0.52,0.42-0.95,0.95-0.95H24v1.05H8.43v1.31H24V37.77z"/>
		</g>
		<g>
			<g>
				<circle class="st0" cx="24" cy="24.02" r="6.24"/>
			</g>
			<g>
				<path d="M30.22,21.39c-0.34-0.8-0.83-1.53-1.45-2.15c-0.62-0.62-1.34-1.11-2.15-1.45c-0.83-0.35-1.72-0.53-2.63-0.53
					c-0.91,0-1.8,0.18-2.63,0.53c-0.8,0.34-1.53,0.83-2.15,1.45c-0.62,0.62-1.11,1.34-1.45,2.15c-0.35,0.83-0.53,1.72-0.53,2.63
					c0,0.91,0.18,1.8,0.53,2.63c0.34,0.8,0.83,1.53,1.45,2.15c0.62,0.62,1.34,1.11,2.15,1.45c0.83,0.35,1.72,0.53,2.63,0.53
					c0.91,0,1.8-0.18,2.63-0.53c0.8-0.34,1.53-0.83,2.15-1.45c0.62-0.62,1.11-1.34,1.45-2.15c0.35-0.83,0.53-1.72,0.53-2.63
					C30.75,23.11,30.57,22.23,30.22,21.39z M29.88,24.02c0,3.24-2.64,5.88-5.88,5.88s-5.88-2.64-5.88-5.88
					c0-3.24,2.64-5.88,5.88-5.88S29.88,20.78,29.88,24.02z"/>
			</g>
			<g>
				<path d="M24,18.7c-1.42,0-2.76,0.55-3.77,1.56c-1.01,1.01-1.56,2.34-1.56,3.77c0,1.42,0.55,2.76,1.56,3.77
					c1.01,1.01,2.34,1.56,3.77,1.56c1.42,0,2.76-0.55,3.77-1.56c1.01-1.01,1.56-2.34,1.56-3.77c0-1.42-0.55-2.76-1.56-3.77
					C26.76,19.25,25.42,18.7,24,18.7z M24,28.87c-2.67,0-4.85-2.17-4.85-4.85c0-2.67,2.17-4.85,4.85-4.85
					c2.67,0,4.85,2.17,4.85,4.85C28.85,26.7,26.67,28.87,24,28.87z"/>
			</g>
			<g>
				<path d="M24.64,25.7c-0.05-0.04-0.18-0.14-0.41-0.3c-0.24-0.17-0.38-0.28-0.43-0.34c-0.03-0.04-0.05-0.08-0.05-0.12
					c0-0.04,0.02-0.08,0.07-0.12c0.05-0.04,0.11-0.05,0.19-0.05c0.16,0,0.31,0.09,0.46,0.27l0.43-0.33
					c-0.16-0.16-0.31-0.27-0.45-0.33c-0.14-0.06-0.28-0.09-0.44-0.09c-0.01,0-0.02,0-0.03,0v-0.26h-0.32v0.32
					c-0.09,0.03-0.18,0.08-0.26,0.14c-0.16,0.13-0.24,0.29-0.24,0.47c0,0.13,0.05,0.25,0.15,0.38c0.1,0.13,0.31,0.31,0.65,0.54
					c0.18,0.12,0.29,0.21,0.34,0.27c0.05,0.06,0.08,0.12,0.08,0.18c0,0.07-0.03,0.12-0.1,0.17c-0.07,0.05-0.15,0.07-0.25,0.07
					c-0.19,0-0.36-0.12-0.51-0.35l-0.49,0.25c0.12,0.2,0.25,0.34,0.42,0.43c0.16,0.09,0.34,0.13,0.55,0.14v0.29h0.32v-0.33
					c0.15-0.03,0.27-0.09,0.38-0.18c0.17-0.14,0.26-0.32,0.26-0.53c0-0.11-0.02-0.21-0.07-0.31C24.84,25.9,24.76,25.8,24.64,25.7z"
					/>
			</g>
			<g>
				<path d="M26.01,22.27l-0.33-0.3l0.05,0.45c0.02,0.2,0.02,0.78-0.21,0.99c-0.08,0.07-0.19,0.09-0.33,0.06
					c-0.13-0.03-0.21-0.07-0.25-0.13c-0.08-0.15,0.03-0.47,0.14-0.78c0.11-0.32,0.24-0.68,0.24-1.03c0-0.47-0.17-0.92-0.48-1.26
					c-0.32-0.34-0.75-0.54-1.21-0.54l-0.26-0.01l0.1,0.24c0.01,0.03,0.26,0.65-0.21,1.41c-0.56,0.9-0.77,1.32-0.93,1.99
					c-0.06-0.24-0.08-0.57,0.02-0.95l0.12-0.45l-0.38,0.26c-0.02,0.01-0.44,0.31-0.8,0.91c-0.33,0.55-0.67,1.47-0.41,2.73l0,0.01
					c0.18,0.69,0.56,1.27,1.12,1.67c0.55,0.4,1.25,0.61,2.03,0.61c0.76,0,1.5-0.24,2.07-0.67c0.45-0.33,0.77-0.76,0.94-1.24
					c0.03-0.07,0.22-0.61,0.2-1.34C27.21,24.2,26.98,23.16,26.01,22.27z M26.81,25.77L26.81,25.77c-0.03,0.11-0.05,0.22-0.09,0.33
					c-0.01,0.02-0.01,0.03-0.01,0.03l0,0c-0.35,0.98-1.44,1.68-2.69,1.68c-1.44,0-2.49-0.75-2.81-2.02
					c-0.19-0.92-0.07-1.75,0.36-2.47c0.12-0.21,0.26-0.38,0.37-0.5c-0.03,0.72,0.29,1.19,0.3,1.21l0.23,0.34l0.07-0.4
					c0.17-0.94,0.29-1.28,1-2.42c0.38-0.6,0.37-1.15,0.31-1.46c0.65,0.12,1.12,0.71,1.12,1.44c0,0.29-0.11,0.61-0.22,0.91
					c-0.14,0.4-0.28,0.78-0.12,1.06c0.09,0.15,0.25,0.25,0.48,0.3c0.31,0.06,0.51-0.04,0.63-0.15c0.23-0.21,0.3-0.56,0.32-0.84
					c0.52,0.59,0.8,1.3,0.82,2.09C26.89,25.25,26.85,25.55,26.81,25.77z"/>
			</g>
		</g>
	</g>
</g>
</svg>
