<?xml version="1.0" encoding="utf-8"?>
<!-- Generator: Adobe Illustrator 24.0.0, SVG Export Plug-In . SVG Version: 6.00 Build 0)  -->
<svg version="1.1" id="Layer_1" xmlns="http://www.w3.org/2000/svg" xmlns:xlink="http://www.w3.org/1999/xlink" x="0px" y="0px"
	 viewBox="0 0 48 48" style="enable-background:new 0 0 48 48;" xml:space="preserve">
<style type="text/css">
	.st0{fill:#FFFFFF;}
</style>
<g>
	<circle class="st0" cx="24" cy="24" r="23.94"/>
	<g>
		<path d="M40.93,16.85C40.01,14.66,38.68,12.69,37,11c-1.69-1.69-3.65-3.01-5.84-3.94C28.89,6.11,26.48,5.62,24,5.62
			s-4.89,0.49-7.15,1.44C14.66,7.99,12.69,9.32,11,11c-1.69,1.69-3.01,3.65-3.94,5.84C6.11,19.11,5.62,21.52,5.62,24
			c0,2.48,0.49,4.89,1.44,7.15C7.99,33.34,9.32,35.31,11,37c1.69,1.69,3.65,3.01,5.84,3.94c2.27,0.96,4.67,1.44,7.15,1.44
			c2.48,0,4.89-0.49,7.15-1.44c2.19-0.93,4.15-2.25,5.84-3.94c1.69-1.69,3.01-3.65,3.94-5.84c0.96-2.27,1.44-4.67,1.44-7.15
			C42.38,21.52,41.89,19.11,40.93,16.85z M40.01,24c0,8.83-7.18,16.01-16.01,16.01S7.99,32.83,7.99,24
			c0-8.83,7.18-16.01,16.01-16.01S40.01,15.17,40.01,24z"/>
		<path d="M24,9.5c-3.87,0-7.52,1.51-10.26,4.25C11.01,16.48,9.5,20.13,9.5,24s1.51,7.52,4.25,10.26c2.74,2.74,6.38,4.25,10.26,4.25
			c3.87,0,7.52-1.51,10.26-4.25c2.74-2.74,4.25-6.38,4.25-10.26s-1.51-7.52-4.25-10.26C31.52,11.01,27.87,9.5,24,9.5z M24,37.2
			c-7.28,0-13.2-5.92-13.2-13.2c0-7.28,5.92-13.2,13.2-13.2c7.28,0,13.2,5.92,13.2,13.2C37.2,31.28,31.28,37.2,24,37.2z"/>
		<path d="M25.74,28.56c-0.13-0.11-0.5-0.39-1.11-0.82c-0.65-0.47-1.04-0.78-1.17-0.92c-0.1-0.11-0.14-0.22-0.14-0.34
			c0-0.12,0.07-0.23,0.2-0.32c0.13-0.1,0.3-0.14,0.51-0.14c0.43,0,0.85,0.25,1.27,0.74l1.18-0.89c-0.44-0.44-0.85-0.74-1.23-0.9
			c-0.38-0.17-0.78-0.25-1.19-0.25c-0.03,0-0.05,0-0.08,0V24h-0.87v0.86c-0.25,0.09-0.49,0.22-0.7,0.38
			c-0.44,0.35-0.66,0.78-0.66,1.27c0,0.34,0.13,0.69,0.4,1.03c0.27,0.34,0.86,0.83,1.77,1.47c0.48,0.33,0.79,0.58,0.93,0.74
			c0.14,0.16,0.21,0.32,0.21,0.49c0,0.18-0.09,0.34-0.28,0.47c-0.19,0.14-0.42,0.2-0.69,0.2c-0.52,0-0.99-0.32-1.39-0.95l-1.34,0.69
			c0.32,0.53,0.69,0.93,1.14,1.18c0.43,0.24,0.93,0.37,1.51,0.37v0.8h0.87v-0.89c0.4-0.09,0.75-0.25,1.04-0.49
			c0.47-0.38,0.71-0.87,0.71-1.45c0-0.3-0.07-0.58-0.2-0.83C26.3,29.1,26.07,28.84,25.74,28.56z"/>
		<path d="M29.46,19.22l-0.9-0.83l0.13,1.22c0.06,0.56,0.07,2.13-0.56,2.7c-0.22,0.2-0.51,0.25-0.89,0.18
			c-0.35-0.07-0.58-0.19-0.68-0.36c-0.22-0.4,0.09-1.28,0.39-2.12c0.31-0.86,0.66-1.84,0.66-2.79c0-1.29-0.47-2.51-1.31-3.43
			c-0.86-0.94-2.03-1.46-3.29-1.48l-0.71-0.01l0.27,0.66c0.03,0.07,0.69,1.78-0.59,3.83c-1.53,2.45-2.1,3.59-2.54,5.42
			c-0.16-0.66-0.22-1.55,0.04-2.58l0.31-1.21l-1.03,0.72c-0.05,0.03-1.2,0.84-2.18,2.47c-0.9,1.5-1.83,4-1.12,7.43l0,0.02
			c0.48,1.89,1.53,3.46,3.04,4.55c1.5,1.08,3.41,1.65,5.53,1.65c2.08,0,4.09-0.64,5.65-1.81c1.21-0.91,2.09-2.08,2.56-3.37
			c0.07-0.2,0.59-1.65,0.54-3.64C32.74,24.48,32.12,21.66,29.46,19.22z M31.64,28.75l-0.02,0c-0.05,0.31-0.12,0.61-0.22,0.91
			c-0.02,0.05-0.03,0.08-0.03,0.08l0,0c-0.95,2.66-3.91,4.57-7.33,4.57c-3.92,0-6.78-2.05-7.66-5.49c-0.51-2.5-0.18-4.76,0.98-6.72
			c0.34-0.56,0.7-1.02,1.02-1.37c-0.08,1.96,0.78,3.23,0.83,3.3l0.64,0.92l0.2-1.1c0.47-2.56,0.78-3.47,2.72-6.59
			c1.03-1.65,0.99-3.13,0.85-3.97c1.76,0.34,3.06,1.95,3.06,3.92c0,0.79-0.31,1.65-0.6,2.48c-0.39,1.09-0.76,2.12-0.32,2.89
			c0.23,0.41,0.67,0.69,1.3,0.82c0.85,0.17,1.4-0.12,1.7-0.4c0.61-0.56,0.82-1.52,0.88-2.29c1.42,1.62,2.17,3.53,2.23,5.7
			C31.88,27.34,31.76,28.16,31.64,28.75z"/>
	</g>
</g>
</svg>
