<?xml version="1.0" encoding="utf-8"?>
<!-- Generator: Adobe Illustrator 24.0.0, SVG Export Plug-In . SVG Version: 6.00 Build 0)  -->
<svg version="1.1" id="Layer_1" xmlns="http://www.w3.org/2000/svg" xmlns:xlink="http://www.w3.org/1999/xlink" x="0px" y="0px"
	 viewBox="0 0 48 48" style="enable-background:new 0 0 48 48;" xml:space="preserve">
<style type="text/css">
	.st0{fill:#FFFFFF;}
</style>
<g>
	<path class="st0" d="M41.7,18.18v-3.46c0-1.94-0.58-3.79-1.68-5.33c-1.21-1.7-2.88-2.79-4.83-3.16l-2.48-0.47l0.76,2.41
		c0.44,1.42,0.87,4.12,0.11,5.35c-0.22,0.36-0.52,0.54-1.01,0.62c-1.06,0.17-1.78-0.04-2.15-0.63c-0.6-0.96-0.28-2.71,0.74-4.14
		c1.5-2.09,1.69-4.52,0.51-6.51c-1.17-1.98-3.44-3.02-5.94-2.73l-1.89,0.23l0.64,1.79c0.29,0.81,0.73,2.88,0.13,3.75
		c-0.08,0.12-0.33,0.47-1.31,0.49c-0.03,0-0.04,0-0.05,0c0,0,0,0,0,0c-0.23-0.25-0.39-1.2-0.32-1.95l0.22-2.46l-2.3,0.92
		c-0.18,0.07-4.31,1.77-5.03,5.36c-0.34,1.71-0.12,2.98,0.06,4.01c0.16,0.88,0.2,1.26,0.05,1.62c-0.09,0.06-0.43,0.13-0.83-0.05
		c-0.95-0.42-1.52-1.86-0.3-4.68l1.14-2.61l-2.8,0.52c-0.18,0.03-4.4,0.86-6.18,5.26C6.52,13.41,6.3,14.58,6.3,15.8v2.38l-4.22,4.15
		v21.74c0,2.12,1.73,3.85,3.85,3.85h36.14c2.12,0,3.85-1.73,3.85-3.85V22.33L41.7,18.18z M10.93,27.46
		c2.26,1.12,4.07,2.01,5.37,2.64c0.43,0.21,0.8,0.39,1.12,0.54L4.6,42.46V24.33C6.09,25.07,8.52,26.27,10.93,27.46z M5.5,22.51
		l1.3-1.29v1.93C6.36,22.94,5.93,22.73,5.5,22.51z M14.09,16.14c0.75,0.33,1.57,0.41,2.32,0.24c0.84-0.2,1.51-0.73,1.83-1.45
		c0.49-1.11,0.31-2.13,0.14-3.11c-0.16-0.9-0.32-1.83-0.07-3.07c0.25-1.26,1.3-2.2,2.18-2.79c0.12,0.74,0.37,1.55,0.92,2.14
		c0.51,0.54,1.18,0.82,1.95,0.81c1.89-0.03,2.86-0.88,3.35-1.58c0.97-1.41,0.81-3.36,0.54-4.67c0.98,0.16,1.78,0.68,2.26,1.48
		c0.65,1.11,0.51,2.51-0.39,3.76c-1.65,2.3-1.99,5.09-0.84,6.95c0.91,1.48,2.63,2.13,4.7,1.79c1.2-0.19,2.15-0.81,2.75-1.79
		c0.71-1.15,0.94-2.76,0.69-4.81c-0.03-0.26-0.07-0.5-0.11-0.73c0.63,0.37,1.18,0.89,1.65,1.55c0.79,1.11,1.21,2.45,1.21,3.86v9.45
		c-4.29,2.12-8.68,4.29-10.19,5l-0.44-0.41c-1.24-1.14-2.85-1.77-4.54-1.77c0,0,0,0,0,0c-1.69,0-3.3,0.63-4.54,1.77l-0.44,0.41
		c-1.51-0.71-5.91-2.87-10.2-5V15.8c0-0.9,0.16-1.75,0.48-2.54c0.6-1.49,1.59-2.4,2.47-2.95C11.09,13.51,12.47,15.42,14.09,16.14z
		 M29.46,29.61L29.46,29.61L29.46,29.61C29.46,29.61,29.46,29.61,29.46,29.61z M18.54,29.61L18.54,29.61L18.54,29.61
		C18.54,29.61,18.54,29.61,18.54,29.61z M20.83,30.24c0.87-0.8,1.99-1.24,3.17-1.24c1.18,0,2.3,0.44,3.17,1.24l0.92,0.85v0
		c0,0,0,0,0,0l14.99,13.83c-0.24,0.29-0.61,0.47-1.01,0.47H24h0H5.93c-0.41,0-0.77-0.18-1.01-0.47L20.83,30.24z M43.4,42.46
		L30.58,30.64c0.32-0.15,0.69-0.33,1.12-0.54c1.3-0.63,3.11-1.52,5.37-2.64c2.41-1.19,4.83-2.39,6.32-3.13V42.46z M41.19,23.16
		v-1.94l1.31,1.29C42.07,22.73,41.64,22.94,41.19,23.16z"/>
	<path class="st0" d="M23.58,25.67c3.06,0.41,4.74-1.73,4.74-1.73l-0.7-0.69c-0.66,0.77-3.09,2.11-5.24,0.99
		c-2.15-1.12-2.05-3.91-0.97-5.59c1.07-1.68,3.7-2.37,5.11-1.23c1.41,1.14,1.36,2.59,0.78,3.85c-0.58,1.26-1.82,1.28-1.67,0.26
		c0.11-0.72,0.91-3.33,0.91-3.33l-1.02-0.06c-0.08,0.25-0.16,0.49-0.24,0.73c-0.45-0.83-1.39-1.18-2.48-0.47
		c-1.39,0.91-1.77,3.53-0.62,4.45c0.97,0.78,2.13,0.2,2.46,0c0.05,0.12,0.11,0.2,0.2,0.25c0.64,0.36,3.27,0.25,3.67-2.69
		c0.37-2.76-1.39-4.76-4.44-4.57c-3.26,0.2-4.52,3.58-4.49,5.37C19.59,23.03,20.26,25.23,23.58,25.67z M24.61,21.52
		c-0.48,0.53-1.54,0.98-1.88,0.42c-0.39-0.65,0.08-2.78,1.07-2.75c0.7,0.02,0.98,0.68,1.08,1.06
		C24.76,20.71,24.66,21.14,24.61,21.52z"/>
</g>
</svg>
