<?xml version="1.0" encoding="utf-8"?>
<!-- Generator: Adobe Illustrator 24.0.0, SVG Export Plug-In . SVG Version: 6.00 Build 0)  -->
<svg version="1.1" id="Layer_1" xmlns="http://www.w3.org/2000/svg" xmlns:xlink="http://www.w3.org/1999/xlink" x="0px" y="0px"
	 viewBox="0 0 48 48" style="enable-background:new 0 0 48 48;" xml:space="preserve">
<style type="text/css">
	.st0{fill:#FFFFFF;}
</style>
<g>
	<circle cx="24" cy="24" r="23.91"/>
	<g>
		<path class="st0" d="M40.91,16.86c-0.92-2.19-2.25-4.15-3.93-5.83c-1.68-1.68-3.65-3.01-5.83-3.93C28.88,6.13,26.48,5.65,24,5.65
			s-4.88,0.49-7.14,1.44c-2.19,0.92-4.15,2.25-5.83,3.93c-1.69,1.69-3.01,3.65-3.93,5.83C6.13,19.12,5.65,21.52,5.65,24
			c0,2.48,0.49,4.88,1.44,7.14c0.92,2.19,2.25,4.15,3.93,5.83c1.68,1.68,3.65,3.01,5.83,3.93c2.26,0.96,4.67,1.44,7.14,1.44
			c2.48,0,4.88-0.49,7.14-1.44c2.19-0.92,4.15-2.25,5.83-3.93c1.68-1.68,3.01-3.65,3.93-5.83c0.96-2.26,1.44-4.67,1.44-7.14
			C42.35,21.52,41.87,19.12,40.91,16.86z M39.98,24c0,8.81-7.17,15.98-15.98,15.98S8.02,32.81,8.02,24
			c0-8.81,7.17-15.98,15.98-15.98S39.98,15.19,39.98,24z"/>
		<path class="st0" d="M24,9.52c-3.87,0-7.5,1.51-10.24,4.24C11.03,16.5,9.52,20.13,9.52,24s1.51,7.5,4.24,10.24
			c2.74,2.74,6.37,4.24,10.24,4.24c3.87,0,7.5-1.51,10.24-4.24c2.74-2.74,4.24-6.37,4.24-10.24s-1.51-7.5-4.24-10.24
			C31.5,11.03,27.87,9.52,24,9.52z M24,37.18c-7.27,0-13.18-5.91-13.18-13.18c0-7.27,5.91-13.18,13.18-13.18
			c7.27,0,13.18,5.91,13.18,13.18C37.18,31.27,31.27,37.18,24,37.18z"/>
		<path class="st0" d="M25.74,28.55c-0.13-0.11-0.5-0.39-1.1-0.82c-0.65-0.47-1.04-0.77-1.17-0.92c-0.09-0.11-0.14-0.22-0.14-0.34
			c0-0.12,0.07-0.23,0.2-0.32c0.13-0.1,0.3-0.14,0.51-0.14c0.43,0,0.85,0.25,1.26,0.74l1.18-0.89c-0.44-0.44-0.85-0.74-1.23-0.9
			c-0.38-0.16-0.77-0.25-1.19-0.25c-0.03,0-0.05,0-0.08,0V24h-0.87v0.86c-0.25,0.09-0.49,0.22-0.69,0.38
			c-0.44,0.35-0.66,0.78-0.66,1.27c0,0.34,0.13,0.69,0.4,1.03c0.27,0.34,0.85,0.83,1.77,1.47c0.48,0.33,0.79,0.58,0.93,0.74
			c0.14,0.16,0.21,0.32,0.21,0.48c0,0.18-0.09,0.33-0.28,0.47c-0.19,0.14-0.42,0.2-0.69,0.2c-0.52,0-0.99-0.32-1.39-0.95l-1.34,0.69
			c0.31,0.53,0.69,0.92,1.14,1.17c0.43,0.24,0.93,0.37,1.51,0.37V33h0.87v-0.89c0.4-0.09,0.75-0.25,1.04-0.49
			c0.47-0.38,0.71-0.86,0.71-1.45c0-0.3-0.07-0.58-0.2-0.83C26.29,29.09,26.06,28.83,25.74,28.55z"/>
		<path class="st0" d="M29.45,19.22l-0.9-0.83l0.12,1.22c0.06,0.56,0.07,2.13-0.56,2.7c-0.22,0.2-0.51,0.25-0.89,0.18
			c-0.35-0.07-0.58-0.19-0.67-0.36c-0.22-0.4,0.09-1.27,0.39-2.12c0.31-0.86,0.66-1.84,0.66-2.79c0-1.29-0.47-2.51-1.31-3.42
			c-0.86-0.93-2.03-1.46-3.28-1.48l-0.71-0.01l0.27,0.65c0.03,0.07,0.69,1.78-0.58,3.83c-1.52,2.44-2.1,3.59-2.53,5.41
			c-0.16-0.66-0.22-1.54,0.04-2.57l0.31-1.21l-1.03,0.72c-0.05,0.03-1.2,0.84-2.18,2.47c-0.9,1.5-1.82,4-1.12,7.42l0,0.02
			c0.48,1.89,1.53,3.46,3.03,4.54c1.5,1.08,3.4,1.65,5.52,1.65c2.08,0,4.08-0.64,5.64-1.81c1.21-0.91,2.09-2.07,2.55-3.37
			c0.07-0.19,0.59-1.65,0.54-3.64C32.72,24.48,32.11,21.66,29.45,19.22z M31.63,28.74l-0.02,0c-0.05,0.31-0.12,0.61-0.22,0.91
			c-0.02,0.05-0.03,0.08-0.03,0.08l0,0c-0.94,2.66-3.9,4.56-7.32,4.56c-3.91,0-6.77-2.05-7.65-5.48c-0.51-2.49-0.18-4.75,0.98-6.71
			c0.34-0.56,0.7-1.02,1.01-1.37c-0.08,1.95,0.78,3.23,0.83,3.29l0.64,0.92l0.2-1.1c0.47-2.55,0.77-3.47,2.71-6.58
			c1.03-1.64,0.99-3.13,0.84-3.97c1.76,0.34,3.06,1.94,3.06,3.91c0,0.79-0.31,1.65-0.6,2.48c-0.39,1.09-0.76,2.12-0.32,2.89
			c0.23,0.41,0.67,0.69,1.3,0.82c0.85,0.17,1.4-0.12,1.7-0.4c0.61-0.56,0.82-1.51,0.87-2.29c1.42,1.62,2.17,3.52,2.23,5.69
			C31.87,27.34,31.75,28.15,31.63,28.74z"/>
	</g>
</g>
</svg>
