<?xml version="1.0" encoding="utf-8"?>
<!-- Generator: Adobe Illustrator 24.0.0, SVG Export Plug-In . SVG Version: 6.00 Build 0)  -->
<svg version="1.1" id="Layer_1" xmlns="http://www.w3.org/2000/svg" xmlns:xlink="http://www.w3.org/1999/xlink" x="0px" y="0px"
	 viewBox="0 0 48 48" style="enable-background:new 0 0 48 48;" xml:space="preserve">
<style type="text/css">
	.st0{fill:#FFFFFF;}
</style>
<g>
	<circle class="st0" cx="24" cy="24" r="23.94"/>
	<g>
		<path d="M36.17,18.03v-2.38c0-1.34-0.4-2.6-1.15-3.66c-0.83-1.17-1.98-1.92-3.32-2.17L29.99,9.5l0.52,1.66
			c0.31,0.97,0.6,2.83,0.08,3.68c-0.15,0.25-0.36,0.37-0.69,0.43c-0.73,0.12-1.23-0.03-1.48-0.43c-0.41-0.66-0.2-1.86,0.51-2.85
			c1.03-1.43,1.16-3.11,0.35-4.48c-0.8-1.36-2.37-2.08-4.08-1.88l-1.3,0.15l0.44,1.23c0.2,0.56,0.5,1.98,0.09,2.58
			c-0.06,0.08-0.22,0.32-0.9,0.34c-0.02,0-0.03,0-0.04,0c0,0,0,0,0,0c-0.16-0.17-0.27-0.82-0.22-1.34l0.15-1.69l-1.58,0.63
			c-0.12,0.05-2.96,1.21-3.46,3.69c-0.24,1.18-0.08,2.05,0.04,2.75c0.11,0.6,0.14,0.86,0.03,1.11c-0.06,0.04-0.3,0.09-0.57-0.03
			c-0.65-0.29-1.05-1.28-0.21-3.22l0.78-1.8l-1.93,0.36c-0.12,0.02-3.02,0.59-4.25,3.62c-0.3,0.75-0.46,1.55-0.46,2.4v1.63
			l-2.9,2.85v14.95c0,1.46,1.19,2.65,2.65,2.65h24.85c1.46,0,2.65-1.19,2.65-2.65V20.89L36.17,18.03z M15.02,24.41
			c1.56,0.77,2.8,1.38,3.69,1.81c0.29,0.14,0.55,0.27,0.77,0.37l-8.81,8.13V22.26C11.69,22.77,13.36,23.59,15.02,24.41z
			 M11.28,21.01l0.9-0.88v1.33C11.88,21.31,11.58,21.16,11.28,21.01z M17.19,16.63c0.52,0.23,1.08,0.29,1.59,0.16
			c0.58-0.14,1.04-0.5,1.26-1c0.34-0.76,0.22-1.46,0.1-2.14c-0.11-0.62-0.22-1.26-0.05-2.11c0.17-0.86,0.89-1.51,1.5-1.92
			c0.08,0.51,0.26,1.07,0.63,1.47c0.35,0.37,0.81,0.57,1.34,0.56c1.3-0.02,1.97-0.6,2.3-1.09c0.67-0.97,0.56-2.31,0.37-3.21
			c0.67,0.11,1.22,0.47,1.55,1.02c0.45,0.76,0.35,1.73-0.27,2.58c-1.13,1.58-1.37,3.5-0.58,4.77c0.63,1.01,1.81,1.46,3.23,1.23
			c0.82-0.13,1.48-0.56,1.89-1.23c0.49-0.79,0.65-1.9,0.48-3.3c-0.02-0.18-0.05-0.34-0.07-0.5c0.43,0.25,0.81,0.61,1.13,1.07
			c0.54,0.76,0.83,1.68,0.83,2.66v6.49c-2.95,1.46-5.97,2.95-7.01,3.43l-0.3-0.28c-0.85-0.79-1.96-1.22-3.12-1.22c0,0,0,0,0,0
			c-1.16,0-2.27,0.43-3.12,1.22l-0.3,0.28c-1.04-0.49-4.06-1.98-7.01-3.44V16.4c0-0.62,0.11-1.2,0.33-1.74
			c0.41-1.02,1.1-1.65,1.7-2.03C15.13,14.82,16.07,16.14,17.19,16.63z M27.75,25.89L27.75,25.89L27.75,25.89
			C27.75,25.89,27.75,25.89,27.75,25.89z M20.25,25.89L20.25,25.89L20.25,25.89C20.25,25.89,20.25,25.89,20.25,25.89z M21.82,26.33
			c0.6-0.55,1.37-0.85,2.18-0.85c0.81,0,1.58,0.3,2.18,0.85l0.63,0.58v0c0,0,0,0,0,0l10.31,9.51c-0.17,0.2-0.42,0.33-0.7,0.33H24h0
			H11.58c-0.28,0-0.53-0.13-0.7-0.32L21.82,26.33z M37.33,34.72l-8.81-8.13c0.22-0.11,0.48-0.23,0.77-0.37
			c0.9-0.43,2.14-1.05,3.69-1.81c1.66-0.82,3.32-1.65,4.35-2.15V34.72z M35.82,21.46v-1.33l0.9,0.88
			C36.42,21.16,36.12,21.31,35.82,21.46z"/>
		<path d="M23.71,23.19c2.1,0.28,3.26-1.19,3.26-1.19l-0.48-0.48c-0.45,0.53-2.13,1.45-3.6,0.68c-1.48-0.77-1.41-2.69-0.67-3.84
			c0.74-1.15,2.54-1.63,3.51-0.85c0.97,0.78,0.94,1.78,0.54,2.64c-0.4,0.87-1.25,0.88-1.15,0.18c0.07-0.5,0.62-2.29,0.62-2.29
			L25.03,18c-0.06,0.17-0.11,0.34-0.16,0.51c-0.31-0.57-0.96-0.81-1.71-0.32c-0.96,0.63-1.21,2.43-0.42,3.06
			c0.67,0.53,1.46,0.14,1.69,0c0.03,0.08,0.08,0.14,0.14,0.17c0.44,0.25,2.25,0.17,2.52-1.85c0.26-1.9-0.95-3.27-3.05-3.14
			c-2.24,0.14-3.1,2.46-3.09,3.69C20.97,21.37,21.43,22.88,23.71,23.19z M24.42,20.33c-0.33,0.36-1.06,0.68-1.29,0.29
			c-0.27-0.44,0.05-1.91,0.73-1.89c0.48,0.01,0.67,0.47,0.74,0.73C24.52,19.77,24.46,20.07,24.42,20.33z"/>
	</g>
</g>
</svg>
