<?xml version="1.0" encoding="utf-8"?>
<!-- Generator: Adobe Illustrator 24.0.0, SVG Export Plug-In . SVG Version: 6.00 Build 0)  -->
<svg version="1.1" id="Layer_1" xmlns="http://www.w3.org/2000/svg" xmlns:xlink="http://www.w3.org/1999/xlink" x="0px" y="0px"
	 viewBox="0 0 48 48" style="enable-background:new 0 0 48 48;" xml:space="preserve">
<style type="text/css">
	.st0{fill:#FFFFFF;}
</style>
<g>
	<path d="M41.66,18.19v-3.45c0-1.94-0.58-3.78-1.67-5.32c-1.21-1.7-2.87-2.79-4.82-3.15L32.69,5.8l0.76,2.41
		c0.44,1.41,0.87,4.11,0.11,5.34c-0.22,0.36-0.52,0.54-1,0.62c-1.06,0.17-1.78-0.04-2.14-0.63c-0.6-0.96-0.28-2.7,0.74-4.13
		c1.49-2.08,1.68-4.51,0.51-6.5c-1.16-1.97-3.43-3.02-5.92-2.72L23.85,0.4l0.64,1.79c0.29,0.81,0.73,2.88,0.13,3.74
		c-0.08,0.12-0.33,0.47-1.31,0.49c-0.03,0-0.04,0-0.05,0c0,0,0,0,0,0c-0.23-0.25-0.39-1.19-0.32-1.95l0.22-2.46l-2.29,0.92
		c-0.18,0.07-4.3,1.76-5.02,5.35c-0.34,1.71-0.12,2.98,0.06,4c0.15,0.88,0.2,1.26,0.05,1.62c-0.09,0.06-0.43,0.13-0.83-0.05
		c-0.94-0.42-1.52-1.86-0.3-4.67l1.13-2.61l-2.8,0.52C12.99,7.13,8.78,7.96,7,12.34c-0.44,1.09-0.66,2.26-0.66,3.48v2.37l-4.21,4.14
		v21.69c0,2.12,1.72,3.84,3.84,3.84h36.06c2.12,0,3.84-1.72,3.84-3.84V22.34L41.66,18.19z M10.96,27.45c2.26,1.12,4.06,2,5.36,2.63
		c0.42,0.21,0.8,0.39,1.12,0.54L4.65,42.42v-18.1C6.13,25.06,8.55,26.26,10.96,27.45z M5.54,22.52l1.3-1.28v1.93
		C6.4,22.95,5.97,22.73,5.54,22.52z M14.12,16.16c0.75,0.33,1.57,0.41,2.31,0.24c0.84-0.2,1.5-0.73,1.82-1.45
		c0.49-1.11,0.31-2.12,0.14-3.1c-0.16-0.9-0.32-1.82-0.07-3.06c0.25-1.25,1.29-2.19,2.17-2.78c0.12,0.73,0.37,1.55,0.92,2.14
		c0.5,0.54,1.18,0.82,1.95,0.81c1.88-0.03,2.86-0.88,3.34-1.58c0.97-1.4,0.81-3.35,0.54-4.66c0.97,0.16,1.78,0.68,2.25,1.48
		c0.65,1.1,0.51,2.51-0.39,3.75c-1.65,2.3-1.98,5.08-0.84,6.93c0.91,1.47,2.62,2.12,4.69,1.79c1.2-0.19,2.15-0.81,2.75-1.79
		c0.7-1.14,0.94-2.76,0.69-4.79c-0.03-0.26-0.07-0.5-0.11-0.73c0.63,0.37,1.18,0.89,1.65,1.55c0.79,1.11,1.21,2.44,1.21,3.86v9.43
		c-4.28,2.12-8.66,4.28-10.17,4.99l-0.44-0.4c-1.24-1.14-2.84-1.77-4.53-1.77c0,0,0,0,0,0c-1.68,0-3.29,0.63-4.53,1.77l-0.44,0.4
		c-1.51-0.71-5.9-2.87-10.17-4.99v-8.34c0-0.9,0.16-1.75,0.48-2.53c0.6-1.49,1.59-2.4,2.47-2.95
		C11.12,13.54,12.49,15.44,14.12,16.16z M29.45,29.6L29.45,29.6L29.45,29.6C29.45,29.6,29.45,29.6,29.45,29.6z M18.55,29.59
		L18.55,29.59L18.55,29.59C18.55,29.6,18.55,29.59,18.55,29.59z M20.84,30.23c0.86-0.8,1.99-1.24,3.16-1.24
		c1.18,0,2.3,0.44,3.16,1.24l0.92,0.85v0c0,0,0,0,0,0l14.96,13.8c-0.24,0.29-0.61,0.47-1.01,0.47H24h0H5.97
		c-0.41,0-0.77-0.18-1.01-0.47L20.84,30.23z M43.35,42.42L30.57,30.62c0.32-0.15,0.69-0.33,1.12-0.54c1.3-0.63,3.1-1.52,5.36-2.63
		c2.4-1.19,4.82-2.39,6.31-3.13V42.42z M41.16,23.17v-1.93l1.3,1.28C42.03,22.73,41.6,22.95,41.16,23.17z"/>
	<path d="M23.58,25.67c3.05,0.41,4.73-1.72,4.73-1.72l-0.69-0.69c-0.66,0.76-3.09,2.11-5.23,0.99c-2.14-1.12-2.04-3.9-0.97-5.58
		c1.07-1.67,3.69-2.36,5.1-1.23c1.4,1.13,1.36,2.58,0.78,3.84s-1.82,1.27-1.67,0.26c0.11-0.72,0.9-3.32,0.9-3.32l-1.02-0.06
		c-0.08,0.25-0.16,0.49-0.23,0.73c-0.45-0.83-1.39-1.18-2.47-0.47c-1.39,0.91-1.76,3.52-0.62,4.44c0.97,0.78,2.12,0.2,2.46,0
		c0.05,0.12,0.11,0.2,0.2,0.25c0.64,0.36,3.26,0.25,3.66-2.68c0.37-2.75-1.38-4.75-4.43-4.56c-3.26,0.2-4.51,3.58-4.48,5.36
		C19.6,23.03,20.27,25.22,23.58,25.67z M24.61,21.53c-0.48,0.53-1.54,0.98-1.88,0.41c-0.39-0.65,0.08-2.77,1.07-2.74
		c0.7,0.02,0.98,0.68,1.08,1.06C24.75,20.72,24.66,21.15,24.61,21.53z"/>
</g>
</svg>
