<?xml version="1.0" encoding="utf-8"?>
<!-- Generator: Adobe Illustrator 24.0.0, SVG Export Plug-In . SVG Version: 6.00 Build 0)  -->
<svg version="1.1" id="Layer_1" xmlns="http://www.w3.org/2000/svg" xmlns:xlink="http://www.w3.org/1999/xlink" x="0px" y="0px"
	 viewBox="0 0 48 48" style="enable-background:new 0 0 48 48;" xml:space="preserve">
<style type="text/css">
	.st0{fill:#FFFFFF;}
</style>
<path d="M46.02,14.7c-1.2-2.85-2.93-5.4-5.12-7.6c-2.19-2.19-4.75-3.92-7.6-5.12C30.36,0.73,27.23,0.1,24,0.1s-6.36,0.63-9.3,1.88
	c-2.85,1.2-5.4,2.93-7.6,5.12c-2.19,2.19-3.92,4.75-5.12,7.6C0.73,17.64,0.1,20.77,0.1,24c0,3.23,0.63,6.36,1.88,9.3
	c1.2,2.85,2.93,5.4,5.12,7.6c2.19,2.19,4.75,3.92,7.6,5.12c2.95,1.25,6.08,1.88,9.3,1.88s6.36-0.63,9.3-1.88
	c2.85-1.2,5.4-2.93,7.6-5.12c2.19-2.19,3.92-4.75,5.12-7.6c1.25-2.95,1.88-6.08,1.88-9.3C47.9,20.77,47.27,17.64,46.02,14.7z
	 M43.49,31.24c-1.71,1.19-3.78,2.2-6.12,3c0.64-2.87,1.01-5.98,1.07-9.2h6.32C44.66,27.21,44.22,29.29,43.49,31.24z M3.23,25.04
	h6.32c0.07,3.26,0.44,6.41,1.1,9.31c-2.28-0.75-4.32-1.69-6.03-2.8C3.83,29.51,3.35,27.32,3.23,25.04z M4.63,16.46
	c1.71-1.11,3.75-2.06,6.04-2.8c-0.66,2.91-1.04,6.06-1.11,9.31H3.23C3.35,20.68,3.83,18.49,4.63,16.46z M25.04,11.71
	c3.57,0.09,6.98,0.56,10.04,1.37c0.77,3.03,1.22,6.39,1.29,9.89H25.04V11.71z M25.04,9.64v-6.4c2.27,0.11,4.44,0.59,6.46,1.37
	c1.16,1.73,2.14,3.83,2.91,6.18C31.49,10.11,28.32,9.72,25.04,9.64z M22.96,9.63c-3.26,0.06-6.43,0.43-9.35,1.08
	c0.77-2.32,1.74-4.39,2.89-6.1c2.02-0.78,4.19-1.26,6.46-1.37V9.63z M22.96,11.7v11.26H11.63c0.08-3.53,0.53-6.92,1.32-9.97
	C16.02,12.21,19.42,11.76,22.96,11.7z M11.63,25.04h11.34V36.3c-3.54-0.06-6.95-0.51-10.03-1.29C12.16,31.96,11.7,28.57,11.63,25.04
	z M22.96,38.37v6.39c-2.27-0.11-4.44-0.59-6.47-1.38c-1.15-1.71-2.13-3.78-2.89-6.1C16.53,37.94,19.7,38.31,22.96,38.37z
	 M25.04,38.36c3.29-0.08,6.46-0.48,9.39-1.15c-0.77,2.35-1.75,4.45-2.92,6.18c-2.02,0.79-4.2,1.26-6.47,1.38V38.36z M25.04,36.29
	V25.04h11.34c-0.07,3.5-0.52,6.86-1.29,9.88C32.02,35.73,28.61,36.2,25.04,36.29z M38.44,22.96c-0.07-3.21-0.44-6.32-1.08-9.2
	c2.34,0.8,4.42,1.81,6.13,3c0.72,1.95,1.17,4.03,1.27,6.2H38.44z M41.89,13.42c-1.55-0.78-3.27-1.45-5.13-2.01
	c-0.54-1.86-1.19-3.6-1.96-5.16C37.71,8.02,40.15,10.49,41.89,13.42z M13.19,6.24c-0.75,1.54-1.39,3.24-1.93,5.06
	c-1.8,0.52-3.49,1.15-5.02,1.88C7.98,10.36,10.36,7.97,13.19,6.24z M6.25,34.81c1.53,0.73,3.21,1.36,5.01,1.88
	c0.53,1.82,1.18,3.52,1.93,5.06C10.36,40.02,7.98,37.64,6.25,34.81z M34.82,41.75c0.76-1.57,1.42-3.3,1.96-5.16
	c1.85-0.55,3.57-1.22,5.12-2.01C40.15,37.51,37.72,39.98,34.82,41.75z"/>
</svg>
