<?xml version="1.0" encoding="utf-8"?>
<!-- Generator: Adobe Illustrator 24.0.0, SVG Export Plug-In . SVG Version: 6.00 Build 0)  -->
<svg version="1.1" id="Layer_1" xmlns="http://www.w3.org/2000/svg" xmlns:xlink="http://www.w3.org/1999/xlink" x="0px" y="0px"
	 viewBox="0 0 48 48" style="enable-background:new 0 0 48 48;" xml:space="preserve">
<style type="text/css">
	.st0{fill:#FFFFFF;}
</style>
<path class="st0" d="M46.05,14.69c-1.21-2.85-2.93-5.41-5.13-7.61c-2.2-2.2-4.76-3.92-7.61-5.13C30.36,0.7,27.23,0.07,24,0.07
	s-6.36,0.63-9.31,1.88c-2.85,1.21-5.41,2.93-7.61,5.13c-2.2,2.2-3.92,4.76-5.13,7.61C0.7,17.64,0.07,20.77,0.07,24
	c0,3.23,0.63,6.36,1.88,9.31c1.21,2.85,2.93,5.41,5.13,7.61c2.2,2.2,4.76,3.92,7.61,5.13c2.95,1.25,6.08,1.88,9.31,1.88
	s6.36-0.63,9.31-1.88c2.85-1.21,5.41-2.93,7.61-5.13c2.2-2.2,3.92-4.76,5.13-7.61c1.25-2.95,1.88-6.08,1.88-9.31
	C47.93,20.77,47.3,17.64,46.05,14.69z M43.52,31.24c-1.71,1.19-3.78,2.2-6.13,3c0.64-2.88,1.01-5.99,1.08-9.21h6.33
	C44.68,27.21,44.24,29.3,43.52,31.24z M3.21,25.04h6.33c0.07,3.26,0.45,6.41,1.1,9.32c-2.28-0.75-4.33-1.69-6.04-2.81
	C3.81,29.52,3.32,27.33,3.21,25.04z M4.6,16.45c1.71-1.12,3.76-2.06,6.04-2.81c-0.66,2.91-1.04,6.07-1.11,9.32H3.21
	C3.32,20.67,3.81,18.48,4.6,16.45z M25.04,11.7c3.57,0.09,6.99,0.56,10.05,1.37c0.77,3.04,1.22,6.4,1.3,9.9H25.04V11.7z M25.04,9.62
	V3.21c2.27,0.11,4.45,0.59,6.47,1.38c1.16,1.73,2.14,3.83,2.92,6.19C31.5,10.1,28.33,9.7,25.04,9.62z M22.96,9.61
	c-3.27,0.06-6.43,0.43-9.36,1.08c0.77-2.32,1.74-4.39,2.89-6.11c2.02-0.79,4.2-1.26,6.47-1.38V9.61z M22.96,11.69v11.28H11.61
	c0.08-3.53,0.53-6.93,1.32-9.99C16.01,12.2,19.42,11.75,22.96,11.69z M11.61,25.04h11.35v11.28c-3.55-0.06-6.96-0.51-10.04-1.29
	C12.14,31.97,11.69,28.58,11.61,25.04z M22.96,38.39v6.4c-2.27-0.11-4.45-0.59-6.47-1.38c-1.15-1.72-2.13-3.79-2.9-6.11
	C16.52,37.96,19.69,38.33,22.96,38.39z M25.04,38.38c3.3-0.08,6.47-0.48,9.4-1.15c-0.77,2.36-1.76,4.45-2.92,6.19
	c-2.03,0.79-4.2,1.27-6.47,1.38V38.38z M25.04,36.3V25.04h11.35c-0.07,3.51-0.52,6.87-1.29,9.9C32.03,35.74,28.61,36.22,25.04,36.3z
	 M38.46,22.96c-0.07-3.21-0.44-6.33-1.08-9.21c2.35,0.8,4.43,1.81,6.13,3c0.73,1.95,1.17,4.03,1.28,6.21H38.46z M41.91,13.4
	c-1.55-0.78-3.28-1.46-5.13-2.01c-0.54-1.86-1.19-3.6-1.96-5.17C37.73,8,40.17,10.47,41.91,13.4z M13.18,6.22
	c-0.75,1.54-1.4,3.24-1.93,5.07c-1.8,0.52-3.49,1.15-5.02,1.88C7.96,10.34,10.35,7.95,13.18,6.22z M6.23,34.83
	c1.53,0.73,3.21,1.36,5.02,1.88c0.53,1.82,1.18,3.52,1.93,5.07C10.34,40.04,7.96,37.66,6.23,34.83z M34.83,41.77
	c0.76-1.57,1.42-3.31,1.96-5.17c1.85-0.55,3.57-1.23,5.12-2.01C40.17,37.53,37.73,39.99,34.83,41.77z"/>
</svg>
