<?xml version="1.0" encoding="utf-8"?>
<!-- Generator: Adobe Illustrator 24.0.0, SVG Export Plug-In . SVG Version: 6.00 Build 0)  -->
<svg version="1.1" id="Layer_1" xmlns="http://www.w3.org/2000/svg" xmlns:xlink="http://www.w3.org/1999/xlink" x="0px" y="0px"
	 viewBox="0 0 48 48" style="enable-background:new 0 0 48 48;" xml:space="preserve">
<style type="text/css">
	.st0{fill:#FFFFFF;}
</style>
<g>
	<path class="st0" d="M41.55,44.59c1.05-0.85,3.28-3.41,3.6-9.92c0.41-8.56-4.35-12.02-4.35-12.02s1.58,5.24-1.78,5.76
		c-1-0.12-3.44-0.37-4.67-2.67c-1.23-2.3,1.89-6.17,2.13-12.08c0.24-5.91-6.1-8.35-6.1-8.35c2.19,2.62-0.67,10-6.38,7.32
		C18.29,9.94,22.38,0,22.38,0c-5.87,1.83-9.13,9.75-6.27,16.4c2.87,6.65-2.26,11.64-5.61,9.34c-3.35-2.3-1.71-8.06-1.71-8.06
		S2.52,24.08,3,32.52C3.42,39.8,6.27,43.2,7.22,44.2C5.25,45.15,3.37,46.39,1.9,48c0,0,8.05-5.39,22.1-5v0c0,0,0,0,0,0s0,0,0,0v0
		c14.05-0.39,22.1,5,22.1,5C44.82,46.6,43.24,45.48,41.55,44.59z M24,27.12L24,27.12L24,27.12L24,27.12L24,27.12
		c-0.02,0.01-8.21,6.56-4.16,13.99c0,0-5.82,0.24-11.34,2.52c-0.74-7.36,5.17-11.81,5.17-11.81c-0.55,2.99,0.55,6.71,0.55,6.71
		c1.56-7.66,8.16-14.43,10.04-16.24c1.41,1.42,7.94,8.36,8.31,15.27c0,0,0.69-4.13,0-7.31c0,0,8.9,4.55,7.25,13.52
		c-5.61-2.4-11.66-2.65-11.66-2.65C32.21,33.68,24.02,27.14,24,27.12z"/>
</g>
</svg>
