<?xml version="1.0" encoding="utf-8"?>
<!-- Generator: Adobe Illustrator 24.0.0, SVG Export Plug-In . SVG Version: 6.00 Build 0)  -->
<svg version="1.1" id="Layer_1" xmlns="http://www.w3.org/2000/svg" xmlns:xlink="http://www.w3.org/1999/xlink" x="0px" y="0px"
	 viewBox="0 0 48 48" style="enable-background:new 0 0 48 48;" xml:space="preserve">
<style type="text/css">
	.st0{fill:#FFFFFF;}
</style>
<g>
	<g>
		<g>
			<g>
				<g>
					<path d="M48,48.25H0V6.19h48V48.25z M5.19,43.18h37.62V11.26H5.19V43.18z"/>
				</g>
				<g>
					<rect x="2.59" y="8.73" width="42.81" height="7.58"/>
				</g>
				<g>
					<path d="M39.03,8.82h-9.32V1.08h9.32V8.82z M31.15,7.41h6.44V2.49h-6.44V7.41z"/>
				</g>
				<g>
					<path d="M40.03,9.65H28.71v-9.4h11.32V9.65z M30.46,7.94h7.81V1.96h-7.81V7.94z"/>
				</g>
				<g>
					<rect x="33.14" y="1.78" width="5.17" height="5.91"/>
				</g>
				<g>
					<path d="M18.29,8.82H8.97V1.08h9.32V8.82z M10.41,7.41h6.44V2.49h-6.44V7.41z"/>
				</g>
				<g>
					<path d="M19.29,9.65H7.97v-9.4h11.32V9.65z M9.72,7.94h7.81V1.96H9.72V7.94z"/>
				</g>
				<g>
					<rect x="12.4" y="1.78" width="5.17" height="5.91"/>
				</g>
			</g>
			<g>
				<polygon points="24,19.34 27.21,25.84 34.37,26.88 29.19,31.93 30.41,39.07 24,35.7 17.59,39.07 18.81,31.93 13.63,26.88 
					20.79,25.84 				"/>
			</g>
		</g>
	</g>
</g>
</svg>
