<?xml version="1.0" encoding="utf-8"?>
<!-- Generator: Adobe Illustrator 24.0.0, SVG Export Plug-In . SVG Version: 6.00 Build 0)  -->
<svg version="1.1" id="Layer_1" xmlns="http://www.w3.org/2000/svg" xmlns:xlink="http://www.w3.org/1999/xlink" x="0px" y="0px"
	 viewBox="0 0 48 48" style="enable-background:new 0 0 48 48;" xml:space="preserve">
<style type="text/css">
	.st0{fill:#FFFFFF;}
</style>
<g>
	<circle cx="24" cy="24" r="24"/>
	<g>
		<g>
			<g>
				<polygon class="st0" points="29.32,24.66 29.32,27.26 36.2,27.26 36.2,33.41 22.6,33.41 22.6,30.43 20,30.43 20,36.01 
					38.8,36.01 38.8,24.66 				"/>
			</g>
			<path class="st0" d="M20,11.99v11.35h18.8V11.99H20z M22.6,20.74v-6.15H36.2v6.15H22.6z"/>
			<g>
				<polygon class="st0" points="25.4,24.67 25.4,26.88 11.8,26.88 11.8,20.73 18.68,20.73 18.68,18.13 9.2,18.13 9.2,29.48 
					28,29.48 28,24.67 				"/>
				<rect x="20.99" y="18.13" class="st0" width="0.62" height="2.6"/>
				<rect x="25.4" y="21.73" class="st0" width="2.6" height="0.62"/>
			</g>
			<g>
				<path class="st0" d="M20,11.99v11.35h18.8V11.99H20z M22.6,20.74v-6.15H36.2v6.15H22.6z"/>
			</g>
		</g>
	</g>
</g>
</svg>
