<?xml version="1.0" encoding="utf-8"?>
<!-- Generator: Adobe Illustrator 24.0.0, SVG Export Plug-In . SVG Version: 6.00 Build 0)  -->
<svg version="1.1" id="Layer_1" xmlns="http://www.w3.org/2000/svg" xmlns:xlink="http://www.w3.org/1999/xlink" x="0px" y="0px"
	 viewBox="0 0 48 48" style="enable-background:new 0 0 48 48;" xml:space="preserve">
<style type="text/css">
	.st0{fill:#FFFFFF;}
</style>
<g>
	<g>
		<g>
			<path d="M42.79,17.97c-0.54-4.21-3.14-6.7-7.22-6.97c-0.54-1.15-1.21-2.23-1.98-3.21C31.06,4.58,27.65,2.81,24,2.81
				c-3.65,0-7.06,1.77-9.59,4.97c-0.77,0.98-1.43,2.06-1.98,3.21c-4.08,0.27-6.68,2.76-7.22,6.97c-0.29,2.25,0.39,4.5,1.87,6.18
				c1.4,1.59,3.39,2.5,5.46,2.5c0.73,0,1.4-0.34,1.86-0.93c0.47-0.62,0.63-1.44,0.42-2.2c-0.37-1.37-0.56-2.81-0.56-4.28
				c0-6.08,3.24-11.18,7.56-12.48c-0.03-0.13-0.03-0.26-0.02-0.4c0.01-0.17,0.04-0.33,0.08-0.5c0.01-0.07,0.03-0.14,0.04-0.21
				c0.01-0.04,0.01-0.07,0.02-0.11c0-0.01,0.01-0.07,0-0.01c0-0.02,0-0.03,0.01-0.05c0.02-0.15,0.11-0.27,0.27-0.28
				c-0.03-0.31-0.08-0.61-0.15-0.92c-0.08-0.36,0.47-0.51,0.55-0.15c0.1,0.44,0.15,0.88,0.18,1.33c0.03-0.04,0.08-0.07,0.13-0.08
				c0.14-0.04,0.32,0.05,0.35,0.2c0.06,0.3,0.07,0.59,0.08,0.89c0.21-0.02,0.43-0.03,0.65-0.03c5.37,0,9.74,5.75,9.74,12.81
				c0,1.47-0.19,2.91-0.56,4.28c-0.21,0.76-0.05,1.58,0.42,2.2c0.45,0.59,1.13,0.93,1.86,0.93c2.07,0,4.06-0.91,5.46-2.5
				C42.4,22.47,43.08,20.22,42.79,17.97z M10.92,22.63c-0.41-0.21-0.79-0.51-1.11-0.88c-0.79-0.9-1.15-2.11-1-3.33
				c0.24-1.88,0.96-3.01,2.29-3.52c-0.31,1.4-0.47,2.85-0.47,4.34C10.64,20.39,10.73,21.53,10.92,22.63z M38.2,21.75
				c-0.33,0.37-0.7,0.66-1.11,0.88c0.19-1.11,0.28-2.24,0.28-3.38c0-1.48-0.16-2.94-0.47-4.34c1.34,0.51,2.05,1.64,2.29,3.52
				C39.35,19.65,38.99,20.86,38.2,21.75z"/>
		</g>
		<g>
			<path d="M34.33,15.61c-0.13-0.41-0.28-0.82-0.45-1.22l0,0l-0.01-0.03c-0.1-0.25-0.21-0.5-0.32-0.75l-0.01-0.01
				c-2.37-5.54-6.22-8.92-9.03-10.77c-3.05-2.01-5.5-2.7-5.6-2.73L18.59,0c0,0,1.53,5.31,0.14,9.42c-0.01,0.03-0.02,0.05-0.03,0.08
				l-1.45,1.18c-0.2,0.17-5.01,4.16-4.41,11.38c0.36,4.38,2.56,6.79,4.33,8.03c1.18,0.83,2.54,1.41,4.04,1.74
				c0.14,0.04,1.24,0.31,2.81,0.31c0.12,0,0.24,0,0.37,0l0.05,0c0.03,0,0.06,0,0.08,0l0.04,0c2.6-0.1,6.2-1.02,8.63-4.8
				c0.7-1,1.22-2.11,1.56-3.3C35.48,21.49,35.33,18.66,34.33,15.61z M27.77,27.2L27.77,27.2c-0.84,0.53-1.8,0.88-2.85,1.01
				c-0.17,0.02-0.34,0.03-0.5,0.04c0,0.01,0,0.02,0,0.02c-3.51,0.09-7.5-1.53-7.93-6.74c-0.44-5.31,3.05-8.14,3.05-8.14
				c-0.57,2.07,0.05,2.9,0.05,2.9c3.15-4.65,2.76-10.06,2.76-10.06c5.75,3.13,4.4,8.3,4.4,8.3c1.55-1.4,1.22-3.65,1.22-3.65
				C36.14,23.29,27.77,27.2,27.77,27.2z"/>
			<g>
				<path d="M40.99,48H7.01l0.03-1.77c0.18-10.61,5.68-14.61,5.91-14.78l1.22-0.86l1.04,1.07c1.92,1.99,5.21,3.17,8.79,3.17
					s6.87-1.19,8.79-3.17l1.04-1.07l1.22,0.86c0.23,0.17,5.74,4.17,5.91,14.78L40.99,48z M10.61,44.52h26.78
					c-0.31-3.6-1.33-6.07-2.2-7.56c-0.42-0.73-0.85-1.3-1.2-1.72c-2.57,1.95-6.18,3.08-9.98,3.08s-7.41-1.13-9.99-3.08
					c-0.36,0.42-0.78,0.99-1.2,1.72C11.94,38.45,10.92,40.92,10.61,44.52z"/>
			</g>
		</g>
		<path d="M15.74,9.96c-0.77,0.96-1.51,1.97-1.96,3.11c-0.27,0.68-0.43,1.43-0.24,2.13c1.7-1.52,3.41-3.03,5.11-4.55
			c0.31-0.28,0.63-0.56,0.87-0.9c0.59-0.82,1.19-2.87-0.41-2.93C17.82,6.78,16.45,9.08,15.74,9.96z"/>
	</g>
</g>
</svg>
