<?xml version="1.0" encoding="utf-8"?>
<!-- Generator: Adobe Illustrator 24.0.0, SVG Export Plug-In . SVG Version: 6.00 Build 0)  -->
<svg version="1.1" id="Layer_1" xmlns="http://www.w3.org/2000/svg" xmlns:xlink="http://www.w3.org/1999/xlink" x="0px" y="0px"
	 viewBox="0 0 48 48" style="enable-background:new 0 0 48 48;" xml:space="preserve">
<style type="text/css">
	.st0{fill:#FFFFFF;}
</style>
<g>
	<circle cx="24" cy="24" r="24"/>
	<g>
		<g>
			<g>
				<g>
					<path class="st0" d="M38.8,38.8H9.2V12.87H38.8V38.8z M12.4,35.67H35.6V15.99H12.4V35.67z"/>
				</g>
				<g>
					<rect x="10.8" y="14.43" class="st0" width="26.39" height="4.68"/>
				</g>
				<g>
					<path class="st0" d="M33.27,14.49h-5.75V9.71h5.75V14.49z M28.41,13.62h3.97v-3.03h-3.97V13.62z"/>
				</g>
				<g>
					<path class="st0" d="M33.88,15h-6.98V9.2h6.98V15z M27.99,13.94h4.82v-3.68h-4.82V13.94z"/>
				</g>
				<g>
					<rect x="29.64" y="10.15" class="st0" width="3.19" height="3.64"/>
				</g>
				<g>
					<path class="st0" d="M20.48,14.49h-5.75V9.71h5.75V14.49z M15.62,13.62h3.97v-3.03h-3.97V13.62z"/>
				</g>
				<g>
					<path class="st0" d="M21.09,15h-6.98V9.2h6.98V15z M15.2,13.94h4.82v-3.68H15.2V13.94z"/>
				</g>
				<g>
					<rect x="16.85" y="10.15" class="st0" width="3.19" height="3.64"/>
				</g>
			</g>
			<g>
				<polygon class="st0" points="24,20.97 25.98,24.98 30.39,25.62 27.2,28.74 27.95,33.14 24,31.06 20.05,33.14 20.8,28.74 
					17.61,25.62 22.02,24.98 				"/>
			</g>
		</g>
	</g>
</g>
</svg>
