<?xml version="1.0" encoding="utf-8"?>
<!-- Generator: Adobe Illustrator 24.0.0, SVG Export Plug-In . SVG Version: 6.00 Build 0)  -->
<svg version="1.1" id="Layer_1" xmlns="http://www.w3.org/2000/svg" xmlns:xlink="http://www.w3.org/1999/xlink" x="0px" y="0px"
	 viewBox="0 0 48 48" style="enable-background:new 0 0 48 48;" xml:space="preserve">
<style type="text/css">
	.st0{fill:#FFFFFF;}
</style>
<g>
	<circle class="st0" cx="24" cy="24" r="24"/>
	<g>
		<g>
			<path d="M30.57,31.57h-3.95V16.3l-6.6-2.75h10.55v6.92h3.49v-9.97H10.57v23.78v0.15v0.12l16.05,6.11v-6.06h7.44v-9.35h-3.49
				V31.57z M14.06,32.46V14.44l9.07,3.78v17.76L14.06,32.46z"/>
			<polygon points="40.71,22.87 35.9,19.28 35.9,21.49 28.32,21.49 28.32,24.25 35.9,24.25 35.9,26.46 			"/>
		</g>
		<g>
			<path d="M15.99,27.87c0.23-0.92,1.14-1.36,1.14-1.36c-0.15,0.56,0,1.34,0,1.34c0.24-1.77,1.52-2.33,1.52-2.33
				s1.28,1.44,1.52,3.38c0,0,0.15-0.67,0-1.34c0,0,0.91,1.07,1.14,2.14l0.75,0.26c0.27-0.8,0.46-2.08-0.38-3.33
				c0,0-0.09,1.03-0.64,0.71c-0.55-0.32-0.59-0.93-0.25-1.71c0.34-0.78,0.13-2.3-1.1-2.96c0,0,0.33,1.61-0.68,1.27
				c-1.01-0.34-1.03-1.9-0.59-2.52c0,0-1.13-0.1-1.32,0.97c-0.19,1.07,0.57,2.36,0.21,2.89c-0.36,0.53-1.62,0.13-1.3-1.49
				c0,0-0.78,0.21-0.99,1.41c-0.12,0.7,0.05,1.66,0.24,2.41L15.99,27.87z"/>
			<path d="M18.64,26.76c-1.1,0.26-0.87,1.4-0.77,1.77l1.53,0.53C19.51,28.76,19.75,27.78,18.64,26.76z"/>
		</g>
	</g>
</g>
</svg>
