<?xml version="1.0" encoding="utf-8"?>
<!-- Generator: Adobe Illustrator 24.0.0, SVG Export Plug-In . SVG Version: 6.00 Build 0)  -->
<svg version="1.1" id="Layer_1" xmlns="http://www.w3.org/2000/svg" xmlns:xlink="http://www.w3.org/1999/xlink" x="0px" y="0px"
	 viewBox="0 0 48 48" style="enable-background:new 0 0 48 48;" xml:space="preserve">
<style type="text/css">
	.st0{fill:#FFFFFF;}
</style>
<g>
	<g>
		<g>
			<g>
				<polygon points="32.63,25.07 32.63,29.28 43.78,29.28 43.78,39.26 21.73,39.26 21.73,34.44 17.51,34.44 17.51,43.48 48,43.48 
					48,25.07 				"/>
			</g>
			<path d="M17.51,4.52v18.41H48V4.52H17.51z M21.73,18.72V8.74h22.05v9.97H21.73z"/>
			<g>
				<polygon points="26.27,25.08 26.27,28.67 4.22,28.67 4.22,18.7 15.37,18.7 15.37,14.48 0,14.48 0,32.89 30.49,32.89 
					30.49,25.08 				"/>
				<rect x="19.12" y="14.48" width="1" height="4.22"/>
				<rect x="26.27" y="20.32" width="4.22" height="1"/>
			</g>
			<g>
				<path d="M17.51,4.52v18.41H48V4.52H17.51z M21.73,18.72V8.74h22.05v9.97H21.73z"/>
			</g>
		</g>
	</g>
</g>
</svg>
