<?xml version="1.0" encoding="utf-8"?>
<!-- Generator: Adobe Illustrator 24.0.0, SVG Export Plug-In . SVG Version: 6.00 Build 0)  -->
<svg version="1.1" id="Layer_1" xmlns="http://www.w3.org/2000/svg" xmlns:xlink="http://www.w3.org/1999/xlink" x="0px" y="0px"
	 viewBox="0 0 48 48" style="enable-background:new 0 0 48 48;" xml:space="preserve">
<style type="text/css">
	.st0{fill:#FFFFFF;}
</style>
<g>
	<circle cx="24" cy="24" r="24"/>
	<g>
		<g>
			<rect x="9.19" y="31.67" class="st0" width="28.51" height="2.75"/>
			<g>
				<path class="st0" d="M36.58,19.62c-0.23,0-0.46-0.02-0.68-0.06v8.53H10.98V16.52h21.87c-0.04-0.23-0.06-0.46-0.06-0.69
					c0-0.3,0.03-0.59,0.1-0.86H9.42v14.69h28.05V19.52C37.18,19.59,36.89,19.62,36.58,19.62z"/>
				<path class="st0" d="M36.19,15.83c0,0.22,0.18,0.39,0.39,0.39s0.39-0.18,0.39-0.39s-0.18-0.39-0.39-0.39
					S36.19,15.61,36.19,15.83z"/>
			</g>
			<g>
				<g>
					<path class="st0" d="M37.71,29.9H9.17V14.72H33.2l-0.07,0.3c-0.06,0.26-0.09,0.53-0.09,0.81c0,0.22,0.02,0.44,0.06,0.65
						l0.05,0.29H11.23v11.08h24.43v-8.58l0.29,0.05c0.48,0.09,0.98,0.07,1.46-0.04l0.31-0.07 M9.67,29.4h27.55v-9.58
						c-0.35,0.06-0.71,0.06-1.06,0.03v8.49H10.73V16.27h21.83c-0.02-0.15-0.02-0.3-0.02-0.45c0-0.21,0.02-0.41,0.05-0.61H9.67V29.4z
						"/>
				</g>
				<g>
					<path class="st0" d="M36.58,16.47c-0.35,0-0.64-0.29-0.64-0.64s0.29-0.64,0.64-0.64s0.64,0.29,0.64,0.64
						S36.94,16.47,36.58,16.47z M36.58,15.68c-0.08,0-0.14,0.06-0.14,0.14s0.06,0.14,0.14,0.14s0.14-0.06,0.14-0.14
						S36.66,15.68,36.58,15.68z"/>
				</g>
			</g>
			<circle class="st0" cx="36.58" cy="15.83" r="2.24"/>
		</g>
		<g>
			<path class="st0" d="M18.21,24.11v1.57h-4.54v-7.06h1.54v5.49H18.21z"/>
			<path class="st0" d="M19.06,18.62h1.55v7.06h-1.55V18.62z"/>
			<path class="st0" d="M27.94,18.62l-2.47,7.06h-1.74l-2.47-7.06h1.74l1.6,4.57l1.6-4.57H27.94z"/>
			<path class="st0" d="M30.13,20.2v1.1h3.05v1.57h-3.05v1.24h3.35v1.57h-4.9v-7.06h4.9v1.57H30.13z"/>
		</g>
	</g>
</g>
</svg>
