<?xml version="1.0" encoding="utf-8"?>
<!-- Generator: Adobe Illustrator 24.0.0, SVG Export Plug-In . SVG Version: 6.00 Build 0)  -->
<svg version="1.1" id="Layer_1" xmlns="http://www.w3.org/2000/svg" xmlns:xlink="http://www.w3.org/1999/xlink" x="0px" y="0px"
	 viewBox="0 0 48 48" style="enable-background:new 0 0 48 48;" xml:space="preserve">
<style type="text/css">
	.st0{fill:#FFFFFF;}
</style>
<g>
	<circle class="st0" cx="24" cy="24" r="23.97"/>
	<g>
		<path d="M23.98,42.75c-1.22,0-2.41-0.45-3.35-1.28c-0.91-0.8-1.52-1.9-1.71-3.09l-0.2-1.26l1.26,0.14c2,0.22,3.62,0.26,3.79,0.26
			c0.07,0,1.97-0.03,4.2-0.31l1.26-0.16l-0.19,1.26C28.68,40.85,26.5,42.75,23.98,42.75z M21.32,39.33c0.6,0.91,1.61,1.49,2.67,1.49
			c1.07,0,2.1-0.59,2.69-1.52c-1.6,0.14-2.76,0.16-2.9,0.16h-0.02C23.65,39.46,22.69,39.44,21.32,39.33z"/>
		<path d="M38.76,28.37c-0.46-1.37-1.21-2.2-1.79-2.67c-0.32-1.24-1.25-4.9-1.76-7c-0.59-2.41-1.08-3.93-1.11-4
			c-0.01-0.02-0.03-0.08-0.06-0.18l0,0c0,0-0.04-0.18-0.28-0.63c-0.1-0.2-0.23-0.44-0.38-0.69c-0.26-0.43-0.49-0.79-0.74-1.12
			c-0.04-0.05-0.07-0.1-0.11-0.14c-0.01-0.01-0.01-0.02-0.02-0.03c-1.4-1.99-3.43-3.07-3.43-3.07c-0.53,0.45-0.43,1.48-0.34,1.99
			c-0.17-0.55-0.38-1.18-0.74-1.84c-0.76-1.4-1.8-2.47-3.01-3.1c-0.71-0.37-1.46-0.58-2.24-0.63c-0.13-0.01-0.25-0.01-0.38-0.01
			c-0.7,0-1.43,0.13-2.15,0.39L18.61,6.2l0.85,1.47c0.02,0.04,0.58,1.02,0.86,2.11c0.2,0.75,0.32,1.71-0.21,2.05
			c-0.11,0.07-0.19,0.1-0.24,0.11c-0.04,0.01-0.06,0.01-0.07,0.01h-0.06l-0.02,0.01c-0.03-0.03-0.16-0.16-0.21-0.65
			c-0.1-0.84,0.07-1.38,0.12-1.53l0.19-0.51l-0.53,0.08c-0.06,0.01-1.35,0.2-2.12,0.69c-0.32,0.17-0.64,0.39-0.97,0.69
			c-1.03,0.91-1.8,2.25-2.31,3.98c-0.05,0.16-0.53,1.66-1.1,3.98c-0.53,2.18-1.51,6.01-1.76,7c-0.58,0.47-1.33,1.3-1.79,2.67
			c-0.45,1.36-0.22,2.67,0.68,3.8c0.82,1.04,2.24,1.96,4.32,2.82c1.73,0.71,3.9,1.19,6.47,1.41c1.3,0.11,2.37,0.13,2.89,0.13
			c0.21,0,0.35,0,0.4,0c0.06,0,0.2,0,0.41,0c0.52,0,1.59-0.02,2.89-0.13c2.57-0.22,4.74-0.7,6.47-1.41c2.08-0.86,3.5-1.78,4.32-2.82
			C38.98,31.04,39.22,29.72,38.76,28.37z M14.95,19.23c0.56-2.29,1.04-3.77,1.06-3.84l0.01-0.02c0.46-1.56,1.09-2.41,1.55-2.86
			c0.19,0.58,0.54,1.04,1.02,1.34c0.36,0.22,0.77,0.34,1.2,0.34c0.52,0,1.05-0.17,1.54-0.49c0.91-0.59,1.84-1.86,1.14-4.51
			c-0.17-0.64-0.4-1.23-0.61-1.7c0.17-0.02,0.34-0.04,0.51-0.04c1.97,0,3.14,1.62,3.67,2.58c0.31,0.58,0.49,1.18,0.65,1.72
			c0.16,0.55,0.3,1.02,0.56,1.42c0.36,0.56,0.89,0.86,1.54,0.86l0.02,0c0.54,0,1.01-0.19,1.37-0.55c0.13-0.13,0.24-0.27,0.33-0.44
			c1.07,1.18,1.47,2.32,1.47,2.33c0,0.01,0.49,1.51,1.06,3.83c0.46,1.87,1.22,4.9,1.68,6.68c-1.08,0.7-4.93,2.93-10.72,2.99
			c-3.59-0.04-6.4-0.91-8.13-1.64c-1.27-0.53-2.15-1.06-2.59-1.35C13.66,24.4,14.47,21.19,14.95,19.23z M36.34,30.79
			c-0.57,0.72-1.73,1.45-3.43,2.15c-3.09,1.28-7.32,1.38-8.55,1.38c-0.21,0-0.33,0-0.34,0l-0.01,0l-0.03,0c-0.01,0-0.13,0-0.34,0
			c-1.22,0-5.46-0.1-8.55-1.38c-1.7-0.7-2.85-1.43-3.43-2.15c-0.43-0.54-0.53-1.07-0.31-1.71c0.2-0.6,0.48-1.02,0.72-1.29
			c0.55,0.36,1.52,0.93,2.87,1.5c1.23,0.52,2.53,0.94,3.88,1.24c1.67,0.38,3.41,0.58,5.17,0.6l0.02,0c1.76-0.02,3.49-0.22,5.17-0.6
			c1.34-0.3,2.65-0.72,3.88-1.24c1.36-0.57,2.32-1.14,2.87-1.5c0.24,0.28,0.52,0.7,0.72,1.29C36.86,29.71,36.77,30.24,36.34,30.79z"
			/>
	</g>
</g>
</svg>
