<?xml version="1.0" encoding="utf-8"?>
<!-- Generator: Adobe Illustrator 24.0.0, SVG Export Plug-In . SVG Version: 6.00 Build 0)  -->
<svg version="1.1" id="Layer_1" xmlns="http://www.w3.org/2000/svg" xmlns:xlink="http://www.w3.org/1999/xlink" x="0px" y="0px"
	 viewBox="0 0 48 48" style="enable-background:new 0 0 48 48;" xml:space="preserve">
<style type="text/css">
	.st0{fill:#FFFFFF;}
</style>
<g>
	<circle class="st0" cx="24" cy="24" r="23.97"/>
	<g>
		<path d="M23.78,38.09c-0.18,0-1.79-0.04-3.8-0.26l-1.26-0.14l0.2,1.26c0.19,1.19,0.8,2.29,1.71,3.09
			c0.94,0.83,2.13,1.28,3.35,1.28c2.51,0,4.69-1.91,5.07-4.44l0.19-1.26l-1.27,0.16C25.75,38.07,23.85,38.09,23.78,38.09z"/>
		<path d="M38.77,28.37c-0.46-1.37-1.21-2.2-1.79-2.67c-0.32-1.24-1.25-4.9-1.76-7c-0.59-2.41-1.09-3.94-1.11-4
			c-0.01-0.02-0.03-0.08-0.06-0.18c0,0-0.04-0.18-0.28-0.63c-0.1-0.2-0.23-0.44-0.38-0.69c-0.26-0.43-0.49-0.79-0.74-1.12
			c-0.04-0.05-0.07-0.1-0.11-0.14c-0.01-0.01-0.01-0.02-0.02-0.03c-1.4-1.99-3.43-3.07-3.43-3.07c-0.53,0.45-0.43,1.48-0.34,1.99
			c-0.17-0.55-0.38-1.19-0.74-1.84c-0.76-1.4-1.8-2.47-3.01-3.1c-0.71-0.37-1.46-0.58-2.24-0.63c-0.13-0.01-0.25-0.01-0.38-0.01
			c-0.71,0-1.43,0.13-2.15,0.39L18.6,6.2l0.85,1.48c0.02,0.04,0.58,1.02,0.86,2.11c0.2,0.75,0.32,1.71-0.21,2.05
			c-0.11,0.07-0.19,0.1-0.24,0.11c-0.04,0.01-0.06,0.01-0.07,0.01h-0.06l-0.02,0.01c-0.03-0.03-0.16-0.16-0.21-0.65
			c-0.1-0.84,0.07-1.38,0.12-1.53l0.19-0.51l-0.53,0.08c-0.06,0.01-1.35,0.2-2.12,0.69c-0.32,0.17-0.64,0.39-0.97,0.69
			c-1.03,0.91-1.81,2.25-2.31,3.98c-0.05,0.16-0.53,1.66-1.1,3.98c-0.53,2.18-1.51,6.01-1.76,7c-0.58,0.47-1.34,1.3-1.79,2.67
			c-0.45,1.36-0.22,2.67,0.68,3.8c0.82,1.04,2.24,1.96,4.32,2.82c1.73,0.71,3.9,1.19,6.47,1.41c1.3,0.11,2.37,0.13,2.89,0.13
			c0.21,0,0.35,0,0.4,0c0.06,0,0.2,0,0.41,0c0.52,0,1.59-0.02,2.89-0.13c2.57-0.23,4.74-0.7,6.47-1.41c2.08-0.86,3.5-1.79,4.32-2.82
			C38.98,31.04,39.22,29.73,38.77,28.37z M32.98,28.91c-1.22,0.52-2.51,0.93-3.84,1.23c-1.66,0.38-3.39,0.57-5.13,0.59l-0.01,0
			l-0.01,0c-1.74-0.02-3.47-0.22-5.13-0.59c-1.33-0.3-2.62-0.71-3.84-1.23c-1.26-0.53-2.18-1.06-2.72-1.41
			c0.18-0.24,0.44-0.66,0.65-1.21c0.03-0.09,0.06-0.16,0.08-0.22c0.46,0.3,1.37,0.85,2.67,1.39c1.77,0.74,4.64,1.63,8.3,1.67
			c3.66-0.04,6.53-0.93,8.3-1.67c1.3-0.55,2.21-1.09,2.67-1.39c0.02,0.06,0.04,0.13,0.08,0.22c0.21,0.55,0.47,0.97,0.65,1.21
			C35.16,27.85,34.24,28.38,32.98,28.91z"/>
	</g>
</g>
</svg>
