<?xml version="1.0" encoding="utf-8"?>
<!-- Generator: Adobe Illustrator 24.0.0, SVG Export Plug-In . SVG Version: 6.00 Build 0)  -->
<svg version="1.1" id="Layer_1" xmlns="http://www.w3.org/2000/svg" xmlns:xlink="http://www.w3.org/1999/xlink" x="0px" y="0px"
	 viewBox="0 0 48 48" style="enable-background:new 0 0 48 48;" xml:space="preserve">
<style type="text/css">
	.st0{fill:#FFFFFF;}
</style>
<g>
	<circle cx="24" cy="24" r="23.96"/>
	<path class="st0" d="M39.3,14.08c-0.09-2.1-0.49-3.62-0.5-3.69l-0.2-0.75l-0.74-0.22c-0.06-0.02-1.58-0.47-3.67-0.61
		c-1.24-0.09-2.43-0.05-3.54,0.1c-1.43,0.2-2.74,0.6-3.89,1.18c-1.01,0.51-2.13,1.39-3.43,2.68c-1.14,1.14-2.41,2.61-3.79,4.37
		c-0.49-0.11-1.11-0.2-1.81-0.21c-2.17-0.05-4.09,0.68-5.56,2.1c-3.2,3.1-2.87,6.88-2.57,8.36c0.06,0.3,0.2,0.58,0.42,0.8
		c0.25,0.26,0.58,0.42,0.94,0.47c0.68,0.09,1.34-0.27,1.64-0.89c0.43-0.91,1.08-1.47,1.96-1.73c0.03-0.01,0.07-0.02,0.1-0.03
		c0.15,0.69,0.42,1.58,0.93,2.5c-1.64-0.48-3.46-0.11-4.78,1.17c-1.89,1.84-1.92,3.46-1.92,3.46c0.41-0.4,1.82-0.52,1.82-0.52
		s-1.33,0.41-1.86,2.57c-0.52,2.11,0.51,3.91,0.51,3.91s1.23-3.1,2.53-2.68c0.82,0.26,0,1.47-1.44,1.81c0,0,0.67,1.34,2.34,0.89
		c1.68-0.44,2.03-1.71,2.49-1.9c0.46-0.18,0.6,0.25-0.03,1.03c0,0,2.63-0.6,3.64-3.12c0.46-1.14,0.52-2.12,0.33-2.97
		c0.86,0.48,1.68,0.75,2.32,0.91c-0.21,0.7-0.69,1.51-1.82,2.01c-0.63,0.28-1.01,0.93-0.94,1.61c0.07,0.68,0.56,1.24,1.23,1.4
		c0.49,0.11,1.24,0.24,2.13,0.24c1.79,0,4.17-0.49,6.3-2.56c1.46-1.43,2.25-3.32,2.26-5.49v0c0-0.72-0.08-1.36-0.16-1.81
		c1.8-1.32,3.3-2.55,4.47-3.66c1.33-1.26,2.24-2.36,2.79-3.36c0.62-1.14,1.06-2.43,1.3-3.85C39.28,16.51,39.35,15.32,39.3,14.08z
		 M28.48,30.34c-0.02,1.56-0.56,2.86-1.59,3.86c-1.59,1.55-3.37,1.93-4.73,1.94c0.82-0.75,1.24-1.61,1.46-2.31
		c0.19-0.61,0.25-1.16,0.26-1.54c0.86-0.53,2.59-1.62,4.54-2.97C28.46,29.62,28.48,29.97,28.48,30.34z M16.98,26.15
		c-0.16-0.54-0.23-0.99-0.26-1.25c0.18-0.28,0.51-0.79,0.96-1.45c0.45,1.11,1.23,2.62,2.52,4.02l0.02,0.02l0.02,0.02
		c1.37,1.33,2.85,2.15,3.95,2.63c-0.68,0.43-1.2,0.75-1.48,0.92c-0.26-0.03-0.7-0.11-1.24-0.29c-1.1-0.37-2.03-0.97-2.77-1.77
		l-0.02-0.02l-0.02-0.02C17.88,28.21,17.31,27.26,16.98,26.15z M15.53,23.69c-0.38,0-0.93,0.04-1.55,0.22
		c-0.7,0.2-1.58,0.59-2.35,1.39c0.05-1.35,0.48-3.13,2.07-4.67c1.04-1,2.35-1.5,3.91-1.48c0.37,0.01,0.72,0.04,1.02,0.09
		C17.23,21.15,16.08,22.85,15.53,23.69z M28.37,27.33c-0.86,0.62-1.7,1.19-2.47,1.7c-0.77-0.24-2.74-0.99-4.5-2.69
		c-1.63-1.79-2.33-3.8-2.55-4.57c0.53-0.75,1.13-1.57,1.77-2.42c0.26-0.35,0.52-0.68,0.78-1.01c0.44,1.22,1.34,2.97,3.18,4.9
		l0.01,0.01c1.88,1.9,3.6,2.85,4.81,3.32C29.07,26.83,28.72,27.08,28.37,27.33z M31.01,25.35c-0.26-0.06-0.68-0.17-1.23-0.4
		c-0.93-0.4-2.38-1.21-4.01-2.85c-1.55-1.63-2.32-3.07-2.7-4c-0.24-0.59-0.35-1.05-0.4-1.33c2.05-2.43,3.78-4.04,5.08-4.7
		c2.12-1.08,4.56-1.17,6.24-1.06c1.22,0.08,2.22,0.28,2.77,0.41c0.11,0.55,0.28,1.56,0.33,2.78c0.06,1.68-0.1,4.12-1.24,6.2
		C35.15,21.69,33.5,23.37,31.01,25.35z M16.52,35.46c0,0-1.61-0.84-2.75,1.21c0,0,0.14-1.31-1.1-1.82
		c-0.71-0.29-1.42-0.03-2.04,0.32c0.18-0.48,0.72-1.08,1.4-1.52c1.13-0.72,1.39-1.58,0.68-2.21c-0.28-0.24-0.52-0.36-0.72-0.4
		c0.55-0.42,2.29-1.52,4.1-0.08C18.11,32.57,17.42,34.39,16.52,35.46z"/>
</g>
</svg>
