<?xml version="1.0" encoding="utf-8"?>
<!-- Generator: Adobe Illustrator 24.0.0, SVG Export Plug-In . SVG Version: 6.00 Build 0)  -->
<svg version="1.1" id="Layer_1" xmlns="http://www.w3.org/2000/svg" xmlns:xlink="http://www.w3.org/1999/xlink" x="0px" y="0px"
	 viewBox="0 0 48 48" style="enable-background:new 0 0 48 48;" xml:space="preserve">
<style type="text/css">
	.st0{fill:#FFFFFF;}
</style>
<g>
	<circle cx="24" cy="24" r="23.97"/>
	<path class="st0" d="M33.1,10.05H14.9c-3.51,0-6.36,2.85-6.36,6.36v10.46c0,3.51,2.85,6.36,6.36,6.36h1.63
		c-0.09,0.72-0.32,1.67-0.85,2.76l-0.96,1.95h1.77c0.16,0,1.61-0.02,3.35-0.68c2.1-0.79,3.72-2.18,4.74-4.03h8.52
		c3.51,0,6.36-2.85,6.36-6.36V16.41C39.46,12.91,36.6,10.05,33.1,10.05z M15.86,25.64c-0.61,0-1.11-0.5-1.11-1.11v0
		c0-0.61,0.5-1.11,1.11-1.11h10.48c0.61,0,1.11,0.5,1.11,1.11v0c0,0.61-0.5,1.11-1.11,1.11H15.86z M15.86,20.94
		c-0.61,0-1.11-0.5-1.11-1.11v0c0-0.61,0.5-1.11,1.11-1.11h16.29c0.61,0,1.11,0.5,1.11,1.11v0c0,0.61-0.5,1.11-1.11,1.11H15.86z"/>
</g>
</svg>
