<?xml version="1.0" encoding="utf-8"?>
<!-- Generator: Adobe Illustrator 24.0.0, SVG Export Plug-In . SVG Version: 6.00 Build 0)  -->
<svg version="1.1" id="Layer_1" xmlns="http://www.w3.org/2000/svg" xmlns:xlink="http://www.w3.org/1999/xlink" x="0px" y="0px"
	 viewBox="0 0 48 48" style="enable-background:new 0 0 48 48;" xml:space="preserve">
<style type="text/css">
	.st0{fill:#FFFFFF;}
</style>
<path d="M47.87,8.52c-0.13-3.27-0.76-5.65-0.79-5.75L46.77,1.6l-1.16-0.35c-0.1-0.03-2.46-0.73-5.72-0.95
	c-1.93-0.13-3.79-0.08-5.53,0.16c-2.23,0.31-4.27,0.93-6.07,1.85c-1.58,0.8-3.32,2.17-5.34,4.19c-1.78,1.78-3.77,4.07-5.91,6.81
	c-0.77-0.17-1.73-0.31-2.82-0.33c-3.38-0.07-6.38,1.06-8.67,3.28C0.54,21.09,1.06,26.99,1.52,29.3c0.09,0.47,0.32,0.91,0.66,1.25
	c0.39,0.4,0.91,0.66,1.47,0.73c1.06,0.14,2.09-0.42,2.55-1.39c0.68-1.41,1.68-2.3,3.06-2.7c0.05-0.02,0.11-0.03,0.16-0.04
	c0.23,1.07,0.65,2.46,1.44,3.9c-2.56-0.75-5.4-0.17-7.46,1.83c-2.94,2.87-3,5.4-3,5.4c0.65-0.63,2.84-0.81,2.84-0.81
	s-2.07,0.64-2.91,4c-0.82,3.29,0.79,6.11,0.79,6.11s1.92-4.83,3.95-4.18c1.28,0.41,0,2.29-2.25,2.83c0,0,1.04,2.09,3.66,1.4
	c2.61-0.69,3.17-2.68,3.89-2.96s0.94,0.39-0.04,1.61c0,0,4.11-0.94,5.68-4.87c0.71-1.78,0.81-3.31,0.51-4.63
	c1.34,0.75,2.62,1.18,3.62,1.42c-0.32,1.09-1.08,2.36-2.83,3.14c-0.98,0.44-1.57,1.45-1.46,2.51c0.1,1.07,0.88,1.94,1.92,2.18
	c0.77,0.17,1.93,0.37,3.33,0.37c2.79,0,6.51-0.77,9.83-4c2.29-2.23,3.5-5.19,3.53-8.56v0c0.01-1.13-0.12-2.12-0.25-2.82
	c2.8-2.06,5.15-3.98,6.98-5.71c2.08-1.96,3.5-3.68,4.35-5.24c0.97-1.77,1.65-3.8,2.02-6.01C47.84,12.31,47.95,10.45,47.87,8.52z
	 M30.99,33.89c-0.03,2.43-0.87,4.46-2.48,6.03c-2.48,2.41-5.26,3.01-7.38,3.02c1.28-1.17,1.94-2.51,2.28-3.6
	c0.3-0.95,0.39-1.81,0.41-2.41c1.34-0.82,4.05-2.53,7.08-4.64C30.96,32.77,31,33.31,30.99,33.89z M13.04,27.36
	c-0.26-0.84-0.36-1.54-0.4-1.94c0.28-0.43,0.8-1.23,1.51-2.26c0.7,1.73,1.92,4.08,3.93,6.28l0.03,0.03l0.03,0.03
	c2.14,2.08,4.45,3.36,6.16,4.11c-1.06,0.67-1.87,1.17-2.31,1.44c-0.4-0.05-1.1-0.18-1.93-0.46c-1.71-0.58-3.17-1.51-4.32-2.76
	l-0.02-0.03l-0.03-0.03C14.46,30.56,13.57,29.08,13.04,27.36z M10.79,23.52c-0.6,0-1.46,0.07-2.42,0.34
	c-1.09,0.31-2.46,0.93-3.66,2.17c0.07-2.11,0.75-4.88,3.23-7.29c1.62-1.57,3.67-2.34,6.1-2.31c0.58,0.01,1.12,0.07,1.59,0.14
	C13.43,19.55,11.65,22.21,10.79,23.52z M30.81,29.2c-1.34,0.96-2.66,1.86-3.85,2.65c-1.2-0.38-4.28-1.55-7.01-4.19
	c-2.55-2.79-3.64-5.92-3.99-7.13c0.83-1.17,1.76-2.45,2.76-3.77c0.41-0.54,0.82-1.07,1.22-1.57c0.69,1.91,2.09,4.63,4.96,7.65
	l0.02,0.02c2.93,2.96,5.61,4.44,7.5,5.18C31.9,28.41,31.37,28.8,30.81,29.2z M34.93,26.11c-0.4-0.09-1.06-0.26-1.91-0.63
	c-1.45-0.62-3.72-1.89-6.25-4.45c-2.42-2.55-3.62-4.79-4.21-6.23c-0.37-0.93-0.55-1.64-0.63-2.07c3.2-3.8,5.9-6.3,7.92-7.33
	c3.31-1.68,7.12-1.82,9.73-1.65c1.9,0.13,3.46,0.44,4.32,0.64c0.18,0.86,0.44,2.44,0.51,4.34c0.1,2.62-0.15,6.42-1.93,9.68
	C41.4,20.4,38.82,23.02,34.93,26.11z M12.32,41.88c0,0-2.52-1.31-4.29,1.89c0,0,0.22-2.04-1.72-2.83c-1.11-0.45-2.21-0.05-3.19,0.5
	c0.28-0.75,1.12-1.69,2.19-2.37c1.76-1.13,2.18-2.47,1.07-3.45c-0.43-0.38-0.81-0.56-1.12-0.63c0.86-0.66,3.58-2.37,6.39-0.13
	C14.81,37.38,13.73,40.21,12.32,41.88z"/>
</svg>
