<?xml version="1.0" encoding="utf-8"?>
<!-- Generator: Adobe Illustrator 24.0.0, SVG Export Plug-In . SVG Version: 6.00 Build 0)  -->
<svg version="1.1" id="Layer_1" xmlns="http://www.w3.org/2000/svg" xmlns:xlink="http://www.w3.org/1999/xlink" x="0px" y="0px"
	 viewBox="0 0 48 48" style="enable-background:new 0 0 48 48;" xml:space="preserve">
<style type="text/css">
	.st0{fill:#FFFFFF;}
</style>
<path class="st0" d="M39.19,0.01H8.81c-4.85,0-8.8,3.95-8.8,8.8v30.38c0,4.85,3.95,8.8,8.8,8.8h30.38c4.85,0,8.8-3.95,8.8-8.8V8.81
	C47.99,3.96,44.04,0.01,39.19,0.01z M39.19,44.57H14.93c0.9-2.49,2.63-6.62,5.11-10.75l0,0l0,0c0.09-0.15,0.18-0.31,0.28-0.46
	c2.77-4.5,7.14-9.97,12.18-10.46c2.98-0.28,5.96,0.46,8.84,2.22c1.58,0.96,2.7,1.98,3.22,2.49v11.59
	C44.57,42.16,42.16,44.57,39.19,44.57z M8.81,44.57c-2.97,0-5.38-2.41-5.38-5.38V33.9c2-2.96,4.24-4.77,6.02-4.85
	c1.78-0.08,4.65,1.5,7.95,4.38c-2.4,4.17-4.21,8.52-5.1,11.14H8.81z M17.28,8.83c-2.86,0-5.21-2.21-5.43-5.01h10.87
	C22.49,6.62,20.13,8.83,17.28,8.83z"/>
</svg>
