<?xml version="1.0" encoding="utf-8"?>
<!-- Generator: Adobe Illustrator 24.0.0, SVG Export Plug-In . SVG Version: 6.00 Build 0)  -->
<svg version="1.1" id="Layer_1" xmlns="http://www.w3.org/2000/svg" xmlns:xlink="http://www.w3.org/1999/xlink" x="0px" y="0px"
	 viewBox="0 0 48 48" style="enable-background:new 0 0 48 48;" xml:space="preserve">
<style type="text/css">
	.st0{fill:#FFFFFF;}
</style>
<g>
	<path class="st0" d="M31.65,6.99L31.42,6.7l-0.34-0.13c-0.16-0.06-1.59-0.6-3,0.12c-0.82,0.42-1.44,1.14-1.83,2.15
		c-0.56,0.53-2.1,1.8-5,3.16c-4.05,1.89-8.99,3.14-14.7,3.71c-0.81-0.97-1.93-1.39-3.16-1.19c-0.89,0.14-1.54,0.56-1.66,0.65
		L1.3,15.44l-0.15,0.5c-0.72,2.38-1.11,4.7-1.15,6.91c-0.03,1.8,0.16,3.52,0.57,5.13c0.72,2.81,1.89,4.33,1.94,4.39l0.22,0.28
		l0.32,0.14c0.52,0.22,1.03,0.34,1.53,0.35c0.7,0.02,1.39-0.18,1.98-0.57c0.35-0.23,0.62-0.49,0.82-0.72c0,0.94,0.06,1.86,0.2,2.74
		c0.2,1.28,0.55,2.49,1.04,3.6c0.86,1.95,1.89,2.96,1.93,3l0.51,0.49l0.67-0.14c1-0.2,2.23-0.88,3.64-2.02
		c1.03-0.83,1.8-1.62,1.89-1.71l1.18-1.22l-1.33-1.02c-1.52-1.17-2.39-3.13-2.82-4.4c2.47,0.18,4.88,0.66,7.17,1.42
		c2.74,0.91,4.54,1.98,5.24,2.43c0.3,0.47,0.93,1.26,1.98,1.6c0.3,0.1,0.62,0.15,0.94,0.16c0.81,0.02,1.66-0.26,2.53-0.82l0.29-0.19
		l0.17-0.31c0.09-0.16,2.26-4.02,3.25-9.43c0.59-3.21,0.64-6.3,0.15-9.19C35.4,13.21,33.93,9.89,31.65,6.99z M9.84,30.84
		c0.6-0.04,1.2-0.07,1.8-0.08c0.15,0.6,0.42,1.55,0.87,2.59c0.6,1.37,1.34,2.53,2.21,3.44c-0.64,0.57-1.88,1.61-2.9,2.05
		C11.12,37.88,9.54,35.23,9.84,30.84z M31.99,24.15c0.31-2.76,0.15-5.49-0.49-8.09c-0.81-3.3-2.19-5.57-2.87-6.55
		c0.13-0.23,0.3-0.4,0.48-0.49h0c0.31-0.16,0.68-0.13,0.9-0.09c3.48,4.58,4.66,10.16,3.49,16.59c-0.77,4.25-2.39,7.56-2.82,8.39
		c-0.51,0.28-0.94,0.37-1.29,0.27c-0.18-0.06-0.32-0.16-0.44-0.27C30.6,30.64,31.62,27.36,31.99,24.15z M27.31,32.43
		c-0.97-0.57-2.7-1.47-5.07-2.27c-2.21-0.74-4.53-1.24-6.89-1.48c-1.07-0.11-2.15-0.16-3.24-0.16c-1.67,0-3.36,0.13-5.05,0.38
		c-1.19-3.17-1.29-6-1.16-7.84c0.08-1.16,0.27-2.1,0.43-2.75c3.53-0.33,6.83-0.91,9.82-1.74c2.53-0.7,4.84-1.58,6.88-2.61
		c2-1.01,3.36-1.97,4.2-2.66c0.65,1.03,1.63,2.88,2.25,5.4C30.71,21.72,29.98,27.01,27.31,32.43z M5.28,30.39
		c-0.31,0.19-0.66,0.22-1.06,0.1c-0.68-1.07-3.09-5.6-0.9-13.31c0.13-0.05,0.29-0.1,0.46-0.13c0.28-0.04,0.5,0,0.69,0.12
		c-0.21,0.73-0.51,2-0.64,3.65C3.71,22.36,3.77,23.91,4,25.44c0.25,1.66,0.71,3.3,1.36,4.89C5.33,30.35,5.31,30.37,5.28,30.39z"/>
	<path class="st0" d="M46.96,18.32l-0.27,0.36c-0.09,0.12-0.18,0.23-0.26,0.34c-1.45,1.83-2.53,1.66-2.85,0.89
		c-0.33-0.78,0.65-1.71,2-2c-0.34-0.41-1.78-2-3.89-2.25c-1.07-0.08-2.39,0.19-3.67,1.43l-0.39,0.38l0.08,0.55
		c0.01,0.04,0.54,3.75-0.13,6.54l-0.21,0.86l0.76,0.35c0.04,0.02,0.93,0.42,2.21,0.64c0.51,0.08,1.02,0.13,1.52,0.13
		c1.17,0,2.25-0.23,3.22-0.69c0.97-0.46,1.72-1.1,2.22-1.9c0.38-0.62,0.61-1.32,0.68-2.08c0-0.04,0.01-0.07,0.01-0.11
		C48.02,21.33,48.01,19.89,46.96,18.32z M39.85,18.36c0.63-0.45,1.33-0.6,2.06-0.44c-0.24,0.35-0.4,0.75-0.47,1.17
		c-0.17,1.08,0.28,2.19,1.17,2.9c0.73,0.58,1.51,0.79,2.34,0.63c0.27-0.05,0.54-0.15,0.81-0.28c-0.24,0.62-0.74,1.11-1.51,1.47
		c-1.28,0.6-2.64,0.55-3.55,0.4c-0.3-0.05-0.6-0.11-0.89-0.2C40.13,21.87,39.98,19.65,39.85,18.36z"/>
</g>
</svg>
