<?xml version="1.0" encoding="utf-8"?>
<!-- Generator: Adobe Illustrator 24.0.0, SVG Export Plug-In . SVG Version: 6.00 Build 0)  -->
<svg version="1.1" id="Layer_1" xmlns="http://www.w3.org/2000/svg" xmlns:xlink="http://www.w3.org/1999/xlink" x="0px" y="0px"
	 viewBox="0 0 48 48" style="enable-background:new 0 0 48 48;" xml:space="preserve">
<style type="text/css">
	.st0{fill:#FFFFFF;}
</style>
<circle cx="24" cy="24" r="23.98"/>
<g>
	<path class="st0" d="M30.59,9.35l-0.2-0.25L30.1,8.98c-0.14-0.05-1.37-0.52-2.59,0.1c-0.71,0.36-1.24,0.98-1.58,1.86
		c-0.48,0.45-1.81,1.55-4.31,2.72c-3.49,1.63-7.75,2.71-12.66,3.19c-0.7-0.83-1.66-1.2-2.72-1.03c-0.76,0.12-1.33,0.48-1.43,0.56
		l-0.36,0.24l-0.13,0.43c-0.62,2.05-0.95,4.05-0.99,5.95c-0.03,1.55,0.14,3.03,0.49,4.42c0.62,2.42,1.63,3.73,1.67,3.78l0.19,0.24
		l0.27,0.12c0.44,0.19,0.89,0.29,1.32,0.3c0.6,0.01,1.19-0.16,1.71-0.49c0.3-0.2,0.54-0.42,0.71-0.62c0,0.81,0.05,1.6,0.17,2.36
		c0.17,1.1,0.48,2.14,0.9,3.1c0.74,1.68,1.62,2.55,1.66,2.59l0.44,0.43l0.58-0.12c0.86-0.18,1.92-0.76,3.13-1.74
		c0.89-0.72,1.55-1.39,1.62-1.47l1.01-1.05l-1.14-0.88c-1.31-1.01-2.05-2.69-2.43-3.79c2.13,0.15,4.21,0.57,6.17,1.22
		c2.36,0.79,3.91,1.71,4.51,2.09c0.26,0.41,0.8,1.08,1.71,1.38c0.26,0.08,0.53,0.13,0.81,0.14c0.7,0.02,1.43-0.22,2.18-0.7
		l0.25-0.16l0.15-0.27c0.08-0.14,1.94-3.46,2.8-8.12c0.51-2.76,0.55-5.43,0.13-7.92C33.82,14.71,32.55,11.85,30.59,9.35z
		 M11.8,29.89c0.52-0.04,1.03-0.06,1.55-0.07c0.13,0.52,0.36,1.33,0.75,2.23c0.52,1.18,1.15,2.18,1.9,2.97
		c-0.55,0.5-1.62,1.38-2.5,1.76C12.9,35.96,11.55,33.68,11.8,29.89z M30.88,24.13c0.27-2.38,0.13-4.72-0.43-6.97
		c-0.7-2.85-1.88-4.8-2.47-5.64c0.12-0.2,0.25-0.34,0.41-0.43h0c0.27-0.14,0.59-0.11,0.77-0.08c3,3.94,4.01,8.75,3.01,14.29
		c-0.66,3.66-2.06,6.51-2.43,7.23c-0.44,0.25-0.81,0.32-1.11,0.23c-0.15-0.05-0.28-0.14-0.38-0.23
		C29.69,29.72,30.57,26.9,30.88,24.13z M26.85,31.26c-0.83-0.49-2.33-1.27-4.37-1.96c-1.91-0.64-3.9-1.07-5.93-1.27
		c-0.92-0.09-1.86-0.14-2.79-0.14c-1.44,0-2.9,0.11-4.35,0.33c-1.03-2.73-1.11-5.17-1-6.75c0.07-1,0.23-1.81,0.37-2.37
		c3.04-0.28,5.88-0.79,8.46-1.5c2.18-0.6,4.17-1.36,5.93-2.25c1.73-0.87,2.89-1.7,3.62-2.29c0.56,0.89,1.41,2.48,1.93,4.66
		C29.78,22.03,29.15,26.59,26.85,31.26z M7.87,29.5c-0.27,0.16-0.56,0.19-0.91,0.09c-0.59-0.92-2.66-4.83-0.77-11.46
		c0.11-0.04,0.25-0.09,0.39-0.11c0.24-0.03,0.43,0,0.6,0.1c-0.18,0.63-0.44,1.72-0.55,3.14c-0.1,1.32-0.05,2.66,0.15,3.98
		c0.22,1.43,0.61,2.85,1.17,4.21C7.92,29.47,7.9,29.49,7.87,29.5z"/>
	<path class="st0" d="M43.77,19.1l-0.23,0.31c-0.08,0.1-0.15,0.2-0.23,0.29c-1.24,1.57-2.18,1.43-2.46,0.76
		c-0.28-0.67,0.56-1.47,1.73-1.72c-0.29-0.35-1.53-1.72-3.35-1.94c-0.92-0.07-2.06,0.16-3.16,1.23l-0.33,0.32l0.07,0.48
		c0,0.03,0.47,3.23-0.11,5.64l-0.18,0.74l0.65,0.3c0.03,0.01,0.8,0.37,1.9,0.55c0.44,0.07,0.88,0.11,1.31,0.11
		c1.01,0,1.94-0.2,2.78-0.59c0.84-0.4,1.48-0.95,1.91-1.64c0.33-0.53,0.53-1.14,0.59-1.79c0-0.03,0.01-0.06,0.01-0.1
		C44.69,21.7,44.68,20.46,43.77,19.1z M37.65,19.14c0.55-0.39,1.14-0.51,1.78-0.38c-0.21,0.3-0.34,0.64-0.4,1.01
		c-0.15,0.93,0.24,1.89,1.01,2.5c0.63,0.5,1.3,0.68,2.01,0.54c0.23-0.04,0.47-0.13,0.69-0.24c-0.21,0.54-0.64,0.95-1.3,1.27
		c-1.1,0.52-2.27,0.48-3.06,0.35c-0.26-0.04-0.51-0.1-0.76-0.17C37.89,22.16,37.77,20.25,37.65,19.14z"/>
</g>
</svg>
