<?xml version="1.0" encoding="utf-8"?>
<!-- Generator: Adobe Illustrator 24.0.0, SVG Export Plug-In . SVG Version: 6.00 Build 0)  -->
<svg version="1.1" id="Layer_1" xmlns="http://www.w3.org/2000/svg" xmlns:xlink="http://www.w3.org/1999/xlink" x="0px" y="0px"
	 viewBox="0 0 48 48" style="enable-background:new 0 0 48 48;" xml:space="preserve">
<style type="text/css">
	.st0{fill:#FFFFFF;}
</style>
<g>
	<path d="M35.51,21.4H26.6v-8.91c0-1.3-1.05-2.35-2.35-2.35h-0.51c-1.3,0-2.35,1.05-2.35,2.35v8.91h-8.91
		c-1.3,0-2.35,1.05-2.35,2.35v0.51c0,1.3,1.05,2.35,2.35,2.35h8.91v8.91c0,1.3,1.05,2.35,2.35,2.35h0.51c1.3,0,2.35-1.05,2.35-2.35
		V26.6h8.91c1.3,0,2.35-1.05,2.35-2.35v-0.51C37.86,22.45,36.81,21.4,35.51,21.4z"/>
	<path d="M24,0.02C10.78,0.02,0.02,10.78,0.02,24S10.78,47.98,24,47.98S47.98,37.22,47.98,24S37.22,0.02,24,0.02z M24,43.62
		c-10.82,0-19.62-8.8-19.62-19.62c0-10.82,8.8-19.62,19.62-19.62c10.82,0,19.62,8.8,19.62,19.62C43.62,34.82,34.82,43.62,24,43.62z"
		/>
</g>
</svg>
