<?xml version="1.0" encoding="utf-8"?>
<!-- Generator: Adobe Illustrator 24.0.0, SVG Export Plug-In . SVG Version: 6.00 Build 0)  -->
<svg version="1.1" id="Layer_1" xmlns="http://www.w3.org/2000/svg" xmlns:xlink="http://www.w3.org/1999/xlink" x="0px" y="0px"
	 viewBox="0 0 48 48" style="enable-background:new 0 0 48 48;" xml:space="preserve">
<style type="text/css">
	.st0{fill:#FFFFFF;}
</style>
<circle cx="24" cy="24" r="24"/>
<g>
	<path class="st0" d="M33.81,15.97c-0.7-1.55-2.54-2.24-4.09-1.54c-1.55,0.7-2.24,2.54-1.54,4.09c0.7,1.55,2.54,2.24,4.09,1.54
		C33.82,19.35,34.51,17.52,33.81,15.97z M31.88,19.21c-1.09,0.49-2.37,0.01-2.86-1.08c-0.49-1.09-0.01-2.37,1.08-2.86
		c1.09-0.49,2.37-0.01,2.86,1.08C33.45,17.44,32.97,18.72,31.88,19.21z"/>
	<path class="st0" d="M41.16,12.27l-0.3-0.15c-0.05-0.03-1.34-0.69-3.38-1.16c-1.87-0.43-4.76-0.79-7.91,0
		c-1.69,0.42-3.43,1.12-5.18,2.07c-1.54-1-3.31-1.03-4.55-0.86c-1.63,0.22-2.97,0.82-3.47,1.18c-0.76,0.54-1.12,1.42-0.9,2.2
		c0.02,0.08,0.05,0.15,0.08,0.23c0.17,0.38,0.65,1.04,1.86,1.12c0.4,0.03,0.82,0.15,1.19,0.29l-0.03,0.02l-0.05,0.33
		c-0.3,2.05,0.79,4.48,0.83,4.58l0.29,0.63c0.05,0.1,1.15,2.52,2.89,3.65l0.28,0.18l0.04,0c-0.14,0.38-0.32,0.77-0.57,1.09
		c-0.74,0.96-0.56,1.75-0.39,2.13c0.03,0.08,0.07,0.15,0.12,0.21c0.44,0.68,1.34,0.99,2.25,0.78c0.6-0.14,1.94-0.75,3.18-1.83
		c0.94-0.82,2.09-2.17,2.36-3.98c1.87-0.68,3.54-1.53,4.97-2.52c2.67-1.85,4.32-4.25,5.23-5.94c0.99-1.84,1.35-3.24,1.36-3.3
		l0.08-0.32L41.16,12.27z M17.51,15.48c-0.37-0.02-0.62-0.14-0.67-0.32c-0.05-0.17,0.06-0.44,0.35-0.65
		c0.7-0.49,3.96-1.73,6.27-0.38c-1.36,0.83-2.46,1.66-3.21,2.27C19.74,16.1,18.62,15.55,17.51,15.48z M19.93,17.9
		c0.25-0.23,0.89-0.79,1.82-1.48c0.14,0.8,0.47,2.22,1.2,4.07l0.28,0.63l0,0.01c0.91,1.77,1.76,2.96,2.27,3.59
		c-1.13,0.24-1.97,0.35-2.31,0.39c-1.32-0.95-2.23-2.93-2.24-2.95l-0.29-0.63C20.66,21.51,19.77,19.52,19.93,17.9z M23.21,29.24
		c-0.1-0.15-0.02-0.42,0.2-0.71c0.68-0.88,1-2.09,1.12-2.67c0.95-0.16,2.31-0.44,3.82-0.92c-0.51,2.63-3.59,4.26-4.42,4.46
		C23.59,29.49,23.31,29.39,23.21,29.24z M26.17,24.57c-0.42-0.51-1.38-1.74-2.39-3.71l-0.27-0.6c-0.81-2.06-1.11-3.59-1.21-4.25
		c1.85-1.31,4.57-2.92,7.61-3.68c4.66-1.16,8.78,0.37,9.96,0.89c-0.39,1.22-1.96,5.33-5.91,8.06
		C31.39,23.07,28.38,24.05,26.17,24.57z"/>
	<path class="st0" d="M19,23.29c-0.25-0.47-0.55-0.87-0.87-1.19c-0.33-0.32-0.68-0.57-1.06-0.75c-0.28-0.13-0.6-0.23-0.94-0.28
		c-0.19-0.03-0.39-0.04-0.6-0.03c-0.16-0.12-0.33-0.24-0.51-0.34c-0.79-0.45-1.59-0.65-2.4-0.58c-1.02,0.08-2.02,0.64-2.75,1.53
		c-0.57,0.7-0.91,1.64-0.93,2.58c-0.01,0.63,0.1,1.23,0.31,1.75c-0.33,0.31-0.64,0.64-0.93,1c-0.45,0.55-0.82,1.15-1.12,1.77
		c-0.35,0.74-0.57,1.55-0.62,2.32c-0.07,0.95,0.09,1.9,0.46,2.83c0.03,0.09,0.07,0.17,0.11,0.25c0.38,0.84,0.91,1.56,1.56,2.11
		c0.58,0.49,1.29,0.85,2.06,1.04c0.68,0.17,1.39,0.22,2.15,0.17c0.32-0.02,0.64-0.06,0.96-0.13c0.24-0.03,2.13-0.3,3.02-1.58
		l0.61-0.88l-1.07,0.11c-0.01,0-0.89,0.09-1.63,0.03c-0.09-0.01-0.19-0.03-0.31-0.05c-0.08-0.01-0.17-0.03-0.28-0.06
		c-0.4-0.1-0.77-0.24-1.1-0.41c-0.26-0.14-0.49-0.31-0.7-0.49c-0.18-0.17-0.33-0.36-0.47-0.56c-0.11-0.19-0.2-0.38-0.26-0.57
		c-0.04-0.15-0.07-0.3-0.08-0.46c0-0.15,0.02-0.29,0.05-0.44c0.05-0.18,0.12-0.36,0.21-0.54c0.14-0.25,0.32-0.49,0.53-0.73
		c0.02-0.02,0.04-0.05,0.06-0.07c0.48,0.39,1,0.68,1.5,0.83c0.41,0.12,0.81,0.17,1.22,0.14c0.4-0.03,0.8-0.15,1.24-0.37
		c0.46-0.23,0.85-0.51,1.18-0.82c0.35-0.34,0.62-0.71,0.84-1.13c0.35-0.68,0.47-1.48,0.33-2.18c0.08-0.12,0.16-0.26,0.24-0.41
		c0.33-0.63,0.46-1.37,0.38-2.09C19.37,24.17,19.22,23.71,19,23.29z M17.38,27.52c0.01,0.05,0.01,0.1,0.01,0.15
		c0,0.16-0.02,0.33-0.05,0.49c-0.05,0.18-0.12,0.36-0.2,0.53c-0.11,0.2-0.25,0.39-0.4,0.56c-0.2,0.2-0.41,0.38-0.65,0.53
		c-0.21,0.13-0.44,0.24-0.67,0.32c-0.14,0.04-0.28,0.06-0.42,0.07c-0.15,0-0.3-0.02-0.45-0.05c-0.2-0.05-0.4-0.13-0.59-0.23
		c-0.28-0.16-0.55-0.35-0.79-0.57c0,0,0,0,0,0c0.28-0.35,0.96-1.13,1.61-1.4c0,0-1.71-0.08-2.98,1.36c0,0,0,0,0,0
		c-0.14,0.12-0.27,0.26-0.4,0.39c-0.57,0.61-1.01,1.31-1.18,2.14c-0.2,1.02,0.18,2.07,0.83,2.86c0.49,0.6,1.14,1.04,1.85,1.34
		c-0.14,0.01-0.27,0.02-0.41,0.03c-0.44,0.01-0.88-0.03-1.31-0.13c-0.32-0.08-0.64-0.2-0.93-0.35c-0.27-0.15-0.53-0.33-0.76-0.54
		c-0.26-0.25-0.49-0.54-0.69-0.84c-0.25-0.41-0.45-0.85-0.59-1.3c-0.12-0.41-0.19-0.83-0.2-1.25c0-0.41,0.04-0.81,0.13-1.21
		c0.12-0.47,0.29-0.92,0.52-1.35c0.26-0.48,0.58-0.93,0.93-1.35c0.08-0.09,0.16-0.18,0.24-0.27c0.02-0.02,0.03-0.04,0.05-0.05
		c0.16-0.16,1.55-1.48,2.83-1.94c0,0-1.12-0.09-1.98,0.26c-0.1-0.17-0.17-0.34-0.23-0.53c-0.07-0.24-0.1-0.49-0.12-0.74
		c0-0.27,0.02-0.54,0.08-0.8c0.06-0.23,0.14-0.45,0.25-0.66c0.12-0.21,0.26-0.4,0.41-0.58c0.18-0.18,0.38-0.35,0.6-0.49
		c0.19-0.11,0.38-0.2,0.59-0.27c0.19-0.05,0.38-0.08,0.57-0.09c0.2,0,0.39,0.02,0.58,0.06c0.24,0.06,0.48,0.16,0.71,0.27
		c0.09,0.05,0.17,0.1,0.25,0.15c-0.7,0.53-0.94,1.46-0.94,1.46c1.03-1.03,2.27-1,2.5-0.99c0.03,0.01,0.06,0.01,0.1,0.02
		c0.16,0.04,0.32,0.1,0.47,0.18c0.18,0.1,0.35,0.22,0.5,0.36c0.21,0.2,0.38,0.43,0.54,0.67c0.13,0.21,0.23,0.43,0.31,0.66
		c0.05,0.19,0.08,0.38,0.09,0.57c0,0.08,0,0.16-0.01,0.23c-0.03,0.24-0.27,1.42-2.06,2.52C15.91,27.74,16.79,27.87,17.38,27.52z"/>
</g>
</svg>
