<?xml version="1.0" encoding="utf-8"?>
<!-- Generator: Adobe Illustrator 24.0.0, SVG Export Plug-In . SVG Version: 6.00 Build 0)  -->
<svg version="1.1" id="Layer_1" xmlns="http://www.w3.org/2000/svg" xmlns:xlink="http://www.w3.org/1999/xlink" x="0px" y="0px"
	 viewBox="0 0 48 48" style="enable-background:new 0 0 48 48;" xml:space="preserve">
<style type="text/css">
	.st0{fill:#FFFFFF;}
</style>
<circle cx="24" cy="24" r="24"/>
<g>
	<path class="st0" d="M29.15,15.45c-1.68,0.76-2.44,2.74-1.68,4.43c0.76,1.68,2.74,2.44,4.43,1.68c1.68-0.76,2.44-2.74,1.68-4.43
		C32.82,15.44,30.84,14.69,29.15,15.45z M31.49,20.64c-1.18,0.53-2.57,0-3.1-1.18s0-2.57,1.18-3.1c1.18-0.53,2.57,0,3.1,1.18
		C33.19,18.72,32.66,20.11,31.49,20.64z"/>
	<path class="st0" d="M41.53,13.16L41.22,13c-0.06-0.03-1.45-0.75-3.65-1.26c-2.02-0.47-5.15-0.86-8.56-0.02
		c-1.84,0.45-3.73,1.2-5.63,2.23c-1.66-1.09-3.58-1.12-4.92-0.95c-1.76,0.23-3.21,0.88-3.75,1.26c-0.81,0.57-1.2,1.52-0.97,2.35
		c0.02,0.08,0.05,0.16,0.09,0.24c0.18,0.41,0.69,1.11,1.98,1.2c0.45,0.03,0.93,0.17,1.35,0.34l-0.06,0.05l-0.05,0.34
		c-0.33,2.21,0.84,4.84,0.89,4.95l0.31,0.69c0.05,0.11,1.24,2.72,3.11,3.95l0.29,0.19l0.08-0.01c-0.15,0.43-0.36,0.88-0.64,1.24
		c-0.8,1.03-0.61,1.87-0.42,2.28c0.04,0.08,0.08,0.16,0.12,0.23c0.47,0.73,1.43,1.06,2.4,0.83c0.65-0.15,2.09-0.8,3.43-1.97
		c1.02-0.89,2.27-2.34,2.56-4.31c2.03-0.74,3.85-1.65,5.41-2.73c2.9-1.99,4.68-4.59,5.67-6.42c1.07-1.98,1.46-3.5,1.48-3.57
		l0.09-0.34L41.53,13.16z M25.28,26.44c-0.46-0.55-1.49-1.9-2.58-4.03l-0.29-0.65c-0.88-2.23-1.2-3.9-1.3-4.61
		c2.01-1.42,4.96-3.15,8.26-3.97c5.05-1.25,9.51,0.43,10.79,0.98c-0.43,1.33-2.14,5.77-6.43,8.73
		C30.94,24.82,27.68,25.87,25.28,26.44z M15.19,16.21c-0.05-0.18,0.07-0.48,0.39-0.71c0.76-0.53,4.3-1.86,6.8-0.39
		C20.9,16,19.7,16.9,18.89,17.56c-0.56-0.32-1.77-0.92-2.97-1.01C15.51,16.53,15.24,16.4,15.19,16.21z M20.5,17.59
		c0.15,0.86,0.5,2.41,1.29,4.42l0.31,0.68l0,0.01c0.98,1.92,1.9,3.21,2.45,3.9c-1.23,0.26-2.14,0.38-2.5,0.42
		c-1.43-1.03-2.41-3.18-2.42-3.21l-0.31-0.69c-0.01-0.02-0.97-2.18-0.79-3.94C18.8,18.94,19.49,18.34,20.5,17.59z M22.29,30.72
		c0.74-0.96,1.09-2.26,1.22-2.89c1.03-0.17,2.5-0.47,4.15-0.98c-0.56,2.85-3.9,4.61-4.81,4.82c-0.38,0.09-0.68-0.02-0.79-0.18
		C21.96,31.33,22.04,31.04,22.29,30.72z"/>
	<path class="st0" d="M18,26.8c0-1.27-0.54-2.48-1.47-3.32c-0.36-0.32-0.82-0.59-1.33-0.78c-0.45-0.17-0.94-0.25-1.41-0.25
		c-0.53,0-1.05,0.08-1.59,0.23c-0.59,0.16-1.1,0.35-1.56,0.57c-0.92,0.44-1.71,1.01-2.36,1.69c-0.68,0.72-1.2,1.52-1.55,2.37
		c-0.34,0.83-0.51,1.74-0.52,2.61c0,0.96,0.18,1.9,0.53,2.79c0.06,0.16,0.13,0.31,0.19,0.46c0.4,0.89,0.89,1.62,1.45,2.18
		c0.36,0.35,0.7,0.62,1.05,0.82c0.4,0.22,0.8,0.38,1.24,0.48c0.28,0.06,0.57,0.1,0.87,0.1c0,0,2.93,0.06,4.22-2.17
		c0,0-1.31,0.35-1.76-0.69c-0.21-0.66-0.09-1.3-0.07-1.41c0.05-0.16,0.11-0.32,0.19-0.47c0.11-0.19,0.24-0.37,0.39-0.54
		c0.18-0.19,0.4-0.36,0.69-0.55c0.37-0.24,0.68-0.47,0.95-0.7c0.73-0.61,1.23-1.25,1.54-1.95c0.19-0.44,0.3-0.93,0.31-1.4
		C18,26.85,18,26.83,18,26.8z M13.86,29.98c-0.22,0.17-0.42,0.37-0.6,0.58c-0.28,0.31-0.5,0.68-0.66,1.07
		c-0.02-0.12-0.03-0.23-0.03-0.35c0-0.25,0.02-0.5,0.07-0.74c0.01-0.07,0.06-0.3,0.15-0.61c0.01-0.02,0.02-0.05,0.03-0.07
		c0.01-0.02,0.02-0.05,0.02-0.07c0.12-0.36,0.3-0.77,0.56-1.09c0,0-1.5,0.19-2.42,1.43c0,0,0,0,0,0c-0.25,0.28-0.47,0.6-0.64,0.94
		c-0.14,0.28-0.24,0.59-0.27,0.91c-0.05,0.41,0.01,0.81,0.14,1.21c0.25,0.79,0.81,1.45,1.44,1.97c0.03,0.03,0.06,0.05,0.1,0.08
		c-0.03,0-0.06,0-0.09,0.01c-0.23,0-0.46-0.02-0.68-0.07c-0.22-0.06-0.44-0.14-0.64-0.25c-0.26-0.14-0.49-0.32-0.71-0.51
		c-0.31-0.3-0.57-0.63-0.8-0.99c-0.34-0.55-0.61-1.15-0.8-1.77c-0.14-0.49-0.22-0.99-0.24-1.5c0-0.49,0.05-0.97,0.15-1.44
		c0.12-0.47,0.29-0.92,0.51-1.35c0.24-0.45,0.54-0.86,0.88-1.24c0.39-0.41,0.83-0.77,1.31-1.07c0.57-0.35,1.18-0.61,1.82-0.81
		c0.41-0.12,0.82-0.2,1.25-0.22c0.24,0,0.47,0.02,0.7,0.07c0.22,0.06,0.44,0.14,0.65,0.25c0.19,0.11,0.36,0.23,0.53,0.37
		c0.17,0.17,0.32,0.36,0.45,0.56c0.13,0.22,0.24,0.46,0.32,0.71c0.07,0.25,0.11,0.51,0.12,0.77c0,0.01,0,0.02,0,0.04
		c0,0.18-0.02,0.35-0.06,0.53c-0.05,0.21-0.13,0.41-0.23,0.6c-0.14,0.25-0.31,0.48-0.51,0.69c-0.34,0.36-0.73,0.67-1.13,0.95
		C14.31,29.68,14.08,29.82,13.86,29.98z"/>
</g>
</svg>
