<?xml version="1.0" encoding="UTF-8"?>
<svg xmlns="http://www.w3.org/2000/svg" xmlns:xlink="http://www.w3.org/1999/xlink" viewBox="0 0 48 48" width="48px" height="48px">
<g id="surface264656640">
<path style=" stroke:none;fill-rule:nonzero;fill:rgb(100%,100%,100%);fill-opacity:1;" d="M 42 27.675781 C 39 31.117188 36 34.558594 33 38 C 30.667969 38 28.332031 38 26 38 C 23.667969 40 21.332031 42 19 44 C 18 44 17 44 16 44 C 16 42 16 40 16 38 C 12.667969 38 9.332031 38 6 38 C 6 30.570312 6 23.136719 6 15.707031 C 7.453125 12.804688 8.910156 9.902344 10.363281 7 C 20.910156 7 31.453125 7 42 7 C 42 13.890625 42 20.785156 42 27.675781 Z M 42 27.675781 "/>
<path style=" stroke:none;fill-rule:nonzero;fill:rgb(98.039216%,98.039216%,98.039216%);fill-opacity:1;" d="M 39 26.367188 C 37.332031 28.246094 35.667969 30.121094 34 32 C 31.667969 32 29.332031 32 27 32 C 24.667969 34 22.332031 36 20 38 C 20 36 20 34 20 32 C 17.332031 31.992188 14.667969 31.984375 12 31.976562 C 12 24.648438 12 17.324219 12 10 C 21 10 30 10 39 10 C 39 15.457031 39 20.910156 39 26.367188 Z M 39 26.367188 "/>
<path style=" stroke:none;fill-rule:nonzero;fill:rgb(100%,100%,100%);fill-opacity:1;" d="M 21 16 L 24 16 L 24 26 L 21 26 Z M 21 16 "/>
<path style=" stroke:none;fill-rule:nonzero;fill:rgb(100%,100%,100%);fill-opacity:1;" d="M 30 16 L 33 16 L 33 26 L 30 26 Z M 30 16 "/>
</g>
</svg>
