<?xml version="1.0" encoding="utf-8"?>
<!-- Generator: Adobe Illustrator 24.0.0, SVG Export Plug-In . SVG Version: 6.00 Build 0)  -->
<svg version="1.1" id="Layer_1" xmlns="http://www.w3.org/2000/svg" xmlns:xlink="http://www.w3.org/1999/xlink" x="0px" y="0px"
	 viewBox="0 0 256 256" style="enable-background:new 0 0 256 256;" xml:space="preserve">
<style type="text/css">
	.st0{fill:#FFFFFF;}
	.st1{fill:#DD1212;}
</style>
<g>
	<path class="st1" d="M221.43,237.82c5.61-4.56,17.5-18.21,19.18-52.91c2.21-45.68-23.21-64.09-23.21-64.09s8.41,27.94-9.52,30.72
		c-5.34-0.63-18.36-1.97-24.9-14.26c-6.55-12.29,10.08-32.91,11.38-64.45c1.3-31.54-32.52-44.55-32.52-44.55
		c11.71,13.98-3.58,53.33-34.01,39.02C97.4,53,119.18,0,119.18,0c-31.29,9.75-48.7,52.02-33.42,87.47
		c15.28,35.44-12.03,62.1-29.91,49.81c-17.88-12.29-9.1-42.99-9.1-42.99s-33.49,34.14-30.89,79.17
		c2.24,38.82,17.42,56.96,22.49,62.29C27.81,240.81,17.83,247.41,9.98,256c0,0,42.93-28.75,117.85-26.68v0c0,0,0,0,0,0s0,0,0,0v0
		C202.75,227.25,245.68,256,245.68,256C238.86,248.53,230.44,242.57,221.43,237.82z M127.83,144.66L127.83,144.66L127.83,144.66
		L127.83,144.66L127.83,144.66c-0.08,0.06-43.8,34.98-22.21,74.62c0,0-31.06,1.29-60.46,13.44c-3.97-39.23,27.59-62.99,27.59-62.99
		c-2.93,15.93,2.93,35.77,2.93,35.77c8.34-40.87,43.54-76.98,53.57-86.59c7.51,7.57,42.34,44.58,44.31,81.43c0,0,3.68-22.05,0-39
		c0,0,47.46,24.27,38.65,72.1c-29.9-12.82-62.17-14.15-62.17-14.15C171.64,179.64,127.92,144.73,127.83,144.66z"/>
</g>
</svg>
