<?xml version="1.0" encoding="UTF-8"?>
<svg xmlns="http://www.w3.org/2000/svg" xmlns:xlink="http://www.w3.org/1999/xlink" viewBox="0 0 256 256" width="256px" height="256px">
<defs>
<linearGradient id="linear0" gradientUnits="userSpaceOnUse" x1="37.055248" y1="29.78467" x2="146.192825" y2="138.922256" gradientTransform="matrix(1.488372,0,0,1.488372,0,0)">
<stop offset="0" style="stop-color:rgb(0%,67.450982%,93.333334%);stop-opacity:1;"/>
<stop offset="1" style="stop-color:rgb(0%,47.843137%,85.09804%);stop-opacity:1;"/>
</linearGradient>
</defs>
<g id="surface5471914">
<path style=" stroke:none;fill-rule:nonzero;fill:url(#linear0);" d="M 245.894531 58.773438 C 237.621094 62.4375 228.726562 64.878906 219.339844 66.039062 C 228.878906 60.375 236.222656 51.339844 239.667969 40.660156 C 230.742188 45.894531 220.847656 49.738281 210.324219 51.765625 C 201.921875 42.859375 189.929688 37.332031 176.652344 37.332031 C 151.140625 37.332031 130.457031 57.828125 130.457031 83.105469 C 130.457031 86.683594 130.878906 90.164062 131.664062 93.546875 C 93.285156 91.621094 59.242188 73.375 36.46875 45.683594 C 32.46875 52.453125 30.21875 60.375 30.21875 68.734375 C 30.21875 84.625 38.351562 98.613281 50.757812 106.851562 C 43.183594 106.625 36.058594 104.515625 29.820312 101.136719 C 29.820312 101.273438 29.820312 101.476562 29.820312 101.675781 C 29.820312 123.878906 45.742188 142.367188 66.851562 146.574219 C 62.996094 147.632812 58.917969 148.21875 54.714844 148.21875 C 51.734375 148.21875 48.828125 147.882812 46.011719 147.375 C 51.886719 165.519531 68.9375 178.785156 89.140625 179.179688 C 73.332031 191.433594 53.425781 198.773438 31.777344 198.773438 C 28.039062 198.773438 24.378906 198.558594 20.761719 198.121094 C 41.226562 211.078125 65.507812 218.667969 91.578125 218.667969 C 176.523438 218.667969 222.996094 148.910156 222.996094 88.394531 C 222.996094 86.410156 222.933594 84.4375 222.84375 82.484375 C 231.910156 76.078125 239.722656 68.003906 245.894531 58.773438 "/>
</g>
</svg>
