<?xml version="1.0" encoding="UTF-8"?>
<svg xmlns="http://www.w3.org/2000/svg" xmlns:xlink="http://www.w3.org/1999/xlink" viewBox="0 0 256 256" width="256px" height="256px">
<g id="surface12095692">
<path style=" stroke:none;fill-rule:nonzero;fill:rgb(90.588236%,29.803923%,23.529412%);fill-opacity:1;" d="M 230.398438 180.800781 C 228.265625 192 219.199219 200.535156 208 202.132812 C 190.398438 204.800781 161.066406 208 128 208 C 95.464844 208 66.132812 204.800781 48 202.132812 C 36.800781 200.535156 27.734375 192 25.601562 180.800781 C 23.464844 168.535156 21.332031 150.398438 21.332031 128 C 21.332031 105.601562 23.464844 87.464844 25.601562 75.199219 C 27.734375 64 36.800781 55.464844 48 53.867188 C 65.601562 51.199219 94.933594 48 128 48 C 161.066406 48 189.867188 51.199219 208 53.867188 C 219.199219 55.464844 228.265625 64 230.398438 75.199219 C 232.535156 87.464844 235.199219 105.601562 235.199219 128 C 234.667969 150.398438 232.535156 168.535156 230.398438 180.800781 Z M 230.398438 180.800781 "/>
<path style=" stroke:none;fill-rule:nonzero;fill:rgb(100%,100%,100%);fill-opacity:1;" d="M 106.667969 165.332031 L 106.667969 90.667969 L 170.667969 128 Z M 106.667969 165.332031 "/>
</g>
</svg>
