<?xml version="1.0" encoding="utf-8"?>
<!-- Generator: Adobe Illustrator 24.0.0, SVG Export Plug-In . SVG Version: 6.00 Build 0)  -->
<svg version="1.1" xmlns="http://www.w3.org/2000/svg" xmlns:xlink="http://www.w3.org/1999/xlink" x="0px" y="0px"
	 viewBox="0 0 256 256" style="enable-background:new 0 0 256 256;" xml:space="preserve">
<style type="text/css">
	.st0{display:none;}
	.st1{fill:#FFFFFF;}
</style>
<g id="Layer_1" class="st0">
</g>
<g id="Layer_2">
	<g>
		<g>
			<path d="M128.01,193.56c-33.42,0-64.96-8.22-88.8-23.15c-24.99-15.64-38.75-36.83-38.75-59.66s13.76-44.01,38.75-59.66
				c23.84-14.93,55.37-23.15,88.8-23.15s64.96,8.22,88.8,23.15c24.99,15.64,38.75,36.83,38.75,59.66s-13.76,44.01-38.75,59.66
				C192.97,185.34,161.43,193.56,128.01,193.56z M128.01,43.69c-30.51,0-59.07,7.37-80.44,20.75
				C27.35,77.1,16.21,93.55,16.21,110.75c0,17.2,11.14,33.65,31.36,46.31c21.37,13.38,49.93,20.75,80.44,20.75
				s59.07-7.37,80.44-20.75c20.22-12.66,31.36-29.11,31.36-46.31c0-17.2-11.14-33.65-31.36-46.31
				C187.08,51.06,158.52,43.69,128.01,43.69z"/>
		</g>
		<g>
			<path d="M128.01,167.85c-26.46,0-51.38-5.82-70.17-16.39c-19.33-10.87-29.97-25.51-29.97-41.22s10.64-30.35,29.97-41.22
				c18.79-10.57,43.71-16.39,70.17-16.39s51.38,5.82,70.17,16.39c19.33,10.87,29.97,25.51,29.97,41.22s-10.64,30.35-29.97,41.22
				C179.39,162.03,154.47,167.85,128.01,167.85z M128.01,58.54c-25.46,0-49.35,5.55-67.28,15.63
				c-17.39,9.78-26.96,22.59-26.96,36.07s9.58,26.3,26.96,36.07c17.92,10.08,41.81,15.63,67.28,15.63s49.35-5.55,67.28-15.63
				c17.39-9.78,26.96-22.59,26.96-36.07s-9.58-26.3-26.96-36.07C177.36,64.09,153.47,58.54,128.01,58.54z"/>
		</g>
		<g>
			<path d="M128.15,228.05l-0.45-0.01c-76.27-2.77-107.59-30.44-119.47-46.69c-4.03-5.51-6.26-12.09-6.44-19.01l-1.34-51.39
				l15.74-0.41l1.34,51.39c0.1,3.71,1.28,7.21,3.41,10.13c4.58,6.26,13.47,15.43,29.8,23.5c20.14,9.95,46.13,15.59,77.26,16.74
				c31.13-1.16,57.12-6.79,77.26-16.74c16.33-8.07,25.22-17.23,29.8-23.5c2.13-2.92,3.31-6.42,3.41-10.13l1.34-51.39l15.74,0.41
				l-1.34,51.39c-0.18,6.92-2.41,13.5-6.44,19.01c-11.88,16.25-43.21,43.92-119.47,46.69L128.15,228.05z"/>
		</g>
		<g>
			<path d="M154.96,90.89c-5.1,0.76-9.71,2.21-13.84,4.36c-4.16,2.17-9.11,5.14-14.88,8.93c-5.51,3.73-10.05,6.41-13.59,8.01
				c-3.56,1.61-6.93,1.92-10.1,0.92c-3.18-1-4.85-2.73-4.98-5.17c-0.14-2.44,1.69-5.54,5.45-9.3c5.31-5.29,12.9-9.72,22.68-13.28
				l-11.66-9.32c-5.15,1.64-10.18,3.93-15.09,6.87c-3.04,1.82-5.83,3.79-8.44,5.88L76.33,84.1L64.09,95.69l15.13,4.83
				c-1.74,2.54-2.93,4.99-3.55,7.34c-1.23,4.64-0.53,8.63,2.1,11.93c2.62,3.3,6.72,5.78,12.26,7.45c6.3,1.9,12.32,2.35,18.05,1.38
				c5.67-0.96,10.68-2.63,15.04-5c4.32-2.34,9.35-5.47,15.08-9.35c3.65-2.5,6.65-4.43,9-5.81c2.34-1.36,4.66-2.34,6.96-2.93
				c2.29-0.59,4.43-0.54,6.42,0.13c2.71,0.91,4.07,2.5,4.1,4.79c0.03,2.29-1.62,5.28-4.99,8.98c-3.05,3.36-6.94,6.48-11.69,9.38
				c-4.8,2.93-9.76,5.25-14.87,6.94l11.07,9.33c5.37-1.77,10.9-4.54,16.56-8.29c3.44-2.28,6.56-4.7,9.37-7.27l10.17,3.24l9.65-11.1
				l-10.16-3.36c1.72-2.74,2.86-5.35,3.36-7.81c0.87-4.23,0.19-7.84-2.06-10.87c-2.25-3.03-5.69-5.36-10.35-6.99
				C165.27,90.73,160.01,90.14,154.96,90.89z"/>
		</g>
	</g>
</g>
</svg>
