<?xml version="1.0" encoding="utf-8"?>
<!-- Generator: Adobe Illustrator 24.0.0, SVG Export Plug-In . SVG Version: 6.00 Build 0)  -->
<svg version="1.1" id="Layer_1" xmlns="http://www.w3.org/2000/svg" xmlns:xlink="http://www.w3.org/1999/xlink" x="0px" y="0px"
	 viewBox="0 0 256 256" style="enable-background:new 0 0 256 256;" xml:space="preserve">
<style type="text/css">
	.st0{fill:#FFBB24;}
	.st1{fill:#8799A0;}
	.st2{fill:#FFFFFF;}
</style>
<g>
	<g>
		<g>
			<path class="st2" d="M175.31,131.08c-2.59-6.11-6.29-11.61-11-16.32c-4.71-4.71-10.21-8.42-16.32-11
				c-6.33-2.68-13.06-4.04-19.99-4.04c-6.93,0-13.65,1.36-19.99,4.04c-6.11,2.59-11.61,6.29-16.32,11
				c-4.71,4.71-8.42,10.21-11,16.32c-2.68,6.33-4.04,13.06-4.04,19.99c0,6.93,1.36,13.65,4.04,19.99c2.59,6.11,6.29,11.61,11,16.32
				c4.71,4.71,10.2,8.42,16.32,11c6.33,2.68,13.06,4.04,19.99,4.04c6.93,0,13.65-1.36,19.99-4.04c6.11-2.59,11.61-6.29,16.32-11
				c4.71-4.71,8.42-10.2,11-16.32c2.68-6.33,4.04-13.06,4.04-19.99C179.35,144.14,177.99,137.41,175.31,131.08z M172.71,151.07
				c0,24.65-20.06,44.71-44.71,44.71s-44.71-20.06-44.71-44.71c0-24.65,20.06-44.71,44.71-44.71S172.71,126.41,172.71,151.07z"/>
		</g>
		<g>
			<path class="st2" d="M128,110.55c-10.82,0-21,4.21-28.65,11.87c-7.65,7.65-11.87,17.83-11.87,28.65s4.21,21,11.87,28.65
				c7.65,7.65,17.83,11.87,28.65,11.87c10.82,0,21-4.21,28.65-11.87c7.65-7.65,11.87-17.83,11.87-28.65s-4.21-21-11.87-28.65
				C149,114.77,138.82,110.55,128,110.55z M128,187.94c-20.33,0-36.88-16.54-36.88-36.88c0-20.33,16.54-36.88,36.88-36.88
				c20.33,0,36.88,16.54,36.88,36.88C164.88,171.4,148.33,187.94,128,187.94z"/>
		</g>
		<g>
			<path class="st2" d="M132.87,163.8c-0.36-0.32-1.39-1.08-3.09-2.29c-1.82-1.31-2.9-2.17-3.27-2.56c-0.27-0.3-0.4-0.61-0.4-0.95
				c0-0.33,0.19-0.64,0.56-0.9c0.37-0.27,0.85-0.4,1.43-0.4c1.2,0,2.38,0.69,3.54,2.06l3.3-2.48c-1.23-1.22-2.38-2.06-3.43-2.52
				c-1.06-0.46-2.17-0.69-3.34-0.69c-0.07,0-0.14,0-0.21,0v-1.99h-2.42v2.4c-0.71,0.25-1.36,0.6-1.94,1.07
				c-1.24,0.99-1.85,2.18-1.85,3.56c0,0.96,0.37,1.92,1.12,2.88c0.74,0.96,2.39,2.33,4.94,4.1c1.34,0.93,2.2,1.62,2.6,2.08
				c0.39,0.45,0.59,0.9,0.59,1.36c0,0.5-0.26,0.94-0.78,1.32c-0.52,0.38-1.16,0.57-1.93,0.57c-1.47,0-2.76-0.88-3.89-2.65
				l-3.74,1.93c0.88,1.49,1.94,2.59,3.18,3.28c1.2,0.68,2.61,1.02,4.22,1.04v2.24h2.42v-2.48c1.12-0.25,2.09-0.71,2.9-1.36
				c1.33-1.07,1.99-2.42,1.99-4.06c0-0.84-0.19-1.62-0.57-2.33C134.41,165.32,133.77,164.58,132.87,163.8z"/>
		</g>
		<g>
			<path class="st2" d="M143.26,137.7l-2.52-2.31l0.35,3.4c0.16,1.56,0.19,5.95-1.57,7.55c-0.61,0.55-1.42,0.71-2.49,0.49
				c-0.98-0.2-1.62-0.54-1.89-1.01c-0.63-1.11,0.25-3.56,1.09-5.93c0.86-2.41,1.84-5.15,1.84-7.8c0-3.61-1.3-7.01-3.67-9.58
				c-2.41-2.61-5.67-4.09-9.19-4.14l-1.98-0.04l0.76,1.83c0.08,0.2,1.94,4.97-1.64,10.71c-4.26,6.83-5.87,10.04-7.09,15.14
				c-0.44-1.85-0.63-4.32,0.12-7.2l0.88-3.39l-2.88,2c-0.14,0.09-3.35,2.36-6.09,6.91c-2.52,4.18-5.11,11.18-3.12,20.77l0.01,0.06
				c1.34,5.28,4.28,9.67,8.48,12.71c4.18,3.02,9.52,4.61,15.45,4.61c5.81,0,11.42-1.8,15.78-5.06c3.39-2.53,5.85-5.8,7.14-9.43
				c0.2-0.54,1.64-4.62,1.51-10.17C152.41,152.41,150.69,144.53,143.26,137.7z M149.34,164.34l-0.06-0.01
				c-0.13,0.87-0.34,1.72-0.62,2.54c-0.05,0.15-0.08,0.23-0.08,0.24l0,0c-2.64,7.44-10.92,12.77-20.48,12.77
				c-10.95,0-18.95-5.73-21.4-15.33c-1.44-6.98-0.51-13.29,2.75-18.77c0.94-1.58,1.95-2.86,2.84-3.84
				c-0.23,5.47,2.19,9.04,2.32,9.22l1.78,2.56l0.56-3.07c1.31-7.15,2.17-9.7,7.6-18.4c2.87-4.6,2.78-8.76,2.36-11.1
				c4.91,0.94,8.55,5.44,8.55,10.95c0,2.2-0.86,4.61-1.68,6.93c-1.09,3.05-2.12,5.94-0.91,8.08c0.65,1.16,1.87,1.93,3.63,2.28
				c2.38,0.48,3.9-0.34,4.76-1.12c1.72-1.56,2.29-4.24,2.44-6.4c3.97,4.52,6.06,9.86,6.23,15.91
				C150.01,160.4,149.69,162.69,149.34,164.34z"/>
		</g>
	</g>
	<path class="st2" d="M247.23,229.66h-5.78v-4.33c0-8.51-6.92-15.43-15.43-15.43h-1.17v-10.61c0-2.44-1.75-4.46-4.06-4.91
		l-1.97-92.44h14.69c3.48,0,6.32-2.84,6.32-6.32V82.91c3.58-2.77,5.89-7.09,5.89-11.95v-5.97c0-3.6-2-6.83-5.21-8.43L128,0.34
		L15.49,56.56c-3.22,1.61-5.21,4.84-5.21,8.43v5.97c0,4.86,2.32,9.18,5.89,11.95v12.71c0,3.49,2.84,6.32,6.32,6.32h14.69
		l-1.97,92.44c-2.31,0.44-4.06,2.47-4.06,4.91v10.61h-1.17c-8.51,0-15.43,6.92-15.43,15.43v4.33H8.77c-3.97,0-7.2,3.23-7.2,7.2v11.6
		c0,3.97,3.23,7.2,7.2,7.2H128h119.23c3.97,0,7.2-3.23,7.2-7.2v-11.6C254.43,232.89,251.2,229.66,247.23,229.66z M18.28,70.96v-5.97
		c0-0.54,0.3-1.03,0.79-1.27L128,9.29l108.93,54.43c0.49,0.24,0.79,0.73,0.79,1.27v5.97c0,3.92-3.19,7.11-7.11,7.11H25.39
		C21.47,78.07,18.28,74.88,18.28,70.96z M24.17,93.93v-7.92c0.4,0.03,0.81,0.06,1.22,0.06h205.22c0.41,0,0.81-0.03,1.22-0.06v7.92
		h-61.54h-27.45H128h-14.84H85.71H24.17z M216.84,202.29v7.61h-23.78v-7.61H216.84z M197.15,194.28l1.92-91.1h11.78l1.94,91.1
		H197.15z M172.4,193.13l-0.41-19.09c-2.09,4-4.71,7.68-7.77,10.94l0.17,8.05h-9.91c-5.33,3.37-11.35,5.75-17.81,6.89v9.97H128
		h-8.67v-9.97c-6.45-1.14-12.47-3.52-17.8-6.89h-9.92l0.17-8.06c-3.06-3.27-5.68-6.95-7.77-10.95l-0.41,19.11
		c-2.31,0.44-4.06,2.47-4.06,4.91v11.85h-8.6v-10.61c0-2.44-1.76-4.47-4.08-4.91l-1.95-92.44h20.62l-0.52,24.33
		c2.26-3.91,5.03-7.48,8.23-10.62l0.29-13.71h11.78l0.1,4.94c2.53-1.3,5.18-2.39,7.94-3.24l-0.04-1.7H121c2.29-0.32,4.63-0.5,7-0.5
		s4.72,0.18,7,0.5h7.66l-0.04,1.69c2.76,0.85,5.41,1.94,7.94,3.24l0.1-4.93h11.78l0.29,13.7c3.2,3.14,5.97,6.71,8.23,10.62
		l-0.52-24.31h20.62l-1.95,92.44c-2.32,0.44-4.08,2.47-4.08,4.91v10.61h-8.6v-11.85C176.46,195.61,174.71,193.58,172.4,193.13z
		 M168.45,201.04v8.85h-23.78v-8.85H168.45z M111.32,201.04v8.85H87.55v-8.85H111.32z M62.94,202.29v7.61H39.16v-7.61H62.94z
		 M43.22,194.28l1.94-91.1h11.78l1.92,91.1H43.22z M22.56,225.33c0-4.09,3.33-7.43,7.43-7.43H128h98.02c4.09,0,7.43,3.33,7.43,7.43
		v4.33H128H22.56V225.33z M246.43,247.65H128H9.57v-9.99h4.98H128h113.45h4.98V247.65z"/>
</g>
</svg>
