<?xml version="1.0" encoding="utf-8"?>
<!-- Generator: Adobe Illustrator 24.0.0, SVG Export Plug-In . SVG Version: 6.00 Build 0)  -->
<svg version="1.1" id="Layer_1" xmlns="http://www.w3.org/2000/svg" xmlns:xlink="http://www.w3.org/1999/xlink" x="0px" y="0px"
	 viewBox="0 0 256 256" style="enable-background:new 0 0 256 256;" xml:space="preserve">
<style type="text/css">
	.st0{fill:#FFBB24;}
	.st1{fill:#8799A0;}
	.st2{fill:#FFFFFF;}
</style>
<g>
	<circle cx="128" cy="128" r="127.64"/>
	<g>
		<g>
			<path class="st0" d="M128,79.59H55.83c-4.32,0-7.82-3.5-7.82-7.82v-4.2c0-1.45,0.82-2.77,2.11-3.41L128,25.26l77.88,38.91
				c1.29,0.65,2.11,1.97,2.11,3.41v4.2c0,4.32-3.5,7.82-7.82,7.82H128"/>
		</g>
		<g>
			<rect x="52.16" y="79.59" class="st1" width="151.46" height="10.35"/>
		</g>
		<g>
			<rect x="171.05" y="161.33" class="st0" width="21.52" height="10.1"/>
		</g>
		<g>
			<rect x="137.33" y="161.65" class="st0" width="21.52" height="10.1"/>
		</g>
		<g>
			<rect x="97.57" y="161.33" class="st0" width="21.52" height="10.1"/>
		</g>
		<g>
			<rect x="63.12" y="161.77" class="st0" width="21.52" height="10.1"/>
		</g>
		<g>
			<path class="st0" d="M204.19,185.56H51.8v-2.27c0-5.24,4.24-9.48,9.48-9.48h133.43c5.24,0,9.48,4.24,9.48,9.48V185.56z"/>
		</g>
		<g>
			<rect x="41.89" y="186.21" class="st0" width="172.22" height="12.66"/>
		</g>
		<g>
			<rect x="175.23" y="91.63" class="st1" width="14.06" height="68.57"/>
		</g>
		<g>
			<rect x="140.69" y="89.94" class="st1" width="15.42" height="70.51"/>
		</g>
		<g>
			<rect x="101.43" y="89.94" class="st1" width="14.84" height="70.26"/>
		</g>
		<g>
			<rect x="66.92" y="90.75" class="st1" width="15.3" height="69.7"/>
		</g>
		<g>
			<path d="M202.21,93.56H128v-5.63h73.02v-9.26h5.63v10.44C206.66,91.57,204.66,93.56,202.21,93.56z"/>
		</g>
		<g>
			<path d="M196.12,172.31h-5.63v-8.16h-16.72v8.16h-5.63v-10.28c0-1.94,1.58-3.52,3.52-3.52h20.95c1.94,0,3.52,1.58,3.52,3.52
				V172.31z"/>
		</g>
		<g>
			<polygon points="176.56,162.03 170.93,161.92 172.47,88.81 191.78,88.81 193.32,161.27 187.69,161.39 186.26,94.44 177.98,94.44 
							"/>
		</g>
		<g>
			<path d="M162.08,171.43h-5.63v-8.16h-16.72v8.16h-5.63v-10.28c0-1.94,1.58-3.52,3.52-3.52h20.95c1.94,0,3.52,1.58,3.52,3.52
				V171.43z"/>
		</g>
		<g>
			<polygon points="142.53,161.16 136.9,161.04 138.44,87.93 157.74,87.93 159.28,160.39 153.66,160.51 152.23,93.56 143.95,93.56 
							"/>
		</g>
		<g>
			<path d="M207.79,189.02H128v-5.63h74.16v-3.04c0-2.88-2.34-5.22-5.22-5.22H128v-5.63h68.94c5.98,0,10.85,4.87,10.85,10.85V189.02
				z"/>
		</g>
		<g>
			<path d="M211.86,201.68H128v-5.63h83.29v-7.03H128v-5.63h83.86c2.79,0,5.06,2.27,5.06,5.06v8.16
				C216.93,199.41,214.65,201.68,211.86,201.68z"/>
		</g>
		<g>
			<path d="M200.17,82.41H55.83c-5.86,0-10.63-4.77-10.63-10.63v-4.2c0-2.53,1.41-4.8,3.67-5.93L128,22.11l79.13,39.54
				c2.26,1.13,3.67,3.4,3.67,5.93v4.2C210.8,77.64,206.03,82.41,200.17,82.41z M128,28.4L51.38,66.68c-0.34,0.17-0.55,0.51-0.55,0.9
				v4.2c0,2.76,2.24,5,5,5h144.34c2.76,0,5-2.24,5-5v-4.2c0-0.38-0.21-0.72-0.55-0.9L128,28.4z"/>
		</g>
		<g>
			<path d="M128,93.56H53.79c-2.45,0-4.45-1.99-4.45-4.45V78.68h5.63v9.26H128V93.56z"/>
		</g>
		<g>
			<path d="M87.87,172.31h-5.63v-8.16H65.51v8.16h-5.63v-10.28c0-1.94,1.58-3.52,3.52-3.52h20.95c1.94,0,3.52,1.58,3.52,3.52V172.31
				z"/>
		</g>
		<g>
			<polygon points="79.44,162.03 78.02,94.44 69.74,94.44 68.31,161.39 62.68,161.27 64.22,88.81 83.53,88.81 85.07,161.92 			"/>
		</g>
		<g>
			<path d="M121.9,171.43h-5.63v-8.16H99.55v8.16h-5.63v-10.28c0-1.94,1.58-3.52,3.52-3.52h20.95c1.94,0,3.52,1.58,3.52,3.52V171.43
				z"/>
		</g>
		<g>
			<polygon points="113.47,161.16 112.05,93.56 103.77,93.56 102.34,160.51 96.72,160.39 98.26,87.93 117.56,87.93 119.1,161.04 			
				"/>
		</g>
		<g>
			<path d="M128,189.02H48.21v-8.68c0-5.98,4.87-10.85,10.85-10.85H128v5.63H59.06c-2.88,0-5.22,2.34-5.22,5.22v3.04H128V189.02z"/>
		</g>
		<g>
			<path d="M128,201.68H44.14c-2.79,0-5.06-2.27-5.06-5.06v-8.16c0-2.79,2.27-5.06,5.06-5.06H128v5.63H44.71v7.03H128V201.68z"/>
		</g>
		<g>
			<g>
				<circle class="st0" cx="128" cy="128.12" r="33.41"/>
			</g>
			<g>
				<path d="M161.27,114.06c-1.82-4.3-4.42-8.16-7.74-11.48c-3.32-3.32-7.18-5.92-11.48-7.74c-4.45-1.88-9.18-2.84-14.06-2.84
					c-4.87,0-9.6,0.96-14.06,2.84c-4.3,1.82-8.16,4.42-11.48,7.74c-3.32,3.32-5.92,7.18-7.74,11.48c-1.88,4.45-2.84,9.18-2.84,14.06
					c0,4.87,0.96,9.6,2.84,14.06c1.82,4.3,4.42,8.16,7.74,11.48c3.32,3.32,7.18,5.92,11.48,7.74c4.45,1.88,9.18,2.84,14.06,2.84
					c4.87,0,9.6-0.96,14.06-2.84c4.3-1.82,8.16-4.42,11.48-7.74c3.32-3.32,5.92-7.18,7.74-11.48c1.88-4.45,2.84-9.18,2.84-14.06
					C164.11,123.24,163.16,118.51,161.27,114.06z M159.45,128.12c0,17.34-14.11,31.45-31.45,31.45s-31.45-14.11-31.45-31.45
					c0-17.34,14.11-31.45,31.45-31.45S159.45,110.78,159.45,128.12z"/>
			</g>
			<g>
				<path d="M128,99.62c-7.61,0-14.77,2.96-20.15,8.35c-5.38,5.38-8.35,12.54-8.35,20.15s2.96,14.77,8.35,20.15
					c5.38,5.38,12.54,8.35,20.15,8.35c7.61,0,14.77-2.96,20.15-8.35c5.38-5.38,8.35-12.54,8.35-20.15s-2.96-14.77-8.35-20.15
					C142.77,102.59,135.61,99.62,128,99.62z M128,154.06c-14.3,0-25.94-11.64-25.94-25.94c0-14.3,11.64-25.94,25.94-25.94
					c14.3,0,25.94,11.64,25.94,25.94C153.94,142.42,142.3,154.06,128,154.06z"/>
			</g>
			<g>
				<path d="M131.43,137.07c-0.25-0.22-0.98-0.76-2.17-1.61c-1.28-0.92-2.04-1.52-2.3-1.8c-0.19-0.21-0.28-0.43-0.28-0.67
					c0-0.24,0.13-0.45,0.39-0.63c0.26-0.19,0.6-0.28,1.01-0.28c0.84,0,1.67,0.48,2.49,1.45l2.32-1.75
					c-0.87-0.86-1.67-1.45-2.41-1.77c-0.74-0.32-1.52-0.49-2.35-0.49c-0.05,0-0.1,0-0.15,0v-1.4h-1.7v1.69
					c-0.5,0.17-0.96,0.42-1.37,0.75c-0.87,0.7-1.3,1.53-1.3,2.51c0,0.67,0.26,1.35,0.78,2.03c0.52,0.68,1.68,1.64,3.47,2.89
					c0.94,0.66,1.55,1.14,1.83,1.46c0.28,0.32,0.41,0.64,0.41,0.95c0,0.35-0.18,0.66-0.55,0.93c-0.37,0.27-0.82,0.4-1.36,0.4
					c-1.03,0-1.94-0.62-2.73-1.86l-2.63,1.36c0.62,1.05,1.36,1.82,2.23,2.31c0.85,0.48,1.83,0.72,2.97,0.73v1.58h1.7v-1.74
					c0.79-0.18,1.47-0.5,2.04-0.96c0.93-0.75,1.4-1.7,1.4-2.85c0-0.59-0.13-1.14-0.4-1.64
					C132.51,138.14,132.06,137.62,131.43,137.07z"/>
			</g>
			<g>
				<path d="M138.73,118.72l-1.77-1.63l0.25,2.39c0.11,1.1,0.13,4.19-1.11,5.31c-0.43,0.39-1,0.5-1.75,0.35
					c-0.69-0.14-1.14-0.38-1.33-0.71c-0.44-0.78,0.17-2.51,0.77-4.17c0.61-1.7,1.29-3.62,1.29-5.49c0-2.54-0.92-4.93-2.58-6.74
					c-1.69-1.84-3.99-2.87-6.46-2.91l-1.4-0.03l0.54,1.29c0.06,0.14,1.37,3.5-1.15,7.53c-3,4.81-4.13,7.06-4.99,10.65
					c-0.31-1.3-0.44-3.04,0.08-5.06l0.62-2.39l-2.02,1.41c-0.1,0.07-2.36,1.66-4.28,4.86c-1.77,2.94-3.59,7.86-2.2,14.61l0.01,0.04
					c0.94,3.71,3.01,6.8,5.97,8.94c2.94,2.12,6.7,3.24,10.86,3.24c4.09,0,8.03-1.26,11.1-3.56c2.38-1.78,4.11-4.08,5.02-6.63
					c0.14-0.38,1.16-3.25,1.06-7.15C145.17,129.06,143.96,123.52,138.73,118.72z M143.01,137.46l-0.04-0.01
					c-0.09,0.61-0.24,1.21-0.44,1.79c-0.04,0.11-0.06,0.16-0.06,0.17l0,0c-1.86,5.24-7.68,8.98-14.4,8.98
					c-7.7,0-13.33-4.03-15.05-10.78c-1.01-4.91-0.36-9.35,1.93-13.2c0.66-1.11,1.37-2.01,2-2.7c-0.16,3.84,1.54,6.36,1.63,6.48
					l1.25,1.8l0.4-2.16c0.92-5.03,1.52-6.82,5.34-12.94c2.02-3.24,1.95-6.16,1.66-7.8c3.46,0.66,6.01,3.82,6.01,7.7
					c0,1.55-0.6,3.24-1.18,4.87c-0.77,2.15-1.49,4.17-0.64,5.68c0.46,0.81,1.32,1.35,2.55,1.61c1.68,0.34,2.75-0.24,3.35-0.79
					c1.21-1.1,1.61-2.98,1.72-4.5c2.79,3.18,4.27,6.93,4.38,11.19C143.48,134.69,143.25,136.29,143.01,137.46z"/>
			</g>
		</g>
	</g>
</g>
</svg>
