<?xml version="1.0" encoding="UTF-8"?>
<svg xmlns="http://www.w3.org/2000/svg" xmlns:xlink="http://www.w3.org/1999/xlink" viewBox="0 0 256 256" width="256px" height="256px">
<g id="surface264637496">
<path style=" stroke:none;fill-rule:nonzero;fill:rgb(100%,100%,100%);fill-opacity:1;" d="M 209.324219 54.277344 C 194.367188 47.414062 178.324219 42.355469 161.558594 39.460938 C 161.253906 39.40625 160.949219 39.546875 160.789062 39.824219 C 158.726562 43.492188 156.441406 48.277344 154.84375 52.042969 C 136.804688 49.34375 118.859375 49.34375 101.195312 52.042969 C 99.59375 48.199219 97.226562 43.492188 95.152344 39.824219 C 94.992188 39.550781 94.6875 39.414062 94.382812 39.460938 C 77.621094 42.347656 61.585938 47.402344 46.617188 54.277344 C 46.492188 54.332031 46.378906 54.425781 46.304688 54.550781 C 15.882812 100 7.546875 144.335938 11.636719 188.117188 C 11.652344 188.332031 11.777344 188.539062 11.941406 188.667969 C 32.011719 203.40625 51.457031 212.355469 70.539062 218.289062 C 70.84375 218.378906 71.167969 218.273438 71.359375 218.015625 C 75.871094 211.851562 79.898438 205.355469 83.347656 198.515625 C 83.550781 198.117188 83.359375 197.644531 82.945312 197.484375 C 76.558594 195.0625 70.484375 192.113281 64.640625 188.757812 C 64.175781 188.484375 64.136719 187.824219 64.566406 187.507812 C 65.796875 186.585938 67.023438 185.625 68.203125 184.660156 C 68.414062 184.484375 68.710938 184.449219 68.960938 184.558594 C 107.367188 202.097656 148.945312 202.097656 186.894531 184.558594 C 187.148438 184.4375 187.441406 184.476562 187.664062 184.652344 C 188.835938 185.621094 190.070312 186.585938 191.308594 187.507812 C 191.734375 187.824219 191.707031 188.484375 191.242188 188.757812 C 185.398438 192.175781 179.316406 195.0625 172.929688 197.472656 C 172.511719 197.632812 172.324219 198.113281 172.527344 198.515625 C 176.054688 205.34375 180.074219 211.839844 184.507812 218.003906 C 184.691406 218.265625 185.023438 218.378906 185.328125 218.28125 C 204.5 212.351562 223.945312 203.402344 244.015625 188.660156 C 244.191406 188.535156 244.304688 188.335938 244.320312 188.121094 C 249.210938 137.503906 236.121094 93.535156 209.625 54.554688 C 209.5625 54.425781 209.449219 54.332031 209.324219 54.277344 Z M 89.082031 161.457031 C 77.519531 161.457031 67.996094 150.84375 67.996094 137.800781 C 67.996094 124.761719 77.339844 114.148438 89.082031 114.148438 C 100.921875 114.148438 110.355469 124.859375 110.171875 137.800781 C 110.175781 150.835938 100.832031 161.457031 89.082031 161.457031 Z M 167.0625 161.457031 C 155.5 161.457031 145.972656 150.84375 145.972656 137.800781 C 145.972656 124.761719 155.316406 114.148438 167.0625 114.148438 C 178.902344 114.148438 188.335938 124.859375 188.148438 137.800781 C 188.148438 150.835938 178.902344 161.457031 167.0625 161.457031 Z M 167.0625 161.457031 "/>
</g>
</svg>
