<?xml version="1.0" encoding="utf-8"?>
<!-- Generator: Adobe Illustrator 24.0.0, SVG Export Plug-In . SVG Version: 6.00 Build 0)  -->
<svg version="1.1" id="Layer_1" xmlns="http://www.w3.org/2000/svg" xmlns:xlink="http://www.w3.org/1999/xlink" x="0px" y="0px"
	 viewBox="0 0 256 256" style="enable-background:new 0 0 256 256;" xml:space="preserve">
<style type="text/css">
	.st0{fill:#FFFFFF;}
</style>
<g>
	<path class="st0" d="M222.11,97.05v-18.4c0-10.33-3.08-20.13-8.92-28.33c-6.43-9.04-15.3-14.85-25.67-16.81l-13.21-2.49l4.02,12.83
		c2.36,7.53,4.61,21.91,0.59,28.43c-1.17,1.9-2.77,2.89-5.35,3.31c-5.63,0.91-9.48-0.21-11.42-3.35
		c-3.18-5.13-1.51-14.39,3.96-22.03c7.95-11.09,8.97-24.04,2.72-34.64c-6.2-10.51-18.3-16.08-31.57-14.52l-10.06,1.2l3.42,9.54
		c1.55,4.32,3.88,15.33,0.7,19.93c-0.43,0.62-1.73,2.51-6.98,2.6c-0.14,0-0.24,0-0.29-0.01c0,0-0.01-0.01-0.01-0.01
		c-1.23-1.32-2.07-6.36-1.72-10.37l1.18-13.1l-12.21,4.9c-0.93,0.37-22.9,9.39-26.74,28.52c-1.82,9.09-0.63,15.86,0.33,21.3
		c0.82,4.68,1.07,6.69,0.27,8.61c-0.48,0.33-2.29,0.69-4.43-0.25c-5.04-2.21-8.1-9.91-1.59-24.87l6.05-13.9L70.28,37.9
		c-0.95,0.18-23.4,4.59-32.87,27.98c-2.34,5.79-3.53,12.03-3.53,18.53v12.63l-22.45,22.08v115.61c0,11.29,9.18,20.47,20.47,20.47
		h192.19c11.29,0,20.47-9.18,20.47-20.47V119.13L222.11,97.05z M58.5,146.4c12.04,5.95,21.65,10.67,28.58,14.03
		c2.26,1.1,4.25,2.06,5.95,2.87l-68.16,62.87v-96.44C32.78,133.66,45.68,140.07,58.5,146.4z M29.64,120.1l6.94-6.84v10.28
		C34.22,122.38,31.9,121.23,29.64,120.1z M75.33,86.21c3.99,1.76,8.37,2.2,12.33,1.26c4.47-1.07,8.02-3.88,9.72-7.71
		c2.62-5.9,1.67-11.31,0.75-16.54c-0.84-4.78-1.71-9.72-0.39-16.33c1.34-6.68,6.89-11.69,11.57-14.84c0.62,3.91,1.99,8.26,4.9,11.39
		c2.69,2.89,6.27,4.38,10.38,4.31c10.04-0.17,15.22-4.68,17.8-8.42c5.15-7.49,4.31-17.87,2.87-24.82c5.19,0.85,9.47,3.6,12,7.89
		c3.47,5.88,2.7,13.35-2.06,19.99c-8.77,12.24-10.57,27.08-4.46,36.93c4.86,7.84,13.97,11.32,24.99,9.53
		c6.37-1.03,11.43-4.33,14.64-9.53c3.75-6.1,4.99-14.69,3.68-25.55c-0.16-1.36-0.36-2.67-0.57-3.9c3.33,1.97,6.27,4.72,8.77,8.24
		c4.21,5.92,6.43,13.02,6.43,20.55v50.24c-22.79,11.29-46.16,22.8-54.2,26.57l-2.34-2.15c-6.59-6.08-15.16-9.43-24.12-9.44
		c-0.01,0-0.02,0-0.03,0c-8.97,0.01-17.53,3.36-24.12,9.44l-2.34,2.15c-8.05-3.77-31.42-15.28-54.22-26.57V84.42
		c0-4.77,0.86-9.31,2.55-13.49c3.21-7.92,8.48-12.78,13.15-15.7C59.37,72.23,66.68,82.4,75.33,86.21z M157.04,157.82L157.04,157.82
		L157.04,157.82C157.04,157.82,157.04,157.82,157.04,157.82z M98.98,157.81L98.98,157.81L98.98,157.81
		C98.97,157.82,98.98,157.82,98.98,157.81z M111.16,161.2c4.6-4.25,10.59-6.59,16.85-6.59c6.26,0,12.25,2.34,16.85,6.59l4.9,4.52v0
		c0,0,0,0,0,0l79.73,73.53c-1.29,1.54-3.23,2.52-5.39,2.52h-96.09h-0.01H31.91c-2.16,0-4.09-0.98-5.39-2.51L111.16,161.2z
		 M231.13,226.16l-68.15-62.85c1.7-0.81,3.68-1.77,5.95-2.87c6.92-3.36,16.54-8.08,28.58-14.03c12.81-6.33,25.71-12.73,33.62-16.66
		V226.16z M219.43,123.56v-10.29l6.94,6.84C224.1,121.23,221.78,122.39,219.43,123.56z"/>
	<path class="st0" d="M125.75,136.91c16.27,2.2,25.2-9.19,25.2-9.19l-3.7-3.67c-3.5,4.07-16.44,11.22-27.86,5.26
		c-11.42-5.96-10.89-20.81-5.18-29.73c5.71-8.92,19.68-12.6,27.16-6.56c7.48,6.04,7.24,13.76,4.15,20.46s-9.7,6.79-8.91,1.38
		c0.57-3.84,4.82-17.7,4.82-17.7l-5.45-0.33c-0.44,1.32-0.85,2.62-1.25,3.91c-2.4-4.4-7.39-6.28-13.19-2.49
		c-7.4,4.84-9.4,18.77-3.28,23.66c5.17,4.13,11.32,1.06,13.1,0.01c0.25,0.62,0.6,1.08,1.08,1.35c3.41,1.9,17.38,1.35,19.49-14.3
		c1.97-14.67-7.36-25.29-23.61-24.28c-17.36,1.09-24.02,19.06-23.89,28.57C104.55,122.85,108.12,134.53,125.75,136.91z
		 M131.23,114.82c-2.54,2.81-8.2,5.23-10.01,2.21c-2.06-3.44,0.4-14.77,5.68-14.62c3.74,0.11,5.21,3.61,5.75,5.63
		C132.02,110.51,131.53,112.8,131.23,114.82z"/>
</g>
</svg>
