<?xml version="1.0" encoding="utf-8"?>
<!-- Generator: Adobe Illustrator 24.0.0, SVG Export Plug-In . SVG Version: 6.00 Build 0)  -->
<svg version="1.1" id="Layer_1" xmlns="http://www.w3.org/2000/svg" xmlns:xlink="http://www.w3.org/1999/xlink" x="0px" y="0px"
	 viewBox="0 0 256 256" style="enable-background:new 0 0 256 256;" xml:space="preserve">
<style type="text/css">
	.st0{fill:#FFFFFF;}
</style>
<g>
	<path d="M245.26,78.46c-6.41-15.16-15.59-28.77-27.27-40.45c-11.68-11.68-25.29-20.86-40.45-27.27c-15.7-6.64-32.36-10-49.54-10
		s-33.84,3.37-49.54,10C63.3,17.15,49.69,26.32,38.01,38.01C26.32,49.69,17.15,63.3,10.74,78.46c-6.64,15.7-10,32.36-10,49.54
		c0,17.18,3.37,33.84,10,49.54c6.41,15.16,15.59,28.77,27.27,40.45c11.68,11.68,25.29,20.86,40.45,27.27
		c15.7,6.64,32.36,10,49.54,10c17.18,0,33.84-3.37,49.54-10c15.16-6.41,28.76-15.59,40.45-27.27
		c11.68-11.68,20.86-25.29,27.27-40.45c6.64-15.7,10-32.36,10-49.54C255.27,110.82,251.9,94.16,245.26,78.46z M238.82,128
		c0,61.11-49.72,110.82-110.82,110.82S17.18,189.11,17.18,128C17.18,66.89,66.89,17.18,128,17.18S238.82,66.89,238.82,128z"/>
	<path d="M128,27.58c-26.82,0-52.04,10.45-71.01,29.41C38.02,75.96,27.58,101.18,27.58,128s10.45,52.04,29.41,71.01
		c18.97,18.97,44.19,29.41,71.01,29.41c26.82,0,52.04-10.45,71.01-29.41c18.97-18.97,29.41-44.19,29.41-71.01
		s-10.45-52.04-29.41-71.01C180.04,38.02,154.82,27.58,128,27.58z M128,219.41c-50.4,0-91.41-41-91.41-91.41
		c0-50.4,41-91.41,91.41-91.41c50.4,0,91.41,41,91.41,91.41C219.41,178.4,178.4,219.41,128,219.41z"/>
	<path d="M140.07,159.56c-0.9-0.78-3.45-2.68-7.66-5.68c-4.5-3.25-7.2-5.37-8.09-6.36c-0.66-0.74-0.99-1.52-0.99-2.35
		c0-0.83,0.46-1.57,1.38-2.24c0.92-0.66,2.11-0.99,3.55-0.99c2.97,0,5.9,1.7,8.77,5.11l8.17-6.15c-3.05-3.03-5.89-5.11-8.5-6.26
		c-2.62-1.14-5.37-1.72-8.27-1.72c-0.18,0-0.35,0.01-0.53,0.01V128h-6v5.95c-1.76,0.61-3.37,1.49-4.81,2.65
		c-3.06,2.46-4.6,5.4-4.6,8.83c0,2.38,0.92,4.76,2.76,7.15c1.84,2.39,5.92,5.78,12.24,10.17c3.32,2.31,5.46,4.02,6.44,5.15
		c0.97,1.12,1.46,2.24,1.46,3.36c0,1.23-0.64,2.32-1.93,3.26c-1.29,0.94-2.88,1.41-4.78,1.41c-3.63,0-6.84-2.19-9.63-6.56
		l-9.28,4.78c2.18,3.7,4.81,6.41,7.87,8.14c2.98,1.68,6.47,2.54,10.45,2.59v5.55h6v-6.14c2.78-0.63,5.18-1.75,7.2-3.38
		c3.29-2.65,4.93-6,4.93-10.06c0-2.09-0.47-4.01-1.4-5.77C143.89,163.33,142.31,161.48,140.07,159.56z"/>
	<path d="M165.81,94.88l-6.25-5.73l0.87,8.44c0.4,3.86,0.47,14.76-3.9,18.72c-1.5,1.36-3.52,1.76-6.18,1.22
		c-2.44-0.5-4.01-1.34-4.67-2.51c-1.56-2.76,0.61-8.83,2.7-14.7c2.13-5.98,4.55-12.76,4.55-19.34c0-8.95-3.23-17.38-9.1-23.75
		c-5.97-6.48-14.06-10.13-22.77-10.27l-4.92-0.1l1.89,4.54c0.2,0.5,4.81,12.33-4.05,26.54c-10.57,16.94-14.55,24.89-17.57,37.53
		c-1.09-4.59-1.55-10.7,0.3-17.84l2.18-8.41l-7.13,4.96c-0.34,0.23-8.3,5.85-15.09,17.13c-6.24,10.37-12.65,27.72-7.74,51.47
		l0.03,0.14c3.32,13.08,10.6,23.97,21.03,31.49c10.37,7.48,23.61,11.43,38.28,11.43c14.41,0,28.3-4.45,39.12-12.54
		c8.4-6.28,14.5-14.38,17.69-23.36c0.5-1.35,4.08-11.45,3.74-25.21C188.5,131.33,184.24,111.8,165.81,94.88z M180.9,160.9
		l-0.14-0.02c-0.33,2.15-0.85,4.26-1.54,6.29c-0.13,0.37-0.2,0.57-0.21,0.58l0,0c-6.55,18.45-27.07,31.64-50.76,31.64
		c-27.15,0-46.97-14.2-53.05-38c-3.56-17.29-1.27-32.94,6.82-46.52c2.33-3.91,4.83-7.08,7.04-9.51c-0.58,13.55,5.43,22.4,5.74,22.84
		l4.42,6.36l1.4-7.61c3.25-17.72,5.37-24.05,18.83-45.62c7.11-11.4,6.88-21.7,5.86-27.51c12.18,2.33,21.19,13.48,21.19,27.13
		c0,5.46-2.12,11.42-4.18,17.17c-2.7,7.57-5.25,14.71-2.24,20.03c1.62,2.87,4.65,4.77,9,5.66c5.91,1.2,9.67-0.84,11.79-2.77
		c4.26-3.87,5.67-10.5,6.06-15.87c9.84,11.2,15.03,24.43,15.45,39.44C182.56,151.15,181.76,156.81,180.9,160.9z"/>
</g>
</svg>
