<?xml version="1.0" encoding="utf-8"?>
<!-- Generator: Adobe Illustrator 24.0.0, SVG Export Plug-In . SVG Version: 6.00 Build 0)  -->
<svg version="1.1" id="Layer_1" xmlns="http://www.w3.org/2000/svg" xmlns:xlink="http://www.w3.org/1999/xlink" x="0px" y="0px"
	 viewBox="0 0 256 256" style="enable-background:new 0 0 256 256;" xml:space="preserve">
<style type="text/css">
	.st0{fill:#FFFFFF;}
</style>
<path class="st0" d="M245.63,78.31c-6.43-15.2-15.63-28.85-27.36-40.58c-11.72-11.72-25.37-20.93-40.58-27.36
	C161.95,3.72,145.23,0.34,128,0.34S94.05,3.72,78.31,10.37C63.1,16.8,49.45,26.01,37.73,37.73C26.01,49.45,16.8,63.1,10.37,78.31
	C3.72,94.05,0.34,110.77,0.34,128c0,17.23,3.38,33.95,10.04,49.69c6.43,15.2,15.63,28.85,27.36,40.58
	c11.72,11.72,25.37,20.92,40.58,27.36c15.74,6.66,32.46,10.04,49.69,10.04s33.95-3.38,49.69-10.04
	c15.2-6.43,28.85-15.63,40.58-27.36c11.72-11.72,20.92-25.37,27.36-40.58c6.66-15.74,10.04-32.46,10.04-49.69
	C255.66,110.77,252.28,94.05,245.63,78.31z M232.12,166.65c-9.11,6.36-20.19,11.75-32.7,16c3.41-15.34,5.39-31.94,5.74-49.12h33.76
	C238.35,145.13,235.99,156.25,232.12,166.65z M17.08,133.53h33.76c0.36,17.41,2.38,34.22,5.87,49.73
	c-12.19-3.98-23.1-9.02-32.2-14.97C20.26,157.43,17.68,145.74,17.08,133.53z M24.51,87.7c9.12-5.95,20.04-11,32.24-14.98
	c-3.51,15.55-5.55,32.38-5.91,49.75H17.08C17.68,110.26,20.26,98.57,24.51,87.7z M133.53,62.35c19.07,0.47,37.29,3,53.64,7.31
	c4.12,16.2,6.52,34.15,6.91,52.81h-60.55V62.35z M133.53,51.28v-34.2c12.11,0.6,23.72,3.15,34.52,7.34
	c6.2,9.26,11.44,20.45,15.56,33.01C168.03,53.81,151.1,51.7,133.53,51.28z M122.47,51.24c-17.43,0.3-34.32,2.29-49.95,5.77
	c4.1-12.39,9.29-23.44,15.43-32.59c10.8-4.19,22.41-6.74,34.52-7.34V51.24z M122.47,62.31v60.16H61.91
	c0.4-18.84,2.84-36.95,7.03-53.27C85.36,65.04,103.55,62.64,122.47,62.31z M61.91,133.53h60.56v60.16
	c-18.93-0.34-37.13-2.73-53.56-6.89C64.73,170.52,62.31,152.43,61.91,133.53z M122.47,204.76v34.16
	c-12.12-0.6-23.74-3.15-34.54-7.35c-6.15-9.16-11.35-20.2-15.45-32.59C88.11,202.46,105.02,204.46,122.47,204.76z M133.53,204.72
	c17.58-0.42,34.53-2.54,50.14-6.16c-4.12,12.56-9.37,23.75-15.59,33.01c-10.8,4.2-22.42,6.75-34.54,7.35V204.72z M133.53,193.65
	v-60.12h60.56c-0.39,18.72-2.78,36.64-6.88,52.8C170.85,190.65,152.61,193.18,133.53,193.65z M205.16,122.47
	c-0.35-17.14-2.34-33.75-5.77-49.13c12.52,4.25,23.61,9.64,32.73,16.01c3.87,10.4,6.23,21.53,6.8,33.12H205.16z M223.56,71.47
	c-8.29-4.18-17.49-7.77-27.39-10.73c-2.86-9.94-6.37-19.21-10.44-27.59C201.25,42.64,214.27,55.82,223.56,71.47z M70.27,33.16
	c-4,8.23-7.45,17.31-10.29,27.04c-9.62,2.77-18.63,6.13-26.8,10.03C42.42,55.13,55.16,42.39,70.27,33.16z M33.18,185.77
	c8.16,3.9,17.15,7.26,26.76,10.02c2.83,9.73,6.28,18.8,10.28,27.03C55.13,213.58,42.41,200.86,33.18,185.77z M185.78,222.81
	c4.08-8.38,7.58-17.64,10.45-27.57c9.87-2.95,19.06-6.54,27.34-10.71C214.28,200.16,201.28,213.33,185.78,222.81z"/>
</svg>
