<?xml version="1.0" encoding="utf-8"?>
<!-- Generator: Adobe Illustrator 24.0.0, SVG Export Plug-In . SVG Version: 6.00 Build 0)  -->
<svg version="1.1" id="Layer_1" xmlns="http://www.w3.org/2000/svg" xmlns:xlink="http://www.w3.org/1999/xlink" x="0px" y="0px"
	 viewBox="0 0 256 256" style="enable-background:new 0 0 256 256;" xml:space="preserve">
<style type="text/css">
	.st0{fill:#FFFFFF;}
</style>
<circle cx="128" cy="128" r="127.45"/>
<g>
	<path class="st0" d="M192.77,96.24V83.58c0-7.11-2.12-13.85-6.14-19.5c-4.42-6.22-10.53-10.22-17.67-11.57l-9.09-1.71l2.77,8.83
		c1.63,5.18,3.17,15.08,0.4,19.57c-0.81,1.31-1.91,1.99-3.68,2.28c-3.88,0.63-6.52-0.15-7.86-2.3c-2.19-3.53-1.04-9.91,2.72-15.16
		c5.47-7.63,6.17-16.55,1.87-23.84c-4.27-7.24-12.59-11.06-21.73-9.99L127.45,31l2.36,6.56c1.07,2.97,2.67,10.55,0.48,13.71
		c-0.3,0.43-1.19,1.73-4.8,1.79c-0.1,0-0.16,0-0.2-0.01c0,0,0,0-0.01-0.01c-0.85-0.91-1.42-4.38-1.18-7.13l0.82-9.02l-8.4,3.37
		c-0.64,0.26-15.76,6.46-18.4,19.63c-1.25,6.26-0.43,10.92,0.23,14.66c0.57,3.22,0.74,4.6,0.18,5.92c-0.33,0.23-1.58,0.48-3.05-0.17
		c-3.47-1.52-5.57-6.82-1.1-17.11l4.16-9.57l-10.26,1.9c-0.65,0.12-16.1,3.16-22.62,19.26c-1.61,3.99-2.43,8.28-2.43,12.75v8.69
		l-15.45,15.19v79.56c0,7.77,6.32,14.09,14.09,14.09h132.26c7.77,0,14.09-6.32,14.09-14.09v-79.56L192.77,96.24z M80.17,130.2
		c8.28,4.09,14.9,7.34,19.67,9.65c1.56,0.76,2.93,1.42,4.09,1.98L57.02,185.1v-66.37C62.47,121.43,71.35,125.84,80.17,130.2z
		 M60.31,112.1l4.77-4.71v7.08C63.46,113.67,61.87,112.88,60.31,112.1z M91.75,88.78c2.75,1.21,5.76,1.52,8.48,0.87
		c3.08-0.73,5.52-2.67,6.69-5.31c1.81-4.06,1.15-7.78,0.51-11.38c-0.58-3.29-1.18-6.69-0.27-11.24c0.92-4.59,4.74-8.05,7.97-10.21
		c0.43,2.69,1.37,5.68,3.38,7.84c1.85,1.99,4.32,3.02,7.15,2.96c6.91-0.12,10.48-3.22,12.25-5.8c3.55-5.15,2.96-12.3,1.97-17.08
		c3.57,0.59,6.52,2.48,8.26,5.43c2.39,4.04,1.86,9.19-1.42,13.76c-6.04,8.42-7.27,18.63-3.07,25.41c3.35,5.4,9.61,7.79,17.2,6.56
		c4.39-0.71,7.87-2.98,10.07-6.56c2.58-4.19,3.44-10.11,2.53-17.58c-0.11-0.94-0.25-1.84-0.39-2.69c2.29,1.36,4.31,3.25,6.03,5.67
		c2.9,4.07,4.43,8.96,4.43,14.14v34.57c-15.68,7.77-31.76,15.69-37.3,18.28l-1.61-1.48c-4.54-4.18-10.43-6.49-16.6-6.49
		c-0.01,0-0.01,0-0.02,0c-6.17,0-12.06,2.31-16.6,6.49l-1.61,1.48c-5.54-2.59-21.62-10.51-37.31-18.29v-30.6
		c0-3.28,0.59-6.41,1.76-9.29c2.21-5.45,5.83-8.8,9.05-10.81C80.77,79.16,85.8,86.16,91.75,88.78z M147.99,138.06L147.99,138.06
		L147.99,138.06C147.98,138.06,147.99,138.06,147.99,138.06z M108.03,138.05L108.03,138.05L108.03,138.05
		C108.02,138.06,108.03,138.06,108.03,138.05z M116.41,140.38c3.17-2.92,7.29-4.53,11.6-4.53c4.31,0,8.43,1.61,11.6,4.53l3.37,3.11
		v0c0,0,0,0,0,0l54.87,50.6c-0.89,1.06-2.22,1.73-3.71,1.73H128H128H61.87c-1.49,0-2.82-0.67-3.71-1.73L116.41,140.38z
		 M198.98,185.09l-46.9-43.25c1.17-0.56,2.54-1.22,4.09-1.98c4.76-2.31,11.38-5.56,19.67-9.65c8.82-4.36,17.69-8.76,23.14-11.47
		V185.09z M190.92,114.48v-7.08l4.78,4.71C194.14,112.88,192.54,113.67,190.92,114.48z"/>
	<path class="st0" d="M126.45,123.67c11.2,1.51,17.34-6.32,17.34-6.32l-2.55-2.53c-2.41,2.8-11.32,7.72-19.17,3.62
		c-7.86-4.1-7.5-14.32-3.57-20.46c3.93-6.14,13.55-8.67,18.69-4.52c5.15,4.15,4.98,9.47,2.86,14.08c-2.12,4.61-6.68,4.67-6.13,0.95
		c0.39-2.64,3.31-12.18,3.31-12.18l-3.75-0.23c-0.3,0.91-0.59,1.81-0.86,2.69c-1.65-3.03-5.09-4.32-9.08-1.71
		c-5.09,3.33-6.47,12.92-2.26,16.29c3.56,2.84,7.79,0.73,9.01,0.01c0.17,0.43,0.42,0.75,0.74,0.93c2.35,1.31,11.96,0.93,13.41-9.84
		c1.36-10.09-5.07-17.41-16.25-16.71c-11.95,0.75-16.53,13.12-16.44,19.66C111.86,113.99,114.32,122.03,126.45,123.67z
		 M130.22,108.47c-1.75,1.93-5.64,3.6-6.89,1.52c-1.42-2.37,0.28-10.17,3.91-10.06c2.58,0.07,3.59,2.48,3.96,3.87
		C130.77,105.5,130.43,107.08,130.22,108.47z"/>
</g>
</svg>
