<?xml version="1.0" encoding="utf-8"?>
<!-- Generator: Adobe Illustrator 24.0.0, SVG Export Plug-In . SVG Version: 6.00 Build 0)  -->
<svg version="1.1" id="Layer_1" xmlns="http://www.w3.org/2000/svg" xmlns:xlink="http://www.w3.org/1999/xlink" x="0px" y="0px"
	 viewBox="0 0 256 256" style="enable-background:new 0 0 256 256;" xml:space="preserve">
<style type="text/css">
	.st0{fill:#FFFFFF;}
</style>
<circle cx="128" cy="128" r="127.45"/>
<g>
	<path class="st0" d="M218.14,89.92c-4.93-11.65-11.98-22.11-20.96-31.09c-8.98-8.98-19.44-16.03-31.09-20.96
		c-12.07-5.1-24.88-7.69-38.08-7.69s-26.02,2.59-38.08,7.69c-11.65,4.93-22.11,11.98-31.09,20.96
		c-8.98,8.98-16.04,19.44-20.96,31.09c-5.1,12.07-7.69,24.88-7.69,38.08c0,13.2,2.59,26.02,7.69,38.08
		c4.93,11.65,11.98,22.11,20.96,31.09c8.98,8.98,19.44,16.03,31.09,20.96c12.07,5.1,24.88,7.69,38.08,7.69
		c13.2,0,26.02-2.59,38.08-7.69c11.65-4.93,22.11-11.98,31.09-20.96c8.98-8.98,16.03-19.44,20.96-31.09
		c5.1-12.07,7.69-24.88,7.69-38.08C225.83,114.8,223.24,101.98,218.14,89.92z M213.19,128c0,46.97-38.22,85.19-85.19,85.19
		S42.81,174.97,42.81,128c0-46.97,38.22-85.19,85.19-85.19S213.19,81.03,213.19,128z"/>
	<path class="st0" d="M128,50.8c-20.62,0-40,8.03-54.59,22.61C58.83,87.99,50.8,107.38,50.8,128s8.03,40,22.61,54.59
		C88,197.17,107.38,205.2,128,205.2c20.62,0,40-8.03,54.59-22.61C197.17,168,205.2,148.62,205.2,128s-8.03-40-22.61-54.59
		C168,58.83,148.62,50.8,128,50.8z M128,198.26c-38.74,0-70.26-31.52-70.26-70.26c0-38.74,31.52-70.26,70.26-70.26
		c38.74,0,70.26,31.52,70.26,70.26C198.26,166.74,166.74,198.26,128,198.26z"/>
	<path class="st0" d="M137.28,152.26c-0.69-0.6-2.65-2.06-5.89-4.37c-3.46-2.5-5.53-4.13-6.22-4.89c-0.51-0.57-0.76-1.17-0.76-1.81
		c0-0.64,0.35-1.21,1.06-1.72c0.71-0.51,1.62-0.76,2.73-0.76c2.29,0,4.53,1.31,6.74,3.93l6.28-4.73c-2.35-2.33-4.53-3.93-6.54-4.81
		c-2.01-0.88-4.13-1.32-6.36-1.32c-0.14,0-0.27,0-0.41,0.01V128h-4.61v4.58c-1.36,0.47-2.59,1.15-3.7,2.04
		c-2.36,1.89-3.53,4.15-3.53,6.79c0,1.83,0.71,3.66,2.12,5.49c1.42,1.84,4.55,4.44,9.41,7.82c2.55,1.78,4.2,3.09,4.95,3.96
		c0.75,0.86,1.12,1.72,1.12,2.59c0,0.95-0.5,1.78-1.49,2.51c-0.99,0.72-2.22,1.09-3.67,1.09c-2.79,0-5.26-1.68-7.4-5.04l-7.13,3.67
		c1.68,2.84,3.7,4.93,6.05,6.26c2.29,1.29,4.97,1.95,8.04,1.99v4.27h4.61v-4.72c2.13-0.48,3.98-1.35,5.53-2.6
		c2.53-2.03,3.79-4.61,3.79-7.73c0-1.6-0.36-3.08-1.08-4.43C140.22,155.16,139,153.74,137.28,152.26z"/>
	<path class="st0" d="M157.07,102.54l-4.8-4.41l0.67,6.49c0.3,2.97,0.36,11.34-3,14.39c-1.15,1.05-2.71,1.35-4.75,0.94
		c-1.88-0.38-3.09-1.03-3.59-1.93c-1.2-2.12,0.47-6.79,2.08-11.3c1.64-4.6,3.5-9.81,3.5-14.86c0-6.88-2.48-13.36-6.99-18.25
		c-4.59-4.98-10.81-7.78-17.5-7.89l-3.78-0.07l1.45,3.49c0.15,0.38,3.7,9.48-3.12,20.4c-8.12,13.02-11.18,19.13-13.5,28.85
		c-0.84-3.53-1.19-8.22,0.23-13.71l1.67-6.46l-5.48,3.81c-0.26,0.18-6.38,4.49-11.6,13.17c-4.8,7.97-9.73,21.31-5.95,39.57
		l0.03,0.11c2.56,10.06,8.15,18.43,16.16,24.21c7.97,5.75,18.15,8.79,29.43,8.79c11.08,0,21.76-3.42,30.07-9.64
		c6.46-4.83,11.14-11.05,13.6-17.96c0.39-1.04,3.13-8.8,2.88-19.38C174.5,130.56,171.23,115.55,157.07,102.54z M168.66,153.29
		l-0.11-0.02c-0.26,1.66-0.65,3.27-1.18,4.84c-0.1,0.28-0.15,0.44-0.16,0.45l0,0c-5.03,14.18-20.81,24.32-39.02,24.32
		c-20.87,0-36.11-10.92-40.78-29.21c-2.74-13.29-0.98-25.32,5.24-35.76c1.79-3.01,3.71-5.44,5.41-7.31
		c-0.45,10.41,4.17,17.22,4.41,17.56l3.39,4.89l1.07-5.85c2.5-13.62,4.13-18.49,14.47-35.07c5.47-8.76,5.29-16.68,4.5-21.14
		c9.36,1.79,16.29,10.36,16.29,20.85c0,4.2-1.63,8.78-3.21,13.2c-2.07,5.82-4.03,11.31-1.73,15.4c1.24,2.2,3.57,3.67,6.92,4.35
		c4.54,0.92,7.44-0.65,9.07-2.13c3.27-2.97,4.36-8.07,4.66-12.2c7.56,8.61,11.55,18.78,11.88,30.32
		C169.94,145.79,169.33,150.15,168.66,153.29z"/>
</g>
</svg>
