<?xml version="1.0" encoding="utf-8"?>
<!-- Generator: Adobe Illustrator 24.0.0, SVG Export Plug-In . SVG Version: 6.00 Build 0)  -->
<svg version="1.1" id="Layer_1" xmlns="http://www.w3.org/2000/svg" xmlns:xlink="http://www.w3.org/1999/xlink" x="0px" y="0px"
	 viewBox="0 0 256 256" style="enable-background:new 0 0 256 256;" xml:space="preserve">
<style type="text/css">
	.st0{fill:#FFFFFF;}
</style>
<circle class="st0" cx="128" cy="128" r="127.45"/>
<path d="M214.89,91.29c-4.75-11.23-11.55-21.31-20.21-29.97c-8.66-8.66-18.74-15.46-29.97-20.21c-11.63-4.92-23.98-7.41-36.71-7.41
	s-25.08,2.49-36.71,7.41c-11.23,4.75-21.31,11.55-29.97,20.21c-8.66,8.66-15.46,18.74-20.21,29.97
	c-4.92,11.63-7.41,23.98-7.41,36.71c0,12.73,2.49,25.08,7.41,36.71c4.75,11.23,11.55,21.31,20.21,29.97
	c8.66,8.66,18.74,15.46,29.97,20.21c11.63,4.92,23.98,7.41,36.71,7.41s25.08-2.49,36.71-7.41c11.23-4.75,21.31-11.55,29.97-20.21
	c8.66-8.66,15.46-18.74,20.21-29.97c4.92-11.63,7.41-23.98,7.41-36.71C222.3,115.27,219.81,102.92,214.89,91.29z M204.91,156.55
	c-6.73,4.7-14.91,8.68-24.15,11.82c2.52-11.33,3.98-23.59,4.24-36.28h24.94C209.51,140.65,207.77,148.87,204.91,156.55z
	 M46.07,132.09H71c0.26,12.86,1.76,25.28,4.34,36.74c-9-2.94-17.06-6.66-23.79-11.06C48.42,149.74,46.51,141.1,46.07,132.09z
	 M51.56,98.23c6.73-4.4,14.8-8.12,23.82-11.07c-2.6,11.49-4.1,23.92-4.37,36.75H46.07C46.51,114.9,48.42,106.26,51.56,98.23z
	 M132.09,79.51c14.08,0.35,27.54,2.21,39.62,5.4c3.04,11.97,4.81,25.22,5.11,39.01h-44.73V79.51z M132.09,71.33V46.07
	c8.95,0.44,17.52,2.33,25.5,5.42c4.58,6.84,8.45,15.11,11.5,24.38C157.57,73.2,145.06,71.64,132.09,71.33z M123.91,71.3
	c-12.87,0.22-25.35,1.69-36.9,4.26c3.03-9.15,6.86-17.31,11.4-24.07c7.98-3.09,16.55-4.98,25.5-5.42V71.3z M123.91,79.48v44.44
	H79.18c0.3-13.92,2.1-27.29,5.2-39.35C96.5,81.49,109.94,79.72,123.91,79.48z M79.18,132.09h44.73v44.44
	c-13.98-0.25-27.43-2.02-39.56-5.09C81.27,159.41,79.48,146.05,79.18,132.09z M123.91,184.7v25.23c-8.95-0.44-17.54-2.33-25.52-5.43
	c-4.55-6.76-8.39-14.92-11.41-24.08C98.53,183,111.03,184.48,123.91,184.7z M132.09,184.67c12.99-0.31,25.51-1.87,37.03-4.55
	c-3.04,9.28-6.92,17.54-11.52,24.38c-7.98,3.1-16.56,4.99-25.52,5.43V184.67z M132.09,176.49v-44.41h44.73
	c-0.29,13.83-2.05,27.06-5.08,39C159.65,174.28,146.18,176.15,132.09,176.49z M184.99,123.91c-0.26-12.66-1.73-24.93-4.26-36.29
	c9.25,3.14,17.44,7.12,24.18,11.83c2.86,7.68,4.6,15.9,5.03,24.46H184.99z M198.59,86.24c-6.13-3.08-12.92-5.74-20.23-7.92
	c-2.12-7.34-4.7-14.19-7.71-20.38C182.11,64.95,191.72,74.69,198.59,86.24z M85.36,57.94c-2.96,6.08-5.5,12.79-7.6,19.98
	c-7.11,2.04-13.76,4.53-19.8,7.41C64.78,74.17,74.2,64.76,85.36,57.94z M57.96,170.67c6.03,2.88,12.67,5.36,19.77,7.4
	c2.09,7.18,4.64,13.89,7.6,19.96C74.18,191.22,64.78,181.82,57.96,170.67z M170.68,198.04c3.01-6.19,5.6-13.03,7.72-20.37
	c7.29-2.18,14.08-4.83,20.19-7.91C191.73,181.3,182.13,191.03,170.68,198.04z"/>
</svg>
