<?xml version="1.0" encoding="utf-8"?>
<!-- Generator: Adobe Illustrator 24.0.0, SVG Export Plug-In . SVG Version: 6.00 Build 0)  -->
<svg version="1.1" id="Layer_1" xmlns="http://www.w3.org/2000/svg" xmlns:xlink="http://www.w3.org/1999/xlink" x="0px" y="0px"
	 viewBox="0 0 256 256" style="enable-background:new 0 0 256 256;" xml:space="preserve">
<style type="text/css">
	.st0{fill:#FFFFFF;}
</style>
<g>
	<g>
		<g>
			<g>
				<polygon points="174.04,133.69 174.04,156.18 233.5,156.18 233.5,209.38 115.9,209.38 115.9,183.65 93.41,183.65 93.41,231.87 
					256,231.87 256,133.69 				"/>
			</g>
			<path d="M93.41,24.13v98.18H256V24.13H93.41z M115.9,99.82V46.62h117.6v53.19H115.9z"/>
			<g>
				<polygon points="140.1,133.76 140.1,152.9 22.5,152.9 22.5,99.71 81.96,99.71 81.96,77.21 0,77.21 0,175.39 162.59,175.39 
					162.59,133.76 				"/>
				<rect x="101.99" y="77.21" width="5.33" height="22.5"/>
				<rect x="140.1" y="108.4" width="22.5" height="5.33"/>
			</g>
			<g>
				<path d="M93.41,24.13v98.18H256V24.13H93.41z M115.9,99.82V46.62h117.6v53.19H115.9z"/>
			</g>
		</g>
	</g>
</g>
</svg>
