<?xml version="1.0" encoding="utf-8"?>
<!-- Generator: Adobe Illustrator 24.0.0, SVG Export Plug-In . SVG Version: 6.00 Build 0)  -->
<svg version="1.1" id="Layer_1" xmlns="http://www.w3.org/2000/svg" xmlns:xlink="http://www.w3.org/1999/xlink" x="0px" y="0px"
	 viewBox="0 0 256 256" style="enable-background:new 0 0 256 256;" xml:space="preserve">
<style type="text/css">
	.st0{fill:#FFFFFF;}
</style>
<g>
	<circle class="st0" cx="128" cy="128" r="128"/>
	<g>
		<g>
			<path d="M193.08,103.91c-1.81-14.13-10.55-22.48-24.23-23.4c-1.83-3.87-4.05-7.48-6.64-10.77c-8.5-10.76-19.93-16.68-32.18-16.68
				c-12.25,0-23.68,5.92-32.18,16.68c-2.59,3.28-4.81,6.9-6.64,10.77c-13.68,0.92-22.42,9.27-24.23,23.4
				c-0.97,7.55,1.32,15.11,6.28,20.74c4.7,5.34,11.38,8.4,18.33,8.4c2.44,0,4.71-1.13,6.22-3.11c1.58-2.07,2.11-4.83,1.42-7.38
				c-1.25-4.6-1.88-9.43-1.88-14.35c0-20.39,10.86-37.5,25.37-41.88c-0.09-0.43-0.11-0.87-0.08-1.33c0.05-0.56,0.15-1.12,0.25-1.67
				c0.05-0.24,0.09-0.48,0.14-0.71c0.02-0.12,0.04-0.25,0.06-0.38c0.01-0.04,0.03-0.24,0.01-0.04c0.01-0.05,0.01-0.11,0.02-0.16
				c0.05-0.52,0.37-0.9,0.9-0.95c-0.11-1.03-0.26-2.06-0.5-3.08c-0.28-1.2,1.56-1.71,1.85-0.51c0.34,1.46,0.51,2.95,0.62,4.45
				c0.11-0.12,0.26-0.22,0.44-0.28c0.47-0.15,1.08,0.18,1.18,0.67c0.19,0.99,0.25,1.99,0.25,2.99c0.72-0.06,1.44-0.1,2.17-0.1
				c18.01,0,32.67,19.28,32.67,42.97c0,4.92-0.63,9.75-1.88,14.35c-0.69,2.55-0.16,5.31,1.42,7.38c1.51,1.98,3.78,3.11,6.22,3.11
				c6.95,0,13.63-3.06,18.33-8.4C191.76,119.02,194.05,111.46,193.08,103.91z M86.15,119.56c-1.38-0.71-2.64-1.7-3.73-2.94
				c-2.65-3.01-3.87-7.08-3.35-11.16c0.81-6.29,3.21-10.09,7.7-11.8c-1.03,4.69-1.56,9.57-1.56,14.55
				C85.2,112.04,85.52,115.84,86.15,119.56z M177.66,116.61c-1.09,1.24-2.36,2.23-3.73,2.94c0.63-3.72,0.95-7.51,0.95-11.35
				c0-4.98-0.53-9.86-1.56-14.55c4.49,1.7,6.89,5.5,7.7,11.79C181.54,109.54,180.32,113.6,177.66,116.61z"/>
		</g>
		<g>
			<path d="M164.68,95.98c-0.45-1.37-0.96-2.75-1.5-4.11l0,0l-0.04-0.1c-0.34-0.85-0.7-1.69-1.08-2.53l-0.02-0.05
				c-7.96-18.6-20.87-29.92-30.3-36.14c-10.22-6.74-18.44-9.05-18.78-9.15l-1.07-0.3c0,0,5.12,17.8,0.48,31.59
				c-0.04,0.08-0.07,0.17-0.09,0.26l-4.86,3.94c-0.69,0.56-16.8,13.94-14.79,38.19c1.22,14.71,8.57,22.77,14.53,26.95
				c3.96,2.78,8.52,4.74,13.55,5.85c0.46,0.12,4.16,1.04,9.43,1.04c0.4,0,0.82-0.01,1.24-0.02l0.17,0c0.1,0,0.19,0,0.28,0l0.12-0.01
				c8.71-0.35,20.78-3.44,28.96-16.1c2.34-3.34,4.09-7.06,5.23-11.07C168.54,115.72,168.05,106.22,164.68,95.98z M142.7,134.88
				L142.7,134.88c-2.8,1.78-6.04,2.97-9.56,3.38c-0.56,0.07-1.13,0.1-1.69,0.13c-0.01,0.04-0.01,0.07-0.01,0.07
				c-11.79,0.31-25.17-5.14-26.62-22.61c-1.48-17.81,10.24-27.32,10.24-27.32c-1.93,6.96,0.15,9.74,0.15,9.74
				c10.57-15.61,9.26-33.74,9.26-33.74c19.28,10.5,14.78,27.86,14.78,27.86c5.21-4.69,4.11-12.25,4.11-12.25
				C170.78,121.78,142.7,134.88,142.7,134.88z"/>
			<g>
				<path d="M187.04,204.66H73.04l0.1-5.94c0.59-35.59,19.06-49.02,19.84-49.57l4.08-2.88l3.48,3.59
					c6.45,6.66,17.48,10.64,29.5,10.64c12.02,0,23.05-3.98,29.5-10.64l3.48-3.59l4.08,2.88c0.79,0.55,19.25,13.98,19.84,49.57
					L187.04,204.66z M85.11,192.99h89.86c-1.04-12.09-4.48-20.35-7.39-25.37c-1.42-2.45-2.84-4.35-4.04-5.76
					c-8.64,6.53-20.73,10.32-33.5,10.32c-12.77,0-24.86-3.79-33.5-10.32c-1.2,1.41-2.62,3.31-4.04,5.76
					C89.59,172.64,86.15,180.9,85.11,192.99z"/>
			</g>
		</g>
		<path d="M102.32,77.06c-2.59,3.21-5.06,6.6-6.56,10.44c-0.89,2.27-1.43,4.8-0.81,7.16c5.72-5.08,11.44-10.17,17.16-15.25
			c1.05-0.93,2.1-1.87,2.92-3.01c1.97-2.74,3.99-9.61-1.37-9.84C109.31,66.37,104.7,74.11,102.32,77.06z"/>
	</g>
</g>
</svg>
