<?xml version="1.0" encoding="utf-8"?>
<!-- Generator: Adobe Illustrator 24.0.0, SVG Export Plug-In . SVG Version: 6.00 Build 0)  -->
<svg version="1.1" id="Layer_1" xmlns="http://www.w3.org/2000/svg" xmlns:xlink="http://www.w3.org/1999/xlink" x="0px" y="0px"
	 viewBox="0 0 256 256" style="enable-background:new 0 0 256 256;" xml:space="preserve">
<style type="text/css">
	.st0{fill:#FFFFFF;}
</style>
<g>
	<g>
		<circle cx="128" cy="128" r="128"/>
		<g>
			<g>
				<path class="st0" d="M128.03,143.56c-3.59,0-6.16-0.62-6.56-0.72c-3.5-0.77-6.68-2.14-9.44-4.08
					c-4.18-2.93-9.35-8.59-10.2-18.85c-1.39-16.75,9.82-26.07,10.29-26.46l2.91-2.36c2.79-8.59-0.37-19.79-0.4-19.91l-0.67-2.34
					l3.06,0.84c0.23,0.06,5.85,1.63,12.83,6.23c6.4,4.22,15.16,11.9,20.57,24.53c0.26,0.58,0.51,1.16,0.74,1.73l0.02,0.04l1.5,4.31
					c1.89,6.48,2.07,12.54,0.51,18.03c-0.79,2.8-2.02,5.4-3.66,7.74c-5.7,8.82-14.12,10.99-20.2,11.24l-0.46,0.02
					C128.6,143.56,128.31,143.56,128.03,143.56C128.03,143.56,128.03,143.56,128.03,143.56z M117.54,92.23l-0.09,0.42l-3.6,2.92
					c-0.43,0.35-10.57,8.78-9.29,24.11c0.76,9.21,5.34,14.24,9.04,16.84c2.47,1.73,5.32,2.96,8.48,3.65l0.05,0.01
					c0.1,0.03,2.49,0.64,5.89,0.64c0,0,0,0,0,0c0.26,0,0.52,0,0.78-0.01l0.36-0.01c5.43-0.22,12.98-2.14,18.09-10.04
					c1.49-2.13,2.59-4.46,3.3-6.96c1.52-5.37,1.21-11.4-0.94-17.91c-0.29-0.87-0.61-1.76-0.96-2.64l-0.05-0.12
					c-0.22-0.53-0.44-1.05-0.67-1.56l-0.03-0.07c-5.14-12-13.47-19.3-19.56-23.32c-4.51-2.97-8.44-4.62-10.5-5.37
					c0.85,4.02,2.08,12.33-0.28,19.33L117.54,92.23z"/>
			</g>
			<g>
				<path class="st0" d="M176.09,185.54H79.91l18.86-51.76l6.1,6.27c7.51,7.72,23.21,8.15,23.37,8.16
					c1.49-0.01,15.08-0.12,22.91-8.16l6.1-6.27L176.09,185.54z M83.81,182.8h88.38l-16.03-44l-3.06,3.15
					c-8.61,8.85-23.28,8.98-24.91,8.99c-0.71-0.02-17.01-0.48-25.28-8.99l-3.06-3.15L83.81,182.8z M164.31,177.29H91.69l10.45-28.67
					l1.44,0.93c10.23,6.63,23.98,6.89,24.56,6.9c2.34,0.03,14.54-0.23,24.3-6.81l1.45-0.98L164.31,177.29z M95.59,174.56h64.81
					l-7.91-21.72c-10.14,6.12-22.02,6.36-24.39,6.34c-0.59-0.01-13.89-0.26-24.56-6.45L95.59,174.56z"/>
			</g>
			<g>
				<g>
					<path class="st0" d="M150.92,105.47c-0.3-0.91-0.63-1.82-1-2.72l0,0l-0.03-0.07c-0.23-0.56-0.47-1.12-0.72-1.67l-0.01-0.03
						c-5.27-12.32-13.82-19.81-20.07-23.93c-6.77-4.46-12.21-5.99-12.44-6.06l-0.71-0.2c0,0,3.39,11.79,0.32,20.92
						c-0.02,0.06-0.05,0.11-0.06,0.17l-3.22,2.61c-0.46,0.37-11.13,9.23-9.8,25.29c0.81,9.74,5.68,15.08,9.62,17.85
						c2.62,1.84,5.64,3.14,8.98,3.87c0.3,0.08,2.75,0.69,6.24,0.69c0.27,0,0.54,0,0.82-0.01l0.11,0c0.06,0,0.13,0,0.19,0l0.08-0.01
						c5.77-0.23,13.76-2.28,19.18-10.66c1.55-2.21,2.71-4.68,3.46-7.33C153.47,118.54,153.15,112.24,150.92,105.47z M136.36,131.23
						L136.36,131.23c-1.86,1.18-4,1.97-6.33,2.24c-0.37,0.04-0.75,0.07-1.12,0.09c0,0.03-0.01,0.05-0.01,0.05
						c-7.81,0.21-16.67-3.41-17.63-14.97c-0.98-11.79,6.78-18.09,6.78-18.09c-1.27,4.61,0.1,6.45,0.1,6.45
						c7-10.34,6.13-22.35,6.13-22.35c12.77,6.95,9.78,18.45,9.78,18.45c3.45-3.1,2.72-8.11,2.72-8.11
						C154.95,122.55,136.36,131.23,136.36,131.23z"/>
				</g>
				<g>
					<path class="st0" d="M174.14,184.17H81.86l17.44-47.88l4.58,4.71c7.91,8.13,23.84,8.56,24.31,8.57
						c1.69,0.01,15.74-0.17,23.92-8.57l4.58-4.71L174.14,184.17z M93.64,175.92h68.72l-9.16-25.15
						c-10.01,6.76-22.37,7.07-25.08,7.04c-0.71-0.01-14.75-0.29-25.29-7.12L93.64,175.92z"/>
				</g>
			</g>
			<path class="st0" d="M47.48,47.48v161.03h161.03V47.48H47.48z M64.69,191.31V64.69h126.63v126.63H64.69z"/>
		</g>
	</g>
</g>
</svg>
