<?xml version="1.0" encoding="utf-8"?>
<!-- Generator: Adobe Illustrator 24.0.0, SVG Export Plug-In . SVG Version: 6.00 Build 0)  -->
<svg version="1.1" id="Layer_1" xmlns="http://www.w3.org/2000/svg" xmlns:xlink="http://www.w3.org/1999/xlink" x="0px" y="0px"
	 viewBox="0 0 256 256" style="enable-background:new 0 0 256 256;" xml:space="preserve">
<style type="text/css">
	.st0{fill:#FFFFFF;}
</style>
<g>
	<g>
		<g>
			<g>
				<g>
					<path d="M129.27,185.65l-2.54-26.49c38.87-3.73,67.68-21.62,85.64-53.16c7.15-12.56,11.18-24.99,13.4-34.13h-33.31V45.26H256
						l-1.1,14.33c-0.09,1.18-2.4,29.18-18.84,58.59C220.64,145.76,189.59,179.86,129.27,185.65z"/>
				</g>
				<g>
					<path d="M128,185.87l-6.57-3.73c-18.85-10.7-34.31-26.03-45.97-45.56c-9.12-15.27-15.9-33.1-20.14-52.99
						c-7.13-33.38-4.71-61.17-4.6-62.33L51.82,9.1L128,9.54l76.18-0.44l1.11,12.17c0.11,1.17,2.53,28.95-4.6,62.33
						c-4.25,19.88-11.03,37.71-20.14,52.99c-11.66,19.53-27.12,34.85-45.97,45.56L128,185.87z M76.86,35.86
						c0.06,10.21,0.92,25.83,4.63,42.86c7.57,34.78,23.2,60.37,46.5,76.19c45.54-30.99,50.99-92.85,51.14-119.05L128,36.15l-0.08,0
						L76.86,35.86z"/>
				</g>
				<g>
					<path d="M126.73,185.65c-60.32-5.79-91.36-39.89-106.78-67.48C3.5,88.77,1.19,60.76,1.1,59.59L0,45.26h63.54v26.62H30.23
						C32.46,81,36.48,93.43,43.63,106c17.95,31.54,46.77,49.43,85.64,53.16L126.73,185.65z"/>
				</g>
			</g>
			<g>
				<rect x="114.69" y="170.57" width="26.62" height="63.02"/>
			</g>
			<g>
				<rect x="80.9" y="220.29" width="94.2" height="26.62"/>
			</g>
		</g>
	</g>
</g>
</svg>
