<?xml version="1.0" encoding="utf-8"?>
<!-- Generator: Adobe Illustrator 24.0.0, SVG Export Plug-In . SVG Version: 6.00 Build 0)  -->
<svg version="1.1" id="Layer_1" xmlns="http://www.w3.org/2000/svg" xmlns:xlink="http://www.w3.org/1999/xlink" x="0px" y="0px"
	 viewBox="0 0 256 256" style="enable-background:new 0 0 256 256;" xml:space="preserve">
<style type="text/css">
	.st0{fill:#FFFFFF;}
</style>
<g>
	<g>
		<circle cx="128" cy="128" r="127.89"/>
		<g>
			<g>
				<g>
					<path class="st0" d="M206.85,196.39H99.6v-0.56c-2.77-0.63-5.27-2.63-6.47-5.43l-1.09-2.53l-41.99-2.31V92.97
						c0-3.85,2.74-7.21,6.51-7.98c3.77-0.77,7.6,1.23,9.12,4.77l28.9,66.95V59.57h112.26V196.39z M109.28,181.7h82.87V74.27h-82.87
						V181.7z M64.74,171.65l20.79,1.14l-20.79-48.15V171.65z M52.19,95.57c0,0,0,0.01,0,0.01L52.19,95.57z"/>
				</g>
				<path class="st0" d="M93.97,59.58L93.94,80.4H49.15l0.08,105.53h16.32v-57.62l26.83,61.6c1.49,3.46,4.8,5.58,8.42,5.58
					c0.63,0,1.26-0.06,1.9-0.19c4.35-0.89,7.38-4.61,7.38-9.03l0.2-126.66L93.97,59.58z M70.42,95.57l23.5-0.39l-0.09,57.17
					L70.42,95.57z"/>
				<g>
					<path class="st0" d="M91.32,187.74l4.29,8.69h29.65c0,0-29.42-13.62-29.71-13.52s-4.38,4.42-4.38,4.42"/>
				</g>
				<g>
					<rect x="150.93" y="91.02" class="st0" width="30.52" height="10.79"/>
				</g>
				<g>
					<rect x="124.5" y="112.49" class="st0" width="56.95" height="10.79"/>
				</g>
				<g>
					<rect x="124.5" y="133.96" class="st0" width="56.95" height="10.79"/>
				</g>
				<g>
					<rect x="124.5" y="155.43" class="st0" width="56.95" height="10.79"/>
				</g>
			</g>
		</g>
	</g>
</g>
</svg>
