<?xml version="1.0" encoding="utf-8"?>
<!-- Generator: Adobe Illustrator 24.0.0, SVG Export Plug-In . SVG Version: 6.00 Build 0)  -->
<svg version="1.1" id="Layer_1" xmlns="http://www.w3.org/2000/svg" xmlns:xlink="http://www.w3.org/1999/xlink" x="0px" y="0px"
	 viewBox="0 0 256 256" style="enable-background:new 0 0 256 256;" xml:space="preserve">
<style type="text/css">
	.st0{fill:#FFFFFF;}
</style>
<g>
	<g>
		<g>
			<path class="st0" d="M128.05,152.34c-5.61,0-9.62-0.97-10.25-1.13c-5.48-1.2-10.44-3.35-14.76-6.38
				c-6.54-4.59-14.61-13.43-15.94-29.48c-2.17-26.19,15.35-40.77,16.1-41.37l4.55-3.69c4.36-13.43-0.58-30.95-0.63-31.13l-1.05-3.66
				l4.78,1.32c0.36,0.1,9.15,2.55,20.06,9.75c10.01,6.6,23.71,18.61,32.16,38.36c0.41,0.9,0.79,1.81,1.16,2.71l0.03,0.07l2.34,6.74
				c2.96,10.13,3.23,19.61,0.8,28.19c-1.24,4.38-3.16,8.45-5.72,12.1c-8.91,13.79-22.08,17.18-31.58,17.58l-0.73,0.03
				C128.94,152.33,128.49,152.34,128.05,152.34C128.05,152.34,128.05,152.34,128.05,152.34z M111.64,72.07l-0.13,0.65l-5.62,4.56
				c-0.67,0.55-16.52,13.73-14.53,37.7c1.19,14.4,8.35,22.27,14.14,26.33c3.86,2.71,8.33,4.63,13.26,5.71l0.09,0.02
				c0.16,0.04,3.89,1,9.21,1c0,0,0,0,0.01,0c0.4,0,0.81-0.01,1.23-0.02l0.56-0.02c8.5-0.34,20.3-3.34,28.28-15.7
				c2.33-3.33,4.04-6.97,5.15-10.88c2.38-8.4,1.88-17.83-1.47-28.01c-0.45-1.37-0.96-2.75-1.51-4.12l-0.08-0.19
				c-0.34-0.84-0.69-1.65-1.05-2.44l-0.05-0.11c-8.03-18.76-21.06-30.18-30.58-36.46c-7.05-4.65-13.19-7.22-16.42-8.39
				c1.33,6.29,3.25,19.28-0.44,30.23L111.64,72.07z"/>
		</g>
		<g>
			<path class="st0" d="M203.2,217.96H52.8l29.49-80.93l9.54,9.8c11.74,12.06,36.29,12.75,36.53,12.76
				c2.33-0.02,23.59-0.19,35.82-12.76l9.54-9.8L203.2,217.96z M58.91,213.69h138.19l-25.07-68.8l-4.79,4.92
				c-13.47,13.84-36.4,14.04-38.95,14.05c-1.11-0.03-26.59-0.74-39.53-14.05l-4.79-4.92L58.91,213.69z M184.78,205.07H71.22
				l16.33-44.83l2.25,1.46c15.99,10.37,37.5,10.77,38.4,10.79c3.66,0.05,22.73-0.35,37.99-10.65l2.27-1.53L184.78,205.07z
				 M77.33,200.79h101.34l-12.37-33.95c-15.85,9.58-34.44,9.94-38.13,9.92c-0.93-0.01-21.71-0.41-38.41-10.08L77.33,200.79z"/>
		</g>
		<g>
			<g>
				<path class="st0" d="M163.83,92.77c-0.47-1.42-0.99-2.84-1.56-4.25l0,0l-0.04-0.1c-0.36-0.88-0.73-1.75-1.12-2.62l-0.02-0.05
					c-8.25-19.26-21.61-30.98-31.37-37.42c-10.58-6.98-19.09-9.37-19.45-9.47l-1.11-0.31c0,0,5.31,18.43,0.49,32.71
					c-0.04,0.09-0.07,0.18-0.09,0.27l-5.03,4.08c-0.71,0.58-17.4,14.44-15.32,39.54c1.26,15.23,8.88,23.58,15.04,27.91
					c4.1,2.88,8.82,4.91,14.03,6.05c0.47,0.12,4.31,1.07,9.76,1.07c0.42,0,0.85-0.01,1.28-0.02l0.17,0c0.1,0,0.2,0,0.29,0l0.12-0.01
					c9.02-0.36,21.52-3.56,29.99-16.67c2.42-3.46,4.24-7.31,5.41-11.46C167.83,113.21,167.32,103.37,163.83,92.77z M141.07,133.05
					L141.07,133.05c-2.9,1.84-6.25,3.07-9.9,3.5c-0.58,0.07-1.17,0.11-1.74,0.13c-0.01,0.04-0.01,0.07-0.01,0.07
					c-12.2,0.33-26.06-5.32-27.56-23.41c-1.53-18.44,10.61-28.29,10.61-28.29c-1.99,7.2,0.16,10.09,0.16,10.09
					c10.94-16.17,9.58-34.94,9.58-34.94c19.96,10.87,15.3,28.85,15.3,28.85c5.39-4.85,4.25-12.68,4.25-12.68
					C170.14,119.48,141.07,133.05,141.07,133.05z"/>
			</g>
			<g>
				<path class="st0" d="M200.15,215.83H55.85l27.28-74.87l7.16,7.36c12.37,12.71,37.27,13.39,38.02,13.4
					c2.64,0.02,24.61-0.26,37.4-13.4l7.16-7.36L200.15,215.83z M74.28,202.93h107.45L167.4,163.6
					c-15.65,10.57-34.97,11.05-39.21,11.02c-1.11-0.01-23.06-0.45-39.54-11.13L74.28,202.93z"/>
			</g>
		</g>
		<path class="st0" d="M2.1,2.1V253.9H253.9V2.1H2.1z M29,227V29H227V227H29z"/>
	</g>
</g>
</svg>
