<?xml version="1.0" encoding="utf-8"?>
<!-- Generator: Adobe Illustrator 24.0.0, SVG Export Plug-In . SVG Version: 6.00 Build 0)  -->
<svg version="1.1" id="Layer_1" xmlns="http://www.w3.org/2000/svg" xmlns:xlink="http://www.w3.org/1999/xlink" x="0px" y="0px"
	 viewBox="0 0 256 256" style="enable-background:new 0 0 256 256;" xml:space="preserve">
<style type="text/css">
	.st0{fill:#FFFFFF;}
</style>
<g>
	<g>
		<g>
			<path d="M226.43,96.41c-2.82-22.06-16.47-35.09-37.82-36.53c-2.85-6.04-6.32-11.69-10.37-16.81
				C164.97,26.28,147.13,17.03,128,17.03c-19.13,0-36.97,9.25-50.24,26.04c-4.05,5.12-7.52,10.77-10.37,16.81
				c-21.35,1.44-35,14.47-37.82,36.53c-1.51,11.78,2.07,23.58,9.81,32.38c7.34,8.33,17.76,13.11,28.61,13.11
				c3.81,0,7.36-1.77,9.72-4.86c2.47-3.23,3.3-7.54,2.22-11.52C77.99,118.34,77,110.8,77,103.12c0-31.84,16.95-58.55,39.6-65.39
				c-0.14-0.66-0.18-1.36-0.12-2.07c0.07-0.88,0.23-1.74,0.4-2.61c0.07-0.37,0.15-0.74,0.21-1.12c0.03-0.2,0.07-0.39,0.1-0.59
				c0.01-0.07,0.04-0.38,0.01-0.06c0.01-0.09,0.02-0.17,0.03-0.26c0.09-0.81,0.58-1.41,1.41-1.48c-0.17-1.61-0.4-3.22-0.77-4.8
				c-0.44-1.87,2.44-2.66,2.88-0.79c0.54,2.28,0.79,4.61,0.96,6.94c0.17-0.19,0.4-0.34,0.68-0.43c0.73-0.24,1.69,0.27,1.84,1.04
				c0.3,1.55,0.38,3.11,0.39,4.67c1.12-0.1,2.24-0.15,3.38-0.15c28.12,0,51,30.1,51,67.09c0,7.68-0.99,15.22-2.94,22.41
				c-1.08,3.98-0.25,8.29,2.22,11.52c2.36,3.09,5.9,4.86,9.72,4.86c10.85,0,21.28-4.78,28.61-13.11
				C224.36,119.99,227.93,108.19,226.43,96.41z M59.48,120.84c-2.15-1.11-4.12-2.66-5.83-4.6c-4.14-4.7-6.04-11.05-5.23-17.42
				c1.26-9.82,5.01-15.75,12.02-18.42C58.83,87.72,58,95.35,58,103.12C58,109.11,58.49,115.04,59.48,120.84z M202.35,116.24
				c-1.71,1.94-3.68,3.48-5.83,4.6c0.98-5.8,1.48-11.73,1.48-17.72c0-7.77-0.83-15.39-2.44-22.71c7.01,2.66,10.76,8.59,12.02,18.41
				C208.4,105.19,206.49,111.54,202.35,116.24z"/>
		</g>
		<g>
			<path d="M182.08,84.03c-0.71-2.14-1.49-4.29-2.35-6.41l0.01,0l-0.07-0.15c-0.54-1.33-1.1-2.64-1.69-3.94l-0.03-0.08
				c-12.43-29.04-32.59-46.71-47.31-56.42C114.69,6.51,101.86,2.9,101.32,2.75l-1.68-0.46c0,0,8,27.79,0.75,49.33
				c-0.06,0.13-0.11,0.27-0.14,0.41l-7.59,6.16c-1.07,0.87-26.23,21.77-23.09,59.62c1.9,22.96,13.38,35.55,22.68,42.08
				c6.18,4.34,13.3,7.41,21.16,9.13c0.71,0.19,6.5,1.62,14.72,1.62c0.63,0,1.28-0.01,1.94-0.03l0.26,0c0.15,0,0.3,0,0.44-0.01
				l0.19-0.02c13.6-0.55,32.45-5.37,45.22-25.14c3.65-5.21,6.39-11.03,8.16-17.28C188.11,114.85,187.35,100.01,182.08,84.03z
				 M147.76,144.77L147.76,144.77c-4.38,2.77-9.43,4.64-14.92,5.28c-0.88,0.1-1.76,0.16-2.63,0.2c-0.01,0.06-0.01,0.11-0.01,0.11
				c-18.4,0.49-39.29-8.03-41.55-35.3c-2.31-27.8,15.99-42.65,15.99-42.65c-3.01,10.86,0.24,15.21,0.24,15.21
				c16.5-24.38,14.45-52.68,14.45-52.68c30.1,16.39,23.07,43.5,23.07,43.5c8.13-7.32,6.41-19.12,6.41-19.12
				C191.6,124.31,147.76,144.77,147.76,144.77z"/>
			<g>
				<path d="M217,253.71H39l0.15-9.27c0.93-55.56,29.75-76.53,30.98-77.39l6.37-4.5l5.43,5.6c10.08,10.4,27.29,16.61,46.06,16.61
					s35.99-6.21,46.06-16.61l5.43-5.6l6.37,4.5c1.23,0.87,30.05,21.83,30.98,77.39L217,253.71z M57.85,235.48h140.29
					c-1.62-18.87-6.99-31.77-11.54-39.61c-2.22-3.82-4.43-6.79-6.31-8.99C166.82,197.08,147.94,203,128,203s-38.82-5.91-52.3-16.11
					c-1.88,2.2-4.09,5.17-6.31,8.99C64.84,203.71,59.48,216.61,57.85,235.48z"/>
			</g>
		</g>
		<path d="M84.72,54.48c-4.05,5.02-7.9,10.3-10.25,16.3c-1.39,3.55-2.23,7.49-1.27,11.18c8.93-7.94,17.86-15.88,26.79-23.82
			c1.63-1.45,3.28-2.92,4.56-4.7c3.08-4.28,6.22-15.01-2.14-15.36C95.64,37.8,88.43,49.88,84.72,54.48z"/>
	</g>
</g>
</svg>
