<?xml version="1.0" encoding="utf-8"?>
<!-- Generator: Adobe Illustrator 24.0.0, SVG Export Plug-In . SVG Version: 6.00 Build 0)  -->
<svg version="1.1" id="Layer_1" xmlns="http://www.w3.org/2000/svg" xmlns:xlink="http://www.w3.org/1999/xlink" x="0px" y="0px"
	 viewBox="0 0 256 256" style="enable-background:new 0 0 256 256;" xml:space="preserve">
<style type="text/css">
	.st0{fill:#FFFFFF;}
</style>
<g>
	<g>
		<g>
			<g>
				<path d="M254.03,237.31H82.61v-0.9c-4.42-1.01-8.42-4.21-10.34-8.68l-1.74-4.04l-67.12-3.69V72.02
					c0-6.16,4.38-11.52,10.41-12.76c6.03-1.23,12.15,1.97,14.58,7.62l46.2,107.01V18.63h179.43V237.31z M98.08,213.83h132.46V42.11
					H98.08V213.83z M26.89,197.78l33.23,1.82l-33.23-76.97V197.78z M6.82,76.16c0,0.01,0.01,0.01,0.01,0.02L6.82,76.16z"/>
			</g>
			<path d="M73.61,18.64l-0.05,33.27H1.97L2.1,220.6H28.2V128.5l42.88,98.46c2.39,5.53,7.67,8.92,13.47,8.92c1,0,2.02-0.1,3.04-0.31
				c6.95-1.42,11.8-7.37,11.8-14.44l0.32-202.45L73.61,18.64z M35.96,76.16l37.57-0.63l-0.14,91.37L35.96,76.16z"/>
			<g>
				<path d="M69.37,223.48l6.86,13.89h47.39c0,0-47.03-21.76-47.48-21.61s-7,7.06-7,7.06"/>
			</g>
			<g>
				<rect x="164.65" y="68.9" width="48.79" height="17.25"/>
			</g>
			<g>
				<rect x="122.41" y="103.21" width="91.03" height="17.25"/>
			</g>
			<g>
				<rect x="122.41" y="137.53" width="91.03" height="17.25"/>
			</g>
			<g>
				<rect x="122.41" y="171.84" width="91.03" height="17.25"/>
			</g>
		</g>
	</g>
</g>
</svg>
