<?xml version="1.0" encoding="utf-8"?>
<!-- Generator: Adobe Illustrator 24.0.0, SVG Export Plug-In . SVG Version: 6.00 Build 0)  -->
<svg version="1.1" id="Layer_1" xmlns="http://www.w3.org/2000/svg" xmlns:xlink="http://www.w3.org/1999/xlink" x="0px" y="0px"
	 viewBox="0 0 256 256" style="enable-background:new 0 0 256 256;" xml:space="preserve">
<style type="text/css">
	.st0{fill:#FFFFFF;}
</style>
<g>
	<g>
		<g>
			<path class="st0" d="M145.64,253.71h-35.29c-8.63,0-15.65-7.02-15.65-15.65v-12.34c-4.06-1.38-8.16-3.1-12.21-5.12l-8.77,8.77
				c-6.1,6.1-16.03,6.1-22.13,0l-24.95-24.95c-2.96-2.96-4.58-6.89-4.58-11.07c0-4.18,1.63-8.11,4.59-11.07l8.79-8.79
				c-1.94-3.95-3.63-8.02-5.05-12.19H17.94c-8.63,0-15.65-7.02-15.65-15.65v-35.29c0-8.63,7.02-15.65,15.65-15.65h12.41
				c1.44-4.27,3.12-8.38,5.02-12.25l-8.74-8.74c-2.96-2.95-4.58-6.88-4.58-11.07s1.63-8.11,4.59-11.07l24.95-24.95
				c6.1-6.1,16.03-6.1,22.13,0l8.86,8.86c4.08-1.93,8.17-3.52,12.13-4.89V17.94c0-8.63,7.02-15.65,15.65-15.65h35.29
				c8.63,0,15.65,7.02,15.65,15.65v12.43c4.17,1.42,8.24,3.11,12.19,5.05l8.79-8.79c6.1-6.1,16.03-6.1,22.13,0l24.95,24.95
				c2.96,2.95,4.58,6.88,4.58,11.07s-1.63,8.11-4.59,11.07l-8.79,8.79c1.94,3.95,3.63,8.02,5.05,12.19h12.43
				c8.63,0,15.65,7.02,15.65,15.65v35.29c0,8.63-7.02,15.65-15.65,15.65h-12.43c-1.42,4.17-3.11,8.24-5.05,12.19l8.79,8.79
				c2.96,2.95,4.58,6.88,4.58,11.07c0,4.18-1.63,8.11-4.58,11.07l-24.95,24.95c-6.1,6.1-16.03,6.1-22.13,0l-8.79-8.79
				c-3.95,1.94-8.02,3.63-12.19,5.05v12.43C161.29,246.69,154.27,253.71,145.64,253.71z M117.9,230.52h20.21v-22.69l8.86-2.15
				c7.97-1.94,15.55-5.08,22.55-9.34l7.79-4.74l16.05,16.05l14.29-14.29l-16.05-16.05l4.74-7.79c4.26-7,7.41-14.58,9.34-22.55
				l2.15-8.86h22.69V117.9h-22.69l-2.15-8.86c-1.94-7.97-5.08-15.55-9.34-22.55l-4.74-7.79l16.05-16.05l-14.29-14.29L177.3,64.41
				l-7.79-4.74c-7-4.26-14.59-7.41-22.55-9.34l-8.86-2.15V25.48H117.9v22.2l-8.26,2.48c-7.73,2.32-15.89,5.08-23.15,9.51l-7.79,4.74
				L62.65,48.37L48.37,62.65l16.19,16.19l-5.02,7.85c-3.99,6.25-7.18,13.97-9.21,22.34l-2.15,8.86H25.48v20.21h22.69l2.15,8.86
				c1.94,7.97,5.08,15.55,9.34,22.55l4.74,7.79l-16.05,16.05l14.29,14.29l16.05-16.05l7.79,4.74c7.43,4.52,15.13,7.73,22.27,9.28
				l9.14,1.98V230.52z"/>
		</g>
		<g>
			<path class="st0" d="M128,174.04c-25.38,0-46.04-20.65-46.04-46.04S102.62,81.96,128,81.96c25.38,0,46.04,20.65,46.04,46.04
				S153.38,174.04,128,174.04z M128,105.16c-12.6,0-22.84,10.25-22.84,22.84s10.25,22.84,22.84,22.84
				c12.6,0,22.85-10.25,22.85-22.84S140.6,105.16,128,105.16z"/>
		</g>
	</g>
</g>
</svg>
