<?xml version="1.0" encoding="utf-8"?>
<!-- Generator: Adobe Illustrator 24.0.0, SVG Export Plug-In . SVG Version: 6.00 Build 0)  -->
<svg version="1.1" id="Layer_1" xmlns="http://www.w3.org/2000/svg" xmlns:xlink="http://www.w3.org/1999/xlink" x="0px" y="0px"
	 viewBox="0 0 256 256" style="enable-background:new 0 0 256 256;" xml:space="preserve">
<style type="text/css">
	.st0{fill:#FFFFFF;}
</style>
<g>
	<g>
		<g>
			<path d="M169.87,178.8h-33.53V49.14L80.26,25.76h89.61v58.8h29.65V-0.11H0v202.03v1.28v0.99l136.35,51.92v-51.44h63.18v-79.44
				h-29.65V178.8z M29.65,186.37V33.34l77.05,32.12v150.83L29.65,186.37z"/>
			<polygon points="256,104.9 215.14,74.42 215.14,93.16 150.76,93.16 150.76,116.64 215.14,116.64 215.14,135.38 			"/>
		</g>
		<g>
			<path d="M45.99,147.42c1.93-7.79,9.65-11.54,9.65-11.54c-1.27,4.78,0,11.35,0,11.35c2.05-15.08,12.94-19.79,12.94-19.79
				s10.89,12.22,12.94,28.7c0,0,1.27-5.69,0-11.35c0,0,7.72,9.08,9.65,18.19l6.39,2.2c2.32-6.81,3.9-17.64-3.25-28.31
				c0,0-0.75,8.72-5.4,6.03c-4.65-2.69-5-7.86-2.1-14.5c2.89-6.64,1.14-19.56-9.38-25.12c0,0,2.81,13.66-5.79,10.79
				c-8.59-2.87-8.77-16.17-5-21.4c0,0-9.59-0.82-11.24,8.27c-1.65,9.09,4.84,20.06,1.77,24.52c-3.07,4.46-13.77,1.14-11.05-12.63
				c0,0-6.67,1.75-8.42,12c-1.03,5.99,0.39,14.13,2.05,20.45L45.99,147.42z"/>
			<path d="M68.58,137.94c-9.35,2.23-7.38,11.93-6.5,15.02l13,4.48C75.96,154.95,77.93,146.6,68.58,137.94z"/>
		</g>
	</g>
</g>
</svg>
