<?xml version="1.0" encoding="utf-8"?>
<!-- Generator: Adobe Illustrator 24.0.0, SVG Export Plug-In . SVG Version: 6.00 Build 0)  -->
<svg version="1.1" id="Layer_1" xmlns="http://www.w3.org/2000/svg" xmlns:xlink="http://www.w3.org/1999/xlink" x="0px" y="0px"
	 viewBox="0 0 256 256" style="enable-background:new 0 0 256 256;" xml:space="preserve">
<style type="text/css">
	.st0{fill:#FFFFFF;}
</style>
<circle class="st0" cx="128" cy="128" r="127.85"/>
<path d="M209.64,75.07c-0.45-11.19-2.6-19.33-2.69-19.67l-1.07-4l-3.97-1.19c-0.34-0.1-8.42-2.48-19.58-3.26
	c-6.59-0.46-12.96-0.27-18.91,0.56c-7.62,1.06-14.61,3.19-20.76,6.32c-5.39,2.74-11.37,7.43-18.28,14.33
	c-6.09,6.08-12.88,13.91-20.21,23.3c-2.62-0.57-5.92-1.06-9.66-1.14c-11.57-0.25-21.83,3.64-29.66,11.22
	c-17.07,16.53-15.29,36.7-13.73,44.61c0.32,1.62,1.09,3.1,2.24,4.28c1.33,1.37,3.12,2.26,5.02,2.51c3.64,0.46,7.15-1.45,8.74-4.76
	c2.32-4.84,5.75-7.86,10.48-9.23c0.18-0.05,0.36-0.1,0.54-0.15c0.78,3.66,2.24,8.42,4.94,13.36c-8.77-2.56-18.48-0.59-25.5,6.27
	c-10.06,9.83-10.27,18.45-10.27,18.45c2.21-2.16,9.71-2.77,9.71-2.77s-7.09,2.19-9.94,13.69c-2.79,11.26,2.71,20.88,2.71,20.88
	s6.57-16.53,13.5-14.3c4.39,1.41,0,7.84-7.69,9.67c0,0,3.57,7.13,12.51,4.77s10.85-9.15,13.29-10.13c2.44-0.98,3.2,1.34-0.15,5.51
	c0,0,14.04-3.21,19.43-16.66c2.44-6.1,2.78-11.33,1.74-15.84c4.57,2.56,8.96,4.03,12.4,4.86c-1.1,3.71-3.69,8.08-9.69,10.75
	c-3.35,1.49-5.37,4.95-5.01,8.6c0.36,3.65,3,6.64,6.57,7.45c2.62,0.6,6.6,1.25,11.38,1.25c9.55,0,22.27-2.64,33.61-13.68
	c7.82-7.61,11.99-17.74,12.06-29.28v0c0.03-3.85-0.42-7.24-0.87-9.64c9.59-7.05,17.61-13.62,23.86-19.54
	c7.1-6.72,11.97-12.59,14.89-17.94c3.31-6.06,5.63-12.98,6.92-20.57C209.54,88.03,209.91,81.67,209.64,75.07z M151.91,161.84
	c-0.12,8.3-2.98,15.24-8.49,20.61c-8.48,8.26-18.01,10.29-25.23,10.33c4.38-3.99,6.63-8.6,7.8-12.31c1.02-3.26,1.33-6.19,1.39-8.23
	c4.57-2.81,13.84-8.65,24.21-15.85C151.79,157.99,151.93,159.84,151.91,161.84z M90.52,139.48c-0.88-2.87-1.24-5.27-1.38-6.65
	c0.95-1.47,2.74-4.19,5.15-7.74c2.39,5.93,6.55,13.96,13.44,21.48l0.09,0.09l0.09,0.09c7.31,7.1,15.22,11.49,21.08,14.06
	c-3.61,2.3-6.39,4.01-7.89,4.92c-1.37-0.19-3.75-0.61-6.6-1.57c-5.86-1.97-10.83-5.15-14.78-9.45l-0.08-0.09l-0.09-0.09
	C95.36,150.45,92.32,145.39,90.52,139.48z M82.81,126.36c-2.05,0-4.98,0.23-8.27,1.15c-3.74,1.05-8.41,3.17-12.53,7.43
	c0.25-7.22,2.55-16.69,11.06-24.92c5.53-5.35,12.54-8.01,20.85-7.89c2,0.03,3.85,0.22,5.45,0.48
	C91.86,112.78,85.76,121.88,82.81,126.36z M151.31,145.77c-4.6,3.28-9.08,6.35-13.17,9.07c-4.1-1.3-14.63-5.29-23.99-14.34
	c-8.72-9.56-12.44-20.25-13.63-24.4c2.83-4,6.03-8.4,9.44-12.89c1.41-1.85,2.8-3.65,4.16-5.39c2.35,6.53,7.15,15.84,16.97,26.16
	l0.06,0.06c10.03,10.12,19.2,15.19,25.66,17.72C155.04,143.09,153.2,144.42,151.31,145.77z M165.38,135.21
	c-1.38-0.29-3.64-0.91-6.54-2.14c-4.97-2.12-12.71-6.47-21.38-15.21c-8.28-8.71-12.39-16.4-14.39-21.32
	c-1.28-3.17-1.87-5.62-2.14-7.09c10.94-12.99,20.17-21.56,27.08-25.07c11.31-5.75,24.35-6.24,33.29-5.64
	c6.49,0.44,11.84,1.5,14.78,2.19c0.6,2.96,1.51,8.34,1.76,14.84c0.34,8.95-0.52,21.97-6.6,33.11
	C187.52,115.67,178.69,124.66,165.38,135.21z M88.06,189.16c0,0-8.61-4.48-14.66,6.46c0,0,0.75-6.98-5.89-9.69
	c-3.81-1.55-7.57-0.17-10.9,1.71c0.97-2.55,3.83-5.77,7.49-8.11c6.01-3.85,7.44-8.45,3.64-11.79c-1.48-1.3-2.78-1.9-3.83-2.16
	c2.92-2.25,12.23-8.11,21.86-0.44C96.57,173.75,92.87,183.44,88.06,189.16z"/>
</svg>
