<?xml version="1.0" encoding="utf-8"?>
<!-- Generator: Adobe Illustrator 24.0.0, SVG Export Plug-In . SVG Version: 6.00 Build 0)  -->
<svg version="1.1" id="Layer_1" xmlns="http://www.w3.org/2000/svg" xmlns:xlink="http://www.w3.org/1999/xlink" x="0px" y="0px"
	 viewBox="0 0 256 256" style="enable-background:new 0 0 256 256;" xml:space="preserve">
<style type="text/css">
	.st0{fill:#FFFFFF;}
</style>
<path d="M255.5,45.34c-0.71-17.47-4.06-30.18-4.2-30.71l-1.67-6.25l-6.2-1.85c-0.53-0.16-13.15-3.88-30.58-5.1
	c-10.3-0.72-20.23-0.42-29.53,0.87c-11.9,1.66-22.81,4.98-32.43,9.87c-8.42,4.28-17.76,11.6-28.55,22.37
	c-9.51,9.49-20.11,21.72-31.56,36.38c-4.09-0.88-9.24-1.66-15.09-1.78c-18.07-0.38-34.09,5.68-46.32,17.53
	C2.72,112.48,5.49,143.99,7.92,156.33c0.5,2.53,1.71,4.84,3.5,6.69c2.08,2.15,4.87,3.54,7.84,3.91c5.68,0.72,11.17-2.26,13.64-7.43
	c3.62-7.55,8.98-12.27,16.37-14.42c0.28-0.08,0.57-0.16,0.84-0.23c1.22,5.72,3.49,13.14,7.71,20.86c-13.7-4-28.86-0.92-39.83,9.79
	C2.29,190.85,1.96,204.32,1.96,204.32c3.45-3.37,15.17-4.32,15.17-4.32S6.06,203.41,1.6,221.38c-4.36,17.59,4.24,32.61,4.24,32.61
	s10.25-25.81,21.08-22.33c6.86,2.21-0.01,12.24-12,15.09c0,0,5.57,11.14,19.53,7.45s16.94-14.29,20.75-15.82
	c3.81-1.53,5,2.09-0.23,8.61c0,0,21.93-5.02,30.34-26.02c3.82-9.53,4.34-17.7,2.71-24.74c7.14,4,13.99,6.29,19.36,7.6
	c-1.71,5.8-5.77,12.62-15.13,16.78c-5.24,2.33-8.38,7.72-7.82,13.42c0.56,5.7,4.68,10.37,10.26,11.64
	c4.09,0.93,10.31,1.96,17.77,1.96c14.91,0,34.78-4.12,52.49-21.37c12.21-11.89,18.72-27.71,18.84-45.73v0
	c0.04-6.02-0.66-11.3-1.36-15.05c14.97-11.01,27.49-21.26,37.27-30.51c11.09-10.49,18.69-19.66,23.25-28.01
	c5.16-9.47,8.8-20.28,10.8-32.13C255.34,65.58,255.92,55.65,255.5,45.34z M165.33,180.85c-0.19,12.97-4.65,23.8-13.26,32.19
	c-13.24,12.9-28.12,16.07-39.4,16.13c6.84-6.23,10.36-13.43,12.18-19.22c1.59-5.09,2.08-9.66,2.17-12.86
	c7.13-4.39,21.61-13.5,37.81-24.76C165.16,174.84,165.38,177.73,165.33,180.85z M69.47,145.92c-1.37-4.49-1.93-8.23-2.16-10.38
	c1.49-2.3,4.28-6.55,8.04-12.09c3.74,9.26,10.23,21.81,20.98,33.54l0.13,0.15l0.14,0.14c11.41,11.09,23.76,17.94,32.92,21.95
	c-5.64,3.59-9.98,6.26-12.32,7.68c-2.14-0.29-5.86-0.96-10.31-2.46c-9.14-3.08-16.91-8.05-23.08-14.76l-0.13-0.14l-0.14-0.13
	C77.02,163.06,72.28,155.15,69.47,145.92z M57.43,125.44c-3.2,0-7.78,0.35-12.91,1.8c-5.84,1.64-13.13,4.96-19.56,11.61
	c0.38-11.27,3.99-26.06,17.27-38.92c8.63-8.36,19.58-12.5,32.56-12.31c3.12,0.05,6.01,0.35,8.5,0.75
	C71.55,104.23,62.03,118.44,57.43,125.44z M164.4,155.76c-7.18,5.13-14.19,9.92-20.56,14.16c-6.4-2.02-22.85-8.26-37.46-22.4
	c-13.62-14.92-19.42-31.63-21.29-38.11c4.42-6.25,9.42-13.11,14.75-20.13c2.2-2.9,4.37-5.7,6.5-8.41
	c3.66,10.2,11.16,24.74,26.5,40.86l0.1,0.1c15.66,15.8,29.98,23.72,40.07,27.68C170.22,151.56,167.36,153.64,164.4,155.76z
	 M186.38,139.26c-2.15-0.46-5.68-1.41-10.21-3.35c-7.76-3.31-19.85-10.11-33.39-23.75c-12.93-13.6-19.35-25.61-22.47-33.3
	c-2-4.94-2.93-8.78-3.35-11.08c17.08-20.28,31.5-33.67,42.3-39.15c17.67-8.98,38.02-9.74,51.98-8.8
	c10.14,0.68,18.49,2.34,23.08,3.41c0.94,4.62,2.35,13.02,2.74,23.17c0.54,13.98-0.82,34.3-10.31,51.7
	C220.95,108.75,207.15,122.78,186.38,139.26z M65.63,223.5c0,0-13.44-6.99-22.89,10.09c0,0,1.17-10.9-9.2-15.13
	c-5.95-2.42-11.82-0.27-17.03,2.66c1.52-3.99,5.98-9.01,11.69-12.67c9.39-6.02,11.62-13.2,5.69-18.41
	c-2.31-2.03-4.35-2.97-5.97-3.37c4.57-3.51,19.1-12.67,34.13-0.69C78.91,199.44,73.14,214.59,65.63,223.5z"/>
</svg>
