<?xml version="1.0" encoding="utf-8"?>
<!-- Generator: Adobe Illustrator 24.0.0, SVG Export Plug-In . SVG Version: 6.00 Build 0)  -->
<svg version="1.1" id="Layer_1" xmlns="http://www.w3.org/2000/svg" xmlns:xlink="http://www.w3.org/1999/xlink" x="0px" y="0px"
	 viewBox="0 0 256 256" style="enable-background:new 0 0 256 256;" xml:space="preserve">
<style type="text/css">
	.st0{fill:#FFFFFF;}
</style>
<circle cx="128" cy="128" r="127.85"/>
<g>
	<path class="st0" d="M126.81,203.17c-0.95-0.02-9.56-0.2-20.24-1.39l-6.74-0.75l1.09,6.7c1.03,6.34,4.28,12.2,9.14,16.49
		c4.99,4.41,11.34,6.83,17.87,6.83c13.4,0,25.03-10.17,27.06-23.67l1.01-6.73l-6.75,0.85C137.33,203.01,127.21,203.16,126.81,203.17
		z"/>
	<path class="st0" d="M206.76,151.31c-2.44-7.31-6.45-11.74-9.56-14.23c-1.68-6.6-6.65-26.13-9.39-37.35
		c-3.14-12.85-5.79-20.99-5.9-21.33c-0.03-0.1-0.14-0.43-0.34-0.94c0,0-0.21-0.95-1.49-3.38c-0.54-1.09-1.2-2.34-2.01-3.69
		c-1.38-2.3-2.63-4.19-3.95-5.97c-0.19-0.26-0.4-0.51-0.6-0.77c-0.04-0.06-0.08-0.11-0.12-0.17c-7.45-10.61-18.31-16.35-18.31-16.35
		c-2.81,2.39-2.28,7.92-1.82,10.62c-0.89-2.92-2.04-6.32-3.95-9.83c-4.06-7.45-9.62-13.17-16.06-16.53
		c-3.77-1.96-7.79-3.1-11.96-3.38c-0.67-0.04-1.35-0.07-2.02-0.07c-3.76,0-7.62,0.69-11.47,2.06l-8.58,3.05l4.55,7.87
		c0.12,0.22,3.07,5.43,4.61,11.27c1.05,3.98,1.71,9.11-1.11,10.95c-0.58,0.38-1.02,0.54-1.3,0.61c-0.19,0.05-0.31,0.06-0.39,0.06
		h-0.31l-0.08,0.03c-0.18-0.14-0.83-0.83-1.14-3.47c-0.52-4.47,0.37-7.37,0.66-8.15l1-2.7l-2.85,0.41c-0.3,0.04-7.22,1.05-11.29,3.7
		c-1.71,0.88-3.41,2.08-5.2,3.67c-5.47,4.85-9.63,12.01-12.33,21.22c-0.28,0.87-2.84,8.83-5.86,21.22
		c-2.85,11.64-8.04,32.05-9.39,37.35c-3.11,2.49-7.12,6.92-9.56,14.23c-2.41,7.23-1.15,14.24,3.64,20.28
		c4.4,5.54,11.94,10.47,23.05,15.06c9.21,3.81,20.82,6.35,34.5,7.54c6.95,0.61,12.64,0.7,15.41,0.7c1.1,0,1.86-0.01,2.11-0.02
		c0.34,0.01,1.09,0.02,2.19,0.02c2.77,0,8.46-0.09,15.41-0.7c13.68-1.2,25.29-3.74,34.5-7.54c11.11-4.59,18.65-9.52,23.05-15.06
		C207.91,165.55,209.17,158.54,206.76,151.31z M175.89,154.19c-6.5,2.75-13.39,4.95-20.49,6.56c-8.86,2-18.06,3.06-27.36,3.15
		l-0.04,0l-0.04,0c-9.3-0.09-18.5-1.15-27.36-3.15c-7.1-1.6-13.99-3.81-20.49-6.56c-6.7-2.84-11.6-5.66-14.51-7.51
		c0.95-1.3,2.37-3.5,3.47-6.45c0.17-0.46,0.3-0.84,0.41-1.17c2.43,1.6,7.29,4.52,14.24,7.43c9.43,3.96,24.77,8.71,44.28,8.91
		c19.5-0.2,34.84-4.96,44.28-8.91c6.95-2.92,11.81-5.84,14.24-7.43c0.1,0.33,0.23,0.71,0.41,1.17c1.1,2.94,2.52,5.15,3.47,6.45
		C187.49,148.52,182.59,151.35,175.89,154.19z"/>
</g>
</svg>
