<?xml version="1.0" encoding="utf-8"?>
<!-- Generator: Adobe Illustrator 24.0.0, SVG Export Plug-In . SVG Version: 6.00 Build 0)  -->
<svg version="1.1" id="Layer_1" xmlns="http://www.w3.org/2000/svg" xmlns:xlink="http://www.w3.org/1999/xlink" x="0px" y="0px"
	 viewBox="0 0 256 256" style="enable-background:new 0 0 256 256;" xml:space="preserve">
<style type="text/css">
	.st0{fill:#FFFFFF;}
</style>
<circle cx="128" cy="128" r="127.85"/>
<path class="st0" d="M176.53,53.61H79.47c-18.71,0-33.92,15.22-33.92,33.92v55.82c0,18.71,15.22,33.92,33.92,33.92h8.68
	c-0.47,3.84-1.69,8.91-4.56,14.7l-5.14,10.41h9.46c0.85,0,8.57-0.1,17.86-3.6c11.19-4.22,19.85-11.61,25.3-21.51h45.45
	c18.71,0,33.92-15.22,33.92-33.92V87.53C210.45,68.83,195.23,53.61,176.53,53.61z M84.56,136.77c-3.27,0-5.93-2.65-5.93-5.93v0
	c0-3.27,2.65-5.93,5.93-5.93h55.88c3.27,0,5.93,2.65,5.93,5.93v0c0,3.27-2.65,5.93-5.93,5.93H84.56z M84.56,111.7
	c-3.27,0-5.93-2.65-5.93-5.93v0c0-3.27,2.65-5.93,5.93-5.93h86.88c3.27,0,5.93,2.65,5.93,5.93v0c0,3.27-2.65,5.93-5.93,5.93H84.56z"
	/>
</svg>
