<?xml version="1.0" encoding="utf-8"?>
<!-- Generator: Adobe Illustrator 24.0.0, SVG Export Plug-In . SVG Version: 6.00 Build 0)  -->
<svg version="1.1" id="Layer_1" xmlns="http://www.w3.org/2000/svg" xmlns:xlink="http://www.w3.org/1999/xlink" x="0px" y="0px"
	 viewBox="0 0 256 256" style="enable-background:new 0 0 256 256;" xml:space="preserve">
<style type="text/css">
	.st0{fill:#FFFFFF;}
</style>
<path class="st0" d="M245.04,98.19c-2.5-28.59-15.98-54.49-37.96-72.93C185.1,6.82,157.25-1.97,128.66,0.54
	c-28.59,2.5-54.49,15.98-72.93,37.96c-18.44,21.98-27.22,49.83-24.72,78.41c2.2,25.09,12.85,48.12,30.3,65.85l-4.46,5.32l-6.39-5.36
	l-35.52,42.33c-6.66,7.94-5.63,19.78,2.31,26.44h0c7.94,6.66,19.78,5.63,26.44-2.31l35.52-42.33l-6.39-5.36l4.46-5.32
	c20.49,14.1,45.01,20.6,70.11,18.4c28.58-2.5,54.49-15.98,72.93-37.96S247.54,126.77,245.04,98.19z M201.41,160.74
	c-29.33,34.95-81.62,39.53-116.58,10.2c-34.95-29.33-39.53-81.62-10.2-116.58c29.33-34.95,81.62-39.53,116.58-10.2
	C226.16,73.49,230.74,125.79,201.41,160.74z"/>
</svg>
