<?xml version="1.0" encoding="utf-8"?>
<!-- Generator: Adobe Illustrator 24.0.0, SVG Export Plug-In . SVG Version: 6.00 Build 0)  -->
<svg version="1.1" id="Layer_1" xmlns="http://www.w3.org/2000/svg" xmlns:xlink="http://www.w3.org/1999/xlink" x="0px" y="0px"
	 viewBox="0 0 256 256" style="enable-background:new 0 0 256 256;" xml:space="preserve">
<style type="text/css">
	.st0{fill:#FFFFFF;}
</style>
<g>
	<path d="M189.17,114.17h-47.34V66.83c0-6.89-5.59-12.48-12.48-12.48h-2.7c-6.89,0-12.48,5.59-12.48,12.48v47.34H66.83
		c-6.89,0-12.48,5.59-12.48,12.48v2.7c0,6.89,5.59,12.48,12.48,12.48h47.34v47.34c0,6.89,5.59,12.48,12.48,12.48h2.7
		c6.89,0,12.48-5.59,12.48-12.48v-47.34h47.34c6.89,0,12.48-5.59,12.48-12.48v-2.7C201.65,119.76,196.06,114.17,189.17,114.17z"/>
	<path d="M128,0.62C57.77,0.62,0.63,57.77,0.63,128S57.77,255.38,128,255.38S255.37,198.23,255.37,128S198.23,0.62,128,0.62z
		 M128,232.23c-57.47,0-104.23-46.76-104.23-104.23C23.77,70.53,70.53,23.77,128,23.77c57.47,0,104.23,46.76,104.23,104.23
		C232.23,185.47,185.47,232.23,128,232.23z"/>
</g>
</svg>
