<?xml version="1.0" encoding="utf-8"?>
<!-- Generator: Adobe Illustrator 24.0.0, SVG Export Plug-In . SVG Version: 6.00 Build 0)  -->
<svg version="1.1" id="Layer_1" xmlns="http://www.w3.org/2000/svg" xmlns:xlink="http://www.w3.org/1999/xlink" x="0px" y="0px"
	 viewBox="0 0 256 256" style="enable-background:new 0 0 256 256;" xml:space="preserve">
<style type="text/css">
	.st0{fill:#FFFFFF;}
</style>
<circle class="st0" cx="128" cy="128" r="127.71"/>
<g>
	<path d="M177,116.92h-37.92V79c0-5.52-4.48-10-10-10h-2.16c-5.52,0-10,4.48-10,10v37.92H79c-5.52,0-10,4.48-10,10v2.16
		c0,5.52,4.48,10,10,10h37.92V177c0,5.52,4.48,10,10,10h2.16c5.52,0,10-4.48,10-10v-37.92H177c5.52,0,10-4.48,10-10v-2.16
		C187,121.4,182.52,116.92,177,116.92z"/>
	<path d="M128,25.96C71.74,25.96,25.96,71.74,25.96,128S71.74,230.04,128,230.04S230.04,184.26,230.04,128S184.26,25.96,128,25.96z
		 M128,211.49c-46.04,0-83.49-37.45-83.49-83.49c0-46.04,37.45-83.49,83.49-83.49c46.04,0,83.49,37.45,83.49,83.49
		C211.49,174.04,174.04,211.49,128,211.49z"/>
</g>
</svg>
