<?xml version="1.0" encoding="utf-8"?>
<!-- Generator: Adobe Illustrator 24.0.0, SVG Export Plug-In . SVG Version: 6.00 Build 0)  -->
<svg version="1.1" id="Layer_1" xmlns="http://www.w3.org/2000/svg" xmlns:xlink="http://www.w3.org/1999/xlink" x="0px" y="0px"
	 viewBox="0 0 256 256" style="enable-background:new 0 0 256 256;" xml:space="preserve">
<style type="text/css">
	.st0{fill:#FFFFFF;}
</style>
<g>
	<path class="st0" d="M168.7,37.49l-1.23-1.56l-1.79-0.72c-0.84-0.34-8.46-3.2-15.98,0.63c-4.38,2.23-7.65,6.08-9.74,11.46
		c-3,2.79-11.17,9.57-26.63,16.8C91.77,74.19,65.45,80.82,35.08,83.83c-4.32-5.15-10.26-7.4-16.79-6.35
		c-4.72,0.76-8.2,2.99-8.85,3.43l-2.23,1.51L6.4,85.1c-3.83,12.64-5.89,25.02-6.11,36.79c-0.18,9.55,0.84,18.74,3.03,27.29
		c3.83,14.95,10.07,23.04,10.33,23.38l1.17,1.5l1.7,0.73c2.74,1.18,5.48,1.81,8.14,1.87c3.72,0.09,7.37-0.96,10.55-3.04
		c1.87-1.22,3.32-2.62,4.37-3.83c-0.02,5.01,0.34,9.89,1.08,14.57c1.07,6.79,2.94,13.24,5.56,19.16
		c4.58,10.36,10.03,15.75,10.26,15.98l2.69,2.63l3.58-0.73c5.34-1.08,11.85-4.69,19.35-10.73c5.5-4.43,9.59-8.62,10.04-9.08
		l6.26-6.47l-7.06-5.45c-8.07-6.24-12.7-16.64-15-23.42c13.17,0.96,25.99,3.5,38.15,7.56c14.56,4.87,24.18,10.55,27.87,12.93
		c1.58,2.52,4.93,6.7,10.54,8.51c1.61,0.52,3.28,0.8,4.98,0.84c4.32,0.1,8.85-1.36,13.48-4.35l1.54-0.99l0.93-1.64
		c0.49-0.86,12.01-21.39,17.27-50.18c3.12-17.07,3.39-33.53,0.8-48.92C188.66,70.59,180.84,52.93,168.7,37.49z M52.65,164.39
		c3.19-0.23,6.39-0.37,9.57-0.41c0.78,3.19,2.23,8.23,4.65,13.78c3.18,7.29,7.13,13.45,11.76,18.32c-3.43,3.06-10,8.55-15.43,10.89
		C59.43,201.9,51.07,187.78,52.65,164.39z M170.51,128.8c1.67-14.71,0.79-29.19-2.63-43.05c-4.33-17.59-11.63-29.64-15.26-34.86
		c0.71-1.23,1.57-2.12,2.56-2.63h0c1.67-0.86,3.62-0.71,4.78-0.49c18.53,24.37,24.78,54.07,18.58,88.27
		c-4.1,22.62-12.7,40.22-15.01,44.65c-2.7,1.51-5.01,1.99-6.86,1.41c-0.94-0.29-1.72-0.85-2.33-1.44
		C163.13,163.35,168.57,145.91,170.51,128.8z M145.64,172.89c-5.16-3.02-14.39-7.85-26.98-12.09c-11.77-3.96-24.1-6.61-36.65-7.88
		c-5.71-0.57-11.47-0.86-17.26-0.86c-8.91,0-17.89,0.68-26.86,2.04c-6.36-16.88-6.88-31.95-6.18-41.72
		c0.45-6.16,1.43-11.2,2.29-14.65c18.77-1.74,36.35-4.86,52.27-9.28c13.45-3.73,25.78-8.41,36.64-13.88
		c10.66-5.38,17.87-10.48,22.37-14.17c3.45,5.47,8.69,15.33,11.95,28.76C163.7,115.85,159.8,144.01,145.64,172.89z M28.35,162
		c-1.64,1-3.49,1.18-5.64,0.55c-3.62-5.69-16.45-29.82-4.78-70.82c0.68-0.28,1.52-0.55,2.43-0.68c1.47-0.21,2.65-0.01,3.68,0.64
		c-1.13,3.88-2.73,10.64-3.4,19.42c-0.62,8.16-0.31,16.43,0.92,24.58c1.34,8.84,3.77,17.58,7.24,26.01
		C28.66,161.8,28.51,161.9,28.35,162z"/>
	<path class="st0" d="M250.17,97.74l-1.44,1.92c-0.48,0.64-0.94,1.23-1.39,1.79c-7.69,9.73-13.44,8.85-15.18,4.72
		c-1.73-4.13,3.46-9.1,10.67-10.62c-1.82-2.19-9.48-10.63-20.71-11.98c-5.7-0.44-12.71,1.01-19.52,7.61l-2.07,2l0.44,2.94
		c0.03,0.2,2.9,19.97-0.68,34.83l-1.1,4.56l4.05,1.86c0.2,0.09,4.95,2.26,11.76,3.39c2.72,0.45,5.43,0.68,8.06,0.68
		c6.22,0,12-1.24,17.16-3.68c5.19-2.45,9.16-5.86,11.81-10.13c2.04-3.28,3.26-7.01,3.64-11.08c0.02-0.2,0.03-0.4,0.05-0.59
		C255.83,113.81,255.8,106.11,250.17,97.74z M212.33,97.98c3.37-2.39,7.05-3.18,10.97-2.35c-1.28,1.87-2.12,3.97-2.48,6.21
		c-0.92,5.74,1.47,11.66,6.24,15.44c3.86,3.07,8.05,4.19,12.44,3.35c1.44-0.28,2.88-0.77,4.29-1.48c-1.3,3.32-3.96,5.9-8.05,7.83
		c-6.8,3.21-14.04,2.94-18.92,2.15c-1.58-0.26-3.17-0.61-4.73-1.04C213.84,116.65,213.07,104.83,212.33,97.98z"/>
</g>
</svg>
