<?xml version="1.0" encoding="utf-8"?>
<!-- Generator: Adobe Illustrator 24.0.0, SVG Export Plug-In . SVG Version: 6.00 Build 0)  -->
<svg version="1.1" id="Layer_1" xmlns="http://www.w3.org/2000/svg" xmlns:xlink="http://www.w3.org/1999/xlink" x="0px" y="0px"
	 viewBox="0 0 256 256" style="enable-background:new 0 0 256 256;" xml:space="preserve">
<style type="text/css">
	.st0{fill:#FFFFFF;}
</style>
<g>
	<path d="M161.37,57.56c-12.1,7.23-16.05,22.96-8.82,35.06c7.23,12.1,22.96,16.05,35.06,8.82c12.1-7.23,16.05-22.96,8.82-35.06
		C189.19,54.29,173.47,50.33,161.37,57.56z M183.67,94.85c-8.46,5.06-19.47,2.29-24.53-6.17c-5.06-8.46-2.29-19.47,6.17-24.53
		c8.46-5.06,19.47-2.29,24.53,6.17C194.9,78.79,192.13,89.79,183.67,94.85z"/>
	<path d="M253.2,29.25l-2.5-0.95c-0.47-0.18-11.68-4.38-28.8-6.33c-15.75-1.8-39.8-1.96-64.94,7.46
		c-13.52,5.07-27.2,12.44-40.69,21.93c-13.57-6.8-28.11-5.36-38.15-2.84c-13.16,3.3-23.53,9.53-27.3,12.91
		C45.16,66.5,43.04,74,45.54,80.1c0.25,0.6,0.55,1.2,0.89,1.78c1.76,2.94,6.19,7.8,16.1,7.32c3.47-0.17,7.21,0.49,10.54,1.39
		l-0.39,0.47l-0.08,2.65c-0.51,17.08,10.64,35.93,11.12,36.72l2.95,4.94c0.47,0.79,11.81,19.54,27.09,27.17l2.37,1.19l0.59-0.12
		c-0.79,3.37-1.98,6.97-3.77,9.95c-5.12,8.51-2.94,14.71-1.18,17.65c0.35,0.58,0.73,1.13,1.14,1.63c4.18,5.09,11.79,6.78,18.93,4.19
		c4.76-1.72,15.15-7.92,24.29-17.94c6.97-7.65,15.13-19.78,15.56-34.95c14.75-7.39,27.71-15.96,38.58-25.47
		c20.2-17.69,31.43-38.96,37.3-53.68c6.37-15.98,7.99-27.86,8.05-28.36l0.35-2.65L253.2,29.25z M141.79,144.33
		c-3.98-3.77-13-13.06-23.13-28.29l-2.78-4.65c-8.63-16.14-12.53-28.49-13.97-33.78c13.98-12.53,34.83-28.31,59.1-37.4
		c37.21-13.94,72.52-5.2,82.7-2.1c-2.09,10.44-11.1,45.68-40.99,71.86C183.24,127.04,159.45,137.94,141.79,144.33z M56.19,75.72
		c-0.54-1.33,0.07-3.71,2.3-5.71c5.26-4.72,30.92-17.93,51.2-9.01C99.3,69.09,91.01,76.95,85.42,82.68
		c-4.54-1.92-14.22-5.44-23.44-4.99C58.92,77.84,56.76,77.11,56.19,75.72z M97.67,81.49c1.91,6.4,5.95,17.83,13.72,32.37l2.94,4.92
		l0.03,0.05c9.12,13.72,17.28,22.68,22.01,27.39c-9.07,3.05-15.88,4.75-18.62,5.38c-11.73-6.55-21.09-22-21.18-22.16l-2.95-4.94
		c-0.1-0.16-9.28-15.68-9.5-29.15C85.97,93.25,90.7,88.04,97.67,81.49z M122.84,179.47c4.76-7.91,6.24-18.1,6.7-23.01
		c7.69-2.22,18.54-5.8,30.58-11.13c-1.73,22.09-25.52,38.44-32.16,40.84c-2.82,1.02-5.21,0.43-6.12-0.68
		C120.89,184.35,121.27,182.09,122.84,179.47z"/>
	<path d="M86.86,153.54c-1.15-9.64-6.27-18.34-14.06-23.88c-3.01-2.14-6.73-3.78-10.76-4.74c-3.58-0.86-7.36-1.08-10.91-0.64
		c-3.99,0.49-7.86,1.52-11.83,3.14c-4.3,1.75-8.01,3.63-11.35,5.74c-6.59,4.16-12.1,9.17-16.39,14.9
		c-4.52,6.04-7.76,12.55-9.62,19.36c-1.81,6.62-2.36,13.63-1.6,20.28c0.84,7.29,3.02,14.26,6.48,20.71
		c0.61,1.13,1.23,2.23,1.86,3.29c3.83,6.4,8.15,11.51,12.9,15.24c3.01,2.37,5.85,4.1,8.68,5.28c3.21,1.35,6.43,2.19,9.84,2.58
		c2.17,0.24,4.4,0.23,6.67-0.03c0,0,22.27-2.12,30.08-20.16c0,0-9.65,3.82-13.99-3.65c-2.15-4.83-1.85-9.8-1.78-10.67
		c0.23-1.24,0.58-2.5,1.04-3.75c0.65-1.55,1.48-3.03,2.45-4.42c1.23-1.57,2.73-3.09,4.72-4.75c2.56-2.14,4.72-4.16,6.62-6.16
		c4.97-5.26,8.21-10.54,9.92-16.15c1.07-3.52,1.46-7.29,1.12-10.93C86.92,153.95,86.89,153.75,86.86,153.54z M58.33,181.34
		c-1.51,1.5-2.82,3.15-4.03,4.9c-1.83,2.63-3.19,5.58-4.09,8.67c-0.24-0.87-0.42-1.76-0.56-2.65c-0.22-1.89-0.26-3.79-0.16-5.69
		c0.03-0.5,0.18-2.36,0.62-4.74c0.04-0.2,0.08-0.39,0.13-0.59c0.05-0.19,0.08-0.39,0.1-0.59c0.6-2.81,1.61-6.1,3.28-8.76
		c0,0-11.19,2.79-17.09,13.01c0,0,0,0,0,0c-1.68,2.37-3.06,4.94-4.05,7.66c-0.83,2.26-1.26,4.71-1.28,7.11
		c-0.02,3.18,0.82,6.16,2.11,9.04c2.57,5.78,7.41,10.29,12.67,13.66c0.26,0.17,0.53,0.33,0.8,0.5c-0.23,0.04-0.46,0.09-0.7,0.13
		c-1.74,0.2-3.49,0.22-5.23,0.06c-1.74-0.25-3.44-0.69-5.09-1.29c-2.07-0.86-4.03-1.97-5.86-3.27c-2.58-1.97-4.86-4.28-6.92-6.78
		c-3.04-3.89-5.65-8.2-7.64-12.72c-1.48-3.59-2.54-7.35-3.12-11.19c-0.47-3.68-0.5-7.39-0.11-11.08c0.48-3.65,1.39-7.23,2.69-10.67
		c1.46-3.6,3.35-7,5.6-10.16c2.6-3.46,5.62-6.58,8.98-9.31c4.01-3.12,8.42-5.68,13.07-7.72c2.98-1.24,6.06-2.25,9.25-2.77
		c1.78-0.21,3.58-0.25,5.37-0.08c1.75,0.25,3.46,0.71,5.12,1.32c1.51,0.63,2.96,1.39,4.31,2.32c1.46,1.13,2.77,2.41,3.94,3.83
		c1.19,1.58,2.2,3.28,3.03,5.08c0.76,1.86,1.31,3.78,1.63,5.76c0.01,0.09,0.02,0.19,0.03,0.28c0.13,1.35,0.12,2.71,0,4.06
		c-0.23,1.62-0.64,3.2-1.21,4.73c-0.86,2.01-1.95,3.91-3.22,5.7c-2.26,3.01-4.92,5.69-7.73,8.18
		C61.43,178.63,59.8,179.88,58.33,181.34z"/>
</g>
</svg>
