<?xml version="1.0" encoding="utf-8"?>
<!-- Generator: Adobe Illustrator 24.0.0, SVG Export Plug-In . SVG Version: 6.00 Build 0)  -->
<svg version="1.1" id="Layer_1" xmlns="http://www.w3.org/2000/svg" xmlns:xlink="http://www.w3.org/1999/xlink" x="0px" y="0px"
	 viewBox="0 0 256 256" style="enable-background:new 0 0 256 256;" xml:space="preserve">
<style type="text/css">
	.st0{fill:#FFFFFF;}
</style>
<circle class="st0" cx="128" cy="128" r="128"/>
<g>
	<path d="M180.3,85.2c-3.74-8.28-13.52-11.96-21.8-8.22c-8.28,3.74-11.96,13.52-8.22,21.8s13.52,11.96,21.8,8.22
		C180.36,103.26,184.05,93.48,180.3,85.2z M170.04,102.49c-5.79,2.62-12.63,0.04-15.25-5.75s-0.04-12.63,5.75-15.25
		c5.79-2.62,12.63-0.04,15.25,5.75C178.42,93.03,175.83,99.87,170.04,102.49z"/>
	<path d="M219.5,65.48l-1.58-0.82c-0.29-0.15-7.17-3.67-18.01-6.18c-9.97-2.31-25.38-4.19-42.2,0c-9.02,2.25-18.3,5.95-27.62,11.02
		c-8.21-5.33-17.63-5.47-24.25-4.59c-8.69,1.15-15.83,4.39-18.5,6.29c-4.05,2.87-5.98,7.59-4.8,11.74c0.12,0.41,0.27,0.82,0.45,1.23
		c0.93,2.05,3.44,5.54,9.91,5.96c2.13,0.14,4.36,0.78,6.36,1.56l-0.14,0.13l-0.25,1.75c-1.58,10.94,4.19,23.87,4.43,24.42l1.53,3.38
		c0.25,0.55,6.14,13.42,15.41,19.46l1.48,0.96l0.19-0.02c-0.74,2.01-1.73,4.11-3.03,5.8c-3.96,5.14-2.99,9.34-2.07,11.38
		c0.18,0.4,0.39,0.79,0.62,1.15c2.34,3.62,7.16,5.29,11.99,4.15c3.19-0.76,10.33-3.97,16.94-9.74c5.03-4.39,11.14-11.55,12.57-21.24
		c9.96-3.65,18.87-8.17,26.51-13.46c14.26-9.86,23.03-22.68,27.87-31.69c5.27-9.8,7.17-17.29,7.25-17.61l0.43-1.73L219.5,65.48z
		 M93.4,82.57c-1.97-0.13-3.29-0.76-3.56-1.68c-0.25-0.89,0.32-2.37,1.89-3.49c3.71-2.63,21.11-9.21,33.44-2.01
		c-7.25,4.42-13.13,8.84-17.14,12.09C105.27,85.92,99.33,82.95,93.4,82.57z M106.27,95.51c1.34-1.22,4.75-4.2,9.7-7.88
		c0.75,4.24,2.5,11.85,6.4,21.72l1.52,3.36l0.02,0.04c4.83,9.45,9.4,15.79,12.08,19.16c-6.03,1.29-10.52,1.87-12.32,2.08
		c-7.03-5.05-11.88-15.64-11.93-15.74l-1.53-3.38C110.17,114.76,105.43,104.12,106.27,95.51z M123.8,155.99
		c-0.53-0.82-0.12-2.22,1.09-3.78c3.63-4.71,5.33-11.13,5.98-14.24c5.08-0.86,12.3-2.35,20.4-4.88
		c-2.73,14.01-19.16,22.74-23.59,23.79C125.79,157.32,124.3,156.76,123.8,155.99z M139.6,131.09c-2.27-2.7-7.35-9.29-12.73-19.81
		l-1.44-3.18c-4.33-10.96-5.93-19.15-6.47-22.64c9.88-7,24.39-15.58,40.58-19.61c24.85-6.19,46.81,2,53.1,4.73
		c-2.11,6.53-10.46,28.43-31.52,43C167.41,123.07,151.38,128.3,139.6,131.09z"/>
	<path d="M101.31,124.25c-1.35-2.52-2.91-4.65-4.66-6.34c-1.77-1.71-3.63-3.02-5.68-4c-1.5-0.72-3.19-1.22-5-1.5
		c-1.01-0.15-2.07-0.21-3.22-0.16c-0.85-0.65-1.76-1.26-2.71-1.8c-4.19-2.4-8.49-3.45-12.78-3.1c-5.42,0.44-10.76,3.41-14.66,8.17
		c-3.07,3.74-4.88,8.74-4.98,13.74c-0.06,3.35,0.51,6.54,1.66,9.35c-1.74,1.65-3.4,3.44-4.94,5.34c-2.38,2.92-4.38,6.11-5.96,9.46
		c-1.87,3.97-3.01,8.25-3.3,12.36c-0.36,5.07,0.47,10.15,2.47,15.1c0.18,0.46,0.38,0.91,0.58,1.36c2.02,4.46,4.88,8.32,8.33,11.25
		c3.09,2.62,6.89,4.53,10.98,5.53c3.65,0.89,7.41,1.19,11.49,0.91c1.68-0.12,3.41-0.34,5.13-0.67c1.26-0.16,11.37-1.62,16.1-8.45
		l3.26-4.71l-5.7,0.58c-0.05,0-4.74,0.47-8.68,0.16c-0.49-0.06-1.03-0.14-1.65-0.25c-0.45-0.08-0.93-0.18-1.47-0.3
		c-2.12-0.53-4.1-1.26-5.88-2.18c-1.37-0.76-2.62-1.63-3.71-2.61c-0.94-0.91-1.78-1.92-2.48-3c-0.6-1.01-1.07-2.03-1.41-3.03
		c-0.22-0.81-0.35-1.63-0.4-2.44c0.01-0.78,0.09-1.57,0.25-2.35c0.26-0.96,0.63-1.94,1.12-2.9c0.74-1.32,1.7-2.63,2.84-3.9
		c0.11-0.12,0.23-0.24,0.35-0.36c2.55,2.09,5.31,3.6,8.01,4.4c2.18,0.64,4.31,0.89,6.49,0.74c2.12-0.14,4.29-0.79,6.63-1.97
		c2.44-1.23,4.55-2.71,6.27-4.38c1.85-1.8,3.32-3.78,4.5-6.05c1.87-3.62,2.49-7.87,1.74-11.6c0.43-0.66,0.85-1.38,1.26-2.18
		c1.75-3.37,2.47-7.33,2.04-11.14C103.28,128.94,102.5,126.49,101.31,124.25z M92.71,146.82c0.03,0.26,0.06,0.53,0.07,0.79
		c0,0.87-0.1,1.74-0.27,2.59c-0.26,0.98-0.62,1.93-1.07,2.83c-0.6,1.07-1.32,2.07-2.14,2.99c-1.04,1.07-2.21,2.02-3.47,2.83
		c-1.13,0.68-2.32,1.29-3.57,1.71c-0.74,0.2-1.49,0.32-2.25,0.36c-0.81-0.01-1.62-0.09-2.41-0.26c-1.09-0.29-2.13-0.7-3.14-1.21
		c-1.51-0.84-2.91-1.88-4.19-3.04c0,0-0.01-0.01-0.01-0.01c1.52-1.89,5.11-6.02,8.59-7.45c0,0-9.14-0.41-15.87,7.27c0,0,0,0,0,0
		c-0.74,0.66-1.45,1.36-2.11,2.07c-3.04,3.25-5.41,7.01-6.29,11.42c-1.08,5.44,0.96,11.04,4.41,15.24c2.61,3.18,6.1,5.55,9.88,7.14
		c-0.72,0.07-1.45,0.11-2.17,0.14c-2.35,0.03-4.71-0.17-7-0.69c-1.72-0.44-3.39-1.05-4.97-1.86c-1.45-0.8-2.81-1.77-4.04-2.87
		c-1.41-1.34-2.63-2.86-3.69-4.49c-1.32-2.18-2.37-4.52-3.13-6.95c-0.62-2.17-0.99-4.41-1.08-6.67c-0.02-2.16,0.21-4.32,0.68-6.43
		c0.63-2.51,1.57-4.92,2.76-7.21c1.39-2.57,3.07-4.97,4.96-7.2c0.41-0.49,0.84-0.97,1.28-1.45c0.09-0.09,0.18-0.19,0.27-0.28
		c0.87-0.84,8.26-7.87,15.09-10.34c0,0-5.97-0.47-10.57,1.39c-0.51-0.89-0.92-1.84-1.23-2.82c-0.35-1.28-0.55-2.6-0.62-3.93
		c-0.02-1.43,0.13-2.86,0.43-4.25c0.32-1.22,0.76-2.4,1.32-3.53c0.62-1.11,1.36-2.15,2.21-3.1c0.96-0.98,2.03-1.85,3.18-2.6
		c0.99-0.59,2.04-1.08,3.13-1.45c0.99-0.27,2.01-0.44,3.03-0.49c1.04,0,2.08,0.11,3.1,0.33c1.31,0.34,2.56,0.83,3.76,1.45
		c0.46,0.26,0.92,0.53,1.36,0.82c-3.75,2.83-5.03,7.8-5.03,7.8c5.49-5.51,12.1-5.36,13.33-5.28c0.17,0.03,0.34,0.07,0.51,0.1
		c0.86,0.23,1.69,0.55,2.49,0.94c0.95,0.54,1.84,1.18,2.66,1.91c1.09,1.07,2.04,2.27,2.87,3.55c0.67,1.12,1.24,2.29,1.65,3.53
		c0.28,1,0.45,2.03,0.5,3.06c0,0.41-0.02,0.83-0.05,1.24c-0.17,1.28-1.45,7.56-11,13.45C84.86,147.96,89.54,148.67,92.71,146.82z"/>
</g>
</svg>
