<?xml version="1.0" encoding="utf-8"?>
<!-- Generator: Adobe Illustrator 24.0.0, SVG Export Plug-In . SVG Version: 6.00 Build 0)  -->
<svg version="1.1" id="Layer_1" xmlns="http://www.w3.org/2000/svg" xmlns:xlink="http://www.w3.org/1999/xlink" x="0px" y="0px"
	 viewBox="0 0 256 256" style="enable-background:new 0 0 256 256;" xml:space="preserve">
<style type="text/css">
	.st0{fill:#FFFFFF;}
</style>
<g>
	<path class="st0" d="M199.99,69.09c-5.15-11.39-18.61-16.47-30-11.31c-11.39,5.15-16.47,18.61-11.31,30s18.61,16.47,30,11.31
		C200.06,93.94,205.14,80.49,199.99,69.09z M185.87,92.89c-7.97,3.6-17.39,0.05-20.99-7.92c-3.6-7.97-0.05-17.39,7.92-20.99
		c7.97-3.6,17.39-0.05,20.99,7.92C197.39,79.87,193.84,89.29,185.87,92.89z"/>
	<path class="st0" d="M253.94,41.95l-2.17-1.12c-0.4-0.2-9.87-5.05-24.79-8.51c-13.72-3.18-34.93-5.76-58.09,0.01
		c-12.41,3.09-25.19,8.19-38.01,15.17c-11.3-7.33-24.26-7.52-33.37-6.32c-11.97,1.59-21.78,6.05-25.46,8.65
		c-5.57,3.95-8.23,10.44-6.61,16.16c0.16,0.57,0.37,1.13,0.62,1.69c1.27,2.82,4.74,7.62,13.64,8.21c2.93,0.19,6,1.08,8.75,2.14
		l-0.19,0.18l-0.35,2.41c-2.18,15.06,5.76,32.86,6.1,33.61l2.1,4.65c0.34,0.75,8.46,18.47,21.21,26.78l2.04,1.33l0.26-0.02
		c-1.02,2.77-2.38,5.66-4.17,7.99c-5.44,7.07-4.12,12.85-2.85,15.66c0.25,0.55,0.54,1.09,0.86,1.58c3.22,4.99,9.85,7.28,16.5,5.71
		c4.39-1.04,14.22-5.47,23.31-13.41c6.92-6.04,15.34-15.9,17.3-29.23c13.71-5.02,25.97-11.25,36.49-18.53
		c19.62-13.58,31.69-31.21,38.37-43.61c7.25-13.49,9.87-23.8,9.98-24.23l0.59-2.38L253.94,41.95z M80.37,65.47
		c-2.71-0.18-4.53-1.04-4.9-2.32c-0.35-1.22,0.44-3.27,2.6-4.8c5.11-3.62,29.06-12.68,46.03-2.76
		c-9.97,6.08-18.08,12.17-23.58,16.65C96.72,70.08,88.54,66,80.37,65.47z M98.1,83.28c1.85-1.67,6.54-5.78,13.35-10.84
		c1.04,5.84,3.44,16.31,8.81,29.9l2.09,4.63l0.02,0.05c6.65,13.01,12.93,21.73,16.63,26.36c-8.3,1.77-14.48,2.58-16.95,2.86
		c-9.67-6.96-16.36-21.52-16.42-21.67l-2.1-4.65C103.45,109.77,96.94,95.13,98.1,83.28z M122.22,166.52
		c-0.72-1.12-0.16-3.06,1.49-5.21c4.99-6.48,7.33-15.32,8.23-19.6c7-1.18,16.92-3.24,28.08-6.72
		c-3.76,19.29-26.37,31.29-32.47,32.74C124.97,168.35,122.91,167.59,122.22,166.52z M143.96,132.26
		c-3.12-3.72-10.11-12.78-17.52-27.26l-1.98-4.38c-5.96-15.09-8.16-26.36-8.9-31.17c13.6-9.63,33.57-21.44,55.85-26.99
		c34.2-8.52,64.43,2.75,73.09,6.51c-2.9,8.99-14.4,39.13-43.38,59.18C182.24,121.21,160.17,128.41,143.96,132.26z"/>
	<path class="st0" d="M91.26,122.84c-1.85-3.47-4.01-6.41-6.41-8.73c-2.44-2.36-4.99-4.16-7.82-5.5c-2.07-0.99-4.38-1.68-6.89-2.06
		c-1.39-0.21-2.85-0.29-4.43-0.22c-1.17-0.9-2.42-1.73-3.73-2.48c-5.77-3.31-11.69-4.75-17.59-4.27c-7.45,0.6-14.81,4.7-20.17,11.24
		c-4.22,5.14-6.72,12.03-6.85,18.91c-0.09,4.61,0.7,9,2.29,12.87c-2.39,2.27-4.68,4.73-6.8,7.35c-3.27,4.02-6.03,8.41-8.21,13.03
		c-2.58,5.47-4.15,11.35-4.55,17.01c-0.49,6.97,0.65,13.97,3.4,20.78c0.25,0.63,0.52,1.25,0.8,1.87
		c2.77,6.13,6.71,11.46,11.47,15.48c4.25,3.6,9.48,6.23,15.11,7.61c5.03,1.23,10.2,1.64,15.82,1.25c2.32-0.16,4.69-0.47,7.07-0.93
		c1.74-0.22,15.65-2.23,22.16-11.63l4.49-6.48l-7.84,0.8c-0.06,0.01-6.53,0.65-11.95,0.22c-0.67-0.08-1.42-0.19-2.27-0.34
		c-0.62-0.11-1.28-0.24-2.02-0.41c-2.92-0.73-5.64-1.74-8.1-3c-1.88-1.04-3.6-2.25-5.11-3.59c-1.3-1.25-2.45-2.64-3.42-4.12
		c-0.82-1.39-1.48-2.79-1.94-4.17c-0.3-1.11-0.49-2.24-0.55-3.36c0.01-1.08,0.12-2.16,0.34-3.24c0.35-1.33,0.87-2.67,1.54-3.99
		c1.02-1.82,2.34-3.63,3.91-5.36c0.16-0.17,0.32-0.33,0.48-0.49c3.51,2.87,7.31,4.96,11.03,6.06c3,0.89,5.93,1.22,8.93,1.01
		c2.92-0.2,5.9-1.09,9.13-2.72c3.36-1.7,6.26-3.72,8.63-6.03c2.55-2.47,4.58-5.2,6.19-8.33c2.57-4.98,3.43-10.84,2.4-15.97
		c0.59-0.91,1.16-1.9,1.73-3c2.4-4.64,3.4-10.09,2.81-15.33C93.98,129.29,92.91,125.93,91.26,122.84z M79.43,153.91
		c0.04,0.36,0.08,0.72,0.1,1.09c0,1.2-0.13,2.39-0.38,3.57c-0.36,1.35-0.85,2.65-1.48,3.9c-0.83,1.48-1.82,2.85-2.95,4.11
		c-1.44,1.48-3.05,2.78-4.78,3.9c-1.55,0.93-3.2,1.77-4.92,2.35c-1.02,0.27-2.05,0.44-3.1,0.5c-1.12-0.01-2.23-0.13-3.32-0.36
		c-1.5-0.4-2.94-0.97-4.31-1.67c-2.08-1.16-4-2.59-5.77-4.19c-0.01-0.01-0.01-0.01-0.02-0.02c2.09-2.6,7.03-8.28,11.82-10.26
		c0,0-12.58-0.57-21.85,10.01c0,0,0,0,0,0c-1.02,0.91-1.99,1.87-2.91,2.85c-4.18,4.47-7.45,9.65-8.66,15.72
		c-1.49,7.48,1.32,15.2,6.07,20.97c3.6,4.37,8.39,7.64,13.6,9.83c-0.99,0.09-1.99,0.16-2.99,0.19c-3.24,0.04-6.48-0.24-9.64-0.95
		c-2.37-0.6-4.66-1.45-6.84-2.56c-2-1.11-3.86-2.43-5.57-3.95c-1.93-1.85-3.62-3.93-5.07-6.18c-1.82-3-3.27-6.22-4.31-9.57
		c-0.85-2.99-1.36-6.07-1.48-9.18c-0.03-2.98,0.29-5.94,0.94-8.85c0.86-3.45,2.16-6.77,3.8-9.92c1.92-3.53,4.23-6.84,6.82-9.91
		c0.57-0.68,1.16-1.34,1.76-1.99c0.12-0.13,0.24-0.26,0.37-0.39c1.2-1.16,11.36-10.83,20.76-14.24c0,0-8.22-0.65-14.54,1.92
		c-0.71-1.23-1.26-2.53-1.69-3.88c-0.48-1.76-0.76-3.58-0.85-5.4c-0.02-1.97,0.17-3.93,0.59-5.86c0.44-1.68,1.04-3.31,1.82-4.86
		c0.86-1.53,1.87-2.96,3.04-4.27c1.32-1.35,2.79-2.54,4.37-3.58c1.37-0.81,2.8-1.49,4.31-1.99c1.37-0.38,2.76-0.6,4.18-0.68
		c1.43,0,2.86,0.16,4.26,0.46c1.8,0.47,3.53,1.15,5.18,2c0.64,0.36,1.26,0.73,1.87,1.13c-5.17,3.9-6.92,10.74-6.92,10.74
		c7.55-7.58,16.65-7.38,18.35-7.27c0.24,0.04,0.47,0.09,0.71,0.14c1.18,0.32,2.33,0.75,3.43,1.29c1.31,0.74,2.53,1.63,3.66,2.63
		c1.51,1.47,2.81,3.12,3.95,4.89c0.93,1.54,1.71,3.16,2.28,4.86c0.38,1.38,0.61,2.79,0.69,4.22c0,0.57-0.02,1.14-0.07,1.71
		c-0.23,1.76-2,10.4-15.14,18.52C68.62,155.47,75.07,156.46,79.43,153.91z"/>
</g>
</svg>
