<?xml version="1.0" encoding="utf-8"?>
<!-- Generator: Adobe Illustrator 24.0.0, SVG Export Plug-In . SVG Version: 6.00 Build 0)  -->
<svg version="1.1" id="Layer_1" xmlns="http://www.w3.org/2000/svg" xmlns:xlink="http://www.w3.org/1999/xlink" x="0px" y="0px"
	 viewBox="0 0 256 256" style="enable-background:new 0 0 256 256;" xml:space="preserve">
<style type="text/css">
	.st0{fill:#FFFFFF;}
</style>
<g>
	<path class="st0" d="M174.13,174.16c-24.08-19.29-52.99-20.02-52.99-20.02s-77.42,1.95-84.43,84.04h84.43h19.95
		c-2.8-5.88-4.37-12.46-4.37-19.4C136.73,196.49,152.91,177.92,174.13,174.16z"/>
	<path class="st0" d="M182.06,181.56c-20.52,0-37.22,16.7-37.22,37.22c0,20.52,16.7,37.22,37.22,37.22
		c20.52,0,37.22-16.7,37.22-37.22C219.28,198.26,202.58,181.56,182.06,181.56z M203.42,223.72H187v16.42c0,2.73-2.21,4.94-4.94,4.94
		c-2.73,0-4.94-2.21-4.94-4.94v-16.42H160.7c-2.73,0-4.94-2.21-4.94-4.94c0-2.73,2.21-4.94,4.94-4.94h16.42v-16.42
		c0-2.73,2.21-4.94,4.94-4.94c2.73,0,4.94,2.21,4.94,4.94v16.42h16.42c2.73,0,4.94,2.21,4.94,4.94
		C208.36,221.51,206.15,223.72,203.42,223.72z"/>
	<path class="st0" d="M114.61,138.81c2.13,0.35,4.31,0.55,6.53,0.55c0,0,0.51,0.01,1.43-0.04c2.02-0.07,3.99-0.29,5.92-0.66
		c9.85-1.65,27.25-7.2,37.16-25.84c14.38-27.05-1.89-63.2-1.89-63.2s-0.44,12.11-8.59,16.9c0,0,8.77-15.35-11.21-32.41
		C123.99,17.06,130.08,0,130.08,0s-22.91,7.55-26.07,22.42c-3.17,14.86,6.34,21.72,0,29.24c-4.92,5.83-14.86,1.22-12.43-14.38
		c0,0-24.7,22.66-19.59,59.71C76.45,129.27,98.82,136.88,114.61,138.81z"/>
</g>
</svg>
