<?xml version="1.0" encoding="utf-8"?>
<!-- Generator: Adobe Illustrator 24.0.0, SVG Export Plug-In . SVG Version: 6.00 Build 0)  -->
<svg version="1.1" id="Layer_1" xmlns="http://www.w3.org/2000/svg" xmlns:xlink="http://www.w3.org/1999/xlink" x="0px" y="0px"
	 viewBox="0 0 256 256" style="enable-background:new 0 0 256 256;" xml:space="preserve">
<style type="text/css">
	.st0{fill:#FFFFFF;}
</style>
<circle cx="128" cy="128" r="128"/>
<g>
	<path class="st0" d="M161.28,161.3c-17.37-13.91-38.22-14.44-38.22-14.44s-55.85,1.4-60.9,60.62h60.9h14.39
		c-2.02-4.24-3.15-8.99-3.15-13.99C134.3,177.4,145.97,164.01,161.28,161.3z"/>
	<path class="st0" d="M166.99,166.63c-14.8,0-26.85,12.04-26.85,26.85c0,14.8,12.04,26.85,26.85,26.85
		c14.8,0,26.85-12.04,26.85-26.85C193.84,178.68,181.8,166.63,166.99,166.63z M182.4,197.04h-11.85v11.85
		c0,1.97-1.59,3.56-3.56,3.56c-1.97,0-3.56-1.59-3.56-3.56v-11.85h-11.85c-1.97,0-3.56-1.59-3.56-3.56c0-1.97,1.59-3.56,3.56-3.56
		h11.85v-11.85c0-1.97,1.59-3.56,3.56-3.56c1.97,0,3.56,1.59,3.56,3.56v11.85h11.85c1.97,0,3.56,1.59,3.56,3.56
		C185.97,195.45,184.37,197.04,182.4,197.04z"/>
	<path class="st0" d="M118.34,135.8c1.53,0.26,3.11,0.4,4.71,0.4c0,0,0.37,0.01,1.03-0.03c1.45-0.05,2.88-0.21,4.27-0.47
		c7.11-1.19,19.65-5.19,26.8-18.64c10.37-19.51-1.36-45.59-1.36-45.59s-0.32,8.74-6.2,12.19c0,0,6.33-11.07-8.09-23.38
		c-14.41-12.3-10.02-24.61-10.02-24.61s-16.52,5.45-18.81,16.17c-2.28,10.72,4.57,15.67,0,21.09c-3.55,4.21-10.72,0.88-8.96-10.37
		c0,0-17.82,16.35-14.13,43.07C90.81,128.91,106.95,134.4,118.34,135.8z"/>
</g>
</svg>
