<?xml version="1.0" encoding="utf-8"?>
<!-- Generator: Adobe Illustrator 24.0.0, SVG Export Plug-In . SVG Version: 6.00 Build 0)  -->
<svg version="1.1" id="Layer_1" xmlns="http://www.w3.org/2000/svg" xmlns:xlink="http://www.w3.org/1999/xlink" x="0px" y="0px"
	 viewBox="0 0 96 96" style="enable-background:new 0 0 96 96;" xml:space="preserve">
<style type="text/css">
	.st0{fill:#FFBB24;}
	.st1{fill:#8799A0;}
	.st2{fill:#FFFFFF;}
</style>
<g>
	<circle class="st2" cx="48" cy="48" r="47.89"/>
	<g>
		<g>
			<g>
				<path d="M60.48,42.77c-0.68-1.61-1.66-3.06-2.9-4.31c-1.24-1.24-2.69-2.22-4.31-2.9C51.6,34.85,49.83,34.5,48,34.5
					s-3.6,0.36-5.27,1.07c-1.61,0.68-3.06,1.66-4.31,2.9c-1.24,1.24-2.22,2.69-2.9,4.31c-0.71,1.67-1.07,3.45-1.07,5.27
					c0,1.83,0.36,3.6,1.07,5.27c0.68,1.61,1.66,3.06,2.9,4.31c1.24,1.24,2.69,2.22,4.31,2.9c1.67,0.71,3.45,1.07,5.27,1.07
					c1.83,0,3.6-0.36,5.27-1.07c1.61-0.68,3.06-1.66,4.31-2.9c1.24-1.24,2.22-2.69,2.9-4.31c0.71-1.67,1.07-3.45,1.07-5.27
					C61.55,46.22,61.19,44.44,60.48,42.77z M59.8,48.04c0,6.51-5.29,11.8-11.8,11.8s-11.8-5.29-11.8-11.8
					c0-6.51,5.29-11.8,11.8-11.8S59.8,41.54,59.8,48.04z"/>
			</g>
			<g>
				<path d="M48,37.35c-2.86,0-5.54,1.11-7.56,3.13c-2.02,2.02-3.13,4.7-3.13,7.56s1.11,5.54,3.13,7.56
					c2.02,2.02,4.7,3.13,7.56,3.13c2.86,0,5.54-1.11,7.56-3.13c2.02-2.02,3.13-4.7,3.13-7.56s-1.11-5.54-3.13-7.56
					C53.54,38.47,50.86,37.35,48,37.35z M48,57.78c-5.37,0-9.73-4.37-9.73-9.73c0-5.37,4.37-9.73,9.73-9.73
					c5.37,0,9.73,4.37,9.73,9.73C57.73,53.41,53.37,57.78,48,57.78z"/>
			</g>
			<g>
				<path d="M49.28,51.4c-0.1-0.08-0.37-0.29-0.82-0.61c-0.48-0.35-0.77-0.57-0.86-0.68c-0.07-0.08-0.11-0.16-0.11-0.25
					c0-0.09,0.05-0.17,0.15-0.24c0.1-0.07,0.22-0.11,0.38-0.11c0.32,0,0.63,0.18,0.93,0.54l0.87-0.66
					c-0.32-0.32-0.63-0.54-0.91-0.67c-0.28-0.12-0.57-0.18-0.88-0.18c-0.02,0-0.04,0-0.06,0v-0.52h-0.64v0.63
					c-0.19,0.07-0.36,0.16-0.51,0.28c-0.33,0.26-0.49,0.57-0.49,0.94c0,0.25,0.1,0.51,0.29,0.76c0.2,0.25,0.63,0.62,1.3,1.08
					c0.35,0.25,0.58,0.43,0.69,0.55c0.1,0.12,0.16,0.24,0.16,0.36c0,0.13-0.07,0.25-0.21,0.35c-0.14,0.1-0.31,0.15-0.51,0.15
					c-0.39,0-0.73-0.23-1.03-0.7l-0.99,0.51c0.23,0.39,0.51,0.68,0.84,0.87c0.32,0.18,0.69,0.27,1.11,0.28v0.59h0.64v-0.65
					c0.3-0.07,0.55-0.19,0.77-0.36c0.35-0.28,0.53-0.64,0.53-1.07c0-0.22-0.05-0.43-0.15-0.61C49.69,51.81,49.52,51.61,49.28,51.4z"
					/>
			</g>
			<g>
				<path d="M52.03,44.52l-0.67-0.61l0.09,0.9c0.04,0.41,0.05,1.57-0.42,1.99c-0.16,0.14-0.38,0.19-0.66,0.13
					c-0.26-0.05-0.43-0.14-0.5-0.27c-0.17-0.29,0.06-0.94,0.29-1.57c0.23-0.64,0.48-1.36,0.48-2.06c0-0.95-0.34-1.85-0.97-2.53
					c-0.64-0.69-1.5-1.08-2.42-1.09l-0.52-0.01l0.2,0.48c0.02,0.05,0.51,1.31-0.43,2.83c-1.12,1.8-1.55,2.65-1.87,4
					c-0.12-0.49-0.16-1.14,0.03-1.9l0.23-0.9l-0.76,0.53c-0.04,0.02-0.88,0.62-1.61,1.82c-0.66,1.1-1.35,2.95-0.82,5.48l0,0.01
					c0.35,1.39,1.13,2.55,2.24,3.35c1.1,0.8,2.51,1.22,4.08,1.22c1.53,0,3.01-0.47,4.16-1.33c0.89-0.67,1.54-1.53,1.88-2.49
					c0.05-0.14,0.43-1.22,0.4-2.68C54.44,48.4,53.99,46.32,52.03,44.52z M53.63,51.55l-0.01,0c-0.04,0.23-0.09,0.45-0.16,0.67
					c-0.01,0.04-0.02,0.06-0.02,0.06l0,0c-0.7,1.96-2.88,3.37-5.4,3.37c-2.89,0-5-1.51-5.65-4.05c-0.38-1.84-0.14-3.51,0.73-4.95
					c0.25-0.42,0.51-0.75,0.75-1.01c-0.06,1.44,0.58,2.38,0.61,2.43l0.47,0.68l0.15-0.81c0.35-1.89,0.57-2.56,2-4.86
					c0.76-1.21,0.73-2.31,0.62-2.93c1.3,0.25,2.26,1.43,2.26,2.89c0,0.58-0.23,1.22-0.44,1.83c-0.29,0.81-0.56,1.57-0.24,2.13
					c0.17,0.31,0.49,0.51,0.96,0.6c0.63,0.13,1.03-0.09,1.26-0.29c0.45-0.41,0.6-1.12,0.65-1.69c1.05,1.19,1.6,2.6,1.64,4.2
					C53.81,50.51,53.72,51.11,53.63,51.55z"/>
			</g>
		</g>
		<path d="M79.46,68.78h-1.53v-1.14c0-2.25-1.83-4.07-4.07-4.07h-0.31v-2.8c0-0.64-0.46-1.18-1.07-1.29l-0.52-24.39h3.88
			c0.92,0,1.67-0.75,1.67-1.67v-3.35c0.94-0.73,1.56-1.87,1.56-3.15v-1.57c0-0.95-0.53-1.8-1.38-2.23L48,8.27L18.31,23.11
			c-0.85,0.42-1.38,1.28-1.38,2.23v1.57c0,1.28,0.61,2.42,1.56,3.15v3.35c0,0.92,0.75,1.67,1.67,1.67h3.88l-0.52,24.39
			c-0.61,0.12-1.07,0.65-1.07,1.29v2.8h-0.31c-2.25,0-4.07,1.83-4.07,4.07v1.14h-1.53c-1.05,0-1.9,0.85-1.9,1.9v3.06
			c0,1.05,0.85,1.9,1.9,1.9H48h31.46c1.05,0,1.9-0.85,1.9-1.9v-3.06C81.36,69.63,80.51,68.78,79.46,68.78z M19.05,26.91v-1.57
			c0-0.14,0.08-0.27,0.21-0.34L48,10.63L76.74,25c0.13,0.06,0.21,0.19,0.21,0.34v1.57c0,1.03-0.84,1.88-1.88,1.88H20.92
			C19.89,28.78,19.05,27.94,19.05,26.91z M20.6,32.97v-2.09c0.11,0.01,0.21,0.02,0.32,0.02h54.15c0.11,0,0.21-0.01,0.32-0.02v2.09
			H59.16h-7.24H48h-3.92h-7.24H20.6z M71.44,61.56v2.01h-6.27v-2.01H71.44z M66.25,59.45l0.51-24.04h3.11l0.51,24.04H66.25z
			 M59.72,59.14l-0.11-5.04c-0.55,1.06-1.24,2.03-2.05,2.89l0.05,2.13h-2.62c-1.41,0.89-3,1.52-4.7,1.82v2.63H48h-2.29v-2.63
			c-1.7-0.3-3.29-0.93-4.7-1.82H38.4l0.05-2.13c-0.81-0.86-1.5-1.83-2.05-2.89l-0.11,5.04c-0.61,0.12-1.07,0.65-1.07,1.29v3.13
			h-2.27v-2.8c0-0.64-0.46-1.18-1.08-1.3l-0.51-24.39h5.44l-0.14,6.42c0.6-1.03,1.33-1.97,2.17-2.8l0.08-3.62h3.11l0.03,1.3
			c0.67-0.34,1.37-0.63,2.09-0.85l-0.01-0.45h2.02c0.6-0.09,1.22-0.13,1.85-0.13s1.24,0.05,1.85,0.13h2.02l-0.01,0.45
			c0.73,0.22,1.43,0.51,2.09,0.85l0.03-1.3h3.11l0.08,3.61c0.84,0.83,1.58,1.77,2.17,2.8l-0.14-6.42h5.44l-0.51,24.39
			c-0.61,0.11-1.08,0.65-1.08,1.3v2.8h-2.27v-3.13C60.79,59.8,60.32,59.26,59.72,59.14z M58.67,61.23v2.34H52.4v-2.34H58.67z
			 M43.6,61.23v2.34h-6.27v-2.34H43.6z M30.83,61.56v2.01h-6.27v-2.01H30.83z M25.63,59.45l0.51-24.04h3.11l0.51,24.04H25.63z
			 M20.18,67.64c0-1.08,0.88-1.96,1.96-1.96H48h25.86c1.08,0,1.96,0.88,1.96,1.96v1.14H48H20.18V67.64z M79.25,73.53H48H16.75v-2.64
			h1.31H48h29.94h1.31V73.53z"/>
	</g>
</g>
</svg>
