<?xml version="1.0" encoding="utf-8"?>
<!-- Generator: Adobe Illustrator 24.0.0, SVG Export Plug-In . SVG Version: 6.00 Build 0)  -->
<svg version="1.1" id="Layer_1" xmlns="http://www.w3.org/2000/svg" xmlns:xlink="http://www.w3.org/1999/xlink" x="0px" y="0px"
	 viewBox="0 0 96 96" style="enable-background:new 0 0 96 96;" xml:space="preserve">
<style type="text/css">
	.st0{fill:#FFBB24;}
	.st1{fill:#8799A0;}
	.st2{fill:#FFFFFF;}
</style>
<g>
	<circle cx="48" cy="48" r="47.65"/>
	<g>
		<g>
			<g>
				<path class="st2" d="M60.42,42.8c-0.68-1.61-1.65-3.05-2.89-4.29c-1.24-1.24-2.68-2.21-4.29-2.89c-1.66-0.7-3.43-1.06-5.25-1.06
					s-3.59,0.36-5.25,1.06c-1.61,0.68-3.05,1.65-4.29,2.89c-1.24,1.24-2.21,2.68-2.89,4.29c-0.7,1.66-1.06,3.43-1.06,5.25
					c0,1.82,0.36,3.59,1.06,5.25c0.68,1.61,1.65,3.05,2.89,4.29c1.24,1.24,2.68,2.21,4.29,2.89c1.66,0.7,3.43,1.06,5.25,1.06
					c1.82,0,3.59-0.36,5.25-1.06c1.61-0.68,3.05-1.65,4.29-2.89c1.24-1.24,2.21-2.68,2.89-4.29c0.7-1.66,1.06-3.43,1.06-5.25
					C61.48,46.22,61.13,44.46,60.42,42.8z M59.74,48.04c0,6.47-5.27,11.74-11.74,11.74s-11.74-5.27-11.74-11.74
					c0-6.47,5.27-11.74,11.74-11.74S59.74,41.57,59.74,48.04z"/>
			</g>
			<g>
				<path class="st2" d="M48,37.41c-2.84,0-5.51,1.11-7.52,3.12c-2.01,2.01-3.12,4.68-3.12,7.52c0,2.84,1.11,5.51,3.12,7.52
					c2.01,2.01,4.68,3.12,7.52,3.12c2.84,0,5.51-1.11,7.52-3.12c2.01-2.01,3.12-4.68,3.12-7.52c0-2.84-1.11-5.51-3.12-7.52
					C53.51,38.51,50.84,37.41,48,37.41z M48,57.73c-5.34,0-9.68-4.34-9.68-9.68c0-5.34,4.34-9.68,9.68-9.68
					c5.34,0,9.68,4.34,9.68,9.68C57.68,53.38,53.34,57.73,48,57.73z"/>
			</g>
			<g>
				<path class="st2" d="M49.28,51.39c-0.09-0.08-0.37-0.28-0.81-0.6c-0.48-0.34-0.76-0.57-0.86-0.67c-0.07-0.08-0.1-0.16-0.1-0.25
					c0-0.09,0.05-0.17,0.15-0.24c0.1-0.07,0.22-0.11,0.38-0.11c0.32,0,0.62,0.18,0.93,0.54l0.87-0.65c-0.32-0.32-0.62-0.54-0.9-0.66
					c-0.28-0.12-0.57-0.18-0.88-0.18c-0.02,0-0.04,0-0.06,0v-0.52h-0.64v0.63c-0.19,0.06-0.36,0.16-0.51,0.28
					c-0.32,0.26-0.49,0.57-0.49,0.94c0,0.25,0.1,0.5,0.29,0.76c0.2,0.25,0.63,0.61,1.3,1.08c0.35,0.24,0.58,0.43,0.68,0.55
					c0.1,0.12,0.15,0.24,0.15,0.36c0,0.13-0.07,0.25-0.2,0.35c-0.14,0.1-0.31,0.15-0.51,0.15c-0.38,0-0.72-0.23-1.02-0.69
					l-0.98,0.51c0.23,0.39,0.51,0.68,0.83,0.86c0.32,0.18,0.68,0.27,1.11,0.27v0.59h0.64v-0.65c0.29-0.07,0.55-0.19,0.76-0.36
					c0.35-0.28,0.52-0.64,0.52-1.07c0-0.22-0.05-0.42-0.15-0.61C49.68,51.79,49.52,51.59,49.28,51.39z"/>
			</g>
			<g>
				<path class="st2" d="M52.01,44.54l-0.66-0.61l0.09,0.89c0.04,0.41,0.05,1.56-0.41,1.98c-0.16,0.14-0.37,0.19-0.65,0.13
					c-0.26-0.05-0.43-0.14-0.5-0.27c-0.16-0.29,0.06-0.94,0.29-1.56c0.23-0.63,0.48-1.35,0.48-2.05c0-0.95-0.34-1.84-0.96-2.52
					c-0.63-0.69-1.49-1.07-2.41-1.09l-0.52-0.01l0.2,0.48c0.02,0.05,0.51,1.31-0.43,2.81c-1.12,1.79-1.54,2.64-1.86,3.98
					c-0.12-0.49-0.16-1.13,0.03-1.89l0.23-0.89l-0.76,0.53c-0.04,0.02-0.88,0.62-1.6,1.81c-0.66,1.1-1.34,2.94-0.82,5.45l0,0.01
					c0.35,1.39,1.12,2.54,2.23,3.34c1.1,0.79,2.5,1.21,4.06,1.21c1.53,0,3-0.47,4.14-1.33c0.89-0.66,1.54-1.52,1.87-2.47
					c0.05-0.14,0.43-1.21,0.4-2.67C54.41,48.4,53.96,46.33,52.01,44.54z M53.6,51.53l-0.01,0c-0.04,0.23-0.09,0.45-0.16,0.67
					c-0.01,0.04-0.02,0.06-0.02,0.06l0,0c-0.69,1.95-2.87,3.35-5.38,3.35c-2.88,0-4.98-1.5-5.62-4.03
					c-0.38-1.83-0.13-3.49,0.72-4.93c0.25-0.41,0.51-0.75,0.75-1.01c-0.06,1.44,0.58,2.37,0.61,2.42l0.47,0.67l0.15-0.81
					c0.34-1.88,0.57-2.55,1.99-4.83c0.75-1.21,0.73-2.3,0.62-2.91c1.29,0.25,2.25,1.43,2.25,2.87c0,0.58-0.22,1.21-0.44,1.82
					c-0.29,0.8-0.56,1.56-0.24,2.12c0.17,0.3,0.49,0.51,0.95,0.6c0.63,0.13,1.02-0.09,1.25-0.29c0.45-0.41,0.6-1.11,0.64-1.68
					c1.04,1.19,1.59,2.59,1.64,4.18C53.78,50.5,53.7,51.1,53.6,51.53z"/>
			</g>
		</g>
		<path class="st2" d="M79.31,68.68h-1.52v-1.14c0-2.23-1.82-4.05-4.05-4.05h-0.31v-2.79c0-0.64-0.46-1.17-1.07-1.29l-0.52-24.27
			h3.86c0.92,0,1.66-0.74,1.66-1.66v-3.34c0.94-0.73,1.55-1.86,1.55-3.14v-1.57c0-0.94-0.52-1.79-1.37-2.21L48,8.47L18.46,23.23
			c-0.84,0.42-1.37,1.27-1.37,2.21v1.57c0,1.28,0.61,2.41,1.55,3.14v3.34c0,0.92,0.74,1.66,1.66,1.66h3.86l-0.52,24.27
			c-0.61,0.12-1.07,0.65-1.07,1.29v2.79h-0.31c-2.23,0-4.05,1.82-4.05,4.05v1.14h-1.52c-1.04,0-1.89,0.85-1.89,1.89v3.05
			c0,1.04,0.85,1.89,1.89,1.89H48h31.31c1.04,0,1.89-0.85,1.89-1.89v-3.05C81.2,69.53,80.35,68.68,79.31,68.68z M19.19,27.01v-1.57
			c0-0.14,0.08-0.27,0.21-0.33L48,10.82l28.6,14.29c0.13,0.06,0.21,0.19,0.21,0.33v1.57c0,1.03-0.84,1.87-1.87,1.87H21.06
			C20.03,28.88,19.19,28.04,19.19,27.01z M20.74,33.04v-2.08c0.11,0.01,0.21,0.02,0.32,0.02h53.89c0.11,0,0.21-0.01,0.32-0.02v2.08
			H59.1H51.9H48h-3.9H36.9H20.74z M71.33,61.49v2h-6.24v-2H71.33z M66.16,59.39l0.5-23.92h3.09l0.51,23.92H66.16z M59.66,59.09
			l-0.11-5.01c-0.55,1.05-1.24,2.02-2.04,2.87l0.04,2.11h-2.6c-1.4,0.89-2.98,1.51-4.68,1.81v2.62H48h-2.28v-2.62
			c-1.69-0.3-3.27-0.92-4.67-1.81h-2.6l0.05-2.12c-0.8-0.86-1.49-1.82-2.04-2.88l-0.11,5.02c-0.61,0.12-1.07,0.65-1.07,1.29v3.11
			h-2.26v-2.79c0-0.64-0.46-1.17-1.07-1.29l-0.51-24.27h5.42l-0.14,6.39c0.59-1.03,1.32-1.96,2.16-2.79l0.08-3.6h3.09l0.03,1.3
			c0.66-0.34,1.36-0.63,2.08-0.85l-0.01-0.45h2.01c0.6-0.08,1.21-0.13,1.84-0.13s1.24,0.05,1.84,0.13h2.01l-0.01,0.44
			c0.72,0.22,1.42,0.51,2.08,0.85l0.03-1.29h3.09l0.08,3.6c0.84,0.82,1.57,1.76,2.16,2.79l-0.14-6.38h5.41l-0.51,24.27
			c-0.61,0.11-1.07,0.65-1.07,1.29v2.79h-2.26v-3.11C60.72,59.74,60.26,59.21,59.66,59.09z M58.62,61.17v2.32h-6.24v-2.32H58.62z
			 M43.62,61.17v2.32h-6.24v-2.32H43.62z M30.92,61.49v2h-6.24v-2H30.92z M25.74,59.39l0.51-23.92h3.09l0.5,23.92H25.74z
			 M20.31,67.54c0-1.08,0.87-1.95,1.95-1.95H48h25.74c1.08,0,1.95,0.87,1.95,1.95v1.14H48H20.31V67.54z M79.1,73.41H48H16.9v-2.62
			h1.31H48h29.79h1.31V73.41z"/>
	</g>
</g>
</svg>
