<?xml version="1.0" encoding="utf-8"?>
<!-- Generator: Adobe Illustrator 24.0.0, SVG Export Plug-In . SVG Version: 6.00 Build 0)  -->
<svg version="1.1" id="Layer_1" xmlns="http://www.w3.org/2000/svg" xmlns:xlink="http://www.w3.org/1999/xlink" x="0px" y="0px"
	 viewBox="0 0 96 96" style="enable-background:new 0 0 96 96;" xml:space="preserve">
<style type="text/css">
	.st0{fill:#FFFFFF;}
</style>
<g>
	<path class="st0" d="M92.16,29.34c-2.41-5.71-5.87-10.83-10.27-15.23c-4.4-4.4-9.53-7.86-15.23-10.27
		C60.75,1.34,54.47,0.08,48,0.08S35.25,1.34,29.34,3.84c-5.71,2.41-10.83,5.87-15.23,10.27c-4.4,4.4-7.86,9.53-10.27,15.23
		C1.34,35.25,0.08,41.53,0.08,48c0,6.47,1.27,12.75,3.77,18.66c2.41,5.71,5.87,10.83,10.27,15.23c4.4,4.4,9.53,7.86,15.23,10.27
		c5.91,2.5,12.19,3.77,18.66,3.77c6.47,0,12.74-1.27,18.66-3.77c5.71-2.41,10.83-5.87,15.23-10.27c4.4-4.4,7.86-9.53,10.27-15.23
		c2.5-5.91,3.77-12.19,3.77-18.66C95.92,41.53,94.66,35.25,92.16,29.34z M89.73,48c0,23.01-18.72,41.73-41.73,41.73
		S6.27,71.01,6.27,48C6.27,24.99,24.99,6.27,48,6.27S89.73,24.99,89.73,48z"/>
	<path class="st0" d="M48,10.18c-10.1,0-19.6,3.93-26.74,11.08C14.12,28.4,10.18,37.9,10.18,48s3.93,19.6,11.08,26.74
		C28.4,81.88,37.9,85.82,48,85.82c10.1,0,19.6-3.93,26.74-11.08C81.88,67.6,85.82,58.1,85.82,48s-3.93-19.6-11.08-26.74
		C67.6,14.12,58.1,10.18,48,10.18z M48,82.42c-18.98,0-34.42-15.44-34.42-34.42c0-18.98,15.44-34.42,34.42-34.42
		c18.98,0,34.42,15.44,34.42,34.42C82.42,66.98,66.98,82.42,48,82.42z"/>
	<path class="st0" d="M52.55,59.88c-0.34-0.3-1.3-1.01-2.88-2.14c-1.69-1.22-2.71-2.02-3.05-2.39c-0.25-0.28-0.37-0.57-0.37-0.89
		c0-0.31,0.17-0.59,0.52-0.84c0.35-0.25,0.79-0.37,1.34-0.37c1.12,0,2.22,0.64,3.3,1.92l3.08-2.32c-1.15-1.14-2.22-1.92-3.2-2.36
		c-0.99-0.43-2.02-0.65-3.11-0.65c-0.07,0-0.13,0-0.2,0V48H45.7v2.24c-0.66,0.23-1.27,0.56-1.81,1c-1.15,0.92-1.73,2.03-1.73,3.32
		c0,0.9,0.35,1.79,1.04,2.69c0.69,0.9,2.23,2.18,4.61,3.83c1.25,0.87,2.06,1.52,2.42,1.94c0.37,0.42,0.55,0.84,0.55,1.27
		c0,0.46-0.24,0.87-0.73,1.23c-0.49,0.35-1.09,0.53-1.8,0.53c-1.37,0-2.58-0.82-3.63-2.47l-3.49,1.8c0.82,1.39,1.81,2.41,2.96,3.06
		c1.12,0.63,2.43,0.96,3.94,0.97v2.09h2.26V69.2c1.05-0.24,1.95-0.66,2.71-1.27c1.24-1,1.86-2.26,1.86-3.79
		c0-0.79-0.18-1.51-0.53-2.17C53.98,61.3,53.39,60.61,52.55,59.88z"/>
	<path class="st0" d="M62.24,35.53l-2.35-2.16l0.33,3.18c0.15,1.45,0.18,5.56-1.47,7.05c-0.57,0.51-1.33,0.66-2.33,0.46
		c-0.92-0.19-1.51-0.5-1.76-0.95c-0.59-1.04,0.23-3.33,1.02-5.54c0.8-2.25,1.71-4.8,1.71-7.28c0-3.37-1.22-6.54-3.43-8.94
		c-2.25-2.44-5.29-3.81-8.58-3.87l-1.85-0.04l0.71,1.71c0.08,0.19,1.81,4.64-1.53,9.99c-3.98,6.38-5.48,9.37-6.62,14.13
		c-0.41-1.73-0.58-4.03,0.11-6.72l0.82-3.17l-2.69,1.87c-0.13,0.09-3.13,2.2-5.68,6.45c-2.35,3.9-4.77,10.44-2.91,19.38l0.01,0.05
		c1.25,4.93,3.99,9.03,7.92,11.86c3.9,2.82,8.89,4.3,14.42,4.3c5.43,0,10.66-1.68,14.73-4.72c3.16-2.36,5.46-5.42,6.66-8.8
		c0.19-0.51,1.54-4.31,1.41-9.49C70.78,49.25,69.18,41.9,62.24,35.53z M67.92,60.39l-0.05-0.01c-0.13,0.81-0.32,1.6-0.58,2.37
		c-0.05,0.14-0.08,0.21-0.08,0.22l0,0c-2.47,6.95-10.19,11.92-19.11,11.92c-10.22,0-17.69-5.35-19.98-14.31
		c-1.34-6.51-0.48-12.41,2.57-17.52c0.88-1.47,1.82-2.67,2.65-3.58c-0.22,5.1,2.04,8.43,2.16,8.6l1.66,2.39l0.53-2.87
		c1.22-6.67,2.02-9.06,7.09-17.18c2.68-4.29,2.59-8.17,2.21-10.36c4.59,0.88,7.98,5.08,7.98,10.22c0,2.06-0.8,4.3-1.57,6.47
		c-1.02,2.85-1.98,5.54-0.85,7.54c0.61,1.08,1.75,1.8,3.39,2.13c2.23,0.45,3.64-0.32,4.44-1.04c1.6-1.46,2.14-3.95,2.28-5.97
		c3.71,4.22,5.66,9.2,5.82,14.85C68.54,56.72,68.24,58.85,67.92,60.39z"/>
</g>
</svg>
