<?xml version="1.0" encoding="utf-8"?>
<!-- Generator: Adobe Illustrator 24.0.0, SVG Export Plug-In . SVG Version: 6.00 Build 0)  -->
<svg version="1.1" id="Layer_1" xmlns="http://www.w3.org/2000/svg" xmlns:xlink="http://www.w3.org/1999/xlink" x="0px" y="0px"
	 viewBox="0 0 96 96" style="enable-background:new 0 0 96 96;" xml:space="preserve">
<style type="text/css">
	.st0{fill:#FFFFFF;}
</style>
<g>
	<path d="M92.06,29.39c-2.41-5.69-5.86-10.81-10.25-15.2c-4.39-4.39-9.5-7.84-15.2-10.25C60.72,1.45,54.45,0.19,48,0.19
		S35.28,1.45,29.39,3.94c-5.69,2.41-10.81,5.86-15.2,10.25c-4.39,4.39-7.84,9.5-10.25,15.2C1.45,35.28,0.19,41.55,0.19,48
		c0,6.45,1.26,12.72,3.76,18.61c2.41,5.69,5.86,10.81,10.25,15.2c4.39,4.39,9.5,7.84,15.2,10.25c5.9,2.49,12.16,3.76,18.61,3.76
		c6.45,0,12.72-1.26,18.61-3.76c5.69-2.41,10.81-5.86,15.2-10.25c4.39-4.39,7.84-9.5,10.25-15.2c2.49-5.9,3.76-12.16,3.76-18.61
		C95.81,41.55,94.55,35.28,92.06,29.39z M89.64,48c0,22.96-18.68,41.64-41.64,41.64S6.36,70.96,6.36,48
		C6.36,25.04,25.04,6.36,48,6.36S89.64,25.04,89.64,48z"/>
	<path d="M48,10.27c-10.08,0-19.55,3.92-26.68,11.05C14.19,28.45,10.27,37.92,10.27,48s3.92,19.55,11.05,26.68
		c7.13,7.13,16.6,11.05,26.68,11.05c10.08,0,19.55-3.92,26.68-11.05c7.13-7.13,11.05-16.6,11.05-26.68s-3.92-19.55-11.05-26.68
		C67.55,14.19,58.08,10.27,48,10.27z M48,82.34c-18.94,0-34.34-15.41-34.34-34.34c0-18.94,15.41-34.34,34.34-34.34
		c18.94,0,34.34,15.41,34.34,34.34C82.34,66.94,66.94,82.34,48,82.34z"/>
	<path d="M52.54,59.86c-0.34-0.29-1.3-1.01-2.88-2.14c-1.69-1.22-2.7-2.02-3.04-2.39c-0.25-0.28-0.37-0.57-0.37-0.88
		c0-0.31,0.17-0.59,0.52-0.84c0.35-0.25,0.79-0.37,1.33-0.37c1.12,0,2.22,0.64,3.29,1.92l3.07-2.31c-1.15-1.14-2.21-1.92-3.2-2.35
		c-0.98-0.43-2.02-0.64-3.11-0.64c-0.07,0-0.13,0-0.2,0V48h-2.26v2.24c-0.66,0.23-1.27,0.56-1.81,1c-1.15,0.92-1.73,2.03-1.73,3.32
		c0,0.89,0.35,1.79,1.04,2.69c0.69,0.9,2.23,2.17,4.6,3.82c1.25,0.87,2.05,1.51,2.42,1.93c0.37,0.42,0.55,0.84,0.55,1.26
		c0,0.46-0.24,0.87-0.73,1.23c-0.48,0.35-1.08,0.53-1.79,0.53c-1.36,0-2.57-0.82-3.62-2.46l-3.49,1.79
		c0.82,1.39,1.81,2.41,2.96,3.06c1.12,0.63,2.43,0.95,3.93,0.97v2.09h2.26v-2.31c1.04-0.24,1.94-0.66,2.7-1.27
		c1.24-0.99,1.85-2.25,1.85-3.78c0-0.78-0.18-1.51-0.53-2.17C53.97,61.27,53.38,60.58,52.54,59.86z"/>
	<path d="M62.21,35.56l-2.35-2.15l0.33,3.17c0.15,1.45,0.18,5.54-1.47,7.03c-0.56,0.51-1.32,0.66-2.32,0.46
		c-0.92-0.19-1.51-0.5-1.76-0.94c-0.59-1.04,0.23-3.32,1.02-5.52c0.8-2.25,1.71-4.79,1.71-7.26c0-3.36-1.21-6.53-3.42-8.92
		c-2.24-2.43-5.28-3.8-8.56-3.86l-1.85-0.04l0.71,1.7c0.08,0.19,1.81,4.63-1.52,9.97c-3.97,6.36-5.47,9.35-6.6,14.1
		c-0.41-1.72-0.58-4.02,0.11-6.7l0.82-3.16l-2.68,1.86c-0.13,0.09-3.12,2.2-5.67,6.44c-2.35,3.9-4.75,10.41-2.91,19.34l0.01,0.05
		c1.25,4.91,3.98,9.01,7.9,11.83c3.9,2.81,8.87,4.29,14.38,4.29c5.41,0,10.63-1.67,14.7-4.71c3.16-2.36,5.45-5.4,6.65-8.78
		c0.19-0.51,1.53-4.3,1.41-9.47C70.73,49.25,69.13,41.91,62.21,35.56z M67.87,60.36l-0.05-0.01c-0.12,0.81-0.32,1.6-0.58,2.37
		c-0.05,0.14-0.08,0.21-0.08,0.22l0,0C64.71,69.87,57,74.83,48.1,74.83c-10.2,0-17.65-5.34-19.93-14.28
		c-1.34-6.5-0.48-12.38,2.56-17.48c0.87-1.47,1.82-2.66,2.64-3.57c-0.22,5.09,2.04,8.42,2.16,8.58l1.66,2.39l0.52-2.86
		c1.22-6.66,2.02-9.04,7.07-17.14c2.67-4.28,2.59-8.15,2.2-10.33c4.58,0.88,7.96,5.06,7.96,10.19c0,2.05-0.8,4.29-1.57,6.45
		c-1.01,2.84-1.97,5.53-0.84,7.53c0.61,1.08,1.75,1.79,3.38,2.13c2.22,0.45,3.63-0.32,4.43-1.04c1.6-1.45,2.13-3.95,2.28-5.96
		c3.7,4.21,5.65,9.18,5.8,14.82C68.5,56.7,68.2,58.82,67.87,60.36z"/>
</g>
</svg>
