<?xml version="1.0" encoding="utf-8"?>
<!-- Generator: Adobe Illustrator 24.0.0, SVG Export Plug-In . SVG Version: 6.00 Build 0)  -->
<svg version="1.1" id="Layer_1" xmlns="http://www.w3.org/2000/svg" xmlns:xlink="http://www.w3.org/1999/xlink" x="0px" y="0px"
	 viewBox="0 0 96 96" style="enable-background:new 0 0 96 96;" xml:space="preserve">
<style type="text/css">
	.st0{fill:#FFFFFF;}
</style>
<g>
	<circle cx="48" cy="48" r="47.95"/>
	<g>
		<path class="st0" d="M72.37,36.05v-4.76c0-2.68-0.8-5.21-2.31-7.34c-1.66-2.34-3.96-3.84-6.65-4.35l-3.42-0.64l1.04,3.32
			c0.61,1.95,1.19,5.67,0.15,7.36c-0.3,0.49-0.72,0.75-1.38,0.86c-1.46,0.24-2.45-0.06-2.96-0.87c-0.82-1.33-0.39-3.73,1.03-5.7
			c2.06-2.87,2.32-6.23,0.7-8.97c-1.61-2.72-4.74-4.16-8.17-3.76l-2.6,0.31l0.89,2.47c0.4,1.12,1,3.97,0.18,5.16
			c-0.11,0.16-0.45,0.65-1.81,0.67c-0.04,0-0.06,0-0.08,0c0,0,0,0,0,0c-0.32-0.34-0.53-1.65-0.45-2.68l0.31-3.39l-3.16,1.27
			c-0.24,0.1-5.93,2.43-6.92,7.39c-0.47,2.35-0.16,4.11,0.09,5.52c0.21,1.21,0.28,1.73,0.07,2.23c-0.12,0.09-0.59,0.18-1.15-0.06
			c-1.3-0.57-2.1-2.57-0.41-6.44l1.57-3.6l-3.86,0.72c-0.25,0.05-6.06,1.19-8.51,7.25c-0.61,1.5-0.91,3.11-0.91,4.8v3.27l-5.81,5.72
			V71.7c0,2.92,2.38,5.3,5.3,5.3h49.77c2.92,0,5.3-2.38,5.3-5.3V41.77L72.37,36.05z M30,48.83c3.12,1.54,5.61,2.76,7.4,3.63
			c0.59,0.28,1.1,0.53,1.54,0.74L21.29,69.48V44.51C23.34,45.53,26.68,47.19,30,48.83z M22.53,42.02l1.8-1.77v2.66
			C23.72,42.61,23.12,42.31,22.53,42.02z M34.36,33.24c1.03,0.45,2.17,0.57,3.19,0.33c1.16-0.28,2.08-1,2.52-2
			c0.68-1.53,0.43-2.93,0.19-4.28c-0.22-1.24-0.44-2.52-0.1-4.23c0.35-1.73,1.78-3.03,3-3.84c0.16,1.01,0.52,2.14,1.27,2.95
			c0.7,0.75,1.62,1.13,2.69,1.12c2.6-0.05,3.94-1.21,4.61-2.18c1.33-1.94,1.12-4.63,0.74-6.43c1.34,0.22,2.45,0.93,3.11,2.04
			c0.9,1.52,0.7,3.46-0.53,5.18c-2.27,3.17-2.74,7.01-1.15,9.56c1.26,2.03,3.62,2.93,6.47,2.47c1.65-0.27,2.96-1.12,3.79-2.47
			c0.97-1.58,1.29-3.8,0.95-6.62c-0.04-0.35-0.09-0.69-0.15-1.01c0.86,0.51,1.62,1.22,2.27,2.13c1.09,1.53,1.67,3.37,1.67,5.32
			v13.01c-5.9,2.92-11.95,5.9-14.04,6.88l-0.6-0.56c-1.71-1.57-3.92-2.44-6.25-2.44c0,0,0,0-0.01,0c-2.32,0-4.54,0.87-6.25,2.44
			l-0.6,0.56c-2.08-0.98-8.14-3.96-14.04-6.88V32.78c0-1.24,0.22-2.41,0.66-3.49c0.83-2.05,2.2-3.31,3.41-4.07
			C30.23,29.62,32.12,32.26,34.36,33.24z M55.52,51.79L55.52,51.79L55.52,51.79C55.52,51.78,55.52,51.78,55.52,51.79z M40.49,51.78
			L40.49,51.78L40.49,51.78C40.48,51.78,40.48,51.78,40.49,51.78z M43.64,52.66c1.19-1.1,2.74-1.71,4.36-1.71
			c1.62,0,3.17,0.61,4.36,1.71l1.27,1.17v0c0,0,0,0,0,0l20.64,19.04c-0.33,0.4-0.84,0.65-1.4,0.65H48h0H23.12
			c-0.56,0-1.06-0.25-1.39-0.65L43.64,52.66z M74.71,69.48L57.06,53.2c0.44-0.21,0.95-0.46,1.54-0.74c1.79-0.87,4.28-2.09,7.4-3.63
			c3.32-1.64,6.66-3.3,8.71-4.31V69.48z M71.67,42.91v-2.66l1.8,1.77C72.88,42.31,72.28,42.61,71.67,42.91z"/>
		<path class="st0" d="M47.42,46.37c4.21,0.57,6.52-2.38,6.52-2.38l-0.96-0.95c-0.91,1.05-4.26,2.91-7.21,1.36
			c-2.96-1.54-2.82-5.39-1.34-7.7c1.48-2.31,5.1-3.26,7.03-1.7c1.94,1.56,1.87,3.56,1.08,5.3c-0.8,1.73-2.51,1.76-2.31,0.36
			c0.15-0.99,1.25-4.58,1.25-4.58l-1.41-0.08c-0.11,0.34-0.22,0.68-0.32,1.01c-0.62-1.14-1.91-1.63-3.42-0.64
			c-1.92,1.25-2.43,4.86-0.85,6.13c1.34,1.07,2.93,0.27,3.39,0c0.06,0.16,0.16,0.28,0.28,0.35c0.88,0.49,4.5,0.35,5.05-3.7
			c0.51-3.8-1.91-6.55-6.11-6.29c-4.49,0.28-6.22,4.94-6.19,7.4C41.93,42.73,42.85,45.75,47.42,46.37z M48.84,40.65
			c-0.66,0.73-2.12,1.35-2.59,0.57c-0.53-0.89,0.1-3.83,1.47-3.79c0.97,0.03,1.35,0.93,1.49,1.46
			C49.04,39.53,48.91,40.13,48.84,40.65z"/>
	</g>
</g>
</svg>
