<?xml version="1.0" encoding="utf-8"?>
<!-- Generator: Adobe Illustrator 24.0.0, SVG Export Plug-In . SVG Version: 6.00 Build 0)  -->
<svg version="1.1" id="Layer_1" xmlns="http://www.w3.org/2000/svg" xmlns:xlink="http://www.w3.org/1999/xlink" x="0px" y="0px"
	 viewBox="0 0 96 96" style="enable-background:new 0 0 96 96;" xml:space="preserve">
<style type="text/css">
	.st0{fill:#FFFFFF;}
</style>
<g>
	<g>
		<g>
			<path class="st0" d="M54.74,96H41.26c-3.3,0-5.98-2.68-5.98-5.98v-4.71c-1.55-0.53-3.12-1.18-4.66-1.96l-3.35,3.35
				c-2.33,2.33-6.12,2.33-8.45,0l-9.53-9.53c-1.13-1.13-1.75-2.63-1.75-4.23c0-1.6,0.62-3.1,1.75-4.23l3.36-3.36
				c-0.74-1.51-1.39-3.06-1.93-4.66H5.98c-3.3,0-5.98-2.68-5.98-5.98V41.26c0-3.3,2.68-5.98,5.98-5.98h4.74
				c0.55-1.63,1.19-3.2,1.92-4.68l-3.34-3.34c-1.13-1.13-1.75-2.63-1.75-4.23c0-1.6,0.62-3.1,1.75-4.23l9.53-9.53
				c2.33-2.33,6.12-2.33,8.45,0l3.38,3.38c1.56-0.74,3.12-1.34,4.63-1.87V5.98c0-3.3,2.68-5.98,5.98-5.98h13.48
				c3.3,0,5.98,2.68,5.98,5.98v4.75c1.59,0.54,3.15,1.19,4.66,1.93l3.36-3.36c2.33-2.33,6.12-2.33,8.45,0l9.53,9.53
				c1.13,1.13,1.75,2.63,1.75,4.23c0,1.6-0.62,3.1-1.75,4.23l-3.36,3.36c0.74,1.51,1.39,3.06,1.93,4.66h4.75
				c3.3,0,5.98,2.68,5.98,5.98v13.47c0,3.3-2.68,5.98-5.98,5.98h-4.75c-0.54,1.59-1.19,3.15-1.93,4.66l3.36,3.36
				c1.13,1.13,1.75,2.63,1.75,4.23c0,1.6-0.62,3.1-1.75,4.23l-9.53,9.53c-2.33,2.33-6.12,2.33-8.45,0l-3.36-3.36
				c-1.51,0.74-3.06,1.39-4.66,1.93v4.75C60.71,93.32,58.03,96,54.74,96z M44.14,87.14h7.72v-8.66l3.38-0.82
				c3.04-0.74,5.94-1.94,8.61-3.57l2.97-1.81l6.13,6.13l5.46-5.46l-6.13-6.13l1.81-2.97c1.63-2.67,2.83-5.57,3.57-8.61l0.82-3.38
				h8.66v-7.72h-8.66l-0.82-3.38c-0.74-3.04-1.94-5.94-3.57-8.61l-1.81-2.97l6.13-6.13l-5.46-5.46l-6.13,6.13l-2.97-1.81
				c-2.67-1.63-5.57-2.83-8.61-3.57l-3.38-0.82V8.86h-7.72v8.48l-3.15,0.95c-2.95,0.89-6.07,1.94-8.84,3.63l-2.97,1.81l-6.13-6.13
				l-5.46,5.46l6.18,6.18l-1.92,3c-1.52,2.39-2.74,5.34-3.52,8.53l-0.82,3.38H8.86v7.72h8.66l0.82,3.38
				c0.74,3.04,1.94,5.94,3.57,8.61l1.81,2.97l-6.13,6.13l5.46,5.46l6.13-6.13l2.97,1.81c2.84,1.73,5.78,2.95,8.5,3.54l3.49,0.76
				V87.14z"/>
		</g>
		<g>
			<path class="st0" d="M48,65.58c-9.69,0-17.58-7.89-17.58-17.58S38.31,30.42,48,30.42c9.69,0,17.58,7.89,17.58,17.58
				S57.69,65.58,48,65.58z M48,39.28c-4.81,0-8.72,3.91-8.72,8.72s3.91,8.72,8.72,8.72c4.81,0,8.72-3.91,8.72-8.72
				S52.81,39.28,48,39.28z"/>
		</g>
	</g>
</g>
</svg>
