<?xml version="1.0" encoding="utf-8"?>
<!-- Generator: Adobe Illustrator 24.0.0, SVG Export Plug-In . SVG Version: 6.00 Build 0)  -->
<svg version="1.1" id="Layer_1" xmlns="http://www.w3.org/2000/svg" xmlns:xlink="http://www.w3.org/1999/xlink" x="0px" y="0px"
	 viewBox="0 0 96 96" style="enable-background:new 0 0 96 96;" xml:space="preserve">
<style type="text/css">
	.st0{fill:#FFFFFF;}
</style>
<g>
	<g>
		<g>
			<g>
				<g>
					<path class="st0" d="M48.48,73.03l-0.95-9.94c14.58-1.4,25.38-8.11,32.11-19.94c2.68-4.71,4.19-9.37,5.02-12.8H72.17v-9.98H96
						l-0.41,5.37c-0.03,0.44-0.9,10.94-7.07,21.97C82.74,58.07,71.1,70.86,48.48,73.03z"/>
				</g>
				<g>
					<path class="st0" d="M48,73.11l-2.46-1.4c-7.07-4.01-12.87-9.76-17.24-17.08c-3.42-5.73-5.96-12.41-7.55-19.87
						c-2.67-12.52-1.77-22.94-1.73-23.38l0.42-4.56L48,6.99l28.57-0.16l0.42,4.56c0.04,0.44,0.95,10.86-1.73,23.38
						c-1.59,7.46-4.13,14.14-7.55,19.87c-4.37,7.32-10.17,13.07-17.24,17.08L48,73.11z M28.82,16.86c0.02,3.83,0.34,9.68,1.73,16.07
						C33.4,45.97,39.26,55.57,48,61.5c17.08-11.62,19.12-34.82,19.18-44.64L48,16.97l-0.03,0L28.82,16.86z"/>
				</g>
				<g>
					<path class="st0" d="M47.52,73.03C24.9,70.86,13.26,58.07,7.48,47.73C1.31,36.7,0.45,26.2,0.41,25.76L0,20.38h23.83v9.98H11.34
						c0.83,3.42,2.34,8.09,5.03,12.8C23.1,54.99,33.9,61.7,48.48,63.1L47.52,73.03z"/>
				</g>
			</g>
			<g>
				<rect x="43.01" y="67.38" class="st0" width="9.98" height="23.63"/>
			</g>
			<g>
				<rect x="30.34" y="86.02" class="st0" width="35.32" height="9.98"/>
			</g>
		</g>
	</g>
</g>
</svg>
