<?xml version="1.0" encoding="utf-8"?>
<!-- Generator: Adobe Illustrator 24.0.0, SVG Export Plug-In . SVG Version: 6.00 Build 0)  -->
<svg version="1.1" id="Layer_1" xmlns="http://www.w3.org/2000/svg" xmlns:xlink="http://www.w3.org/1999/xlink" x="0px" y="0px"
	 viewBox="0 0 96 96" style="enable-background:new 0 0 96 96;" xml:space="preserve">
<style type="text/css">
	.st0{fill:#FFFFFF;}
</style>
<g>
	<g>
		<circle cx="48" cy="48" r="48"/>
		<g>
			<g>
				<g>
					<g>
						<path class="st0" d="M77.59,77.59H18.41V25.73h59.19V77.59z M24.81,71.34h46.39V31.99H24.81V71.34z"/>
					</g>
					<g>
						<rect x="21.61" y="28.86" class="st0" width="52.79" height="9.35"/>
					</g>
					<g>
						<path class="st0" d="M66.53,28.97H55.04v-9.54h11.49V28.97z M56.82,27.24h7.94v-6.07h-7.94V27.24z"/>
					</g>
					<g>
						<path class="st0" d="M67.76,29.99H53.81V18.41h13.95V29.99z M55.97,27.89h9.64v-7.37h-9.64V27.89z"/>
					</g>
					<g>
						<rect x="59.27" y="20.3" class="st0" width="6.37" height="7.28"/>
					</g>
					<g>
						<path class="st0" d="M40.96,28.97H29.47v-9.54h11.49V28.97z M31.24,27.24h7.94v-6.07h-7.94V27.24z"/>
					</g>
					<g>
						<path class="st0" d="M42.19,29.99H28.24V18.41h13.95V29.99z M30.39,27.89h9.64v-7.37h-9.64V27.89z"/>
					</g>
					<g>
						<rect x="33.7" y="20.3" class="st0" width="6.37" height="7.28"/>
					</g>
				</g>
				<g>
					<polygon class="st0" points="48,41.95 51.95,49.95 60.79,51.24 54.39,57.47 55.9,66.27 48,62.12 40.1,66.27 41.61,57.47 
						35.21,51.24 44.05,49.95 					"/>
				</g>
			</g>
		</g>
	</g>
</g>
</svg>
