<?xml version="1.0" encoding="utf-8"?>
<!-- Generator: Adobe Illustrator 24.0.0, SVG Export Plug-In . SVG Version: 6.00 Build 0)  -->
<svg version="1.1" id="Layer_1" xmlns="http://www.w3.org/2000/svg" xmlns:xlink="http://www.w3.org/1999/xlink" x="0px" y="0px"
	 viewBox="0 0 96 96" style="enable-background:new 0 0 96 96;" xml:space="preserve">
<style type="text/css">
	.st0{fill:#FFFFFF;}
</style>
<g>
	<g>
		<circle cx="48" cy="48" r="47.76"/>
		<g>
			<g>
				<g>
					<g>
						<path class="st0" d="M48.29,61.22l-0.58-6.08c8.91-0.86,15.52-4.96,19.64-12.19c1.64-2.88,2.56-5.73,3.07-7.83h-7.64v-6.1
							h14.57l-0.25,3.29c-0.02,0.27-0.55,6.69-4.32,13.43C69.24,52.07,62.12,59.89,48.29,61.22z"/>
					</g>
					<g>
						<path class="st0" d="M48,61.27l-1.51-0.86c-4.32-2.45-7.87-5.97-10.54-10.45c-2.09-3.5-3.64-7.59-4.62-12.15
							c-1.64-7.65-1.08-14.03-1.06-14.29l0.25-2.79L48,20.84l17.47-0.1l0.25,2.79c0.02,0.27,0.58,6.64-1.06,14.29
							c-0.97,4.56-2.53,8.65-4.62,12.15c-2.67,4.48-6.22,7.99-10.54,10.45L48,61.27z M36.27,26.87c0.01,2.34,0.21,5.92,1.06,9.83
							c1.74,7.97,5.32,13.84,10.66,17.47c10.44-7.11,11.69-21.29,11.73-27.3L48,26.94l-0.02,0L36.27,26.87z"/>
					</g>
					<g>
						<path class="st0" d="M47.71,61.22c-13.83-1.33-20.95-9.15-24.49-15.47c-3.77-6.74-4.3-13.16-4.32-13.43l-0.25-3.29h14.57v6.1
							h-7.64c0.51,2.09,1.43,4.94,3.07,7.83c4.12,7.23,10.72,11.33,19.64,12.19L47.71,61.22z"/>
					</g>
				</g>
				<g>
					<rect x="44.95" y="57.76" class="st0" width="6.1" height="14.45"/>
				</g>
				<g>
					<rect x="37.2" y="69.16" class="st0" width="21.6" height="6.1"/>
				</g>
			</g>
		</g>
	</g>
</g>
</svg>
