<?xml version="1.0" encoding="utf-8"?>
<!-- Generator: Adobe Illustrator 24.0.0, SVG Export Plug-In . SVG Version: 6.00 Build 0)  -->
<svg version="1.1" id="Layer_1" xmlns="http://www.w3.org/2000/svg" xmlns:xlink="http://www.w3.org/1999/xlink" x="0px" y="0px"
	 viewBox="0 0 96 96" style="enable-background:new 0 0 96 96;" xml:space="preserve">
<style type="text/css">
	.st0{fill:#FFFFFF;}
</style>
<g>
	<circle class="st0" cx="48" cy="48" r="48"/>
	<g>
		<g>
			<path d="M72.41,38.97c-0.68-5.3-3.96-8.43-9.08-8.77c-0.68-1.45-1.52-2.81-2.49-4.04c-3.19-4.03-7.47-6.26-12.07-6.26
				c-4.59,0-8.88,2.22-12.07,6.26c-0.97,1.23-1.81,2.59-2.49,4.04c-5.13,0.34-8.41,3.47-9.08,8.77c-0.36,2.83,0.5,5.66,2.36,7.78
				c1.76,2,4.27,3.15,6.87,3.15c0.92,0,1.77-0.43,2.33-1.17c0.59-0.78,0.79-1.81,0.53-2.77c-0.47-1.73-0.71-3.54-0.71-5.38
				c0-7.65,4.07-14.06,9.51-15.71c-0.03-0.16-0.04-0.33-0.03-0.5c0.02-0.21,0.05-0.42,0.09-0.63c0.02-0.09,0.04-0.18,0.05-0.27
				c0.01-0.05,0.02-0.09,0.02-0.14c0-0.02,0.01-0.09,0-0.01c0-0.02,0-0.04,0.01-0.06c0.02-0.19,0.14-0.34,0.34-0.36
				c-0.04-0.39-0.1-0.77-0.19-1.15c-0.11-0.45,0.59-0.64,0.69-0.19c0.13,0.55,0.19,1.11,0.23,1.67c0.04-0.05,0.1-0.08,0.16-0.1
				c0.17-0.06,0.41,0.07,0.44,0.25c0.07,0.37,0.09,0.75,0.09,1.12c0.27-0.02,0.54-0.04,0.81-0.04c6.76,0,12.25,7.23,12.25,16.11
				c0,1.85-0.24,3.66-0.71,5.38c-0.26,0.96-0.06,1.99,0.53,2.77c0.57,0.74,1.42,1.17,2.33,1.17c2.61,0,5.11-1.15,6.87-3.15
				C71.91,44.63,72.77,41.8,72.41,38.97z M32.31,44.83c-0.52-0.27-0.99-0.64-1.4-1.1c-0.99-1.13-1.45-2.65-1.26-4.18
				c0.3-2.36,1.2-3.78,2.89-4.42c-0.39,1.76-0.59,3.59-0.59,5.45C31.95,42.02,32.07,43.44,32.31,44.83z M66.62,43.73
				c-0.41,0.47-0.88,0.84-1.4,1.1c0.24-1.39,0.36-2.82,0.36-4.26c0-1.87-0.2-3.7-0.59-5.45c1.68,0.64,2.58,2.06,2.89,4.42
				C68.08,41.08,67.62,42.6,66.62,43.73z"/>
		</g>
		<g>
			<path d="M61.76,35.99c-0.17-0.51-0.36-1.03-0.56-1.54l0,0l-0.02-0.04c-0.13-0.32-0.26-0.63-0.41-0.95l-0.01-0.02
				c-2.99-6.98-7.83-11.22-11.36-13.55c-3.83-2.53-6.91-3.39-7.04-3.43l-0.4-0.11c0,0,1.92,6.67,0.18,11.85
				c-0.01,0.03-0.03,0.06-0.03,0.1l-1.82,1.48c-0.26,0.21-6.3,5.23-5.55,14.32c0.46,5.51,3.21,8.54,5.45,10.11
				c1.48,1.04,3.19,1.78,5.08,2.19c0.17,0.04,1.56,0.39,3.54,0.39c0.15,0,0.31,0,0.46-0.01l0.06,0c0.04,0,0.07,0,0.11,0l0.05,0
				c3.27-0.13,7.79-1.29,10.86-6.04c0.88-1.25,1.54-2.65,1.96-4.15C63.2,43.4,63.02,39.83,61.76,35.99z M53.51,50.58L53.51,50.58
				c-1.05,0.67-2.27,1.11-3.58,1.27c-0.21,0.02-0.42,0.04-0.63,0.05c0,0.02,0,0.03,0,0.03c-4.42,0.12-9.44-1.93-9.98-8.48
				c-0.55-6.68,3.84-10.25,3.84-10.25c-0.72,2.61,0.06,3.65,0.06,3.65C47.17,31,46.68,24.2,46.68,24.2
				c7.23,3.94,5.54,10.45,5.54,10.45c1.95-1.76,1.54-4.59,1.54-4.59C64.04,45.67,53.51,50.58,53.51,50.58z"/>
			<g>
				<path d="M70.14,76.75H27.39l0.04-2.23c0.22-13.35,7.15-18.38,7.44-18.59l1.53-1.08l1.3,1.35c2.42,2.5,6.56,3.99,11.06,3.99
					s8.64-1.49,11.06-3.99l1.3-1.35l1.53,1.08c0.29,0.21,7.22,5.24,7.44,18.59L70.14,76.75z M31.92,72.37h33.7
					c-0.39-4.53-1.68-7.63-2.77-9.51c-0.53-0.92-1.06-1.63-1.52-2.16c-3.24,2.45-7.77,3.87-12.56,3.87s-9.32-1.42-12.56-3.87
					c-0.45,0.53-0.98,1.24-1.52,2.16C33.6,64.74,32.31,67.84,31.92,72.37z"/>
			</g>
		</g>
		<path d="M38.37,28.9c-0.97,1.2-1.9,2.47-2.46,3.92c-0.33,0.85-0.54,1.8-0.31,2.69c2.14-1.91,4.29-3.81,6.43-5.72
			c0.39-0.35,0.79-0.7,1.1-1.13c0.74-1.03,1.49-3.61-0.51-3.69C40.99,24.89,39.26,27.79,38.37,28.9z"/>
	</g>
</g>
</svg>
