<?xml version="1.0" encoding="utf-8"?>
<!-- Generator: Adobe Illustrator 24.0.0, SVG Export Plug-In . SVG Version: 6.00 Build 0)  -->
<svg version="1.1" id="Layer_1" xmlns="http://www.w3.org/2000/svg" xmlns:xlink="http://www.w3.org/1999/xlink" x="0px" y="0px"
	 viewBox="0 0 96 96" style="enable-background:new 0 0 96 96;" xml:space="preserve">
<style type="text/css">
	.st0{fill:#FFFFFF;}
</style>
<g>
	<circle class="st0" cx="48" cy="48" r="48"/>
	<g>
		<g>
			<path d="M52.22,78.04h-8.43c-2.06,0-3.74-1.68-3.74-3.74v-2.95c-0.97-0.33-1.95-0.74-2.92-1.22l-2.1,2.1
				c-1.46,1.46-3.83,1.46-5.29,0l-5.96-5.96c-0.71-0.71-1.1-1.65-1.1-2.64c0-1,0.39-1.94,1.1-2.64l2.1-2.1
				c-0.46-0.94-0.87-1.92-1.21-2.91H21.7c-2.06,0-3.74-1.68-3.74-3.74v-8.43c0-2.06,1.68-3.74,3.74-3.74h2.97
				c0.34-1.02,0.75-2,1.2-2.93l-2.09-2.09c-0.71-0.71-1.1-1.65-1.1-2.64c0-1,0.39-1.94,1.1-2.64l5.96-5.96
				c1.46-1.46,3.83-1.46,5.29,0l2.12,2.12c0.97-0.46,1.95-0.84,2.9-1.17V21.7c0-2.06,1.68-3.74,3.74-3.74h8.43
				c2.06,0,3.74,1.68,3.74,3.74v2.97c1,0.34,1.97,0.74,2.91,1.21l2.1-2.1c1.46-1.46,3.83-1.46,5.29,0l5.96,5.96
				c0.71,0.71,1.1,1.65,1.1,2.64c0,1-0.39,1.94-1.1,2.64l-2.1,2.1c0.46,0.94,0.87,1.92,1.21,2.91h2.97c2.06,0,3.74,1.68,3.74,3.74
				v8.43c0,2.06-1.68,3.74-3.74,3.74h-2.97c-0.34,1-0.74,1.97-1.21,2.91l2.1,2.1c0.71,0.71,1.1,1.65,1.1,2.64
				c0,1-0.39,1.94-1.1,2.64l-5.96,5.96c-1.46,1.46-3.83,1.46-5.29,0l-2.1-2.1c-0.94,0.46-1.92,0.87-2.91,1.21v2.97
				C55.96,76.36,54.28,78.04,52.22,78.04z M45.59,72.5h4.83v-5.42l2.12-0.51c1.9-0.46,3.72-1.21,5.39-2.23l1.86-1.13l3.83,3.83
				l3.41-3.41l-3.84-3.83l1.13-1.86c1.02-1.67,1.77-3.49,2.23-5.39l0.51-2.12h5.42v-4.83h-5.42l-0.51-2.12
				c-0.46-1.9-1.21-3.72-2.23-5.39l-1.13-1.86l3.84-3.83l-3.41-3.41l-3.83,3.83l-1.86-1.13c-1.67-1.02-3.49-1.77-5.39-2.23
				l-2.12-0.51V23.5h-4.83v5.31l-1.97,0.59c-1.85,0.55-3.8,1.21-5.53,2.27l-1.86,1.13l-3.83-3.83l-3.41,3.41l3.87,3.87l-1.2,1.88
				c-0.95,1.49-1.72,3.34-2.2,5.34l-0.51,2.12H23.5v4.83h5.42l0.51,2.12c0.46,1.9,1.21,3.72,2.23,5.39l1.13,1.86l-3.84,3.84
				l3.41,3.41l3.83-3.83l1.86,1.13c1.77,1.08,3.61,1.85,5.32,2.22l2.18,0.47V72.5z"/>
		</g>
		<g>
			<path d="M48,59c-6.07,0-11-4.93-11-11s4.93-11,11-11c6.07,0,11,4.93,11,11S54.07,59,48,59z M48,42.54
				c-3.01,0-5.46,2.45-5.46,5.46s2.45,5.46,5.46,5.46c3.01,0,5.46-2.45,5.46-5.46S51.01,42.54,48,42.54z"/>
		</g>
	</g>
</g>
</svg>
