<?xml version="1.0" encoding="utf-8"?>
<!-- Generator: Adobe Illustrator 24.0.0, SVG Export Plug-In . SVG Version: 6.00 Build 0)  -->
<svg version="1.1" id="Layer_1" xmlns="http://www.w3.org/2000/svg" xmlns:xlink="http://www.w3.org/1999/xlink" x="0px" y="0px"
	 viewBox="0 0 96 96" style="enable-background:new 0 0 96 96;" xml:space="preserve">
<style type="text/css">
	.st0{fill:#FFFFFF;}
</style>
<g>
	<g>
		<g>
			<g>
				<g>
					<path d="M95.75,96H0.25V12.32h95.5V96z M10.58,85.91h74.85v-63.5H10.58V85.91z"/>
				</g>
				<g>
					<rect x="5.41" y="17.37" width="85.17" height="15.09"/>
				</g>
				<g>
					<path d="M77.91,17.55H59.36V2.15h18.54V17.55z M62.23,14.75h12.81V4.95H62.23V14.75z"/>
				</g>
				<g>
					<path d="M79.89,19.2H57.38V0.5h22.51V19.2z M60.86,15.8h15.55V3.91H60.86V15.8z"/>
				</g>
				<g>
					<rect x="66.19" y="3.55" width="10.28" height="11.75"/>
				</g>
				<g>
					<path d="M36.64,17.55H18.09V2.15h18.54V17.55z M20.96,14.75h12.81V4.95H20.96V14.75z"/>
				</g>
				<g>
					<path d="M38.62,19.2H16.11V0.5h22.51V19.2z M19.59,15.8h15.55V3.91H19.59V15.8z"/>
				</g>
				<g>
					<rect x="24.92" y="3.55" width="10.28" height="11.75"/>
				</g>
			</g>
			<g>
				<polygon points="48,38.49 54.38,51.41 68.63,53.48 58.32,63.53 60.75,77.74 48,71.03 35.25,77.74 37.68,63.53 27.37,53.48 
					41.62,51.41 				"/>
			</g>
		</g>
	</g>
</g>
</svg>
