<?xml version="1.0" encoding="utf-8"?>
<!-- Generator: Adobe Illustrator 24.0.0, SVG Export Plug-In . SVG Version: 6.00 Build 0)  -->
<svg version="1.1" id="Layer_1" xmlns="http://www.w3.org/2000/svg" xmlns:xlink="http://www.w3.org/1999/xlink" x="0px" y="0px"
	 viewBox="0 0 96 96" style="enable-background:new 0 0 96 96;" xml:space="preserve">
<style type="text/css">
	.st0{fill:#FFFFFF;}
</style>
<g>
	<path class="st0" d="M47.43,82.53c-0.45-0.01-4.57-0.1-9.69-0.67l-3.23-0.36l0.52,3.2c0.49,3.04,2.05,5.84,4.37,7.89
		c2.39,2.11,5.42,3.27,8.55,3.27c6.41,0,11.98-4.87,12.95-11.32l0.48-3.22l-3.23,0.41C52.46,82.45,47.62,82.53,47.43,82.53z"/>
	<path class="st0" d="M85.68,59.15c-1.17-3.5-3.09-5.62-4.57-6.81c-0.81-3.16-3.18-12.5-4.49-17.87c-1.5-6.15-2.77-10.04-2.82-10.21
		c-0.02-0.05-0.07-0.21-0.16-0.45c0,0-0.1-0.45-0.71-1.62c-0.26-0.52-0.57-1.12-0.96-1.76c-0.66-1.1-1.26-2.01-1.89-2.86
		c-0.09-0.12-0.19-0.24-0.29-0.37c-0.02-0.03-0.04-0.05-0.06-0.08c-3.56-5.08-8.76-7.82-8.76-7.82c-1.35,1.14-1.09,3.79-0.87,5.08
		c-0.43-1.4-0.98-3.02-1.89-4.7c-1.94-3.57-4.6-6.3-7.69-7.91c-1.8-0.94-3.73-1.48-5.72-1.62c-0.32-0.02-0.65-0.03-0.97-0.03
		c-1.8,0-3.64,0.33-5.49,0.98l-4.11,1.46l2.18,3.76c0.06,0.1,1.47,2.6,2.21,5.39c0.5,1.9,0.82,4.36-0.53,5.24
		c-0.28,0.18-0.49,0.26-0.62,0.29c-0.09,0.02-0.15,0.03-0.18,0.03h-0.15L37.1,17.3c-0.08-0.07-0.4-0.4-0.54-1.66
		c-0.25-2.14,0.18-3.52,0.32-3.9l0.48-1.29l-1.36,0.19c-0.14,0.02-3.45,0.5-5.4,1.77c-0.82,0.42-1.63,1-2.49,1.76
		c-2.62,2.32-4.61,5.74-5.9,10.15c-0.13,0.42-1.36,4.23-2.81,10.15c-1.36,5.57-3.85,15.33-4.49,17.87
		c-1.49,1.19-3.41,3.31-4.57,6.81c-1.15,3.46-0.55,6.81,1.74,9.7c2.1,2.65,5.71,5.01,11.03,7.21c4.41,1.82,9.96,3.04,16.51,3.61
		c3.33,0.29,6.05,0.34,7.37,0.34c0.53,0,0.89-0.01,1.01-0.01c0.16,0,0.52,0.01,1.05,0.01c1.33,0,4.05-0.04,7.37-0.34
		c6.55-0.57,12.1-1.79,16.51-3.61c5.32-2.2,8.92-4.56,11.03-7.21C86.23,65.97,86.84,62.61,85.68,59.15z M70.91,60.53
		c-3.11,1.31-6.41,2.37-9.8,3.14c-4.24,0.96-8.64,1.46-13.09,1.51l-0.02,0l-0.02,0c-4.45-0.04-8.85-0.55-13.09-1.51
		c-3.4-0.77-6.69-1.82-9.8-3.14c-3.21-1.36-5.55-2.71-6.94-3.6c0.46-0.62,1.13-1.68,1.66-3.08c0.08-0.22,0.15-0.4,0.19-0.56
		c1.16,0.76,3.49,2.16,6.82,3.56c4.51,1.89,11.85,4.17,21.18,4.26c9.33-0.1,16.67-2.37,21.18-4.26c3.33-1.39,5.65-2.79,6.82-3.56
		c0.05,0.16,0.11,0.34,0.19,0.56c0.53,1.41,1.2,2.46,1.66,3.08C76.46,57.82,74.12,59.17,70.91,60.53z"/>
</g>
</svg>
