<?xml version="1.0" encoding="utf-8"?>
<!-- Generator: Adobe Illustrator 24.0.0, SVG Export Plug-In . SVG Version: 6.00 Build 0)  -->
<svg version="1.1" id="Layer_1" xmlns="http://www.w3.org/2000/svg" xmlns:xlink="http://www.w3.org/1999/xlink" x="0px" y="0px"
	 viewBox="0 0 96 96" style="enable-background:new 0 0 96 96;" xml:space="preserve">
<style type="text/css">
	.st0{fill:#FFFFFF;}
</style>
<g>
	<circle class="st0" cx="48" cy="48" r="47.97"/>
	<path d="M78.63,28.14c-0.17-4.2-0.98-7.25-1.01-7.38l-0.4-1.5l-1.49-0.44c-0.13-0.04-3.16-0.93-7.35-1.22
		c-2.47-0.17-4.86-0.1-7.1,0.21c-2.86,0.4-5.48,1.2-7.79,2.37c-2.02,1.03-4.27,2.79-6.86,5.37c-2.28,2.28-4.83,5.22-7.58,8.74
		c-0.98-0.21-2.22-0.4-3.62-0.43c-4.34-0.09-8.19,1.36-11.13,4.21c-6.4,6.2-5.74,13.77-5.15,16.74c0.12,0.61,0.41,1.16,0.84,1.61
		c0.5,0.52,1.17,0.85,1.88,0.94c1.36,0.17,2.68-0.54,3.28-1.78c0.87-1.81,2.16-2.95,3.93-3.46c0.07-0.02,0.14-0.04,0.2-0.06
		c0.29,1.37,0.84,3.16,1.85,5.01c-3.29-0.96-6.93-0.22-9.57,2.35c-3.77,3.69-3.85,6.92-3.85,6.92c0.83-0.81,3.64-1.04,3.64-1.04
		s-2.66,0.82-3.73,5.14c-1.05,4.23,1.02,7.83,1.02,7.83s2.46-6.2,5.06-5.36c1.65,0.53,0,2.94-2.88,3.63c0,0,1.34,2.68,4.69,1.79
		c3.35-0.89,4.07-3.43,4.99-3.8c0.92-0.37,1.2,0.5-0.05,2.07c0,0,5.27-1.21,7.29-6.25c0.92-2.29,1.04-4.25,0.65-5.94
		c1.71,0.96,3.36,1.51,4.65,1.83c-0.41,1.39-1.39,3.03-3.63,4.03c-1.26,0.56-2.01,1.86-1.88,3.22c0.13,1.37,1.12,2.49,2.47,2.8
		c0.98,0.22,2.48,0.47,4.27,0.47c3.58,0,8.36-0.99,12.61-5.13c2.93-2.86,4.5-6.66,4.53-10.99v0c0.01-1.45-0.16-2.72-0.33-3.62
		c3.6-2.65,6.61-5.11,8.95-7.33c2.66-2.52,4.49-4.72,5.59-6.73c1.24-2.27,2.11-4.87,2.6-7.72C78.59,33,78.73,30.62,78.63,28.14z
		 M56.97,60.7c-0.04,3.12-1.12,5.72-3.18,7.73c-3.18,3.1-6.76,3.86-9.47,3.87c1.64-1.5,2.49-3.23,2.93-4.62
		c0.38-1.22,0.5-2.32,0.52-3.09c1.71-1.06,5.19-3.24,9.08-5.95C56.93,59.25,56.98,59.95,56.97,60.7z M33.94,52.31
		c-0.33-1.08-0.46-1.98-0.52-2.49c0.36-0.55,1.03-1.57,1.93-2.9c0.9,2.23,2.46,5.24,5.04,8.06L40.43,55l0.03,0.03
		c2.74,2.66,5.71,4.31,7.91,5.27c-1.36,0.86-2.4,1.5-2.96,1.85c-0.51-0.07-1.41-0.23-2.48-0.59c-2.2-0.74-4.06-1.93-5.54-3.55
		l-0.03-0.03l-0.03-0.03C35.75,56.42,34.61,54.52,33.94,52.31z M31.05,47.39c-0.77,0-1.87,0.08-3.1,0.43
		c-1.4,0.4-3.16,1.19-4.7,2.79c0.09-2.71,0.96-6.26,4.15-9.35c2.07-2.01,4.71-3,7.82-2.96c0.75,0.01,1.44,0.08,2.04,0.18
		C34.44,42.29,32.15,45.7,31.05,47.39z M56.74,54.67c-1.72,1.23-3.41,2.38-4.94,3.4c-1.54-0.49-5.49-1.98-9-5.38
		c-3.27-3.59-4.67-7.6-5.11-9.16c1.06-1.5,2.26-3.15,3.54-4.84c0.53-0.7,1.05-1.37,1.56-2.02c0.88,2.45,2.68,5.94,6.37,9.82
		l0.02,0.02c3.76,3.8,7.2,5.7,9.63,6.65C58.14,53.66,57.46,54.16,56.74,54.67z M62.03,50.71c-0.52-0.11-1.36-0.34-2.45-0.8
		c-1.87-0.79-4.77-2.43-8.02-5.71c-3.11-3.27-4.65-6.15-5.4-8c-0.48-1.19-0.7-2.11-0.8-2.66c4.1-4.87,7.57-8.09,10.16-9.41
		c4.24-2.16,9.13-2.34,12.49-2.11c2.44,0.16,4.44,0.56,5.55,0.82c0.23,1.11,0.57,3.13,0.66,5.57c0.13,3.36-0.2,8.24-2.48,12.42
		C70.33,43.38,67.02,46.75,62.03,50.71z M33.02,70.94c0,0-3.23-1.68-5.5,2.42c0,0,0.28-2.62-2.21-3.63
		c-1.43-0.58-2.84-0.06-4.09,0.64c0.36-0.96,1.44-2.16,2.81-3.04c2.26-1.45,2.79-3.17,1.37-4.42c-0.55-0.49-1.04-0.71-1.44-0.81
		c1.1-0.84,4.59-3.04,8.2-0.17C36.21,65.16,34.82,68.8,33.02,70.94z"/>
</g>
</svg>
