<?xml version="1.0" encoding="utf-8"?>
<!-- Generator: Adobe Illustrator 24.0.0, SVG Export Plug-In . SVG Version: 6.00 Build 0)  -->
<svg version="1.1" id="Layer_1" xmlns="http://www.w3.org/2000/svg" xmlns:xlink="http://www.w3.org/1999/xlink" x="0px" y="0px"
	 viewBox="0 0 96 96" style="enable-background:new 0 0 96 96;" xml:space="preserve">
<style type="text/css">
	.st0{fill:#FFFFFF;}
</style>
<g>
	<path class="st0" d="M63.29,13.99l-0.46-0.59l-0.67-0.27c-0.32-0.13-3.18-1.2-6.01,0.24c-1.65,0.84-2.88,2.29-3.66,4.31
		c-1.13,1.05-4.2,3.6-10.01,6.31c-8.1,3.79-17.99,6.28-29.4,7.41c-1.62-1.94-3.85-2.78-6.31-2.39C5,29.3,3.69,30.14,3.45,30.3
		l-0.84,0.57L2.3,31.88c-1.44,4.75-2.21,9.4-2.3,13.82c-0.07,3.59,0.32,7.04,1.14,10.25c1.44,5.62,3.78,8.66,3.88,8.78l0.44,0.56
		l0.64,0.28c1.03,0.44,2.06,0.68,3.06,0.7c1.4,0.03,2.77-0.36,3.96-1.14c0.7-0.46,1.25-0.98,1.64-1.44
		c-0.01,1.88,0.13,3.72,0.41,5.48c0.4,2.55,1.11,4.97,2.09,7.2c1.72,3.89,3.77,5.92,3.86,6l1.01,0.99l1.35-0.27
		c2.01-0.41,4.45-1.76,7.27-4.03c2.07-1.67,3.6-3.24,3.77-3.41l2.35-2.43l-2.65-2.05c-3.03-2.34-4.77-6.25-5.64-8.8
		c4.95,0.36,9.77,1.31,14.34,2.84c5.47,1.83,9.09,3.96,10.47,4.86c0.59,0.95,1.85,2.52,3.96,3.2c0.6,0.19,1.23,0.3,1.87,0.32
		c1.62,0.04,3.33-0.51,5.07-1.63l0.58-0.37l0.35-0.62c0.18-0.32,4.51-8.04,6.49-18.86c1.17-6.41,1.27-12.6,0.3-18.38
		C70.79,26.43,67.86,19.79,63.29,13.99z M19.68,61.68c1.2-0.09,2.4-0.14,3.59-0.15c0.29,1.2,0.84,3.09,1.75,5.18
		c1.2,2.74,2.68,5.05,4.42,6.88c-1.29,1.15-3.76,3.21-5.8,4.09C22.23,75.77,19.09,70.47,19.68,61.68z M63.98,48.3
		c0.63-5.53,0.3-10.97-0.99-16.18c-1.63-6.61-4.37-11.14-5.73-13.1c0.27-0.46,0.59-0.8,0.96-0.99h0c0.63-0.32,1.36-0.26,1.8-0.18
		c6.96,9.16,9.31,20.32,6.98,33.17c-1.54,8.5-4.77,15.11-5.64,16.78c-1.02,0.57-1.88,0.75-2.58,0.53c-0.35-0.11-0.65-0.32-0.88-0.54
		C61.2,61.28,63.24,54.73,63.98,48.3z M54.63,64.87c-1.94-1.14-5.41-2.95-10.14-4.54c-4.42-1.49-9.06-2.48-13.77-2.96
		c-2.14-0.22-4.31-0.32-6.49-0.32c-3.35,0-6.72,0.26-10.09,0.76c-2.39-6.34-2.59-12-2.32-15.68c0.17-2.32,0.54-4.21,0.86-5.51
		c7.05-0.65,13.66-1.83,19.64-3.49c5.06-1.4,9.69-3.16,13.77-5.22c4.01-2.02,6.72-3.94,8.4-5.33c1.3,2.06,3.27,5.76,4.49,10.81
		C61.42,43.44,59.95,54.02,54.63,64.87z M10.55,60.78c-0.62,0.38-1.31,0.44-2.12,0.2c-1.36-2.14-6.18-11.21-1.79-26.61
		c0.26-0.1,0.57-0.21,0.91-0.26c0.55-0.08,1,0,1.38,0.24c-0.42,1.46-1.03,4-1.28,7.3c-0.23,3.06-0.12,6.17,0.35,9.24
		c0.5,3.32,1.42,6.61,2.72,9.77C10.67,60.7,10.61,60.74,10.55,60.78z"/>
	<path class="st0" d="M93.91,36.63l-0.54,0.72c-0.18,0.24-0.35,0.46-0.52,0.67c-2.89,3.66-5.05,3.32-5.7,1.77
		c-0.65-1.55,1.3-3.42,4.01-3.99c-0.68-0.82-3.56-4-7.78-4.5c-2.14-0.16-4.77,0.38-7.34,2.86l-0.78,0.75l0.17,1.11
		c0.01,0.07,1.09,7.5-0.26,13.09l-0.41,1.71l1.52,0.7c0.07,0.03,1.86,0.85,4.42,1.27c1.02,0.17,2.04,0.25,3.03,0.25
		c2.34,0,4.51-0.46,6.45-1.38c1.95-0.92,3.44-2.2,4.44-3.81c0.76-1.23,1.22-2.64,1.37-4.17c0.01-0.07,0.01-0.15,0.02-0.22
		C96.04,42.67,96.03,39.78,93.91,36.63z M79.69,36.72c1.27-0.9,2.65-1.19,4.12-0.88c-0.48,0.7-0.8,1.49-0.93,2.33
		c-0.35,2.16,0.55,4.38,2.35,5.8c1.45,1.15,3.03,1.58,4.68,1.26c0.54-0.1,1.08-0.29,1.61-0.56c-0.49,1.25-1.49,2.22-3.03,2.94
		c-2.55,1.21-5.28,1.11-7.11,0.81c-0.6-0.1-1.19-0.23-1.78-0.39C80.26,43.73,79.97,39.29,79.69,36.72z"/>
</g>
</svg>
