<?xml version="1.0" encoding="utf-8"?>
<!-- Generator: Adobe Illustrator 24.0.0, SVG Export Plug-In . SVG Version: 6.00 Build 0)  -->
<svg version="1.1" id="Layer_1" xmlns="http://www.w3.org/2000/svg" xmlns:xlink="http://www.w3.org/1999/xlink" x="0px" y="0px"
	 viewBox="0 0 96 96" style="enable-background:new 0 0 96 96;" xml:space="preserve">
<style type="text/css">
	.st0{fill:#FFFFFF;}
</style>
<circle cx="48" cy="48" r="48"/>
<g>
	<path class="st0" d="M61.18,18.68l-0.4-0.51l-0.58-0.23c-0.27-0.11-2.74-1.04-5.18,0.2c-1.42,0.72-2.48,1.97-3.15,3.71
		c-0.97,0.91-3.62,3.1-8.63,5.44c-6.98,3.27-15.51,5.42-25.35,6.39c-1.4-1.67-3.32-2.4-5.44-2.06c-1.53,0.25-2.66,0.97-2.87,1.11
		l-0.72,0.49L8.6,34.1c-1.24,4.1-1.91,8.11-1.98,11.92c-0.06,3.1,0.27,6.07,0.98,8.84c1.24,4.84,3.26,7.46,3.35,7.57l0.38,0.49
		l0.55,0.24c0.89,0.38,1.78,0.59,2.64,0.61c1.21,0.03,2.39-0.31,3.42-0.98c0.61-0.39,1.08-0.85,1.42-1.24
		c-0.01,1.62,0.11,3.21,0.35,4.72c0.35,2.2,0.95,4.29,1.8,6.21c1.48,3.36,3.25,5.1,3.33,5.18l0.87,0.85l1.16-0.24
		c1.73-0.35,3.84-1.52,6.27-3.48c1.78-1.44,3.11-2.79,3.25-2.94l2.03-2.1l-2.29-1.77c-2.62-2.02-4.11-5.39-4.86-7.59
		c4.27,0.31,8.42,1.13,12.36,2.45c4.72,1.58,7.83,3.42,9.03,4.19c0.51,0.82,1.6,2.17,3.42,2.76c0.52,0.17,1.06,0.26,1.61,0.27
		c1.4,0.03,2.87-0.44,4.37-1.41l0.5-0.32l0.3-0.53c0.16-0.28,3.89-6.93,5.6-16.26c1.01-5.53,1.1-10.86,0.26-15.85
		C67.65,29.4,65.12,23.68,61.18,18.68z M23.59,59.79c1.03-0.07,2.07-0.12,3.1-0.13c0.25,1.03,0.72,2.67,1.51,4.47
		c1.03,2.36,2.31,4.36,3.81,5.94c-1.11,0.99-3.24,2.77-5,3.53C25.78,71.94,23.07,67.37,23.59,59.79z M61.77,48.26
		c0.54-4.77,0.26-9.46-0.85-13.95c-1.4-5.7-3.77-9.6-4.94-11.29c0.23-0.4,0.51-0.69,0.83-0.85h0c0.54-0.28,1.17-0.23,1.55-0.16
		c6,7.9,8.03,17.52,6.02,28.6c-1.33,7.33-4.12,13.03-4.86,14.46c-0.88,0.49-1.62,0.64-2.22,0.46c-0.31-0.1-0.56-0.28-0.76-0.47
		C59.38,59.45,61.14,53.8,61.77,48.26z M53.71,62.54c-1.67-0.98-4.66-2.54-8.74-3.92c-3.81-1.28-7.81-2.14-11.87-2.55
		c-1.85-0.19-3.72-0.28-5.59-0.28c-2.89,0-5.8,0.22-8.7,0.66c-2.06-5.47-2.23-10.35-2-13.52c0.14-2,0.46-3.63,0.74-4.75
		c6.08-0.56,11.78-1.57,16.93-3.01c4.36-1.21,8.35-2.72,11.87-4.5c3.45-1.74,5.79-3.4,7.25-4.59c1.12,1.77,2.82,4.97,3.87,9.32
		C59.57,44.06,58.3,53.19,53.71,62.54z M15.71,59.01c-0.53,0.32-1.13,0.38-1.83,0.18c-1.17-1.84-5.33-9.66-1.55-22.95
		c0.22-0.09,0.49-0.18,0.79-0.22c0.48-0.07,0.86,0,1.19,0.21c-0.36,1.26-0.88,3.45-1.1,6.29c-0.2,2.64-0.1,5.32,0.3,7.96
		c0.43,2.86,1.22,5.7,2.34,8.43C15.81,58.95,15.76,58.98,15.71,59.01z"/>
	<path class="st0" d="M87.58,38.2l-0.47,0.62c-0.16,0.21-0.31,0.4-0.45,0.58c-2.49,3.15-4.35,2.87-4.92,1.53
		c-0.56-1.34,1.12-2.95,3.46-3.44c-0.59-0.71-3.07-3.44-6.71-3.88c-1.85-0.14-4.12,0.33-6.33,2.47l-0.67,0.65l0.14,0.95
		c0.01,0.06,0.94,6.47-0.22,11.28l-0.36,1.48l1.31,0.6c0.06,0.03,1.6,0.73,3.81,1.1c0.88,0.15,1.76,0.22,2.61,0.22
		c2.02,0,3.89-0.4,5.56-1.19c1.68-0.79,2.97-1.9,3.82-3.28c0.66-1.06,1.06-2.27,1.18-3.59c0.01-0.06,0.01-0.13,0.02-0.19
		C89.41,43.4,89.41,40.91,87.58,38.2z M75.32,38.27c1.09-0.77,2.29-1.03,3.56-0.76c-0.41,0.61-0.69,1.29-0.8,2.01
		c-0.3,1.86,0.48,3.78,2.02,5c1.25,0.99,2.61,1.36,4.03,1.08c0.47-0.09,0.93-0.25,1.39-0.48c-0.42,1.07-1.28,1.91-2.61,2.54
		c-2.2,1.04-4.55,0.95-6.13,0.7c-0.51-0.08-1.03-0.2-1.53-0.34C75.81,44.32,75.56,40.49,75.32,38.27z"/>
</g>
</svg>
