<?xml version="1.0" encoding="utf-8"?>
<!-- Generator: Adobe Illustrator 24.0.0, SVG Export Plug-In . SVG Version: 6.00 Build 0)  -->
<svg version="1.1" id="Layer_1" xmlns="http://www.w3.org/2000/svg" xmlns:xlink="http://www.w3.org/1999/xlink" x="0px" y="0px"
	 viewBox="0 0 96 96" style="enable-background:new 0 0 96 96;" xml:space="preserve">
<style type="text/css">
	.st0{fill:#FFFFFF;}
</style>
<circle class="st0" cx="48" cy="48" r="48"/>
<g>
	<path d="M60.48,60.49c-6.51-5.22-14.33-5.42-14.33-5.42S25.2,55.6,23.31,77.8h22.84h5.4c-0.76-1.59-1.18-3.37-1.18-5.25
		C50.36,66.53,54.74,61.5,60.48,60.49z"/>
	<path d="M62.62,62.49c-5.55,0-10.07,4.52-10.07,10.07c0,5.55,4.52,10.07,10.07,10.07c5.55,0,10.07-4.52,10.07-10.07
		C72.69,67,68.17,62.49,62.62,62.49z M68.4,73.89h-4.44v4.44c0,0.74-0.6,1.34-1.34,1.34c-0.74,0-1.34-0.6-1.34-1.34v-4.44h-4.44
		c-0.74,0-1.34-0.6-1.34-1.34c0-0.74,0.6-1.34,1.34-1.34h4.44v-4.44c0-0.74,0.6-1.34,1.34-1.34c0.74,0,1.34,0.6,1.34,1.34v4.44h4.44
		c0.74,0,1.34,0.6,1.34,1.34C69.74,73.29,69.14,73.89,68.4,73.89z"/>
	<path d="M44.38,50.92c0.58,0.1,1.16,0.15,1.77,0.15c0,0,0.14,0,0.39-0.01c0.55-0.02,1.08-0.08,1.6-0.18
		c2.67-0.45,7.37-1.95,10.05-6.99c3.89-7.32-0.51-17.09-0.51-17.09s-0.12,3.28-2.32,4.57c0,0,2.37-4.15-3.03-8.77
		c-5.4-4.61-3.76-9.23-3.76-9.23s-6.2,2.04-7.05,6.06c-0.86,4.02,1.72,5.87,0,7.91c-1.33,1.58-4.02,0.33-3.36-3.89
		c0,0-6.68,6.13-5.3,16.15C34.05,48.34,40.11,50.4,44.38,50.92z"/>
</g>
</svg>
