<?xml version="1.0" encoding="utf-8"?>
<!-- Generator: Adobe Illustrator 24.0.0, SVG Export Plug-In . SVG Version: 6.00 Build 0)  -->
<svg version="1.1" id="Layer_1" xmlns="http://www.w3.org/2000/svg" xmlns:xlink="http://www.w3.org/1999/xlink" x="0px" y="0px"
	 viewBox="0 0 48 48" style="enable-background:new 0 0 48 48;" xml:space="preserve">
<style type="text/css">
	.st0{fill:#FFFFFF;}
	.st1{fill:#57C61C;}
</style>
<g>
	<circle class="st1" cx="24" cy="24" r="23.98"/>
	<g>
		<path class="st0" d="M34.73,36.58c0.64-0.52,2-2.09,2.2-6.06c0.25-5.23-2.66-7.34-2.66-7.34s0.96,3.2-1.09,3.52
			c-0.61-0.07-2.1-0.23-2.85-1.63c-0.75-1.41,1.16-3.77,1.3-7.38c0.15-3.61-3.73-5.1-3.73-5.1c1.34,1.6-0.41,6.11-3.9,4.47
			c-3.49-1.64-0.99-7.71-0.99-7.71c-3.59,1.12-5.58,5.96-3.83,10.02c1.75,4.06-1.38,7.12-3.43,5.71c-2.05-1.41-1.04-4.93-1.04-4.93
			s-3.84,3.91-3.54,9.07c0.26,4.45,2,6.53,2.58,7.14c-1.21,0.58-2.35,1.34-3.25,2.32c0,0,4.92-3.29,13.5-3.06v0c0,0,0,0,0,0s0,0,0,0
			v0c8.58-0.24,13.5,3.06,13.5,3.06C36.72,37.81,35.76,37.13,34.73,36.58z M24,25.91L24,25.91L24,25.91L24,25.91L24,25.91
			c-0.01,0.01-5.02,4.01-2.54,8.55c0,0-3.56,0.15-6.93,1.54c-0.46-4.5,3.16-7.22,3.16-7.22c-0.34,1.83,0.34,4.1,0.34,4.1
			c0.96-4.68,4.99-8.82,6.14-9.92c0.86,0.87,4.85,5.11,5.08,9.33c0,0,0.42-2.53,0-4.47c0,0,5.44,2.78,4.43,8.26
			c-3.43-1.47-7.12-1.62-7.12-1.62C29.02,29.92,24.01,25.92,24,25.91z"/>
	</g>
</g>
</svg>
